<?xml version="1.0" encoding="utf-8"?>
<!-- Generator: Adobe Illustrator 22.0.1, SVG Export Plug-In . SVG Version: 6.00 Build 0)  -->
<svg version="1.1" id="Layer_1" xmlns="http://www.w3.org/2000/svg" xmlns:xlink="http://www.w3.org/1999/xlink" x="0px" y="0px"
	 viewBox="0 0 471 471" style="enable-background:new 0 0 471 471;" xml:space="preserve">
<style type="text/css">
	.st0{fill:#727272;}
	.st1{clip-path:url(#SVGID_2_);}
	.st2{fill:#7BCBBE;}
	.st3{fill:#F96858;}
	.st4{fill:#4D1A57;}
	.st5{fill:#7E3C8E;}
	.st6{fill:#ED452D;}
	.st7{fill:#C92F1F;}
	.st8{fill:#839E64;}
	.st9{fill:#FFFFFF;}
	.st10{fill:#A6CE72;}
	.st11{fill:#FECD36;}
	.st12{fill:#F2BE2A;}
	.st13{fill:#1B8910;}
	.st14{fill:none;}
	.st15{fill:#F3F7D6;}
	.st16{fill:#E5E8C5;}
	.st17{fill:#D13020;}
	.st18{fill:#677F47;}
	.st19{fill:#FFD90F;}
	.st20{fill:#F2EDE9;}
	.st21{fill:#D3A933;}
</style>
<g>
	<g>
		<path class="st0" d="M723.9-317.3c7.7,0,7.7-12,0-12C716.1-329.3,716.1-317.3,723.9-317.3L723.9-317.3z"/>
	</g>
</g>
<g>
	<g>
		<defs>
			<rect id="SVGID_1_" x="-0.4" y="-1.9" width="471" height="472.5"/>
		</defs>
		<clipPath id="SVGID_2_">
			<use xlink:href="#SVGID_1_"  style="overflow:visible;"/>
		</clipPath>
		<g class="st1">
			<rect x="-25.6" y="-14.2" class="st2" width="502.6" height="489.2"/>
			<path class="st3" d="M-5.2,138.6c13.2-8.8,19.4-9.8,25.7-7.2c6.3,2.6,14.2,4.7,20.5,1.3c6.3-3.4,21-5.6,29.4-2.4
				c8.5,3.2,25.2,0.3,29.4-4.4s17.4-10.9,29.4-3s21.2,3.1,26.5-0.3c6.1-3.9,14.8-9.7,14.8-9.7l14.7,9.9l10.8-9.1l24.8,12.5
				l-21.2,19.1l-206.6,9.9L-5.2,138.6z"/>
			<g>
				<rect x="-116.8" y="17.7" class="st4" width="53.3" height="111.3"/>
				<g>
					<rect x="-110.1" y="23.8" class="st5" width="12.8" height="11.8"/>
					<rect x="-94.9" y="23.8" class="st5" width="12.8" height="11.8"/>
					<rect x="-79.6" y="23.8" class="st5" width="12.8" height="11.8"/>
				</g>
				<g>
					<rect x="-110.1" y="42.8" class="st5" width="12.8" height="11.8"/>
					<rect x="-94.9" y="42.8" class="st5" width="12.8" height="11.8"/>
					<rect x="-79.6" y="42.8" class="st5" width="12.8" height="11.8"/>
				</g>
				<g>
					<rect x="-110.1" y="61.7" class="st5" width="12.8" height="11.8"/>
					<rect x="-94.9" y="61.7" class="st5" width="12.8" height="11.8"/>
					<rect x="-79.6" y="61.7" class="st5" width="12.8" height="11.8"/>
				</g>
				<g>
					<rect x="-110.1" y="80.6" class="st5" width="12.8" height="11.8"/>
					<rect x="-94.9" y="80.6" class="st5" width="12.8" height="11.8"/>
					<rect x="-79.6" y="80.6" class="st5" width="12.8" height="11.8"/>
				</g>
				<g>
					<rect x="-110.1" y="100.1" class="st5" width="12.8" height="11.8"/>
					<rect x="-94.9" y="100.1" class="st5" width="12.8" height="11.8"/>
					<rect x="-79.6" y="100.1" class="st5" width="12.8" height="11.8"/>
				</g>
			</g>
			<g>
				<g>
					<circle class="st4" cx="-152" cy="107.2" r="1.5"/>
					<circle class="st4" cx="-148.2" cy="107.1" r="1.5"/>
					<circle class="st4" cx="-138.8" cy="107" r="1.5"/>
					<circle class="st4" cx="-135" cy="107" r="1.5"/>
					<g>
						<path class="st4" d="M-163,94c1.9-2.6,4.9-4.5,6.5-4c2.8,0.7,5.7,3.4,5.7,3.4c4.4-3.4,6.1-3.6,8.5-1.7s2.4,1.9,2.4,1.9
							c3.1-3.7,7.7-4.4,11.9,0C-128.1,95.7-163,94-163,94z"/>
						<polygon class="st6" points="-164.2,93.8 -127.6,93.2 -127.5,98 -130.5,103.3 -130.5,106.2 -154.7,106.5 -160.9,106.6 
							-161,103.1 -164.3,97.7 						"/>
						<polygon class="st7" points="-155,103 -157.7,97.3 -157.7,93.7 -164.2,93.8 -164.2,97.7 -161,103.1 -160.9,106.6 
							-154.7,106.5 						"/>
					</g>
				</g>
				<g>
					<circle class="st4" cx="-186.4" cy="108.3" r="1.7"/>
					<circle class="st4" cx="-182.3" cy="108.2" r="1.7"/>
					<circle class="st4" cx="-172" cy="108.1" r="1.7"/>
					<circle class="st4" cx="-167.9" cy="108.1" r="1.7"/>
					<g>
						<path class="st4" d="M-198.4,94c2.1-2.9,5.3-4.9,7.1-4.4c3,0.8,6.2,3.7,6.2,3.7c4.7-3.7,6.7-3.9,9.3-1.9
							c2.6,2.1,2.6,2.1,2.6,2.1c3.4-4,8.4-4.8,12.9,0C-160.4,95.8-198.4,94-198.4,94z"/>
						<polygon class="st6" points="-199.7,93.7 -159.8,93.1 -159.7,98.3 -163,104.1 -163,107.2 -189.3,107.6 -196.1,107.7 
							-196.2,103.8 -199.8,98 						"/>
						<polygon class="st7" points="-189.7,103.7 -192.5,97.6 -192.6,93.6 -199.7,93.7 -199.6,98 -196.2,103.8 -196.1,107.7 
							-189.3,107.6 						"/>
					</g>
				</g>
			</g>
			<path class="st8" d="M222.6,131.6c-233.5,0.5-421.5,44.2-421.5,120s188,155.2,421.5,157.5V131.6z"/>
			<path class="st8" d="M230.4,131.6c-0.3,0-0.5,0-0.8,0v277.5c0.3,0,0.5,0,0.8,0c237.1,0,429.2-80.9,429.2-157.5
				S467.4,131.6,230.4,131.6z"/>
			<path class="st9" d="M76.8,108.3c-2.6,2.1-6,3.3-9.7,3.2c-4.8-0.1-9.1-2.5-11.7-6c-2.2,1.2-4.8,1.9-7.6,1.8
				c-2.8-0.1-5.3-0.9-7.5-2.2c2.6,25.1,7.5,72,7.3,73.3c8.6-2.6,23.3,1.5,25.9,5.2c4.5-37.1,7.6-58.8,9.7-71.4
				C80.8,111.3,78.6,110,76.8,108.3z"/>
			<path class="st9" d="M112.4,70c0.3-10.6-8.7-19.3-19.9-19.6c-3.2-0.1-6.3,0.6-9.1,1.8c-2.6-3.3-6.7-5.4-11.4-5.5
				c-1.9,0-3.7,0.3-5.3,0.8c-2.8-3.4-7.4-5.6-12.8-5.7C46.1,41.5,39.5,46,38,52c-0.7-0.1-1.4-0.2-2.1-0.2c-8.8-0.2-16,5.4-16.2,12.6
				c0,2,0.5,3.8,1.4,5.5c-2.5,2.2-4.1,5.2-4.2,8.5c-0.2,7.2,6.8,13.2,15.6,13.4c0.4,0,0.8,0,1.2,0c0.9,6.6,6.9,11.8,14.2,12
				c2.8,0.1,5.4-0.6,7.6-1.8c2.6,3.4,6.8,5.7,11.7,5.9c3.7,0.1,7.1-1.1,9.7-3.1c3.5,3.1,8.2,5,13.4,5.1c11.3,0.3,20.6-8.1,20.8-18.6
				c0.1-3.7-1-7.2-2.8-10.2C110.7,78.1,112.3,74.2,112.4,70z"/>
			<path class="st10" d="M138.3,226.6c-9.9-3.6-8.3-7.1-1.9-9.7c0.7-1.2,2-2,3.7-1.6c0.2,0,0.4,0.1,0.7,0.1c4.9-1.4,11.1-2.5,17.1-3
				c0.9,0,1.7,0,2.5,0c3.7-1.5,5.8-3.6,4.2-6.3c-4-6.5-14.7-8.5-21.2-10.1c-7.7-1.9-15.7-3.2-23.1-6.5c-1.5-0.7-2.2-2.1-2.2-3.5
				c-9.9-5-11.6-13.3-11.6-13.3c-13.2-12.3-33,1.4-45.3,2.4c-16.8,2.3-15.7-3-25.7-4.3c-10.3-0.9-24.6,11.3-41.5,19.6
				c-26.4,2-63.5,21.8-20.4,20.8c43.1-1,61.4,10.2,21.4,19.2s16.4,13.1,41.5,10.3C125.7,242.3,156.1,233,138.3,226.6z"/>
			<g>
				<path class="st4" d="M200.3,281c-10-40.3-67.7-36-78.7-32.6c-9,1.7-21.3-9-21.3-9c7-10.7,1.5-19.8-13.4-13.6
					c-19.6-6.4-25.6-5.8-25.6-5.8c-4.3-13-22.3-7.9-11.6,5.7c-11,17.3-0.7,33.3,4.3,36.3c9.3,2,14.7,3.7,14.7,3.7l0.3,26.3l84,5
					l31.7-13.7L200.3,281z"/>
				<path class="st11" d="M60.2,233.9c-6.3-1.6-8.3-4.8-4.3-6.9c0.9-0.5,3.3-0.7,4.8-0.4c1.6,0.4,5,1.8,5.5,2.6
					C67.7,232.3,68.3,234.5,60.2,233.9z"/>
				<ellipse class="st11" cx="53.2" cy="244.9" rx="5.8" ry="9.2"/>
				<path class="st4" d="M55.3,238.7c-1.2-1.7-2.5-1.8-4-0.5c-1.1,1-1.8,2.2-2.3,4.1c2.1,2.3,4.6,2.2,7,2.8
					C56.8,242.5,56.5,240.5,55.3,238.7z M51.7,241.3c-0.6-0.6-0.4-1.1,0.1-1.6C52.2,240.2,52.7,240.8,51.7,241.3z M54.1,242.4
					c-0.6-0.6-0.4-1.1,0.1-1.6C54.6,241.3,55.1,241.9,54.1,242.4z"/>
				<path class="st4" d="M51.5,242.8l-0.2,4.7c0,0-2.5-0.9-2.5-0.5s-0.4,1.2,2.6,2.3c3,1.1,4.5,0.5,3.5-0.3c-1-0.8-2-1-2-1v-4.1
					L51.5,242.8z"/>
				<circle class="st4" cx="57.4" cy="228.8" r="1.3"/>
				<path class="st11" d="M64.2,233.2c-1.9-0.1-2.6-1.7-1.6-3.5c0.2-0.4,0.9-0.9,1.3-0.9c0.5,0,1.5,0.4,1.7,0.8
					C66.2,231.2,66.5,232.5,64.2,233.2z"/>
				<circle class="st4" cx="64" cy="231" r="1.3"/>
			</g>
			<path class="st8" d="M468,88c-3-4-6-31-17.9-37.7c0,0-7.1-10.3-16.1-3.3c0,0,0,0-12.7-1.4c0,0,3.2,2.4-18.3,28
				c-5.5,4.6-18-2.7-26.2,3.8c0,0-4.8,25.5-46.4,20.3C288.8,92.6,293,82,257,114c0,0,0,0-24.2,6.3c-0.1,0.9-0.2,1.8-0.3,2.7
				c-1.8,13.8-6.7,27.1-13.1,39.3c-6.5,12.4,28.7,50,18.7,59.8c-10.5,10.3,12.2,45.9,0,54c-13,8.6-89,14-102,22.5
				c-25.9,16.9-67.6-17.4-95.8-4.5c-14,6.4-28.4,12.4-43.2,16.8c-7.2,2.1-14.5,3.7-22,4.4c-2.2,0.2-4.3,0.3-6.5,0.3L-55,499h556
				l11-365C512,134,496,107,468,88z"/>
			<path class="st6" d="M254,116.7c28.7-27.3,33.1-27.3,60.6-22.3c28.8,5.6,34.1,7.6,52.1-3.7c25.3-29.3,25.3-12,30-12
				c6.7-2,18-20.7,18-20.7c10-16,13.5-16.1,15.4-10.4c9.9-6.9,11.9-8.9,11.9-8.9c5.3,10.7,3.3,10.7,5.3,10.7c8.7-0.7,9.3,2.7,10,9.3
				c2,16.7,45.6,60.6,47.5,64C506.7,126,486,150,486,150l-19.3,2.7l-26.7-12c0,0-150-18.1-182.7-4.4C256,122.7,254,116.7,254,116.7z
				"/>
			<path class="st9" d="M404.8,72c18.2-6.7,12.8-2.4,10.5-0.2c-2.3,2.1,5.6,6.2,17.9-4.3c12.3-10.5,9.5,4.3,6.1,6.4
				c-3.3,2.1,7.7,1.3,12.3-3.2c4.6-4.6,8.7-2.1,10.8,4.6c2.3,7,11.2,8,8.1,4c-1.5-7.8-16-32.4-17.8-32.4c-2,0-6.7-0.5-6.7-0.5
				c-0.5-0.8-4.4-8.6-4.4-8.6l-8.4,7.5l-9.2-3.8L407.6,68L404.8,72z"/>
			<g>
				<path class="st11" d="M370.9,263.2c-0.5,20.6-1,22.2-1,22.2l-104.3,6.4l-13.9-42.6c53.5-16.1,84.9-21.7,93.1-4.4
					c19.1-1.6,24,2.5,22.7,9.9"/>
				<path class="st4" d="M345.5,249.3c-1.2,2.2-1,6.9,0.5,8c1,0.7,2.5,0.8,3.8,0.7c0.6,0,1.4-1.1,1.6-1.8c0.3-1.3-0.8-1.7-1.8-2.4
					c-1.1-0.7-1.8-1.8-2.7-2.7C346.4,250.6,346,249.9,345.5,249.3z"/>
				<path class="st4" d="M355.1,259.8c-0.2-1.7,1.1-3.4,2.2-3.2c0.5,0.1,1.1,0.8,1.1,1.3c0,1.2-0.4,2.5-1.9,2.7
					C356.1,260.6,355.5,259.9,355.1,259.8z"/>
				<g>
					<path class="st12" d="M291.6,252.6c-4.4,0.8-8.7,1.5-13.1,2.2c-0.5,0.1-1.1-0.4-2.3-0.9c1.1-0.4,1.6-0.7,2.2-0.8
						c3.8-0.7,7.5-1.4,11.3-2.1C290.6,250.8,291.4,251.1,291.6,252.6z"/>
					<path class="st12" d="M319.5,254.9c3.5-0.2,7-1.6,10.6-0.3C326.6,255.4,323.1,257.2,319.5,254.9z"/>
					<path class="st12" d="M299.1,260.5c4.2-0.9,8.1-1.7,12.2-1.6c-1.7,1.4-4,1.2-6,1.8C300.8,262.1,300.7,262,299.1,260.5z"/>
					<path class="st12" d="M318.3,270.3c0.6-0.2,1.3-0.6,1.9-0.6c2.6,0.2,5.2-1.5,8.2,0C324,271.3,321.6,271.6,318.3,270.3z"/>
					<path class="st12" d="M311.2,247.8c-2.6,2.2-7.5,3-11.1,2.1c1.4-1.9,3.5-0.8,5-1.3C306.8,248,308.7,248.1,311.2,247.8z"/>
					<path class="st12" d="M288.9,259c-2.9,1.2-5.7,2.8-9.1,2.1C282.6,259.7,285.6,258.8,288.9,259z"/>
					<path class="st12" d="M345.2,272.3c-1,1.8-1.5,1.9-6,1.2C340.8,270.9,343.3,272.8,345.2,272.3z"/>
				</g>
				<path class="st4" d="M364.5,258c-0.7,1.6-1.1,2.5-1.5,3.4c-1.6-0.7-1.6-1.7-1-2.6C362.2,258.5,363.1,258.4,364.5,258z"/>
				<path class="st4" d="M371.7,282.4c-0.5-10.5,0.2-21-3.4-31c-0.1-0.2,0-0.4,0.1-0.5c-5.8-7.5-13.9-8.6-23.2-7.3
					c-0.3-0.5-0.8-1.2-1.1-2c-2.8-6.3-8.2-8.5-14.9-8.8c-7.2-0.4-14.2,1.2-21.2,1.9c-2.5,0.3-4.9,0.6-7.4,0.9c-4,0.6-8.1,0.5-12,1.6
					c-3.3,1-6.8,1.9-10.3,2.1c-4.9,0.4-9.5,1.7-14,3.4c-1.7,0.6-12.4,3.2-13.7,4.3c0.5,0.8,0.7,1.7,0.9,2.6c0.7-0.5,10.8-2.7,11.7-3
					c0.6-0.3,1.2-0.6,1.9-0.8c3.2-0.9,6.5-1.7,9.8-2.4c31.7-7.3,48.8-10,58.7-7c2.3,0.5,4.5,1.5,6.2,3.4c1.5,1.7,2.8,3.7,3.7,5.7
					c16.1-3.2,21.8,4.3,23.4,7.7c0.1,0.3,0.3,0.8,0.5,1.4c0.8,1.8,1.4,3.8,1.6,6c0.4,3.5,0.9,7,1.2,10.6c0.4,3.5,0.7,6.7,0.7,8.3
					c-0.2,1.1-0.4,2-0.5,2.8H371.7z"/>
				<path class="st4" d="M368.5,252.5c4.4-4.4,5.4-5.3,5.4-5.3c1.6,2.6-4.2,10.4-4.2,10.4L368.5,252.5z"/>
			</g>
			<path class="st9" d="M377.9,76.8c-12.4,14.3-5.6,11.1-1.1,7.9s10.8-7.1,8.5-3.4c-2.3,3.8,15.5-4.1,17.5-6c2-1.9-7.9-1.1-11.9-2.1
				c-6.3-1.3-9.7,0.6-9.7,0.6C379.8,74.9,377.9,76.8,377.9,76.8z"/>
			<path class="st2" d="M519.3,269.1c-138.8-40-150.3-60.8-143.2-66.3c25.9-20.1,84.2-29,104.6-34.1c12.2-3.1,50.1,10.2,57.3,1.3
				c-1.5-1-57-14.6-58.5-17c-11.3-17.8-72.4-22.8-177.5-23.5c-14.5,0.5-29.8,1.2-45.7,2.1l-0.2,5.1c159.2-2.6,216.2,9.3,184.5,19
				c-12.2,2.9-23.2,5.3-33.2,7.7c-23,5.5-41.6,11.4-53.7,19.1c-3.9,2.7-7.4,5.7-10.5,9.2c-2.8,3.7-4.5,7.8-4.8,12.3
				c-1.3,18.2,21.1,32.6,40.7,43.1c14,7.5,72.4,33.4,95,42.4l46-17.8L519.3,269.1z"/>
			<path class="st9" d="M263.5,107.5c42.6-0.5,48.5-0.8,44.1-3.8s6.2-4.2,12.9-2.2c10.8,3,26.1-1.2,19.9-1.2c-6.2,0,3.9-2.5,3.9-2.5
				c-43.9-8.2-55.7-10-62.4-5.5C275.1,96.8,263.5,107.5,263.5,107.5z"/>
			<path class="st9" d="M385,36.6c0.6,0.8,0.9,1.3,1.3,1.8c1.7,2.1,2,4.6,1.2,7c-0.9,3-3.7,4.2-6.6,4.5c-5.2,0.6-10.4,0.5-15.3-1.6
				c-3.3-1.4-6.5-1.1-9.6,0.3c-2,0.9-3.9,2-5.8,3c-0.4,0.2-0.8,0.4-1,0.7c-1.9,2.4-4.5,3.7-7.2,5c-1,0.5-1.8,1.3-2.7,1.8
				c-5.2,2.6-10.5,3.1-16,1.1c-2-0.8-4.1-1.6-5.9-2.7c-4.5-2.8-9.3-3.3-14.4-2.4c-2.8,0.4-5.4,1.3-8,2.2c-2.8,1-6.6-0.1-8.3-2.4
				c-0.8-1.1-0.8-2.3-0.2-3.5c0.8-1.5,1.6-2.9,2.5-4.3c1.1-1.5,3-1.9,4.7-2.2c2-0.4,4.1-0.6,6.1-0.8c0.5-0.1,1,0,1.5-0.1
				c1-0.1,2.1-0.3,2.4-1.5c0.2-1.1-0.6-1.7-1.5-2.1c-1.6-0.7-3.3-1.3-4.9-2c-1.3-0.5-2.8-0.9-3.9-1.7c-2.3-1.6-1.7-3.5-0.3-5
				c2.9-3.1,6.6-4.8,10.8-5.5c2.4-0.4,4.7-0.6,7.1-0.7c4-0.2,7.7-1,11.2-3.1c6.8-4,14.1-4.3,21.7-2.3c4.4,1.2,8.7,2.9,13.5,2.8
				c1.4,0,2.9-0.1,4.3-0.3c5-0.8,10-1.8,15.1-2.6c4.7-0.7,9.3,0,13.8,1.7c1.1,0.4,2.3,0.7,3.5,0.7c1.5-0.1,2.2,0.7,2.8,1.7
				c1.4,2.7,0.3,7.4-2.2,9.2c-0.9,0.7-2.1,1-3.2,1.3c-1.2,0.4-2.5,0.4-3.7,0.8C386.6,35.6,385.9,36.2,385,36.6z"/>
			<path class="st4" d="M603.6,117.1c0.9,0,1.6,0.1,2.2-0.1c1.8-0.5,2.7,0.2,3.1,1.8c0.1,0.4,0.2,0.9,0.4,1.3c0.9,2.6,1.7,3,4.4,1.8
				c1.7-0.8,3.4-1.7,5.3-2.6c0.5,1,0.9,1.8,1.3,2.6c1.3,2.3,2.1,2.6,4.5,1.5c0.5-0.2,1.1-0.5,1.5-0.8c1.6-1.3,3-1.2,4.8-0.3
				c3.2,1.7,3.8,1.3,5.1-2c0.4-0.9,0.9-1.8,1.4-2.7c0.7,0.4,1.1,0.6,1.5,0.8c0.4,0.2,0.8,0.2,1.3,0.4c0.7-2.4,0.2-4-1.8-5.2
				c-1.1-0.6-2.4-1.1-3.3-1.9c-1.2-1.2-2.3-1.4-3.6-0.3c-0.5,0.4-1.2,0.8-1.8,1.1c-2.3,1.2-3.2,1-4.8-1c-0.4-0.5-0.7-1.2-1.1-1.7
				c-1.1-1.6-1.7-1.9-3.4-0.9c-1.4,0.8-2.6,1.8-4,2.7c0.1-0.2,0.3-0.4,0.4-0.7c-0.8-0.5-1.9-0.8-2.4-1.5c-2.1-2.6-4.7-2.8-7.7,0.3
				c-0.7,0.7-1.1,1.8-1.9,2.4C603.4,113.4,603.1,114.9,603.6,117.1z"/>
			<path class="st7" d="M468.8,111.3c-2.8-4.8-7-8.2-6.6-13.9c0.1-1.8,0-3.6-0.2-5.4c-0.1-1-0.4-2.1-1.1-2.8
				c-2.5-2.7-3.6-5.7-3.2-9.4c0.2-1.8-0.2-3.6-0.3-5.4c0-0.7,0.2-1.4,0.3-2.7c2.1,1.9,2.3,4,2,5.9c-0.5,3.2,0.1,5.9,2.2,8.6
				c1.4,1.8,2.2,3.9,2,6.3c-0.6,5,1.1,9.3,4.3,13.3C469.2,107.3,469.8,108.9,468.8,111.3z"/>
			<path class="st7" d="M436.4,77.8c2.1,2.9,1.7,5.2,0.7,7.5c-1.8,4.3-1.6,8.5-0.9,13c0.6,3.9,0.9,7.8,1.2,11.8
				c0.1,1.1-0.3,2.3-0.5,3.5c-0.3,0-0.5,0.1-0.8,0.1c-0.3-0.6-0.9-1.2-1-1.8c-0.7-6.1-1.5-12.3-1.9-18.5c-0.1-2.2,0.6-4.4,1.3-6.6
				c0.8-2.3,1.4-4.5,1-6.9C435.6,79.3,436,78.8,436.4,77.8z"/>
			<path class="st7" d="M452.7,119.6c-0.4-0.6-1.2-1.1-1.3-1.7c-0.5-3.2-0.8-6.5-1.3-9.7c-0.2-1.4-0.8-2.8-1.5-4.1
				c-1.5-2.9-2.3-5.9-1.8-9.2c0.4-2.7,1-5.4,1.5-8.1c0.3,0,0.6,0.1,0.8,0.1c0,0.7,0.1,1.4-0.1,2.1c-0.9,5.3-0.6,10.3,2.1,15.1
				c0.5,0.9,0.7,1.9,0.9,2.9c0.6,3.1,1.1,6.2,1.5,9.4c0.1,0.9,0,1.9,0,2.8C453.4,119.4,453,119.5,452.7,119.6z"/>
			<path class="st13" d="M458.4,364.2c0.2,1.4,0.4,2.4,0.6,3.8c2.1-1.9,3.9-3.6,6.2-5.7c0.3,1.3,0.4,2.1,0.6,3
				c0.2,0.8,0.4,1.7,0.6,2.5c0.2,0.7,0.5,1.3,0.7,2c-0.8,0.2-1.6,0.4-2.7,0.6c-0.1-1.7-0.2-3-0.3-4.9c-1.2,1.3-2,2.2-2.8,3.2
				c-0.8,0.9-1.6,1.8-2.4,2.8c-2.1-1.3-1-3.1-1.6-5.3c-1.1,2.3-1.8,3.9-2.9,6.2c-1.3-1.7-2.2-3-3.3-4.6c-0.4,1.2-0.9,2.5-1.4,3.9
				c-1.3-2.8-1.1-3.8,1.3-6.8c1.1,1.4,2.1,2.7,3.3,4.4C454.8,366.9,455.6,365,458.4,364.2z"/>
			<path class="st7" d="M302.5,113.2c-1.1,0.3-2.2,0.7-3.4,0.8c-7.4,0.5-14.6-0.4-21.9-1.2c-0.1-0.3-0.1-0.6-0.2-0.8
				c0.6-0.4,1.1-1,1.7-1.1c1.1-0.2,2.4-0.1,3.5,0c6.6,0.5,13.3,1,19.9,1.4C302.3,112.7,302.4,112.9,302.5,113.2z"/>
			<path class="st7" d="M294.5,118.1c8.8-0.5,17.7-1,27.1-1.5c-0.7,0.8-1,1.5-1.5,1.6c-2.7,0.5-5.5,1-8.3,1.1
				c-5.2,0.1-10.5-0.1-15.7-0.2c-0.5,0-1.1-0.2-1.6-0.3C294.5,118.6,294.5,118.3,294.5,118.1z"/>
			<path class="st7" d="M379.5,113.7c0.2-0.9,0.5-1.8,0.4-2.8c0-1.4,0.1-3-0.5-4.2c-0.6-1.4-0.6-2.7,0.2-3.8
				c1.3-1.8,1.5-3.7,1.3-5.8c-0.1-0.8,0.4-1.7,1-2.6c1.4,2.5,1.5,5,0.1,7.3c-0.9,1.6-1.1,2.9-0.2,4.4c1.4,2.4-0.1,4.5-0.7,6.7
				c-0.1,0.4-0.8,0.7-1.2,1C379.9,113.8,379.7,113.7,379.5,113.7z"/>
			<path class="st7" d="M399.1,99.1c1.1,5.4-1.3,9.7-4.3,13.8c0.4-1.4,0.4-3,1.2-4.1c1.5-2.1,1.6-4.3,1.4-6.7
				c-0.1-0.7-0.1-1.4,0.2-2C397.8,99.7,398.5,99.4,399.1,99.1z"/>
			<path class="st7" d="M329.3,110.6c3.2-1.5,6.1,0.9,9.2,0.6c0.5,1.8-0.8,2.2-1.7,2c-2.6-0.4-5.1-1.1-7.6-1.7
				C329.2,111.3,329.2,111,329.3,110.6z"/>
			<path class="st4" d="M412.4,474.4c1.5,2.7,1.9,5.7,2.8,8.6c0.1,0.3-0.4,0.9-0.7,1.4C412.8,482.2,411.9,478.5,412.4,474.4z"/>
			<path class="st7" d="M409.3,102.7c-0.6-1.1-0.8-1.4-0.8-1.7c0-0.4,0.1-0.9,0.3-1.3c1.2-2.7,2.5-5.3,4-7.9
				C412.4,95.5,411,98.8,409.3,102.7z"/>
			<path class="st7" d="M352.8,119c-2.9,1.1-5.9,1-8.8-0.4C347,118,349.7,117.4,352.8,119z"/>
			<path class="st4" d="M413,357.5c0,2-0.1,4-0.1,6.1c-2.1-2-1.4-4.1-0.8-6.2C412.4,357.4,412.7,357.4,413,357.5z"/>
			<path class="st4" d="M406.2,358c0.2,2.2,0.3,4.5,0.5,6.7c-2.2-2-1.8-4.3-1.4-6.6C405.5,358.1,405.9,358,406.2,358z"/>
			<path class="st7" d="M423.4,96.7c-1.1,2.1,0.2,4.9-2.4,7C420.4,100.7,421.5,98.6,423.4,96.7z"/>
			<path class="st13" d="M452.4,299.9c1,2.1,1.2,4.3,0.6,7C451.2,304.4,452.7,302.1,452.4,299.9z"/>
			<path class="st13" d="M447.1,300.8c0.4,2.3,1.3,4.6,0,7.3C446.3,305.4,446.1,303.1,447.1,300.8z"/>
			<path class="st13" d="M458.6,300.6c2.3,2.4,2.4,2.8,1.7,5.8C458.4,304.7,459.8,302.3,458.6,300.6z"/>
			<path class="st7" d="M403.6,83.9c-0.3,1.2-0.6,2.3-0.9,3.6C401.2,85.4,401.2,85.4,403.6,83.9z"/>
			<path class="st6" d="M478,268l0,2.5c0,0-33,9.5-42,3s-47.5-5-51.5-1.5s-22,4-37-0.5s-25-1.5-37,2.5s-31,0-46.5-12.5l0.8-0.5
				c-11.3-10.1-22.2-33.4-19.5-87.5l-10.8,2.5l-18.9-2.5c0,30.3,0.6,52.7-2.2,68.2c-0.5,3.6-1.4,7.8-2.8,12.3c-4.5,15-28.5,29-48,22
				s-66.5-7-74-1.5s-20.5,5-33-1c-9.5-3-14.5-5-37.5,6.5c-13.8,4.7-11.6-6.5-28-2.6v177.2h32.4v22.2c0,25.7,18.5,46.6,41.2,46.6
				h59.3v-3.1H63.5c-21.2,0-38.4-19.5-38.4-43.5v-22.2H232v-25.4l146.4,2.8l0.3,22.6h59.5v22.2c0,24-17.2,43.5-38.4,43.5h-59.3v3.1
				h59.3c22.7,0,41.2-20.9,41.2-46.6v-22.2h179.8V267.7L478,268z"/>
			<path class="st11" d="M223.8,184c0.1,16.8,0.5,29.1,1.5,26.6c1.1-1.9,1.4-3.4,1.5-4.3c0.1,5.4,0.7,31.1,3,27
				c2.5-4.6,2.3-33.2,2.3-33.2c2.5,3.7,3-0.4,3.8-2.2c-0.3-4.9-0.5-9.5-0.7-13.9H223.8z"/>
			<path class="st11" d="M220.5,235c-2.5,24-0.5,29-0.5,29C225.5,245,220.5,235,220.5,235z"/>
			<path class="st11" d="M236.5,225.5c-2,17.5-0.5,36.5-0.5,36.5C241,239,236.5,225.5,236.5,225.5z"/>
			<path class="st11" d="M60.7,363.9c-6.3-2-13.1-0.4-13.1-0.4C55.9,368.4,60.7,363.9,60.7,363.9z"/>
			<path class="st11" d="M26.6,323.5c-6.3-2-13.1-0.4-13.1-0.4C21.8,328.1,26.6,323.5,26.6,323.5z"/>
			<path class="st11" d="M382.9,375.2c-6.3-2-13.1-0.4-13.1-0.4C378.1,379.7,382.9,375.2,382.9,375.2z"/>
			<path class="st11" d="M245.5,257c0,11.5,1,17.5,1,17.5C249,263,245.5,257,245.5,257z"/>
			<path class="st11" d="M237,206c0,12,2,14.5,2,14.5C240,208.5,237,206,237,206z"/>
			<circle class="st9" cx="-26" cy="411.7" r="51"/>
			<circle class="st9" cx="15.7" cy="455.3" r="51"/>
			<ellipse class="st11" cx="40.5" cy="299.5" rx="2" ry="1"/>
			<ellipse class="st11" cx="93.3" cy="358.7" rx="2" ry="1"/>
			<ellipse class="st11" cx="98" cy="385.3" rx="2" ry="1"/>
			<ellipse class="st11" cx="335.4" cy="283.9" rx="2" ry="1"/>
			<ellipse class="st11" cx="428.5" cy="354.6" rx="2" ry="1"/>
			<ellipse class="st11" cx="384" cy="351.3" rx="5.3" ry="1.6"/>
			<ellipse class="st11" cx="443.2" cy="298.7" rx="5.3" ry="1.6"/>
			<ellipse class="st11" cx="27.2" cy="351.7" rx="2" ry="1"/>
			<ellipse class="st11" cx="402.7" cy="372" rx="2" ry="1"/>
			<rect x="-0.4" y="0.8" class="st14" width="471" height="489.8"/>
			<path class="st4" d="M248.3,185h-35.7c-3.1,0-5.7-2.5-5.7-5.7v0c0-3.1,2.5-5.7,5.7-5.7h35.7c3.1,0,5.7,2.5,5.7,5.7v0
				C254,182.5,251.5,185,248.3,185z"/>
			<g>
				<polygon class="st4" points="172.2,141 172.2,206 197.2,161.8 217.2,161.8 217.2,116.5 206,116.5 				"/>
				<polygon class="st4" points="253.5,116.5 242.2,116.5 242.2,161.8 262.2,161.8 287.2,206 287.2,141 				"/>
			</g>
			<path class="st15" d="M202.3,178.5h54.8V69.1l-0.1-0.4c-1-13-13.2-38-27.3-38c-14.2,0-26.3,25-27.3,38l-0.1,0.7V178.5z"/>
			<path class="st16" d="M230.8,33.4c-0.7-0.1-1.4-0.2-2.1-0.2c-11.6,0-22.8,23.3-23.7,34.9l-0.1,0.6V177h25.9V33.4z"/>
			<circle class="st6" cx="230.5" cy="82.5" r="18.6"/>
			<polyline class="st6" points="258,167 258,172 201.7,172 201.7,167 			"/>
			<g>
				<rect x="230.8" y="167" class="st14" width="27.2" height="5"/>
				<rect x="201.7" y="167" class="st14" width="3.3" height="5"/>
				<rect x="205" y="167" class="st17" width="25.9" height="5"/>
			</g>
			<path class="st4" d="M258.7,180h-57.8V67.9h0.1c1.4-13.5,14.1-38.6,28.8-38.6c14.7,0,27.4,25.1,28.8,38.6h0.1V180z M202.3,178.5
				h54.8V69.1l-0.1-0.4c-1-13-13.2-38-27.3-38c-14.2,0-26.3,25-27.3,38l-0.1,0.7V178.5z"/>
			<path class="st18" d="M307.4,145.9h-6c-0.3,0-0.5-0.2-0.5-0.5l0,0c0-0.3,0.2-0.5,0.5-0.5h6c0.3,0,0.5,0.2,0.5,0.5l0,0
				C307.9,145.7,307.7,145.9,307.4,145.9z"/>
			<path class="st18" d="M333.3,154.1h-6c-0.3,0-0.5-0.2-0.5-0.5l0,0c0-0.3,0.2-0.5,0.5-0.5h6c0.3,0,0.5,0.2,0.5,0.5l0,0
				C333.8,153.9,333.6,154.1,333.3,154.1z"/>
			<path class="st18" d="M369,150.5h-6c-0.3,0-0.5-0.2-0.5-0.5l0,0c0-0.3,0.2-0.5,0.5-0.5h6c0.3,0,0.5,0.2,0.5,0.5l0,0
				C369.5,150.3,369.2,150.5,369,150.5z"/>
			<path class="st18" d="M397,156.5h-6c-0.3,0-0.5-0.2-0.5-0.5l0,0c0-0.3,0.2-0.5,0.5-0.5h6c0.3,0,0.5,0.2,0.5,0.5l0,0
				C397.5,156.3,397.2,156.5,397,156.5z"/>
			<path class="st18" d="M314,163.1h-6c-0.3,0-0.5-0.2-0.5-0.5l0,0c0-0.3,0.2-0.5,0.5-0.5h6c0.3,0,0.5,0.2,0.5,0.5l0,0
				C314.5,162.9,314.2,163.1,314,163.1z"/>
			<path class="st18" d="M343,170h-6c-0.3,0-0.5-0.2-0.5-0.5l0,0c0-0.3,0.2-0.5,0.5-0.5h6c0.3,0,0.5,0.2,0.5,0.5l0,0
				C343.5,169.8,343.3,170,343,170z"/>
			<path class="st18" d="M298.3,171.6h-6c-0.3,0-0.5-0.2-0.5-0.5l0,0c0-0.3,0.2-0.5,0.5-0.5h6c0.3,0,0.5,0.2,0.5,0.5l0,0
				C298.8,171.4,298.6,171.6,298.3,171.6z"/>
			<g>
				<path class="st19" d="M122.1,363.9V388h-8.6v-42.7h9.4l7.3,19.9l6.7-19.9h9.9V388H138v-24.6l-6.1,16.9h-3.6L122.1,363.9z"/>
				<path class="st19" d="M179.6,345.3c2.5,0,4.2,2,4.2,5V383c0,3-1.7,5-4.2,5H161c-2.5,0-4.2-2-4.2-5v-32.7c0-3,1.7-5,4.2-5H179.6z
					 M174.5,355.3c0-0.4-0.3-0.7-0.6-0.7h-7.3c-0.2,0-0.5,0.3-0.5,0.7v22.9c0,0.3,0.3,0.6,0.5,0.6h7.3c0.3,0,0.6-0.3,0.6-0.6V355.3z
					"/>
				<path class="st19" d="M202.4,364.5V388h-8.6v-42.7h8.6l10.8,23.5v-23.5h8.6V388H213L202.4,364.5z"/>
				<path class="st19" d="M254.5,345.3v9.2h-8.2V388H237v-33.4h-8.2v-9.2H254.5z"/>
				<path class="st19" d="M288,388h-9.3v-10.6h-8.2V388h-9.3v-37.7c0-3,1.7-5,4.2-5h18.4c2.5,0,4.2,2,4.2,5V388z M278.6,368.2v-12.8
					c0-0.8-0.5-1.3-1.3-1.3h-5.8c-0.6,0-1.1,0.6-1.1,1.3v12.8H278.6z"/>
				<path class="st19" d="M306.5,364.5V388H298v-42.7h8.6l10.8,23.5v-23.5h8.6V388h-8.9L306.5,364.5z"/>
				<path class="st19" d="M362.8,388h-9.3v-10.6h-8.2V388h-9.3v-37.7c0-3,1.7-5,4.2-5h18.4c2.5,0,4.2,2,4.2,5V388z M353.5,368.2
					v-12.8c0-0.8-0.5-1.3-1.3-1.3h-5.8c-0.6,0-1.1,0.6-1.1,1.3v12.8H353.5z"/>
			</g>
			<path class="st18" d="M326,174h-6c-0.3,0-0.5-0.2-0.5-0.5l0,0c0-0.3,0.2-0.5,0.5-0.5h6c0.3,0,0.5,0.2,0.5,0.5l0,0
				C326.5,173.8,326.2,174,326,174z"/>
			<path class="st18" d="M435.6,228.8h-6c-0.3,0-0.5-0.2-0.5-0.5l0,0c0-0.3,0.2-0.5,0.5-0.5h6c0.3,0,0.5,0.2,0.5,0.5l0,0
				C436,228.6,435.8,228.8,435.6,228.8z"/>
			<path class="st18" d="M467.3,218.9h-6c-0.3,0-0.5-0.2-0.5-0.5l0,0c0-0.3,0.2-0.5,0.5-0.5h6c0.3,0,0.5,0.2,0.5,0.5l0,0
				C467.8,218.7,467.6,218.9,467.3,218.9z"/>
			<path class="st18" d="M352.7,236.5h-6c-0.3,0-0.5-0.2-0.5-0.5l0,0c0-0.3,0.2-0.5,0.5-0.5h6c0.3,0,0.5,0.2,0.5,0.5l0,0
				C353.1,236.3,352.9,236.5,352.7,236.5z"/>
			<path class="st18" d="M270,226.1h-6c-0.3,0-0.5-0.2-0.5-0.5l0,0c0-0.3,0.2-0.5,0.5-0.5h6c0.3,0,0.5,0.2,0.5,0.5l0,0
				C270.5,225.9,270.2,226.1,270,226.1z"/>
			<path class="st18" d="M303.1,202.9h-6c-0.3,0-0.5-0.2-0.5-0.5l0,0c0-0.3,0.2-0.5,0.5-0.5h6c0.3,0,0.5,0.2,0.5,0.5l0,0
				C303.5,202.7,303.3,202.9,303.1,202.9z"/>
			<path class="st18" d="M324.7,191.8h-6c-0.3,0-0.5-0.2-0.5-0.5l0,0c0-0.3,0.2-0.5,0.5-0.5h6c0.3,0,0.5,0.2,0.5,0.5l0,0
				C325.1,191.6,324.9,191.8,324.7,191.8z"/>
			<path class="st18" d="M24,158.7h-6c-0.3,0-0.5-0.2-0.5-0.5l0,0c0-0.3,0.2-0.5,0.5-0.5h6c0.3,0,0.5,0.2,0.5,0.5l0,0
				C24.5,158.5,24.3,158.7,24,158.7z"/>
			<path class="st18" d="M268.3,188.8h-6c-0.3,0-0.5-0.2-0.5-0.5l0,0c0-0.3,0.2-0.5,0.5-0.5h6c0.3,0,0.5,0.2,0.5,0.5l0,0
				C268.8,188.6,268.6,188.8,268.3,188.8z"/>
			<path class="st18" d="M270,204.1h-6c-0.3,0-0.5-0.2-0.5-0.5l0,0c0-0.3,0.2-0.5,0.5-0.5h6c0.3,0,0.5,0.2,0.5,0.5l0,0
				C270.5,203.9,270.2,204.1,270,204.1z"/>
			<path class="st18" d="M198,227.3h-6c-0.3,0-0.5-0.2-0.5-0.5l0,0c0-0.3,0.2-0.5,0.5-0.5h6c0.3,0,0.5,0.2,0.5,0.5l0,0
				C198.5,227.1,198.3,227.3,198,227.3z"/>
			<path class="st18" d="M11.5,151.8h-6c-0.3,0-0.5-0.2-0.5-0.5l0,0c0-0.3,0.2-0.5,0.5-0.5h6c0.3,0,0.5,0.2,0.5,0.5l0,0
				C12,151.6,11.8,151.8,11.5,151.8z"/>
			<path class="st18" d="M199,244.5h-6c-0.3,0-0.5-0.2-0.5-0.5l0,0c0-0.3,0.2-0.5,0.5-0.5h6c0.3,0,0.5,0.2,0.5,0.5l0,0
				C199.5,244.3,199.2,244.5,199,244.5z"/>
			<path class="st18" d="M302,216.8h-6c-0.3,0-0.5-0.2-0.5-0.5l0,0c0-0.3,0.2-0.5,0.5-0.5h6c0.3,0,0.5,0.2,0.5,0.5l0,0
				C302.5,216.6,302.2,216.8,302,216.8z"/>
			<path class="st18" d="M166,235.5h-6c-0.3,0-0.5-0.2-0.5-0.5l0,0c0-0.3,0.2-0.5,0.5-0.5h6c0.3,0,0.5,0.2,0.5,0.5l0,0
				C166.5,235.3,166.2,235.5,166,235.5z"/>
			<path class="st18" d="M15,270H9c-0.3,0-0.5-0.2-0.5-0.5l0,0c0-0.3,0.2-0.5,0.5-0.5h6c0.3,0,0.5,0.2,0.5,0.5l0,0
				C15.5,269.8,15.2,270,15,270z"/>
			<path class="st18" d="M465,237.1h-6c-0.3,0-0.5-0.2-0.5-0.5l0,0c0-0.3,0.2-0.5,0.5-0.5h6c0.3,0,0.5,0.2,0.5,0.5l0,0
				C465.5,236.9,465.2,237.1,465,237.1z"/>
			<path class="st18" d="M257.7,214.5h-6c-0.3,0-0.5-0.2-0.5-0.5l0,0c0-0.3,0.2-0.5,0.5-0.5h6c0.3,0,0.5,0.2,0.5,0.5l0,0
				C258.1,214.3,257.9,214.5,257.7,214.5z"/>
			<path class="st18" d="M195.7,210.5h-6c-0.3,0-0.5-0.2-0.5-0.5l0,0c0-0.3,0.2-0.5,0.5-0.5h6c0.3,0,0.5,0.2,0.5,0.5l0,0
				C196.1,210.3,195.9,210.5,195.7,210.5z"/>
			<path class="st18" d="M23.2,254.5h-6c-0.3,0-0.5-0.2-0.5-0.5l0,0c0-0.3,0.2-0.5,0.5-0.5h6c0.3,0,0.5,0.2,0.5,0.5l0,0
				C23.6,254.3,23.4,254.5,23.2,254.5z"/>
			<path class="st18" d="M280.5,214h-6c-0.3,0-0.5-0.2-0.5-0.5l0,0c0-0.3,0.2-0.5,0.5-0.5h6c0.3,0,0.5,0.2,0.5,0.5l0,0
				C281,213.8,280.7,214,280.5,214z"/>
			<path class="st18" d="M139,175.8h-6c-0.3,0-0.5-0.2-0.5-0.5l0,0c0-0.3,0.2-0.5,0.5-0.5h6c0.3,0,0.5,0.2,0.5,0.5l0,0
				C139.5,175.6,139.2,175.8,139,175.8z"/>
			<path class="st18" d="M165,139.9h-6c-0.3,0-0.5-0.2-0.5-0.5l0,0c0-0.3,0.2-0.5,0.5-0.5h6c0.3,0,0.5,0.2,0.5,0.5l0,0
				C165.5,139.7,165.3,139.9,165,139.9z"/>
			<path class="st18" d="M101,149.8h-6c-0.3,0-0.5-0.2-0.5-0.5l0,0c0-0.3,0.2-0.5,0.5-0.5h6c0.3,0,0.5,0.2,0.5,0.5l0,0
				C101.5,149.6,101.2,149.8,101,149.8z"/>
			<path class="st4" d="M230.5,102c-10.8,0-19.5-8.7-19.5-19.5S219.7,63,230.5,63c10.8,0,19.5,8.7,19.5,19.5S241.3,102,230.5,102z
				 M230.5,64.7c-9.8,0-17.8,8-17.8,17.8s8,17.8,17.8,17.8c9.8,0,17.8-8,17.8-17.8S240.3,64.7,230.5,64.7z"/>
			<path class="st9" d="M-35.2,443.6l1,64.6c202,0,504.8-2.3,515-8.7c4.2-4,8-17.2,3.5-30.6c-2.8-8.5-9.9-19.1-27.3-22l-0.7-0.1
				l-0.4-0.5c-0.2-0.3-26-49.5-76.3-17.5l-1.2,0.2l3.4-2.8c-0.1-0.1-9-10.4-21.2-18c-16.3-10.2-36.4-9.2-57.5,0.4l-1,0.4l-0.8-0.7
				c-20-17.2-82.6-15.2-93.3-0.7l-0.8,0.3l-0.7-0.5c-0.3-0.2-29.8-19.4-73.2-3.8l-0.9,0.3l-0.7-0.5C118.5,393,51.1,392.3,46,421
				l-4.6,6l-0.8-0.3c-0.2-0.1-15.8-5-32.9-5.2C-14.8,421.2-29.2,428.6-35.2,443.6z"/>
			<circle class="st9" cx="455.5" cy="430.7" r="54.5"/>
			<path class="st9" d="M334.2,443.2c0-28.2,17.8-51.8,46-51.8c28.2,0,51,22.8,51,51c0,28.2-22.8,51-51,51
				C352,493.3,334.2,471.3,334.2,443.2z"/>
			<path class="st9" d="M280.8,448.5c0-28.2,17.8-51.8,46-51.8c28.2,0,51,22.8,51,51c0,28.2-22.8,51-51,51
				C298.7,498.7,280.8,476.7,280.8,448.5z"/>
			<path class="st9" d="M155.5,447.8c0-28.2,17.8-51.8,46-51.8s51,22.8,51,51c0,28.2-22.8,51-51,51S155.5,476,155.5,447.8z"/>
			<path class="st9" d="M-6.5,438.5c0-28.2,17.8-51.8,46-51.8s51,22.8,51,51c0,28.2-22.8,51-51,51S-6.5,466.7-6.5,438.5z"/>
			<g>
				<polygon class="st6" points="134.8,433.3 117.8,433.3 117.8,415.4 112.7,415.4 112.7,457.4 117.8,457.4 117.8,439.4 
					134.8,439.4 134.8,457.4 139.9,457.4 139.9,415.4 134.8,415.4 				"/>
				<polygon class="st6" points="146.9,424.7 146.9,448.3 146.9,457.4 152.4,457.4 152.4,448.3 152.4,424.7 152.4,424.3 
					146.9,424.3 				"/>
				<rect x="146.9" y="415.3" class="st6" width="5.4" height="6"/>
				<polygon class="st6" points="356.9,415.4 356.9,433.3 339.9,433.3 339.9,415.4 334.8,415.4 334.8,457.4 339.9,457.4 
					339.9,439.4 356.9,439.4 356.9,457.4 362,457.4 362,415.4 				"/>
				<polygon class="st6" points="272.3,415.4 271.6,415.4 271.6,457.4 272.3,457.4 272.3,457.7 296.1,457.7 296.1,451.6 
					276.7,451.6 276.7,439.4 296.1,439.4 296.1,433.3 276.7,433.3 276.7,421.5 296.1,421.5 296.1,415.4 276.7,415.4 				"/>
				<polygon class="st6" points="242,421.3 250.7,421.3 250.7,457.4 255.8,457.4 255.8,421.3 265.8,421.3 265.8,415.2 242,415.2 
									"/>
				<polygon class="st6" points="215.6,433.3 198.6,433.3 198.6,415.4 193.5,415.4 193.5,457.4 198.6,457.4 198.6,439.4 
					215.6,439.4 215.6,457.4 220.7,457.4 220.7,415.4 215.6,415.4 				"/>
				<polygon class="st6" points="159.2,415.2 159.2,420.8 159.2,450.9 159.2,456.3 159.2,456.4 189.1,456.4 189.1,456.3 
					189.1,450.9 189.1,438.7 189.1,433.4 189.1,433.1 172.8,433.1 172.8,438.7 183.2,438.7 183.2,450.9 165.1,450.9 165.1,420.8 
					189.1,420.8 189.1,415.2 165.1,415.2 				"/>
				<polygon class="st6" points="302.1,415.2 302.1,420.8 302.1,450.9 302.1,456.3 302.1,456.4 331.9,456.4 331.9,450.9 308,450.9 
					308,420.8 331.9,420.8 331.9,415.2 308,415.2 				"/>
			</g>
			<g>
				<g>
					<path class="st9" d="M253.6,316.9h1.6c0.8-0.9,1.7-1.9,2.5-2.8v-21.7c-1-1.1-2-2.2-3-3.3h-21.3v44.2h6v-16.4h8.6l5.5,16.4h6.1
						L253.6,316.9z M251.7,308h-12.8v-13.7h12.8V308z"/>
					<path class="st9" d="M72.9,329.8V313l-2.9-2.4l2.2-2.4v-16.3c-0.9-1-1.7-1.9-2.6-2.9c-5.9,0-20,0.1-19.9,0.1V333H70
						C71,332,72,330.9,72.9,329.8z M64.4,325.6h-8.9v-10.2h8.9V325.6z M64.4,304.6h-8.9v-10.2h8.9V304.6z"/>
					<path class="st9" d="M101.8,288.7H82.7l-2.4,2.7v38.9l2.5,2.8h19.7c0.5-0.6,1.1-1.2,1.6-1.9c0,0,0.1-0.1,0.1-0.1v-39.8
						C103.4,290.5,102.6,289.6,101.8,288.7z M97.7,328.6H86.6v-35.4h11.1V328.6z"/>
					<path class="st9" d="M131.6,288.7h-19.2l-2.4,2.7v38.9l2.5,2.8h19.7c0.5-0.6,1.1-1.2,1.6-1.9c0,0,0.1-0.1,0.1-0.1v-39.8
						C133.1,290.5,132.4,289.6,131.6,288.7z M127.5,328.6h-11.1v-35.4h11.1V328.6z"/>
					<polygon class="st9" points="141.4,295.5 150.9,295.5 150.9,333.3 156.9,333.3 156.9,295.5 166.4,295.5 166.4,288.7 
						141.4,288.7 					"/>
					<polygon class="st9" points="203.1,295.5 212.6,295.5 212.6,333.3 218.7,333.3 218.7,295.5 228.1,295.5 228.1,288.7 
						203.1,288.7 					"/>
					<polygon class="st9" points="381.7,296 381.7,289.5 358.2,289.5 358.2,333.3 364.2,333.3 364.2,333.2 381.7,333.2 381.7,326.4 
						364.2,326.4 364.2,314.2 377.1,314.2 377.1,307.5 364.2,307.5 364.2,296 					"/>
					<path class="st9" d="M197.2,330.9v-19.4c-1-1.1-1.9-2.2-2.9-3.3h-15.4v-14.7H196v-5.1l-21.4,0.1l-2.1,2.3v23h17.9v13.9h-18v6.3
						h22L197.2,330.9z"/>
					<path class="st9" d="M320.4,314.5v-22.7l-2.4-2.6h-21.9v44.2h6v-16.4h16.1L320.4,314.5z M315.5,309h-12.8v-13.7h12.8V309z"/>
					<path class="st9" d="M350.7,314.5v-22.7l-2.4-2.6h-21.9v44.2h6v-16.4h16.1L350.7,314.5z M345.9,309h-12.8v-13.7h12.8V309z"/>
					<path class="st9" d="M273.1,289.4l-10.5,43.2c0.1,0.1,1.2,0.1,5.4,0.2l3.7-16h10.4l3.9,16.3c3.6,0,6.1,0.1,6.1,0.1l-12-43.7
						H273.1z M273.2,310.1l3.6-15.6l3.7,15.6H273.2z"/>
					<path class="st9" d="M408.2,289.5H389v43.8h6v0h13l4.2-6.3h0.3v-29.2v-1.7v0L408.2,289.5z M406.5,297.1v29.5h-11.4V296h11.4
						L406.5,297.1L406.5,297.1z"/>
				</g>
			</g>
			<ellipse class="st20" cx="412" cy="422" rx="5.3" ry="1.6"/>
			<ellipse class="st20" cx="206" cy="405" rx="5.3" ry="1.6"/>
			<ellipse class="st20" cx="39" cy="415" rx="5.3" ry="1.6"/>
			<ellipse class="st20" cx="361.2" cy="409.1" rx="5.3" ry="1.6"/>
			<ellipse class="st20" cx="62" cy="443" rx="5.3" ry="1.6"/>
			<path class="st20" d="M394,451.3c-6.3-2-13.1-0.4-13.1-0.4C389.1,455.8,394,451.3,394,451.3z"/>
			<path class="st20" d="M101.3,406c-6.3-2-13.1-0.4-13.1-0.4C96.5,410.5,101.3,406,101.3,406z"/>
			<path class="st20" d="M35,440.3c-6.3-2-13.1-0.4-13.1-0.4C30.1,444.8,35,440.3,35,440.3z"/>
			<path class="st20" d="M446,437.3c-6.3-2-13.1-0.4-13.1-0.4C441.1,441.8,446,437.3,446,437.3z"/>
			<path class="st20" d="M461,391c-6.3-2-13.1-0.4-13.1-0.4C456.2,395.5,461,391,461,391z"/>
			<g>
				<path class="st21" d="M249.6,144.5c-1.5,0-2.9,0-4.2,0c-0.2,0-0.3,0-0.5-0.2c-0.5-0.9-1-1.7-1.6-2.7c0.7,0,1.3,0,2,0
					c-3.7-6-7.4-11.9-11-17.8c-0.2,0-0.2,0.2-0.3,0.3c-2,3.7-4,7.3-6,11c-0.2,0.4-0.5,0.6-0.9,0.6c-1.6,0-3.2,0-4.9,0
					c-0.5,0-0.6-0.1-0.3-0.6c2.8-5,5.5-10,8.3-14.9c0.8-1.4,1.6-2.8,2.4-4.3C238.3,125.5,243.9,135,249.6,144.5z"/>
				<path class="st5" d="M213.5,148.7c0.7-1.3,1.4-2.5,2.1-3.7c0.1-0.2,0.2-0.2,0.4-0.2c0.7,0,1.5,0,2.3,0c-0.3,0.6-0.5,1.1-0.8,1.7
					c0.3,0,0.5,0,0.6,0c6.8,0,13.7,0,20.5,0c0.2,0,0.5,0.1,0.6-0.1c0.1-0.2-0.1-0.4-0.2-0.6c-2.5-4.2-4.9-8.4-7.4-12.6
					c-0.2-0.3-0.2-0.6,0-1c0.8-1.5,1.6-3,2.4-4.6c0.7,1.2,1.4,2.3,2.1,3.5c3.3,5.7,6.7,11.4,10,17c0.2,0.4,0.3,0.5-0.3,0.5
					c-10.6,0-21.3,0-31.9,0C213.8,148.7,213.7,148.7,213.5,148.7z"/>
				<path class="st5" d="M227.6,116c0.7,1.2,1.4,2.2,2,3.3c0.1,0.2,0.1,0.4,0,0.5c-0.4,0.6-0.8,1.3-1.2,2c-0.4-0.4-0.6-0.9-1-1.3
					c-0.2,0-0.2,0.2-0.3,0.3c-3.6,6-7.1,12-10.7,18.1c-0.3,0.5-0.3,0.5,0.3,0.5c4.6,0,9.3,0,13.9,0c0.4,0,0.6,0.1,0.8,0.4
					c0.7,1.3,1.5,2.5,2.2,3.7c0.1,0.1,0.2,0.2,0.1,0.4c-7.5,0-15,0-22.6,0C216.7,134.6,222.2,125.4,227.6,116z"/>
			</g>
			<rect x="136.6" y="113" class="st4" width="2.3" height="50.1"/>
			<rect x="313.7" y="158.6" class="st4" width="2.3" height="50.1"/>
			<polygon class="st11" points="314.5,140 328.2,167 323.5,167 331.1,186.2 325.8,186 331.8,201.5 299.5,201.2 303,188.3 
				298.3,188.3 306.6,166.8 300.4,166.8 			"/>
			<g>
				<path class="st4" d="M429.3,185.9c0-4.2,0.1-7.5,3.2-10.2C433.2,178.6,431.9,183.4,429.3,185.9z"/>
				<path class="st4" d="M439.9,178.3c-1.5,3.5-2.9,6.9-4.6,10.9C434.2,185.2,435.9,180.6,439.9,178.3z"/>
				<path class="st4" d="M441.7,190.1c-1.9-2.1-1.4-3.4,2.7-7.8C445.5,184.7,445.5,184.7,441.7,190.1z"/>
				<path class="st4" d="M415.2,179.4c1.6-1.6,3-2.9,4.3-4.3c2.2-2.5,5.1-2.7,7.9-1.5c11.5,5.1,22.4,11,32,19
					c5.3,4.4,5.3,9.6,3.8,15.4c-0.5,2.1-0.7,4.3-1.3,6.3c-0.7,2.5-1.6,4.9-2.4,7.2c-5.3,0-4.6-5.3-8-7.2c-0.6,1.7-1.1,3-1.5,4.3
					c-0.5,1.6-1.6,2.6-3.2,2.6c-1.9,0-2.3-1.5-2.4-3.1c0-0.6-0.3-1.1-0.7-2.2c-5.2,0.4-10.4,0.7-15.5,1.1c-1.5,2.9-3,5.7-4.6,8.7
					c-5.1-2.2-2.9-6.5-4.1-10.1c-1.3,2.2-2.4,4-3.6,6.1c-1.3-0.5-2.5-0.9-3.7-1.4c-0.1-1.7-0.3-3.1-0.4-4.9
					c-1.2,0.1-2.2,0.2-3.2,0.3c-4.7,0.5-7.3-0.9-8.7-5.1c-0.9-2.7-1.5-5.7-1.6-8.5c-0.2-3.8,0-7.6,0.4-11.4c0.3-3.7,2.1-6.9,4.8-9.6
					C406.6,178.2,409.6,177.8,415.2,179.4z M416.3,183.5c-1-0.3-1.4-0.4-1.8-0.6c-6.2-3.1-10.8-1.4-12.3,5.1
					c-1.5,6.4-1.8,12.9,0.1,19.3c0.6,2.2,1.5,4.2,4.1,4.7c2.6,0.5,4.7-0.4,6.3-2.5c0.9-1.2,2.3-2,3.1-2.6c1.4,1.3,2.2,2.7,3.1,2.8
					c3.1,0.4,3.5,2.2,3.5,4.6c0,2.1-0.5,4.2,0.7,7.1c1.6-2,2-3.7,2.4-5.3c0.9-3.2,0.9-3.2,4.7-3.1c0.9,0,1.8-0.2,2.7-0.3
					c7.1-0.7,14.1-1.3,20.7-1.9c2.5,2.4,1.7,6,5.5,7.6c0-2,0.4-3.8,0-5.3c-0.6-2,0.1-3.5,1-5.3c2.4-4.8,2-7.8-1.7-11
					c-7.6-6.5-16-12-25.3-16.1c-2.9-1.3-5.8-2.6-8.6-3.9c-2.1-1-3.5-0.3-4.6,1.4C418.8,180,417.6,181.7,416.3,183.5z M417.7,212.6
					c-3.7,2-3.9,2.9-2.2,6C416.2,216.7,416.8,215.1,417.7,212.6z M446.8,218.7c0.4,0,0.8,0,1.2,0.1c0.1-1,0.3-2,0.4-2.9
					c-0.5,0-1.1,0-1.6,0C446.8,216.7,446.8,217.7,446.8,218.7z"/>
				<path class="st11" d="M403.6,183.9c6.2-6,11.6-1.6,11.6-1.6c6.8-8.3,9.7-8.6,14.5-5.8c6.1,2.9,27,17.1,27.6,17.5
					c2.7,2.3,5.9,3.9,4.2,12.9c-2.1,12.9-2.6,15.2-4.5,12.1c-1.9-3-5.9-6.1-5.9-6.1l-23,1.8c-4.6,9.2-6.7,12.6-7.1,5.5
					c-0.4-7.1-1.9-8.7-3.2-6.1c-1.1,2.6-1.6,6.3-2.9,5.9c-1.3-0.4-2-5.6-2-5.6c7-5.2,3-7.4,3-7.4"/>
				<path class="st11" d="M415.3,182.3c-3.3-2.7-9.2-3-13,3.4c-3.8,6.4-4.2,27.8,4.3,27.8c7.5-0.5,12.4-5.6,12.4-5.6l1.5-10.6
					L415.3,182.3z"/>
				<path class="st12" d="M443.7,195.2c3,0.1,5.2,0.1,7.6,0.1C448.8,197.9,448.1,197.9,443.7,195.2z"/>
				<path class="st12" d="M440.9,191.2c-2.3-0.3-4.5,3.1-7.4,0.2C436.2,190,438.6,190.3,440.9,191.2z"/>
				<path class="st12" d="M427.8,198.3c2.1,0,4.1,0.1,6.6,0.1c-2.4,1.7-4.5,1.5-6.6,0.9C427.8,199,427.8,198.6,427.8,198.3z"/>
				<path class="st4" d="M419.7,184.2c-2.3,1.2-4.6,2.3-6.8,3.5c1,2.7,1.7,3.1,3.9,2.6C419.4,189.7,420.2,188,419.7,184.2z"/>
				<path class="st4" d="M406.5,197c-0.1-1.6,1.1-3.1,2.1-3c0.4,0.1,1,0.8,1,1.2c0,1.1-0.4,2.3-1.7,2.5
					C407.4,197.8,406.8,197.2,406.5,197z"/>
			</g>
			<path class="st8" d="M22.6,191.3c1.9,0.4,3.7,0.9,5.4,1.6c2.2,0.4,4.4,0.7,6.8,0.6c-0.5-0.1-1-0.3-1.5-0.4
				c-4.1-1.5-8.1-2.7-12.8-2.6C21.1,190.8,21.8,191,22.6,191.3z"/>
			<path class="st8" d="M73.2,190.5c-0.4-0.3-0.9-0.6-1.3-1c-2.3-0.2-4.6-0.2-7,0.5c0.5,0.1,0.9,0.1,1.2,0.2c2.7,0.2,5.3,0.6,8,0.9
				C73.7,190.9,73.4,190.7,73.2,190.5z"/>
			<path class="st8" d="M102.2,183.2c-0.4-0.3-0.9-0.6-1.3-1c-2.3-0.2-4.6-0.2-7,0.5c0.5,0.1,0.9,0.1,1.2,0.2c2.7,0.2,5.3,0.6,8,0.9
				C102.8,183.6,102.5,183.4,102.2,183.2z"/>
			<path class="st8" d="M54,192.7c-2.7,0.6-5.3,1.2-8.1,1.4c0,0.8-0.2,1.6-0.7,2.4c2,0,4.1-0.3,6.1-0.8c1.2-0.3,2.4-0.6,3.6-0.9
				C54.5,194.2,54.1,193.5,54,192.7z"/>
			<path class="st8" d="M42,223.4c-2.7,0.6-5.3,1.2-8.1,1.4c0,0.8-0.2,1.6-0.7,2.4c2,0,4.1-0.3,6.1-0.8c1.2-0.3,2.4-0.6,3.6-0.9
				C42.5,224.9,42.2,224.2,42,223.4z"/>
			<path class="st8" d="M87.9,203.3c-6-0.5-12-1.9-17.7-4c-0.7-0.3-1.6-0.2-2.3-0.3c-0.1,0.2-0.1,0.4-0.2,0.6c2.4,1,4.8,2,7.2,2.9
				c1.3,0.5,2.7,0.5,4,1c2.9,1,5.9,1.7,8.8,2C87.5,204.8,87.6,204,87.9,203.3z"/>
			<path class="st8" d="M131.3,228c-6-0.5-12-1.9-17.7-4c-0.7-0.3-1.6-0.2-2.3-0.3c-0.1,0.2-0.1,0.4-0.2,0.6c2.4,1,4.8,2,7.2,2.9
				c1.3,0.5,2.7,0.5,4,1c2.9,1,5.9,1.7,8.8,2C130.9,229.5,131,228.7,131.3,228z"/>
			<path class="st8" d="M109.3,204.9c-2.9-0.6-5.7-1.3-8.8-1.2c-1.4,0.1-2.9,0.1-4.3,0.3c-0.1,0.7-0.4,1.4-0.9,2
				c4.3-0.6,8.5-0.3,12.9,0.6c0.4,0.1,0.8,0.2,1.2,0.2C109.3,206.1,109.2,205.5,109.3,204.9z"/>
			<path class="st8" d="M157.8,205.4c-2.9-0.6-5.7-1.3-8.8-1.2c-1.4,0.1-2.9,0.1-4.3,0.3c-0.1,0.7-0.4,1.4-0.9,2
				c4.3-0.6,8.5-0.3,12.9,0.6c0.4,0.1,0.8,0.2,1.2,0.2C157.7,206.6,157.7,206,157.8,205.4z"/>
			<path class="st8" d="M105.5,190.6c0.2-0.1,0.5-0.3,0.7-0.4c-0.6-0.1-1.1-0.2-1.7-0.3c-1.6-0.3-3.3-0.5-4.9-0.7
				c0.5,1.3,1.6,1.6,2.8,1.8c0.7,0.1,1.4,0.3,2.1,0.5C104.7,191.1,105.1,190.8,105.5,190.6z"/>
			<path class="st8" d="M106.5,212.3c0.2-0.1,0.5-0.3,0.7-0.4c-0.6-0.1-1.1-0.2-1.7-0.3c-1.6-0.3-3.3-0.5-4.9-0.7
				c0.5,1.3,1.6,1.6,2.8,1.8c0.7,0.1,1.4,0.3,2.1,0.5C105.8,212.8,106.1,212.5,106.5,212.3z"/>
			<path class="st8" d="M80.1,178.3c-1.8,0-3.7,0.6-5.5,0.4c-0.4,0.5-0.8,1.1-1.3,1.6c0.2,0,0.4,0.1,0.6,0.1c4,0.2,8-0.1,12,0.1
				c0.1-0.7,0.3-1.4,0.6-2C84.4,178.3,82.2,178.3,80.1,178.3z"/>
			<path class="st8" d="M132.9,202.1c-2.4-0.5-4.8-1.1-6.9-2.8c-0.2-0.2-0.5-0.3-0.7-0.5c-0.5,0-0.9,0.1-1.4,0.1
				c-0.3,0-0.6,0.1-0.9,0.2c0.2,0.4,0.3,0.8,0.3,1.3c1.1,0.4,2.1,1,3.1,1.7c1.6,1.2,3.8,1.3,5.7,1.8c0.7,0.2,1.6,0,2.1-1.4
				C133.7,202.3,133.3,202.2,132.9,202.1z"/>
			<path class="st8" d="M39.3,203.4c-1.4,0.5-2.7,1.2-3.9,2c1.1,0.1,2.2,0,3.3-0.2c3.2-1,6.5-1.7,9.6-2.9c-0.4-1-1.4-1-2.3-0.7
				C43.7,202.1,41.5,202.7,39.3,203.4z"/>
			<path class="st8" d="M10.8,187c-1.4,0.5-2.7,1.2-3.9,2c1.1,0.1,2.2,0,3.3-0.2c3.2-1,6.5-1.7,9.6-2.9c-0.4-1-1.4-1-2.3-0.7
				C15.2,185.7,13,186.4,10.8,187z"/>
			<path class="st8" d="M27.8,207.4c-0.3,0.1-0.7,0.2-1,0.2c-4.8,0.6-9.7,0.6-14.5,0.9c4.4,1.6,8.8,1.5,13.2,1
				c1-0.1,2.1-0.2,3.1-0.4C28.2,208.6,27.9,208,27.8,207.4z"/>
			<path class="st8" d="M60.5,182.3c-2.9,1.5-5.9,1.8-9.1,1.3c-4-0.6-8.1-0.6-12.1-0.7c-0.8,0-1.6,0.3-2.6,0.5
				c2.1-1.5,3.6-1.6,7.1-1.9c4.2-0.4,8.2,0.4,12.4,0.7C57.6,182.2,59.1,182.3,60.5,182.3z"/>
			<path class="st8" d="M8.1,215.8c-4.3,1.5-8,1.7-11.6,2.1c-3.6,0.4-7.2,0.6-10.9,1c1.6-1.4,1.8-1.4,7-1.9c2.5-0.2,5-0.9,7.6-1.1
				C2.5,215.7,4.9,213.9,8.1,215.8z"/>
			<polygon class="st12" points="313.8,201.3 313.8,141.3 300.4,166.8 306.6,166.8 298.3,188.3 303,188.3 299.5,201.2 			"/>
			<path class="st20" d="M68.4,121.5l0.2-4.1c0-0.3-0.3-0.6-0.6-0.7s-0.6,0.3-0.7,0.6l-0.2,4.1H68.4z"/>
			<path class="st20" d="M58.3,117.7l0.2-4.1c0-0.3-0.3-0.6-0.6-0.7s-0.6,0.3-0.7,0.6l-0.2,4.1H58.3z"/>
			<polygon class="st20" points="66.9,128.5 66.4,138.8 67.7,138.8 68.1,128.5 			"/>
			<polygon class="st20" points="52.1,144.5 53,159.2 54.3,159.1 53.3,144.4 			"/>
			<path class="st20" d="M66.1,145.8l-1,23.1c0,0.3,0.3,0.6,0.6,0.7s0.6-0.3,0.7-0.6l1-23.1H66.1z"/>
			<path class="st20" d="M76.7,121.2l0.4-3.8c0-0.3-0.2-0.7-0.6-0.7c-0.3,0-0.7,0.2-0.7,0.6l-0.5,4.7
				C75.7,121.6,76.2,121.3,76.7,121.2z"/>
			<path class="st20" d="M49,128.8l-1.4-16.6c-0.3-0.2-0.5-0.4-0.8-0.5c-0.2-0.1-0.4-0.3-0.5-0.4l1.5,17.8L49,128.8z"/>
			<path class="st20" d="M72,151.2l-1.9,17.1c0,0.3,0.2,0.7,0.6,0.7c0.3,0,0.7-0.2,0.7-0.6l2-17.3H72z"/>
			<path class="st20" d="M23,72.2c-5.5,9.5,2.5,15,8.2,18C22.5,80.2,23,72.2,23,72.2z"/>
			<path class="st20" d="M37,54.2c-8.2,1-13.2,4.2-12,10.8C27.5,59.2,37,54.2,37,54.2z"/>
			<path class="st20" d="M56.5,82.2c-4.8,6.8,5.2,13.2,9,11.5C57.8,89.5,56.5,82.2,56.5,82.2z"/>
			<path class="st20" d="M39.7,86.4c-4.8,6.8,5.2,13.2,9,11.5C40.9,93.7,39.7,86.4,39.7,86.4z"/>
			<path class="st20" d="M73.2,65.8c-4.8-8-13.8-4.2-16.2,1C65,61.2,73.2,65.8,73.2,65.8z"/>
			<path class="st20" d="M41,63.2c-8.6,3.5-6.3,13-1.4,16.2C35.3,70.7,41,63.2,41,63.2z"/>
			<path class="st20" d="M60.8,49.2c-8.2-4.2-16.5,2-15.2,8.8C49.8,47.8,60.8,49.2,60.8,49.2z"/>
			<polygon class="st11" points="138.5,104 126.9,124.8 132.8,124.7 126.1,140.8 129.1,140.8 123.3,157.9 151.6,157.6 148.5,146.3 
				152.6,146.3 145.3,127.5 150.8,127.4 			"/>
			<polygon class="st12" points="138.2,157.7 138.2,104.6 126.9,124.8 132.8,124.7 126.1,140.8 129.1,140.8 123.3,157.9 			"/>
		</g>
	</g>
	<rect x="418.6" y="301.2" class="st9" width="4.8" height="4.8"/>
	<rect x="418.6" y="315" class="st9" width="4.8" height="4.8"/>
	<path class="st7" d="M230.5,67.2c-8.5,0-15.3,7.1-15.3,15.9s6.9,15.9,15.3,15.9V67.2z"/>
	<path class="st11" d="M445.2,212.6c0.2,5.2,2,8.5,2.8,7.7c0.9-1,1.4-8.2,1.4-8.2L445.2,212.6z"/>
	<g>
		<path class="st10" d="M449.1,232.6c-0.3-0.4-0.7-0.8-1-1.2c-0.2,0.1-0.3,0.2-0.5,0.3c-0.3,0.1-0.6,0.3-0.9,0.4
			c-0.9,0.2-1.7-0.4-2-1.3c-0.5-1.6-0.3-3.2,0.6-4.6c0.5-0.8,1.3-1.1,2.1-1.3c0.2-0.1,0.4,0.1,0.6,0.3c1.1,1.2,1.1,2.7,1,4.2
			c0,0.3-0.1,0.6-0.2,0.9c-0.1,0.3-0.1,0.6,0.1,0.9c0.3,0.4,0.3,0.9,0.3,1.4C449.1,232.6,449.1,232.6,449.1,232.6z M447.3,225.9
			c-0.8,0.1-1.4,0.5-1.7,1.2c-0.1,0.2-0.1,0.5-0.2,0.7c-0.3,0.8-0.2,1.7-0.1,2.5c0.1,0.4,0.2,0.7,0.7,0.8c0.6,0.2,1.1,0.1,1.7-0.3
			c-0.2-0.4-0.5-0.8-0.1-1.3c0.3,0.2,0.6,0.4,0.8,0.6c0.5-0.7,0.3-1.5,0.2-2.2c0-0.4-0.2-0.8-0.4-1.1
			C447.7,226.6,447.5,226.3,447.3,225.9z"/>
		<path class="st10" d="M461.3,224.8c0.3,1.2,0.2,2.4,0.4,3.7c1.2-1,2.1-2.2,3.3-3.2c0.1,1,0,1.2-1.4,2.6c0.4,1.6,1.2,3.1,0.7,4.9
			c-0.2-0.1-0.4-0.3-0.4-0.6c-0.3-1-0.7-2-1-3c0-0.1-0.1-0.3-0.1-0.4c-0.1,0-0.1,0-0.1,0.1c-0.9,0.4-0.9,1.3-0.9,2.1
			c0,0.6,0,1.3-0.3,1.9c-0.3-0.1-0.3-0.4-0.3-0.6c0-0.7-0.1-1.5-0.1-2.2c-0.1-1.4-0.1-2.9-0.2-4.3
			C460.8,225.3,460.8,225,461.3,224.8z"/>
		<path class="st10" d="M450.7,224.9c0,0.4,0.1,0.7,0.1,1.1c0.1,1.6,0.3,3.2,0.4,4.7c0,0.2,0.1,0.3,0.1,0.5c0.2,0.3,0.4,0.5,0.8,0.5
			c0.4,0,0.6-0.3,0.7-0.6c0-0.1,0.1-0.3,0.1-0.4c0-0.8,0.1-1.6,0.1-2.4c0-0.8,0.1-1.7-0.2-2.5c-0.1-0.4,0.2-0.7,0.5-1
			c0.1,0.5,0.2,0.8,0.3,1.2c0.1,1.7,0.1,3.3-0.1,4.9c0,0.5-0.1,1-0.5,1.4c-0.8,0.9-2,0.4-2.6-0.5c-0.3-0.6-0.2-1-0.2-1.6
			c0-0.9,0-1.8,0-2.7c0-0.6-0.1-1.3-0.1-1.9C450.1,225.2,450.2,225.2,450.7,224.9z"/>
		<path class="st10" d="M460,230.2c0.1,0.5,0,1-0.2,1.5c-0.3,0.9-1.7,1.3-2.5,0.4c-0.4-0.5-0.8-1.1-0.8-1.8
			c-0.1-0.8-0.1-1.6-0.1-2.4c0-0.9,0.5-1.6,1.1-2.2c0.4-0.4,1-0.7,1.7-0.7c0.4,0,0.7,0.2,0.8,0.6c0.1,0.4,0.1,0.8,0.2,1.4
			c-0.3-0.3-0.5-0.5-0.7-0.7c-0.3-0.3-0.6-0.3-1-0.1c-0.7,0.4-1.2,0.9-1.4,1.7c-0.2,0.8-0.2,1.7-0.1,2.5c0.1,0.9,0.8,1.5,1.6,1.4
			c0.5-0.1,0.7-0.2,0.8-0.7c0.1-0.3,0.1-0.5,0.2-0.8C459.9,230.1,460,230.1,460,230.2z"/>
		<path class="st10" d="M455.4,232.9c-0.7-0.4-0.6-1.1-0.6-1.7c0-1.8,0-3.5,0.1-5.3c0-0.4,0-0.9,0.4-1.2
			C455.7,227.4,455.7,230.1,455.4,232.9z"/>
	</g>
</g>
</svg>
