<?xml version="1.0" encoding="utf-8"?>
<!-- Generator: Adobe Illustrator 21.0.0, SVG Export Plug-In . SVG Version: 6.00 Build 0)  -->
<svg version="1.1" id="Layer_1" xmlns="http://www.w3.org/2000/svg" xmlns:xlink="http://www.w3.org/1999/xlink" x="0px" y="0px"
	 viewBox="0 0 342 432" style="enable-background:new 0 0 342 432;" xml:space="preserve">
<style type="text/css">
	.st0{fill-rule:evenodd;clip-rule:evenodd;fill:#DDEADD;}
</style>
<path class="st0" d="M171,359.2c-79,0-143.3-64.2-143.3-143.1C27.7,137.2,92,73,171,73c79,0,143.3,64.2,143.3,143.1
	C314.3,295,250,359.2,171,359.2L171,359.2z M291.8,235.7c-4.2-1.3-37.9-11.4-76.2-5.2c16,43.9,22.5,79.7,23.8,87.1
	C266.8,299.1,286.4,269.7,291.8,235.7L291.8,235.7z M218.8,328.8c-1.8-10.7-8.9-48.1-26.1-92.7c-0.3,0.1-0.5,0.2-0.8,0.3
	c-69,24-93.8,71.8-96,76.3c20.8,16.2,46.8,25.8,75.1,25.8C187.9,338.5,204.1,335.1,218.8,328.8L218.8,328.8z M80.1,298
	c2.8-4.7,36.4-60.3,99.5-80.7c1.6-0.5,3.2-1,4.8-1.5c-3.1-6.9-6.4-13.9-9.9-20.7C113.3,213.4,54,212.7,48.7,212.6
	c0,1.2-0.1,2.5-0.1,3.7C48.6,247.7,60.5,276.4,80.1,298L80.1,298z M51.2,191.3c5.5,0.1,55.9,0.3,113.1-14.9
	c-20.3-36-42.1-66.3-45.4-70.7C84.7,121.8,59.1,153.3,51.2,191.3L51.2,191.3z M142.3,97.5c3.4,4.5,25.6,34.8,45.7,71.5
	c43.5-16.3,61.9-41,64.1-44.1c-21.6-19.1-50-30.8-81.1-30.8C161.1,94.1,151.5,95.3,142.3,97.5L142.3,97.5z M265.7,139
	c-2.6,3.5-23.1,29.7-68.3,48.2c2.8,5.8,5.6,11.7,8.1,17.7c0.9,2.1,1.8,4.2,2.6,6.3c40.7-5.1,81.2,3.1,85.2,3.9
	C293.1,186.3,282.8,159.8,265.7,139L265.7,139z"/>
</svg>
