<?xml version="1.0" encoding="utf-8"?>
<!-- Generator: Adobe Illustrator 21.0.0, SVG Export Plug-In . SVG Version: 6.00 Build 0)  -->
<svg version="1.1" id="Layer_1" xmlns="http://www.w3.org/2000/svg" xmlns:xlink="http://www.w3.org/1999/xlink" x="0px" y="0px"
	 viewBox="0 0 266.9 266.9" style="enable-background:new 0 0 266.9 266.9;" xml:space="preserve">
<style type="text/css">
	.st0{fill:#DDEADD;}
</style>
<g>
	<path class="st0" d="M252.2,0H14.7C6.6,0,0,6.6,0,14.7v237.4c0,8.1,6.6,14.7,14.7,14.7h127.9V163.5h-34.8v-40.3h34.8V93.5
		c0-34.4,21-53.2,51.8-53.2c14.7,0,27.4,1.1,31.1,1.6v36h-21.3c-16.8,0-20,7.9-20,19.6v25.7h39.9l-5.2,40.3h-34.7v103.3h68v0.1
		c8.1,0,14.7-6.6,14.7-14.7V14.7C266.9,6.6,260.3,0,252.2,0z"/>
	<rect x="142.6" y="266.8" class="st0" width="41.6" height="0.1"/>
</g>
<path class="st0" d="M501,80h-30.7c-1.5,0-2.7,1.2-2.7,2.6v30.8c0,1.4,1.2,2.6,2.7,2.6H501c1.5,0,2.7-1.2,2.7-2.6V82.6
	C503.7,81.2,502.5,80,501,80z M478.3,110.7H473V93.5h5.3V110.7z M475.7,91.2c-1.7,0-3.1-1.4-3.1-3.1c0-1.8,1.4-3.1,3.1-3.1
	c1.7,0,3.1,1.4,3.1,3.1C478.8,89.8,477.4,91.2,475.7,91.2z M498.4,110.6h-5.3v-8.4c0-2,0-4.6-2.8-4.6s-3.2,2.2-3.2,4.4v8.5h-5.3
	l-0.1-17h5.1v2.3h0.1c0.7-1.4,2.5-2.8,5.1-2.8c5.4,0,6.4,3.6,6.4,8.2V110.6z"/>
</svg>
