<?xml version="1.0" encoding="utf-8"?>
<!-- Generator: Adobe Illustrator 21.0.0, SVG Export Plug-In . SVG Version: 6.00 Build 0)  -->
<svg version="1.1" id="Layer_1" xmlns="http://www.w3.org/2000/svg" xmlns:xlink="http://www.w3.org/1999/xlink" x="0px" y="0px"
	 viewBox="0 0 342 432" style="enable-background:new 0 0 342 432;" xml:space="preserve">
<style type="text/css">
	.st0{fill:#EDC24D;}
	.st1{fill:#CCA544;}
	.st2{clip-path:url(#SVGID_2_);}
	.st3{fill:#B4917B;}
	.st4{fill:#DDEADD;}
	.st5{fill:#FFFFFF;}
	.st6{fill:#6F6F6F;}
	.st7{clip-path:url(#SVGID_4_);}
	.st8{fill:none;stroke:#B0C9AF;stroke-miterlimit:10;}
	.st9{fill:#6A8542;}
	.st10{fill:#FFFFFF;stroke:#000000;stroke-miterlimit:10;}
	.st11{fill:#D98427;}
	.st12{fill:#F0D1B5;}
	.st13{fill:#3FBDBB;}
	.st14{fill-rule:evenodd;clip-rule:evenodd;fill:#FFFFFF;}
	.st15{fill:#C1958F;}
	.st16{opacity:0.89;}
	.st17{fill:#DDEADD;stroke:#000000;stroke-miterlimit:10;}
	.st18{opacity:0.73;fill:#FFFFFF;}
</style>
<path d="M277.4,54.6c0.1,0.2,0.2,0.3,0.3,0.5c-0.2,0.1-0.5,0.3-0.7,0.4c0-0.2-0.1-0.5-0.1-0.6C277,54.8,277.2,54.7,277.4,54.6z"/>
<path d="M307.7,263.8"/>
<polygon class="st0" points="180,426.1 49.7,336.2 49.9,187.3 174.9,120.3 299.8,186.8 305,331.8 "/>
<polygon class="st1" points="299.4,265.2 173.2,191.4 51.7,265.2 50.8,263.6 173.2,189.3 300.3,263.7 "/>
<polygon class="st1" points="299.4,318.3 173.2,244.5 51.7,318.2 50.8,316.7 173.2,242.4 300.3,316.8 "/>
<g>
	<defs>
		<polygon id="SVGID_1_" points="177.6,429 47.3,339.1 47.5,190.2 172.5,123.2 302.7,188.3 302.6,334.7 		"/>
	</defs>
	<clipPath id="SVGID_2_">
		<use xlink:href="#SVGID_1_"  style="overflow:visible;"/>
	</clipPath>
	<g class="st2">
		<rect x="172.3" y="121.9" class="st3" width="1.8" height="152.4"/>
		<polygon class="st1" points="299.4,239.1 173.2,165.3 51.7,239.1 50.8,237.6 173.2,163.3 300.3,237.6 		"/>
		<polygon class="st1" points="299.4,287.2 173.2,211.7 51.7,287.2 50.8,285.7 173.2,209.6 300.3,285.7 		"/>
	</g>
</g>
<polygon class="st4" points="51.3,336.8 177.6,429 298.5,337 172.5,262.9 "/>
<polygon class="st5" points="162.2,163.8 112.3,263.3 112.3,184.4 157.5,161.1 "/>
<rect x="127.1" y="193" class="st6" width="1.8" height="137.8"/>
<rect x="148.9" y="176.6" class="st6" width="1.8" height="137.8"/>
<rect x="138.1" y="178.9" class="st6" width="1.8" height="137.8"/>
<polygon class="st4" points="162.2,242.7 116.9,266 116.9,187.1 162.2,163.8 "/>
<g>
	<defs>
		<polygon id="SVGID_3_" points="51.3,336.8 177.6,429 298.5,337 172.5,262.9 		"/>
	</defs>
	<clipPath id="SVGID_4_">
		<use xlink:href="#SVGID_3_"  style="overflow:visible;"/>
	</clipPath>
	<g class="st7">
		<line class="st8" x1="83.8" y1="316.1" x2="83.8" y2="374.3"/>
		<line class="st8" x1="108.1" y1="279" x2="108.1" y2="395.1"/>
		<line class="st8" x1="132.4" y1="279" x2="132.4" y2="410.1"/>
		<line class="st8" x1="156.7" y1="254" x2="156.7" y2="435.9"/>
		<line class="st8" x1="181.1" y1="254" x2="181.1" y2="435.9"/>
		<line class="st8" x1="205.4" y1="254" x2="205.4" y2="435.9"/>
		<line class="st8" x1="229.7" y1="254" x2="229.7" y2="435.9"/>
		<line class="st8" x1="254" y1="254" x2="254" y2="435.9"/>
		<line class="st8" x1="278.3" y1="254" x2="278.3" y2="435.9"/>
		<line class="st8" x1="59.5" y1="279" x2="59.5" y2="395.1"/>
	</g>
</g>
<path class="st9" d="M151.2,252.2l4.1-3c7.9,17.2,33.6,26.9,44.5,26.7c4,9.3,16.8,2.9,16.8,2.9c10.4,5.8,9.5,17.5,9.5,17.5
	c0.2,9.3,5,13.4,5,13.4c-0.2,15.1,5.5,23,1.7,25.4c-3.8,2.3-3.8,2.3-3.8,2.3l-21.2-16.8l-13.6,6.8l-4.8-8.3l9.3-5.7l-6.9-4.6
	l-0.8-25.5l-7.6-2.3c-23.6-4.3-27.9-17.3-27.9-17.3L151.2,252.2z"/>
<path d="M241.7,243.7c0-0.5,0-1-0.1-1.5c-0.3-1.9-0.6-3.8-0.6-5.7c0-1.9-0.4-3.8-0.9-5.6c-0.2-0.7-0.3-1.5-0.6-2.3
	c-0.7-2.4-1.4-4.7-3.1-6.6c-1.3-1.5-2.8-2.8-4.4-3.9c-2-1.4-4.2-2.6-6.7-2.9c-0.3,0-0.7-0.2-1-0.3c-2.7-0.8-5.5-1.2-8.3-1.1
	c-2,0.1-4,0.1-5.9,0.1c-2.9-0.1-5.7,1-8.5,1.5c-0.1,0-0.3,0.1-0.4,0.2c-2.1,1.1-4.3,2-6.4,3.2c-4.7,2.6-8,6.4-9.6,11.6
	c-0.4,1.1-0.7,2.3-0.9,3.5c-0.6,3.2-1.2,6.4-1.9,9.5c-0.8,3.8-0.9,7.5-0.5,11.3c0.1,1,0.5,2.1,0.6,3.1c0.2,1.8,0.9,3.4,1.7,5
	c2.1,3.9,5.2,6.8,9.5,8.3c1.1,0.4,2.2,0.9,3.3,1.5c0.7,0.4,1.5,0.8,2.1,1.4c0.5,0.4,1,1,0.6,1.8c-1,0.1-1.9,0.1-2.8-0.1
	c-2.9-0.7-5.9-1.4-8.8-2.2c-4.9-1.4-9.6-3.4-14-5.8c-1.8-1-3.5-2-5.3-3.1c-1.6-1-2.6-2.5-4-3.8c-0.3-0.3-0.5-0.6-0.8-1
	c0.1-0.1,0.2-0.1,0.3-0.2c-0.5-0.3-1-0.7-1.3-1.2c0,0,0,0,0,0c-0.5-0.5-0.9-0.8-1.2-1.2c-1.1-1.4-2.1-2.8-3.2-4.2
	c-0.4-0.5-0.7-1.1-0.7-1.7c0.1-2.2-0.5-4.2-1-6.2c-0.1-0.3-0.1-0.5-0.3-0.9c0.5-0.3,1.1-0.6,1.6-0.9c1.3-0.8,1.7-2.6,1.1-3.9
	c-0.5-1.3-2.4-1.9-3.8-1.2c-0.6,0.3-1.1,0.6-1.7,1c-1.5-0.8-3.1-0.9-4.7-0.8c-0.6,0.1-1.3,0.2-1.9,0.4c-0.6,0.2-1.1,0.6-1.4,1.2
	c-0.4,0.8-0.8,1.6-1.3,2.5c0.3,1-0.1,2-0.1,2.8c0.4,0.1,0.7,0.4,0.8,0.9c0.4,2.4,2.4,3.4,4,4.7c0.6,0.5,1.2,0.9,1.8,1.4
	c0.5,0.5,0.9,1.1,1,1.8c0.3,1.9,0.9,3.7,1.5,5.5c0.5,1.4,1.3,2.6,2.2,3.9c-0.1,0.1-0.2,0.1-0.3,0.2c0.6,0.5,1,1.1,1.4,1.7
	c0.3,0.2,0.5,0.4,0.8,0.6c1,1.2,2,2.4,3,3.6c2.4,3,5.3,5.2,8.9,6.6c0.7,0.3,1.4,0.6,2.1,0.9c3.8,1.8,7.7,3,11.8,3.8
	c2.6,0.5,5.1,1.4,7.6,2.3c0,0.4,0.1,0.7,0.1,0.9c-0.1,1.1-0.2,2.3-0.3,3.4c-0.1,0.8-0.2,1.7-0.2,2.5c0,3.2,0,6.5-0.1,9.7
	c0,1.6,0,3.3-0.2,4.9c-0.1,1-0.2,1.9-0.2,2.8c0.6,0.4,1.1,0.8,1.7,1.3c0.1-2.1,0.3-4.2,0.3-6.2c0.1-1.5,0-3.1,0.1-4.6
	c0-1.3,0.2-2.7,0.1-4c-0.2-3.6,0-7.2,0.6-10.7c0.1-0.3,0.1-0.6,0.1-0.8c0-0.8-0.2-1.1-1-1.4c-2.8-0.8-5.6-1.7-8.6-2.2
	c-5.2-0.9-10.1-2.9-14.9-5.3c-2.6-1.3-5-3-6.9-5.2c-1-1.1-1.9-2.3-2.9-3.4c-2.7-3-4.6-6.3-5.4-10.3c-0.2-0.8-0.1-1.5,0-2.2
	c0.7-0.5,1.4-0.9,2.1-0.8c0.8,1.2,1.6,2.4,2.4,3.5c0.5,0.7,1.2,1.4,1.7,2.2c2.1,2.9,4.2,5.8,7,8.2c0.2,0.2,0.4,0.4,0.6,0.6
	c0.7,0.5,1.3,1.1,2,1.5c1.6,0.9,3.2,1.9,4.8,2.7c4.5,2.3,9.1,4.2,13.9,5.7c0.3,0.1,0.5,0.2,0.8,0.3c3.2,0.8,6.4,1.6,9.6,2.4
	c0.7,0.9,1.5,1.9,2.3,2.8c0.6,0.7,1.4,1.2,2.3,1.5c1.8,0.7,3.6,0.9,5.6,1c1.8,0.1,3.3-0.3,4.9-0.9c1.2-0.5,2.1-1.5,2.9-2.4
	c0.3-0.3,0.2-1,0.3-1.7c1.4,0.9,2.5,1.6,3.3,2.8c0.7,1.1,1.6,2.2,2.4,3.2c1.6,2.1,2.9,4.3,3.4,7c0.2,1.5,0.4,2.9,0.5,4.4
	c0.1,1.5,0,3.1,0.2,4.7c0.1,0.9,0.3,1.8,0.6,2.6c0.7,1.8,1.6,3.5,2.4,5.2c0.4,0.8,0.6,1.6,0.6,2.4c0,1.6,0,3.1-0.1,4.6
	c-0.1,1.3-0.2,2.7,0,4c0.3,1.7,0.6,3.3,1,5c0.5,2.1,0.9,4.1,0.8,6.3c0,1-0.4,1.9-1.1,2.7c-0.7,0.8-1.5,1.4-2.4,1.8
	c1.1,0.8,2.2,1.7,3.3,2.6c0.3-0.2,0.6-0.4,0.8-0.6c-0.3-0.9-0.2-1.7,0.5-2.5c0.7-0.9,0.8-2.1,0.7-3.2c-0.2-2.2-0.4-4.5-1-6.7
	c-0.8-2.7-1-5.5-0.9-8.4c0.1-1.6,0-3.2,0-4.9c0-0.8-0.2-1.5-0.5-2.2c-0.9-1.8-1.6-3.6-2.5-5.4c-0.6-1.2-0.8-2.4-0.9-3.7
	c-0.1-2-0.1-4-0.3-5.9c-0.1-1.1-0.3-2.2-0.6-3.3c-0.7-2.4-1.7-4.6-3.1-6.7c-0.9-1.3-1.9-2.5-2.7-3.8c-1.2-2.1-3-3.4-5.1-4.5
	c-0.3-2.4,0.1-3.3,2.1-4.3c1-0.5,2.1-0.9,3.1-1.4c0.5-0.3,1-0.4,1.6-0.4c1.2,0,2.4-0.2,3.2-1.3c0.1-0.1,0.3-0.3,0.5-0.3
	c1.6,0.3,2.7-0.8,3.7-1.6c2.2-1.6,4.1-3.6,6-5.7c2.1-2.4,3.5-5.1,4.8-7.9c0.2-0.5,0.3-0.9,0.1-1.4c-0.3-0.5-0.2-1.1-0.2-1.6
	C241.2,248.2,241.4,245.9,241.7,243.7z M157.4,238.9c0.8,0.2,1.3,0.9,1,1.6c-0.1,0.1-0.4,0.3-0.5,0.3c-0.6-0.2-1-0.9-0.9-1.5
	C157,239.1,157.3,239,157.4,238.9z M147.8,240.6c0.2-0.1,0.3-0.3,0.5-0.3c1.1-0.2,2.2-0.3,3.7,0.2c-1.1,0.8-1.8,1.4-2.5,1.9
	c-0.6-0.2-1.2-0.5-1.8-0.7C147.5,241.5,147.5,240.8,147.8,240.6z M155.3,249.1c-0.1,0-0.1,0-0.2,0.1c-1,0.5-2,1-3.2,1.6
	c-1.1-0.8-2.3-1.6-3.4-2.5c-0.4-0.3-0.8-0.8-1.1-1.3c-0.2-0.3-0.3-0.6-0.4-1c-0.1-0.6,0.2-1.1,0.6-1.5c0.4-0.3,1.1-0.3,1.6,0
	c0.4,0.3,0.8,0.6,1.1,1c0.3,0.3,0.5,0.6,0.6,0.8c2,0.4,3-1,4.5-1.4c0.3,0.8,0.6,1.6,0.8,2.4C156.4,248.2,156.1,248.7,155.3,249.1z
	 M155.3,242.7c-0.8,0.5-1.7,1-2.5,1.5c-0.8,0.5-0.9,0.5-1.7-0.7c0.3-0.4,0.6-0.8,0.9-1c1.2-0.8,2.4-1.6,3.7-2.5
	c0.3,0.7,0.5,1.2,0.8,1.9C156.1,242.1,155.7,242.4,155.3,242.7z M235.4,259.6c-2.5,2.9-5.2,5.6-8.9,7c-0.5,0.2-0.9,0.3-1.4,0.4
	c-0.9,0.2-1.8,0.4-2.6,0.7c-0.7,0.3-1.4,0.6-2.2,0.6c-0.2,0-0.4,0-0.6,0.1c-1.4,0.8-2.9,1.5-4,2.7c-0.6,0.6-1,1.4-1,2.3
	c0,1.4,0,2.8,0.1,4.2c0.1,1.1-0.3,1.8-1,2.4c-1,0.7-2,1.3-3.2,1.4c-1.4,0.2-2.8,0.4-4.2,0.3c-1.3-0.1-2.5-0.5-3.6-1.1
	c-0.9-0.5-1.4-1.2-1.2-2.2c0.3-1.8,0-3.5-0.8-5.1c-0.6-1.2-1.4-2.1-2.6-2.6c-1.8-0.8-3.6-1.6-5.4-2.4c-1.9-0.9-3.7-2.1-5-3.8
	c0-0.1-0.1-0.1-0.1-0.2c-2.7-2.4-3.5-5.7-4.2-9c-0.2-0.8-0.3-1.5-0.4-2.3c0-0.2-0.1-0.5,0-0.6c0.8-1.9,0.2-3.9,0.4-5.9
	c0.1-1,0.2-2,0.4-2.9c0.5-2.7,1-5.4,1.5-8.1c0.1-0.4,0.3-0.8,0.4-1.3c1,0.2,1.9,0.3,2.7,0.5c2.2,0.5,4.3,0.3,6.4-0.8
	c3.7-1.9,7.2-4.1,10.2-7.1c1.4-1.3,2.9-2.4,4.4-3.7c1,2.4,1.8,4.5,2.7,6.7c1.4,3.2,3.9,5.3,7,6.7c1.3,0.6,2.6,1.1,3.9,1.6
	c-0.1,1-0.1,2-0.2,2.9c0.7,0.2,0.9-0.2,1.1-0.6c0.5-1,1.2-1.9,2.1-2.6c1.3-1.1,2.7-1.4,4.3-0.8c1,0.4,1.8,1,2.6,1.8
	c0.6,0.6,0.9,1.3,0.9,2.1c0.1,0.6,0,1.3,0.1,1.9c0.1,1.6-0.8,2.5-2.1,3.1c-0.6,0.3-1.2,0.4-1.8,0.7c-0.8,0.4-0.9,0.8-0.4,1.6
	c0.1,0.1,0.2,0.2,0.4,0.3c0.3-0.1,0.6-0.2,0.9-0.3c0.7-0.2,1.1,0,1.1,0.8c-0.1,1.7,0.4,3.2,1,4.7c0.5,1.3,1.1,2.6,2.1,3.6
	c0.3,0.3,0.5,0.7,0.8,1.1C235.8,258.9,235.7,259.3,235.4,259.6z M240.2,245.5c-0.1,0.8-0.1,1.6-0.2,2.3c-0.6,2.8-1.2,5.5-2.3,8.1
	c-0.1,0.2-0.3,0.5-0.5,0.8c-2.9-2.7-3.6-5.9-3.5-9.5c1.2-1,1.4-2.5,1.4-4.1c0-0.8,0-1.7,0-2.5c-0.1-1.5-0.7-2.9-1.6-4.1
	c-1.4-1.9-4.1-2.5-6.3-1.9c-0.7,0.2-1.3,0.8-1.9,1.3c-2.2-0.4-4.3-1-6.4-2c-2.2-1.1-4.2-2.6-5.4-4.9c-1.2-2.3-2.5-4.6-2.7-7.3
	c0-0.5-0.3-1.1-0.4-1.6c-1.1,0.3-1.6,1-2.2,1.6c-1.8,2-3.9,3.7-6,5.3c-2.5,2-5.2,3.6-8.1,4.9c-1.9,0.8-3.9,1.2-6,0.6
	c-0.5-0.1-0.9-0.2-1.5-0.4c0-0.4-0.1-0.7,0-1c0.7-2.5,2.1-4.5,3.9-6.4c1.9-1.9,4.1-3.3,6.6-4.5c2.2-1.1,4.3-2.1,6.6-2.8
	c2.5-0.7,5.1-0.9,7.7-1c2.5-0.1,5.1,0,7.6-0.1c1.1,0,2.2,0.1,3.3,0.5c0.9,0.3,1.9,0.6,2.8,0.8c3.3,0.6,6,2.5,8.5,4.5
	c1.9,1.5,3.6,3.4,4.2,5.9c0.6,2.2,1.2,4.3,1.8,6.5c0.1,0.3,0.2,0.6,0.2,0.8C239.6,238.8,240.6,242.1,240.2,245.5z"/>
<path class="st3" d="M144.7,242.3c-0.1,0.2-0.2,0.4-0.3,0.5c-1.6-0.2-3.1,0.2-4.6,0.5c-1.6,0.3-2.9-0.5-3.3-2.1
	c-0.2-0.9-0.2-1.8,0.2-2.7c0.5-1.1,1.2-2.1,2.2-2.8c1.6-1.2,3.3-2.3,5.3-3c2.6-1,5.2-2.1,7.8-3.3c1-0.5,1.9-1.4,2.8-2.3
	c1.4-1.5,1.4-3.3,1-5.2c-0.3-1.2-0.9-2.4-1.5-3.5c-0.5-0.9-1.2-1.6-2.2-1.9c-1.3-0.3-1.9-1.2-2.4-2.4c-1.5-3.4-4.4-5.1-7.9-5.6
	c-2.9-0.4-5.8-0.2-8.5,1.1c-0.3,0.1-0.6,0.1-0.8,0.3c-1.5,1.4-3.4,2.3-4.5,4.1c-0.7,1.1-1.4,2.1-2.1,3.1c-1.2,1.7-1.5,3.6-1.9,5.6
	c-0.2,1-0.2,2.1,0.5,3.1c0.1,0.2,0.4,0.2,0.9,0.5c-0.8-3.3,0.3-5.8,1.6-8.2c0.9-1.7,2.2-3.1,3.6-4.4c2.4-2.3,5.5-3.1,8.7-3.2
	c2.6-0.1,4.9,0.7,6.9,2.2c1.2,0.9,2.1,2,2.6,3.6c-0.9,0.4-1.8,0.9-2.7,1.3c-1.9,1-3.1,3.1-2.9,5.2c0.2,1.6,1.2,2.5,2.8,2.1
	c1.1-0.2,2.1-0.7,3.1-1.2c0.9-0.5,1.1-1.4,1.3-2.3c0.1-0.9,0.2-1.8,0.3-2.9c0.4,0,0.9-0.1,1.2,0.1c2,1,3.2,4.2,2.3,6.2
	c-0.3,0.6-0.7,1.2-1.2,1.7c-0.9,0.7-1.8,1.4-2.8,1.8c-2.7,1.2-5.4,2.3-8.1,3.6c-1.7,0.8-3.3,1.8-4.8,3.1c-2.3,2.1-2.6,4.7-2,7.5
	c0.4,1.9,2.5,3.3,4.5,3.1c0.6-0.1,1.2-0.3,1.9-0.4c0.8-0.1,1.5-0.2,2.3-0.2c0.2,0,0.4,0,0.6,0.1
	C144.6,244.3,144.9,243.3,144.7,242.3z M148.7,221.8c-0.8,1-1.8,1.5-3.1,1.6c-0.6,0-1.1-0.5-1-1.1c0.1-0.5,0.2-1,0.5-1.4
	c0.9-1.3,2.2-2,3.9-2.2C149.4,219.9,149.4,220.9,148.7,221.8z"/>
<path class="st5" d="M153.9,286.7c-3,0-6.1,0.8-8.5,2.4L101.6,319c-2.3,1.5-3.6,3.6-3.6,5.7c0,1.9,1,3.7,2.8,5l83.4,61.2
	c4.2,3.1,11.7,3,16.3-0.2l39.2-34.2c2.3-1.5,3.6-3.6,3.6-5.7c0-1.9-1-3.7-2.8-5L161.7,289C159.7,287.5,156.8,286.7,153.9,286.7z"/>
<path class="st10" d="M165.1,353.6L135,327.8c-5-4.3-4.8-10.3,0.5-13.4l14.8-8.8c5.2-3.1,13.6-2.2,18.6,2.1l30.1,25.8
	c5,4.3,4.8,10.3-0.5,13.4l-14.8,8.8C178.4,358.8,170.1,357.8,165.1,353.6z"/>
<g>
	<path class="st6" d="M281.4,321.2L281.4,321.2c-2.7,0-4.9-2.2-4.9-4.9l0,0c0-2.7,2.2-4.9,4.9-4.9l0,0c2.7,0,4.9,2.2,4.9,4.9l0,0
		C286.3,319,284.1,321.2,281.4,321.2z"/>
	<path class="st11" d="M281.4,322.2c-3.2,0-5.8-2.6-5.8-5.8c0-3.2,2.6-5.8,5.8-5.8c3.2,0,5.8,2.6,5.8,5.8
		C287.2,319.6,284.6,322.2,281.4,322.2z M281.4,312.5c-2.1,0-4.6,2.3-4.6,4.5c0,2.1,1.7,3.9,3.9,3.9c2.1,0,4.6-2.3,4.6-4.5
		C285.3,314.2,283.5,312.5,281.4,312.5z"/>
</g>
<path d="M218.8,294.1c-0.2-1.2-0.8-2.2-1.2-3.3c-0.1-0.1-0.4-0.2-0.6-0.2c-0.2,0-0.4,0.2-0.4,0.4c-0.1,0.7-0.1,1.4,0.2,2.1
	c0.2,0.4,0.4,0.9,0.6,1.4c0.8,3,0.8,6.1,0.2,9.2c-0.6,3.1-2,5.8-3.3,8.7c-0.9,2-2.5,3.5-4.2,4.6c-2.8,1.8-5.9,3.4-8.8,4.9
	c-2.1,1.1-4.2,2-6.3,3c-0.4,0.2-0.7,0.3-1.3,0.5c-0.3-1.9-1.7-3.1-2.6-4.7c1.4-0.5,2.6-1,3.9-1.2c1.4-0.3,2.9-0.7,4.2-1.4
	c2.2-1.1,4.3-2.5,6.3-3.8c2.3-1.5,4-3.5,5.5-5.8c0.4-0.7,0.9-1.5,1.1-2.3c0.7-2.3,1-4.7,0.8-7.1c-0.2-2.2-0.8-4.3-1.2-6.4
	c-0.1-0.4-0.3-0.7-0.7-0.6c-0.4,0.1-0.5,0.5-0.5,0.8c0,0.4,0,0.8,0.1,1.3c0.2,1.2,0.3,2.4,0.6,3.5c0.7,2.5,0.4,5-0.5,7.4
	c-0.3,0.7-0.5,1.5-0.9,2.1c-1.6,2.2-3.4,4.3-5.8,5.8c-0.8,0.5-1.7,1.1-2.5,1.5c-2,1.2-4.1,2.2-6.4,2.8c-1.6,0.4-3.2,1-4.8,1.5
	c-0.3,0.1-0.5,0.2-0.8,0.3c-0.6,0.2-1.1,0-1.5-0.5c-0.5-0.6-0.9-1.3-1.4-1.9c-0.3-0.4-0.7-0.9-1.1-1.3c-0.4-0.4-1-0.5-1.6-0.5
	c-0.8,0.1-1.3,0.6-1.3,1.3c0,1.2-0.1,2.4,0.4,3.5c0.2,0.4,0.2,0.9,0.4,1.6c-0.9,0.2-1.6,0.3-2.3,0.5c-1.5,0.4-2.3,1.3-2.3,2.9
	c0,1,0,1.9,0,2.9c0.6,0.1,1,0.2,1.6,0.3c-0.9,1.3-1.6,2.5-1,4c1.6,1.1,1.6,1.1,3.1,0.1c0.5-0.3,1-0.8,1.8-0.8
	c-0.1,0.7-0.2,1.3-0.2,1.9c0,1.5,0.2,1.9,1.2,2.1c1.6-0.8,2.9-1.8,4.3-3c-0.1-0.2-0.2-0.3-0.3-0.5c1.2-1.2,2.4-2.5,3.6-3.7
	c0.4-0.4,0.8-0.8,1.3-1c2-1,4.1-2,6.1-2.9c3.4-1.6,6.9-3.3,10.1-5.4c2.7-1.8,4.9-4,6-7.1c0.3-0.8,0.6-1.6,1-2.3
	c1.2-2.4,1.6-5,1.8-7.5C219.6,299.3,219.3,296.7,218.8,294.1z M192.1,326.2c-1.1,1-2.1,2.1-3.2,3.1c-0.6,1.4-1.3,2.7-2.2,3.9
	c-0.3,0.4-0.7,0.4-1.1,0.2c0,0-0.1,0.1-0.1,0.1c0,0,0-0.1,0-0.1c-0.4-0.3-0.6-0.8-0.2-1.3c0.8-1,1.4-2.2,1.9-3.4
	c-0.2-0.2-0.4-0.4-0.6-0.6c-0.1,0.1-0.2,0.2-0.3,0.2c-1.7,0.3-2.9,1.4-4.1,2.5c-0.5,0.5-0.5,0.5-1.5,0.3c0-0.8,0.4-1.3,1-1.7
	c0.7-0.5,1.5-1,2.3-1.5c0.6-0.4,1.2-0.7,1.9-1.1c-0.2-0.5-0.3-1-0.4-1.4c-1.4,0.2-2.8,0.3-4.3,0.3c-0.6,0-0.9-0.5-0.9-0.9
	c0,0,0,0,0-0.1c0-0.4,0.2-0.8,0.7-0.8c0.3,0,0.6,0,1,0c0.2-0.1,0.5-0.1,0.7-0.2c2.2-0.5,2.9-1.9,1.9-3.8c-0.4-0.7-0.5-1.4-0.6-2.2
	c0-0.3,0.1-0.5,0.1-0.7c0.5-0.2,0.8,0.1,1,0.3c0.3,0.4,0.7,0.9,1,1.4c0.8,1.3,1.8,2.5,3.3,3.2c1.2,0.6,2,1.7,2.8,2.8
	C192.4,325.3,192.5,325.8,192.1,326.2z"/>
<path class="st11" d="M281.5,318.3c-0.4-0.6-0.8-1.3-1.2-1.9c-0.8,0.6-22.6,16.4-23.6,17c-0.9,1.1-2,2-3.2,2.7
	c-0.7,0.7-1.5,1.4-2.3,2.2c-1.5,1.4-2.7,3-3.7,4.8c-0.8,1.5-6.6,19.5-7.2,21.1c0.4,0.4,0.8,0.8,1.2,1.2c0-0.1,5.3-16.7,5.3-16.8
	c0.5-1.4,1.2-2.7,1.8-4c1.3-2.8,3.7-4.7,5.7-7c0.3-0.3,0.6-0.5,1-0.5c1-0.8,2.2-1.5,3.4-2.1c-0.1-0.1-0.2-0.1-0.3-0.2
	C259.2,334.4,280.8,318.7,281.5,318.3z"/>
<path class="st11" d="M195.4,402.4c0-0.1,0-0.2,0.1-0.2c0.2-0.2,0.3-0.5,0.6-0.6c1.5-1,2.1-2.4,2.2-4.1c0.1-1-0.1-2-0.4-2.8
	c-0.6,0.2-1.1,0.4-1.7,0.6c0.5,0.9,0.6,1.9,0.6,2.9c-0.8,1.3-2.1,2-3.5,2.9c-1.1-0.9-1.8-2-2.3-3.2c-0.3-0.8-0.2-1.7,0.4-2.4
	c0,0,0,0,0,0c-0.6,0-1.2-0.1-1.8-0.2c-1,1.2-1,2.5-0.5,3.9c0.2,0.6,0.5,1.1,0.8,1.7c0.2,0.4,0.4,0.7,0.6,1.2c-0.4,0.2-0.7,0.4-1,0.4
	c-4,0.7-8,0.9-11.9-0.3c-1.7-0.5-3.3-1.1-4.9-1.7c0.5,1.1,0.2,1,0.8,2.1c1.5,0.5,3.8,2.1,5.3,2.5c1.4,0.4,2.9,0.4,4.4,0.4
	c3.1-0.1,6.2-0.3,9-1.4c1.6,0.7,3,1.3,4.4,1.8c1,0.4,2.1,0.7,3.2,1c0.2-0.8,0.4-1.6,0.5-2.4c-1.4-0.3-2.8-0.8-4.1-1.5
	C195.8,402.9,195.4,402.8,195.4,402.4z"/>
<path d="M260.1,355.5c0.3-0.6,0.7-0.9,1.4-1.1C261.2,355.1,260.7,355.4,260.1,355.5C260,355.4,260.1,355.5,260.1,355.5z"/>
<path d="M72.7,262.9c0.1,0.9-0.6,1-1.3,1.5C71.9,263.5,71.9,263.5,72.7,262.9C72.8,263,72.7,262.9,72.7,262.9z"/>
<path d="M263.3,352.6c0.2-0.1,0.3-0.2,0.5-0.3c0,0.1,0.1,0.2,0.1,0.3c-0.1,0.1-0.2,0.2-0.3,0.2C263.5,352.8,263.4,352.7,263.3,352.6
	z"/>
<path d="M73.9,262c-0.3,1-0.3,1.1-1.2,1c0,0,0,0,0,0C73.1,262.6,73.5,262.3,73.9,262C73.9,262,73.9,262,73.9,262z"/>
<path d="M230.7,363.3c-0.2-0.4-0.4-0.7,0.2-0.9C230.9,362.7,230.8,363,230.7,363.3C230.7,363.2,230.7,363.3,230.7,363.3z"/>
<path d="M229.3,363.2c0.2,0.8,0.2,0.8-0.6,1c0,0,0.1,0,0.1,0C229,364,229.2,363.6,229.3,363.2C229.4,363.3,229.3,363.2,229.3,363.2z
	"/>
<path d="M84.2,149.9c-0.4,0.4-0.7,0.4-1.2,0.1c0,0,0,0,0,0C83.4,150,83.8,150,84.2,149.9C84.2,150,84.2,149.9,84.2,149.9z"/>
<path d="M195.7,387.2c0.1-0.1,0.1-0.3,0.2-0.3c0.1,0,0.2,0.1,0.3,0.1c0,0-0.1,0.1-0.1,0.1C195.9,387.2,195.8,387.1,195.7,387.2
	C195.7,387.1,195.7,387.2,195.7,387.2z"/>
<path class="st12" d="M235.4,259.6c-2.5,2.9-5.2,5.6-8.9,7c-0.5,0.2-0.9,0.3-1.4,0.4c-0.9,0.2-1.8,0.4-2.6,0.7
	c-0.7,0.3-1.4,0.6-2.2,0.6c-0.2,0-0.4,0-0.6,0.1c-1.4,0.8-2.9,1.5-4,2.7c-0.6,0.6-1,1.4-1,2.3c0,1.4,0,2.8,0.1,4.2
	c0.1,1.1-0.3,1.8-1,2.4c-1,0.7-2,1.3-3.2,1.4c-1.4,0.2-2.8,0.4-4.2,0.3c-1.3-0.1-2.5-0.5-3.6-1.1c-0.9-0.5-1.4-1.2-1.2-2.2
	c0.3-1.8,0-3.5-0.8-5.1c-0.6-1.2-1.4-2.1-2.6-2.6c-1.8-0.8-3.6-1.6-5.4-2.4c-1.9-0.9-3.7-2.1-5-3.8c0-0.1-0.1-0.1-0.1-0.2
	c-2.7-2.4-3.5-5.7-4.2-9c-0.2-0.8-0.3-1.5-0.4-2.3c0-0.2-0.1-0.5,0-0.6c0.8-1.9,0.2-3.9,0.4-5.9c0.1-1,0.2-2,0.4-2.9
	c0.5-2.7,1-5.4,1.5-8.1c0.1-0.4,0.3-0.8,0.4-1.3c1,0.2,1.9,0.3,2.7,0.5c2.2,0.5,4.3,0.3,6.4-0.8c3.7-1.9,7.2-4.1,10.2-7.1
	c1.4-1.3,2.9-2.4,4.4-3.7c1,2.4,1.8,4.5,2.7,6.7c1.4,3.2,3.9,5.3,7,6.7c1.3,0.6,2.6,1.1,3.9,1.6c-0.1,1-0.1,2-0.2,2.9
	c0.7,0.2,0.9-0.2,1.1-0.6c0.5-1,1.2-1.9,2.1-2.6c1.3-1.1,2.7-1.4,4.3-0.8c1,0.4,1.8,1,2.6,1.8c0.6,0.6,0.9,1.3,0.9,2.1
	c0.1,0.6,0,1.3,0.1,1.9c0.1,1.6-0.8,2.5-2.1,3.1c-0.6,0.3-1.2,0.4-1.8,0.7c-0.8,0.4-0.9,0.8-0.4,1.6c0.1,0.1,0.2,0.2,0.4,0.3
	c0.3-0.1,0.6-0.2,0.9-0.3c0.7-0.2,1.1,0,1.1,0.8c-0.1,1.7,0.4,3.2,1,4.7c0.5,1.3,1.1,2.6,2.1,3.6c0.3,0.3,0.5,0.7,0.8,1.1
	C235.8,258.9,235.7,259.3,235.4,259.6z"/>
<path class="st13" d="M150.8,198.2c-0.6,0.3-1.2,0.6-1.9,1c-0.6,1.5-1,3-0.2,4.6c0.3,0.5,0.7,0.7,1.2,0.5c0.7-0.4,1.5-0.8,2.2-1.3
	c0.4-0.2,0.7-0.5,1.1-0.6c1.6-0.5,3.2,0.6,3.2,2.3c0,2.1-1.5,3.4-3.7,3.2c-0.8-0.1-1.6-0.4-2.4-0.7c-0.4-0.1-0.8-0.3-1.3-0.4
	c-0.2,0.7-0.3,1.3-0.4,1.9c-0.7-0.1-0.9-0.5-0.9-1.1c0-0.3,0.1-0.7,0.2-1c0.3-0.7,0.2-1.4-0.2-2c-1-1.9-0.4-3.7,0.2-5.5
	c0.4-1.1,1.5-1.6,2.7-1.2C150.6,197.7,150.7,197.9,150.8,198.2z M150.9,205.4c0.7,0.9,1.6,0.6,2.3,0.6c0.7,0,1.2-0.4,1.6-0.8
	c0,0,0.1-0.1,0.1-0.2c0.3-0.4,0.1-1-0.3-1.3c-0.7-0.5-1.3-0.5-1.9,0C152.1,204.2,151.5,204.8,150.9,205.4z"/>
<path d="M197.7,262.7c0.8,0.2,1.6,0.3,2.3,0.5c1.8,0.6,3.6,0.5,5.4,0.3c1.6-0.2,3-0.8,4.2-1.7c0.4-0.3,0.8-0.6,1.2-0.9
	c0.3-0.2,0.6-0.3,1-0.1c0.3,0.2,0.5,0.8,0.3,1.1c-0.8,1-1.5,2.2-2.9,2.7c-2.1,0.8-4.3,1.4-6.5,1.3c-1.6-0.1-3-0.6-4.3-1.6
	C197.9,264,197.4,263.5,197.7,262.7z"/>
<path d="M202,255.1c1.4-1,1.5-2.5,1.8-3.8c0.4-1.3,0.6-2.6,0.9-3.8c0.9,0.2,1.1,0.3,0.9,1c-0.4,2.1-0.7,4.3-1.6,6.3
	c-0.3,0.7-0.7,1.4-1.1,2c-0.2,0.3-0.5,0.5-0.8,0.7c-0.7,0-1.1-0.4-1.3-0.9c-0.3-0.7-0.7-1.4-0.9-2.1c-0.7-2.7-0.8-5.4,0.2-8.1
	c0.1-0.2,0.2-0.3,0.4-0.4c0.5,0.2,0.4,0.5,0.3,0.9c-0.6,1.9-0.7,3.9-0.3,5.8C200.9,253.7,201,253.8,202,255.1z"/>
<path d="M226.4,242.6c-0.4-1,0.2-1.7,0.8-2.4c0.1-0.1,0.2-0.2,0.3-0.2c0.6-0.4,1.2-1,2.1-0.7c1,0.4,1.8,1.1,2,2.3
	c0.2,1.3,0.1,2.5-0.9,3.5c-1.3-1,0-1.9,0-2.7c0-0.2,0-0.3-0.1-0.3c-1.1-1.4-1.8-1.5-3-0.2C227.2,242.2,227,242.7,226.4,242.6z"/>
<path d="M198.6,237.4c0,0.7-0.2,1.4-0.7,1.9c-0.7,0.7-1.8,0.5-2.1-0.3c-0.2-0.6-0.3-1.2-0.3-1.8c0-0.9,0.7-1.6,1.6-1.6
	c0.9,0,1.5,0.7,1.5,1.6C198.6,237.3,198.6,237.4,198.6,237.4z"/>
<path d="M209,236.4c0.6-0.4,1.1-0.7,1.7-0.4c0.5,0.3,0.6,0.9,0.6,1.5c0,0.4-0.1,0.8-0.2,1.2c-0.3,0.7-1,1-1.5,0.8
	c-0.6-0.2-1-0.8-1-1.4C208.6,237.6,208.8,237.1,209,236.4z"/>
<ellipse class="st4" cx="51.3" cy="262.1" rx="9.4" ry="23.8"/>
<ellipse class="st4" cx="51.3" cy="311.3" rx="9.4" ry="25.5"/>
<ellipse class="st4" cx="299.8" cy="262.1" rx="9.4" ry="23.8"/>
<path class="st11" d="M240.2,365c-0.6,1.3-2.7,6.4-3.5,7.7c-0.9,0.9-28.5,33.8-36.5,31.8l-3.6,1.4c0,0,2.9,1.9,6.4,0.4
	c6.4-3.3,13-9.5,22.1-18.3c7.5-7.3,14-12.2,17.3-23C241.1,366,241.5,364.2,240.2,365z"/>
<path d="M240.7,344.4l-32.8-24c-0.6,0.4-1.2,0.8-1.8,1.1l33.4,24.4c1.8,1.3,2.8,3.1,2.8,5c0,2.1-1.4,4.2-3.6,5.7l-38.1,34.1
	c-4.7,3.2-12.1,3.3-16.3,0.2l-83.4-61.2c-1.8-1.3-2.8-3.1-2.8-5c0-2.1,1.4-4.2,3.6-5.7l43.8-29.8c2.4-1.6,5.5-2.4,8.5-2.4
	c2.9,0,5.8,0.8,7.8,2.3l38,27.9c0.6-0.4,1.2-0.8,1.7-1.2l-38.5-28.3c-4.9-3.6-13.2-3.5-18.6,0.1l-43.8,29.8
	c-2.8,1.9-4.4,4.6-4.5,7.3c0,2.5,1.2,4.9,3.6,6.6l83.4,61.2c2.4,1.8,5.7,2.7,9,2.7c3.4,0,6.9-0.9,9.6-2.8l38.1-34.1
	c2.8-1.9,4.4-4.6,4.5-7.3C244.3,348.5,243,346.1,240.7,344.4z"/>
<g>
	<polygon class="st11" points="291.7,21.9 175.9,21.9 174.9,105.9 173.8,105.9 173.8,21.9 166.9,21.9 166.9,113.1 293.4,112.1 	"/>
	<path class="st14" d="M204.9,90.1c-1.5-2.3-3.1-4.7-4.7-7.1c-0.8,0.6-1.5,1.4-2.3,1.9c-1.3,0.8-2.7,1.9-4.1,2.3
		c-4.2,1.2-8.1-2.1-9.5-8c-2.2-9.6-1.2-18.7,3-27.1c2.3-4.5,6-6.3,9.8-7.7c0.8-0.3,1.8,0.3,2.6,1.5c5,7.3,5.2,15.9,4.9,24.8
		c-0.1,1.8-0.5,3.8-1.1,5.5c-0.7,2-0.5,3.6,0.5,5.3c1.5,2.5,1.4,5.5,1.5,8.3C205.3,89.8,205.1,89.9,204.9,90.1z M196.4,50.1
		c-3.9,0.6-6.7,2.8-8.2,7.2c-0.5,1.4-0.5,2.9-0.9,4.3c-1.6,4.9-1.1,9.9-0.5,15c0.3,2.4,1.1,4.4,3.1,5c2.7,0.9,5.4,0.8,7.8-1.7
		c-1-2.3-2.2-4.6-0.6-7.5c1.4,1.3,2.7,2.5,3.9,3.6c2.3-4.3,1.3-8.7,1-13c-0.1-2.5-0.8-4.8-2.1-6.8C198.5,54.3,197.6,52.3,196.4,50.1
		z"/>
	<path class="st14" d="M262.6,43.4c1.4,7.2,1.1,14.3,2.1,21.9c5.6-6.2,10.1-13,15.4-18.9c0.5,6.1,0.1,7-6.7,15.3
		c1.7,9.4,5.6,18.5,3.4,28.9c-1.1-0.7-1.7-2-2.1-3.6c-1.5-6-3.1-11.9-4.6-17.8c-0.2-0.8-0.5-1.5-0.7-2.3c-0.3,0.1-0.5,0.2-0.7,0.3
		c-4.3,2.6-4.3,7.6-4.1,12.5c0.1,3.8,0,7.6-1.2,11.3c-1.6-0.7-1.5-2.3-1.5-3.6c-0.2-4.3-0.4-8.7-0.6-13c-0.3-8.6-0.6-17.1-0.9-25.7
		C260.4,46.7,260.2,44.7,262.6,43.4z"/>
	<path class="st14" d="M212.7,44c0.2,2.4,0.3,4.4,0.4,6.4c0.7,9.4,1.3,18.7,2,28.1c0.1,0.9,0.3,1.9,0.7,2.7c0.8,1.8,1.9,3.1,3.6,2.9
		c1.8-0.1,2.7-1.5,3.1-3.5c0.2-0.8,0.5-1.6,0.5-2.4c0.2-4.8,0.6-9.5,0.4-14.3c-0.2-4.9,0.4-9.8-0.9-14.6c-0.6-2.3,0.8-4,2.4-6.2
		c0.5,2.8,1.1,4.9,1.2,7.2c0.3,9.8,0.3,19.6-0.4,29.3c-0.2,3-0.5,5.9-2.3,8.3c-3.8,5.1-9.3,2.6-12.1-2.9c-1.6-3.3-0.9-5.7-1-9.6
		c0-5.3,0-10.7-0.1-16c0-3.8-0.3-7.6-0.3-11.4C210,45.7,210.1,45.7,212.7,44z"/>
	<path class="st14" d="M256.8,75.4c0.3,3.1,0.1,6.1-0.8,9c-1.6,5.2-8.2,7.8-11.9,2.4c-2.1-3.1-3.6-6.6-3.9-10.6
		c-0.3-4.7-0.4-9.5-0.3-14.3c0.1-5.3,2.3-9.7,5.1-13.3c2-2.6,4.9-3.9,8-4c1.8,0,3.3,1.3,3.8,3.3c0.6,2.3,0.5,4.9,0.8,8.2
		c-1.4-1.9-2.2-3.1-3.1-4.2c-1.5-1.7-2.7-1.8-4.5-0.6c-3.4,2.2-5.5,5.4-6.4,10.2c-0.9,4.9-0.9,9.8-0.3,14.6c0.6,5.4,3.9,8.7,7.6,8.2
		c2.5-0.4,3.4-1.3,4-4.4c0.3-1.5,0.6-3.1,0.9-4.6C256.2,75.3,256.5,75.3,256.8,75.4z"/>
	<path class="st14" d="M234.8,91.4c-3.4-2.6-2.7-6.5-2.8-9.9c0-10.5,0.2-21,0.4-31.5c0.1-2.4,0.1-5.1,2.1-7.2
		C236.1,59.2,236.3,75.1,234.8,91.4z"/>
	<polygon class="st15" points="166.9,113.1 173.8,105.8 173.8,90.2 167.1,96.9 	"/>
	<polygon class="st11" points="62,14.6 66.6,19 62.3,23.1 66.6,27.3 62.3,31.4 66.6,35.5 62.3,39.6 66.6,43.7 62.3,47.9 66.6,52 
		62.3,56.1 66.6,60.2 62.3,64.3 66.6,68.4 62.3,72.6 66.6,76.7 62.3,80.8 66.6,84.9 62.3,89 66.6,93.1 62.3,97.3 66.6,101.4 
		62.1,105.8 173.8,105.8 173.8,14.6 	"/>
	<path class="st14" d="M118.1,64.2c0.5,4.5-0.5,9.2-1.9,13.7c-1.2,3.7-2.9,7.3-6.6,7.3c-3.4,0-5.3-3-6.7-6.5
		c-2.2-5.3-2.2-11-1.8-16.7c0.3-4.3,1.3-8.6,1.8-12.9c0.4-3.1,2.3-5.5,2-9c-0.2-1.8,2-3.1,4-3.1c1.7,0,3.2,0.2,3.7,2.8
		c0.2,1.1,0.4,2.4,1,3.2c4.1,5.7,4.1,12.9,4.5,19.9C118.1,63.2,118.1,63.5,118.1,64.2z M106.7,43.8c-0.2,0.5-0.5,1-0.5,1.6
		c-0.6,5.6-1.4,11.3-1.8,17c-0.2,3,0.2,6.2,0.8,9.1c0.5,2.2,1.5,4.4,2.7,6c2.6,3.4,5.5,2.2,6.2-2.5c1.4-9.9-0.1-19.2-3.8-28
		C109.6,45.3,108.6,43.7,106.7,43.8z"/>
	<path class="st14" d="M161.7,83.3c-0.3-5.8-0.6-11.5-0.9-17.3c-2.9,0-5.7,0-9,0c0.3,4.8,0.5,9,0.7,13.3c0.2,3.4-0.8,6.1-3.2,9
		c-2.7-18,0-35.3-1.7-52.5c2.1-0.1,2.3,1.4,2.5,2.9c0.7,5.9,2.6,11.5,1.8,17.6c-0.1,1.1,0.4,2.2,0.6,3.3c2.8,0,5.4,0,8,0
		c0.8-8.3-1.6-16.5,0.6-25.7c0.9,1.6,1.6,2.3,1.6,3c-0.3,6.2,1.7,12.1,1.9,18.2c0.1,5.8,0,11.7-0.1,17.5c-0.1,3.1,0.4,6.2-1,9.1
		c-0.3,0.6-0.6,1.2-0.8,1.8C162.3,83.4,162,83.4,161.7,83.3z"/>
	<path class="st14" d="M87.7,43.5c-2.7,0-4.9,0-7.2,0c-0.7-4.1-0.3-5.3,2.7-5.7c3.9-0.5,7.8-0.8,11.7-0.9c1.2-0.1,2.4,0.6,3.9,1
		c-0.9,1.9-1.6,3.3-2.4,5c-1,0.1-2.2,0.1-3.6,0.2c0,3.6-0.4,7.2,0.1,10.6c1.2,8,1.3,15.8-0.9,23.7C89.5,86,82.8,88,77.5,81.6
		c-1.5-1.8-3-3.7-2.1-6.8c0.1-0.4,0.4-0.7,0.9-1.5c1.4,1,2.8,2.2,4.2,3.2c1,0.7,2,1.5,3.1,1.9c3.6,1.4,4.9,0.2,4.8-4.6
		c-0.1-7.1-0.5-14.3-0.7-21.4C87.7,49.6,87.7,46.9,87.7,43.5z"/>
	<path class="st14" d="M138.1,48.4c-0.8-1.6-1.4-3.3-2.3-4.8c-0.5-0.9-1.3-1.8-2.1-2.1c-2-0.9-3.3,0.4-3.4,3.1
		c0,0.7-0.1,1.5,0.1,2.2c1.8,5.1,2.5,11,5.6,15.3c2.4,3.3,3,7.6,3.9,11.6c0.8,3.6-0.6,7.3-2.2,10.3c-1.7,3.2-7.4,3.5-10.2,1.2
		c-3.6-2.8-3.8-7.6-4.9-12.8c4.1,5.4,7.6,10.6,13.9,7.8c-1.5-5.2-3.2-9.8-5.3-14.3c-2.9-6-5.3-12.6-4.6-20.1c0.4-4.5,3-8.6,6.5-9.7
		c3.6-1.2,6.8,1.9,6.6,6.6c-0.1,2-0.6,3.9-0.9,5.9C138.6,48.4,138.4,48.4,138.1,48.4z"/>
</g>
<path class="st11" d="M169,394.5c-0.5-0.7-1-1.6-1.2-2.4c-0.6-2.1-0.6-4.3,0-6.5c0.2-0.8,0.6-1.1,1.4-0.8c1.6,0.5,3.2,0.4,4.8,0.3
	c1.5-0.1,2.7-0.8,3.6-2c0.9-1.1,0.6-3.4-0.5-4.2c-1.4-1.1-4.4-1.2-6-0.2c-0.6,0.4-1.2,0.8-1.7,1.2c-0.5,0.4-1,1-1.5,1.4
	c-2.5-1.7-3.8-3.3-4.9-5.8c-0.2-0.5-0.3-0.9-0.6-1.4c-1-1.8-1.3-3.8-1.1-5.7c0.2-2.5,0.3-5.1,1.1-7.5c0.8-2.3,1.5-4.7,2.5-7
	c0.5-1.2,2-4.8,2.8-5.9c-0.5-0.1-1-0.1-1.5-0.2c-0.7,1.2-2.4,4.8-2.9,6c-2.2,5-3.2,10.3-3.8,15.8c0,0.3,0,0.7,0.1,1
	c0.1,0.6,0.2,1.1,0.2,1.7c0,1.3,0.4,2.5,1.1,3.6c0.2,0.4,0.4,0.7,0.5,1.1c0.6,1.9,1.7,3.5,3.3,4.8c0.4,0.3,0.7,0.7,1.1,1
	c0.7,0.5,0.9,1.1,0.6,2c-0.5,1.9-0.8,3.9-0.6,5.8c0.1,1.6,0.4,3.3,1.3,4.6c1.3,2.1,2.8,4,4.8,5.6c1.9,1.6,4.1,2.9,6.3,3.9
	c0.6-0.7,1.2-1.3,1.8-1.9C175.5,401.3,171.8,398.5,169,394.5z M173.2,380.1c1.1-0.2,2.2,0,3.1,1c-0.3,1-1.2,1.3-1.9,1.4
	c-1.4,0.1-2.9,0.5-4.3-0.5C170.8,380.8,171.9,380.3,173.2,380.1z"/>
<path class="st11" d="M182.1,235.4c7.6,5.9,25.8-7.6,25.8-7.6c7.6,11.6,15.1,10.4,15.1,10.4c6.5-8.2,13.9-1.3,12.1,2.4s-4,7.7-4,7.7
	c0.9,12.4,7.6,13.9,7.6,13.9c12-16.2,6.1-34.2,6.1-34.2c-1.7,6.4-1.7,6.4-1.7,6.4c-3.4-22.1-15.2-25.1-15.2-25.1
	c2.2,4.7,2.2,4.7,2.2,4.7c-16.7-6.1-26.8-1.5-26.8-1.5c4.2,1.2,4.2,1.2,4.2,1.2c-21.6,3.7-26.5,13-26.5,13l6.6-1.7
	C182.1,230.5,182.1,235.4,182.1,235.4z"/>
<path d="M41,198.8"/>
<polygon class="st4" points="48.1,287.3 18,320.8 50.6,336.8 "/>
<polygon class="st4" points="301.3,238.1 331.5,271.6 298.9,287.7 "/>
<path class="st9" d="M314.3,280.2c-0.8-2.7-1.3-5.8-1.3-9.1c0-6.3,1.6-11.8,4.1-15.1l14.2,15.8L314.3,280.2z"/>
<path d="M35.1,329.2c0.8-2.7,1.3-5.8,1.3-9.1c0-6.3-1.6-11.8-4.1-15.1L18,320.8L35.1,329.2z"/>
<polygon class="st1" points="299.4,215.5 173.2,141.7 51.7,215.5 50.8,214 173.2,139.7 300.3,214 "/>
<rect x="97.9" y="329.6" width="2.3" height="31.5"/>
<rect x="181.2" y="390.6" width="2.3" height="31.5"/>
<polygon points="242.1,377.3 239.8,377.3 239.8,356.6 242.1,354.9 "/>
<g>
	<g class="st16">
		<path class="st5" d="M200.6-45.9c0.5,0.3,0.9,0.4,1.2,0.6c2.4,1.3,2.4,4.2,0,5.4c-0.8,0.5-1.7,0.9-2.5,1.4
			c-0.6,0.3-1.1,0.6-1.9,0.4c-0.3-0.5-0.5-1-0.5-1.6c-0.1-1.6-0.2-3.1-0.2-4.7c-0.1-2.2-0.3-4.4-0.7-6.6c0,0,0-0.1,0.1-0.3
			c1-0.4,1.7-1.2,2.9-1.4c1.6-0.3,3.4,0.2,4.1,1.5c0.5,0.9,0.5,1.8,0.1,2.7c-0.3,0.7-0.8,1.4-1.5,2C201.3-46.3,201-46.1,200.6-45.9z
			 M198-46.2c1.7-0.3,2.7-1.1,3.6-2.1c0.6-0.6,0.5-1.3,0.3-2c-0.1-0.2-0.3-0.4-0.5-0.6c-0.9-0.5-2.5-0.4-3.3,0.2
			c-0.3,0.2-0.6,0.5-0.5,0.9C197.5-48.7,197.4-47.5,198-46.2z M197.9-44.5c0,1.5-0.1,2.9,0.1,4.3c0,0.2,0.2,0.4,0.4,0.7
			c1.2-0.5,2.2-0.9,3.1-1.5c1.1-0.8,1-1.9-0.1-2.6C200.5-44.4,199.3-44.5,197.9-44.5z"/>
		<path class="st5" d="M210-38.4c-0.9-1.2-0.8-2.4-0.9-3.5c-0.1-1.2-0.1-2.5-0.1-3.7c0.1-1.7-0.3-3.5-0.5-5.2c0-0.4,0-0.9,0-1.4
			c1.2-0.5,2.4-0.9,3.8-0.6c1.5,0.3,2.8,0.8,3.9,1.8c1.2,1.1,1.9,2.3,2.1,3.8c0.4,2.5-0.6,4.5-2.5,6.3c-1.1,1-2.4,1.7-3.9,2.1
			c-0.4,0.1-0.7,0.3-1.1,0.4C210.5-38.4,210.3-38.4,210-38.4z M209.9-50.9c0.2,1.1,0.4,2.2,0.5,3.4c0.1,1.1,0.1,2.3,0.1,3.4
			c0,1.2,0.1,2.5,0.1,3.8c0.3,0,0.6,0.1,0.8,0c2.7-0.6,6.3-3.4,5.5-6.9c-0.5-2.5-2.4-4-5.3-4.2C211-51.5,210.3-51.5,209.9-50.9z"/>
		<path class="st5" d="M290.4-44.7c-0.8-0.1-1.4,0.1-1.7,0.5c-0.2,0.3-0.3,0.7-0.3,1.1c0,1,0.1,1.9,0.3,2.9c0.1,0.7-0.1,1.1-0.9,1.3
			c-0.8-0.5-0.8-1.2-0.8-1.9c-0.1-1.4-0.2-2.7-0.1-4.1c0-1.7-0.2-3.4-0.7-5.1c-0.1-0.4-0.1-0.9-0.1-1.3c1.3-1.1,2.8-1.6,4.4-2.1
			c2.6-0.8,5.4,0.4,5.4,3.3c0,1.2-0.4,2.3-1.6,3.2c-0.6,0.4-1,0.9-1.6,1.5c0.1,0.3,0.2,0.7,0.4,1c0.5,0.9,1.1,1.8,1.7,2.8
			c0.3,0.5,0.7,1,1,1.5c0.2,0.3,0.3,0.6,0.4,1c0.1,0.3-0.4,0.8-0.8,0.9c-0.5,0.1-0.8,0-1-0.4c-0.2-0.4-0.5-0.7-0.7-1.1
			c-0.9-1.5-1.8-3.1-2.7-4.6C290.8-44.3,290.6-44.5,290.4-44.7z M288.4-45.9c1-0.2,1.9-0.4,2.6-0.6c1.3-0.4,2.4-1.1,3-2.2
			c0.8-1.3-0.2-2.8-1.9-3c-1.5-0.1-2.8,0.3-4,1.1c-0.4,0.2-0.4,0.6-0.3,0.9c0.1,0.8,0.2,1.7,0.3,2.6
			C288.2-46.8,288.3-46.4,288.4-45.9z"/>
		<path class="st5" d="M178.6-41c0.6-0.2,0.8-0.8,1.1-1.3c0.3-0.5,0.5-1,0.7-1.5c0.6-0.3,1.1-0.2,1.4,0.2c0.5,0.5,1,1,1.5,1.5
			c0.4,0.4,0.6,0.9,1.3,1.2c0.3-0.4,0.2-0.9,0.3-1.3c0-0.5,0-1,0.1-1.5c0-0.5,0.1-0.9,0.1-1.4c0-0.5,0.1-0.9,0.1-1.4
			c0-0.5-0.1-0.9-0.1-1.4c0-0.5,0-1,0-1.5c0-0.5,0-0.9,0.1-1.4c0-0.4,0.1-0.9,0.2-1.4c0.4,0.1,0.7,0.1,0.9,0.3
			c0.2,0.2,0.3,0.4,0.3,0.7c-0.1,3.5-0.2,7-0.4,10.5c0,0.7,0,1.4-0.9,1.9c-0.9-0.2-1.6-0.7-2.1-1.4c-0.5-0.7-1.1-1.4-1.9-2
			c-1.1,1.1-1.4,2.7-3.1,3.5c-0.2-0.2-0.5-0.4-0.7-0.6c-0.2-0.3-0.3-0.6-0.3-0.9c-0.5-2.2-1.1-4.4-1.2-6.6c0-1-0.4-2.1-0.6-3.2
			c-0.1-0.3-0.1-0.7,0-1c0-0.1,0.2-0.3,0.3-0.3c0.2,0,0.5,0,0.6,0.2c0.2,0.3,0.4,0.6,0.5,1c0.2,1.5,0.3,3,0.6,4.5
			c0.2,1.5,0.6,2.9,0.9,4.3C178.3-41.1,178.5-41.1,178.6-41z"/>
		<path class="st5" d="M264.7-44.3c-0.1,0.8-0.1,1.8-0.6,2.7c-0.5,0.9-1.3,1.6-2.3,2.2c-1.2,0.7-2.8,0.4-3.6-0.7
			c-0.8-1.1-1.6-2.2-1.5-3.6c0-0.5-0.1-0.9-0.2-1.4c-0.3-2.3,0-4.5,1.2-6.6c0.4-0.6,0.9-0.9,1.6-0.8c0.8,0.1,1.7,0.3,2.5,0.6
			c0.6,0.2,1,0.6,1.2,1.1C264.2-48.7,264.9-46.7,264.7-44.3z M263.4-45c0-1.6-0.6-3.1-1.1-4.5c-0.1-0.2-0.2-0.5-0.4-0.7
			c-0.5-0.5-1.1-0.6-1.8-0.2c-0.2,0.1-0.4,0.2-0.6,0.1c-0.7-0.1-0.9,0-1.1,0.4c-0.4,1-0.6,2.1-0.4,3.2c0.1,0.8,0.3,1.6,0.3,2.5
			c0,1,0.4,1.8,0.9,2.6c0.6,1,1.3,1.1,2.4,0.6c0.7-0.3,1.2-0.8,1.3-1.4C263.1-43.3,263.2-44.2,263.4-45z"/>
		<path class="st5" d="M222.1-45.4c-0.2,1.5-0.4,2.9,0.2,4.4c0.7,0,1.5,0.1,2.3,0.1c0.7,0,1.4-0.1,2.3-0.1c0.2,0.1,0.5,0.3,0.6,0.5
			c0.4,0.6,0.1,1.1-0.6,1.2c-0.5,0.1-1,0-1.6,0.1c-0.8,0.1-1.7,0.1-2.5,0.2c-0.7,0.1-1.3-0.1-1.9-0.5c-0.4-1.1-0.5-2.2-0.4-3.3
			c0.2-2.5,0.1-5-0.6-7.5c0-0.2-0.1-0.3-0.1-0.5c-0.1-0.6,0.2-1,0.9-1.1c1.8-0.3,3.6-0.5,5.4-0.7c1-0.1,1.3,0.2,1.4,1.3
			c-0.4,0.4-1,0.4-1.6,0.4c-1.2,0.2-2.5,0.3-3.7,0.5c-0.5,0.1-0.8,0.4-0.7,0.8c0.1,0.6,0.3,1.2,0.5,1.8c0.9,0.3,1.8,0.1,2.7,0.1
			c0.5,0,0.9-0.1,1.4-0.1c0.4,0,1,0.4,1.2,0.8c0,0.1,0,0.4-0.1,0.4c-0.3,0.2-0.6,0.5-0.9,0.5c-0.9,0.2-1.8,0.2-2.7,0.3
			C223-45.6,222.6-45.5,222.1-45.4z"/>
		<path class="st5" d="M242.5-45.4c-0.2,1.5-0.4,2.9,0.2,4.4c0.7,0,1.5,0.1,2.3,0.1c0.7,0,1.4-0.1,2.3-0.1c0.2,0.1,0.5,0.3,0.6,0.5
			c0.4,0.6,0.1,1.1-0.6,1.2c-0.5,0.1-1,0-1.6,0.1c-0.8,0.1-1.7,0.1-2.5,0.2c-0.7,0.1-1.3-0.1-1.9-0.5c-0.4-1.1-0.5-2.2-0.4-3.3
			c0.2-2.5,0.1-5-0.6-7.5c0-0.2-0.1-0.3-0.1-0.5c-0.1-0.6,0.2-1,0.9-1.1c1.8-0.3,3.6-0.5,5.4-0.7c1-0.1,1.3,0.2,1.4,1.3
			c-0.4,0.4-1,0.4-1.6,0.4c-1.2,0.2-2.5,0.3-3.7,0.5c-0.5,0.1-0.8,0.4-0.7,0.8c0.1,0.6,0.3,1.2,0.5,1.8c0.9,0.3,1.8,0.1,2.7,0.1
			c0.5,0,0.9-0.1,1.4-0.1c0.4,0,1,0.4,1.2,0.8c0,0.1,0,0.4-0.1,0.4c-0.3,0.2-0.6,0.5-0.9,0.5c-0.9,0.2-1.8,0.2-2.7,0.3
			C243.4-45.6,242.9-45.5,242.5-45.4z"/>
		<path class="st5" d="M278.6-45.4c-0.2,1.5-0.4,2.9,0.2,4.4c0.7,0,1.5,0.1,2.3,0.1c0.7,0,1.4-0.1,2.3-0.1c0.2,0.1,0.5,0.3,0.6,0.5
			c0.4,0.6,0.1,1.1-0.6,1.2c-0.5,0.1-1,0-1.6,0.1c-0.8,0.1-1.7,0.1-2.5,0.2c-0.7,0.1-1.3-0.1-1.9-0.5c-0.4-1.1-0.5-2.2-0.4-3.3
			c0.2-2.5,0.1-5-0.6-7.5c0-0.2-0.1-0.3-0.1-0.5c-0.1-0.6,0.2-1,0.9-1.1c1.8-0.3,3.6-0.5,5.4-0.7c1-0.1,1.3,0.2,1.4,1.3
			c-0.4,0.4-1,0.4-1.6,0.4c-1.2,0.2-2.5,0.3-3.7,0.5c-0.5,0.1-0.8,0.4-0.7,0.8c0.1,0.6,0.3,1.2,0.5,1.8c0.9,0.3,1.8,0.1,2.7,0.1
			c0.5,0,0.9-0.1,1.4-0.1c0.4,0,1,0.4,1.2,0.8c0,0.1,0,0.4-0.1,0.4c-0.3,0.2-0.6,0.5-0.9,0.5c-0.9,0.2-1.8,0.2-2.7,0.3
			C279.4-45.6,279-45.5,278.6-45.4z"/>
		<path class="st5" d="M268.1-44.5c0.2,1.6,0.4,3.2,0.6,4.7c0.1,0.4-0.1,0.8-0.5,1.1c-0.1,0.1-0.3,0.1-0.6,0.2
			c-0.1-0.3-0.2-0.5-0.3-0.7c-0.1-0.7-0.2-1.4-0.3-2.2c-0.2-1.7-0.4-3.5-0.5-5.2c-0.1-1.1-0.3-2.2-0.8-3.3c-0.4-0.8-0.2-1.1,0.6-1.5
			c0.6-0.3,1.3-0.6,1.9-0.9c2.7-1.5,6,0.3,6.6,2.2c0.1,0.3,0.1,0.6-0.1,0.9c-0.4,0.8-0.7,1.5-1.3,2.2c-0.6,0.8-1.5,1.2-2.6,1.4
			C270-45.4,269-45.1,268.1-44.5z M267.8-46.5c1.6-0.1,2.8-0.5,3.9-1c0.7-0.3,1.2-0.9,1.5-1.5c0.3-0.7,0.1-1.1-0.5-1.7
			c-1.2-1-3.8-0.9-5.2,0.4c-0.1,0.1-0.2,0.3-0.2,0.4C267.5-48.8,267.7-47.7,267.8-46.5z"/>
		<path class="st5" d="M187.8-52c1.6-0.2,3.1-0.4,4.6-0.7c0.9-0.1,1.3,0.3,1.8,0.8c0.3,0.4,0,0.9-0.5,1c-1.1,0.1-2.2,0.2-3.3,0.4
			c-0.3,0-0.5,0.1-0.8,0.1c-0.4,1-0.2,1.9,0.1,2.8c1.5,0.4,2.7-0.4,4.1-0.5c0.5,0.5,1.4,0.7,0.9,1.7c-1.7,0.2-3.4,0.4-5.1,0.9
			c0,1.6,0,3.2,0,4.8c0.5,0,0.8,0.1,1.2,0c1-0.1,1.9-0.3,2.9-0.5c0.5-0.1,0.9,0,1.3,0.2c0.6,0.3,0.6,0.9,0,1.2
			c-0.1,0.1-0.3,0.2-0.5,0.2c-1.7,0.2-3.5,0.5-5.2,0.7c-0.1,0-0.2-0.1-0.4-0.1c-0.5-0.3-0.4-0.8-0.4-1.2c0-1.1,0-2.3-0.1-3.4
			c0-1.5-0.4-3-0.3-4.5c0-0.7-0.2-1.4-0.4-2.1C187.6-50.7,187.5-51.4,187.8-52z"/>
		<path class="st5" d="M233.9-40.8c0.2-0.3,0.3-0.4,0.4-0.5c0.5-1.9,1-3.8,1.5-5.7c0.4-1.4,0.6-2.9,1-4.3c0.1-0.5,0.3-1.1,1.2-1.3
			c0.7,0.5,0.9,1,0.7,1.6c-0.6,1.9-1.1,3.8-1.5,5.8c-0.4,1.8-1.1,3.6-1.6,5.5c-0.2,0.7-0.6,1.3-1.2,1.7c-0.6,0.4-1.4,0.2-1.7-0.5
			c0-0.1,0-0.1-0.1-0.2c-0.6-2.4-1.3-4.9-1.7-7.3c-0.2-1.4-0.4-2.8-1-4.2c-0.1-0.2-0.2-0.5-0.2-0.7c0-0.3,0.1-0.7,0.7-0.7
			c0.5,0,0.9,0.2,1.1,0.6c0.2,0.5,0.3,0.9,0.4,1.4c0.5,2.6,1,5.3,1.5,7.9C233.5-41.5,233.7-41.2,233.9-40.8z"/>
		<path class="st5" d="M252.9-39.9c0.9-0.1,1.7-0.2,2.7-0.3c0,0,0.2,0.1,0.3,0.2c0.9,0.5,0.6,1.4-0.5,1.6c-1.1,0.2-2.3,0.3-3.4,0.4
			c-0.6-0.5-0.7-1.1-0.7-1.7c0-1.1,0-2.2-0.1-3.3c-0.2-1.9-0.2-3.8-0.8-5.7c-0.3-1-0.4-1.9-0.5-2.9c0-0.1,0-0.3,0-0.4
			c0.1-0.3,0.2-0.6,0.6-0.6c0.3,0,0.6,0.3,0.6,0.7c0.2,1.2,0.4,2.3,0.6,3.5c0.2,1.3,0.3,2.6,0.5,4c0.1,1.2,0.2,2.4,0.4,3.5
			C252.7-40.7,252.8-40.4,252.9-39.9z"/>
	</g>
	<g class="st16">
		<path class="st5" d="M299.8-79.9c0.8,0.3,1.1,0.8,1,1.5c-0.1,1.3,0.1,2.7,0.2,4c0.2,2.4,0.3,4.8,0.4,7.1c0,0.7-0.2,1.5-0.3,2.2
			c0,0.2-0.2,0.4-0.3,0.5c-0.3,0.3-0.8,0.4-1.1,0.1c-0.2-0.3-0.4-0.6-0.6-0.9c-1.6-3.1-3.2-6.3-4.8-9.4c-0.1-0.2-0.2-0.3-0.4-0.6
			c-0.5,0.5-0.2,1.1-0.4,1.5c-0.2,0.4-0.2,0.9-0.3,1.3c-0.1,1-0.3,2.1-0.4,3.1c-0.1,0.8-0.2,1.7-0.4,2.5c-0.1,0.7-0.3,1.4-0.9,1.9
			c-0.6-0.2-0.7-0.6-0.6-1c0.4-1.9,0.5-3.7,0.7-5.6c0.1-0.8,0.2-1.7,0.3-2.5c0.2-1.3,0.3-2.6,0.4-3.9c0-0.3,0.2-0.5,0.4-0.8
			c1,0.2,1.5,0.7,1.8,1.4c0.8,1.6,1.5,3.1,2.3,4.7c0.8,1.6,1.6,3.1,2.4,4.6c0.1,0.1,0.2,0.2,0.3,0.3c0.4-0.2,0.3-0.4,0.3-0.7
			c-0.2-2.5-0.4-5-0.6-7.6c-0.1-1.1-0.1-2.2-0.1-3.3C299.2-79.5,299.4-79.8,299.8-79.9z"/>
		<path class="st5" d="M205.6-71.5c-1.5,0.2-2.6,0.6-3.9,1c-0.1,1.3-0.4,2.5-0.4,3.8c0,0.6-0.2,1.2-0.3,1.8c0,0.1-0.2,0.1-0.4,0.2
			c-0.1,0-0.2-0.1-0.2-0.1c-0.1-0.3-0.3-0.6-0.2-0.9c0.1-3.3,0.2-6.5,0.4-9.8c0.1-1.3,0.2-2.7,0.6-4c0.1-0.4,0.2-0.7,0.6-0.9
			c1.3,0.4,2.1,1.1,2.6,2.2c0.6,1.4,1.1,2.8,1.6,4.2c0.9,2.8,1.8,5.6,2.7,8.5c0.1,0.3,0.1,0.5,0.1,0.8c0,0.1-0.2,0.4-0.3,0.4
			c-0.1,0-0.4-0.1-0.5-0.2c-0.2-0.2-0.3-0.5-0.4-0.8c-0.5-1.6-1-3.1-1.4-4.7C205.9-70.6,205.8-71,205.6-71.5z M202.5-78.8
			c-0.7,2.3-1,5.4-0.6,6.8c0.5-0.2,1-0.4,1.6-0.5c0.5-0.1,1.1-0.2,1.5-0.6c-0.2-1-1.2-4.1-1.5-4.7C203.2-78.1,202.9-78.4,202.5-78.8
			z"/>
		<path class="st5" d="M191.7-72.8c-0.9,0.3-1.6,0.5-2.4,0.8c0,0.5,0,0.9,0,1.4c0.1,2,0.2,4,0.3,5.9c0,0.4-0.1,0.7-0.6,0.8
			c-0.4-0.2-0.6-0.5-0.6-0.8c0-0.6,0-1.2,0-1.8c-0.1-1.8-0.2-3.6-0.4-5.3c-0.2-1.9-0.6-3.7-0.8-5.6c0-0.2-0.1-0.5-0.1-0.7
			c-0.1-0.5,0.2-0.9,0.6-1.2c1.5-1.1,3.6-1.2,5.4-0.4c0.3,0.1,0.6,0.3,0.9,0.5c2,1.1,2.3,3.5,0.5,4.9c-0.4,0.3-0.8,0.6-1.3,0.9
			c0.2,0.3,0.3,0.7,0.4,1c1.2,1.9,2.4,3.8,3.6,5.7c0.3,0.4,0.5,0.8,0.8,1.2c0.1,0.2,0.3,0.4,0.4,0.7c0.1,0.3,0,0.7-0.3,0.8
			c-0.3,0.1-0.6,0-0.8-0.4c-0.7-1.1-1.3-2.1-2-3.2c-0.8-1.2-1.6-2.4-2.4-3.7C192.5-71.9,192.1-72.3,191.7-72.8z M189.2-73.6
			c1.2,0.2,2-0.4,2.8-0.9c0.7-0.4,1.4-0.9,2-1.5c0.5-0.4,0.3-1.5-0.2-1.9c-1.1-1-3.2-1.2-4.6-0.5c-0.3,0.2-0.6,0.4-0.6,0.7
			C188.6-76.3,188.8-74.9,189.2-73.6z"/>
		<path class="st5" d="M226-72.1c-1.7,0.1-3.2,0-4.7,0.7c-0.1,2.1-0.2,4.3-0.5,6.5c-0.4-0.1-0.7-0.1-0.8-0.2
			c-0.3-0.4-0.4-0.9-0.3-1.3c0.1-0.8,0.2-1.7,0.2-2.5c0-2.9,0-5.7,0.1-8.6c0-0.5,0.1-1,0.2-1.5c0.1-0.5,0.5-0.6,1.1-0.3
			c0.1,0.1,0.3,0.2,0.5,0.3c-0.1,1.9-0.2,3.8-0.3,5.9c1.5-0.2,2.9-0.3,4.4-0.5c0-2.1-0.8-4.2-0.6-6.3c0.9,0.2,1.2,0.3,1.2,0.8
			c0,1.4,0.3,2.7,0.5,4c0.3,2,0.6,4,0.9,6c0.2,1.3,0.4,2.6,0.8,3.9c0.1,0.2,0.1,0.5,0.1,0.7c0,0.3,0,0.6-0.3,0.7
			c-0.3,0.1-0.8-0.1-1-0.5c-0.1-0.3-0.2-0.6-0.3-0.9c-0.3-2.1-0.5-4.2-0.8-6.2C226.2-71.7,226.1-71.8,226-72.1z"/>
		<path class="st5" d="M211.8-72.5c0.2,1.1,0.3,2,0.4,3c0.1,0.9,0.2,1.8,0.3,2.7c0.1,0.9,0.3,1.9,0,2.7c-0.7,0.2-0.9-0.1-0.9-0.4
			c-0.1-0.8-0.3-1.5-0.4-2.3c-0.1-1.1-0.2-2.1-0.3-3.2c-0.1-0.4-0.2-0.9-0.3-1.3c-0.3-2.2-0.7-4.4-1-6.7c-0.2-1,0.2-1.4,1.4-1.7
			c1.9-0.5,3.7-0.3,5.5,0.4c1.9,0.7,2.9,3,1,4.6c-0.5,0.4-1.2,0.7-1.9,1C214.5-73.4,213.2-73,211.8-72.5z M211.7-74.1
			c1.2-0.1,3.8-0.9,4.5-1.3c0.3-0.2,0.6-0.5,0.9-0.8c0.4-0.5,0.3-0.9-0.1-1.4c-0.3-0.3-0.7-0.6-1.2-0.8c-1.2-0.3-2.4-0.4-3.7-0.1
			c-0.8,0.2-1,0.4-1,0.9C211.1-76.3,211.3-75.2,211.7-74.1z"/>
		<path class="st5" d="M183.5-75.8c-0.7-0.8-1.3-1.6-2-2.2c-0.9-0.9-1.9-0.9-2.7,0.1c-0.6,0.8-1.2,1.7-1.5,2.6
			c-0.6,1.7-0.9,3.6-0.8,5.4c0,1.4,0.6,2.6,1.7,3.6c0.5,0.5,1.1,0.8,1.9,0.8c0.5,0,1,0.1,1.4,0.1c2,0,3.2-1.1,3.2-2.9
			c-0.4-0.3-0.9-0.2-1.3-0.1c-0.5,0.1-0.9,0.1-1.5,0.2c-0.2-0.4-0.4-0.7-0.6-1.2c1.3-0.2,2.6-0.3,3.8-0.2c0.9,0.1,1.4,1,1.3,1.7
			c-0.1,0.4-0.2,0.9-0.4,1.3c-0.6,2.1-2.6,2.7-4.4,2.7c-0.5,0-1.1-0.1-1.6-0.1c-1.6-0.1-2.7-0.9-3.4-2c-0.8-1.3-1.3-2.6-1.2-4.1
			c0.1-2.1,0.3-4.1,1-6.1c0.4-1.2,1.3-2,2.1-2.9c0.2-0.2,0.6-0.4,0.9-0.4c0.5,0,1.2,0,1.5,0.2c1.4,0.8,2.6,1.8,2.8,3.3
			C183.7-76.1,183.6-76,183.5-75.8z"/>
		<path class="st5" d="M250.2-64.8c-0.1-0.6-0.3-0.9-0.3-1.2c-0.2-2.7-0.3-5.4-0.4-8c-0.1-1-0.3-2-0.5-3c-0.4-1.8,0.7-2.7,2.8-2.6
			c2.4,0.1,4,1.3,4.7,3c1,2.3,1.3,4.7,0.2,7c-0.8,1.7-2.1,3.2-4.3,3.9C251.8-65.5,251.1-65.2,250.2-64.8z M250.4-77.8
			c0.1,3,0.3,5.8,0.4,8.6c0,0.7,0.2,1.4,0.3,2.1c0,0,0,0.1,0.1,0.1c0,0,0.1,0,0.3,0.1c2.4-0.5,3.9-2,4.6-4c0.6-1.8,0.3-3.7-0.6-5.4
			c-0.6-1.1-1.6-1.7-3.1-1.8C251.7-78.1,251.1-77.9,250.4-77.8z"/>
		<path class="st5" d="M283.5-79.3c1.8,0.4,2.8,1.5,3.3,2.9c0.1,0.4,0,0.7-0.6,0.8c-0.3-0.4-0.6-0.9-1-1.3c-0.4-0.4-0.9-0.9-1.7-0.8
			c-0.9,0.1-1.2,0.7-1.4,1.3c-0.4,1.9-0.9,3.8-0.1,5.7c0.4,0.9,0.6,1.8,0.9,2.7c0.4,1,1.4,1.5,2.7,1.5c1,0,1.7-0.4,1.9-1.2
			c0.2-0.7,0.2-1.5,0-2.3c-0.7,0-1.4,0-2,0c-0.2-0.1-0.3-0.1-0.3-0.2c-0.1-0.3-0.2-0.7-0.3-1.1c1.1-0.3,2.2-0.3,3.3-0.6
			c1,0.5,1.4,1.1,1.2,2c-0.1,0.6-0.2,1.2-0.2,1.8c0,0.6-0.3,1.2-0.6,1.7c-0.7,1.1-1.9,1.5-3.3,1.3c-1.5-0.2-2.9-0.6-3.5-1.9
			c-0.3-0.7-0.9-1.4-0.9-2.3c0-0.2-0.1-0.4-0.2-0.6c-0.8-1.9-0.8-3.9-0.3-5.9c0.1-0.5,0.1-1,0.2-1.5C281.2-78.1,281.9-79,283.5-79.3
			z"/>
		<path class="st5" d="M259.2-64.5c-0.4-0.5-0.5-1-0.3-1.5c0.2-0.5,0.3-1.2,0.4-1.7c0.1-1.1,0-2.3,0.1-3.4c0.1-2.2-0.2-4.5-0.7-6.7
			c-0.1-0.4-0.1-0.9-0.1-1.4c0.4-0.1,0.7-0.1,1.1-0.1c1.5-0.1,3.1-0.1,4.8-0.2c0.4,0.2,0.9,0.4,1.1,0.9c-0.1,0.4-0.4,0.6-0.9,0.6
			c-0.9,0.1-1.9,0.1-2.8,0.2c-0.5,0-1,0.1-1.5,0.2c0,0.9,0,1.7,0,2.5c0,0.5,0.4,0.7,1,0.5c0.6-0.1,1.1-0.3,1.7-0.4
			c0.5-0.1,1,0,1.4,0.2c0.2,0.1,0.4,0.3,0.4,0.4c0,0.2-0.2,0.5-0.4,0.6c-0.5,0.2-1,0.3-1.5,0.4c-0.7,0.2-1.5,0.2-2.2,0.8
			c0.1,2-0.4,4.1-0.3,6.3c0.8,0,1.6-0.1,2.3-0.2c0.7-0.1,1.4-0.1,2.1-0.1c0.2,0,0.6,0.3,0.6,0.4c0.1,0.2-0.1,0.5-0.3,0.6
			c-0.3,0.2-0.7,0.4-1.1,0.4C262.5-65,260.9-64.8,259.2-64.5z"/>
		<path class="st5" d="M319.9-71c-0.8-0.1-1.5,0.1-1.9,0.6c-0.3,0.3-0.3,0.8-0.3,1.3c0,1.1,0.1,2.2,0.3,3.2c0.1,0.7-0.1,1.2-1,1.5
			c-0.9-0.6-0.9-1.3-0.9-2.1c-0.1-1.5-0.2-3.1-0.2-4.6c0-1.9-0.2-3.8-0.8-5.7c-0.1-0.5-0.1-1-0.1-1.4c1.4-1.3,3.1-1.8,4.9-2.3
			c3-0.9,6,0.5,6.1,3.7c0,1.4-0.5,2.6-1.8,3.6c-0.6,0.5-1.1,1-1.8,1.6c0.1,0.3,0.3,0.7,0.5,1.1c0.6,1,1.2,2.1,1.8,3.1
			c0.4,0.6,0.8,1.1,1.1,1.6c0.2,0.3,0.4,0.7,0.5,1.1c0.1,0.3-0.4,0.9-0.9,1c-0.5,0.1-0.9,0-1.1-0.4c-0.3-0.4-0.5-0.8-0.7-1.2
			c-1-1.7-2-3.4-3.1-5.1C320.3-70.6,320.1-70.8,319.9-71z M317.6-72.4c1.2-0.3,2.1-0.4,2.9-0.7c1.5-0.5,2.7-1.2,3.4-2.4
			c0.9-1.4-0.2-3.1-2.1-3.3c-1.7-0.2-3.2,0.4-4.5,1.2c-0.4,0.2-0.4,0.6-0.4,1c0.1,0.9,0.2,1.9,0.3,2.9
			C317.4-73.3,317.5-73,317.6-72.4z"/>
		<path class="st5" d="M306.6-71.8c-0.2,1.6-0.5,3.2,0.2,4.9c0.8,0,1.7,0.1,2.5,0.1c0.8,0,1.6-0.1,2.5-0.2c0.2,0.2,0.5,0.3,0.7,0.6
			c0.5,0.6,0.1,1.3-0.7,1.4c-0.6,0.1-1.2,0-1.8,0.1c-0.9,0.1-1.9,0.2-2.8,0.3c-0.8,0.1-1.4-0.1-2.1-0.5c-0.4-1.2-0.5-2.5-0.4-3.7
			c0.2-2.8,0.1-5.6-0.7-8.4c-0.1-0.2-0.1-0.4-0.1-0.5c-0.1-0.6,0.3-1.1,1-1.2c2-0.3,4-0.6,6-0.8c1.1-0.1,1.4,0.2,1.6,1.5
			c-0.5,0.4-1.2,0.4-1.8,0.5c-1.4,0.2-2.7,0.3-4.1,0.6c-0.6,0.1-0.9,0.4-0.8,0.9c0.1,0.7,0.3,1.3,0.5,2c1,0.3,2,0.2,3,0.1
			c0.5,0,1-0.1,1.5-0.2c0.5,0,1.1,0.4,1.3,0.9c0.1,0.2,0,0.4-0.1,0.5c-0.3,0.2-0.7,0.5-1,0.6c-1,0.2-2,0.2-3,0.4
			C307.6-72.1,307.1-71.9,306.6-71.8z"/>
		<path class="st5" d="M267.6-67.1c0.6,0.2,0.9,0.3,1.3,0.4c0.8,0.2,1.6,0.5,2.4,0.7c0.3,0.1,0.6,0.1,0.9,0.1
			c1.4-0.1,1.7-1.4,1.2-2.2c-0.6-0.9-1.2-1.8-2-2.5c-0.6-0.5-1.2-1-1.8-1.5c-0.7-0.6-1.2-1.3-1.7-2.1c-0.8-1.5-0.8-3-0.3-4.6
			c0.2-0.7,0.7-1.1,1.5-1.1c0.9-0.1,1.6,0.3,2.3,0.8c0.9,0.7,1,1.6,0.5,2.6c0,0.1-0.2,0.2-0.3,0.2c-0.1,0-0.2,0-0.3,0
			c-0.3-0.1-0.2-0.4-0.2-0.6c0-1-0.9-1.7-1.8-1.3c-0.3,0.1-0.5,0.5-0.6,0.8c-0.3,1.3,0.3,2.3,1.1,3.1c0.7,0.7,1.4,1.3,2.2,1.9
			c1.1,0.9,1.8,2.1,2.6,3.2c0.2,0.3,0.3,0.7,0.4,1c0.4,1.2,0.1,2.4-0.8,3.2c-0.8,0.8-1.8,1-3,0.6c-1.1-0.4-2.3-0.6-3.3-0.9
			C267.3-65.8,267.5-66.4,267.6-67.1z"/>
		<path class="st5" d="M240.9-77c-0.4-0.3-0.6-0.6-0.8-0.8c-1.6-1.2-3.9-0.6-4.4,1.1c-0.4,1.6-0.6,3.2-0.2,4.9
			c0.2,0.8,0.2,1.6,0.4,2.4c0.2,1.2,1,2.2,2.2,3c0.8,0.6,1.9,0.6,2.9,0.4c0.5-0.1,1.1-0.1,1.6-0.1c0.3,0,0.7,0.2,0.7,0.6
			c0,0.2-0.2,0.5-0.3,0.6c-0.1,0.1-0.4,0.3-0.6,0.3c-1.5,0.3-2.9,0.4-4.3-0.3c-1.7-0.9-2.9-2.1-3.2-3.8c-0.1-0.8-0.2-1.6-0.5-2.3
			c-0.6-2.1-0.5-4.2,0.1-6.3c0.5-1.8,2.2-2.7,4.2-2.3c0.8,0.2,1.5,0.3,2.1,0.8C241.3-78.3,241.5-77.8,240.9-77z"/>
		<path class="st5" d="M278.3-64.6c-0.5-0.2-0.8-0.3-0.9-0.4c-0.2-0.3-0.3-0.7-0.3-1c-0.1-1.7-0.5-3.4-0.6-5.2c-0.1-2-0.4-4-0.6-6
			c-0.1-0.6-0.1-1.2-0.1-1.8c0-0.4,0.4-0.6,0.6-0.6c0.4,0.1,0.6,0.3,0.7,0.6c0.1,1,0.1,2.1,0.4,3.1c0.5,2.3,0.4,4.6,0.4,6.9
			c0,0.8,0.2,1.6,0.2,2.4C278.2-65.9,278.2-65.4,278.3-64.6z"/>
		<path class="st5" d="M231.7-64c-0.5-1.1-0.8-2-0.8-2.9c0-1.3,0-2.6,0-3.9c-0.1-1.6-0.2-3.3-0.3-4.9c-0.1-1.3-0.2-2.6-0.2-3.9
			c0-0.1,0-0.3,0.1-0.4c0.1-0.1,0.4-0.2,0.6-0.3c0.1,0,0.3,0.1,0.4,0.3c0.1,0.1,0.1,0.3,0.1,0.4c0.1,1.8,0.2,3.6,0.4,5.4
			c0.2,1.5,0,3.1,0.1,4.6c0.1,1.3,0.2,2.7,0.3,4c0,0.3,0.1,0.6,0,0.9C232.3-64.4,232-64.3,231.7-64z"/>
		<polygon class="st5" points="199.6,-72 199.6,-72.1 199.7,-72 		"/>
	</g>
	<g class="st16">
		<path class="st5" d="M253.3-25.1c0.8-0.4,1.6-0.8,2.4-1.2c2.1-1,4.2-1,6.3-0.2c0.9,0.3,1.4,1,1.6,1.7c0.5,1.6-0.4,3.2-2.1,4.2
			c-0.5,0.3-1,0.5-1.5,0.7c-0.3,0.1-0.5,0.3-0.8,0.5c0.4,1.5,1.6,2.6,2.3,3.9c0.7,1.3,1.7,2.5,2.6,3.9c0,0.5-0.5,0.7-1,1
			c-0.2-0.1-0.4-0.1-0.5-0.2c-0.2-0.1-0.4-0.3-0.4-0.5c-0.2-1-1-1.8-1.5-2.6c-1-1.6-2.1-3.2-3.2-4.8c-0.3-0.4-0.7-0.5-1.2-0.4
			c-0.4,0.1-0.8,0.3-1.2,0.4c0,1.8,0,3.4,0,5.1c0,0.7-0.1,1.2-0.8,1.5c-0.6,0-0.8-0.3-0.8-0.8c0-0.3,0-0.6,0.1-1
			c0-0.6,0.2-1.3,0.1-1.9c-0.5-2.8-0.1-5.7-0.4-8.6C253.2-24.6,253.3-24.8,253.3-25.1z M254.9-20.8c1.8,0.1,3.3-0.1,4.5-0.5
			c1.1-0.4,2-0.9,2.8-1.7c0.5-0.5,0.4-1-0.1-1.4c-1.1-1-3.5-1.4-5-0.7c-0.7,0.3-1.3,0.7-1.9,1.1c-0.2,0.2-0.4,0.5-0.4,0.7
			C254.8-22.6,254.6-21.7,254.9-20.8z"/>
		<path class="st5" d="M211.8-24.6c-0.8,0.2-0.9,0.7-1,1.2c-0.3,0.8-0.5,1.7-0.7,2.5c-0.1,0.5-0.4,0.8-1.1,0.8
			c-1.4-1.1-2.3-2.7-3.8-4.2c-0.1,0.4-0.2,0.6-0.2,0.8c0,0.6-0.1,1.3-0.1,1.9c0,2-0.2,4-0.5,6c-0.1,0.6,0,1.2-0.1,1.8
			c0,0.3-0.1,0.6-0.3,0.9c-0.1,0.2-0.4,0.3-0.6,0.3c-0.2,0-0.4-0.3-0.4-0.5c0-0.7,0-1.4,0.1-2.1c0.6-3.5,0.7-7,0.7-10.5
			c0-0.5,0-1,0.8-1.2c0.9,0.3,1.5,0.9,2,1.6c0.6,0.8,1.2,1.5,1.9,2.3c0.1,0.1,0.3,0.2,0.5,0.3c0.4-0.4,0.5-0.9,0.6-1.3
			c0.2-0.9,0.7-1.6,1.2-2.4c0.1-0.3,0.5-0.5,0.7-0.7c0.4-0.3,1-0.2,1.1,0.2c0.5,1,1,2,1.2,3.1c0.6,2.6,1.1,5.3,1.6,8
			c0.2,0.8,0.4,1.7,0.6,2.5c0.1,0.4,0.2,0.8,0,1.3c-0.1,0.3-0.4,0.5-0.7,0.4c-0.2,0-0.5-0.2-0.6-0.4c-0.1-0.2-0.1-0.4-0.2-0.6
			c-0.6-3.3-1.1-6.6-2-9.9C212.3-23.2,212.1-23.9,211.8-24.6z"/>
		<path class="st5" d="M193.6-15.3c0.5-0.8,0.4-1.5,0.4-2.2c-0.2-2-0.4-4.1-0.6-6.1c-0.1-1.2,0-2.4,0-3.6c0.7-0.2,0.9-0.2,1,0.3
			c0.1,1,0.2,1.9,0.3,2.9c0.2,2.2,0.4,4.4,0.6,6.6c0.2,1.5,0.1,2.9-0.1,4.4c0,0.2-0.1,0.4-0.2,0.6c-0.3,0.6-1.2,0.6-1.6,0.1
			c-0.5-0.6-0.9-1.2-1.2-1.8c-0.7-1.2-1.3-2.5-2-3.7c-0.8-1.3-1.6-2.6-2.4-3.9c-0.1-0.2-0.4-0.4-0.6-0.6c-0.5,0.5-0.4,0.9-0.3,1.3
			c0.1,2.7,0.3,5.4,0.4,8.1c0,0.2,0,0.3,0,0.5c0,0.4-0.2,0.6-0.6,0.7c-0.3,0.1-0.7-0.3-0.7-0.6c0-0.3,0-0.5,0-0.8
			c0-3.3-0.1-6.7-0.1-10c0-0.7,0-1.4,0-2.1c0-0.2,0.3-0.4,0.4-0.5c0.3,0,0.7,0.1,0.8,0.2c0.8,1.2,1.6,2.3,2.4,3.5
			c1.2,1.9,2.2,3.9,3.4,5.8C193-15.9,193.3-15.7,193.6-15.3z"/>
		<path class="st5" d="M250.9-18.9c0.1,1.3-0.3,2.6-0.9,3.9c-0.3,0.6-0.8,1.2-1.2,1.8c-1,1.1-2.3,1.4-3.9,1.2
			c-0.3,0-0.5-0.2-0.7-0.2c-2.7-0.1-3.8-1.6-4.4-3.5c-0.8-2.5-0.3-5,0.8-7.4c0.3-0.7,0.7-1.4,1.1-2.1c0.2-0.3,0.4-0.7,0.7-1
			c1.1-1.1,1.6-1.2,3.2-0.5c1.2,0.6,2.5,1,3.5,2C250.7-23,251.3-21.2,250.9-18.9z M243.4-25.5c-0.4,0.6-0.7,1.3-1.1,1.9
			c-0.9,1.3-1.2,2.7-1.4,4.2c-0.1,1,0,2.1,0.3,3c0.3,1,1,1.9,2.2,2.3c1.1,0.4,2.3,0.4,3.4,0.2c0.6-0.1,1.1-0.5,1.5-1
			c0.8-1.1,1.2-2.4,1.5-3.7c0.2-0.9,0.2-1.9,0-2.7c-0.3-1.4-1.4-2.5-2.7-3.2C246.1-25,245-25.7,243.4-25.5z"/>
		<path class="st5" d="M224.2-16.9c-1.3,0-2.3,0-3.5,0c-0.5,1-0.7,2.2-1.1,3.3c-0.1,0.4-0.2,0.7-0.4,1.1c-0.1,0.1-0.4,0.2-0.7,0.2
			c-0.1,0-0.3-0.2-0.3-0.4c0-0.3,0-0.5,0.1-0.8c0.9-3.1,1.8-6.2,2.6-9.3c0.3-1.1,0.3-2.2,0.4-3.4c0-0.2,0.1-0.4,0.2-0.6
			c0.1-0.3,0.7-0.4,1-0.1c0.3,0.4,0.6,0.7,0.7,1.1c0.5,2.7,1.7,5.2,2.4,7.8c0.2,0.7,0.3,1.4,0.5,2c0.2,0.7,0.5,1.4,0.9,2.1
			c0.3,0.5,0.3,1,0.1,1.6c-0.1,0.3-0.8,0.4-1,0.2c-0.3-0.4-0.6-0.7-0.7-1.1c-0.2-0.6-0.3-1.2-0.5-1.7
			C224.8-15.5,224.5-16.2,224.2-16.9z M223.8-18.5c-0.5-1.4-0.9-2.6-1.3-3.8c0-0.1-0.2-0.1-0.4-0.2c-0.1,0.2-0.3,0.4-0.3,0.5
			c-0.2,1-0.4,1.9-0.7,2.9c-0.1,0.3-0.2,0.5,0.1,0.8C222-18.4,222.8-18.4,223.8-18.5z"/>
		<path class="st5" d="M233.8-23.2c-0.2,1.4-0.5,2.6-0.3,3.8c0.2,1.5,0.2,3,0.3,4.5c0,0.7,0.2,1.4,0.3,2.1c0.1,0.5,0.1,0.9-0.3,1.3
			c-0.2,0.2-0.5,0.3-0.8,0.3c-0.2,0-0.6-0.2-0.6-0.4c-0.2-0.4-0.2-0.9-0.3-1.4c-0.1-1.7-0.1-3.5-0.1-5.2c0-1.4,0-2.8-0.1-4.2
			c0-0.6-0.4-0.8-1.3-0.8c-1.3,0.1-2.6,0.1-3.9,0.2c-0.9,0-1.3-0.5-0.8-1.1c0.3-0.3,0.7-0.6,1.1-0.6c3.7-0.2,7.4-0.4,11-0.6
			c0.2,0,0.6,0,0.7,0c0.3,0.2,0.7,0.4,0.7,0.6c0.1,0.2-0.2,0.6-0.4,0.7c-0.4,0.2-0.9,0.2-1.4,0.3C236.4-23.5,235.2-23.4,233.8-23.2z
			"/>
		<path class="st5" d="M198.5-12.3c-0.4-0.5-0.4-1.1-0.5-1.7c-0.2-2.8-0.5-5.6-0.7-8.4c0-0.6,0-1.2,0.1-1.8c0.1-0.6,0.2-1.2,0-1.8
			c0-0.1,0-0.3,0.1-0.5c0.1-0.2,0.4-0.3,0.6-0.3c0.2,0,0.4,0.2,0.5,0.4c0.1,0.2,0.1,0.4,0.1,0.6c0,0.4,0,0.8,0,1.1
			c0,2.9,0.3,5.8,0.7,8.7c0.1,0.9,0.2,1.7,0.3,2.6C199.6-12.8,199.4-12.6,198.5-12.3z"/>
		<path class="st5" d="M181.6-18.3c-1.4-0.4-2.6,0.1-4,0.3c-0.3,1.1-0.3,2.2-0.5,3.2c-0.1,0.6-0.1,1.2-0.1,1.8
			c0,0.6-0.2,1.1-0.6,1.5c-0.2,0-0.4,0-0.5-0.1c-0.2-0.2-0.5-0.5-0.6-0.8c-0.1-0.2,0-0.4,0.1-0.6c0.6-2.2,0.7-4.4,0.9-6.6
			c0.2-2.1,0.5-4.2,0.8-6.3c0.1-0.4,0.3-0.8,0.5-1.2c0.2-0.4,0.9-0.6,1.3-0.2c0.8,0.8,1.6,1.7,2,2.7c0.6,1.6,1.2,3.2,1.8,4.8
			c0.5,1.2,0.9,2.5,1.4,3.7c0.3,0.8,0.6,1.5,0.3,2.4c-0.1,0.2-0.3,0.4-0.5,0.4c-0.2,0-0.5-0.2-0.6-0.3c-0.3-0.7-0.5-1.4-0.8-2.2
			C182.3-16.6,181.9-17.4,181.6-18.3z M177.9-19.8c1.2,0,2.1-0.1,3-0.3c-0.1-1.4-0.6-2.9-1.4-4c-0.2-0.3-0.5-0.5-0.9-0.9
			c-0.2,0.4-0.4,0.6-0.4,0.8C178-22.8,177.7-21.4,177.9-19.8z"/>
	</g>
	<g class="st16">
		<path class="st5" d="M182-93.3c0.9-0.1,1.7-0.2,2.7-0.3c0,0,0.2,0.1,0.3,0.2c0.9,0.5,0.6,1.4-0.5,1.6c-1.1,0.2-2.3,0.3-3.4,0.4
			c-0.6-0.5-0.7-1.1-0.7-1.7c0-1.1,0-2.2-0.1-3.3c-0.2-1.9-0.2-3.8-0.8-5.7c-0.3-1-0.4-1.9-0.5-2.9c0-0.1,0-0.3,0-0.4
			c0.1-0.3,0.2-0.6,0.6-0.6c0.3,0,0.6,0.3,0.6,0.7c0.2,1.2,0.4,2.3,0.6,3.5c0.2,1.3,0.3,2.6,0.5,4c0.1,1.2,0.2,2.4,0.4,3.5
			C181.8-94.1,181.9-93.8,182-93.3z"/>
		<path class="st5" d="M189.4-93.3c0.9-0.1,1.7-0.2,2.7-0.3c0,0,0.2,0.1,0.3,0.2c0.9,0.5,0.6,1.4-0.5,1.6c-1.1,0.2-2.3,0.3-3.4,0.4
			c-0.6-0.5-0.7-1.1-0.7-1.7c0-1.1,0-2.2-0.1-3.3c-0.2-1.9-0.2-3.8-0.8-5.7c-0.3-1-0.4-1.9-0.5-2.9c0-0.1,0-0.3,0-0.4
			c0.1-0.3,0.2-0.6,0.6-0.6c0.3,0,0.6,0.3,0.6,0.7c0.2,1.2,0.4,2.3,0.6,3.5c0.2,1.3,0.3,2.6,0.5,4c0.1,1.2,0.2,2.4,0.4,3.5
			C189.1-94.1,189.3-93.8,189.4-93.3z"/>
		<path class="st5" d="M206.4-94.2c0.5,0.2,0.9,0.3,1.2,0.4c0.7,0.2,1.5,0.5,2.2,0.7c0.3,0.1,0.6,0.1,0.8,0.1
			c1.3-0.1,1.6-1.3,1.1-2.1c-0.5-0.9-1.1-1.7-1.9-2.4c-0.6-0.5-1.1-1-1.7-1.4c-0.7-0.5-1.1-1.2-1.6-2c-0.8-1.4-0.7-2.8-0.3-4.3
			c0.2-0.7,0.7-1,1.4-1c0.8,0,1.5,0.3,2.1,0.8c0.8,0.7,0.9,1.4,0.4,2.4c0,0.1-0.2,0.1-0.3,0.2c-0.1,0-0.2,0-0.3,0
			c-0.3-0.1-0.2-0.3-0.2-0.6c0-0.9-0.8-1.6-1.7-1.2c-0.3,0.1-0.5,0.5-0.5,0.8c-0.2,1.2,0.2,2.1,1,2.9c0.6,0.6,1.3,1.2,2,1.8
			c1,0.8,1.7,1.9,2.4,3c0.2,0.3,0.3,0.6,0.4,0.9c0.3,1.1,0,2.2-0.7,3c-0.7,0.7-1.7,0.9-2.8,0.6c-1-0.4-2.1-0.6-3.1-0.9
			C206.1-93,206.3-93.5,206.4-94.2z"/>
		<path class="st5" d="M176.6-91.2c-0.5-1-0.8-1.8-0.8-2.7c0-1.2,0-2.4,0-3.6c-0.1-1.5-0.2-3.1-0.3-4.6c-0.1-1.2-0.2-2.4-0.2-3.6
			c0-0.1,0-0.3,0.1-0.4c0.1-0.1,0.3-0.2,0.5-0.2c0.1,0,0.3,0.1,0.4,0.2c0.1,0.1,0.1,0.3,0.1,0.4c0.1,1.7,0.2,3.3,0.4,5
			c0.2,1.4,0,2.9,0.1,4.3c0.1,1.2,0.2,2.5,0.3,3.7c0,0.3,0.1,0.6,0,0.8C177.2-91.7,177-91.5,176.6-91.2z"/>
		<polygon class="st5" points="197.9,-98.8 198,-98.8 198,-98.8 		"/>
		<path class="st5" d="M227.7-105.1c0.8-0.4,1.6-0.8,2.4-1.2c2.1-1,4.2-1,6.3-0.2c0.9,0.3,1.4,1,1.6,1.7c0.5,1.6-0.4,3.2-2.1,4.2
			c-0.5,0.3-1,0.5-1.5,0.7c-0.3,0.1-0.5,0.3-0.8,0.5c0.4,1.5,1.6,2.6,2.3,3.9c0.7,1.3,1.7,2.5,2.6,3.9c0,0.5-0.5,0.7-1,1
			c-0.2-0.1-0.4-0.1-0.5-0.2c-0.2-0.1-0.4-0.3-0.4-0.5c-0.2-1-1-1.8-1.5-2.6c-1-1.6-2.1-3.2-3.2-4.8c-0.3-0.4-0.7-0.5-1.2-0.4
			c-0.4,0.1-0.8,0.3-1.2,0.4c0,1.8,0,3.4,0,5.1c0,0.7-0.1,1.2-0.8,1.5c-0.6,0-0.8-0.3-0.8-0.8c0-0.3,0-0.6,0.1-1
			c0-0.6,0.2-1.3,0.1-1.9c-0.5-2.8-0.1-5.7-0.4-8.6C227.6-104.5,227.6-104.7,227.7-105.1z M229.3-100.7c1.8,0.1,3.3-0.1,4.5-0.5
			c1.1-0.4,2-0.9,2.8-1.7c0.5-0.5,0.4-1-0.1-1.4c-1.1-1-3.5-1.4-5-0.7c-0.7,0.3-1.3,0.7-1.9,1.1c-0.2,0.2-0.4,0.5-0.4,0.7
			C229.1-102.5,229-101.7,229.3-100.7z"/>
		<path class="st5" d="M276.1-105.1c0.8-0.4,1.6-0.8,2.4-1.2c2.1-1,4.2-1,6.3-0.2c0.9,0.3,1.4,1,1.6,1.7c0.5,1.6-0.4,3.2-2.1,4.2
			c-0.5,0.3-1,0.5-1.5,0.7c-0.3,0.1-0.5,0.3-0.8,0.5c0.4,1.5,1.6,2.6,2.3,3.9c0.7,1.3,1.7,2.5,2.6,3.9c0,0.5-0.5,0.7-1,1
			c-0.2-0.1-0.4-0.1-0.5-0.2c-0.2-0.1-0.4-0.3-0.4-0.5c-0.2-1-1-1.8-1.5-2.6c-1-1.6-2.1-3.2-3.2-4.8c-0.3-0.4-0.7-0.5-1.2-0.4
			c-0.4,0.1-0.8,0.3-1.2,0.4c0,1.8,0,3.4,0,5.1c0,0.7-0.1,1.2-0.8,1.5c-0.6,0-0.8-0.3-0.8-0.8c0-0.3,0-0.6,0.1-1
			c0-0.6,0.2-1.3,0.1-1.9c-0.5-2.8-0.1-5.7-0.4-8.6C276-104.5,276.1-104.7,276.1-105.1z M277.7-100.7c1.8,0.1,3.3-0.1,4.5-0.5
			c1.1-0.4,2-0.9,2.8-1.7c0.5-0.5,0.4-1-0.1-1.4c-1.1-1-3.5-1.4-5-0.7c-0.7,0.3-1.3,0.7-1.9,1.1c-0.2,0.2-0.4,0.5-0.4,0.7
			C277.5-102.5,277.4-101.7,277.7-100.7z"/>
		<path class="st5" d="M273.3-98.2c0.1,1.3-0.3,2.6-0.9,3.9c-0.3,0.6-0.8,1.2-1.2,1.8c-1,1.1-2.3,1.4-3.9,1.2
			c-0.3,0-0.5-0.2-0.7-0.2c-2.7-0.1-3.8-1.6-4.4-3.5c-0.8-2.5-0.3-5,0.8-7.4c0.3-0.7,0.7-1.4,1.1-2.1c0.2-0.3,0.4-0.7,0.7-1
			c1.1-1.1,1.6-1.2,3.2-0.5c1.2,0.6,2.5,1,3.5,2C273-102.3,273.6-100.5,273.3-98.2z M265.7-104.8c-0.4,0.6-0.7,1.3-1.1,1.9
			c-0.9,1.3-1.2,2.7-1.4,4.2c-0.1,1,0,2.1,0.3,3c0.3,1,1,1.9,2.2,2.3c1.1,0.4,2.3,0.4,3.4,0.2c0.6-0.1,1.1-0.5,1.5-1
			c0.8-1.1,1.2-2.4,1.5-3.7c0.2-0.9,0.2-1.9,0-2.7c-0.3-1.4-1.4-2.5-2.7-3.2C268.4-104.3,267.3-105,265.7-104.8z"/>
		<path class="st5" d="M220.3-103.8c-0.2,1.4-0.5,2.6-0.3,3.8c0.2,1.5,0.2,3,0.3,4.5c0,0.7,0.2,1.4,0.3,2.1c0.1,0.5,0.1,0.9-0.3,1.3
			c-0.2,0.2-0.5,0.3-0.8,0.3c-0.2,0-0.6-0.2-0.6-0.4c-0.2-0.4-0.2-0.9-0.3-1.4c-0.1-1.7-0.1-3.5-0.1-5.2c0-1.4,0-2.8-0.1-4.2
			c0-0.6-0.4-0.8-1.3-0.8c-1.3,0.1-2.6,0.1-3.9,0.2c-0.9,0-1.3-0.5-0.8-1.1c0.3-0.3,0.7-0.6,1.1-0.6c3.7-0.2,7.4-0.4,11-0.6
			c0.2,0,0.6,0,0.7,0c0.3,0.2,0.7,0.4,0.7,0.6c0.1,0.2-0.2,0.6-0.4,0.7c-0.4,0.2-0.9,0.2-1.4,0.3C222.9-104,221.7-103.9,220.3-103.8
			z"/>
		<path class="st5" d="M255.9-103.8c-0.2,1.4-0.5,2.6-0.3,3.8c0.2,1.5,0.2,3,0.3,4.5c0,0.7,0.2,1.4,0.3,2.1c0.1,0.5,0.1,0.9-0.3,1.3
			c-0.2,0.2-0.5,0.3-0.8,0.3c-0.2,0-0.6-0.2-0.6-0.4c-0.2-0.4-0.2-0.9-0.3-1.4c-0.1-1.7-0.1-3.5-0.1-5.2c0-1.4,0-2.8-0.1-4.2
			c0-0.6-0.4-0.8-1.3-0.8c-1.3,0.1-2.6,0.1-3.9,0.2c-0.9,0-1.3-0.5-0.8-1.1c0.3-0.3,0.7-0.6,1.1-0.6c3.7-0.2,7.4-0.4,11-0.6
			c0.2,0,0.6,0,0.7,0c0.3,0.2,0.7,0.4,0.7,0.6c0.1,0.2-0.2,0.6-0.4,0.7c-0.4,0.2-0.9,0.2-1.4,0.3C258.5-104,257.3-103.9,255.9-103.8
			z"/>
		<path class="st5" d="M246.2-97.6c-1.4-0.4-2.6,0.1-4,0.3c-0.3,1.1-0.3,2.2-0.5,3.2c-0.1,0.6-0.1,1.2-0.1,1.8
			c0,0.6-0.2,1.1-0.6,1.5c-0.2,0-0.4,0-0.5-0.1c-0.2-0.2-0.5-0.5-0.6-0.8c-0.1-0.2,0-0.4,0.1-0.6c0.6-2.2,0.7-4.4,0.9-6.6
			c0.2-2.1,0.5-4.2,0.8-6.3c0.1-0.4,0.3-0.8,0.5-1.2c0.2-0.4,0.9-0.6,1.3-0.2c0.8,0.8,1.6,1.7,2,2.7c0.6,1.6,1.2,3.2,1.8,4.8
			c0.5,1.2,0.9,2.5,1.4,3.7c0.3,0.8,0.6,1.5,0.3,2.4c-0.1,0.2-0.3,0.4-0.5,0.4c-0.2,0-0.5-0.2-0.6-0.3c-0.3-0.7-0.5-1.4-0.8-2.2
			C246.9-95.9,246.6-96.7,246.2-97.6z M242.5-99.1c1.2,0,2.1-0.1,3-0.3c-0.1-1.4-0.6-2.9-1.4-4c-0.2-0.3-0.5-0.5-0.9-0.9
			c-0.2,0.4-0.4,0.6-0.4,0.8C242.6-102.1,242.3-100.7,242.5-99.1z"/>
		<g>
			<path class="st5" d="M196.7-96.1c-0.1-1.4,0.1-2.8-0.1-4.3c-0.2-1.7-0.3-3.3-0.4-5c0-0.1,0-0.3-0.1-0.4c-0.1-0.1-0.3-0.3-0.4-0.2
				c-0.2,0-0.4,0.1-0.5,0.2c-0.1,0.1-0.1,0.3-0.1,0.4c0.1,1.2,0.2,2.4,0.2,3.6c0.1,1.5,0.2,3.1,0.3,4.6c0,0.8,0,1.7,0,2.5
				c0.4,0.2,0.6,0.7,0.5,1c0.3,0.3,0.6,0.6,0.9,0.9C196.8-93.8,196.7-95,196.7-96.1z"/>
			<path class="st5" d="M203.1-94.4c0-0.5,0-1.1,0-1.6c0-1.4,0.3-2.8,0.2-4.3c-0.1-1.7,0-3.4-0.1-5c0-0.1,0-0.3-0.1-0.4
				c-0.1-0.1-0.2-0.3-0.3-0.3c-0.2,0-0.4,0.1-0.5,0.2c-0.1,0.1-0.1,0.2-0.1,0.4c0,1.2,0,2.4,0,3.6c0,1.5,0,3.1-0.1,4.6
				c0,1.2-0.2,2.4-0.3,3.6c0,0.4,0,0.8,0.1,1.2c0.2-0.2,0.5-0.4,0.8-0.5c0-0.1,0-0.2,0.1-0.3c0-0.2,0.2-0.3,0.3-0.4
				C202.9-93.9,202.9-94.2,203.1-94.4z"/>
			<path class="st5" d="M195.4-94.6c0.6,3.2,7.3,4.1,7.6,1.7s0.2-2.4,0.2-2.4l-1.3-0.4c-0.7,3-1.6,2.6-3,2.4
				c-1.4-0.2-2.2-0.5-2.2-2.7c0-2.2,0-2.2,0-2.2l-1.3-0.2C195.5-95.4,195.4-94.6,195.4-94.6z"/>
		</g>
	</g>
</g>
<path class="st4" d="M60.7,212.6c0,14.2-5.5,29.2-9.4,25.8c-1.5-1.3-9.4-11.5-9.4-25.8c0-14.2,4.2-25.8,9.4-25.8
	S60.7,198.3,60.7,212.6z"/>
<polygon class="st4" points="48.1,187.5 18,221 50.6,237.1 "/>
<path class="st11" d="M35.1,229.4c0.8-2.7,1.3-5.8,1.3-9.1c0-6.3-1.6-11.8-4.1-15.1L18,221L35.1,229.4z"/>
<ellipse class="st9" cx="49.9" cy="262" rx="3.8" ry="9.3"/>
<ellipse class="st4" cx="299.8" cy="212.6" rx="9.4" ry="25.8"/>
<ellipse class="st4" cx="299.8" cy="311.8" rx="9.4" ry="25"/>
<ellipse class="st11" cx="299.8" cy="213.8" rx="3.8" ry="9.3"/>
<ellipse cx="299.8" cy="311.8" rx="3.8" ry="9.3"/>
<polygon class="st5" points="116.9,266 112.3,263.3 114.9,249.7 116.9,240.5 "/>
<path class="st17" d="M172.5,305.4c4.9,4.2,8.1,14,7.2,21.8l-2.6,22c-0.9,7.8-5.7,10.7-10.6,6.5l-29.7-25.6
	c-4.9-4.2-8.1-14-7.2-21.8l2.6-22c0.9-7.8,5.7-10.7,10.6-6.5L172.5,305.4z"/>
<path class="st13" d="M150.7,309.8c-0.3,0-0.6,0-0.9,0c-2.1,0-3.6,1-4.8,2.6c-1.4,1.9-1.5,4.1-1,6.3c0.3,1.3,1.1,2.3,2.5,2.6
	c1.3,0.3,2.6,0.6,3.9,0.6c3.8-0.1,4.8-1.5,5.8-4.7c0.4-1.3,0.5-2.9-0.2-4.1C154.9,311.1,153.4,309.4,150.7,309.8z"/>
<path class="st12" d="M147.8,240.6c0.2-0.1,0.3-0.3,0.5-0.3c1.1-0.2,2.2-0.3,3.7,0.2c-1.1,0.8-1.8,1.4-2.5,1.9
	c-0.6-0.2-1.2-0.5-1.8-0.7C147.5,241.5,147.5,240.8,147.8,240.6z"/>
<path class="st12" d="M155.3,249.1c-0.1,0-0.1,0-0.2,0.1c-1,0.5-2,1-3.2,1.6c-1.1-0.8-2.3-1.6-3.4-2.5c-0.4-0.3-0.8-0.8-1.1-1.3
	c-0.2-0.3-0.3-0.6-0.4-1c-0.1-0.6,0.2-1.1,0.6-1.5c0.4-0.3,1.1-0.3,1.6,0c0.4,0.3,0.8,0.6,1.1,1c0.3,0.3,0.5,0.6,0.6,0.8
	c2,0.4,3-1,4.5-1.4c0.3,0.8,0.6,1.6,0.8,2.4C156.4,248.2,156.1,248.7,155.3,249.1z"/>
<path class="st12" d="M192.1,326.2c-1.1,1-2.1,2.1-3.2,3.1c-0.6,1.4-1.3,2.7-2.2,3.9c-0.3,0.4-0.7,0.4-1.1,0.2c0,0-0.1,0.1-0.1,0.1
	c0,0,0-0.1,0-0.1c-0.4-0.3-0.6-0.8-0.2-1.3c0.8-1,1.4-2.2,1.9-3.4c-0.2-0.2-0.4-0.4-0.6-0.6c-0.1,0.1-0.2,0.2-0.3,0.2
	c-1.7,0.3-2.9,1.4-4.1,2.5c-0.5,0.5-0.5,0.5-1.5,0.3c0-0.8,0.4-1.3,1-1.7c0.7-0.5,1.5-1,2.3-1.5c0.6-0.4,1.2-0.7,1.9-1.1
	c-0.2-0.5-0.3-1-0.4-1.4c-1.4,0.2-2.8,0.3-4.3,0.3c-0.6,0-0.9-0.5-0.9-0.9c0,0,0,0,0-0.1c0-0.4,0.2-0.8,0.7-0.8c0.3,0,0.6,0,1,0
	c0.2-0.1,0.5-0.1,0.7-0.2c2.2-0.5,2.9-1.9,1.9-3.8c-0.4-0.7-0.5-1.4-0.6-2.2c0-0.3,0.1-0.5,0.1-0.7c0.5-0.2,0.8,0.1,1,0.3
	c0.3,0.4,0.7,0.9,1,1.4c0.8,1.3,1.8,2.5,3.3,3.2c1.2,0.6,2,1.7,2.8,2.8C192.4,325.3,192.5,325.8,192.1,326.2z"/>
<path class="st9" d="M204.3,314.4c-5.4,4.4-13.1,6.2-13.1,6.2c1.8,3.7,2.6,4.7,2.6,4.7c11.2-4.5,16.4-8.4,16.4-8.4L204.3,314.4z"/>
<path class="st18" d="M44.3,118.1c12.1-6.4,27.7-1.7,27.7-1.7c13.9-4,28.3,0,30,1.2c26-2.9,28.3,5.2,26,6.9
	c-3.5,4-11.5,8.1-18.5,9.8c-20.8,3.5-37-3.5-37-3.5c-13.3,4.6-19.1,0-22.5,1.2c-18.5,0-26,0-27.7,0c-9.2-5.8-2.3-10.4,2.9-11.5
	S44.3,118.1,44.3,118.1z"/>
<path class="st18" d="M273,133.7c5.7-6.7,23.6-1.9,23.6-1.9c16.3-5.6,23.8,7.3,23.8,7.3c16.4-0.4,15.3,8.2,11.4,10.9
	c-7.1,4.8-17.7-1.6-21.6,1.8c-9.7,7.4-28.8,2-28.8,2c-6.5,3.4-23.1-5.4-23.1-5.4c-11.7,4.9-12.6-5-12.6-5c3-11.5,14.3-6.2,14.3-6.2
	C266.4,130.6,273,133.7,273,133.7z"/>
<path class="st18" d="M32.4,370c19.8-3.6,28.6,3.4,31.8,2.7c10.6,0.7,26.6,7.2,18.4,10.6c-8.2,3.4-20.8,5-27.9,6
	c-21.1,3-39.7-3.7-39.7-3.7c-13,2.1-15.3-3-11.6-5.7c4.2-2.7,12.3-4.1,14.1-5.4C22.2,369.8,32.4,370,32.4,370z"/>
</svg>
