<?xml version="1.0" encoding="utf-8"?>
<!-- Generator: Adobe Illustrator 21.0.0, SVG Export Plug-In . SVG Version: 6.00 Build 0)  -->
<svg version="1.1" id="Layer_1" xmlns="http://www.w3.org/2000/svg" xmlns:xlink="http://www.w3.org/1999/xlink" x="0px" y="0px"
	 viewBox="0 0 342 316.8" style="enable-background:new 0 0 342 316.8;" xml:space="preserve">
<style type="text/css">
	.st0{fill:#D98427;}
	.st1{fill-rule:evenodd;clip-rule:evenodd;fill:#FFFFFF;}
	.st2{fill:#C1958F;}
	.st3{opacity:0.89;}
	.st4{fill:#FFFFFF;}
	.st5{fill:#EDC24D;}
	.st6{fill:#CCA544;}
	.st7{clip-path:url(#SVGID_2_);}
	.st8{fill:#B4917B;}
	.st9{fill:#DDEADD;}
	.st10{fill:#6F6F6F;}
	.st11{clip-path:url(#SVGID_4_);}
	.st12{fill:none;stroke:#B0C9AF;stroke-miterlimit:10;}
	.st13{fill:#6A8542;}
	.st14{fill:#FFFFFF;stroke:#000000;stroke-miterlimit:10;}
	.st15{fill:#F0D1B5;}
	.st16{fill:#3FBDBB;}
	.st17{fill:#DDEADD;stroke:#000000;stroke-miterlimit:10;}
	.st18{opacity:0.73;fill:#FFFFFF;}
</style>
<path d="M106-240c0.1,0.2,0.2,0.3,0.3,0.5c-0.2,0.1-0.5,0.3-0.7,0.4c0-0.2-0.1-0.5-0.1-0.6C105.5-239.9,105.8-239.9,106-240z"/>
<g>
	<polygon class="st0" points="120.3,-272.7 4.5,-272.7 3.5,-188.7 2.3,-188.7 2.3,-272.7 -4.6,-272.7 -4.6,-181.6 122,-182.5 	"/>
	<path class="st1" d="M33.5-204.6c-1.5-2.3-3.1-4.7-4.7-7.1c-0.8,0.6-1.5,1.4-2.3,1.9c-1.3,0.8-2.7,1.9-4.1,2.3
		c-4.2,1.2-8.1-2.1-9.5-8c-2.2-9.6-1.2-18.7,3-27.1c2.3-4.5,6-6.3,9.8-7.7c0.8-0.3,1.8,0.3,2.6,1.5c5,7.3,5.2,15.9,4.9,24.8
		c-0.1,1.8-0.5,3.8-1.1,5.5c-0.7,2-0.5,3.6,0.5,5.3c1.5,2.5,1.4,5.5,1.5,8.3C33.9-204.8,33.7-204.7,33.5-204.6z M25-244.6
		c-3.9,0.6-6.7,2.8-8.2,7.2c-0.5,1.4-0.5,2.9-0.9,4.3c-1.6,4.9-1.1,9.9-0.5,15c0.3,2.4,1.1,4.4,3.1,5c2.7,0.9,5.4,0.8,7.8-1.7
		c-1-2.3-2.2-4.6-0.6-7.5c1.4,1.3,2.7,2.5,3.9,3.6c2.3-4.3,1.3-8.7,1-13c-0.1-2.5-0.8-4.8-2.1-6.8C27.1-240.3,26.2-242.3,25-244.6z"
		/>
	<path class="st1" d="M91.2-251.3c1.4,7.2,1.1,14.3,2.1,21.9c5.6-6.2,10.1-13,15.4-18.9c0.5,6.1,0.1,7-6.7,15.3
		c1.7,9.4,5.6,18.5,3.4,28.9c-1.1-0.7-1.7-2-2.1-3.6c-1.5-6-3.1-11.9-4.6-17.8c-0.2-0.8-0.5-1.5-0.7-2.3c-0.3,0.1-0.5,0.2-0.7,0.3
		c-4.3,2.6-4.3,7.6-4.1,12.5c0.1,3.8,0,7.6-1.2,11.3c-1.6-0.7-1.5-2.3-1.5-3.6c-0.2-4.3-0.4-8.7-0.6-13c-0.3-8.6-0.6-17.1-0.9-25.7
		C88.9-248,88.8-249.9,91.2-251.3z"/>
	<path class="st1" d="M41.3-250.6c0.2,2.4,0.3,4.4,0.4,6.4c0.7,9.4,1.3,18.7,2,28.1c0.1,0.9,0.3,1.9,0.7,2.7
		c0.8,1.8,1.9,3.1,3.6,2.9c1.8-0.1,2.7-1.5,3.1-3.5c0.2-0.8,0.5-1.6,0.5-2.4c0.2-4.8,0.6-9.5,0.4-14.3c-0.2-4.9,0.4-9.8-0.9-14.6
		c-0.6-2.3,0.8-4,2.4-6.2c0.5,2.8,1.1,4.9,1.2,7.2c0.3,9.8,0.3,19.6-0.4,29.3c-0.2,3-0.5,5.9-2.3,8.3c-3.8,5.1-9.3,2.6-12.1-2.9
		c-1.6-3.3-0.9-5.7-1-9.6c0-5.3,0-10.7-0.1-16c0-3.8-0.3-7.6-0.3-11.4C38.6-249,38.6-249,41.3-250.6z"/>
	<path class="st1" d="M85.4-219.3c0.3,3.1,0.1,6.1-0.8,9c-1.6,5.2-8.2,7.8-11.9,2.4c-2.1-3.1-3.6-6.6-3.9-10.6
		c-0.3-4.7-0.4-9.5-0.3-14.3c0.1-5.3,2.3-9.7,5.1-13.3c2-2.6,4.9-3.9,8-4c1.8,0,3.3,1.3,3.8,3.3c0.6,2.3,0.5,4.9,0.8,8.2
		c-1.4-1.9-2.2-3.1-3.1-4.2c-1.5-1.7-2.7-1.8-4.5-0.6c-3.4,2.2-5.5,5.4-6.4,10.2c-0.9,4.9-0.9,9.8-0.3,14.6c0.6,5.4,3.9,8.7,7.6,8.2
		c2.5-0.4,3.4-1.3,4-4.4c0.3-1.5,0.6-3.1,0.9-4.6C84.8-219.4,85.1-219.3,85.4-219.3z"/>
	<path class="st1" d="M63.3-203.2c-3.4-2.6-2.7-6.5-2.8-9.9c0-10.5,0.2-21,0.4-31.5c0.1-2.4,0.1-5.1,2.1-7.2
		C64.6-235.4,64.8-219.5,63.3-203.2z"/>
	<polygon class="st2" points="-4.6,-181.6 2.3,-188.9 2.3,-204.4 -4.4,-197.7 	"/>
	<polygon class="st0" points="-109.4,-280.1 -104.8,-275.6 -109.1,-271.5 -104.8,-267.4 -109.1,-263.2 -104.8,-259.1 -109.1,-255 
		-104.8,-250.9 -109.1,-246.8 -104.8,-242.7 -109.1,-238.5 -104.8,-234.4 -109.1,-230.3 -104.8,-226.2 -109.1,-222.1 -104.8,-218 
		-109.1,-213.8 -104.8,-209.7 -109.1,-205.6 -104.8,-201.5 -109.1,-197.4 -104.8,-193.2 -109.4,-188.9 2.3,-188.9 2.3,-280.1 	"/>
	<path class="st1" d="M-53.4-230.4c0.5,4.5-0.5,9.2-1.9,13.7c-1.2,3.7-2.9,7.3-6.6,7.3c-3.4,0-5.3-3-6.7-6.5
		c-2.2-5.3-2.2-11-1.8-16.7c0.3-4.3,1.3-8.6,1.8-12.9c0.4-3.1,2.3-5.5,2-9c-0.2-1.8,2-3.1,4-3.1c1.7,0,3.2,0.2,3.7,2.8
		c0.2,1.1,0.4,2.4,1,3.2c4.1,5.7,4.1,12.9,4.5,19.9C-53.4-231.4-53.4-231.1-53.4-230.4z M-64.7-250.9c-0.2,0.5-0.5,1-0.5,1.6
		c-0.6,5.6-1.4,11.3-1.8,17c-0.2,3,0.2,6.2,0.8,9.1c0.5,2.2,1.5,4.4,2.7,6c2.6,3.4,5.5,2.2,6.2-2.5c1.4-9.9-0.1-19.2-3.8-28
		C-61.8-249.3-62.8-250.9-64.7-250.9z"/>
	<path class="st1" d="M-9.7-211.3c-0.3-5.8-0.6-11.5-0.9-17.3c-2.9,0-5.7,0-9,0c0.3,4.8,0.5,9,0.7,13.3c0.2,3.4-0.8,6.1-3.2,9
		c-2.7-18,0-35.3-1.7-52.5c2.1-0.1,2.3,1.4,2.5,2.9c0.7,5.9,2.6,11.5,1.8,17.6c-0.1,1.1,0.4,2.2,0.6,3.3c2.8,0,5.4,0,8,0
		c0.8-8.3-1.6-16.5,0.6-25.7c0.9,1.6,1.6,2.3,1.6,3c-0.3,6.2,1.7,12.1,1.9,18.2c0.1,5.8,0,11.7-0.1,17.5c-0.1,3.1,0.4,6.2-1,9.1
		c-0.3,0.6-0.6,1.2-0.8,1.8C-9.1-211.2-9.4-211.2-9.7-211.3z"/>
	<path class="st1" d="M-83.7-251.1c-2.7,0-4.9,0-7.2,0c-0.7-4.1-0.3-5.3,2.7-5.7c3.9-0.5,7.8-0.8,11.7-0.9c1.2-0.1,2.4,0.6,3.9,1
		c-0.9,1.9-1.6,3.3-2.4,5c-1,0.1-2.2,0.1-3.6,0.2c0,3.6-0.4,7.2,0.1,10.6c1.2,8,1.3,15.8-0.9,23.7c-2.4,8.6-9.1,10.7-14.4,4.2
		c-1.5-1.8-3-3.7-2.1-6.8c0.1-0.4,0.4-0.7,0.9-1.5c1.4,1,2.8,2.2,4.2,3.2c1,0.7,2,1.5,3.1,1.9c3.6,1.4,4.9,0.2,4.8-4.6
		c-0.1-7.1-0.5-14.3-0.7-21.4C-83.8-245-83.7-247.8-83.7-251.1z"/>
	<path class="st1" d="M-33.3-246.3c-0.8-1.6-1.4-3.3-2.3-4.8c-0.5-0.9-1.3-1.8-2.1-2.1c-2-0.9-3.3,0.4-3.4,3.1
		c0,0.7-0.1,1.5,0.1,2.2c1.8,5.1,2.5,11,5.6,15.3c2.4,3.3,3,7.6,3.9,11.6c0.8,3.6-0.6,7.3-2.2,10.3c-1.7,3.2-7.4,3.5-10.2,1.2
		c-3.6-2.8-3.8-7.6-4.9-12.8c4.1,5.4,7.6,10.6,13.9,7.8c-1.5-5.2-3.2-9.8-5.3-14.3c-2.9-6-5.3-12.6-4.6-20.1c0.4-4.5,3-8.6,6.5-9.7
		c3.6-1.2,6.8,1.9,6.6,6.6c-0.1,2-0.6,3.9-0.9,5.9C-32.9-246.2-33.1-246.2-33.3-246.3z"/>
</g>
<g>
	<g class="st3">
		<path class="st4" d="M200.6-103.5c0.5,0.3,0.9,0.4,1.2,0.6c2.4,1.3,2.4,4.2,0,5.4c-0.8,0.5-1.7,0.9-2.5,1.4
			c-0.6,0.3-1.1,0.6-1.9,0.4c-0.3-0.5-0.5-1-0.5-1.6c-0.1-1.6-0.2-3.1-0.2-4.7c-0.1-2.2-0.3-4.4-0.7-6.6c0,0,0-0.1,0.1-0.3
			c1-0.4,1.7-1.2,2.9-1.4c1.6-0.3,3.4,0.2,4.1,1.5c0.5,0.9,0.5,1.8,0.1,2.7c-0.3,0.7-0.8,1.4-1.5,2
			C201.3-103.9,201-103.7,200.6-103.5z M198-103.8c1.7-0.3,2.7-1.1,3.6-2.1c0.6-0.6,0.5-1.3,0.3-2c-0.1-0.2-0.3-0.4-0.5-0.6
			c-0.9-0.5-2.5-0.4-3.3,0.2c-0.3,0.2-0.6,0.5-0.5,0.9C197.5-106.3,197.4-105.1,198-103.8z M197.9-102.1c0,1.5-0.1,2.9,0.1,4.3
			c0,0.2,0.2,0.4,0.4,0.7c1.2-0.5,2.2-0.9,3.1-1.5c1.1-0.8,1-1.9-0.1-2.6C200.5-102,199.3-102.1,197.9-102.1z"/>
		<path class="st4" d="M210-96c-0.9-1.2-0.8-2.4-0.9-3.5c-0.1-1.2-0.1-2.5-0.1-3.7c0.1-1.7-0.3-3.5-0.5-5.2c0-0.4,0-0.9,0-1.4
			c1.2-0.5,2.4-0.9,3.8-0.6c1.5,0.3,2.8,0.8,3.9,1.8c1.2,1.1,1.9,2.3,2.1,3.8c0.4,2.5-0.6,4.5-2.5,6.3c-1.1,1-2.4,1.7-3.9,2.1
			c-0.4,0.1-0.7,0.3-1.1,0.4C210.5-96,210.3-96,210-96z M209.9-108.5c0.2,1.1,0.4,2.2,0.5,3.4c0.1,1.1,0.1,2.3,0.1,3.4
			c0,1.2,0.1,2.5,0.1,3.8c0.3,0,0.6,0.1,0.8,0c2.7-0.6,6.3-3.4,5.5-6.9c-0.5-2.5-2.4-4-5.3-4.2C211-109.1,210.3-109.1,209.9-108.5z"
			/>
		<path class="st4" d="M290.4-102.3c-0.8-0.1-1.4,0.1-1.7,0.5c-0.2,0.3-0.3,0.7-0.3,1.1c0,1,0.1,1.9,0.3,2.9
			c0.1,0.7-0.1,1.1-0.9,1.3c-0.8-0.5-0.8-1.2-0.8-1.9c-0.1-1.4-0.2-2.7-0.1-4.1c0-1.7-0.2-3.4-0.7-5.1c-0.1-0.4-0.1-0.9-0.1-1.3
			c1.3-1.1,2.8-1.6,4.4-2.1c2.6-0.8,5.4,0.4,5.4,3.3c0,1.2-0.4,2.3-1.6,3.2c-0.6,0.4-1,0.9-1.6,1.5c0.1,0.3,0.2,0.7,0.4,1
			c0.5,0.9,1.1,1.8,1.7,2.8c0.3,0.5,0.7,1,1,1.5c0.2,0.3,0.3,0.6,0.4,1c0.1,0.3-0.4,0.8-0.8,0.9c-0.5,0.1-0.8,0-1-0.4
			c-0.2-0.4-0.5-0.7-0.7-1.1c-0.9-1.5-1.8-3.1-2.7-4.6C290.8-101.9,290.6-102.1,290.4-102.3z M288.4-103.5c1-0.2,1.9-0.4,2.6-0.6
			c1.3-0.4,2.4-1.1,3-2.2c0.8-1.3-0.2-2.8-1.9-3c-1.5-0.1-2.8,0.3-4,1.1c-0.4,0.2-0.4,0.6-0.3,0.9c0.1,0.8,0.2,1.7,0.3,2.6
			C288.2-104.4,288.3-104,288.4-103.5z"/>
		<path class="st4" d="M178.6-98.6c0.6-0.2,0.8-0.8,1.1-1.3c0.3-0.5,0.5-1,0.7-1.5c0.6-0.3,1.1-0.2,1.4,0.2c0.5,0.5,1,1,1.5,1.5
			c0.4,0.4,0.6,0.9,1.3,1.2c0.3-0.4,0.2-0.9,0.3-1.3c0-0.5,0-1,0.1-1.5c0-0.5,0.1-0.9,0.1-1.4c0-0.5,0.1-0.9,0.1-1.4
			c0-0.5-0.1-0.9-0.1-1.4c0-0.5,0-1,0-1.5c0-0.5,0-0.9,0.1-1.4c0-0.4,0.1-0.9,0.2-1.4c0.4,0.1,0.7,0.1,0.9,0.3
			c0.2,0.2,0.3,0.4,0.3,0.7c-0.1,3.5-0.2,7-0.4,10.5c0,0.7,0,1.4-0.9,1.9c-0.9-0.2-1.6-0.7-2.1-1.4c-0.5-0.7-1.1-1.4-1.9-2
			c-1.1,1.1-1.4,2.7-3.1,3.5c-0.2-0.2-0.5-0.4-0.7-0.6c-0.2-0.3-0.3-0.6-0.3-0.9c-0.5-2.2-1.1-4.4-1.2-6.6c0-1-0.4-2.1-0.6-3.2
			c-0.1-0.3-0.1-0.7,0-1c0-0.1,0.2-0.3,0.3-0.3c0.2,0,0.5,0,0.6,0.2c0.2,0.3,0.4,0.6,0.5,1c0.2,1.5,0.3,3,0.6,4.5
			c0.2,1.5,0.6,2.9,0.9,4.3C178.3-98.7,178.5-98.7,178.6-98.6z"/>
		<path class="st4" d="M264.7-101.9c-0.1,0.8-0.1,1.8-0.6,2.7c-0.5,0.9-1.3,1.6-2.3,2.2c-1.2,0.7-2.8,0.4-3.6-0.7
			c-0.8-1.1-1.6-2.2-1.5-3.6c0-0.5-0.1-0.9-0.2-1.4c-0.3-2.3,0-4.5,1.2-6.6c0.4-0.6,0.9-0.9,1.6-0.8c0.8,0.1,1.7,0.3,2.5,0.6
			c0.6,0.2,1,0.6,1.2,1.1C264.2-106.3,264.9-104.3,264.7-101.9z M263.4-102.6c0-1.6-0.6-3.1-1.1-4.5c-0.1-0.2-0.2-0.5-0.4-0.7
			c-0.5-0.5-1.1-0.6-1.8-0.2c-0.2,0.1-0.4,0.2-0.6,0.1c-0.7-0.1-0.9,0-1.1,0.4c-0.4,1-0.6,2.1-0.4,3.2c0.1,0.8,0.3,1.6,0.3,2.5
			c0,1,0.4,1.8,0.9,2.6c0.6,1,1.3,1.1,2.4,0.6c0.7-0.3,1.2-0.8,1.3-1.4C263.1-100.9,263.2-101.8,263.4-102.6z"/>
		<path class="st4" d="M222.1-103c-0.2,1.5-0.4,2.9,0.2,4.4c0.7,0,1.5,0.1,2.3,0.1c0.7,0,1.4-0.1,2.3-0.1c0.2,0.1,0.5,0.3,0.6,0.5
			c0.4,0.6,0.1,1.1-0.6,1.2c-0.5,0.1-1,0-1.6,0.1c-0.8,0.1-1.7,0.1-2.5,0.2c-0.7,0.1-1.3-0.1-1.9-0.5c-0.4-1.1-0.5-2.2-0.4-3.3
			c0.2-2.5,0.1-5-0.6-7.5c0-0.2-0.1-0.3-0.1-0.5c-0.1-0.6,0.2-1,0.9-1.1c1.8-0.3,3.6-0.5,5.4-0.7c1-0.1,1.3,0.2,1.4,1.3
			c-0.4,0.4-1,0.4-1.6,0.4c-1.2,0.2-2.5,0.3-3.7,0.5c-0.5,0.1-0.8,0.4-0.7,0.8c0.1,0.6,0.3,1.2,0.5,1.8c0.9,0.3,1.8,0.1,2.7,0.1
			c0.5,0,0.9-0.1,1.4-0.1c0.4,0,1,0.4,1.2,0.8c0,0.1,0,0.4-0.1,0.4c-0.3,0.2-0.6,0.5-0.9,0.5c-0.9,0.2-1.8,0.2-2.7,0.3
			C223-103.2,222.6-103.1,222.1-103z"/>
		<path class="st4" d="M242.5-103c-0.2,1.5-0.4,2.9,0.2,4.4c0.7,0,1.5,0.1,2.3,0.1c0.7,0,1.4-0.1,2.3-0.1c0.2,0.1,0.5,0.3,0.6,0.5
			c0.4,0.6,0.1,1.1-0.6,1.2c-0.5,0.1-1,0-1.6,0.1c-0.8,0.1-1.7,0.1-2.5,0.2c-0.7,0.1-1.3-0.1-1.9-0.5c-0.4-1.1-0.5-2.2-0.4-3.3
			c0.2-2.5,0.1-5-0.6-7.5c0-0.2-0.1-0.3-0.1-0.5c-0.1-0.6,0.2-1,0.9-1.1c1.8-0.3,3.6-0.5,5.4-0.7c1-0.1,1.3,0.2,1.4,1.3
			c-0.4,0.4-1,0.4-1.6,0.4c-1.2,0.2-2.5,0.3-3.7,0.5c-0.5,0.1-0.8,0.4-0.7,0.8c0.1,0.6,0.3,1.2,0.5,1.8c0.9,0.3,1.8,0.1,2.7,0.1
			c0.5,0,0.9-0.1,1.4-0.1c0.4,0,1,0.4,1.2,0.8c0,0.1,0,0.4-0.1,0.4c-0.3,0.2-0.6,0.5-0.9,0.5c-0.9,0.2-1.8,0.2-2.7,0.3
			C243.4-103.2,242.9-103.1,242.5-103z"/>
		<path class="st4" d="M278.6-103c-0.2,1.5-0.4,2.9,0.2,4.4c0.7,0,1.5,0.1,2.3,0.1c0.7,0,1.4-0.1,2.3-0.1c0.2,0.1,0.5,0.3,0.6,0.5
			c0.4,0.6,0.1,1.1-0.6,1.2c-0.5,0.1-1,0-1.6,0.1c-0.8,0.1-1.7,0.1-2.5,0.2c-0.7,0.1-1.3-0.1-1.9-0.5c-0.4-1.1-0.5-2.2-0.4-3.3
			c0.2-2.5,0.1-5-0.6-7.5c0-0.2-0.1-0.3-0.1-0.5c-0.1-0.6,0.2-1,0.9-1.1c1.8-0.3,3.6-0.5,5.4-0.7c1-0.1,1.3,0.2,1.4,1.3
			c-0.4,0.4-1,0.4-1.6,0.4c-1.2,0.2-2.5,0.3-3.7,0.5c-0.5,0.1-0.8,0.4-0.7,0.8c0.1,0.6,0.3,1.2,0.5,1.8c0.9,0.3,1.8,0.1,2.7,0.1
			c0.5,0,0.9-0.1,1.4-0.1c0.4,0,1,0.4,1.2,0.8c0,0.1,0,0.4-0.1,0.4c-0.3,0.2-0.6,0.5-0.9,0.5c-0.9,0.2-1.8,0.2-2.7,0.3
			C279.4-103.2,279-103.1,278.6-103z"/>
		<path class="st4" d="M268.1-102.1c0.2,1.6,0.4,3.2,0.6,4.7c0.1,0.4-0.1,0.8-0.5,1.1c-0.1,0.1-0.3,0.1-0.6,0.2
			c-0.1-0.3-0.2-0.5-0.3-0.7c-0.1-0.7-0.2-1.4-0.3-2.2c-0.2-1.7-0.4-3.5-0.5-5.2c-0.1-1.1-0.3-2.2-0.8-3.3c-0.4-0.8-0.2-1.1,0.6-1.5
			c0.6-0.3,1.3-0.6,1.9-0.9c2.7-1.5,6,0.3,6.6,2.2c0.1,0.3,0.1,0.6-0.1,0.9c-0.4,0.8-0.7,1.5-1.3,2.2c-0.6,0.8-1.5,1.2-2.6,1.4
			C270-103,269-102.7,268.1-102.1z M267.8-104.1c1.6-0.1,2.8-0.5,3.9-1c0.7-0.3,1.2-0.9,1.5-1.5c0.3-0.7,0.1-1.1-0.5-1.7
			c-1.2-1-3.8-0.9-5.2,0.4c-0.1,0.1-0.2,0.3-0.2,0.4C267.5-106.4,267.7-105.3,267.8-104.1z"/>
		<path class="st4" d="M187.8-109.6c1.6-0.2,3.1-0.4,4.6-0.7c0.9-0.1,1.3,0.3,1.8,0.8c0.3,0.4,0,0.9-0.5,1c-1.1,0.1-2.2,0.2-3.3,0.4
			c-0.3,0-0.5,0.1-0.8,0.1c-0.4,1-0.2,1.9,0.1,2.8c1.5,0.4,2.7-0.4,4.1-0.5c0.5,0.5,1.4,0.7,0.9,1.7c-1.7,0.2-3.4,0.4-5.1,0.9
			c0,1.6,0,3.2,0,4.8c0.5,0,0.8,0.1,1.2,0c1-0.1,1.9-0.3,2.9-0.5c0.5-0.1,0.9,0,1.3,0.2c0.6,0.3,0.6,0.9,0,1.2
			c-0.1,0.1-0.3,0.2-0.5,0.2c-1.7,0.2-3.5,0.5-5.2,0.7c-0.1,0-0.2-0.1-0.4-0.1c-0.5-0.3-0.4-0.8-0.4-1.2c0-1.1,0-2.3-0.1-3.4
			c0-1.5-0.4-3-0.3-4.5c0-0.7-0.2-1.4-0.4-2.1C187.6-108.3,187.5-109,187.8-109.6z"/>
		<path class="st4" d="M233.9-98.4c0.2-0.3,0.3-0.4,0.4-0.5c0.5-1.9,1-3.8,1.5-5.7c0.4-1.4,0.6-2.9,1-4.3c0.1-0.5,0.3-1.1,1.2-1.3
			c0.7,0.5,0.9,1,0.7,1.6c-0.6,1.9-1.1,3.8-1.5,5.8c-0.4,1.8-1.1,3.6-1.6,5.5c-0.2,0.7-0.6,1.3-1.2,1.7c-0.6,0.4-1.4,0.2-1.7-0.5
			c0-0.1,0-0.1-0.1-0.2c-0.6-2.4-1.3-4.9-1.7-7.3c-0.2-1.4-0.4-2.8-1-4.2c-0.1-0.2-0.2-0.5-0.2-0.7c0-0.3,0.1-0.7,0.7-0.7
			c0.5,0,0.9,0.2,1.1,0.6c0.2,0.5,0.3,0.9,0.4,1.4c0.5,2.6,1,5.3,1.5,7.9C233.5-99.1,233.7-98.8,233.9-98.4z"/>
		<path class="st4" d="M252.9-97.5c0.9-0.1,1.7-0.2,2.7-0.3c0,0,0.2,0.1,0.3,0.2c0.9,0.5,0.6,1.4-0.5,1.6c-1.1,0.2-2.3,0.3-3.4,0.4
			c-0.6-0.5-0.7-1.1-0.7-1.7c0-1.1,0-2.2-0.1-3.3c-0.2-1.9-0.2-3.8-0.8-5.7c-0.3-1-0.4-1.9-0.5-2.9c0-0.1,0-0.3,0-0.4
			c0.1-0.3,0.2-0.6,0.6-0.6c0.3,0,0.6,0.3,0.6,0.7c0.2,1.2,0.4,2.3,0.6,3.5c0.2,1.3,0.3,2.6,0.5,4c0.1,1.2,0.2,2.4,0.4,3.5
			C252.7-98.3,252.8-98,252.9-97.5z"/>
	</g>
	<g class="st3">
		<path class="st4" d="M299.8-137.5c0.8,0.3,1.1,0.8,1,1.5c-0.1,1.3,0.1,2.7,0.2,4c0.2,2.4,0.3,4.8,0.4,7.1c0,0.7-0.2,1.5-0.3,2.2
			c0,0.2-0.2,0.4-0.3,0.5c-0.3,0.3-0.8,0.4-1.1,0.1c-0.2-0.3-0.4-0.6-0.6-0.9c-1.6-3.1-3.2-6.3-4.8-9.4c-0.1-0.2-0.2-0.3-0.4-0.6
			c-0.5,0.5-0.2,1.1-0.4,1.5c-0.2,0.4-0.2,0.9-0.3,1.3c-0.1,1-0.3,2.1-0.4,3.1c-0.1,0.8-0.2,1.7-0.4,2.5c-0.1,0.7-0.3,1.4-0.9,1.9
			c-0.6-0.2-0.7-0.6-0.6-1c0.4-1.9,0.5-3.7,0.7-5.6c0.1-0.8,0.2-1.7,0.3-2.5c0.2-1.3,0.3-2.6,0.4-3.9c0-0.3,0.2-0.5,0.4-0.8
			c1,0.2,1.5,0.7,1.8,1.4c0.8,1.6,1.5,3.1,2.3,4.7c0.8,1.6,1.6,3.1,2.4,4.6c0.1,0.1,0.2,0.2,0.3,0.3c0.4-0.2,0.3-0.4,0.3-0.7
			c-0.2-2.5-0.4-5-0.6-7.6c-0.1-1.1-0.1-2.2-0.1-3.3C299.2-137.1,299.4-137.4,299.8-137.5z"/>
		<path class="st4" d="M205.6-129.1c-1.5,0.2-2.6,0.6-3.9,1c-0.1,1.3-0.4,2.5-0.4,3.8c0,0.6-0.2,1.2-0.3,1.8c0,0.1-0.2,0.1-0.4,0.2
			c-0.1,0-0.2-0.1-0.2-0.1c-0.1-0.3-0.3-0.6-0.2-0.9c0.1-3.3,0.2-6.5,0.4-9.8c0.1-1.3,0.2-2.7,0.6-4c0.1-0.4,0.2-0.7,0.6-0.9
			c1.3,0.4,2.1,1.1,2.6,2.2c0.6,1.4,1.1,2.8,1.6,4.2c0.9,2.8,1.8,5.6,2.7,8.5c0.1,0.3,0.1,0.5,0.1,0.8c0,0.1-0.2,0.4-0.3,0.4
			c-0.1,0-0.4-0.1-0.5-0.2c-0.2-0.2-0.3-0.5-0.4-0.8c-0.5-1.6-1-3.1-1.4-4.7C205.9-128.2,205.8-128.6,205.6-129.1z M202.5-136.4
			c-0.7,2.3-1,5.4-0.6,6.8c0.5-0.2,1-0.4,1.6-0.5c0.5-0.1,1.1-0.2,1.5-0.6c-0.2-1-1.2-4.1-1.5-4.7
			C203.2-135.7,202.9-136,202.5-136.4z"/>
		<path class="st4" d="M191.7-130.4c-0.9,0.3-1.6,0.5-2.4,0.8c0,0.5,0,0.9,0,1.4c0.1,2,0.2,4,0.3,5.9c0,0.4-0.1,0.7-0.6,0.8
			c-0.4-0.2-0.6-0.5-0.6-0.8c0-0.6,0-1.2,0-1.8c-0.1-1.8-0.2-3.6-0.4-5.3c-0.2-1.9-0.6-3.7-0.8-5.6c0-0.2-0.1-0.5-0.1-0.7
			c-0.1-0.5,0.2-0.9,0.6-1.2c1.5-1.1,3.6-1.2,5.4-0.4c0.3,0.1,0.6,0.3,0.9,0.5c2,1.1,2.3,3.5,0.5,4.9c-0.4,0.3-0.8,0.6-1.3,0.9
			c0.2,0.3,0.3,0.7,0.4,1c1.2,1.9,2.4,3.8,3.6,5.7c0.3,0.4,0.5,0.8,0.8,1.2c0.1,0.2,0.3,0.4,0.4,0.7c0.1,0.3,0,0.7-0.3,0.8
			c-0.3,0.1-0.6,0-0.8-0.4c-0.7-1.1-1.3-2.1-2-3.2c-0.8-1.2-1.6-2.4-2.4-3.7C192.5-129.5,192.1-129.9,191.7-130.4z M189.2-131.2
			c1.2,0.2,2-0.4,2.8-0.9c0.7-0.4,1.4-0.9,2-1.5c0.5-0.4,0.3-1.5-0.2-1.9c-1.1-1-3.2-1.2-4.6-0.5c-0.3,0.2-0.6,0.4-0.6,0.7
			C188.6-133.9,188.8-132.5,189.2-131.2z"/>
		<path class="st4" d="M226-129.7c-1.7,0.1-3.2,0-4.7,0.7c-0.1,2.1-0.2,4.3-0.5,6.5c-0.4-0.1-0.7-0.1-0.8-0.2
			c-0.3-0.4-0.4-0.9-0.3-1.3c0.1-0.8,0.2-1.7,0.2-2.5c0-2.9,0-5.7,0.1-8.6c0-0.5,0.1-1,0.2-1.5c0.1-0.5,0.5-0.6,1.1-0.3
			c0.1,0.1,0.3,0.2,0.5,0.3c-0.1,1.9-0.2,3.8-0.3,5.9c1.5-0.2,2.9-0.3,4.4-0.5c0-2.1-0.8-4.2-0.6-6.3c0.9,0.2,1.2,0.3,1.2,0.8
			c0,1.4,0.3,2.7,0.5,4c0.3,2,0.6,4,0.9,6c0.2,1.3,0.4,2.6,0.8,3.9c0.1,0.2,0.1,0.5,0.1,0.7c0,0.3,0,0.6-0.3,0.7
			c-0.3,0.1-0.8-0.1-1-0.5c-0.1-0.3-0.2-0.6-0.3-0.9c-0.3-2.1-0.5-4.2-0.8-6.2C226.2-129.3,226.1-129.4,226-129.7z"/>
		<path class="st4" d="M211.8-130.1c0.2,1.1,0.3,2,0.4,3c0.1,0.9,0.2,1.8,0.3,2.7c0.1,0.9,0.3,1.9,0,2.7c-0.7,0.2-0.9-0.1-0.9-0.4
			c-0.1-0.8-0.3-1.5-0.4-2.3c-0.1-1.1-0.2-2.1-0.3-3.2c-0.1-0.4-0.2-0.9-0.3-1.3c-0.3-2.2-0.7-4.4-1-6.7c-0.2-1,0.2-1.4,1.4-1.7
			c1.9-0.5,3.7-0.3,5.5,0.4c1.9,0.7,2.9,3,1,4.6c-0.5,0.4-1.2,0.7-1.9,1C214.5-131,213.2-130.6,211.8-130.1z M211.7-131.7
			c1.2-0.1,3.8-0.9,4.5-1.3c0.3-0.2,0.6-0.5,0.9-0.8c0.4-0.5,0.3-0.9-0.1-1.4c-0.3-0.3-0.7-0.6-1.2-0.8c-1.2-0.3-2.4-0.4-3.7-0.1
			c-0.8,0.2-1,0.4-1,0.9C211.1-133.9,211.3-132.8,211.7-131.7z"/>
		<path class="st4" d="M183.5-133.4c-0.7-0.8-1.3-1.6-2-2.2c-0.9-0.9-1.9-0.9-2.7,0.1c-0.6,0.8-1.2,1.7-1.5,2.6
			c-0.6,1.7-0.9,3.6-0.8,5.4c0,1.4,0.6,2.6,1.7,3.6c0.5,0.5,1.1,0.8,1.9,0.8c0.5,0,1,0.1,1.4,0.1c2,0,3.2-1.1,3.2-2.9
			c-0.4-0.3-0.9-0.2-1.3-0.1c-0.5,0.1-0.9,0.1-1.5,0.2c-0.2-0.4-0.4-0.7-0.6-1.2c1.3-0.2,2.6-0.3,3.8-0.2c0.9,0.1,1.4,1,1.3,1.7
			c-0.1,0.4-0.2,0.9-0.4,1.3c-0.6,2.1-2.6,2.7-4.4,2.7c-0.5,0-1.1-0.1-1.6-0.1c-1.6-0.1-2.7-0.9-3.4-2c-0.8-1.3-1.3-2.6-1.2-4.1
			c0.1-2.1,0.3-4.1,1-6.1c0.4-1.2,1.3-2,2.1-2.9c0.2-0.2,0.6-0.4,0.9-0.4c0.5,0,1.2,0,1.5,0.2c1.4,0.8,2.6,1.8,2.8,3.3
			C183.7-133.7,183.6-133.6,183.5-133.4z"/>
		<path class="st4" d="M250.2-122.4c-0.1-0.6-0.3-0.9-0.3-1.2c-0.2-2.7-0.3-5.4-0.4-8c-0.1-1-0.3-2-0.5-3c-0.4-1.8,0.7-2.7,2.8-2.6
			c2.4,0.1,4,1.3,4.7,3c1,2.3,1.3,4.7,0.2,7c-0.8,1.7-2.1,3.2-4.3,3.9C251.8-123.1,251.1-122.8,250.2-122.4z M250.4-135.4
			c0.1,3,0.3,5.8,0.4,8.6c0,0.7,0.2,1.4,0.3,2.1c0,0,0,0.1,0.1,0.1c0,0,0.1,0,0.3,0.1c2.4-0.5,3.9-2,4.6-4c0.6-1.8,0.3-3.7-0.6-5.4
			c-0.6-1.1-1.6-1.7-3.1-1.8C251.7-135.7,251.1-135.5,250.4-135.4z"/>
		<path class="st4" d="M283.5-136.9c1.8,0.4,2.8,1.5,3.3,2.9c0.1,0.4,0,0.7-0.6,0.8c-0.3-0.4-0.6-0.9-1-1.3
			c-0.4-0.4-0.9-0.9-1.7-0.8c-0.9,0.1-1.2,0.7-1.4,1.3c-0.4,1.9-0.9,3.8-0.1,5.7c0.4,0.9,0.6,1.8,0.9,2.7c0.4,1,1.4,1.5,2.7,1.5
			c1,0,1.7-0.4,1.9-1.2c0.2-0.7,0.2-1.5,0-2.3c-0.7,0-1.4,0-2,0c-0.2-0.1-0.3-0.1-0.3-0.2c-0.1-0.3-0.2-0.7-0.3-1.1
			c1.1-0.3,2.2-0.3,3.3-0.6c1,0.5,1.4,1.1,1.2,2c-0.1,0.6-0.2,1.2-0.2,1.8c0,0.6-0.3,1.2-0.6,1.7c-0.7,1.1-1.9,1.5-3.3,1.3
			c-1.5-0.2-2.9-0.6-3.5-1.9c-0.3-0.7-0.9-1.4-0.9-2.3c0-0.2-0.1-0.4-0.2-0.6c-0.8-1.9-0.8-3.9-0.3-5.9c0.1-0.5,0.1-1,0.2-1.5
			C281.2-135.7,281.9-136.6,283.5-136.9z"/>
		<path class="st4" d="M259.2-122.1c-0.4-0.5-0.5-1-0.3-1.5c0.2-0.5,0.3-1.2,0.4-1.7c0.1-1.1,0-2.3,0.1-3.4c0.1-2.2-0.2-4.5-0.7-6.7
			c-0.1-0.4-0.1-0.9-0.1-1.4c0.4-0.1,0.7-0.1,1.1-0.1c1.5-0.1,3.1-0.1,4.8-0.2c0.4,0.2,0.9,0.4,1.1,0.9c-0.1,0.4-0.4,0.6-0.9,0.6
			c-0.9,0.1-1.9,0.1-2.8,0.2c-0.5,0-1,0.1-1.5,0.2c0,0.9,0,1.7,0,2.5c0,0.5,0.4,0.7,1,0.5c0.6-0.1,1.1-0.3,1.7-0.4
			c0.5-0.1,1,0,1.4,0.2c0.2,0.1,0.4,0.3,0.4,0.4c0,0.2-0.2,0.5-0.4,0.6c-0.5,0.2-1,0.3-1.5,0.4c-0.7,0.2-1.5,0.2-2.2,0.8
			c0.1,2-0.4,4.1-0.3,6.3c0.8,0,1.6-0.1,2.3-0.2c0.7-0.1,1.4-0.1,2.1-0.1c0.2,0,0.6,0.3,0.6,0.4c0.1,0.2-0.1,0.5-0.3,0.6
			c-0.3,0.2-0.7,0.4-1.1,0.4C262.5-122.6,260.9-122.4,259.2-122.1z"/>
		<path class="st4" d="M319.9-128.6c-0.8-0.1-1.5,0.1-1.9,0.6c-0.3,0.3-0.3,0.8-0.3,1.3c0,1.1,0.1,2.2,0.3,3.2
			c0.1,0.7-0.1,1.2-1,1.5c-0.9-0.6-0.9-1.3-0.9-2.1c-0.1-1.5-0.2-3.1-0.2-4.6c0-1.9-0.2-3.8-0.8-5.7c-0.1-0.5-0.1-1-0.1-1.4
			c1.4-1.3,3.1-1.8,4.9-2.3c3-0.9,6,0.5,6.1,3.7c0,1.4-0.5,2.6-1.8,3.6c-0.6,0.5-1.1,1-1.8,1.6c0.1,0.3,0.3,0.7,0.5,1.1
			c0.6,1,1.2,2.1,1.8,3.1c0.4,0.6,0.8,1.1,1.1,1.6c0.2,0.3,0.4,0.7,0.5,1.1c0.1,0.3-0.4,0.9-0.9,1c-0.5,0.1-0.9,0-1.1-0.4
			c-0.3-0.4-0.5-0.8-0.7-1.2c-1-1.7-2-3.4-3.1-5.1C320.3-128.2,320.1-128.4,319.9-128.6z M317.6-130c1.2-0.3,2.1-0.4,2.9-0.7
			c1.5-0.5,2.7-1.2,3.4-2.4c0.9-1.4-0.2-3.1-2.1-3.3c-1.7-0.2-3.2,0.4-4.5,1.2c-0.4,0.2-0.4,0.6-0.4,1c0.1,0.9,0.2,1.9,0.3,2.9
			C317.4-130.9,317.5-130.6,317.6-130z"/>
		<path class="st4" d="M306.6-129.4c-0.2,1.6-0.5,3.2,0.2,4.9c0.8,0,1.7,0.1,2.5,0.1c0.8,0,1.6-0.1,2.5-0.2c0.2,0.2,0.5,0.3,0.7,0.6
			c0.5,0.6,0.1,1.3-0.7,1.4c-0.6,0.1-1.2,0-1.8,0.1c-0.9,0.1-1.9,0.2-2.8,0.3c-0.8,0.1-1.4-0.1-2.1-0.5c-0.4-1.2-0.5-2.5-0.4-3.7
			c0.2-2.8,0.1-5.6-0.7-8.4c-0.1-0.2-0.1-0.4-0.1-0.5c-0.1-0.6,0.3-1.1,1-1.2c2-0.3,4-0.6,6-0.8c1.1-0.1,1.4,0.2,1.6,1.5
			c-0.5,0.4-1.2,0.4-1.8,0.5c-1.4,0.2-2.7,0.3-4.1,0.6c-0.6,0.1-0.9,0.4-0.8,0.9c0.1,0.7,0.3,1.3,0.5,2c1,0.3,2,0.2,3,0.1
			c0.5,0,1-0.1,1.5-0.2c0.5,0,1.1,0.4,1.3,0.9c0.1,0.2,0,0.4-0.1,0.5c-0.3,0.2-0.7,0.5-1,0.6c-1,0.2-2,0.2-3,0.4
			C307.6-129.7,307.1-129.5,306.6-129.4z"/>
		<path class="st4" d="M267.6-124.7c0.6,0.2,0.9,0.3,1.3,0.4c0.8,0.2,1.6,0.5,2.4,0.7c0.3,0.1,0.6,0.1,0.9,0.1
			c1.4-0.1,1.7-1.4,1.2-2.2c-0.6-0.9-1.2-1.8-2-2.5c-0.6-0.5-1.2-1-1.8-1.5c-0.7-0.6-1.2-1.3-1.7-2.1c-0.8-1.5-0.8-3-0.3-4.6
			c0.2-0.7,0.7-1.1,1.5-1.1c0.9-0.1,1.6,0.3,2.3,0.8c0.9,0.7,1,1.6,0.5,2.6c0,0.1-0.2,0.2-0.3,0.2c-0.1,0-0.2,0-0.3,0
			c-0.3-0.1-0.2-0.4-0.2-0.6c0-1-0.9-1.7-1.8-1.3c-0.3,0.1-0.5,0.5-0.6,0.8c-0.3,1.3,0.3,2.3,1.1,3.1c0.7,0.7,1.4,1.3,2.2,1.9
			c1.1,0.9,1.8,2.1,2.6,3.2c0.2,0.3,0.3,0.7,0.4,1c0.4,1.2,0.1,2.4-0.8,3.2c-0.8,0.8-1.8,1-3,0.6c-1.1-0.4-2.3-0.6-3.3-0.9
			C267.3-123.4,267.5-124,267.6-124.7z"/>
		<path class="st4" d="M240.9-134.6c-0.4-0.3-0.6-0.6-0.8-0.8c-1.6-1.2-3.9-0.6-4.4,1.1c-0.4,1.6-0.6,3.2-0.2,4.9
			c0.2,0.8,0.2,1.6,0.4,2.4c0.2,1.2,1,2.2,2.2,3c0.8,0.6,1.9,0.6,2.9,0.4c0.5-0.1,1.1-0.1,1.6-0.1c0.3,0,0.7,0.2,0.7,0.6
			c0,0.2-0.2,0.5-0.3,0.6c-0.1,0.1-0.4,0.3-0.6,0.3c-1.5,0.3-2.9,0.4-4.3-0.3c-1.7-0.9-2.9-2.1-3.2-3.8c-0.1-0.8-0.2-1.6-0.5-2.3
			c-0.6-2.1-0.5-4.2,0.1-6.3c0.5-1.8,2.2-2.7,4.2-2.3c0.8,0.2,1.5,0.3,2.1,0.8C241.3-135.9,241.5-135.4,240.9-134.6z"/>
		<path class="st4" d="M278.3-122.2c-0.5-0.2-0.8-0.3-0.9-0.4c-0.2-0.3-0.3-0.7-0.3-1c-0.1-1.7-0.5-3.4-0.6-5.2c-0.1-2-0.4-4-0.6-6
			c-0.1-0.6-0.1-1.2-0.1-1.8c0-0.4,0.4-0.6,0.6-0.6c0.4,0.1,0.6,0.3,0.7,0.6c0.1,1,0.1,2.1,0.4,3.1c0.5,2.3,0.4,4.6,0.4,6.9
			c0,0.8,0.2,1.6,0.2,2.4C278.2-123.5,278.2-123,278.3-122.2z"/>
		<path class="st4" d="M231.7-121.6c-0.5-1.1-0.8-2-0.8-2.9c0-1.3,0-2.6,0-3.9c-0.1-1.6-0.2-3.3-0.3-4.9c-0.1-1.3-0.2-2.6-0.2-3.9
			c0-0.1,0-0.3,0.1-0.4c0.1-0.1,0.4-0.2,0.6-0.3c0.1,0,0.3,0.1,0.4,0.3c0.1,0.1,0.1,0.3,0.1,0.4c0.1,1.8,0.2,3.6,0.4,5.4
			c0.2,1.5,0,3.1,0.1,4.6c0.1,1.3,0.2,2.7,0.3,4c0,0.3,0.1,0.6,0,0.9C232.3-122,232-121.9,231.7-121.6z"/>
		<polygon class="st4" points="199.6,-129.6 199.6,-129.7 199.7,-129.6 		"/>
	</g>
	<g class="st3">
		<path class="st4" d="M253.3-82.7c0.8-0.4,1.6-0.8,2.4-1.2c2.1-1,4.2-1,6.3-0.2c0.9,0.3,1.4,1,1.6,1.7c0.5,1.6-0.4,3.2-2.1,4.2
			c-0.5,0.3-1,0.5-1.5,0.7c-0.3,0.1-0.5,0.3-0.8,0.5c0.4,1.5,1.6,2.6,2.3,3.9c0.7,1.3,1.7,2.5,2.6,3.9c0,0.5-0.5,0.7-1,1
			c-0.2-0.1-0.4-0.1-0.5-0.2c-0.2-0.1-0.4-0.3-0.4-0.5c-0.2-1-1-1.8-1.5-2.6c-1-1.6-2.1-3.2-3.2-4.8c-0.3-0.4-0.7-0.5-1.2-0.4
			c-0.4,0.1-0.8,0.3-1.2,0.4c0,1.8,0,3.4,0,5.1c0,0.7-0.1,1.2-0.8,1.5c-0.6,0-0.8-0.3-0.8-0.8c0-0.3,0-0.6,0.1-1
			c0-0.6,0.2-1.3,0.1-1.9c-0.5-2.8-0.1-5.7-0.4-8.6C253.2-82.2,253.3-82.4,253.3-82.7z M254.9-78.4c1.8,0.1,3.3-0.1,4.5-0.5
			c1.1-0.4,2-0.9,2.8-1.7c0.5-0.5,0.4-1-0.1-1.4c-1.1-1-3.5-1.4-5-0.7c-0.7,0.3-1.3,0.7-1.9,1.1c-0.2,0.2-0.4,0.5-0.4,0.7
			C254.8-80.2,254.6-79.3,254.9-78.4z"/>
		<path class="st4" d="M211.8-82.2c-0.8,0.2-0.9,0.7-1,1.2c-0.3,0.8-0.5,1.7-0.7,2.5c-0.1,0.5-0.4,0.8-1.1,0.8
			c-1.4-1.1-2.3-2.7-3.8-4.2c-0.1,0.4-0.2,0.6-0.2,0.8c0,0.6-0.1,1.3-0.1,1.9c0,2-0.2,4-0.5,6c-0.1,0.6,0,1.2-0.1,1.8
			c0,0.3-0.1,0.6-0.3,0.9c-0.1,0.2-0.4,0.3-0.6,0.3c-0.2,0-0.4-0.3-0.4-0.5c0-0.7,0-1.4,0.1-2.1c0.6-3.5,0.7-7,0.7-10.5
			c0-0.5,0-1,0.8-1.2c0.9,0.3,1.5,0.9,2,1.6c0.6,0.8,1.2,1.5,1.9,2.3c0.1,0.1,0.3,0.2,0.5,0.3c0.4-0.4,0.5-0.9,0.6-1.3
			c0.2-0.9,0.7-1.6,1.2-2.4c0.1-0.3,0.5-0.5,0.7-0.7c0.4-0.3,1-0.2,1.1,0.2c0.5,1,1,2,1.2,3.1c0.6,2.6,1.1,5.3,1.6,8
			c0.2,0.8,0.4,1.7,0.6,2.5c0.1,0.4,0.2,0.8,0,1.3c-0.1,0.3-0.4,0.5-0.7,0.4c-0.2,0-0.5-0.2-0.6-0.4c-0.1-0.2-0.1-0.4-0.2-0.6
			c-0.6-3.3-1.1-6.6-2-9.9C212.3-80.8,212.1-81.5,211.8-82.2z"/>
		<path class="st4" d="M193.6-72.9c0.5-0.8,0.4-1.5,0.4-2.2c-0.2-2-0.4-4.1-0.6-6.1c-0.1-1.2,0-2.4,0-3.6c0.7-0.2,0.9-0.2,1,0.3
			c0.1,1,0.2,1.9,0.3,2.9c0.2,2.2,0.4,4.4,0.6,6.6c0.2,1.5,0.1,2.9-0.1,4.4c0,0.2-0.1,0.4-0.2,0.6c-0.3,0.6-1.2,0.6-1.6,0.1
			c-0.5-0.6-0.9-1.2-1.2-1.8c-0.7-1.2-1.3-2.5-2-3.7c-0.8-1.3-1.6-2.6-2.4-3.9c-0.1-0.2-0.4-0.4-0.6-0.6c-0.5,0.5-0.4,0.9-0.3,1.3
			c0.1,2.7,0.3,5.4,0.4,8.1c0,0.2,0,0.3,0,0.5c0,0.4-0.2,0.6-0.6,0.7c-0.3,0.1-0.7-0.3-0.7-0.6c0-0.3,0-0.5,0-0.8
			c0-3.3-0.1-6.7-0.1-10c0-0.7,0-1.4,0-2.1c0-0.2,0.3-0.4,0.4-0.5c0.3,0,0.7,0.1,0.8,0.2c0.8,1.2,1.6,2.3,2.4,3.5
			c1.2,1.9,2.2,3.9,3.4,5.8C193-73.5,193.3-73.3,193.6-72.9z"/>
		<path class="st4" d="M250.9-76.5c0.1,1.3-0.3,2.6-0.9,3.9c-0.3,0.6-0.8,1.2-1.2,1.8c-1,1.1-2.3,1.4-3.9,1.2
			c-0.3,0-0.5-0.2-0.7-0.2c-2.7-0.1-3.8-1.6-4.4-3.5c-0.8-2.5-0.3-5,0.8-7.4c0.3-0.7,0.7-1.4,1.1-2.1c0.2-0.3,0.4-0.7,0.7-1
			c1.1-1.1,1.6-1.2,3.2-0.5c1.2,0.6,2.5,1,3.5,2C250.7-80.6,251.3-78.8,250.9-76.5z M243.4-83.1c-0.4,0.6-0.7,1.3-1.1,1.9
			c-0.9,1.3-1.2,2.7-1.4,4.2c-0.1,1,0,2.1,0.3,3c0.3,1,1,1.9,2.2,2.3c1.1,0.4,2.3,0.4,3.4,0.2c0.6-0.1,1.1-0.5,1.5-1
			c0.8-1.1,1.2-2.4,1.5-3.7c0.2-0.9,0.2-1.9,0-2.7c-0.3-1.4-1.4-2.5-2.7-3.2C246.1-82.6,245-83.3,243.4-83.1z"/>
		<path class="st4" d="M224.2-74.5c-1.3,0-2.3,0-3.5,0c-0.5,1-0.7,2.2-1.1,3.3c-0.1,0.4-0.2,0.7-0.4,1.1c-0.1,0.1-0.4,0.2-0.7,0.2
			c-0.1,0-0.3-0.2-0.3-0.4c0-0.3,0-0.5,0.1-0.8c0.9-3.1,1.8-6.2,2.6-9.3c0.3-1.1,0.3-2.2,0.4-3.4c0-0.2,0.1-0.4,0.2-0.6
			c0.1-0.3,0.7-0.4,1-0.1c0.3,0.4,0.6,0.7,0.7,1.1c0.5,2.7,1.7,5.2,2.4,7.8c0.2,0.7,0.3,1.4,0.5,2c0.2,0.7,0.5,1.4,0.9,2.1
			c0.3,0.5,0.3,1,0.1,1.6c-0.1,0.3-0.8,0.4-1,0.2c-0.3-0.4-0.6-0.7-0.7-1.1c-0.2-0.6-0.3-1.2-0.5-1.7
			C224.8-73.1,224.5-73.8,224.2-74.5z M223.8-76.1c-0.5-1.4-0.9-2.6-1.3-3.8c0-0.1-0.2-0.1-0.4-0.2c-0.1,0.2-0.3,0.4-0.3,0.5
			c-0.2,1-0.4,1.9-0.7,2.9c-0.1,0.3-0.2,0.5,0.1,0.8C222-76,222.8-76,223.8-76.1z"/>
		<path class="st4" d="M233.8-80.8c-0.2,1.4-0.5,2.6-0.3,3.8c0.2,1.5,0.2,3,0.3,4.5c0,0.7,0.2,1.4,0.3,2.1c0.1,0.5,0.1,0.9-0.3,1.3
			c-0.2,0.2-0.5,0.3-0.8,0.3c-0.2,0-0.6-0.2-0.6-0.4c-0.2-0.4-0.2-0.9-0.3-1.4c-0.1-1.7-0.1-3.5-0.1-5.2c0-1.4,0-2.8-0.1-4.2
			c0-0.6-0.4-0.8-1.3-0.8c-1.3,0.1-2.6,0.1-3.9,0.2c-0.9,0-1.3-0.5-0.8-1.1c0.3-0.3,0.7-0.6,1.1-0.6c3.7-0.2,7.4-0.4,11-0.6
			c0.2,0,0.6,0,0.7,0c0.3,0.2,0.7,0.4,0.7,0.6c0.1,0.2-0.2,0.6-0.4,0.7c-0.4,0.2-0.9,0.2-1.4,0.3C236.4-81.1,235.2-81,233.8-80.8z"
			/>
		<path class="st4" d="M198.5-69.9c-0.4-0.5-0.4-1.1-0.5-1.7c-0.2-2.8-0.5-5.6-0.7-8.4c0-0.6,0-1.2,0.1-1.8c0.1-0.6,0.2-1.2,0-1.8
			c0-0.1,0-0.3,0.1-0.5c0.1-0.2,0.4-0.3,0.6-0.3c0.2,0,0.4,0.2,0.5,0.4c0.1,0.2,0.1,0.4,0.1,0.6c0,0.4,0,0.8,0,1.1
			c0,2.9,0.3,5.8,0.7,8.7c0.1,0.9,0.2,1.7,0.3,2.6C199.6-70.4,199.4-70.2,198.5-69.9z"/>
		<path class="st4" d="M181.6-75.9c-1.4-0.4-2.6,0.1-4,0.3c-0.3,1.1-0.3,2.2-0.5,3.2c-0.1,0.6-0.1,1.2-0.1,1.8
			c0,0.6-0.2,1.1-0.6,1.5c-0.2,0-0.4,0-0.5-0.1c-0.2-0.2-0.5-0.5-0.6-0.8c-0.1-0.2,0-0.4,0.1-0.6c0.6-2.2,0.7-4.4,0.9-6.6
			c0.2-2.1,0.5-4.2,0.8-6.3c0.1-0.4,0.3-0.8,0.5-1.2c0.2-0.4,0.9-0.6,1.3-0.2c0.8,0.8,1.6,1.7,2,2.7c0.6,1.6,1.2,3.2,1.8,4.8
			c0.5,1.2,0.9,2.5,1.4,3.7c0.3,0.8,0.6,1.5,0.3,2.4c-0.1,0.2-0.3,0.4-0.5,0.4c-0.2,0-0.5-0.2-0.6-0.3c-0.3-0.7-0.5-1.4-0.8-2.2
			C182.3-74.2,181.9-75,181.6-75.9z M177.9-77.4c1.2,0,2.1-0.1,3-0.3c-0.1-1.4-0.6-2.9-1.4-4c-0.2-0.3-0.5-0.5-0.9-0.9
			c-0.2,0.4-0.4,0.6-0.4,0.8C178-80.4,177.7-79,177.9-77.4z"/>
	</g>
	<g class="st3">
		<path class="st4" d="M182-150.9c0.9-0.1,1.7-0.2,2.7-0.3c0,0,0.2,0.1,0.3,0.2c0.9,0.5,0.6,1.4-0.5,1.6c-1.1,0.2-2.3,0.3-3.4,0.4
			c-0.6-0.5-0.7-1.1-0.7-1.7c0-1.1,0-2.2-0.1-3.3c-0.2-1.9-0.2-3.8-0.8-5.7c-0.3-1-0.4-1.9-0.5-2.9c0-0.1,0-0.3,0-0.4
			c0.1-0.3,0.2-0.6,0.6-0.6c0.3,0,0.6,0.3,0.6,0.7c0.2,1.2,0.4,2.3,0.6,3.5c0.2,1.3,0.3,2.6,0.5,4c0.1,1.2,0.2,2.4,0.4,3.5
			C181.8-151.7,181.9-151.4,182-150.9z"/>
		<path class="st4" d="M189.4-150.9c0.9-0.1,1.7-0.2,2.7-0.3c0,0,0.2,0.1,0.3,0.2c0.9,0.5,0.6,1.4-0.5,1.6c-1.1,0.2-2.3,0.3-3.4,0.4
			c-0.6-0.5-0.7-1.1-0.7-1.7c0-1.1,0-2.2-0.1-3.3c-0.2-1.9-0.2-3.8-0.8-5.7c-0.3-1-0.4-1.9-0.5-2.9c0-0.1,0-0.3,0-0.4
			c0.1-0.3,0.2-0.6,0.6-0.6c0.3,0,0.6,0.3,0.6,0.7c0.2,1.2,0.4,2.3,0.6,3.5c0.2,1.3,0.3,2.6,0.5,4c0.1,1.2,0.2,2.4,0.4,3.5
			C189.1-151.7,189.3-151.4,189.4-150.9z"/>
		<path class="st4" d="M206.4-151.8c0.5,0.2,0.9,0.3,1.2,0.4c0.7,0.2,1.5,0.5,2.2,0.7c0.3,0.1,0.6,0.1,0.8,0.1
			c1.3-0.1,1.6-1.3,1.1-2.1c-0.5-0.9-1.1-1.7-1.9-2.4c-0.6-0.5-1.1-1-1.7-1.4c-0.7-0.5-1.1-1.2-1.6-2c-0.8-1.4-0.7-2.8-0.3-4.3
			c0.2-0.7,0.7-1,1.4-1c0.8,0,1.5,0.3,2.1,0.8c0.8,0.7,0.9,1.4,0.4,2.4c0,0.1-0.2,0.1-0.3,0.2c-0.1,0-0.2,0-0.3,0
			c-0.3-0.1-0.2-0.3-0.2-0.6c0-0.9-0.8-1.6-1.7-1.2c-0.3,0.1-0.5,0.5-0.5,0.8c-0.2,1.2,0.2,2.1,1,2.9c0.6,0.6,1.3,1.2,2,1.8
			c1,0.8,1.7,1.9,2.4,3c0.2,0.3,0.3,0.6,0.4,0.9c0.3,1.1,0,2.2-0.7,3c-0.7,0.7-1.7,0.9-2.8,0.6c-1-0.4-2.1-0.6-3.1-0.9
			C206.1-150.6,206.3-151.1,206.4-151.8z"/>
		<path class="st4" d="M176.6-148.8c-0.5-1-0.8-1.8-0.8-2.7c0-1.2,0-2.4,0-3.6c-0.1-1.5-0.2-3.1-0.3-4.6c-0.1-1.2-0.2-2.4-0.2-3.6
			c0-0.1,0-0.3,0.1-0.4c0.1-0.1,0.3-0.2,0.5-0.2c0.1,0,0.3,0.1,0.4,0.2c0.1,0.1,0.1,0.3,0.1,0.4c0.1,1.7,0.2,3.3,0.4,5
			c0.2,1.4,0,2.9,0.1,4.3c0.1,1.2,0.2,2.5,0.3,3.7c0,0.3,0.1,0.6,0,0.8C177.2-149.3,177-149.1,176.6-148.8z"/>
		<polygon class="st4" points="197.9,-156.4 198,-156.4 198,-156.4 		"/>
		<path class="st4" d="M227.7-162.7c0.8-0.4,1.6-0.8,2.4-1.2c2.1-1,4.2-1,6.3-0.2c0.9,0.3,1.4,1,1.6,1.7c0.5,1.6-0.4,3.2-2.1,4.2
			c-0.5,0.3-1,0.5-1.5,0.7c-0.3,0.1-0.5,0.3-0.8,0.5c0.4,1.5,1.6,2.6,2.3,3.9c0.7,1.3,1.7,2.5,2.6,3.9c0,0.5-0.5,0.7-1,1
			c-0.2-0.1-0.4-0.1-0.5-0.2c-0.2-0.1-0.4-0.3-0.4-0.5c-0.2-1-1-1.8-1.5-2.6c-1-1.6-2.1-3.2-3.2-4.8c-0.3-0.4-0.7-0.5-1.2-0.4
			c-0.4,0.1-0.8,0.3-1.2,0.4c0,1.8,0,3.4,0,5.1c0,0.7-0.1,1.2-0.8,1.5c-0.6,0-0.8-0.3-0.8-0.8c0-0.3,0-0.6,0.1-1
			c0-0.6,0.2-1.3,0.1-1.9c-0.5-2.8-0.1-5.7-0.4-8.6C227.6-162.1,227.6-162.3,227.7-162.7z M229.3-158.3c1.8,0.1,3.3-0.1,4.5-0.5
			c1.1-0.4,2-0.9,2.8-1.7c0.5-0.5,0.4-1-0.1-1.4c-1.1-1-3.5-1.4-5-0.7c-0.7,0.3-1.3,0.7-1.9,1.1c-0.2,0.2-0.4,0.5-0.4,0.7
			C229.1-160.1,229-159.3,229.3-158.3z"/>
		<path class="st4" d="M276.1-162.7c0.8-0.4,1.6-0.8,2.4-1.2c2.1-1,4.2-1,6.3-0.2c0.9,0.3,1.4,1,1.6,1.7c0.5,1.6-0.4,3.2-2.1,4.2
			c-0.5,0.3-1,0.5-1.5,0.7c-0.3,0.1-0.5,0.3-0.8,0.5c0.4,1.5,1.6,2.6,2.3,3.9c0.7,1.3,1.7,2.5,2.6,3.9c0,0.5-0.5,0.7-1,1
			c-0.2-0.1-0.4-0.1-0.5-0.2c-0.2-0.1-0.4-0.3-0.4-0.5c-0.2-1-1-1.8-1.5-2.6c-1-1.6-2.1-3.2-3.2-4.8c-0.3-0.4-0.7-0.5-1.2-0.4
			c-0.4,0.1-0.8,0.3-1.2,0.4c0,1.8,0,3.4,0,5.1c0,0.7-0.1,1.2-0.8,1.5c-0.6,0-0.8-0.3-0.8-0.8c0-0.3,0-0.6,0.1-1
			c0-0.6,0.2-1.3,0.1-1.9c-0.5-2.8-0.1-5.7-0.4-8.6C276-162.1,276.1-162.3,276.1-162.7z M277.7-158.3c1.8,0.1,3.3-0.1,4.5-0.5
			c1.1-0.4,2-0.9,2.8-1.7c0.5-0.5,0.4-1-0.1-1.4c-1.1-1-3.5-1.4-5-0.7c-0.7,0.3-1.3,0.7-1.9,1.1c-0.2,0.2-0.4,0.5-0.4,0.7
			C277.5-160.1,277.4-159.3,277.7-158.3z"/>
		<path class="st4" d="M273.3-155.8c0.1,1.3-0.3,2.6-0.9,3.9c-0.3,0.6-0.8,1.2-1.2,1.8c-1,1.1-2.3,1.4-3.9,1.2
			c-0.3,0-0.5-0.2-0.7-0.2c-2.7-0.1-3.8-1.6-4.4-3.5c-0.8-2.5-0.3-5,0.8-7.4c0.3-0.7,0.7-1.4,1.1-2.1c0.2-0.3,0.4-0.7,0.7-1
			c1.1-1.1,1.6-1.2,3.2-0.5c1.2,0.6,2.5,1,3.5,2C273-159.9,273.6-158.1,273.3-155.8z M265.7-162.4c-0.4,0.6-0.7,1.3-1.1,1.9
			c-0.9,1.3-1.2,2.7-1.4,4.2c-0.1,1,0,2.1,0.3,3c0.3,1,1,1.9,2.2,2.3c1.1,0.4,2.3,0.4,3.4,0.2c0.6-0.1,1.1-0.5,1.5-1
			c0.8-1.1,1.2-2.4,1.5-3.7c0.2-0.9,0.2-1.9,0-2.7c-0.3-1.4-1.4-2.5-2.7-3.2C268.4-161.9,267.3-162.6,265.7-162.4z"/>
		<path class="st4" d="M220.3-161.4c-0.2,1.4-0.5,2.6-0.3,3.8c0.2,1.5,0.2,3,0.3,4.5c0,0.7,0.2,1.4,0.3,2.1c0.1,0.5,0.1,0.9-0.3,1.3
			c-0.2,0.2-0.5,0.3-0.8,0.3c-0.2,0-0.6-0.2-0.6-0.4c-0.2-0.4-0.2-0.9-0.3-1.4c-0.1-1.7-0.1-3.5-0.1-5.2c0-1.4,0-2.8-0.1-4.2
			c0-0.6-0.4-0.8-1.3-0.8c-1.3,0.1-2.6,0.1-3.9,0.2c-0.9,0-1.3-0.5-0.8-1.1c0.3-0.3,0.7-0.6,1.1-0.6c3.7-0.2,7.4-0.4,11-0.6
			c0.2,0,0.6,0,0.7,0c0.3,0.2,0.7,0.4,0.7,0.6c0.1,0.2-0.2,0.6-0.4,0.7c-0.4,0.2-0.9,0.2-1.4,0.3
			C222.9-161.6,221.7-161.5,220.3-161.4z"/>
		<path class="st4" d="M255.9-161.4c-0.2,1.4-0.5,2.6-0.3,3.8c0.2,1.5,0.2,3,0.3,4.5c0,0.7,0.2,1.4,0.3,2.1c0.1,0.5,0.1,0.9-0.3,1.3
			c-0.2,0.2-0.5,0.3-0.8,0.3c-0.2,0-0.6-0.2-0.6-0.4c-0.2-0.4-0.2-0.9-0.3-1.4c-0.1-1.7-0.1-3.5-0.1-5.2c0-1.4,0-2.8-0.1-4.2
			c0-0.6-0.4-0.8-1.3-0.8c-1.3,0.1-2.6,0.1-3.9,0.2c-0.9,0-1.3-0.5-0.8-1.1c0.3-0.3,0.7-0.6,1.1-0.6c3.7-0.2,7.4-0.4,11-0.6
			c0.2,0,0.6,0,0.7,0c0.3,0.2,0.7,0.4,0.7,0.6c0.1,0.2-0.2,0.6-0.4,0.7c-0.4,0.2-0.9,0.2-1.4,0.3
			C258.5-161.6,257.3-161.5,255.9-161.4z"/>
		<path class="st4" d="M246.2-155.2c-1.4-0.4-2.6,0.1-4,0.3c-0.3,1.1-0.3,2.2-0.5,3.2c-0.1,0.6-0.1,1.2-0.1,1.8
			c0,0.6-0.2,1.1-0.6,1.5c-0.2,0-0.4,0-0.5-0.1c-0.2-0.2-0.5-0.5-0.6-0.8c-0.1-0.2,0-0.4,0.1-0.6c0.6-2.2,0.7-4.4,0.9-6.6
			c0.2-2.1,0.5-4.2,0.8-6.3c0.1-0.4,0.3-0.8,0.5-1.2c0.2-0.4,0.9-0.6,1.3-0.2c0.8,0.8,1.6,1.7,2,2.7c0.6,1.6,1.2,3.2,1.8,4.8
			c0.5,1.2,0.9,2.5,1.4,3.7c0.3,0.8,0.6,1.5,0.3,2.4c-0.1,0.2-0.3,0.4-0.5,0.4c-0.2,0-0.5-0.2-0.6-0.3c-0.3-0.7-0.5-1.4-0.8-2.2
			C246.9-153.5,246.6-154.3,246.2-155.2z M242.5-156.7c1.2,0,2.1-0.1,3-0.3c-0.1-1.4-0.6-2.9-1.4-4c-0.2-0.3-0.5-0.5-0.9-0.9
			c-0.2,0.4-0.4,0.6-0.4,0.8C242.6-159.7,242.3-158.3,242.5-156.7z"/>
		<g>
			<path class="st4" d="M196.7-153.7c-0.1-1.4,0.1-2.8-0.1-4.3c-0.2-1.7-0.3-3.3-0.4-5c0-0.1,0-0.3-0.1-0.4
				c-0.1-0.1-0.3-0.3-0.4-0.2c-0.2,0-0.4,0.1-0.5,0.2c-0.1,0.1-0.1,0.3-0.1,0.4c0.1,1.2,0.2,2.4,0.2,3.6c0.1,1.5,0.2,3.1,0.3,4.6
				c0,0.8,0,1.7,0,2.5c0.4,0.2,0.6,0.7,0.5,1c0.3,0.3,0.6,0.6,0.9,0.9C196.8-151.4,196.7-152.6,196.7-153.7z"/>
			<path class="st4" d="M203.1-152c0-0.5,0-1.1,0-1.6c0-1.4,0.3-2.8,0.2-4.3c-0.1-1.7,0-3.4-0.1-5c0-0.1,0-0.3-0.1-0.4
				c-0.1-0.1-0.2-0.3-0.3-0.3c-0.2,0-0.4,0.1-0.5,0.2c-0.1,0.1-0.1,0.2-0.1,0.4c0,1.2,0,2.4,0,3.6c0,1.5,0,3.1-0.1,4.6
				c0,1.2-0.2,2.4-0.3,3.6c0,0.4,0,0.8,0.1,1.2c0.2-0.2,0.5-0.4,0.8-0.5c0-0.1,0-0.2,0.1-0.3c0-0.2,0.2-0.3,0.3-0.4
				C202.9-151.5,202.9-151.8,203.1-152z"/>
			<path class="st4" d="M195.4-152.2c0.6,3.2,7.3,4.1,7.6,1.7c0.2-2.4,0.2-2.4,0.2-2.4l-1.3-0.4c-0.7,3-1.6,2.6-3,2.4
				c-1.4-0.2-2.2-0.5-2.2-2.7c0-2.2,0-2.2,0-2.2l-1.3-0.2C195.5-153,195.4-152.2,195.4-152.2z"/>
		</g>
	</g>
</g>
<g>
	<path d="M308.5,151.8"/>
	<polygon class="st5" points="182.8,311.5 54.6,223 54.7,76.5 177.8,10.6 300.7,76 305.8,218.7 	"/>
	<polygon class="st6" points="300.3,153.2 176.1,80.5 56.6,153.1 55.7,151.7 176.1,78.5 301.1,151.7 	"/>
	<polygon class="st6" points="300.3,205.4 176.1,132.8 56.6,205.4 55.7,203.9 176.1,130.8 301.1,203.9 	"/>
	<g>
		<defs>
			<polygon id="SVGID_1_" points="180.4,314.3 52.3,225.9 52.4,79.3 175.4,13.5 303.6,77.5 303.5,221.6 			"/>
		</defs>
		<clipPath id="SVGID_2_">
			<use xlink:href="#SVGID_1_"  style="overflow:visible;"/>
		</clipPath>
		<g class="st7">
			<rect x="175.2" y="12.2" class="st8" width="1.7" height="150"/>
			<polygon class="st6" points="300.3,127.5 176.1,54.9 56.6,127.5 55.7,126 176.1,52.9 301.2,126 			"/>
			<polygon class="st6" points="300.3,174.8 176.1,100.5 56.6,174.8 55.7,173.4 176.1,98.5 301.2,173.4 			"/>
		</g>
	</g>
	<polygon class="st9" points="56.1,223.7 180.4,314.3 299.4,223.8 175.4,151 	"/>
	<polygon class="st4" points="165.3,53.4 116.2,151.3 116.2,73.7 160.7,50.8 	"/>
	<rect x="130.7" y="82.1" class="st10" width="1.7" height="135.6"/>
	<rect x="152.2" y="66" class="st10" width="1.7" height="135.6"/>
	<rect x="141.6" y="68.3" class="st10" width="1.7" height="135.6"/>
	<polygon class="st9" points="165.3,131.1 120.8,154 120.8,76.3 165.3,53.4 	"/>
	<g>
		<defs>
			<polygon id="SVGID_3_" points="56.1,223.7 180.4,314.3 299.4,223.8 175.4,151 			"/>
		</defs>
		<clipPath id="SVGID_4_">
			<use xlink:href="#SVGID_3_"  style="overflow:visible;"/>
		</clipPath>
		<g class="st11">
			<line class="st12" x1="88.1" y1="203.2" x2="88.1" y2="260.5"/>
			<line class="st12" x1="112.1" y1="166.8" x2="112.1" y2="281"/>
			<line class="st12" x1="136" y1="166.8" x2="136" y2="295.7"/>
			<line class="st12" x1="159.9" y1="142.2" x2="159.9" y2="321.2"/>
			<line class="st12" x1="183.8" y1="142.2" x2="183.8" y2="321.2"/>
			<line class="st12" x1="207.8" y1="142.2" x2="207.8" y2="321.2"/>
			<line class="st12" x1="231.7" y1="142.2" x2="231.7" y2="321.2"/>
			<line class="st12" x1="255.6" y1="142.2" x2="255.6" y2="321.2"/>
			<line class="st12" x1="279.6" y1="142.2" x2="279.6" y2="321.2"/>
			<line class="st12" x1="64.2" y1="166.8" x2="64.2" y2="281"/>
		</g>
	</g>
	<path class="st13" d="M154.5,140.4l4-3c7.8,17,33.1,26.5,43.8,26.2c3.9,9.1,16.6,2.8,16.6,2.8c10.3,5.7,9.4,17.2,9.4,17.2
		c0.2,9.1,4.9,13.1,4.9,13.1c-0.2,14.9,5.4,22.7,1.7,25C231,224,231,224,231,224l-20.8-16.5l-13.3,6.7l-4.7-8.2l9.2-5.6l-6.8-4.5
		l-0.8-25.1l-7.5-2.3c-23.2-4.2-27.5-17-27.5-17L154.5,140.4z"/>
	<path d="M243.5,132c0-0.5,0-1-0.1-1.4c-0.3-1.8-0.6-3.7-0.6-5.6c0-1.9-0.3-3.7-0.8-5.5c-0.2-0.7-0.3-1.5-0.5-2.2
		c-0.7-2.3-1.4-4.6-3.1-6.5c-1.3-1.5-2.8-2.7-4.4-3.8c-2-1.4-4.1-2.5-6.6-2.8c-0.3,0-0.7-0.2-1-0.3c-2.7-0.7-5.4-1.2-8.2-1.1
		c-1.9,0.1-3.9,0.1-5.8,0.1c-2.9-0.1-5.6,1-8.4,1.5c-0.1,0-0.3,0.1-0.4,0.2c-2.1,1-4.3,2-6.3,3.1c-4.6,2.5-7.9,6.3-9.5,11.4
		c-0.3,1.1-0.7,2.3-0.9,3.4c-0.6,3.1-1.2,6.3-1.8,9.4c-0.8,3.7-0.9,7.4-0.4,11.1c0.1,1,0.5,2,0.6,3c0.2,1.8,0.9,3.4,1.7,4.9
		c2.1,3.8,5.1,6.7,9.3,8.2c1.1,0.4,2.2,0.9,3.2,1.4c0.7,0.4,1.4,0.8,2.1,1.3c0.5,0.4,1,1,0.6,1.8c-0.9,0.1-1.8,0.1-2.7-0.1
		c-2.9-0.7-5.8-1.3-8.7-2.2c-4.8-1.4-9.4-3.3-13.8-5.7c-1.8-0.9-3.5-2-5.2-3c-1.6-0.9-2.6-2.5-3.9-3.7c-0.3-0.3-0.5-0.6-0.8-1
		c0.1-0.1,0.2-0.1,0.3-0.2c-0.5-0.3-1-0.7-1.3-1.1c0,0,0,0,0,0c-0.5-0.5-0.9-0.8-1.2-1.2c-1.1-1.4-2.1-2.8-3.1-4.1
		c-0.4-0.5-0.7-1-0.6-1.7c0.1-2.1-0.5-4.1-1-6.1c-0.1-0.3-0.1-0.5-0.2-0.9c0.5-0.3,1.1-0.6,1.6-0.9c1.3-0.7,1.6-2.6,1.1-3.9
		c-0.5-1.3-2.4-1.8-3.8-1.2c-0.6,0.3-1.1,0.6-1.7,1c-1.5-0.8-3-0.9-4.6-0.8c-0.6,0.1-1.2,0.2-1.8,0.4c-0.6,0.2-1.1,0.6-1.4,1.2
		c-0.4,0.8-0.8,1.6-1.3,2.4c0.3,1-0.1,2-0.1,2.8c0.4,0.1,0.7,0.4,0.8,0.9c0.4,2.4,2.3,3.3,3.9,4.6c0.6,0.5,1.2,0.9,1.8,1.4
		c0.5,0.5,0.8,1.1,0.9,1.8c0.2,1.9,0.9,3.6,1.5,5.4c0.5,1.4,1.3,2.6,2.2,3.9c-0.1,0.1-0.2,0.1-0.3,0.2c0.5,0.5,1,1.1,1.3,1.7
		c0.3,0.2,0.5,0.4,0.7,0.6c1,1.1,2,2.3,2.9,3.5c2.4,2.9,5.2,5.1,8.7,6.5c0.7,0.3,1.4,0.6,2.1,0.9c3.7,1.8,7.6,2.9,11.6,3.7
		c2.6,0.5,5,1.4,7.5,2.3c0,0.4,0.1,0.7,0.1,0.9c-0.1,1.1-0.2,2.2-0.3,3.3c-0.1,0.8-0.2,1.7-0.2,2.5c0,3.2,0,6.4-0.1,9.6
		c0,1.6,0,3.2-0.2,4.8c-0.1,0.9-0.2,1.9-0.2,2.8c0.5,0.4,1.1,0.8,1.6,1.2c0.1-2,0.3-4.1,0.3-6.1c0.1-1.5,0-3.1,0.1-4.6
		c0-1.3,0.2-2.6,0.1-3.9c-0.2-3.6,0-7.1,0.6-10.6c0.1-0.3,0.1-0.6,0.1-0.8c0-0.8-0.2-1.1-1-1.3c-2.8-0.8-5.6-1.7-8.4-2.2
		c-5.2-0.9-10-2.9-14.6-5.2c-2.6-1.3-4.9-2.9-6.8-5.1c-1-1.1-1.8-2.3-2.8-3.3c-2.7-2.9-4.5-6.2-5.3-10.1c-0.2-0.8-0.1-1.5,0-2.2
		c0.7-0.5,1.3-0.9,2.1-0.8c0.8,1.2,1.6,2.4,2.4,3.5c0.5,0.7,1.1,1.4,1.7,2.1c2,2.9,4.1,5.8,6.9,8c0.2,0.2,0.4,0.4,0.6,0.6
		c0.7,0.5,1.3,1.1,2,1.5c1.5,0.9,3.1,1.8,4.7,2.6c4.4,2.2,8.9,4.1,13.6,5.6c0.3,0.1,0.5,0.2,0.8,0.3c3.2,0.8,6.3,1.6,9.4,2.3
		c0.7,0.9,1.4,1.8,2.2,2.7c0.6,0.7,1.4,1.2,2.2,1.5c1.8,0.7,3.6,0.9,5.5,1c1.7,0.1,3.3-0.3,4.9-0.9c1.2-0.5,2-1.5,2.8-2.4
		c0.3-0.3,0.2-1,0.3-1.7c1.3,0.8,2.5,1.6,3.3,2.8c0.7,1.1,1.5,2.1,2.4,3.2c1.6,2.1,2.9,4.3,3.3,6.9c0.2,1.4,0.4,2.9,0.5,4.3
		c0.1,1.5,0,3.1,0.2,4.6c0.1,0.9,0.2,1.8,0.6,2.6c0.7,1.7,1.6,3.4,2.4,5.1c0.4,0.8,0.6,1.5,0.6,2.4c0,1.5,0,3.1-0.1,4.6
		c-0.1,1.3-0.2,2.6,0,3.9c0.3,1.6,0.6,3.3,1,4.9c0.5,2,0.9,4.1,0.8,6.2c0,1-0.4,1.8-1.1,2.6c-0.7,0.8-1.5,1.3-2.4,1.8
		c1.1,0.8,2.1,1.7,3.2,2.5c0.3-0.2,0.5-0.4,0.8-0.6c-0.3-0.9-0.2-1.6,0.5-2.4c0.7-0.9,0.8-2.1,0.7-3.2c-0.2-2.2-0.4-4.4-1-6.6
		c-0.8-2.7-1-5.4-0.9-8.2c0.1-1.6,0-3.2,0-4.8c0-0.8-0.2-1.5-0.5-2.2c-0.8-1.7-1.6-3.5-2.4-5.3c-0.6-1.2-0.8-2.3-0.9-3.6
		c-0.1-1.9-0.1-3.9-0.3-5.8c-0.1-1.1-0.3-2.2-0.6-3.3c-0.7-2.4-1.6-4.6-3-6.6c-0.9-1.2-1.8-2.5-2.6-3.8c-1.2-2-3-3.4-5-4.4
		c-0.2-2.4,0.1-3.2,2.1-4.3c1-0.5,2-0.9,3-1.4c0.5-0.3,0.9-0.4,1.5-0.4c1.2,0,2.3-0.2,3.1-1.2c0.1-0.1,0.3-0.3,0.5-0.2
		c1.6,0.3,2.6-0.8,3.7-1.5c2.2-1.6,4-3.6,5.9-5.6c2.1-2.3,3.5-5,4.8-7.7c0.2-0.5,0.3-0.9,0.1-1.4c-0.3-0.5-0.2-1-0.2-1.6
		C243,136.4,243.3,134.2,243.5,132z M160.5,127.3c0.8,0.2,1.3,0.9,1,1.6c-0.1,0.1-0.4,0.3-0.5,0.3c-0.6-0.2-0.9-0.9-0.9-1.5
		C160.2,127.5,160.4,127.4,160.5,127.3z M151.1,129c0.2-0.1,0.3-0.3,0.5-0.3c1.1-0.2,2.2-0.3,3.7,0.2c-1,0.8-1.7,1.4-2.5,1.9
		c-0.6-0.2-1.2-0.4-1.7-0.7C150.8,129.9,150.8,129.2,151.1,129z M158.5,137.4c-0.1,0-0.1,0-0.2,0.1c-1,0.5-2,1-3.1,1.5
		c-1-0.8-2.2-1.6-3.3-2.5c-0.4-0.3-0.8-0.8-1.1-1.2c-0.2-0.3-0.3-0.6-0.4-1c-0.1-0.6,0.2-1.1,0.6-1.5c0.4-0.3,1.1-0.3,1.6,0
		c0.4,0.3,0.8,0.6,1.1,1c0.3,0.3,0.5,0.6,0.6,0.8c2,0.4,2.9-1,4.4-1.3c0.3,0.8,0.6,1.5,0.8,2.3C159.6,136.5,159.3,136.9,158.5,137.4
		z M158.5,131c-0.8,0.5-1.6,1-2.5,1.5c-0.8,0.5-0.9,0.4-1.7-0.7c0.3-0.4,0.5-0.7,0.9-1c1.1-0.8,2.3-1.6,3.6-2.5
		c0.3,0.7,0.5,1.2,0.8,1.9C159.3,130.5,158.9,130.8,158.5,131z M237.3,147.7c-2.5,2.8-5.1,5.5-8.8,6.9c-0.4,0.2-0.9,0.3-1.4,0.4
		c-0.9,0.2-1.8,0.4-2.6,0.7c-0.7,0.3-1.4,0.6-2.2,0.6c-0.2,0-0.4,0-0.6,0.1c-1.4,0.8-2.8,1.5-3.9,2.7c-0.6,0.6-1,1.3-0.9,2.2
		c0,1.4,0,2.8,0.1,4.2c0.1,1-0.3,1.8-1,2.3c-0.9,0.7-1.9,1.3-3.2,1.4c-1.4,0.1-2.7,0.4-4.1,0.3c-1.3-0.1-2.4-0.5-3.6-1.1
		c-0.9-0.5-1.3-1.1-1.1-2.2c0.3-1.8,0-3.4-0.8-5c-0.6-1.1-1.4-2.1-2.6-2.6c-1.8-0.8-3.5-1.6-5.3-2.4c-1.9-0.9-3.6-2-4.9-3.7
		c0-0.1-0.1-0.1-0.1-0.2c-2.7-2.3-3.5-5.6-4.2-8.9c-0.2-0.7-0.3-1.5-0.4-2.3c0-0.2-0.1-0.4,0-0.6c0.8-1.9,0.2-3.8,0.4-5.8
		c0.1-1,0.2-1.9,0.4-2.9c0.5-2.7,1-5.3,1.5-8c0.1-0.4,0.3-0.8,0.4-1.3c1,0.2,1.8,0.3,2.7,0.5c2.2,0.5,4.2,0.3,6.3-0.7
		c3.7-1.9,7.1-4.1,10-7c1.3-1.3,2.8-2.4,4.3-3.7c0.9,2.3,1.8,4.5,2.7,6.6c1.4,3.1,3.9,5.2,6.9,6.6c1.3,0.6,2.6,1,3.8,1.5
		c-0.1,1-0.1,2-0.2,2.9c0.7,0.2,0.9-0.2,1.1-0.5c0.5-1,1.2-1.9,2-2.6c1.3-1.1,2.6-1.4,4.2-0.8c1,0.4,1.8,1,2.5,1.8
		c0.6,0.6,0.9,1.3,0.9,2c0.1,0.6,0,1.3,0.1,1.9c0.1,1.6-0.8,2.4-2,3c-0.6,0.3-1.2,0.4-1.7,0.7c-0.8,0.4-0.9,0.7-0.4,1.6
		c0.1,0.1,0.2,0.2,0.4,0.3c0.3-0.1,0.6-0.2,0.9-0.3c0.7-0.2,1.1,0,1,0.8c-0.1,1.6,0.4,3.1,0.9,4.6c0.5,1.3,1.1,2.5,2.1,3.6
		c0.3,0.3,0.5,0.7,0.8,1.1C237.7,147,237.6,147.4,237.3,147.7z M242,133.8c-0.1,0.8-0.1,1.5-0.2,2.3c-0.5,2.7-1.2,5.4-2.3,8
		c-0.1,0.2-0.3,0.4-0.5,0.8c-2.8-2.6-3.6-5.8-3.4-9.4c1.2-1,1.4-2.5,1.4-4c0-0.8,0-1.7,0-2.5c-0.1-1.5-0.7-2.8-1.6-4
		c-1.4-1.9-4-2.5-6.2-1.9c-0.7,0.2-1.3,0.8-1.9,1.3c-2.2-0.4-4.3-1-6.3-2c-2.2-1.1-4.1-2.6-5.3-4.8c-1.2-2.3-2.4-4.5-2.7-7.2
		c0-0.5-0.3-1-0.4-1.6c-1,0.3-1.6,1-2.2,1.6c-1.8,1.9-3.8,3.6-5.9,5.2c-2.5,1.9-5.1,3.5-8,4.8c-1.9,0.8-3.8,1.1-5.9,0.6
		c-0.5-0.1-0.9-0.2-1.5-0.3c0-0.4-0.1-0.7,0-1c0.6-2.5,2.1-4.5,3.9-6.3c1.9-1.9,4.1-3.3,6.5-4.4c2.1-1,4.2-2.1,6.5-2.7
		c2.5-0.6,5-0.9,7.6-1c2.5-0.1,5,0,7.5-0.1c1.1,0,2.2,0.1,3.3,0.5c0.9,0.3,1.8,0.6,2.8,0.8c3.2,0.6,5.9,2.4,8.4,4.4
		c1.9,1.5,3.5,3.4,4.2,5.8c0.6,2.1,1.2,4.3,1.7,6.4c0.1,0.3,0.2,0.5,0.2,0.8C241.4,127.2,242.5,130.5,242,133.8z"/>
	<path class="st8" d="M148,130.7c-0.1,0.2-0.2,0.3-0.3,0.5c-1.6-0.2-3,0.2-4.5,0.5c-1.6,0.3-2.9-0.5-3.3-2.1
		c-0.2-0.9-0.2-1.8,0.2-2.6c0.5-1.1,1.2-2,2.2-2.8c1.6-1.2,3.3-2.3,5.2-3c2.6-1,5.1-2.1,7.6-3.3c1-0.5,1.9-1.4,2.7-2.2
		c1.4-1.5,1.4-3.3,0.9-5.1c-0.3-1.2-0.9-2.3-1.5-3.4c-0.5-0.9-1.2-1.6-2.2-1.8c-1.3-0.3-1.9-1.2-2.4-2.4c-1.5-3.4-4.3-5-7.8-5.6
		c-2.8-0.4-5.7-0.2-8.4,1c-0.3,0.1-0.6,0.1-0.8,0.3c-1.5,1.3-3.3,2.3-4.4,4.1c-0.7,1-1.4,2.1-2.1,3.1c-1.1,1.6-1.5,3.6-1.9,5.5
		c-0.2,1-0.2,2.1,0.5,3c0.1,0.2,0.4,0.2,0.9,0.5c-0.8-3.3,0.3-5.7,1.6-8.1c0.9-1.6,2.2-3,3.6-4.3c2.4-2.3,5.4-3,8.6-3.2
		c2.5-0.1,4.8,0.7,6.8,2.1c1.2,0.9,2.1,2,2.5,3.6c-0.9,0.4-1.8,0.8-2.6,1.3c-1.9,0.9-3.1,3.1-2.8,5.1c0.2,1.6,1.2,2.4,2.7,2.1
		c1.1-0.2,2.1-0.7,3.1-1.2c0.9-0.4,1.1-1.4,1.2-2.3c0.1-0.9,0.2-1.8,0.3-2.8c0.4,0,0.9-0.1,1.2,0.1c1.9,1,3.1,4.1,2.3,6.1
		c-0.3,0.6-0.7,1.2-1.2,1.6c-0.9,0.7-1.8,1.3-2.8,1.8c-2.6,1.2-5.3,2.3-8,3.5c-1.7,0.8-3.3,1.7-4.7,3c-2.3,2.1-2.6,4.6-1.9,7.4
		c0.4,1.9,2.5,3.2,4.4,3.1c0.6-0.1,1.2-0.3,1.8-0.4c0.8-0.1,1.5-0.2,2.3-0.2c0.2,0,0.4,0,0.6,0.1C148,132.6,148.3,131.7,148,130.7z
		 M152,110.5c-0.8,0.9-1.8,1.5-3,1.5c-0.6,0-1.1-0.5-1-1c0.1-0.5,0.2-1,0.5-1.3c0.9-1.3,2.2-2,3.8-2.1
		C152.7,108.6,152.7,109.6,152,110.5z"/>
	<path class="st4" d="M157.2,174.4c-3,0-6,0.8-8.4,2.4l-43.1,29.3c-2.2,1.5-3.5,3.6-3.6,5.6c0,1.9,0.9,3.6,2.7,4.9l82.1,60.3
		c4.1,3,11.5,3,16.1-0.2l38.6-33.6c2.2-1.5,3.5-3.6,3.6-5.6c0-1.9-0.9-3.6-2.7-4.9l-77.6-56C162.8,175.1,160,174.4,157.2,174.4z"/>
	<path class="st14" d="M168.2,240.1l-29.6-25.4c-4.9-4.2-4.7-10.1,0.5-13.2l14.6-8.6c5.2-3.1,13.4-2.1,18.3,2.1l29.6,25.4
		c4.9,4.2,4.7,10.1-0.5,13.2l-14.6,8.6C181.3,245.2,173.1,244.3,168.2,240.1z"/>
	<g>
		<path class="st10" d="M282.6,208.3L282.6,208.3c-2.6,0-4.8-2.1-4.8-4.8l0,0c0-2.6,2.1-4.8,4.8-4.8l0,0c2.6,0,4.8,2.1,4.8,4.8l0,0
			C287.4,206.2,285.2,208.3,282.6,208.3z"/>
		<path class="st0" d="M282.6,209.3c-3.2,0-5.7-2.6-5.7-5.7c0-3.2,2.6-5.7,5.7-5.7c3.2,0,5.7,2.6,5.7,5.7
			C288.3,206.7,285.8,209.3,282.6,209.3z M282.6,199.7c-2.1,0-4.6,2.3-4.6,4.4s1.7,3.8,3.8,3.8s4.6-2.3,4.6-4.4
			C286.4,201.4,284.7,199.7,282.6,199.7z"/>
	</g>
	<path d="M221,181.6c-0.2-1.1-0.8-2.2-1.2-3.3c-0.1-0.1-0.4-0.2-0.6-0.2c-0.2,0-0.4,0.2-0.4,0.4c-0.1,0.7-0.1,1.4,0.2,2
		c0.2,0.4,0.4,0.9,0.6,1.3c0.8,3,0.8,6,0.2,9.1c-0.6,3-1.9,5.7-3.2,8.5c-0.9,2-2.5,3.4-4.2,4.5c-2.8,1.8-5.8,3.3-8.7,4.9
		c-2,1.1-4.1,2-6.2,3c-0.4,0.2-0.7,0.3-1.2,0.4c-0.3-1.9-1.7-3.1-2.5-4.6c1.4-0.5,2.6-0.9,3.9-1.2c1.4-0.3,2.9-0.7,4.1-1.4
		c2.1-1.1,4.2-2.4,6.2-3.8c2.2-1.5,4-3.5,5.4-5.7c0.4-0.7,0.8-1.5,1.1-2.2c0.7-2.3,1-4.6,0.8-7c-0.2-2.1-0.8-4.2-1.2-6.3
		c-0.1-0.4-0.3-0.7-0.7-0.6c-0.4,0.1-0.5,0.5-0.5,0.8c0,0.4,0,0.8,0.1,1.2c0.2,1.2,0.3,2.3,0.6,3.5c0.7,2.5,0.4,4.9-0.5,7.3
		c-0.3,0.7-0.5,1.5-0.9,2.1c-1.6,2.2-3.4,4.2-5.7,5.7c-0.8,0.5-1.6,1-2.5,1.5c-2,1.1-4,2.2-6.3,2.7c-1.6,0.4-3.2,0.9-4.8,1.4
		c-0.3,0.1-0.5,0.2-0.8,0.3c-0.6,0.1-1.1,0-1.5-0.5c-0.5-0.6-0.9-1.2-1.4-1.8c-0.3-0.4-0.7-0.9-1.1-1.2c-0.4-0.4-1-0.5-1.5-0.5
		c-0.8,0.1-1.3,0.5-1.3,1.3c0,1.2-0.1,2.4,0.4,3.5c0.2,0.4,0.2,0.9,0.4,1.6c-0.9,0.2-1.6,0.3-2.3,0.5c-1.4,0.4-2.3,1.3-2.3,2.8
		c0,1,0,1.9,0,2.9c0.6,0.1,1,0.2,1.6,0.3c-0.9,1.3-1.6,2.5-1,4c1.6,1.1,1.6,1.1,3,0.1c0.5-0.3,1-0.7,1.8-0.8
		c-0.1,0.7-0.2,1.3-0.2,1.9c0,1.4,0.2,1.9,1.2,2.1c1.5-0.8,2.9-1.8,4.2-2.9c-0.1-0.2-0.2-0.3-0.3-0.5c1.2-1.2,2.3-2.4,3.5-3.6
		c0.4-0.4,0.8-0.7,1.3-1c2-1,4-1.9,6-2.9c3.4-1.6,6.8-3.2,9.9-5.3c2.6-1.7,4.8-4,5.9-7c0.3-0.8,0.6-1.6,1-2.3
		c1.1-2.3,1.5-4.9,1.8-7.4C221.7,186.7,221.5,184.2,221,181.6z M194.7,213.2c-1,1-2.1,2-3.2,3.1c-0.6,1.3-1.2,2.7-2.2,3.8
		c-0.3,0.4-0.7,0.4-1.1,0.2c0,0-0.1,0.1-0.1,0.1c0,0,0-0.1,0-0.1c-0.4-0.3-0.6-0.8-0.2-1.2c0.8-1,1.4-2.1,1.9-3.3
		c-0.2-0.2-0.4-0.4-0.6-0.6c-0.1,0.1-0.2,0.2-0.3,0.2c-1.7,0.3-2.8,1.4-4,2.4c-0.5,0.5-0.5,0.5-1.5,0.3c0-0.8,0.4-1.3,1-1.7
		c0.7-0.5,1.5-1,2.3-1.5c0.6-0.4,1.2-0.7,1.9-1.1c-0.2-0.5-0.3-1-0.4-1.4c-1.4,0.2-2.8,0.3-4.2,0.3c-0.6,0-0.9-0.5-0.9-0.9
		c0,0,0,0,0-0.1c0-0.4,0.2-0.7,0.7-0.8c0.3,0,0.6,0,0.9,0c0.2-0.1,0.5-0.1,0.7-0.2c2.2-0.5,2.9-1.8,1.9-3.7
		c-0.4-0.7-0.5-1.4-0.6-2.2c0-0.2,0.1-0.5,0.1-0.7c0.5-0.2,0.8,0.1,1,0.3c0.3,0.4,0.6,0.9,0.9,1.4c0.8,1.3,1.7,2.4,3.2,3.1
		c1.2,0.6,2,1.7,2.7,2.8C195,212.3,195.1,212.8,194.7,213.2z"/>
	<path class="st0" d="M282.7,205.4c-0.4-0.6-0.8-1.2-1.2-1.8c-0.8,0.6-22.2,16.2-23.2,16.7c-0.9,1.1-2,1.9-3.2,2.7
		c-0.7,0.7-1.5,1.4-2.2,2.1c-1.5,1.4-2.7,2.9-3.6,4.8c-0.8,1.4-6.5,19.2-7.1,20.7c0.4,0.4,0.8,0.8,1.2,1.2c0-0.1,5.2-16.5,5.2-16.5
		c0.5-1.4,1.2-2.7,1.8-4c1.3-2.8,3.7-4.7,5.6-6.9c0.3-0.3,0.6-0.5,1-0.5c1-0.8,2.1-1.5,3.3-2c-0.1-0.1-0.2-0.1-0.3-0.2
		C260.7,221.2,282,205.8,282.7,205.4z"/>
	<path class="st0" d="M197.9,288.2c0-0.1,0-0.2,0.1-0.2c0.2-0.2,0.3-0.5,0.6-0.6c1.4-1,2-2.4,2.1-4.1c0.1-1-0.1-1.9-0.4-2.8
		c-0.5,0.2-1.1,0.4-1.7,0.5c0.5,0.9,0.6,1.9,0.6,2.9c-0.8,1.3-2.1,2-3.5,2.8c-1.1-0.9-1.8-1.9-2.2-3.1c-0.3-0.8-0.2-1.6,0.4-2.3
		c0,0,0,0,0,0c-0.6,0-1.2-0.1-1.8-0.2c-0.9,1.2-1,2.5-0.5,3.9c0.2,0.6,0.5,1.1,0.8,1.7c0.2,0.4,0.4,0.7,0.6,1.1
		c-0.4,0.2-0.7,0.4-1,0.4c-3.9,0.7-7.8,0.9-11.7-0.3c-1.6-0.5-3.3-1.1-4.8-1.7c0.5,1.1,0.2,1,0.8,2c1.5,0.5,3.7,2.1,5.2,2.5
		c1.4,0.4,2.9,0.4,4.3,0.4c3.1-0.1,6.1-0.3,8.9-1.4c1.5,0.6,2.9,1.3,4.4,1.8c1,0.4,2.1,0.7,3.1,1c0.2-0.8,0.4-1.5,0.5-2.3
		c-1.4-0.3-2.7-0.8-4.1-1.4C198.3,288.7,197.9,288.6,197.9,288.2z"/>
	<path d="M261.6,242c0.3-0.6,0.7-0.9,1.4-1.1C262.7,241.6,262.2,241.9,261.6,242C261.6,241.9,261.6,242,261.6,242z"/>
	<path d="M77.2,150.9c0.1,0.9-0.6,1-1.3,1.5C76.5,151.5,76.5,151.5,77.2,150.9C77.3,151,77.2,150.9,77.2,150.9z"/>
	<path d="M264.8,239.2c0.2-0.1,0.3-0.2,0.5-0.3c0,0.1,0.1,0.2,0.1,0.3c0,0.1-0.2,0.2-0.3,0.2C265,239.4,264.9,239.3,264.8,239.2z"/>
	<path d="M78.4,150c-0.3,1-0.3,1-1.1,1c0,0,0,0,0,0C77.6,150.7,78,150.3,78.4,150C78.4,150,78.4,150,78.4,150z"/>
	<path d="M232.7,249.7c-0.2-0.3-0.4-0.7,0.2-0.9C232.9,249.1,232.8,249.4,232.7,249.7C232.7,249.7,232.7,249.7,232.7,249.7z"/>
	<path d="M231.4,249.7c0.2,0.8,0.2,0.8-0.6,1c0,0,0,0,0,0C231,250.4,231.2,250,231.4,249.7C231.4,249.7,231.4,249.7,231.4,249.7z"/>
	<path d="M88.5,39.8c-0.4,0.4-0.7,0.4-1.2,0.1c0,0,0,0,0,0C87.8,39.8,88.2,39.8,88.5,39.8C88.6,39.8,88.5,39.8,88.5,39.8z"/>
	<path d="M198.3,273.2c0.1-0.1,0.1-0.3,0.2-0.3c0.1,0,0.2,0.1,0.3,0.1c0,0-0.1,0.1-0.1,0.1C198.5,273.2,198.3,273.2,198.3,273.2
		C198.2,273.2,198.3,273.2,198.3,273.2z"/>
	<path class="st15" d="M237.3,147.7c-2.5,2.8-5.1,5.5-8.8,6.9c-0.4,0.2-0.9,0.3-1.4,0.4c-0.9,0.2-1.8,0.4-2.6,0.7
		c-0.7,0.3-1.4,0.6-2.2,0.6c-0.2,0-0.4,0-0.6,0.1c-1.4,0.8-2.8,1.5-3.9,2.7c-0.6,0.6-1,1.3-0.9,2.2c0,1.4,0,2.8,0.1,4.2
		c0.1,1-0.3,1.8-1,2.3c-0.9,0.7-1.9,1.3-3.2,1.4c-1.4,0.1-2.7,0.4-4.1,0.3c-1.3-0.1-2.4-0.5-3.6-1.1c-0.9-0.5-1.3-1.1-1.1-2.2
		c0.3-1.8,0-3.4-0.8-5c-0.6-1.1-1.4-2.1-2.6-2.6c-1.8-0.8-3.5-1.6-5.3-2.4c-1.9-0.9-3.6-2-4.9-3.7c0-0.1-0.1-0.1-0.1-0.2
		c-2.7-2.3-3.5-5.6-4.2-8.9c-0.2-0.7-0.3-1.5-0.4-2.3c0-0.2-0.1-0.4,0-0.6c0.8-1.9,0.2-3.8,0.4-5.8c0.1-1,0.2-1.9,0.4-2.9
		c0.5-2.7,1-5.3,1.5-8c0.1-0.4,0.3-0.8,0.4-1.3c1,0.2,1.8,0.3,2.7,0.5c2.2,0.5,4.2,0.3,6.3-0.7c3.7-1.9,7.1-4.1,10-7
		c1.3-1.3,2.8-2.4,4.3-3.7c0.9,2.3,1.8,4.5,2.7,6.6c1.4,3.1,3.9,5.2,6.9,6.6c1.3,0.6,2.6,1,3.8,1.5c-0.1,1-0.1,2-0.2,2.9
		c0.7,0.2,0.9-0.2,1.1-0.5c0.5-1,1.2-1.9,2-2.6c1.3-1.1,2.6-1.4,4.2-0.8c1,0.4,1.8,1,2.5,1.8c0.6,0.6,0.9,1.3,0.9,2
		c0.1,0.6,0,1.3,0.1,1.9c0.1,1.6-0.8,2.4-2,3c-0.6,0.3-1.2,0.4-1.7,0.7c-0.8,0.4-0.9,0.7-0.4,1.6c0.1,0.1,0.2,0.2,0.4,0.3
		c0.3-0.1,0.6-0.2,0.9-0.3c0.7-0.2,1.1,0,1,0.8c-0.1,1.6,0.4,3.1,0.9,4.6c0.5,1.3,1.1,2.5,2.1,3.6c0.3,0.3,0.5,0.7,0.8,1.1
		C237.7,147,237.6,147.4,237.3,147.7z"/>
	<path class="st16" d="M154,87.2c-0.6,0.3-1.2,0.6-1.9,1c-0.5,1.4-1,2.9-0.2,4.5c0.3,0.5,0.7,0.7,1.2,0.4c0.7-0.4,1.4-0.8,2.1-1.2
		c0.4-0.2,0.7-0.4,1.1-0.6c1.6-0.5,3.1,0.6,3.1,2.3c0,2.1-1.5,3.4-3.7,3.2c-0.8-0.1-1.6-0.4-2.4-0.7c-0.4-0.1-0.7-0.3-1.2-0.4
		c-0.1,0.7-0.3,1.3-0.4,1.9c-0.7-0.1-0.9-0.5-0.9-1.1c0-0.3,0.1-0.7,0.2-1c0.2-0.7,0.2-1.4-0.2-2c-1-1.8-0.4-3.6,0.2-5.4
		c0.4-1.1,1.4-1.5,2.7-1.2C153.9,86.8,153.9,87,154,87.2z M154.1,94.3c0.7,0.9,1.5,0.5,2.3,0.6c0.7,0,1.2-0.4,1.6-0.8
		c0,0,0.1-0.1,0.1-0.2c0.3-0.4,0.1-1-0.3-1.3c-0.7-0.4-1.2-0.5-1.9,0C155.4,93.2,154.8,93.8,154.1,94.3z"/>
	<path d="M200.3,150.7c0.8,0.2,1.5,0.3,2.2,0.5c1.8,0.6,3.5,0.5,5.3,0.3c1.5-0.2,2.9-0.8,4.2-1.7c0.4-0.3,0.8-0.6,1.1-0.9
		c0.3-0.2,0.6-0.3,0.9-0.1c0.3,0.2,0.5,0.8,0.3,1.1c-0.8,1-1.5,2.1-2.8,2.6c-2.1,0.8-4.2,1.4-6.4,1.3c-1.6-0.1-3-0.6-4.2-1.5
		C200.4,152,199.9,151.5,200.3,150.7z"/>
	<path d="M204.5,143.3c1.4-1,1.4-2.4,1.8-3.7c0.3-1.2,0.6-2.5,0.9-3.8c0.9,0.2,1.1,0.3,0.9,1c-0.4,2.1-0.7,4.2-1.6,6.2
		c-0.3,0.7-0.7,1.3-1.1,1.9c-0.2,0.3-0.5,0.5-0.7,0.7c-0.7,0-1.1-0.4-1.3-0.9c-0.3-0.7-0.7-1.4-0.9-2.1c-0.7-2.7-0.8-5.3,0.2-7.9
		c0.1-0.2,0.2-0.3,0.4-0.4c0.5,0.2,0.4,0.5,0.3,0.8c-0.6,1.9-0.7,3.8-0.3,5.7C203.4,141.9,203.5,142,204.5,143.3z"/>
	<path d="M228.4,131c-0.4-1,0.2-1.7,0.8-2.4c0.1-0.1,0.2-0.2,0.3-0.2c0.6-0.4,1.2-1,2.1-0.6c1,0.4,1.8,1.1,2,2.2
		c0.2,1.3,0.1,2.5-0.9,3.5c-1.3-1,0-1.9,0-2.7c0-0.2,0-0.3-0.1-0.3c-1-1.4-1.8-1.5-3-0.2C229.3,130.6,229.1,131.1,228.4,131z"/>
	<path d="M201.1,125.9c0,0.7-0.2,1.4-0.7,1.9c-0.7,0.6-1.7,0.5-2-0.3c-0.2-0.6-0.3-1.2-0.3-1.8c0-0.9,0.7-1.6,1.5-1.6
		c0.9,0,1.5,0.7,1.5,1.6C201.1,125.7,201.1,125.8,201.1,125.9z"/>
	<path d="M211.3,124.9c0.6-0.4,1.1-0.7,1.7-0.4c0.5,0.3,0.6,0.9,0.6,1.5c0,0.4-0.1,0.8-0.2,1.2c-0.3,0.7-0.9,1-1.5,0.8
		c-0.6-0.2-1-0.8-1-1.4C211,126,211.2,125.5,211.3,124.9z"/>
	<ellipse class="st9" cx="56.1" cy="150.1" rx="9.2" ry="23.4"/>
	<ellipse class="st9" cx="56.1" cy="198.6" rx="9.2" ry="25.1"/>
	<ellipse class="st9" cx="300.7" cy="150.1" rx="9.2" ry="23.4"/>
	<path class="st0" d="M242,251.4c-0.6,1.3-2.7,6.3-3.4,7.6c-0.9,0.9-28,33.2-35.9,31.3l-3.6,1.4c0,0,2.8,1.9,6.3,0.4
		c6.3-3.3,12.8-9.3,21.7-18c7.4-7.2,13.8-12,17-22.6C242.9,252.4,243.3,250.6,242,251.4z"/>
	<path d="M242.5,231.1l-32.3-23.6c-0.6,0.4-1.1,0.8-1.7,1.1l32.9,24c1.8,1.3,2.8,3.1,2.7,4.9c0,2.1-1.3,4.1-3.6,5.6l-37.5,33.5
		c-4.6,3.1-12,3.2-16.1,0.2l-82.1-60.3c-1.8-1.3-2.8-3.1-2.7-4.9c0-2.1,1.3-4.1,3.6-5.6l43.1-29.3c2.3-1.6,5.4-2.4,8.4-2.4
		c2.9,0,5.7,0.7,7.7,2.2l37.4,27.4c0.6-0.4,1.1-0.8,1.7-1.2L166,175c-4.8-3.5-13-3.5-18.3,0.1l-43.1,29.3c-2.8,1.9-4.4,4.5-4.4,7.2
		c0,2.5,1.2,4.8,3.5,6.5l82.1,60.3c2.4,1.7,5.6,2.6,8.8,2.6c3.4,0,6.8-0.9,9.5-2.7l37.5-33.5c2.8-1.9,4.4-4.5,4.4-7.2
		C246.1,235.1,244.8,232.8,242.5,231.1z"/>
	<path class="st0" d="M171.9,280.4c-0.5-0.7-1-1.6-1.2-2.4c-0.6-2.1-0.5-4.3,0-6.4c0.2-0.8,0.6-1,1.4-0.8c1.6,0.5,3.2,0.4,4.7,0.3
		c1.5-0.1,2.6-0.8,3.5-1.9c0.9-1.1,0.6-3.3-0.5-4.2c-1.4-1.1-4.4-1.2-5.9-0.2c-0.6,0.4-1.2,0.8-1.7,1.2c-0.5,0.4-1,0.9-1.4,1.4
		c-2.5-1.7-3.8-3.2-4.8-5.7c-0.2-0.4-0.3-0.9-0.6-1.3c-1-1.8-1.2-3.7-1.1-5.7c0.2-2.5,0.3-5,1.1-7.4c0.8-2.3,1.5-4.6,2.4-6.9
		c0.5-1.2,1.9-4.8,2.7-5.8c-0.5-0.1-1-0.1-1.5-0.2c-0.6,1.2-2.3,4.7-2.9,6c-2.2,4.9-3.1,10.2-3.7,15.5c0,0.3,0,0.7,0.1,1
		c0.1,0.5,0.2,1.1,0.2,1.6c0,1.3,0.4,2.4,1,3.6c0.2,0.4,0.4,0.7,0.5,1.1c0.6,1.9,1.7,3.5,3.2,4.7c0.4,0.3,0.7,0.7,1.1,1
		c0.7,0.5,0.8,1.1,0.6,2c-0.5,1.9-0.7,3.8-0.6,5.8c0.1,1.6,0.4,3.2,1.3,4.6c1.3,2,2.8,4,4.7,5.5c1.9,1.6,4,2.9,6.2,3.9
		c0.6-0.6,1.2-1.3,1.8-1.9C178.3,287.1,174.7,284.3,171.9,280.4z M176.1,266.2c1.1-0.2,2.2,0,3,0.9c-0.3,1-1.1,1.3-1.9,1.4
		c-1.4,0.1-2.8,0.5-4.2-0.5C173.7,266.9,174.9,266.4,176.1,266.2z"/>
	<path class="st0" d="M184.9,123.9c7.5,5.8,25.4-7.5,25.4-7.5c7.5,11.4,14.9,10.2,14.9,10.2c6.4-8,13.7-1.3,11.9,2.3
		c-1.8,3.6-3.9,7.6-3.9,7.6c0.9,12.2,7.5,13.7,7.5,13.7c11.8-16,6-33.6,6-33.6c-1.7,6.3-1.7,6.3-1.7,6.3c-3.4-21.8-15-24.7-15-24.7
		c2.2,4.6,2.2,4.6,2.2,4.6c-16.4-6-26.4-1.5-26.4-1.5c4.1,1.2,4.1,1.2,4.1,1.2c-21.3,3.6-26.1,12.8-26.1,12.8l6.5-1.7
		C184.9,119,184.9,123.9,184.9,123.9z"/>
	<path d="M46.1,87.9"/>
	<polygon class="st9" points="53.1,174.9 23.4,207.9 55.5,223.7 	"/>
	<polygon class="st9" points="302.2,126.5 331.8,159.5 299.8,175.3 	"/>
	<path class="st13" d="M315,168c-0.8-2.6-1.2-5.7-1.2-9c0-6.2,1.6-11.6,4.1-14.9l14,15.6L315,168z"/>
	<path d="M40.2,216.2c0.8-2.6,1.2-5.7,1.2-9c0-6.2-1.6-11.6-4.1-14.9l-14,15.6L40.2,216.2z"/>
	<polygon class="st6" points="300.3,104.3 176.1,31.7 56.6,104.3 55.7,102.8 176.1,29.7 301.2,102.8 	"/>
	<rect x="102.1" y="216.6" width="2.3" height="31"/>
	<rect x="184" y="276.6" width="2.3" height="31"/>
	<polygon points="243.9,263.5 241.7,263.5 241.7,243.1 243.9,241.4 	"/>
	<path class="st9" d="M65.4,101.4c0,14-5.4,28.7-9.2,25.4c-1.5-1.3-9.2-11.4-9.2-25.4S51,76,56.1,76S65.4,87.4,65.4,101.4z"/>
	<polygon class="st9" points="53.1,76.7 23.4,109.7 55.5,125.5 	"/>
	<path class="st0" d="M40.2,118c0.8-2.6,1.2-5.7,1.2-9c0-6.2-1.6-11.6-4.1-14.9l-14,15.6L40.2,118z"/>
	<ellipse class="st13" cx="54.8" cy="150" rx="3.7" ry="9.2"/>
	<ellipse class="st9" cx="300.7" cy="101.4" rx="9.2" ry="25.4"/>
	<ellipse class="st9" cx="300.7" cy="199" rx="9.2" ry="24.6"/>
	<ellipse class="st0" cx="300.7" cy="102.6" rx="3.7" ry="9.2"/>
	<ellipse cx="300.7" cy="199" rx="3.7" ry="9.2"/>
	<polygon class="st4" points="120.8,154 116.2,151.3 118.7,137.9 120.8,128.9 	"/>
	<path class="st17" d="M175.4,192.8c4.8,4.2,8,13.8,7.1,21.5l-2.6,21.7c-0.9,7.7-5.6,10.5-10.4,6.4l-29.2-25.2
		c-4.8-4.2-8-13.8-7.1-21.5l2.6-21.7c0.9-7.7,5.6-10.5,10.4-6.4L175.4,192.8z"/>
	<path class="st16" d="M154,197c-0.3,0-0.6,0-0.9,0c-2.1,0-3.5,1-4.7,2.6c-1.3,1.9-1.5,4-1,6.2c0.3,1.3,1.1,2.2,2.4,2.6
		c1.3,0.3,2.5,0.6,3.9,0.6c3.8-0.1,4.8-1.4,5.7-4.6c0.4-1.3,0.5-2.8-0.2-4.1C158.1,198.3,156.6,196.7,154,197z"/>
	<path class="st15" d="M151.1,129c0.2-0.1,0.3-0.3,0.5-0.3c1.1-0.2,2.2-0.3,3.7,0.2c-1,0.8-1.7,1.4-2.5,1.9
		c-0.6-0.2-1.2-0.4-1.7-0.7C150.8,129.9,150.8,129.2,151.1,129z"/>
	<path class="st15" d="M158.5,137.4c-0.1,0-0.1,0-0.2,0.1c-1,0.5-2,1-3.1,1.5c-1-0.8-2.2-1.6-3.3-2.5c-0.4-0.3-0.8-0.8-1.1-1.2
		c-0.2-0.3-0.3-0.6-0.4-1c-0.1-0.6,0.2-1.1,0.6-1.5c0.4-0.3,1.1-0.3,1.6,0c0.4,0.3,0.8,0.6,1.1,1c0.3,0.3,0.5,0.6,0.6,0.8
		c2,0.4,2.9-1,4.4-1.3c0.3,0.8,0.6,1.5,0.8,2.3C159.6,136.5,159.3,136.9,158.5,137.4z"/>
	<path class="st15" d="M194.7,213.2c-1,1-2.1,2-3.2,3.1c-0.6,1.3-1.2,2.7-2.2,3.8c-0.3,0.4-0.7,0.4-1.1,0.2c0,0-0.1,0.1-0.1,0.1
		c0,0,0-0.1,0-0.1c-0.4-0.3-0.6-0.8-0.2-1.2c0.8-1,1.4-2.1,1.9-3.3c-0.2-0.2-0.4-0.4-0.6-0.6c-0.1,0.1-0.2,0.2-0.3,0.2
		c-1.7,0.3-2.8,1.4-4,2.4c-0.5,0.5-0.5,0.5-1.5,0.3c0-0.8,0.4-1.3,1-1.7c0.7-0.5,1.5-1,2.3-1.5c0.6-0.4,1.2-0.7,1.9-1.1
		c-0.2-0.5-0.3-1-0.4-1.4c-1.4,0.2-2.8,0.3-4.2,0.3c-0.6,0-0.9-0.5-0.9-0.9c0,0,0,0,0-0.1c0-0.4,0.2-0.7,0.7-0.8c0.3,0,0.6,0,0.9,0
		c0.2-0.1,0.5-0.1,0.7-0.2c2.2-0.5,2.9-1.8,1.9-3.7c-0.4-0.7-0.5-1.4-0.6-2.2c0-0.2,0.1-0.5,0.1-0.7c0.5-0.2,0.8,0.1,1,0.3
		c0.3,0.4,0.6,0.9,0.9,1.4c0.8,1.3,1.7,2.4,3.2,3.1c1.2,0.6,2,1.7,2.7,2.8C195,212.3,195.1,212.8,194.7,213.2z"/>
	<path class="st13" d="M206.7,201.6c-5.3,4.4-12.9,6.1-12.9,6.1c1.8,3.6,2.5,4.6,2.5,4.6c11-4.4,16.1-8.3,16.1-8.3L206.7,201.6z"/>
	<path class="st18" d="M49.2,8.4c11.9-6.2,27.3-1.7,27.3-1.7c13.6-4,27.8,0,29.5,1.1c25.6-2.8,27.8,5.1,25.6,6.8
		c-3.4,4-11.4,8-18.2,9.7c-20.5,3.4-36.4-3.4-36.4-3.4c-13.1,4.5-18.7,0-22.2,1.1c-18.2,0-25.6,0-27.3,0c-9.1-5.7-2.3-10.2,2.8-11.4
		S49.2,8.4,49.2,8.4z"/>
	<path class="st18" d="M274.4,23.8c5.7-6.6,23.2-1.8,23.2-1.8c16-5.5,23.4,7.2,23.4,7.2c16.1-0.4,15,8,11.2,10.7
		c-7,4.7-17.5-1.5-21.2,1.8c-9.5,7.3-28.3,1.9-28.3,1.9c-6.4,3.4-22.7-5.3-22.7-5.3c-11.5,4.8-12.4-4.9-12.4-4.9
		c3-11.4,14.1-6.1,14.1-6.1C267.8,20.7,274.4,23.8,274.4,23.8z"/>
	<path class="st18" d="M37.6,256.3c19.5-3.5,28.2,3.4,31.3,2.6c10.4,0.7,26.2,7.1,18.1,10.4c-8.1,3.3-20.4,4.9-27.5,5.9
		c-20.7,2.9-39.1-3.6-39.1-3.6c-12.8,2-15.1-3-11.4-5.6c4.1-2.6,12.1-4,13.9-5.4C27.5,256.1,37.6,256.3,37.6,256.3z"/>
</g>
</svg>
