<?xml version="1.0" encoding="utf-8"?>
<!-- Generator: Adobe Illustrator 23.0.4, SVG Export Plug-In . SVG Version: 6.00 Build 0)  -->
<svg version="1.1" id="Layer_1" xmlns="http://www.w3.org/2000/svg" xmlns:xlink="http://www.w3.org/1999/xlink" x="0px" y="0px"
	 viewBox="0 0 718.4 927.8" style="enable-background:new 0 0 718.4 927.8;" xml:space="preserve">
<style type="text/css">
	.st0{fill:#EA7E64;}
	.st1{clip-path:url(#SVGID_2_);}
	.st2{fill:#551B31;}
	.st3{fill:#EF6598;}
	.st4{fill:#AC3F6A;}
	.st5{fill:#FABE9F;}
	.st6{fill:#DC8B6A;}
	.st7{fill:#FFFFFF;}
	.st8{fill:#E7E4E2;}
	.st9{fill:#49C1C3;}
	.st10{fill:#6D2040;}
</style>
<polygon class="st0" points="408.3,552.8 407.9,574.6 412,568.5 415.1,573.9 419.8,553.3 417.2,553.5 414.2,564.9 413,557.4 
	411.4,557.4 410.2,564.9 409.9,552.6 "/>
<path class="st0" d="M420.4,572.2l2.3-9.4l1.3,6.5l1.4,0l0.9-6.6l0.7,6.5c0.5-0.1,1-0.3,1.5-0.4l0.2-12.8l-4.1,3.6l-3-4.7l-3.7,17.5
	C418.9,572.3,419.7,572.2,420.4,572.2z"/>
<polygon class="st0" points="430.7,558.8 430.9,567.6 432.2,567.3 432.5,562.8 435.2,562.6 435.2,561.5 433.2,561.7 433.2,560.5 
	436,560.3 435.9,558.4 "/>
<g>
	<defs>
		<rect id="SVGID_1_" x="0.5" y="-13.3" width="743.3" height="989.1"/>
	</defs>
	<clipPath id="SVGID_2_">
		<use xlink:href="#SVGID_1_"  style="overflow:visible;"/>
	</clipPath>
	<g class="st1">
		<path class="st2" d="M743.8,997.9H-6.7c-7.6,0-13.7-6.2-13.7-13.7V-28.9c0-7.6,6.2-13.7,13.7-13.7h750.5c7.6,0,13.7,6.2,13.7,13.7
			V984.1C757.5,991.7,751.4,997.9,743.8,997.9z"/>
		<path class="st3" d="M1046.5,1028.5l-579,207.2c-5.2,1.9-10.8,0.3-14.8-4L80.4,828.9c-9.6-10.4-4.4-29.4,8.6-31.2L629.8,723
			c22.6-3.1,45.4,2.8,64.8,16.8l355.5,256.2C1061.3,1004,1059.1,1024,1046.5,1028.5z"/>
		<path class="st2" d="M865.9,595c-3.2,1.5-6.4,3-9.5,4.5c-1.3-0.7-0.7-1.5-0.1-2.2c0.4-0.5,1.1-1,1.7-1.3c2-0.9,4-1.7,6-2.4
			c0.5-0.2,1.2,0.1,1.9,0.2C865.8,594.2,865.9,594.6,865.9,595z"/>
		<rect x="391.8" y="856.3" class="st2" width="4.1" height="10.8"/>
		<rect x="502.1" y="828.7" class="st2" width="4.1" height="10.8"/>
		<path class="st4" d="M647.8,721l-574,79.5c-13.5,0-24.6-14.3-24.6-31.7V137.6c0-17.5,11.1-31.7,24.6-31.7h574
			c13.5,0,24.6,14.3,24.6,31.7v551.6C672.4,706.7,661.3,721,647.8,721z"/>
		<path class="st4" d="M322.5,727.4H109.1c-9.7,0-17.7-7.9-17.7-17.7V50.4c0-9.7,7.9-17.7,17.7-17.7h213.4c9.7,0,17.7,7.9,17.7,17.7
			v659.3C340.1,719.4,332.2,727.4,322.5,727.4z"/>
		<path class="st5" d="M618.4,673.5l-503.1,59.3C104,734.1,94,725.3,94,713.9V145.1c0-10.6,8.7-19.2,19.3-19l501.8,7.2
			c10.4,0.1,18.7,8.6,18.8,19l1.3,502.2C635.2,664.2,628,672.4,618.4,673.5z"/>
		<g>
			<polygon class="st6" points="110.4,563.5 615.5,526.9 615.5,659.9 109.6,717.7 			"/>
			<g>
				<polygon class="st4" points="515.5,534.4 110.4,563.5 109.6,717.7 612.1,660.3 516.3,612 				"/>
			</g>
			<g>
				<polygon class="st3" points="612.1,660.3 516.7,612 110,653.7 109.6,717.7 				"/>
			</g>
		</g>
		<g>
			<polygon class="st6" points="110.4,369.6 615.5,359.5 615.5,483.7 109.6,513.6 			"/>
			<g>
				<polygon class="st4" points="515.9,362 110.4,369.6 109.6,513.6 612.1,484.1 515.5,438.9 				"/>
			</g>
			<g>
				<polygon class="st3" points="617.2,484 515.5,433.4 110,449.5 109.6,513.6 				"/>
			</g>
		</g>
		<polygon class="st6" points="110.4,187.2 615.5,191.7 615.5,304.2 109.6,318.8 		"/>
		<g>
			<polygon class="st4" points="515.9,190.9 110.4,187.2 109.6,319.7 612.1,309.8 516.3,276.6 			"/>
		</g>
		<g>
			<polygon class="st3" points="615.6,304.2 515.8,276.2 110,277.4 109.6,320.5 			"/>
		</g>
		<g>
			<path class="st7" d="M213.3,181.2c11.5,0.1,20.3-4.3,26.4-13.2c3.6-5.2,4.3-10.8,0.6-16.4c-6.1-9.4-15.1-14.5-26.6-15.2
				c-2-0.1-4.4,0.1-6.1,1c-4.3,2.2-8.8,4.4-12.5,7.3c-7.8,6.1-10.1,16.8-6,24.8c1.9,3.8,5.1,6.4,8.9,8.2
				C202.8,180.1,208,181.4,213.3,181.2z"/>
			<path class="st7" d="M554.2,183.9c9.3,0.1,16.5-4.3,21.5-13.2c2.9-5.2,3.5-10.8,0.5-16.4c-5-9.4-12.3-14.5-21.7-15.2
				c-1.7-0.1-3.6,0.1-5,1c-3.5,2.2-7.1,4.4-10.2,7.3c-6.4,6.1-8.2,16.8-4.9,24.8c1.6,3.8,4.1,6.4,7.3,8.2
				C545.6,182.8,549.9,184.1,554.2,183.9z"/>
			<path class="st2" d="M203.3,173.2c-0.3-2.7,1-3.8,2.2-4.2c6-1.7,12-3.8,18.4-2.9c0.2,0,0.4,0.2,0.6,0.3c0.8,1.8,0.2,3.2-1.5,4.1
				c-0.4,0.2-0.8,0.4-1.2,0.4c-4.7,0.9-9.4,1.8-14.2,2.5C206.3,173.8,204.8,173.3,203.3,173.2z"/>
			<path class="st2" d="M219.8,155.9c-1.6-0.1-2.7-1.3-2.7-2.8c0.1-2.2,1.4-3.6,3.4-3.6c1.8,0,3.2,1.4,3,3.1
				C223.4,154.6,221.8,155.9,219.8,155.9z"/>
			<path class="st2" d="M206.4,152c0.1,1.6-1.1,3-2.5,3c-1.2,0-1.8-0.8-1.9-2c0-1.5,0.7-2.4,2.1-2.5
				C205.3,150.5,206.2,150.9,206.4,152z"/>
		</g>
		<path class="st2" d="M211.5,180.5c-4.9,0.4-10.4-1.9-15.5-4.8c-9.1-5.1-11.6-15.4-5.8-23.3c5.1-6.9,12-11.7,21.7-13.4
			c10.2-1.8,20.8,1.4,25.8,10.7c3.3,6.1,3.1,12.5,0.2,18.7c-3.9,8.3-12,11.4-21.8,12.1C215.1,180.5,214.1,180.5,211.5,180.5z
			 M219.4,142.1c-2.1,0.2-4.2,0.5-6.3,0.6c-7.3,0-12.5,3.4-16.7,7.9c-4.4,4.6-5.5,10.1-2.9,15.7c2.6,5.7,7.3,9.2,14.9,9.2
			c0.7,0,1.4,0.1,2.1,0.2c8.2,1,15.3-0.7,21.5-5.5c1.8-1.4,3.2-2.9,3.8-4.8c2.2-7.6,0.1-14.3-6.2-19.9
			C226.9,143.1,223.5,141.7,219.4,142.1z"/>
		<g>
			<path class="st7" d="M369.6,144.7l-0.4,32.1c2.4,4,6.3,4.6,13.1,5.9s22.2,0,22.8-1.4c0.6-1.4,1.2-12.1,2-12.7
				c13.7-6.3,15.4-8.1,15.3-8.9c-3.8-7.9-8.1-10.5-8.1-10.5c-4.8,2.6-4.8,2.6-4.8,2.6c-1.2-11.5-3-12.3-5.3-13.1
				c-2.4-0.8-29.1,0.4-31.3,0.6C370.6,139.6,369.6,144.7,369.6,144.7z"/>
			<g>
				<path class="st2" d="M405.1,153c-0.1-2.8-0.2-4.5-0.3-6.3c-0.1-2.2-0.9-3.2-3-3.5c-1.7-0.3-3.5-0.4-5.2-0.5
					c-5.4-0.2-10.7-0.3-16.1-0.4c-0.5,0-0.9-0.1-1.4-0.1c-5.2-0.1-6.1,0.7-6.2,5.9c-0.1,7.7,0,15.5,0,23.2c0,1.1,0.3,2.2,0.7,3.2
					c0.5,1.4,1.4,2.4,3,2.7c1.1,0.2,2.2,0.6,3.2,0.6c7.7,0.6,15.4-0.3,22.6-1.2c2.3-1.7,0.7-4.8,3.2-6c1.3,1.3,0.8,2.7,0.5,4
					c-0.3,1.4-0.4,2.9-1.7,3.8c-1,0.7-2.2,1.4-3.4,1.5c-6.9,0.5-13.8,1.7-20.8,0.8c-1.6-0.2-3.1-0.4-4.7-0.8c-3.6-1-5-2.7-5.1-6.4
					c-0.2-6-0.2-12-0.3-18c0-2.4,0-4.7,0.2-7.1c0.1-1.4,0.2-2.9,0.6-4.2c0.8-2.7,2.5-4.3,5.5-4.4c3.5,0,6.9,0,10.4,0
					c4.4,0.1,8.8,0.2,13.2,0.3c1.3,0,2.5,0.3,3.8,0.5c1.5,0.3,2.6,1.3,3,2.7c0.7,2.6,0.9,5.3,0.2,7.9
					C406.9,151.8,406.2,152.1,405.1,153z"/>
				<path class="st2" d="M388.8,163.9c1.6-0.7,3.2-1.2,4.7-2c5.8-3.1,11.7-6.2,17.4-9.5c2.9-1.7,5-0.5,6.4,1.6
					c3.2,4.6,2.8,7.2-2.2,9.9c-2.3,1.3-4.8,2.3-7.3,3.3c-4,1.5-8,2.9-12,4.4c-1.6,0.6-3.2,1.4-4.7,2.2c-1.1,0.6-2,1.5-3.4,1.5
					c-3.9,0.1-5.1,0.1-8-1c1.1-2.2,2.2-4.5,3.5-6.6c0.3-0.6,1.1-1,1.8-1.4c1.4-0.7,3-1,3.9-2.5L388.8,163.9z M388.8,167.7
					c0.2,0.2,0.6,0.5,0.7,0.4c6.7-2.3,12.8-5.9,19.5-8.7c-0.6-1-1-1.7-1.4-2.4C398.4,161.3,390.8,165.6,388.8,167.7z M389.8,170.6
					c0.2,0.2,0.3,0.4,0.5,0.6c6.4-2.4,12.9-4.8,19.3-7.2c0.4-0.2,0.8-0.4,1.1-0.6c-0.4-1.7-1.2-2.1-2.5-1.6
					c-5.8,2.5-11.5,5-17.2,7.6C390.6,169.7,390.2,170.2,389.8,170.6z M416.9,160c0-0.6,0.1-1.1-0.1-1.5c-0.4-0.9-0.8-1.7-1.3-2.5
					c-1.2-1.8-2.2-2.4-4.3-1c-0.4,0.2-0.6,0.6-1,1c0.8,1.8,1.6,3.5,2.5,5.1c0.2,0.4,0.7,0.6,1.1,0.9
					C414.8,161.4,415.9,160.7,416.9,160z M387.9,172.4c-0.7-1.5-1.3-2.7-1.9-4.2c-0.7,0.6-1.2,0.8-1.5,1.3c-0.2,0.3-0.3,0.9-0.2,1.3
					C384.8,172.2,385.7,173.1,387.9,172.4z"/>
				<path class="st2" d="M378.6,147.5c0.5-0.2,0.9-0.5,1.4-0.5c6.6,0.1,13.2,0.2,19.8,0.4c0.3,0,0.7,0.1,0.9,0.2
					c0.2,0.2,0.4,0.5,0.4,0.7c0,0.3-0.1,0.7-0.3,0.8c-0.5,0.3-1.1,0.6-1.7,0.6c-5.2,0-10.4,0-15.6-0.2c-1.4,0-2.8-0.5-4.1-0.8
					C379,148.6,378.9,148,378.6,147.5z"/>
				<path class="st2" d="M377.9,154.8c1-0.2,2.1-0.6,3.1-0.6c5.9,0.1,11.9-0.3,18.4,0.4c-0.7,0.9-1,1.6-1.6,1.9
					c-0.5,0.3-1.2,0.3-1.8,0.3c-5.5-0.1-11-0.3-16.5-0.5c-0.5,0-1.1-0.4-1.6-0.5C377.9,155.4,377.9,155.1,377.9,154.8z"/>
				<path class="st2" d="M389,163.7c-1.9-0.2-3.7-0.4-5.6-0.6c-1.7-0.1-3.4-0.1-6-0.2c1.1-0.9,1.5-1.5,1.9-1.5
					c3.1-0.5,6.2-0.4,9.1-0.3c1.3,1,0.4,1.9,0.4,2.8C388.8,163.9,389,163.7,389,163.7z"/>
			</g>
		</g>
		<polygon class="st6" points="419,275.5 469.9,307.5 469.5,190.6 417.4,190.2 		"/>
		<polygon class="st6" points="244.8,276.7 296.1,310.2 295.7,189.1 242.8,188.3 		"/>
		<polygon class="st6" points="164,446.9 210,508.4 208.7,367 164,369 		"/>
		<polygon class="st6" points="430.5,435.6 492.2,491.8 491.8,362.4 430.5,363.4 		"/>
		<g>
			<path class="st2" d="M553.8,180.6c-3.7,0.4-7.9-1.7-11.8-4.3c-6.9-4.6-8.8-13.9-4.4-21c3.9-6.2,9.1-10.5,16.5-12
				c7.8-1.6,15.8,1.2,19.6,9.6c2.5,5.5,2.4,11.2,0.2,16.8c-2.9,7.4-9.1,10.2-16.6,10.9C556.6,180.6,555.8,180.6,553.8,180.6z
				 M559.8,146.1c-1.6,0.2-3.2,0.5-4.8,0.5c-5.5,0-9.5,3.1-12.7,7.1c-3.3,4.2-4.2,9.1-2.2,14.2c2,5.2,5.6,8.2,11.3,8.3
				c0.5,0,1.1,0.1,1.6,0.1c6.2,0.9,11.6-0.6,16.3-4.9c1.4-1.3,2.4-2.6,2.9-4.3c1.6-6.8,0.1-12.8-4.7-17.9
				C565.5,147,563,145.7,559.8,146.1z"/>
			<path class="st2" d="M555.2,164c-0.1-3.6-0.1-7.3,0.6-11c0.1-0.7,0.4-1.3,0.8-1.9c0.1-0.2,0.7-0.5,0.9-0.4
				c0.4,0.2,0.8,0.6,1.2,0.9c0.1,0.1,0.1,0.3,0.1,0.5c-0.3,3.5-0.6,7.1-1.1,10.6C557.5,163.7,557.1,165,555.2,164z"/>
			<path class="st2" d="M557.7,168.2c0.4,0.5,1.4,1,1.5,1.6c0.2,1.8-0.3,3.5-2.1,4.6c-1.2,0.7-2.7,0.7-3.5-0.2
				c-0.8-0.9-0.9-1.9-0.4-3C554,169.4,555.4,168.6,557.7,168.2z"/>
		</g>
		<polygon class="st5" points="100.6,314.6 620.5,304.7 618.8,350.1 100.6,350.1 		"/>
		<g>
			<path class="st7" d="M157.3,349c1.4,6.8,2.7,14.8,9,15s6.3-8.2,6.6-12.3c0.8-4.6,0.8-4.6,0.8-4.6c9-4.9,8.7-14.5,2.7-20
				c-6-5.5-17.5-2.2-20.8,0.8s-10.4,6.8-7.4,14.5C152.1,349.8,157.3,349,157.3,349z"/>
			<g>
				<path class="st2" d="M172.5,347.4c-0.7,2.5,0.9,4.8-0.9,7c-2.5,1.1-5.4,1-8.3,0.8c-2.7-0.2-4-1.6-4.3-4.2
					c-0.1-0.9-0.3-1.9-0.4-2.9c-1.2-0.3-2.3-0.6-3.4-0.9c-2.2-0.5-4.1-1.6-5.4-3.3c-2.1-2.6-2.6-5.4-1-8.4
					c3.4-6.6,9.2-9.9,16.7-11.1c2.2-0.4,4.4,0,6.5,0.7c3.6,1.1,6,3.1,6.8,6.7c0.5,2.4,0.7,4.8,0.7,7.3c0,3-1.5,5.2-4.1,6.8
					C174.3,346.4,173.4,346.9,172.5,347.4z M170.3,346.1c1.2-0.7,2-1.2,2.9-1.6c3.2-1.7,4.3-4.3,4.1-7.6c-0.1-1.3-0.5-2.7-0.8-4
					c-1.1-3.8-3.8-6.1-8.1-6.3c-7.7-0.4-13.3,3.2-17.5,9c-1.8,2.6-1.1,5.2,1.3,7.3c1.5,1.3,3.2,1.9,5.1,2.1c2.9,0.3,3.6,1.3,3.5,3.7
					c0,0.5,0,1.1,0.1,1.6c0.2,1.3,1.1,2.3,2.6,2.4c2.3,0.2,4.6,0.4,6.8-0.7C170.3,350.1,170.3,348.2,170.3,346.1z"/>
				<path class="st2" d="M160.2,361.7c0.6-0.5,0.9-0.8,1.3-0.9c3.7-0.6,7.4-1.3,11.1-1.8c1.2-0.2,1.3,0.7,1.1,1.9
					c-4.1,0.5-8,2.2-12.3,1.5C161,362.4,160.7,362,160.2,361.7z"/>
				<path class="st2" d="M165.2,358.8c-1.3-0.1-2.7-0.1-4.1-0.2c-0.2,0-0.5-0.4-0.5-0.5c0.1-0.3,0.2-0.9,0.5-1
					c3.4-0.7,6.8-1.2,10.3-0.8c0.3,0,0.7,0.6,0.7,0.8c0,0.3-0.4,0.9-0.6,0.9C169.3,358.3,167.3,358.5,165.2,358.8z"/>
				<path class="st7" d="M150.9,327.4c-1.2-1.1-2.3-1.9-3.2-2.7c0.2-1,0.7-1.5,1.5-1c0.9,0.6,1.8,1.3,2.6,2.1
					c0.1,0.1,0.1,0.5,0.1,0.8C151.7,326.7,151.4,326.9,150.9,327.4z"/>
				<path class="st7" d="M162,322.8c-0.4-2.5-0.2-3.9,1.3-5.7C163.6,319.2,163.5,320.7,162,322.8z"/>
				<path class="st7" d="M156.2,323.4c-2.4-0.9-2.5-1.1-1.9-3.8C155.8,320.4,155.8,321.7,156.2,323.4z"/>
				<path class="st7" d="M175,323.2c-0.3-1.8,0.8-2.6,2.3-3.3C177.2,322,177.2,322,175,323.2z"/>
				<path class="st7" d="M168.2,321.4c-0.5-1.2,0.3-2,1-2.8c0.8,0,1.2,0.4,0.9,0.9C169.7,320.3,169.6,321.4,168.2,321.4z"/>
				<path class="st2" d="M164.2,341.7c0.1,2.8,0.3,5.3,0.4,8.3c-2.2-1.7-1.7-3.5-2-5.1c-0.3-1.7-0.5-3.4-0.8-5.6
					c0.5-0.8,1.3-2.1,2.2-3.3c0.6-0.8,1.5-1.3,2.5-1.4c1.5-0.2,2.6,0.3,3.3,1.5c0.7,1.2,0.4,2.6-0.9,3.6c-0.7,0.5-1.5,0.8-2.3,1.2
					C165.9,341.1,165.2,341.3,164.2,341.7z M165.9,339c0.4-0.1,0.8-0.2,1.1-0.4c0.7-0.4,1-1.2,0.5-1.7c-0.6-0.7-1.3-0.4-1.9,0.1
					c-0.3,0.2-0.5,0.6-0.7,1c-0.1,0.2,0,0.5,0.1,0.7C165.3,338.9,165.6,338.9,165.9,339z"/>
			</g>
		</g>
		<g>
			<path class="st7" d="M405.7,334.4c3.1-5.7,7.7-11.5,14.1-13.5s18,0.8,20.8,2.3c4.4,2.5,6.6,5.6,6.3,7.8s-4.6,9.7-7.1,10.8
				c-2.5,1.1-7.5,4.4-15.7,4.5s-10.2-0.5-12.8-2.9S405.7,334.4,405.7,334.4z"/>
			<g>
				<g>
					<path class="st2" d="M417.3,344c0.4-0.1,0.8-0.1,1.5,0.2c0,0.1,0,0.1,0,0.2c1.1,0.3,2.1,0.4,3.2,0.6c0.1-0.1,0.2-0.2,0.3-0.3
						c1.1,0.2,1.9,0.3,2.4,0.5c1.8,0,3.5-0.2,5.2-0.6c0.2-0.1,0.3-0.2,0.5-0.2c0.1,0,0.1,0,0.2,0c0.2-0.1,0.5-0.1,0.7-0.2
						c3.3-1.1,6.3-3.3,9.3-5.2c0.2-0.1,0.3-0.2,0.5-0.3c0.6-0.9,1.3-1.7,1.6-2.5c1.6-4.2,2.2-5.6,0.3-8.4c-2.5-1.4-6.5-3.8-9.3-4.2
						c-4.3-0.7-6.1-0.7-10.4-0.8c-2.4-0.1-4.8,1.2-6.9,2.2c-1.3,0.7-2.7,1-3.9,1.8c-1.3,1.9-2.8,3.8-3.9,5.8
						c-1.5,2.6-1.3,4.2,0.7,6.3c1,1,2,2,3.1,2.9C413.8,342.7,415.5,343.4,417.3,344z M441.2,332.3c0,1.1-0.6,2.4-1.3,3.3
						c-1.4,1.8-3.1,3.3-5.7,3.4c1.3-6.9,1.3-7.2-0.5-13C438.5,327.2,441.3,329.5,441.2,332.3z M410.8,332.9c1.5-2.2,3.4-3.9,6.2-5.4
						c-1,3.9-1.9,7.3-2.8,10.8c-1.7,0-2.5-1.3-3.3-2.4C410.2,335.1,410.1,333.9,410.8,332.9z"/>
					<path class="st5" d="M419.8,328.5c-0.3,6.8,3,9.4,7.4,9.4s3.8-10.4,3.8-10.4c3.3,2,1.9,10.1,1.4,10.7c-3.1,1.9-7.9,4-11.5,1.5
						s-4.2,0.5-4.1-4.8s1.6-7.4,1.6-7.4L419.8,328.5z"/>
				</g>
				<path class="st7" d="M410.3,333.7c5.3-6.7,9.4-8.3,16.7-8.2c7.9,0.1,12.6,2,14.1,5.3c1.5,3.3,0.2,6.6-7.1,8.8
					c-7.3,2.2-16.6,1.8-20.4-0.2C409.9,337.4,410.3,333.7,410.3,333.7z"/>
				<circle class="st2" cx="424.7" cy="332.9" r="8.7"/>
				<path class="st2" d="M416.1,349.7L416.1,349.7c-0.7-0.2-1-1-0.8-1.6l1.5-4.5c0.2-0.7,1-1,1.6-0.8l0,0c0.7,0.2,1,1,0.8,1.6
					l-1.5,4.5C417.5,349.5,416.8,349.9,416.1,349.7z"/>
				<path class="st2" d="M434.4,325.6L434.4,325.6c-0.7-0.2-1-1-0.8-1.6l1.5-4.5c0.2-0.7,1-1,1.6-0.8v0c0.7,0.2,1,1,0.8,1.6
					l-1.5,4.5C435.8,325.5,435.1,325.8,434.4,325.6z"/>
				<path class="st2" d="M425.8,324.6L425.8,324.6c-0.7-0.2-1-1-0.8-1.6l1.5-4.5c0.2-0.7,1-1,1.6-0.8l0,0c0.7,0.2,1,1,0.8,1.6
					l-1.5,4.5C427.2,324.5,426.5,324.9,425.8,324.6z"/>
				<path class="st2" d="M424.6,350.8L424.6,350.8c-0.7,0-1.3-0.5-1.4-1.2l-0.2-4.8c0-0.7,0.5-1.3,1.2-1.4l0,0
					c0.7,0,1.3,0.5,1.4,1.2l0.2,4.8C425.8,350.2,425.3,350.8,424.6,350.8z"/>
				<path class="st2" d="M419.8,325.2L419.8,325.2c-0.7,0-1.3-0.5-1.4-1.2l-0.2-4.8c0-0.7,0.5-1.3,1.2-1.4l0,0
					c0.7,0,1.3,0.5,1.4,1.2l0.2,4.8C421,324.6,420.5,325.2,419.8,325.2z"/>
				<path class="st2" d="M434.4,349.4L434.4,349.4c-0.6,0.4-1.4,0.1-1.8-0.5l-2.4-4.1c-0.4-0.6-0.1-1.4,0.5-1.8l0,0
					c0.6-0.4,1.4-0.1,1.8,0.5l2.4,4.1C435.3,348.2,435.1,349,434.4,349.4z"/>
				<path class="st2" d="M413.7,327.9L413.7,327.9c-0.6,0.4-1.4,0.1-1.8-0.5l-2.4-4.1c-0.4-0.6-0.1-1.4,0.5-1.8l0,0
					c0.6-0.4,1.4-0.1,1.8,0.5l2.4,4.1C414.5,326.7,414.3,327.5,413.7,327.9z"/>
				<path class="st2" d="M441.4,345.5L441.4,345.5c-0.4,0.6-1.3,0.7-1.8,0.2l-3.8-2.9c-0.6-0.4-0.7-1.3-0.2-1.8l0,0
					c0.4-0.6,1.3-0.7,1.8-0.2l3.8,2.9C441.7,344.1,441.8,345,441.4,345.5z"/>
			</g>
		</g>
		<path class="st7" d="M543.9,334.7c-0.3,5.9-0.6,11.9-0.8,17.8c0,0.7,0,1.5-0.1,2.2c-0.4,2.8-1.6,3.8-4.5,3.9c-0.6,0-1.2,0-1.8-0.1
			c-5.8-0.7-11.6-1-17.5-1.1c-2,0-4-0.5-5.9-0.9c-1.9-0.4-2.4-1.1-2.6-3.1c-0.1-1.6-0.1-3.2-0.1-4.8c0-7.5-0.5-15.1,0.5-22.6
			c0.3-2,0.1-4.1,0.2-6.1c0.2-2.9,1.2-3.8,4.2-4.1c1.1-0.1,2.2-0.1,3.2,0c5.5,0.5,11,0.2,16.5-0.7c2-0.3,3.9-0.5,5.8,0.5
			c1.2,0.6,2,1.3,2.2,2.6c0.3,2,0.7,4,0.8,6C544.1,327.7,544,331.2,543.9,334.7C543.9,334.7,543.9,334.7,543.9,334.7z"/>
		<path class="st7" d="M564.4,352.2c-0.1-1.7-0.5-3.3-0.3-4.9c0.8-8.8,0.2-17.6-0.5-26.4c-0.3-4,1.1-6,5.2-6.4
			c4.4-0.5,8.9-0.7,13.4-0.9c0.6,0,1.3,0.1,1.9,0.2c1.8,0.2,3,1.1,3.3,2.8c0.1,0.6,0.2,1.2,0.3,1.8c1.5,9.3,2.8,18.7,2.9,28.1
			c0,0.4,0,0.9,0,1.3c0,3.5-0.9,4.6-4.6,4.8c-5.3,0.4-10.5,0.6-15.8,0.8C568.4,353.4,566.6,353.4,564.4,352.2z"/>
		<g>
			<path class="st2" d="M543.1,335.1c-0.3,5.5-0.5,11-0.8,16.5c0,0.7,0,1.3-0.1,2c-0.4,2.6-1.6,3.5-4.3,3.6c-0.6,0-1.2,0-1.8-0.1
				c-5.5-0.7-11.1-1-16.7-1c-1.9,0-3.8-0.5-5.6-0.9c-1.8-0.4-2.3-1-2.5-2.9c-0.1-1.5-0.1-3-0.1-4.4c0-7-0.5-14,0.5-21
				c0.3-1.9,0.1-3.8,0.2-5.6c0.2-2.6,1.1-3.5,4-3.8c1-0.1,2.1-0.1,3.1,0c5.3,0.5,10.5,0.2,15.7-0.6c1.9-0.3,3.7-0.4,5.6,0.5
				c1.1,0.6,1.9,1.2,2.1,2.4c0.3,1.9,0.7,3.7,0.8,5.6C543.3,328.6,543.2,331.8,543.1,335.1C543.1,335.1,543.1,335.1,543.1,335.1z
				 M539.8,319.3c-4.5,0.3-8.5,0.6-12.6,1c-4.1,0.4-8.1-1-12.3-0.4c-1.3,9.8-1.7,19.6-1.4,29.3c0,1,0.4,2.1,0.5,3
				c3.1,1.4,6,1.1,8.9,1.3c2.8,0.2,5.6,0.4,8.3,0.4c2.9,0,5.7,1.3,8.7,0.2c0.1-0.9,0.3-1.6,0.4-2.4c0.2-5.1,0.5-10.2,0.7-15.3
				c0.1-4,0-8,0-12.1C541.1,322.7,540.5,321.2,539.8,319.3z"/>
			<path class="st2" d="M565.5,350.6c-0.1-1.5-0.4-3-0.3-4.4c0.7-8.1,0.2-16.1-0.5-24.1c-0.3-3.6,1-5.4,4.8-5.9
				c4-0.5,8.1-0.6,12.2-0.8c0.6,0,1.2,0.1,1.7,0.1c1.6,0.2,2.7,1,3,2.5c0.1,0.5,0.2,1.1,0.2,1.6c1.3,8.5,2.6,17.1,2.7,25.7
				c0,0.4,0,0.8,0,1.2c0,3.2-0.9,4.2-4.2,4.4c-4.8,0.3-9.6,0.5-14.4,0.7C569.1,351.6,567.5,351.6,565.5,350.6z M567.4,319
				c-0.1,1.8-0.5,3.4-0.4,4.9c0.7,7.4,0.9,14.7,0.4,22.1c-0.1,0.9,0.3,1.8,0.4,2.8c5.8,0.3,11.3-0.3,16.8-0.5c0.8,0,1.6-0.4,2.4-0.6
				c0.6-3.5,0-6.9-0.2-10.2c-0.3-3.3-0.5-6.7-1.1-10c-0.6-3.3-0.4-6.7-2-10C578.2,317.1,572.7,317.2,567.4,319z"/>
			<path class="st2" d="M548.4,334.2c0.1-1,0.1-1.7,0.2-2.3c0.2-1,1-1.7,2-1.8c2.6-0.2,5.2-0.2,7.7-0.2c0.7,0,1.3,0.9,1.1,1.5
				c-0.3,0.9-0.6,1.9-1.7,2.1C554.9,333.9,551.9,334.6,548.4,334.2z"/>
			<path class="st2" d="M552.8,339.8c-2.4-0.2-3.8-0.8-3.6-1.6c0.4-1.5,2-1.3,3.2-1.5c2-0.3,4-0.4,6-0.6c0.7-0.1,1.7,0,1.7,0.8
				c0.1,0.7-0.2,1.6-0.7,2.1c-0.4,0.4-1.3,0.6-1.9,0.7C556,339.8,554.4,339.7,552.8,339.8z"/>
			<path class="st2" d="M522.7,339.6c-1.6-0.1-3.2-0.2-4.8-0.4c-0.4-0.1-0.7-0.7-1.1-1c0.4-0.3,0.8-0.6,1.3-0.9
				c0.2-0.1,0.6-0.1,0.9-0.1c5,0.2,9.9,0.6,14.9,0.2c0.8-0.1,1.8-0.2,2.2,0.8c0.3,0.7-0.7,1.6-2,1.6c-3.8,0.1-7.6,0.1-11.4,0.1
				C522.7,339.7,522.7,339.6,522.7,339.6z"/>
			<path class="st2" d="M521.7,326.4c-0.2,0-0.6,0-0.8-0.1c-0.6-0.3-1.3-0.5-1.7-1c-0.4-0.5,0.5-1.1,1.8-1.1
				c4.2-0.1,8.4-0.3,12.6-0.4c0.5,0,1.1,0.2,1.6,0.5c0.2,0.1,0.3,0.5,0.3,0.7c0,0.2-0.2,0.5-0.4,0.7c-0.2,0.2-0.5,0.3-0.8,0.3
				C530.1,326.1,525.9,326.3,521.7,326.4z"/>
			<path class="st2" d="M519.8,331.9c0.1-0.5,0-0.9,0.2-1c0.3-0.3,0.7-0.6,1-0.6c4.6-0.8,9.3-0.9,13.9-0.8c0.4,0,1,0.6,1,1
				c0,0.4-0.6,1-1,1c-1.3,0.1-2.6,0-3.9,0.1c-2.6,0.1-5.2,0.3-7.8,0.5C522,332.1,520.9,332,519.8,331.9z"/>
			<path class="st2" d="M525.4,345c2.5-1.3,4.9-0.9,7.6-0.7c-0.2,0.6-0.2,1.2-0.5,1.3c-2,0.7-4.2,1-6.3,0.5
				C525.9,346,525.7,345.4,525.4,345z"/>
			<path class="st2" d="M584.4,335.4c-0.4,0.5-0.6,1-1,1.2c-0.6,0.3-1.4,0.4-2.1,0.4c-3.4,0.2-6.7,0.5-10.1,0.7
				c-0.6,0-1.1-0.1-2.2-0.2c0.6-0.6,0.9-1.2,1.3-1.3C573.5,335,581.2,334.6,584.4,335.4z"/>
			<path class="st2" d="M582.4,326.8c-0.6,0.5-0.9,1.1-1.3,1.2c-3,0.3-6.1,0.4-9.1,0.6c-0.3,0-0.8-0.4-0.8-0.7
				c0-0.3,0.4-0.8,0.6-0.9C575.1,326.7,578.5,325.6,582.4,326.8z"/>
			<path class="st2" d="M581.6,320.9c0.2,1.6-0.7,1.8-1.5,1.9c-2.7,0.3-5.4,0.5-8.1,0.8c-0.6-0.4-0.9-1-0.3-1.3
				C574.8,320.9,578.2,321.1,581.6,320.9z"/>
			<path class="st2" d="M576.9,342c0.5-0.4,0.8-1,1.2-1.1c1.6-0.3,3.3-1.2,4.9,0c0.1,0.1,0.1,0.3,0,0.4c-1.1,1.6-2.9,1.2-4.6,1.2
				C577.9,342.5,577.5,342.2,576.9,342z"/>
		</g>
		<g>
			<path class="st7" d="M166.4,549.4c0.4,3.1,1.5,5.9-0.8,8.7c-1.1-0.7-2.5-1.2-3.5-2.1c-5.4-4.8-11.6-6.3-18.5-5.6
				c-1.1,0.1-2.1,0.1-3.2,0.1c-3,0-5-1.7-6.1-4.6c-0.4-1-0.6-2.2-0.6-3.3c-0.3-7,1.1-13.7,3.2-20.3c0.3-1.1,1.6-2,2.6-2.6
				c3.4-2.2,7.4-2.6,11.2-3.5c2.4-0.5,5-0.5,7.4-1.1c4.8-1.2,9.6-0.6,14.4-1.1c1.3-0.1,2.5,0.3,3.4,1.3c1,1.1,2.1,2.2,2.6,3.5
				c2.8,6.7,3.8,13.5,1.4,20.7c-1.2,3.6-3.4,6-7,7C170.9,547.2,168.5,547.6,166.4,549.4z"/>
			<g>
				<path class="st2" d="M165.8,548.5c0.4,2.8,1.4,5.3-0.7,7.8c-1.1-0.6-2.3-1.1-3.3-1.9c-5-4.3-10.9-5.7-17.3-5.1
					c-1,0.1-2,0.1-3,0.1c-2.9,0-4.7-1.5-5.7-4.1c-0.3-0.9-0.6-2-0.6-2.9c-0.3-6.3,1-12.3,3-18.2c0.3-1,1.5-1.8,2.4-2.4
					c3.2-2,6.9-2.4,10.5-3.1c2.3-0.5,4.7-0.4,7-1c4.5-1.1,9-0.5,13.5-1c1.2-0.1,2.4,0.3,3.2,1.2c0.9,1,2,1.9,2.5,3.1
					c2.6,6,3.6,12.1,1.3,18.5c-1.2,3.3-3.2,5.4-6.5,6.3C170,546.5,167.8,546.8,165.8,548.5z M163.5,551.2c-0.1-1.3-0.2-2.1-0.2-2.9
					c-0.2-2.3-0.1-2.6,2-3.3c2.4-0.8,4.8-1.5,7.2-2.3c2-0.7,3.5-1.9,4.3-3.9c2.4-6.2,0.6-11.9-2.2-17.4c-0.5-1-1.6-1.8-2.9-1.8
					c-3.8,0.1-7.6,0.2-11.5,0.4c-1.5,0.1-3,0.6-4.5,0.7c-4.5,0.2-8.4,2-12.3,4.1c-3,1.6-4.5,4-5,7.1c-0.3,2-0.6,4-0.7,6
					c-0.1,1.5-0.1,3,0.1,4.5c0.4,2.7,1.6,3.9,4.3,4c2.2,0.1,4.4,0,6.5-0.2c4-0.4,7.6,0.7,11,2.8
					C160.7,549.7,161.9,550.3,163.5,551.2z"/>
				<path class="st2" d="M157.3,528.9c0.9-1.3,1.5-2.4,2.4-3.5c1.8-2.1,4-2.4,6.2-0.8c1.1,0.8,2,1.8,2.8,2.8c0.7,0.9,1.3,2,1.9,3
					c1.9,3.2,1.1,6.2-2.2,7.9c-1.3,0.7-2.8,1-4.4,1.5c-0.2,0.7-0.4,1.5-0.8,2.3c-1.2,2.4-1.7,2.5-4.7,2.1c-1.1-0.2-2.3,0.1-3.4,0.1
					c-1.2,0-2.3,0-3.5-0.2c-1.3-0.2-2.5-1.1-2.4-2.2c0.1-3.1-2.6-5.7-1.5-9c-0.5,0.6-1,1.2-1.5,1.8c-0.7-2-0.6-2.8,0.5-4.3
					c1-1.5,2.4-2.3,4.3-2.2C152.9,528.4,154.9,528.6,157.3,528.9z M164.1,536.1c3.8,0.6,3.9,0.5,5.3-2.4
					C167.5,534.6,165.8,535.4,164.1,536.1z M161.3,534c0-1.3,0-2.5,0-4c-0.7,0.4-1.3,0.6-1.4,0.9C159.4,532.2,160.2,533.1,161.3,534
					z M152.4,532.2c-2.1,1.9-2.1,1.9-1.9,3.5C152.3,534.7,152.3,534.7,152.4,532.2z M152.7,541.8c0.5,0.1,1.2,0.4,1.7,0.3
					c0.5-0.1,0.9-0.7,1.4-1.1c0.1,0,0-0.3-0.1-0.4c-0.8-0.8-2.4-0.6-2.8,0.4C152.8,541.1,152.8,541.3,152.7,541.8z M165.9,533.4
					c0.7-1,1.3-1.6,1.4-2.2c0.1-0.6-1.2-1.5-1.8-1.1c-0.4,0.3-0.7,1-0.7,1.5C164.9,532.1,165.4,532.6,165.9,533.4z M162.9,527.7
					c0.4-0.4,0.8-0.8,1.2-1.2c-0.3-0.2-0.5-0.4-0.8-0.4c-0.7,0-1.4,0.1-1.3,1C162,527.2,162.4,527.4,162.9,527.7z"/>
			</g>
		</g>
		<g>
			<polygon class="st7" points="310.3,530.8 313.2,542.5 343.6,535.3 346,537.8 362,540.5 362.8,529 354.2,527.3 352,523.6 
				358.9,516.3 353.8,508.7 342.3,513.6 339,523.6 			"/>
			<polygon class="st7" points="361.4,514.2 357.4,520.7 359.5,528.4 367.3,530.2 371,526.5 370.4,517.7 			"/>
			<g>
				<path class="st2" d="M341.7,524.5c0.3-8,5.5-10.4,12.1-11.9c0.7,0.8,1.5,1.5,2.1,2.4c1.2,1.8,1.1,2.9-0.5,4.3
					c-1.6,1.4-3.3,2.7-5.1,4.1c0.7,2,1.3,3.6,2,5.5c2.8,0.3,5.6,0.5,8.6,0.8c0.2,1.3,0.5,2.3,0.4,3.3c-0.7,5.4-1.8,5.4-6.2,4.8
					c-2.7-0.3-5.3-0.6-8.1-0.9c-0.7-1-1.5-1.9-2.2-2.9c-4.1,0.2-7.7,2.1-11.5,3.1c-4.2,1-8.2,2.5-12.5,3.4c-7.2,1.5-8.5,0.1-8.3-7.4
					c0-0.2,0.1-0.3,0.3-0.9c0.7-0.3,1.7-0.7,2.7-0.9c6.6-1.6,13.3-3.2,19.9-4.8C337.6,525.9,339.6,525.1,341.7,524.5z M321.8,536.8
					c1.2-0.1,2.5-0.1,3.6-0.5c4.5-1.3,8.9-2.7,13.4-4.1c2.6-0.8,5.1-1.7,8-1.3c0.7,1.1,1.4,2.1,2.1,3.4c2.4,0.3,4.9,0.6,7.4,0.8
					c1.7,0.1,2-0.5,1.5-2.8c-2.5-0.9-5.4,0.4-8.1-1.5c-0.6-2.7-2.6-5.2-2.2-8.2c1.5-2.6,4.9-2.9,5.7-5.8c-0.3-0.3-0.6-0.7-0.8-0.7
					c-4.7,0.1-7.6,2.9-7.8,7.5c-0.2,3.1-0.1,3.2-3.1,4.1c-4.3,1.2-8.7,2.2-13,3.4c-2,0.6-4,1.4-6,2c-2.4-0.5-4.5,0.4-6.8,1.1
					c0,0.8-0.1,1.5,0,2.2c0.1,0.5,0.4,0.9,0.7,1.5C318.3,538.2,320.1,538.1,321.8,536.8z"/>
				<path class="st2" d="M357.4,520.7c1.5-1.7,2.9-3.3,4.5-5.2c0.7,0.1,1.6,0.2,2.4,0.4c4.2,0.9,5.7,2.4,6.2,6.7
					c0.3,2.5-1.4,3.9-2.9,5.5c-1,1.1-2.3,0.6-3.5,0.2c-1.3-0.5-2.7-0.9-4.1-1.3c-0.8-1.5-1.5-2.9-2.2-4.4
					C357.7,522.3,357.7,521.7,357.4,520.7z M365.3,525.4c0.3,0.1,0.6,0.1,0.8,0.2c0.5-0.9,1.3-1.8,1.3-2.7c-0.1-1.2-0.7-2.4-1.4-3.4
					c-0.8-1.1-2.8-1-3.9-0.1c-1.5,1.2-1.6,1.9-0.6,4.1c0.4-0.4,0.8-0.7,1.1-1.1c0.6-0.7,1.3-1.4,2.2-0.8c1,0.5,0.9,1.4,0.6,2.3
					C365.5,524.4,365.4,524.9,365.3,525.4z"/>
				<path class="st7" d="M373,519.3c2.5-2.8,2.5-2.8,6.8-1.4c-0.8,0.5-1.2,1-1.8,1.1C376.7,519.2,375.3,519.1,373,519.3z"/>
				<path class="st7" d="M367.4,513.2c-0.3-2.3,1.6-3,2.9-4c0.4-0.3,1.2-0.2,2.3-0.3C371.4,511.4,369.2,512.1,367.4,513.2z"/>
				<path class="st7" d="M362.6,507.1c0.5,2.2-0.4,3.6-2.6,4.6C359.4,509.2,360.9,508.1,362.6,507.1z"/>
				<path class="st7" d="M377.8,527.8c-0.9-0.3-1.8-0.6-2.7-1c-0.1,0,0.1-1.1,0.4-1.3c0.9-0.6,2.2-0.1,2.6,1
					C378.2,526.8,378,527.1,377.8,527.8z"/>
				<path class="st7" d="M374.8,534.7c-2.7,0.7-2.9,0.5-2.5-2.4c0.7,0.4,1.3,0.6,1.8,1.1C374.4,533.7,374.5,534.2,374.8,534.7z"/>
			</g>
		</g>
		<polyline class="st6" points="424.8,681.9 347.7,628.9 345.5,546.3 422.1,540.9 423.1,684.1 		"/>
		<g>
			<polygon class="st8" points="99.5,253.8 103,285.3 125.1,305 167.3,302 167.1,273.8 			"/>
			<g>
				<path class="st7" d="M142.8,249.1c-14.7,3.4-29.1,1.3-43.3,4.7c3.7,5.7,16.9,18.4,28.1,27.2c11.9-1.4,24.3-2.8,36.7-4.2
					c0.8-0.1,1.6-0.7,2.5-1.1c-0.2-1,0-2.2-0.5-2.7C158.6,265.2,150.9,257.4,142.8,249.1z"/>
				<path class="st3" d="M152.5,262.7c-0.8,1.4-1.1,2.7-1.6,2.7c-9.3,0.9-18.7,1.7-28,2.4c-0.4,0-0.8-0.7-1.5-1.2
					c0.6-0.6,1.2-1.7,1.8-1.7C132.7,264.3,142.1,261,152.5,262.7z"/>
				<path class="st2" d="M154.1,270.7c-0.1,1,0,1.5-0.1,1.5c-6.2,3.7-13.5,1.6-20.1,3.5c-0.9,0.3-2-0.4-3.5-0.7
					C135.9,270.9,144.4,269.4,154.1,270.7z"/>
				<path class="st2" d="M136.6,256.6c-0.2,0.6-0.2,1.1-0.4,1.1c-1,0.5-2.2,1.4-3.2,1.3c-7.2-0.9-14.3,2-21.5,0.7c0.1-1,0-2,0.2-2
					c7.1-1.4,14.3-2.6,21.6-2C134.4,255.8,135.5,256.3,136.6,256.6z"/>
			</g>
		</g>
		<path class="st7" d="M161.6,284.5c-2.6,2.3-5.4,2.6-8.2,2.6c-5,0-10-0.1-14.9,0.7c-0.4,0.1-0.9-0.2-1.8-0.4c0.9-0.7,1.4-1.3,2-1.4
			c3.6-0.4,7.2-0.7,10.8-1c3.6-0.3,7.2-0.6,10.8-0.9C160.7,284.1,161.2,284.4,161.6,284.5z"/>
		<path class="st7" d="M160,291c-0.7,1.1-0.9,1.6-1.1,1.6c-6.6,0.8-13.2,1.6-19.8,2.4c-0.2,0-0.4-0.5-0.8-1c0.8-1.1,2.1-1.1,3.1-1.4
			C147.4,291.2,153.5,290.9,160,291z"/>
		<path class="st7" d="M107.9,270.8c1.3,0.7,2.7,1.3,4,2.1c1.3,0.8,2.6,1.8,3.8,2.9c1.1,1,3.1-0.2,3.7,2.4c-1.7,0.4-3.2,0.4-4.5-0.5
			c-2.2-1.5-4.4-3.1-6.5-4.8c-0.3-0.3-0.5-0.8-0.8-1.2C107.6,271.4,107.8,271.1,107.9,270.8z"/>
		<path class="st7" d="M115.5,291.2c-0.7-1.9-2.2-2.8-3.7-3.7c-1.5-0.8-2.9-1.7-4.3-2.5c0-1.8,1.1-1.9,1.8-1.5
			c2.3,1.3,4.6,2.6,6.6,4.3c1.1,0.9,2.7,1.7,3,4c-0.6,0.1-1.1,0.1-1.7,0.2c0,0,0.1,0.2,0.1,0.2c-0.7-0.4-1.3-0.8-2-1.2L115.5,291.2z
			"/>
		<rect x="98.2" y="148.4" class="st5" width="12.6" height="171"/>
		<g>
			<g>
				<path class="st7" d="M348,279.4c0,6.2,0,12.4,0,18.6c0,2.5-1.3,4-3.5,4.9c-8.1,3.1-16.1,4.3-24.3,0c-5.5-2.9-11-5.8-16.7-8.3
					c-3.4-1.5-5.2-4-5.2-7.5c0.1-7.3,0.4-14.6,0.7-21.8c0.1-3.2,0.5-6.4,0.8-9.7c0.2-2.4,0.5-4.8,0.7-7.2c0.4-3.8,2.1-6.6,6.1-7.7
					c0.8-0.2,1.5-0.6,2.2-1c6.6-4.8,13.6-4.7,20.7-1.3c4.1,2,8.2,4,12.3,6.2c2.5,1.4,4,3.7,4.4,6.5c0.7,4.2,1.4,8.5,1.7,12.8
					C348.2,269.1,348,274.2,348,279.4C348,279.4,348,279.4,348,279.4z"/>
				<path class="st2" d="M348,279.4c0,6.2,0,12.4,0,18.6c0,2.5-1.3,4-3.5,4.9c-8.1,3.1-16.1,4.3-24.3,0c-5.5-2.9-11-5.8-16.7-8.3
					c-3.4-1.5-5.2-4-5.2-7.5c0.1-7.3,0.4-14.6,0.7-21.8c0.1-3.2,0.5-6.4,0.8-9.7c0.2-2.4,0.5-4.8,0.7-7.2c0.4-3.8,2.1-6.6,6.1-7.7
					c0.8-0.2,1.5-0.6,2.2-1c6.6-4.8,13.6-4.7,20.7-1.3c4.1,2,8.2,4,12.3,6.2c2.5,1.4,4,3.7,4.4,6.5c0.7,4.2,1.4,8.5,1.7,12.8
					C348.2,269.1,348,274.2,348,279.4C348,279.4,348,279.4,348,279.4z M305.2,246.2c-0.3,0.8-0.8,1.8-0.9,2.9
					c-0.9,11.5-1.7,23.1-2.5,34.6c-0.2,3,1.2,5.2,3.8,6.6c5.8,2.9,11.5,5.8,17.4,8.6c1.1,0.5,2.4,0.4,4.2,0.7
					c-0.2-15.5,1.5-30.5-0.7-45.5c-3.9-1.5-6.9-4-10.9-4.2c-1.9-0.1-3.5-1.1-4.6-2.9C309.5,244.4,307.5,245,305.2,246.2z
					 M312.5,241.3c0.4,0.8,0.6,1.5,1,1.7c4.5,2.4,9.1,4.5,13.6,7c4.4,2.5,8.5,1.9,12.8-0.3c-5.4-4.7-15.8-9.8-20.9-10.2
					C316.6,239.3,314.4,239.7,312.5,241.3z"/>
			</g>
			<path class="st3" d="M312.9,261.2c-1.7,7.2-0.7,13.8-0.8,20.4c0,0.4,0.5,0.9,1.1,1.7c1.5-0.2,3.2-0.4,5.1-0.6
				c0.7-6.5,1.3-12.5,2-18.9C317.7,262.9,315.5,262.1,312.9,261.2z"/>
		</g>
		<rect x="294.4" y="166.4" class="st5" width="16.8" height="171"/>
		<g>
			<path class="st7" d="M278,343.2c-0.1-6.7,2.3-12.8,6.5-18.2c7.9-10.1,24.9-9.9,32.3-2.7c3.8,3.7,7.2,7.5,8,12.8
				c0.9,6.2-0.9,11.4-5,16.6c-4.6,6-10.9,9-18.5,10.2c-9.6,1.6-19.6-3.9-22.5-12.1C278.2,347.7,278.3,345.4,278,343.2z"/>
			<g>
				<path class="st2" d="M279.1,343c-0.1-6.3,2.2-12,6.2-17.1c7.4-9.5,23.4-9.3,30.4-2.6c3.6,3.5,6.8,7,7.5,12
					c0.8,5.9-0.9,10.8-4.7,15.6c-4.3,5.6-10.2,8.4-17.4,9.6c-9,1.5-18.5-3.6-21.2-11.4C279.3,347.2,279.4,345.1,279.1,343z M282,343
					c-0.4,2.6,0.3,5.1,1.9,7.3c3.8,5.2,9.2,7.8,16.4,7.2c4.4-0.4,8.4-1.9,11.8-4.3c4.6-3.2,8.1-7.3,8.6-12.5
					c0.8-7.6-3.6-13.3-10.1-17.7c-1.2-0.8-2.9-1.2-4.4-1.3c-2.7-0.2-5.5-0.3-8.1,0.2c-4,0.8-8.3,2.2-10.3,5.5
					C285,332.2,281.8,337.1,282,343z"/>
				<path class="st2" d="M302.7,341.9c-0.4,1-0.7,2.1-1.2,3c-0.2,0.4-1,0.7-1.4,0.7c-0.4,0-1.1-0.5-1.2-0.9
					c-0.6-1.8-0.8-3.7-0.4-5.7c2.1-0.7,4.2-1.2,6.1-1.9c1.7-0.7,2.5-2.2,1.9-3.9c-0.2-0.6-0.8-1.4-1.3-1.5c-1.9-0.3-3.8-0.4-5.7-0.3
					c-1.7,0.1-2.5,1.4-3.2,2.7c-0.8,1.5-2.3,1.9-3.8,1.3c-1.3-0.5-1.9-2.2-1.2-3.6c2.5-5.3,11.5-7.1,16.4-3.7
					c3.8,2.6,4.3,8.7-0.9,12.1C305.6,340.9,304.1,341.4,302.7,341.9z"/>
				<path class="st2" d="M305.6,351.1c-0.3,0.5-0.7,1.6-1.5,2.4c-1,1-2.4,1-3.8,0.4c-1.4-0.6-1.9-1.7-1.8-3c0.1-1.3,0.9-2.3,2.3-2.7
					c0.7-0.2,1.5-0.2,2.3-0.2C304.6,348.1,305.6,349,305.6,351.1z"/>
			</g>
		</g>
		<path class="st2" d="M395.3,284.4c-0.3-1.1-0.8-2-0.7-2.9c0.2-5.2,0.6-10.4,0.9-15.6c0.1-1.5,0.6-2.9,2.1-3.4
			c1.7-0.6,3.2,0.1,4.5,1.3c0.2,0.2,0.4,0.3,0.5,0.5c2.5,6.1,3.6,12.3,0.2,18.5C401.1,285.5,398.6,285.7,395.3,284.4z"/>
		<g>
			<g>
				<path class="st7" d="M414.2,287.6c0.1,3,0.2,5.1,0.3,7.1c-1.6,2.6-4.2,3.2-6.9,3.1c-6-0.1-11.9,0.7-17.7,1.8
					c-2.4,0.5-4.5,0-6.8-1.3c-3.9-2.2-8.2-3.8-12.3-5.7c-5.4-2.4-7.8-6.6-7.5-12.5c0.5-9,0.7-18.1,1.1-27.1c0-0.9,0.4-1.8,0.6-3.1
					c4.4-1.5,8.9-3.1,13.4-4.4c1-0.3,2.3,0,3.5,0.3c2.3,0.5,4.6,1.2,7.3,2c0.5-1.4,1.1-2.7,1.3-4c0.2-2.4,0.1-4.8,0.1-7.1
					c0-3.1,0.5-6.1,2.3-8.7c2.4-0.8,4.4,0.1,6.4,0.8c3.2,1,6.5,1.8,9.4,3.3c5.9,2.9,12.1,4.3,18.5,5c3.4,0.3,5.2,1.9,6,5
					c0.6,2.3,1.2,4.6,1.6,7c1.4,8.7,3,17.4,2.3,26.3c0,0.5-0.1,1,0,1.4c2.3,6.2-2.3,9.1-6,12.4c-0.6,0.6-1.8,1.1-2.6,0.9
					c-3.3-0.5-7,1.1-10-1.8C417.9,287.6,416.4,287.9,414.2,287.6z"/>
				<path class="st2" d="M414.2,287.6c0.1,3,0.2,5.1,0.3,7.1c-1.6,2.6-4.2,3.2-6.9,3.1c-6-0.1-11.9,0.7-17.7,1.8
					c-2.4,0.5-4.5,0-6.8-1.3c-3.9-2.2-8.2-3.8-12.3-5.7c-5.4-2.4-7.8-6.6-7.5-12.5c0.5-9,0.7-18.1,1.1-27.1c0-0.9,0.4-1.8,0.6-3.1
					c4.4-1.5,8.9-3.1,13.4-4.4c1-0.3,2.3,0,3.5,0.3c2.3,0.5,4.6,1.2,7.3,2c0.5-1.4,1.1-2.7,1.3-4c0.2-2.4,0.1-4.8,0.1-7.1
					c0-3.1,0.5-6.1,2.3-8.7c2.4-0.8,4.4,0.1,6.4,0.8c3.2,1,6.5,1.8,9.4,3.3c5.9,2.9,12.1,4.3,18.5,5c3.4,0.3,5.2,1.9,6,5
					c0.6,2.3,1.2,4.6,1.6,7c1.4,8.7,3,17.4,2.3,26.3c0,0.5-0.1,1,0,1.4c2.3,6.2-2.3,9.1-6,12.4c-0.6,0.6-1.8,1.1-2.6,0.9
					c-3.3-0.5-7,1.1-10-1.8C417.9,287.6,416.4,287.9,414.2,287.6z M386.6,259.8c-3.2-1-6.2-1.8-9.1-2.8c-3-1.1-6-2.4-9.3-3.7
					c-0.6,6.1-1.2,11.7-1.6,17.4c-0.2,3.1-0.2,6.2,0,9.3c0.2,4.4,2.2,7.7,6.4,9.4c3.3,1.3,6.5,2.6,9.8,4
					C384.5,288.4,386.7,268.4,386.6,259.8z M393.8,248.6c1.7,0.9,3.4,1.7,5.1,2.6c2.4,1.1,4.7,2.3,7.1,3.3c4.2,1.8,6,4.7,6.2,9.4
					c0.2,6.4,1.1,12.7,1.7,19.4c1.9,0.3,3.7,0.6,5.9,1c0.6-7.9-0.8-15-1.8-22.3c-1-7.5-1.7-15-2.6-22.6c-6.3-2.5-11.9-6.3-19.1-6.4
					C394.4,238.1,393.9,243.2,393.8,248.6z M376.2,249.6c2.3,3.8,5.1,4.8,8.2,5.3c3.7,0.6,3.7,0.7,8-1.1
					C387.5,251.7,383,248.5,376.2,249.6z"/>
			</g>
			<path class="st3" d="M372.3,261.2c3.4,1.1,6.1,2,9.2,3c-1.9,2.8-4,1.9-5.8,1.3C374.2,265,371.8,264.9,372.3,261.2z"/>
			<path class="st3" d="M378.8,271c-2.1,2.6-3.6,1.6-4.9,0.7c-0.5-0.3-0.9-1.2-0.8-1.7c0.1-0.4,1.1-1,1.6-0.9
				C375.9,269.6,377.1,270.3,378.8,271z"/>
			<polygon class="st3" points="370.4,250.6 392,259.9 407,258.3 379.7,246.2 			"/>
			<g>
				<path class="st7" d="M400.6,267.1c-3.1,4.5-2.5,9.3-2.8,14.9c1.5-0.8,2.8-1.1,3.2-1.8c0.6-1.2,1-2.7,0.8-4
					C401.6,273.1,401,270.1,400.6,267.1z"/>
				<path class="st7" d="M427.7,259.6c0.7,5.3,1.2,9.4,1.9,14.6c-1.5-1.1-2.4-1.4-2.7-2c-1.4-3.3-1.8-6.8-1.3-10.3
					C425.7,261.4,426.4,260.9,427.7,259.6z"/>
				<path class="st7" d="M426.1,253.3c-1-1.5-1.9-2.6-2.4-3.8c-0.2-0.5,0.2-1.3,0.3-1.9c0.6,0.1,1.5,0,1.8,0.4
					c0.7,0.9,1.2,2,1.5,3.2C427.4,251.6,426.7,252.2,426.1,253.3z"/>
			</g>
		</g>
		<g>
			<g>
				<g>
					<polygon class="st8" points="519.9,254 521.5,281.2 542,302.6 586.2,298 588.7,275.7 					"/>
				</g>
				<polygon class="st7" points="519.7,253.7 551.3,281.5 589.1,276.2 558.3,249.1 				"/>
				<g>
					<path class="st2" d="M573.1,265.2c0.2,1.9-0.6,2.2-1.4,2.2c-2.4,0-4.9-0.4-7.3-0.2c-6.7,0.5-13.5,1.3-20.2,2
						c-0.6,0.1-1.1,0-2,0c0.6-0.8,0.8-1.5,1.1-1.6C549.2,265.4,568.5,263.9,573.1,265.2z"/>
					<path class="st2" d="M558.6,253.6c-0.2,2-1.3,2.3-2.3,2.3c-1.8,0.1-3.6,0-5.4,0.1c-6.8,0.1-13.6,0.3-20.5,0.4
						c-1.2,0-2.5,0.3-3.2-1.6c1.7-0.4,3.2-1,4.8-1C540.8,253.4,549.6,253.2,558.6,253.6z"/>
					<path class="st2" d="M533.7,261.9c0.4-1.4,1.3-1.6,2.2-1.6c4.1-0.1,8.3-0.4,12.4-0.2c5,0.2,10,0.1,15.1-0.5c1-0.1,2,0.1,4,0.3
						c-1.2,0.8-1.7,1.4-2.3,1.4c-3,0.4-6.1,0.8-9.1,0.9c-7,0.2-14,0.2-21,0.2C534.6,262.4,534.2,262.2,533.7,261.9z"/>
					<path class="st2" d="M570.6,273.3c0,0.3,0,0.8-0.1,0.9c-2.2,1.1-8,1.3-13.5,0.4c0.6-0.6,1-1,1.5-1.4c0.3-0.2,0.7-0.2,1-0.2
						c3.4-0.1,6.8-0.2,10.2-0.2C570,272.8,570.3,273.1,570.6,273.3z"/>
				</g>
			</g>
			<path class="st7" d="M582,284.1l-33.6,4.9C572.4,290.9,582,284.1,582,284.1z"/>
			<path class="st7" d="M577.7,291.9c-23,0.8-27.1,2.9-25,2.9C574.2,295.6,577.7,291.9,577.7,291.9z"/>
			<path class="st7" d="M527.1,270.4c11.1,8.6,14.3,12.9,12.9,12.3C531,276.5,527.1,270.4,527.1,270.4z"/>
		</g>
		<polygon class="st2" points="506.2,276.9 532.2,301.5 499.2,311.4 477.5,280.2 		"/>
		<g>
			<path class="st7" d="M492,297.7c0.5-0.4,0.9-1,1.4-1.2c7.5-3.1,15.3-5,23.2-6c0.5-0.1,1,0.2,1.4,0.4c0.2,0.1,0.4,0.6,0.4,0.9
				c0,0.3-0.1,0.7-0.4,0.9c-0.2,0.2-0.6,0.4-0.9,0.4c-7.9,0.6-15.4,2.6-22.8,5.4c-0.6,0.2-1.3,0.1-1.9,0.2
				C492.3,298.3,492.2,298,492,297.7z"/>
			<path class="st7" d="M505.6,281c-4.8,1-9.4,2.7-14.4,2.7c-2.5,0-5,0.6-7.5,0.9c-0.2,0-0.6-0.7-0.7-1.1c-0.1-0.2,0.2-0.7,0.4-0.8
				c0.6-0.3,1.3-0.5,1.9-0.6c2.8-0.5,5.7-0.9,8.5-1.4c3.3-0.6,6.7-1.3,10-1.9C505.3,278.5,505.5,278.8,505.6,281z"/>
			<path class="st7" d="M513.4,286.3c-0.9,0.4-1.7,1-2.6,1.1c-6.6,0.9-13.2,1.8-19.8,2.6c-0.5,0.1-1,0.1-1.5-0.1
				c-0.2-0.1-0.5-0.5-0.6-0.7c0-0.3,0.1-0.8,0.3-0.9c1.4-0.5,2.9-1,4.4-1.2c5.7-0.8,11.5-1.5,17.3-2.2c0.8-0.1,1.6,0.2,2.4,0.3
				C513.3,285.6,513.3,285.9,513.4,286.3z"/>
			<path class="st7" d="M505.5,300.1c2.9-2.1,6.5-2.7,9.9-3.5c0.9-0.2,1.9,0.1,3.6,0.2c-1.1,1-1.5,1.6-2,1.7
				c-3.4,1.1-6.9,2.1-10.3,3.1C506,301.7,505.6,301.2,505.5,300.1z"/>
		</g>
		<rect x="469.5" y="166.4" class="st5" width="16.8" height="173.4"/>
		<g>
			<polygon class="st2" points="105,435.9 137.8,456.1 135.6,504.3 114.3,507.5 105.6,497.1 			"/>
			<polygon class="st7" points="109.5,439.3 131.9,455.5 112,457.5 103.2,447.1 			"/>
			<polygon class="st3" points="131.5,462.7 131.2,468.4 117.6,471.5 116.5,464.6 			"/>
			<polygon class="st3" points="132.1,479.4 117.9,483.5 118.1,479.7 131.8,476.9 			"/>
			<polygon class="st3" points="132.1,491.7 131.8,500.7 114.8,501 115.1,494.1 			"/>
			<polygon class="st8" points="109.1,441.9 123,453.4 109.7,446 			"/>
			<path class="st8" d="M115.4,451.8l-9-4.6c0,0,5.5,5.7,6.6,6.6C114,454.5,115.4,451.8,115.4,451.8z"/>
		</g>
		<rect x="95.4" y="350.1" class="st5" width="16.8" height="171"/>
		<g>
			<path class="st7" d="M166.2,501.3c-2.6-0.9-5-2.6-6.9-5c-4.1-5-8.2-9.9-12.2-14.9c-0.6-0.7-1.3-1.8-1.1-2.4
				c0.8-2.6-1-4.8-1.1-7.6c1.3-0.5,2.6-1.2,3.8-1.2c9.2,0.1,18.3-1.4,27.4-2.5c1.1-0.1,2.3-0.4,3.4-0.2c1.1,0.2,2.3,0.5,3.1,1.2
				c5.3,5.1,13.5,11.6,18.7,16.7c2.6,2.6-0.5,5,0.3,8.3c0.2,0.6-1.1,2.2-1.9,2.4c-2.9,0.8-5.8,1.3-8.8,1.7
				C183,499,175.1,500.1,166.2,501.3z"/>
			<path class="st2" d="M162.7,481.6c7.3-0.5,12.8-4.6,19.7-2.9c-0.4,0.6-0.6,1.4-1,1.5c-4.1,1.1-8.3,2.1-12.5,3
				C167.2,483.6,165.4,484,162.7,481.6z"/>
			<path class="st2" d="M160.9,476.5c5.8-3,10.8-3.9,15.6-2.6c-3.8,1.9-12.6,4.1-15.2,3.7C161.1,477.6,161,476.9,160.9,476.5z"/>
			<path class="st2" d="M171.6,485.8c4.1-2.1,8-2.3,11.9-2.1c-3.4,2.3-6.8,3.4-10.6,3.6C172.6,487.3,172.3,486.7,171.6,485.8z"/>
			<path class="st8" d="M144.9,471.4l19.3,19.9l37.6-5.3c0,0,1,10.9,0,10.9c-1,0-37.6,5.6-37.6,5.6l-20.9-22.7L144.9,471.4z"/>
			<path class="st7" d="M168.9,497.8c7.6-0.8,14.5-2.3,21.5-2.8c2-0.1,4.1-0.7,6.1-1.1c0.6-0.1,1.1-0.7,1.6-1
				c0.2-2.1-0.3-3.5-2.5-3.2c-4.8,0.7-9.5,1.4-14.2,2.5c-3.8,0.8-7.5,2.1-11.2,3.2C169.8,495.5,169.6,496.4,168.9,497.8z"/>
			<path class="st7" d="M162.4,495c1.9-3.1,2-3.3-0.1-4.6c-2.6-1.7-5.6-3.1-8.2-4.9c-2.5-1.7-4.5-3.8-6.9-5.9
				c-1.1,1.8,0.5,2.7,1.3,3.6C152.4,487.7,159.1,493.3,162.4,495z"/>
		</g>
		<polygon class="st7" points="222.7,450.1 256.7,498.5 300.2,487 272.3,448.1 		"/>
		<polygon class="st7" points="282.9,450.1 304.7,491.5 346.5,485 321.9,444.8 		"/>
		<g>
			<path class="st2" d="M278.8,462.5c-0.4,1.1-0.5,2.1-0.9,2.2c-2,0.6-4.1,1.1-6.2,1.5c-6,1.1-12,2.1-17.9,3.3c-4,0.8-8,1.9-12,2.9
				c-0.8,0.2-1.8,0.5-2.1-0.7c0.2-0.3,0.3-0.8,0.5-0.9C250.7,467.5,265.3,464.3,278.8,462.5z"/>
			<path class="st2" d="M300.4,454.5c5.5-5.7,5.5-4.3,11.2-1.9c0.8-0.8,1.6-1.7,2.4-2.5c1.9-2,2.7-1.8,4.6,1.2
				c-0.9,1.4-1.9-0.2-3.1,0.2c-0.9,1.2-2,2.6-2.9,3.7c-2,0.5-3-0.9-4.2-1.5c-2.3-1.1-3.5-0.9-5.2,1.1c-0.7,0.8-1.2,1.7-2,2.9
				c-1.4-0.7-2.8-1.3-4.4-2.1c-0.1,0.4-0.2,0.9-0.3,1.2c-0.7,1.8-1.9,2.4-3.8,1.9c-0.8-2-0.2-3.7,1.4-4.7
				C296.2,452.6,298.3,452.9,300.4,454.5z"/>
			<path class="st2" d="M294.4,465.7c3.8-4.5,7.9-4.9,12.5-2.9c2.8-3.2,7.1-3.2,10.6-5c0.6-0.3,1.5-0.4,2.1-0.1
				c2,0.9,3.8,0.8,5.6-0.4c0.2-0.1,1,0.4,1.2,0.7c0.1,0.4-0.1,1.1-0.5,1.4c-1.5,1.2-3.1,1.9-5,1c-1.4-0.7-2.7-0.6-4.1,0.1
				c-2.7,1.4-5.9,1.6-8.2,3.8c-0.6,0.6-2.3,0.8-3,0.4c-3.1-1.9-5.8-0.9-8.7,0.5C296.4,465.7,295.7,465.6,294.4,465.7z"/>
			<path class="st2" d="M313.3,469.8c3.3-3.8,7.1-4.1,11.2-3.9c1.1,0.1,2.1,0.1,3.2,0.2c0.8,0,1.7,0,3.1,0c-0.5,0.9-0.6,1.7-1.1,1.9
				c-0.8,0.3-1.7,0.3-2.6,0.3c-1.8,0-3.6-0.1-5.4-0.1c-1.8,0-3.6,0.4-5,1.6c-1.9,1.7-4,2.3-6.4,1.2c-2.1-1-3.8,0.2-5.7,0.8
				c-1.8,0.6-3.3,2.1-5.5,2.1c0.9-2.4,1.8-2.8,6-4.6C307.9,468.3,310.4,468.4,313.3,469.8z"/>
			<path class="st2" d="M325.5,478.9c6.4-3.2,6.4-3.2,9.9-0.8c-0.1,0.9-0.8,1.1-1.5,1c-1.6-0.2-3.2-0.5-4.6,0.7
				c-2.4,2.1-4.9,1.9-7.4,0.3c-0.3-0.2-0.7-0.2-0.7-0.3c-2.9,0.5-5.6,0.7-8.2,1.3c-2,0.4-4,1.2-5.9,1.8c-0.7-0.8-0.3-1.4,0.2-1.9
				c1.5-1.5,3.3-2,5.3-2.2c1.6-0.2,3.3-0.2,4.7-0.8c2.6-1.1,4.8-0.9,7.1,0.6C324.8,478.8,325.2,478.8,325.5,478.9z"/>
			<path class="st2" d="M257.9,485.2c0.6-0.7,0.9-1.4,1.4-1.6c2-0.8,4-1.7,6.1-2c5.3-0.9,10.5-1.6,15.7-3.2c0.5-0.1,1.1-0.2,1.6,0
				c0.4,0.1,0.8,0.6,1,1.1c0.1,0.2-0.1,0.8-0.4,0.9c-0.8,0.4-1.6,0.7-2.5,0.9c-7,1.5-13.9,2.9-20.9,4.3
				C259.4,485.6,258.8,485.4,257.9,485.2z"/>
			<path class="st2" d="M260.8,460.2c-7.9,2.2-15.3,3.5-22.8,4.3c-0.7,0.1-1.4,0-2.1-0.2c-0.2,0-0.4-0.5-0.5-0.8
				c0-0.1,0.1-0.4,0.2-0.4c0.5-0.3,0.9-0.6,1.4-0.7c6.9-1.3,13.7-2.6,20.6-3.9c0.7-0.1,1.4-0.1,2.1,0.1
				C260.1,458.6,260.3,459.3,260.8,460.2z"/>
			<path class="st2" d="M273.5,471.9c-0.9,0.9-1.2,1.6-1.8,1.7c-2.6,0.7-5.2,1.3-7.8,1.9c-4.7,1.1-9.4,2.1-14.2,3.2
				c-0.9,0.2-1.8,0.1-2.1-1.5c7.5-2.8,15.5-3.7,23.3-5.6C271.5,471.5,272.2,471.7,273.5,471.9z"/>
		</g>
		<rect x="209.1" y="348.5" class="st5" width="16.8" height="171"/>
		<g>
			<path class="st2" d="M458.8,444.3c-1.3,9.9-2.5,19.5-3.9,29c-0.4,2.8-1.5,5.5-2.4,8.2c-1.2,3.3-3.5,5.3-7.2,5.7
				c-5.5,0.5-11,1.3-16.6,1.6c-6.4,0.3-12.9,0.1-19.4,0.4c-5.4,0.2-9.5-1.7-13-5.8c-3.6-4.2-7.7-8-11.4-12.1c-2.8-3-5.4-6.3-8-9.4
				c-2.8-3.3-4-7.1-3.7-11.5c0.4-5.5,0.6-11.1,2-16.5c0.4-1.7,0.4-3.6,0.4-5.3c-0.1-3.4,0.1-3.6,3.5-3.6c3-0.1,6.1-0.1,9.1-0.2
				c6.8-0.1,13.6-1.3,20.3-2.5c7.4-1.3,14.1-0.3,20.7,3.6c7.2,4.3,14.7,8.2,21.3,13.5c0.8,0.7,1.7,1.3,2.5,2
				C455.4,443.5,455.4,443.5,458.8,444.3z M383.8,427.9c-0.1,0.3-0.2,0.7-0.3,1c1.5,1.2,3.1,2.4,4.6,3.6c6,4.3,12.4,8,17.7,13.1
				c1.1,1.1,2.4,1.5,3.9,1.4c3.4-0.2,6.8-0.4,10.2-0.7c8.4-0.6,16.8-1.1,25.2-1.7c1.5-0.1,3.1,0.2,5-0.8c-1-1-1.6-1.7-2.4-2.3
				c-6.4-5.2-13.8-8.9-20.9-13.1c-5.7-3.3-11.7-4.3-18.1-3.2c-0.2,0-0.4,0.1-0.5,0.1c-5.7,0.8-11.3,1.9-17.1,1.9
				C388.6,427.1,386.2,427.6,383.8,427.9z"/>
			<path class="st2" d="M433.8,438.9c0.8,0.2,1.1,0.3,1.2,0.4c0.2,0.2,0.7,0.6,0.6,0.8c-0.1,0.5-0.4,1.2-0.7,1.3
				c-3.4,0.4-6.7,0.7-10.1,0.9c-4.4,0.3-8.9,0.8-13.3,0.8c-1.3,0-3.2,1.3-4.1-0.9c0.9-1.5,2.4-1.2,3.8-1.3c5.7-0.6,11.3-1.3,17-1.8
				C430.2,438.8,432.3,438.9,433.8,438.9z"/>
			<path class="st2" d="M399.7,435.7c0.5-0.9,0.6-1.5,1-1.6c1.1-0.4,2.3-0.9,3.6-1c7.1-0.7,14.2-1.3,21.3-1.9c0.3,0,0.7,0,1,0.2
				c0.3,0.2,0.5,0.5,0.6,0.8c0.1,0.3,0,0.9-0.2,1c-0.8,0.4-1.6,0.8-2.4,0.9c-6,0.5-12.1,0.9-18.1,1.3
				C404.3,435.4,402.2,435.5,399.7,435.7z"/>
			<path class="st2" d="M420.1,428.3c-0.8,0.3-1.5,0.8-2.3,0.8c-7.1,0.1-14.1,1-21.2,1.2c-0.3,0-0.6-0.2-1.3-0.5
				c0.6-0.5,1-1.1,1.5-1.2c7-1,14-2.3,21.2-1.8c0.7,0.1,1.3,0.3,2,0.4C420,427.6,420.1,428,420.1,428.3z"/>
		</g>
		<g>
			<path class="st3" d="M425,463.1c-1.7-0.9-3.1-0.8-4.5-0.1c-1.4,0.6-2.3,1.7-2.8,3.1c-0.4,1.3-0.8,2.7-1,4.1
				c-0.2,1.2-0.2,2.4-0.2,3.4c-1.3,0.6-1.8-0.1-1.9-0.7c-0.5-3.3,0.1-6.4,1.6-9.4c1.3-2.5,3.4-3.7,6-3.7c2.3,0,4.5,0.2,6.9-0.4
				c1.4-0.4,3.2,0.3,4.8,0.4c0.9,0.1,2.2,0.4,2.6-0.1c2.3-2.8,4.2-1.4,6.4,0.2c1.1,0.8,2.7,1,3.9,1.6c1,0.5,1.6,1.4,0.9,2.8
				c-1.4-0.3-2.9-0.6-4.4-1c-0.4,1.6-0.7,3-1.3,4.3c-0.4,0.9-1.1,1.9-2,2.4c-0.6,0.4-1.8,0.7-2.5,0.4c-0.6-0.3-1.2-1.4-1.2-2.1
				c-0.1-1.6,0.2-3.1,0.4-4.9c-2.4-1.2-4.7-1.8-7.5-1.1c0.2,1.6,0.7,3.2,0.6,4.7c-0.1,2.1,0.1,4.5-2.3,5.6c-1.3,0.6-2.5-1.7-2.7-5.1
				C424.9,466.2,425,464.8,425,463.1z"/>
			<path class="st3" d="M439.6,465.3c-0.3,0.7-0.5,1.2-0.6,1.7c0,0.1,0.2,0.3,0.3,0.4c0.3-0.4,0.6-0.7,0.8-1.1
				C440.2,466.1,439.9,465.7,439.6,465.3z"/>
		</g>
		<polygon class="st3" points="372.6,428.3 404.3,453.4 466.3,446.7 468,437.4 421.2,413.5 370.7,419.5 		"/>
		<polygon class="st6" points="318.6,441.1 380.5,497.7 380.5,364 319.2,365.1 		"/>
		<polygon class="st4" points="463.9,438.7 405.7,443 388.7,428 388.2,440 405.1,451.8 464.4,444.7 		"/>
		<rect x="379" y="351.3" class="st5" width="18.7" height="171"/>
		<g>
			<polygon class="st8" points="503.2,427.2 505.4,457 541.8,481.6 586.3,471.5 583.6,444.9 544.5,419 			"/>
			<polygon class="st7" points="503.2,427.2 539.9,455.9 583.6,444.9 544.2,417.9 			"/>
			<path class="st7" d="M508.2,450.8c0.8,0.2,1.6,0.3,2.4,0.7c5,2.4,10.2,4.4,14.9,7.7c3.1,2.2,6.7,3.8,10.1,5.7
				c0.9,0.5,1.8,1.1,1.1,2.5c-0.8-0.3-1.7-0.4-2.4-0.8c-4.8-2.7-9.5-5.3-14.1-8.3c-3.3-2.2-7.1-3.8-10.6-5.7
				c-0.6-0.3-1.2-0.7-1.7-1.1C508,451.3,508.1,451,508.2,450.8z"/>
			<path class="st2" d="M534.4,425.3c2.7-2.4,5.4-5.1,9.3-2.9c0.8-0.8,1.4-1.4,2.3-2.2c-0.2,2.8-0.3,2.8-1.9,4.4
				c-0.4-0.1-0.8-0.1-1.2-0.3c-2.2-1.4-4.2-1-5.7,0.9c-1.5,1.8-3.1,2.4-5.2,1.7c-0.8-0.3-1.7-0.2-2.3-0.3c-0.4,0.3-0.7,0.4-0.9,0.6
				c-1.9,2.6-4.2,3.7-7.4,2.6c-1.5-0.5-1.9,0-2.8,1.8c-0.2,0.4-0.4,0.7-0.7,1.4c-1-1.6-0.5-2.9,0.4-4c0.6-0.9,1.7-1.1,2.7-1
				c0.3,0,0.6,0,0.8,0.1c2.5,1,4.4,0.2,5.9-2c0.9-1.4,2.3-1.6,3.8-1.2C532.4,425,533.4,425.1,534.4,425.3z"/>
			<path class="st2" d="M550.2,426.9c-2.3,1.5-4.4,2.7-6.4,4c-1.4,0.9-3,1.1-4.5,0.5c-1.8-0.6-2.9,0.1-4.1,1.4
				c-3.2,3.6-3.5,3.5-6.3-0.1c-0.1-0.1-0.2-0.1-0.5-0.3c-1.7,0.7-2.6,2.5-4,3.7c-0.9-0.5-0.7-1.2-0.4-1.8c1.1-1.8,2.3-2.7,5.1-4
				c0.8,1,1.7,2,2.6,3.1c1.5-0.2,2-1.6,2.9-2.5c1.3-1.4,2.8-2.1,4.6-1.4c2,0.8,3.5,0,5.2-1.1c1.4-1,3-1.7,4.5-2.3
				C549.1,426,549.7,426.6,550.2,426.9z"/>
			<path class="st7" d="M552.5,467.5c0.4-0.5,0.7-1.2,1.3-1.5c2.8-1.4,5.6-3,8.5-4c4.8-1.8,9.8-3.2,14.7-4.7
				c0.3-0.1,0.8,0.2,1.1,0.3c-0.2,0.5-0.2,1.3-0.5,1.4c-2.4,1-4.8,2-7.3,2.6c-5.6,1.3-11,3.2-16,6c-0.3,0.2-0.8,0.2-1.2,0.3
				C553,467.9,552.9,467.8,552.5,467.5z"/>
			<path class="st2" d="M533.8,447.6c1.7-1.3,3.4-2.6,5.1-3.9c1.9-1.5,3.9-2.3,6.4-1.3c2.1,0.9,3.9,0.1,5.4-1.5
				c0.6-0.6,1.2-1.3,1.8-1.8c0.5-0.4,1.2-0.9,1.9-1c1.9-0.2,3.9-0.1,6.5-0.2c-0.9,0.8-1.2,1.5-1.6,1.5c-3.8-0.1-6.8,1.4-9.4,4.1
				c-1.2,1.3-3.2,1.2-4.9,0.6c-2.2-0.8-3.9-0.2-5.5,1.2c-1.3,1.1-2.7,2.1-4.2,3c-0.3,0.2-0.9,0.1-1.4,0.2
				C533.9,448.1,533.9,447.9,533.8,447.6z"/>
			<path class="st7" d="M554.6,474.7c1.1-2.1,2.8-2.7,4.6-3.3c5.1-1.5,10.1-3.1,15.2-4.6c1.2-0.3,2.3-1,4-0.2
				c-0.7,0.6-1.1,1.2-1.7,1.4c-5.5,1.6-10.7,4-16.4,5c-1.3,0.2-2.4,0.8-3.7,1.1C556,474.4,555.3,474.5,554.6,474.7z"/>
			<path class="st2" d="M537.6,438.5c-0.9,1-1.7,2-2.6,2.8c-0.6,0.6-1.4,1-2.2,1.2c-0.5,0.2-1.2,0-1.3-1c2.3-0.7,3.6-2.8,5.3-4.5
				c0.8-0.8,1.6-1.2,2.6-0.4c1.2,0.9,2.1,0.4,3.1-0.4c0.3-0.3,0.6-0.6,0.9-0.9c1.6-2.1,3.5-3.1,6.2-3.1c1.5,0,3-0.6,4.4-0.9
				c0.7,0.6,0.2,1.1-0.2,1.4c-1.2,1.1-2.7,1.6-4.3,1.4c-2.2-0.2-3.9,0.7-5.2,2.4c-0.3,0.4-0.7,0.9-1.2,1.3c-1.2,1.2-2.6,1.8-4.2,1
				C538.5,438.7,538.1,438.6,537.6,438.5z"/>
			<path class="st2" d="M542.1,450.5c1.6-0.9,2.9-2.2,4.7-2.7c2.8-0.9,5.4-2.7,8.9-1.6c-0.5,0.5-0.8,1.1-1.3,1.2
				c-1.9,0.4-3.9,0.4-5.6,1.9c-0.7,0.6-2.1,0.5-3.2,0.9c-1,0.3-2,0.8-3.1,1.2C542.4,451,542.3,450.7,542.1,450.5z"/>
		</g>
		<rect x="491.9" y="351.3" class="st5" width="16.8" height="171"/>
		<g>
			<g>
				<path class="st2" d="M543.5,384.5c2.2-1.6,4.1-2.5,6.2-2.7c5.8-0.6,11.7-1.1,17.5-1.7c3.8-0.3,7,1,9.8,3.5
					c3.3,2.9,6.7,5.7,10.2,8.4c1.1,0.9,1.9,1.8,2,3.2c0.2,1.5,0.4,2.9,0.5,4.4c0.1,13.4,0.1,26.8,0.2,40.1c0,1,0,2-0.1,2.9
					c-0.1,1.5-0.9,2.4-2.3,2.9c-1.2,0.4-2.5,0.8-3.8,0.9c-7.1,0.5-14.3,1.4-21.5,0.6c-3-0.3-5.6-1-7.8-3.3c-3.8-4-7.9-7.8-11.8-11.8
					c-1.3-1.3-2.4-2.7-3.5-3.9c1-7.5,2.1-14.7,2.9-22C542.8,398.9,543.1,391.8,543.5,384.5z M583.5,393.9c-2.1-2.6-8.3-8.2-10.6-9.5
					c-0.9-0.5-2-0.8-3.1-1.2c-0.7,1-1.2,1.7-1.8,2.6c-5.3,0.1-10.2,3.5-15.9,1.7c0.3-0.7,0.4-1.4,0.7-1.4c1.1-0.3,2.2-0.4,3.3-0.6
					c2.5-0.4,5.1-0.4,8-2.2c-5.6,0.3-10.4,1-15.1,1.6c-0.6,0.1-1.1,0.5-1.8,0.8c2.1,6.2,7.6,7.8,12.6,10c0.1,0.1,0.3,0,0.5,0
					c3.9-1.1,7.8,0.1,11.6-0.1C575.8,395.1,579.6,394.8,583.5,393.9z"/>
				<path class="st2" d="M578.6,391.6c-2.1,2.3-4.4,1.2-6.3,1.5c-1.9,0.4-3.9,0.4-5.8,0.6c-0.7-0.8-0.6-1.6,0.4-2
					C569.7,390.6,574.8,390.5,578.6,391.6z"/>
				<path class="st2" d="M562.6,390.4c-0.4-0.4-0.8-0.6-0.7-0.8c0.1-0.4,0.3-1.1,0.6-1.1c1.4-0.4,2.8-0.9,4.2-1
					c1.7-0.1,3.7-1.7,5.3,0.4c-1.1,1.8-3.1,1.4-4.7,1.7C565.6,390,564,390.2,562.6,390.4z"/>
			</g>
			<g>
				<path class="st7" d="M574.2,414.6c-0.5-2-1.3-3.4-2.9-4.1c-1.8,0.8-1.5,3.6-3.8,4.1c-0.3-3,0-4.4,1.3-5.8c1.2-1.2,3-1.3,4.4-0.1
					c0.6,0.5,1,1.2,1.5,1.9c0.5,0.6,0.9,1.3,1.4,2c1.4-0.3,2.7-0.6,3.9-0.7c2-0.2,3,0.7,3.3,2.7c0.1,0.6,0,1.3-0.1,1.9
					c-0.1,0.7-0.6,1.1-1.4,1c-0.8-0.2-0.9-0.8-0.8-1.5c0.1-0.5,0.2-0.9,0.3-1.4c-2.7-0.5-4.2,0.1-4.8,1.9c-0.4,1.1-0.4,2.2-0.8,3.3
					c-0.3,0.9-0.7,1.8-1.3,2.6c-0.3,0.4-1.2,0.8-1.7,0.6c-0.5-0.1-1-1-1-1.5c0.1-1.3,0.3-2.6,0.7-3.8
					C572.8,416.7,573.5,415.7,574.2,414.6z"/>
				<path class="st7" d="M577.3,430c-0.5-0.1-1-0.1-1.4-0.2c-1.8-0.4-2.5-1.3-2.2-2.9c0.1-0.6,0.5-1.4,1-1.5
					c0.7-0.2,1.7-0.1,2.2,0.3C578.5,426.9,578.5,428.4,577.3,430z"/>
			</g>
		</g>
		<polygon class="st3" points="540.7,391.3 561,404.3 595.1,401.1 596.4,391.8 569.4,376.2 539.1,382.9 		"/>
		<polyline class="st4" points="541.1,383.5 563.4,396.3 591.8,392.5 591,399.7 561.9,402.9 542,389.7 		"/>
		<g>
			<path class="st7" d="M525.5,525.6c-0.4,2.6,1,4.8-0.4,7c-2.3-0.5-4.2-1.8-6.1-2.9c-2.2-1.3-4.3-1.7-6.9-1c-2.4,0.7-5,0.8-7.5,1
				c-1,0.1-2-0.1-2.9-0.4c-4.7-1.5-6.7-4.1-6.8-9.3c-0.2-5.9,0.8-11.7,2.5-17.4c2.5-1.6,5.2-2.3,8-2.8c8.1-1.6,16.2-2.4,24.4-2.2
				c0.4,0,0.8,0.1,1.3,0.1c1.7,0.1,2.7,1,2.9,2.7c0.3,2.5,0.6,4.9,0.7,7.4c0.1,3.1,0,6.2-0.2,9.2c-0.2,3.6-1.7,6.1-5.2,7.2
				C528,524.6,526.8,525.1,525.5,525.6z"/>
			<g>
				<path class="st2" d="M524.6,524.3c-0.4,2.3,1,4.3-0.3,6.2c-2.1-0.4-3.9-1.6-5.7-2.6c-2.1-1.1-4-1.5-6.4-0.9
					c-2.3,0.6-4.7,0.7-7,0.9c-0.9,0.1-1.8-0.1-2.7-0.4c-4.3-1.3-6.2-3.7-6.4-8.4c-0.2-5.3,0.7-10.5,2.3-15.6c2.3-1.5,4.9-2,7.4-2.5
					c7.5-1.4,15.1-2.1,22.7-2c0.4,0,0.8,0.1,1.2,0.1c1.5,0.1,2.5,0.9,2.7,2.4c0.3,2.2,0.6,4.4,0.6,6.7c0.1,2.8,0,5.5-0.1,8.3
					c-0.1,3.2-1.6,5.5-4.8,6.4C526.9,523.4,525.8,523.9,524.6,524.3z M530.3,501.4c-1.9,0.1-3.3,0.2-4.8,0.2c-6,0-12,0.6-18,1.5
					c-1.8,0.3-3.6,0.7-5.4,1.1c-1.2,0.3-2.2,1.1-2.6,2.2c-1.8,4.4-2.2,8.9-1.5,13.5c0.5,3.3,2.8,5.2,6.2,5.6c0.6,0.1,1.3,0.1,2,0.1
					c2-0.2,4-0.2,5.8-0.8c2.9-1,5.4-0.6,7.8,1.1c0.3,0.2,0.7,0.4,1,0.6c0.6,0.3,1.2,0.6,1.8-0.1c0-1.2,0-2.5,0-3.9
					c1.7-0.6,3.3-1.2,4.9-1.6c2.7-0.8,3.9-2.5,3.8-5.2c-0.1-3.8-0.2-7.6-0.3-11.4C530.9,503.3,530.5,502.4,530.3,501.4z"/>
				<path class="st2" d="M504.2,513.8c0.1-2,1.2-3.6,3.3-4.4c1.7-0.7,3,0,3.6,1.8c1,3-0.5,5.6-3.4,6.2
					C505.3,517.9,504,516.7,504.2,513.8z"/>
				<path class="st2" d="M516.9,509.1c0.3,0.1,0.7,0.2,1,0.5c1.4,1.2,1.8,3.3,0.9,5c-0.5,0.9-1.3,1.3-2.2,1.3
					c-1.7-0.1-3.2-1.4-3.2-2.9c-0.1-1.9,1-3.3,2.7-3.8C516.3,509.1,516.5,509.1,516.9,509.1z"/>
				<path class="st2" d="M521.7,512.1c0.1-0.6,0.1-1,0.2-1.4c0.3-1.7,1.5-2.8,2.9-2.7c1.1,0,2.1,1.2,2.4,2.7c0.3,1.4-0.2,2.6-1,3.7
					c-0.5,0.7-1.4,0.7-2.2,0.6c-1-0.1-1.8-0.6-2.1-1.5C521.7,512.9,521.7,512.4,521.7,512.1z"/>
			</g>
		</g>
		<polygon class="st7" points="319.6,647.7 342,682.5 381.6,667.1 357.6,633.3 		"/>
		<polygon class="st7" points="367.1,643.1 385.4,673.2 408.7,664.7 385.7,628.9 		"/>
		<path class="st2" d="M334.1,668.2c0.3-0.6,0.5-1.3,1-1.6c1.2-0.8,2.5-1.4,3.8-1.9c10.3-3.7,20.9-6.3,31.6-8.5
			c0.5-0.1,1.1,0,1.5,0.2c0.3,0.1,0.5,0.5,0.6,0.8c0,0.3-0.1,0.8-0.3,0.9c-0.8,0.4-1.6,0.8-2.4,1c-4.5,1-9.1,1.8-13.6,2.9
			C348.9,663.8,341.7,665.9,334.1,668.2z"/>
		<path class="st2" d="M355.4,647c-2.2,0.4-4.7,0.8-7.2,1.2c-4.4,0.6-8.8,1.6-13,3.2c-2.2,0.8-4.4,1.4-6.7,2c-0.8,0.2-1.7,0-3.1-0.1
			c0.6-1,0.9-1.9,1.4-2c9.1-2.8,18-6.1,27.6-6.7C355.9,644.5,356.2,645.4,355.4,647z"/>
		<path class="st2" d="M333,658.7c0.2-0.5,0.3-1,0.5-1.1c3-1.3,27.5-7.1,31.1-7.4c-0.2,0.7-0.2,1.3-0.5,1.9c-0.1,0.2-0.6,0.3-1,0.4
			c-8.2,2.1-16.3,4.2-24.5,6.2C336.8,659.1,334.9,659.6,333,658.7z"/>
		<path class="st2" d="M381.9,665.3c0.3-1.3,0.2-2,0.5-2.2c1.2-0.8,2.3-1.8,3.7-2.2c4.4-1.4,8.9-2.7,13.3-4c0.5-0.1,1.1,0,1.6,0.1
			c0.3,0.1,0.7,0.5,0.7,0.7c-0.1,0.5-0.4,0.9-0.6,1.3c-0.1,0.1-0.3,0.1-0.5,0.2C394.4,660.3,388.4,662,381.9,665.3z"/>
		<path class="st2" d="M348.6,672.3c1.7-1.2,2.3-1.8,2.9-1.9c4.3-1.1,8.6-2.2,12.9-3.2c1-0.2,2.2-0.1,2.5,1.6
			c-1.2,0.3-2.4,0.6-3.5,0.9c-3.9,1.1-7.9,2.2-11.8,3.2C351.1,672.9,350.4,672.6,348.6,672.3z"/>
		<polygon class="st7" points="348.8,596.4 345.5,634.9 315.5,630.3 310,598.5 		"/>
		<path class="st2" d="M501.6,613.4c0,4.3,0.2,8.6-0.1,12.9c-0.3,4.1-2.6,6.9-6.5,8.3c-4.7,1.6-9.5,3.2-14.2,5
			c-2.8,1.1-5.7,2.2-8.2,3.9c-3.6,2.4-6.8,1.9-10-0.2c-3.2-2-6.2-4.3-9.3-6.4c-4.1-2.8-8.3-5.6-12.4-8.4c-3.9-2.7-6.2-6.4-7-11.1
			c-0.7-4.2-1.6-8.5-2.4-12.7c-0.4-1.9-0.9-3.8-1.5-5.7c-1-3.3-0.7-4.1,2.2-5.5c1.1-0.6,2.2-1.2,3.4-1.6c5.4-2,10.4-4.7,15.5-7.5
			c4.7-2.5,9.9-3.3,15-4c1.8-0.3,3.9,0.4,5.8,1c2,0.6,4.1,1.5,6,2.4c5.9,3,11.8,6.1,17.7,9c4.2,2.1,6,5.4,6,9.9
			C501.5,606.2,501.6,609.8,501.6,613.4C501.6,613.4,501.6,613.4,501.6,613.4z M433.6,596.5c3.9,1.8,7.8,3.6,11.7,5.4
			c3.1,1.4,6.1,3,9.2,4.4c2.8,1.3,5.6,2.3,8.4,3.7c1.9,0.9,3.7,1.1,5.7,0.5c2.7-0.9,5.4-2,8.2-2.5c7-1.2,13.4-3.9,19.9-6.4
			c0.8-0.3,1.4-0.9,2-1.3c-0.6-2.5-2.4-3.4-4.2-4.3c-5.7-3-11.4-6-17.2-8.9c-1.9-1-3.9-1.8-6-2.4c-1.9-0.6-3.9-1.2-5.8-1
			c-5,0.6-9.9,1.5-14.5,3.9c-4.4,2.3-9.1,4.2-13.6,6.4C436.1,594.5,434.3,594.7,433.6,596.5z"/>
		<g>
			<path class="st2" d="M344.6,614.7c0,0.4,0,0.5-0.1,0.7c-0.1,0.2-0.2,0.3-0.3,0.4c-0.3,0.2-0.6,0.4-0.9,0.5
				c-7.8,1.2-15.6,2.4-23.4,3.5c-0.5,0.1-1-0.2-2.1-0.4c0.8-0.7,1.1-1.3,1.7-1.5c2.1-0.6,4.1-1.3,6.2-1.6c5-0.8,9.9-1.5,14.9-2.2
				C342,613.9,343.5,613.7,344.6,614.7z"/>
			<path class="st2" d="M321.2,610.4c-0.3-0.1-0.8-0.3-1.2-0.6c-0.1-0.1-0.2-0.3-0.2-0.4c0.1-0.3,0.2-0.7,0.4-0.9
				c0.2-0.2,0.6-0.3,1-0.4c7-0.5,14-0.9,20.9-1.4c0.5,0,1.1,0.1,1.5,0.4c0.3,0.1,0.5,0.5,0.6,0.8c0,0.3-0.1,0.7-0.3,0.9
				c-0.4,0.3-1,0.5-1.5,0.6c-6.6,0.4-13.3,0.7-19.9,1.1C322.1,610.5,321.8,610.4,321.2,610.4z"/>
			<path class="st2" d="M313.2,603c1.5-0.7,2.1-1.1,2.7-1.2c6-0.9,12-0.1,17.9,0c0.6,1.5-0.1,2-1,2.1c-1,0.2-2.1,0.3-3.2,0.3
				c-4.6,0-9.2-0.1-13.9-0.2C315.2,604.1,314.7,603.7,313.2,603z"/>
			<path class="st2" d="M324.4,626.8c3.8-3.1,7.9-2.9,11.5-3.7c2.7-0.6,3.7-0.3,5.3,0.6c-0.2,1.2-1.3,1.2-2.1,1.2
				C334.5,625.2,330,627,324.4,626.8z"/>
		</g>
		<path class="st2" d="M377.3,650.7c0.4-2.5,1.9-2.5,3-2.8c3.4-1,6.6-2.6,10.3-2.4c0.2,0,0.4,0.5,0.7,0.8c0.1,1-0.8,1-1.4,1.2
			C385.8,648.3,382,650.3,377.3,650.7z"/>
		<path class="st2" d="M391.9,652.9c-3.5,2.1-7.1,2.5-10,4c-0.9-0.7-1.4-1.5-0.6-1.9c3-1.5,6.1-2.8,9.5-2.8
			C390.9,652.1,391.1,652.3,391.9,652.9z"/>
		<g>
			<path class="st4" d="M232.5,616.7c2.8-3,6.3-5.2,10-6.9c5.6-2.5,11.2-5.1,16.8-7.7c4.1-1.9,8.4-2.1,12.8-1.3
				c10.6,2,20.9,5.4,31.1,8.9c5.4,1.8,10.2,4.9,14.9,8.1c5.6,3.9,9.1,9,8.9,16.1c0,1.3,0.2,2.6,0.2,3.9c0.2,8,0.2,8-6.5,13.2
				c0.2,3,0.4,6.3,0.5,9.6c0.3,8.4-0.7,9.8-8.5,12.1c-3.7,1.1-7.5,2-11.1,3.2c-4.4,1.5-8.8,2.9-12.9,4.9c-3.6,1.8-6.7,1.7-10.2-0.2
				c-3.4-1.8-7-3.3-10.5-4.7c-6-2.4-11.4-6-16.7-9.6c-3.3-2.2-5.7-5-6.2-9.3c-0.7-5.1-1.9-10.1-2.9-15.3c-0.2-0.2-0.4-0.8-0.8-1
				c-5.8-2.9-7.3-8.2-8-14C233.1,623.6,232.8,620.6,232.5,616.7z"/>
			<g>
				<path class="st2" d="M232.5,616.7c2.8-3,6.3-5.2,10-6.9c5.6-2.5,11.2-5.1,16.8-7.7c4.1-1.9,8.4-2.1,12.8-1.3
					c10.6,2,20.9,5.4,31.1,8.9c5.4,1.8,10.2,4.9,14.9,8.1c5.6,3.9,9.1,9,8.9,16.1c0,1.3,0.2,2.6,0.2,3.9c0.2,8,0.2,8-6.5,13.2
					c0.2,3,0.4,6.3,0.5,9.6c0.3,8.4-0.7,9.8-8.5,12.1c-3.7,1.1-7.5,2-11.1,3.2c-4.4,1.5-8.8,2.9-12.9,4.9c-3.6,1.8-6.7,1.7-10.2-0.2
					c-3.4-1.8-7-3.3-10.5-4.7c-6-2.4-11.4-6-16.7-9.6c-3.3-2.2-5.7-5-6.2-9.3c-0.7-5.1-1.9-10.1-2.9-15.3c-0.2-0.2-0.4-0.8-0.8-1
					c-5.8-2.9-7.3-8.2-8-14C233.1,623.6,232.8,620.6,232.5,616.7z M239.8,616.1c3.8,1.4,6.7,2.4,9.5,3.6
					c10.6,4.4,21.3,8.9,31.9,13.5c4.2,1.8,8.2,2.6,12.7,1.2c7.6-2.3,15.3-4.3,22.9-6.5c1.1-0.3,2-1.2,3.4-2
					c-1.2-1.4-1.8-2.6-2.9-3.2c-4.1-2.6-8.2-5.3-12.6-7.3c-10.1-4.6-20.7-7.4-31.5-9.7c-2.7-0.6-5.7-1-8.4-0.7c-3,0.4-6,1.4-8.8,2.6
					C250.8,610.1,245,611.6,239.8,616.1z M237.1,620.5c-0.6,8.2,1.1,14.2,8.4,17.3c1.2,0.5,2.3,1.2,3.4,1.8
					c9.1,4.8,18.1,9.7,27.8,13.2c2.3,0.8,4.6,1.9,7.3,3c0.5-6.3,0.8-11.9-2.3-17.8c-12.8-5.4-26-10.9-39.3-16.4
					C241,620.9,239.4,620.9,237.1,620.5z M317.6,665.9c0.9-3.5,0.4-7-0.1-10.6c-0.3-2.2-2.3-3.4-4.5-3c-2.3,0.4-4.5,1.2-6.7,1.5
					c-7.1,1.1-13.1,5.7-20.5,5.8c-0.8,0-2.2,1.6-2.3,2.6c-0.5,5-0.5,10.1,0.7,15.2c3.5,0.2,5.7-1.8,8.3-2.7c2.9-1,5.8-2.1,8.7-3
					c2.7-0.8,5.4-1.4,8.1-2.2C312.1,668.8,315.3,668.5,317.6,665.9z M277.5,657.7c-4.7-1.9-9.7-3.8-14.6-6
					c-5.1-2.3-9.7-5.6-15.8-7.3c0.1,8.4,1.3,15.3,9,20.1c6.8,4.3,13.9,7.6,21.4,10.4c0.6,0.2,1.3-0.1,2.4-0.3
					C279.1,669,281,663.3,277.5,657.7z M288.7,653.9c1.5,0,2.3,0.2,3,0c8.2-2.2,16.3-4.4,24.5-6.6c1.7-0.5,3.4-1.2,5-1.9
					c1.6-0.6,2.6-1.8,2.7-3.4c0.4-3.8,0.4-7.6-1.8-11.4c-11.7,3.1-23.3,6-34.8,9.7c0.2,3.1,0.2,5.9,0.5,8.7
					C287.9,650.5,288.3,652,288.7,653.9z"/>
				<path class="st7" d="M303.8,661.3c-3.2,0.3-5.8,3.2-9.4,2C298,659.4,299.7,659,303.8,661.3z"/>
				<path class="st7" d="M301.1,644.7c0.9-4.6,3.5-5.8,10.6-5.2C308.6,642.5,304.5,642.2,301.1,644.7z"/>
			</g>
			<path class="st3" d="M239.8,616.1c3.8,1.4,6.7,2.4,9.5,3.6c10.6,4.4,21.3,8.9,31.9,13.5c4.2,1.8,8.2,2.6,12.7,1.2
				c7.6-2.3,15.3-4.3,22.9-6.5c1.1-0.3,2-1.2,3.4-2c-1.2-1.4-1.8-2.6-2.9-3.2c-4.1-2.6-8.2-5.3-12.6-7.3
				c-10.1-4.6-20.7-7.4-31.5-9.7c-2.7-0.6-5.7-1-8.4-0.7c-3,0.4-6,1.4-8.8,2.6C250.8,610.1,245,611.6,239.8,616.1z"/>
		</g>
		<polygon class="st3" points="424,598.5 468.8,621.2 504.9,605.7 504.6,587.3 458.7,574.2 424.2,587.6 		"/>
		<polygon class="st6" points="241.1,702.7 187,644.2 187,557.8 241.7,554 		"/>
		<rect x="241.9" y="544.4" class="st5" width="16.8" height="171"/>
		<g>
			<polygon class="st8" points="103.8,642.4 105,691.2 157.5,706.5 222.7,682.2 218.4,644.4 			"/>
			<g>
				<path class="st7" d="M103.8,642.4c1.5,1.4,2.3,2.5,3.4,3c3.1,1.6,6.2,3.4,9.5,4.4c8.7,2.7,15.9,7.8,22.7,13.6
					c2.5,2.1,5,4.2,7.7,5.8c4.8,2.8,9.8,3.9,15.5,2.5c7.6-2,15-4.4,21.9-8c9.8-5.1,19.4-10.4,29.1-15.8c1.6-0.9,3-2.2,4.8-3.5
					c-3-4.2-7.3-6-11.1-8.3c-3.2-1.9-6.5-3.7-9.7-5.7c-5.7-3.5-11.3-7.3-17.1-10.7c-11.8-6.7-13.9-6.8-26.5-1.5
					c-7.4,3.1-14.8,6.5-22.1,9.8c-6.6,3-13.3,5.9-19.8,9C109.4,638.3,106.7,639.4,103.8,642.4z"/>
				<path class="st2" d="M165.6,621.2c0.6,3.8-0.6,6.9-2.7,9.6c-1.3,1.6-3.2,2-5.1,1.6c-2.4-0.4-4.7-1.1-7.1-1.5
					c-2.2-0.4-3.7,0.7-4,2.9c-0.2,1.6-0.1,3.3-0.4,4.8c-0.3,1.2-1.1,2.3-1.5,3.2c-3,0.6-4.4-1.3-6.2-2.3c-2.2-1.2-4.1-0.7-6,0.8
					c-1.9,1.4-2.7,3.3-2.2,5.6c0.5,2.6,1.3,4.3,5.1,9.3c-1.5-0.4-2.9-0.4-3.3-1c-1.4-1.9-2.7-4-3.6-6.2c-2.2-5.5-1-8.7,3.9-11.5
					c2-1.1,4-1.6,6.1-0.6c1.2,0.6,2.3,1.2,4.2,2.2c0.3-2.1,0.5-3.8,0.9-5.5c0.8-3.9,3-5.6,6.8-5.1c2.1,0.3,4.2,1,6.3,1.4
					c1,0.2,2.1,0,3,0C163,627.4,161.5,622.5,165.6,621.2z"/>
				<path class="st2" d="M148.9,654.9c-3-2.5-2.3-4.7-1-6.9c2.7-4.5,6.6-5.1,11.2-3c1.8-1.9,3.1-3.5,4.7-4.9
					c3.3-2.9,6.8-5.6,11.5-4.7c2.8,0.6,4.2-1.7,6.4-2.3c0.3,4.7-0.3,6-3.3,5.5c-6.4-0.9-10.9,1.6-14.4,6.7c-1.5,2.2-3.4,3.1-6.2,2.7
					C151.3,647.4,151.3,647.5,148.9,654.9z"/>
				<path class="st2" d="M176.6,655.8c0.2-4.8,2.2-8.2,4.7-11.3c1.7-2.2,4.1-3.3,7-3.5c1.1-0.1,1.5,0.3,3.3,3
					c-0.8,0.2-1.5,0.7-2.1,0.6c-3.2-0.7-5.2,0.9-6.7,3.2c-1.2,1.8-2,3.8-3.3,5.5C178.8,654.3,177.6,655,176.6,655.8z"/>
			</g>
			<path class="st7" d="M115.7,669.9c24.6,7.8,36.9,14.8,36.9,14.8C130.4,683.4,115.7,669.9,115.7,669.9z"/>
			<path class="st7" d="M174.7,680.1c28.3-13.5,40.6-15.2,38.9-13.5C188.6,681.8,174.7,680.1,174.7,680.1z"/>
		</g>
		<rect x="98.8" y="550.6" class="st5" width="13.5" height="171"/>
		<polygon class="st4" points="501.7,588.9 467.6,603.9 434.2,591.8 435.7,604.3 467.4,617.8 503.5,604.3 		"/>
		<polygon class="st5" points="440,689.2 423.1,689.2 419.5,516.1 440,518.2 		"/>
		<path class="st7" d="M487.6,621.9c0.4,3.3,0.5,6.7-4,8.3c-0.4-0.8-1.1-1.5-1.1-2.2c0-1.9,0.3-3.9,0.5-6c-0.2,0-0.6-0.2-1-0.3
			c-1.2-0.2-1.8-1.2-1.2-2c0.3-0.4,0.9-1,1.2-0.9c2.8,0.9,5.6-0.2,8.3-0.2c1,0,1.4,0.8,1.7,2.7C490.6,621.8,488.9,619.7,487.6,621.9
			z M484.9,626.4c0.4-0.3,0.7-0.4,0.7-0.5c0-0.4-0.1-0.9-0.2-1.3c-0.2,0.1-0.6,0.2-0.6,0.4C484.7,625.4,484.8,625.8,484.9,626.4z"/>
		<g>
			<path class="st7" d="M460.4,596.2c-4.3-5.5-8.3-10.8-12.4-16c-1.4-1.8-2.1-3.7-2.2-5.9c-0.2-6.5-0.5-12.9-0.7-19.4
				c-0.1-1.9,1.1-3.2,3.2-3.7c3.1-0.8,6.3-1.6,9.5-2c8-1,16.1-1.8,24.1-2.7c3.4-0.4,6.3,0.6,9,2.7c2.6,2.1,5.4,4.2,8.1,6.2
				c3.5,2.6,5.1,5.9,4.4,10.3c-0.5,3.2-0.7,6.4-1.3,9.6c-0.7,3.4-0.7,6.7-0.3,10.2c0.2,1.9,0.2,4-0.2,5.8c-0.5,2.1-2,3.2-4.3,3.3
				c-7.3,0.5-14.6,1.3-22,1.8C470.5,596.6,465.6,597,460.4,596.2z"/>
			<g>
				<path class="st2" d="M460.4,596.2c-4.3-5.5-8.3-10.8-12.4-16c-1.4-1.8-2.1-3.7-2.2-5.9c-0.2-6.5-0.5-12.9-0.7-19.4
					c-0.1-1.9,1.1-3.2,3.2-3.7c3.1-0.8,6.3-1.6,9.5-2c8-1,16.1-1.8,24.1-2.7c3.4-0.4,6.3,0.6,9,2.7c2.6,2.1,5.4,4.2,8.1,6.2
					c3.5,2.6,5.1,5.9,4.4,10.3c-0.5,3.2-0.7,6.4-1.3,9.6c-0.7,3.4-0.7,6.7-0.3,10.2c0.2,1.9,0.2,4-0.2,5.8c-0.5,2.1-2,3.2-4.3,3.3
					c-7.3,0.5-14.6,1.3-22,1.8C470.5,596.6,465.6,597,460.4,596.2z M499.3,591.1c-1.5-3-1.3-5.5-1-7.9c0.3-2.3,0.7-4.6,0.9-6.9
					c0.1-1-0.2-2-0.4-3c-12.1,0.2-24-0.6-35.6,3.9c0.4,5.5-0.7,11,0.7,16.7C475.8,593.8,487.1,591.6,499.3,591.1z M450.9,553.5
					c4.4,4,8,7.3,11.4,10.4c12.2-1.2,24.3-2.4,36.8-3.6c-0.8-0.9-1.3-1.6-1.9-2.1c-2.5-2-5.2-3.8-7.7-5.9c-2.6-2.3-5.5-3.1-8.9-2.7
					c-7.5,0.9-15,1.6-22.5,2.5C456,552.3,453.7,552.9,450.9,553.5z M461,591c0-4.8,0.1-8.7-0.1-12.6c-0.1-1.1-0.7-2.5-1.4-3.3
					c-2.8-3-5.8-5.9-8.7-8.7c-0.5-0.5-1-1.6-2.3-0.9c-0.4,2.9,0,6,0.3,9c0.1,1,0.6,2.1,1.2,3C453,582,456.1,586.5,461,591z"/>
				<path class="st3" d="M481.1,587.7c-1.1-1.5-2.2-2.9-3.4-4.5c-0.9,0.7-1.5,1.3-2.2,1.8c-0.5,0.4-1,0.9-1.7,1.5
					c0-3.1,0.8-4.5,2.9-5.3c2.5-1,3.4,1.3,5.1,2.7c2.7-3.6,6.6-2.8,10.2-2.7c0.7,0,1.8,0.8,2,1.5c0.2,0.8-0.3,1.9-0.4,2.7
					c-1.9,0.4-1.8-1.3-2.7-1.8c-0.7-0.3-1.7,0.1-1.7,0.7c0.1,0.9,0.4,1.7,0.4,2.6c0,2-1.5,3-3.2,2.1c-0.9-0.5-1.5-1.4-2.4-2.2
					C483.1,587.1,482.2,587.4,481.1,587.7z"/>
			</g>
		</g>
		<g>
			<path class="st7" d="M529.3,674.8c-3.1-2.2-5.3-5-7.6-7.7c-4.3-5.3-8.6-10.6-13.1-15.7c-1.4-1.6-3.2-2.9-4.9-4.2
				c-2.1-1.7-2.1-3.5,0.1-5.2c4.1-3.1,8.7-5,13.4-6.8c2.4-0.9,4.8-1.6,7.2-2.4c4.1-1.4,8-3.2,11.5-5.7c3.8-2.8,8.3-4.1,12.9-5.8
				c6.4,5.2,12.8,10.4,19.2,15.5c1.7,1.4,3.4,2.6,5,4.1c1.1,0.9,2.2,1.9,2.9,3.1c2.7,4.7,2.1,6.3-2.6,8.9c-5.8,3.3-11.8,6-18.2,8
				c-8.6,2.7-16.7,6.6-23.7,12.5C531,674,530.2,674.3,529.3,674.8z"/>
			<path class="st2" d="M546.5,632.2c2.4-0.4,3.8,0.8,5.1,1.9c3.4,2.9,6.7,5.9,10.9,7.8c1,0.5,1.6,1.7,2.6,2.8
				c-0.8,0.4-1.4,0.9-1.6,0.8c-2.8-1.6-5.6-3.1-8.2-5c-2.8-2-5.3-4.2-7.9-6.4C546.8,633.7,546.8,632.9,546.5,632.2z"/>
			<path class="st2" d="M538.2,637.9c0.7,0.1,1.4,0.1,1.9,0.4c1.8,1,10.8,9.2,12.9,11.7c-0.8,0.1-1.6,0.5-2,0.2
				c-4.6-3.3-9-6.9-12.9-11.1C538,639,538.2,638.5,538.2,637.9z"/>
			<path class="st2" d="M527.6,645c0.6,0.2,1.3,0.2,1.8,0.5c4,2.4,6,6.5,8.2,10.3c-0.9,1.2-1.8,0.7-2.3,0c-1.3-1.7-2.3-3.7-3.6-5.3
				c-1.3-1.6-3-3.1-4.5-4.6C527.3,645.6,527.5,645.3,527.6,645z"/>
		</g>
		<g>
			<g>
				<path class="st7" d="M398.2,863c4.8,0.9,7.9,3.2,9.6,7c4.6,10.7-3.8,24.5-15.5,25.3c-6.6,0.5-10.9-2.7-12.4-9.1
					c-2.1-8.8,4.9-20.3,13.7-22.5C395.3,863.2,397.1,863.2,398.2,863z M399,881.7c0.4-3.8,0.2-6.4-1.8-8.6c-1.2-1.3-3.7-1.7-4.9-0.7
					c-1.7,1.4-3.2,6.7-2.5,8.8c1,2.8,3.4,5.3,4.8,4.5C396.5,884.7,398,882.7,399,881.7z"/>
				<path class="st7" d="M490.4,849.7c1.8-9,9.1-14.8,17-15.2c3.3-0.2,5.8,1,7.7,3.7c6,8.3,3.5,18.8-5.7,23.5
					c-2.9,1.5-6,2.7-9.1,3.6c-5.3,1.5-9.5-1.6-10-7.2C490,854.7,490.4,851.4,490.4,849.7z M504.3,856.2c2.6-4.9,2.5-7.2-0.5-9.9
					c-0.6-0.6-2.4-0.6-3.2-0.1c-2,1.1-2.6,3.8-1.2,5.4C500.7,853,502.3,854.3,504.3,856.2z"/>
			</g>
			<g>
				<polygon class="st2" points="257.7,821.4 263.3,741.3 325.6,726.9 332.7,670.2 386.7,653.2 392.1,604.1 457.4,592.8 
					550.1,634.7 547.8,820.3 336.1,872.9 				"/>
				<path class="st3" d="M409.3,711c9.5-1.2,19-2.4,28.5-3.7c7.6-1.1,15.2-2.3,22.8-3.5c1.9-0.3,3.8-0.7,5.6-1.3
					c2.3-0.8,3.1-4.3,1.2-5.7c-2.7-2-5.7-3.8-8.8-5.3c-7.3-3.5-14.7-6.7-22-10c-7-3.1-14-6.4-21.1-9.3c-10.3-4.2-20.6-8.2-31.1-12.3
					c-4.9,1.7-9.9,3.6-15,5.1c-5.2,1.5-10.5,2.5-15.7,4c-4.9,1.4-10.8,0.2-14.8,5.1c12.3,5.6,24.5,10.2,35.7,16.6
					C386.2,697.4,399.4,701.5,409.3,711z"/>
				<path class="st3" d="M354.9,791.3c9.9-1.7,19.3-3.1,28.7-4.9c7.2-1.4,14.4-2.9,21.5-4.8c3.5-0.9,4.1-6.4,1.1-8.4
					c-2.5-1.6-5.3-3-8.1-3.9c-11.7-3.7-22.3-9.5-32.5-16.2c-4.4-2.8-8.6-5.9-12.9-8.8c-18.1-12.1-19.4-12.4-41.1-9.2
					c-7.3,1.1-14.6,2-21.9,3.2c-3.8,0.7-7.6,1.7-11.3,2.9c-1.7,0.6-3.1,2-5.8,3.9c15.1,8,29,14.9,42.6,22.6
					C328.8,775.3,341.9,783.6,354.9,791.3z"/>
				<polygon class="st3" points="394.9,607.4 484.5,652.8 546.1,637.1 455.4,596.8 				"/>
			</g>
		</g>
		<path class="st2" d="M455.2,603.9l1.5,15.1l-8.6,10.2l17.1-2.6l1.9-21.4C463.2,604.8,459.2,604.3,455.2,603.9z"/>
		<path class="st5" d="M471,562.7l-16.4-11.5l0.7,52.7c3.9,0.3,7.9,0.8,11.9,1.4L471,562.7z"/>
		<path class="st5" d="M524.8,575.6l-16.4-11.5l0.7,53.7c3.8,0.8,7.9,0.9,11.8,1.3L524.8,575.6z"/>
		<path class="st5" d="M412.7,408.5c21.9,18.4,67-5.3,67-5.3l-2.5,18c-32,8.2-60.5-2.7-60.5-2.7L412.7,408.5z"/>
		<path class="st2" d="M509.1,617.8l2.6,16.8l-11.1,9l18.4-4.1l1.8-20.4C517,618.7,512.9,618.6,509.1,617.8z"/>
		<path class="st2" d="M250,798.4l-10.4-99.6c-0.2-2,0.6-4,2.2-5.5l192.3-173.5c1.6-1.4,3.6-2.2,5.8-2.2c0.9,0,1.8,0.1,2.7,0.4
			c3.1,0.9,5.1,3.1,5.4,5.9l8,65.3c2.6-1.1,5.4,3.6,7.8,1.7l-7.9-67.7c-0.6-5.4-4.7-9.9-10.7-11.7c-6-1.8-12.4-0.4-16.7,3.5
			L236,688.5c-3.2,2.9-4.8,6.9-4.4,10.9l10.4,99.6c0.1,0.5,0.1,1,0.3,1.5c2.6-0.4,5.2-0.8,7.8-1.3C250,798.9,250,798.7,250,798.4z"
			/>
		<path class="st2" d="M359.1,663.4c0.1,0.4,0.1,0.7,0.3,1.1c2.6-0.3,5.2-0.6,7.8-1c-0.1-0.2-0.1-0.4-0.1-0.6l-10.2-74.5
			c-2.6,0.1-5.3,0.2-7.9,0.4L359.1,663.4z"/>
		<path class="st2" d="M294.6,735.3c0.1,0.4,0.1,0.9,0.3,1.3c2.6-0.3,5.2-0.7,7.8-1.2c-0.1-0.2-0.1-0.5-0.1-0.7l-10.2-87.8
			c-2.6,0.1-5.3,0.3-7.9,0.5L294.6,735.3z"/>
		<path class="st9" d="M471.5,410l-30.5,141.4c-2.8,17.6,8.1,34.3,23.7,36.2l42,5.1c17.6,2.1,32.2-15.5,29.5-35.5l-20-144.7
			c-2.1-14.9-13.2-25.9-26.3-26l4.8,6.6C481.6,392.9,473.9,395.2,471.5,410z"/>
		<g>
			<path class="st2" d="M486.7,396.6c-20.7,5.8-32.6-11.1-32.6-11.1c-32.6-6.4-17.1-32.6-12.4-37.9c5.3-6.4,5.3-11.9,5.3-11.9
				l14.4-4.1l40.1,59.5L486.7,396.6z"/>
			<path class="st5" d="M483.3,405.9c4.1-7.7-4.4-21.6-4.4-21.6c-16.9,0.6-20.4-8.4-22.9-18.4c-4.1-16.3-1.1-21.8-1.1-27.1
				c0.3-21,7.2-30.7,14.4-28.2c23.2,12.4,36.5,77.2,35.7,77.7C503.5,398.2,483.3,405.9,483.3,405.9z"/>
			<path class="st2" d="M473.7,302.3c23.5-8,42.9-8.3,48.1,10c5.8,19.1,5.8,29.3,13.8,34c8,4.7,14.4,13.8,4.4,23.2
				s11.9,14.7,11.9,14.7c-24.6,23-49.8,14.1-54.2,8.6c-10.2-11.3-21.3-50.9-19.1-62.5c2.2-11.6-10.8-23.2-16-18
				c-5.3,5.3-8,25.4-8,25.4c-9.7,5.5-9.7,5.5-9.7,5.5s3-22.7,4.4-26C455.1,306.7,473.7,302.3,473.7,302.3z"/>
		</g>
		<path class="st9" d="M455.5,481.7l-18,105.9c61.9,9.8,103,14.8,103.7,9.8C530.6,520,530.6,520,530.6,520L455.5,481.7z"/>
		<path class="st3" d="M470.6,369.2c-3.4-2-5.5-4.4-8-2.5c-2.5,2-3,5.7-0.5,5.9s5.9-0.7,6.7-1.6S470.6,369.2,470.6,369.2z"/>
		<path class="st9" d="M454.4,353.1c-0.3,0-0.6,0-1-0.1c-3.2-0.5-6.8-4-5.9-17.5l0.1-1l14.5,0.3l0.3,0.3c0.3,0.3,3.2,2.9,1.4,10.5
			C462.7,348.8,458.5,353.1,454.4,353.1z M449.7,336.6c-0.6,12.2,2.7,14.1,4.1,14.3c2.8,0.5,6.7-2.9,7.7-5.9c1.2-5.1,0-7.4-0.5-8.1
			L449.7,336.6z"/>
		<path class="st9" d="M470.5,353.6c-0.4,0-0.8,0-1.3-0.1c-3.4-0.7-7.1-4.2-6-17.5l0.1-1l15.9,0.2l0.3,0.2c0.4,0.3,3.5,2.9,1.5,10.6
			l0,0.1C479.6,349.4,474.9,353.6,470.5,353.6z M465.5,337.2c-0.6,8.4,1,13.5,4.2,14.1c3.3,0.7,7.8-3.2,9-5.9
			c1.3-5.1,0.1-7.4-0.5-8.1L465.5,337.2z"/>
		<circle class="st2" cx="457.4" cy="345.4" r="2.3"/>
		<circle class="st2" cx="468.9" cy="345.4" r="2.3"/>
		<path class="st6" d="M461.7,351.3c-2.9,5.7-3.5,9.6-0.6,9.8c2.9,0.2,3.3-1.6,3.3-1.6c-4.1,2.3-3.5-1.2-3.3-3.3
			C461.3,354.2,461.7,351.3,461.7,351.3z"/>
		<polygon class="st2" points="401.8,389.5 407.3,438.4 391.7,430.7 387.6,400.1 		"/>
		<polygon class="st7" points="400.2,393.3 404.4,389.9 402.4,404.8 392.8,408.6 389.8,400.7 		"/>
		<polygon class="st2" points="393.9,444.9 424.7,442.2 417.4,397.7 387.6,400.1 		"/>
		<path class="st5" d="M421.9,444.3c-6.7-11.2-8.5-10.7-8.3-8.9c0.1,1.8,3.4,6.7,3.4,6.7c-6.8-5.6-9.3-7.7-8.2-4.4
			c1.1,3.3,6.7,6.8,6.7,6.8c-8.5-2.9-11.3-2.2-7.4,0.5c4,2.7,13,3.6,13,3.6L421.9,444.3z"/>
		<path class="st7" d="M514.2,404.4c-13.8,0.6-27.6,0.9-41.5,0.4c-0.5,1.5-0.9,3.2-1.2,5.1l-1.1,5c15.3,1,31.2,4.5,46.4,1.3
			l-0.5-3.8C515.9,409.6,515.2,406.9,514.2,404.4z"/>
		<path class="st7" d="M518.9,431.3c-17.3-0.6-34.7,1.1-51.8-0.9l-1.5,7.2c18.3,1,36.7,3.3,55,5.9L518.9,431.3z"/>
		<path class="st7" d="M526.7,488c-15.7-1.1-31.3-1.8-47.3-2.5c-7.7,0-16.2-0.8-24.2-2.5l-1.8,10.7l0,0.2c25,2.3,50.1,4.9,75.1,7.1
			L526.7,488z"/>
		<path class="st7" d="M449.1,514l-2.7,12.7c28.2,3.1,57.2,1.1,85.5-0.9l-0.9-6.6C503.7,518.8,476.4,517.7,449.1,514z"/>
		<path class="st7" d="M512.1,581.1c-25.2-6.3-48.5-3.8-72.6-5.3l-1,5.8c33.7,6.1,68,10.1,102,10.6c-0.4-2.8-0.8-5.5-1.1-8
			C530.2,583.9,521,583,512.1,581.1z"/>
		<path class="st7" d="M536.6,563.6c0.1-2.1,0-4.3-0.3-6.5l-0.3-2.3c-31.7-1.6-63.3-1.3-94-7.5l-0.9,4c-0.5,3.4-0.6,6.8-0.1,10.1
			c31.9,6,64.3,6,96.5,8.1C537.1,567.5,536.8,565.5,536.6,563.6z"/>
		<path class="st7" d="M524.3,470.2l-0.4-2.6c-20.8-3.2-41.8-6-63-8.1l-1.7,7.7C481.2,464.9,502.4,467.9,524.3,470.2z"/>
		<path class="st5" d="M499.7,435.4c-21,25.2-59.6,24.6-83,11c0,0,0.4,2.8,2.5-3.3c0,0,55.9,18.7,89.3-35.7c0,0,7.1-2.3,4.6,12.5
			C511.2,426.4,499.7,435.4,499.7,435.4z"/>
		<path class="st2" d="M262.4,783"/>
		<polygon class="st2" points="263.7,792.5 225.5,804.4 223.1,827.9 292,884.7 397.7,857.7 330.1,861.3 323.5,811.7 		"/>
		<polygon class="st3" points="229.6,805.6 294.8,858.1 333,847.8 260.4,798.2 		"/>
		<polygon class="st4" points="351.7,796.7 342.3,865.6 542.8,818.4 547.3,645 485.7,662 476.7,709.2 412.3,719.1 412.3,785 		"/>
		<polygon class="st4" points="386.3,856 295.6,881 295.2,863 356.7,843.7 		"/>
		<path class="st10" d="M494.9,327.6c8.2,38.9,10.2,41.8,10.2,38.1S494.9,327.6,494.9,327.6z"/>
		<path class="st10" d="M504.3,323.9c8.2,43.5,13.1,50,13.1,50C515,357.5,504.3,323.9,504.3,323.9z"/>
		<path class="st10" d="M514.6,318.9c8.6,32.8,15.6,42.6,15.6,42.6C522.4,331.2,514.6,318.9,514.6,318.9z"/>
		<path class="st10" d="M481.4,309.1c8.2,8.6,9.8,10.2,9.8,10.2C486.3,309.1,481.4,309.1,481.4,309.1z"/>
		<path class="st10" d="M492.4,305.4c9,8.6,10.2,9.4,10.2,9.4C499.8,305.8,492.4,305.4,492.4,305.4z"/>
		<polygon class="st7" points="131.8,50.8 132.5,105.8 305.3,107.4 306.7,52.5 		"/>
		<path class="st3" d="M261.1,74.3c-34.8-0.6-69.6-1.2-104.4-1.8c-1.1,0-2.5-0.6-5.3-1.2c2.8-0.5,4.9-1.3,7.9-1.3
			c31.7,0.3,63.4,0.7,95.2,1.2C260.6,71.3,261.9,72,261.1,74.3z"/>
		<path class="st3" d="M279.5,92.7c-34.8-0.6-69.6-1.2-104.4-1.8c-1.1,0-2.5-0.6-5.3-1.2c2.8-0.5,4.9-1.3,7.9-1.3
			c31.7,0.3,63.4,0.7,95.2,1.2C279,89.7,280.3,90.4,279.5,92.7z"/>
		<polygon class="st2" points="173.5,248 174.3,282.5 200.5,304.6 253,303.4 252.6,262.4 		"/>
		<polygon class="st3" points="170.6,248.8 198.9,276.7 255.5,271 256.3,254 224.3,229 171.8,232.8 		"/>
		<polygon class="st4" points="172.7,234.5 204.6,260.7 255.5,255.4 253.8,269.7 199.3,275.3 171.6,248.2 		"/>
		<polygon class="st7" points="216.9,278.1 217.1,285.3 237.4,284.7 236.2,276.7 		"/>
	</g>
</g>
</svg>
