<?xml version="1.0" encoding="utf-8"?>
<!-- Generator: Adobe Illustrator 23.0.4, SVG Export Plug-In . SVG Version: 6.00 Build 0)  -->
<svg version="1.1" id="Layer_1" xmlns="http://www.w3.org/2000/svg" xmlns:xlink="http://www.w3.org/1999/xlink" x="0px" y="0px"
	 viewBox="0 0 718.4 927.8" style="enable-background:new 0 0 718.4 927.8;" xml:space="preserve">
<style type="text/css">
	.st0{clip-path:url(#SVGID_2_);}
	.st1{fill:#4CA1BB;}
	.st2{fill:#FFFFFF;}
	.st3{fill:#ED6448;}
	.st4{fill:#CDA18B;}
	.st5{fill:#FFCF67;}
	.st6{fill:#5CC1EB;}
	.st7{fill:#303030;}
	.st8{fill:none;stroke:#000000;stroke-width:2.9186;stroke-miterlimit:10;}
	.st9{fill:none;stroke:#000000;stroke-width:2.7327;stroke-miterlimit:10;}
	.st10{fill:none;stroke:#4CA1BB;stroke-width:1.4593;stroke-miterlimit:10;}
</style>
<g>
	<defs>
		<rect id="SVGID_1_" x="-2.4" y="-26.4" width="734.2" height="983.4"/>
	</defs>
	<clipPath id="SVGID_2_">
		<use xlink:href="#SVGID_1_"  style="overflow:visible;"/>
	</clipPath>
	<g class="st0">
		<rect x="-99.3" y="-229.1" class="st1" width="926" height="1186.2"/>
		<circle cx="239.6" cy="359.8" r="49.9"/>
		<path d="M351.5,393c-1.1-0.8-1.8-1.1-2.3-1.7c-3.1-3.8-6.1-7.7-9.3-11.4c-5.9-6.8-11.8-13.4-19.2-18.1c-3.3-2.1-6.3-4.7-9.5-7
			c-2.7-1.9-5.4-3.6-8.1-5.4c-5.2-3.3-10.5-6.6-15.7-9.9c-4.2-2.6-8.2-5.7-12.5-7.8c-4.3-2.1-9-3.4-13.6-4.8
			c-1.3-0.4-2.8,0.1-4.6,0.3c2.2-4.1,4.2-7.3,5.7-10.8c1-2.2,2.1-2.6,3.9-1.7c5.2,2.6,10.4,5.1,15.5,7.8
			c11.2,5.7,21.2,13.7,31.3,21.4c3.1,2.4,6.4,4.5,9.5,7c6.3,5.3,12.5,10.6,18.6,16.2c2.4,2.2,4.4,5.2,6.6,7.8
			c1.1,1.3,2.2,2.6,3.5,4.1V393z"/>
		<path class="st2" d="M281.9,195.1c-0.7,1.5-0.8,3.2-1,4.8c-0.2,1.7-0.3,3.5-0.5,5.2c-0.3,2.2-1.1,2.7-4.5,2.8
			c0.2-0.7,0.3-1.4,0.5-2.1c2.3-8.1,4.8-16.2,6.8-24.3c1.2-4.8,1.9-9.8,2.5-14.7c0.6-4.9,2.4-9.5,3.9-14.2c0.6-1.7,2.1-2.6,3.8-3.4
			c1.9-0.9,3.8-1.7,5.7-2.5c3.9-1.6,6.9-4.1,9.7-6.7c1.5-1.4,3.2-2.8,5.1-4.5c2.2,4,2.9,7.9,3.5,11.9c0.4,3.2,0.8,6.4,0.7,9.6
			c-0.1,3,1.8,4.5,5,5.5c1.3,0.4,2.9,0.6,3.3,2.2c-1.7,1.1-3.8,1.8-5.9,2.2c-0.8,0.2-1.6,0.4-2.4,0.5c-3.4,0.5-5.5,1.9-6.7,4.7
			c-1.6,4.1-4.3,7.8-8.3,10.8c-4.2,3.2-8.7,6.1-14.4,7.4C285.6,190.9,283.1,192.5,281.9,195.1z"/>
		<polygon class="st2" points="228.4,217.7 203.5,323.5 216.8,314.4 226.5,333.2 239.5,316 255.4,332.2 262.4,316.7 281.7,323.3 
			279.2,206.2 		"/>
		<rect x="405.4" y="34.8" class="st2" width="69.5" height="143.9"/>
		<path class="st2" d="M170.9,312c-0.2,2.2-0.3,4.5-0.6,6.7c-0.4,2.8-1.1,3.3-4.4,3.7c-4.8,0.5-9.5,0.1-14.2-0.5
			c-0.5-0.1-1-0.1-1.4-0.2c-5.9-0.5-11.8-0.9-17.7-1.4c-0.8-0.1-1.8-0.3-2.3-0.7c-0.4-0.3-0.4-1.3-0.1-1.8c0.3-0.5,1.3-0.9,1.9-0.9
			c3.2,0.2,6.4,0.5,9.6,0.7c0.2,0,0.4,0.1,0.6,0.1c7.2,0.3,14.4,0.7,21.6,0.9c3.5,0.1,3.7-0.2,3.7-3.3c0-2.2,0-4.5,0-6.7
			c0-0.5-0.2-1.1,0.1-1.5c0.3-0.5,0.8-1.2,1.4-1.3c1-0.2,1.7,0.4,1.8,1.3c0.1,1.1,0,2.2,0,3.2c0,0.6,0,1.2,0,1.7
			C170.7,312,170.8,312,170.9,312z"/>
		<rect x="-84.9" y="35.4" class="st2" width="122" height="177.4"/>
		<polygon points="655.1,135.2 692.1,206.7 735,179.8 699.2,107.8 		"/>
		<path d="M600.5,203.5c-19.9,35.1-17.7,53.6-17.7,53.6l49.3,3.5c0,0-5.7-48.6-10.3-53.6C617.2,202.1,600.5,203.5,600.5,203.5z"/>
		<path class="st2" d="M623.9,112.5c26.6,44.2,17,71.8,3.2,85.9c-8.5,10.4-4.2,11-4.2,11c-13.3,7.4-21.8-2.4-21.8-2.4
			c-0.5-14.2-4.8-15.2-16.5-26.4c-20.2-29.8-14.9-54.3,2.7-66S623.9,112.5,623.9,112.5z"/>
		<rect x="548.7" y="269.5" class="st2" width="232.7" height="148.3"/>
		<path class="st2" d="M782.1,266.6H552.5c-5.8,0-10.5-4.7-10.5-10.5v-6.5c0-5.8,4.7-10.5,10.5-10.5h229.6c5.8,0,10.5,4.7,10.5,10.5
			v6.5C792.6,261.9,787.9,266.6,782.1,266.6z"/>
		<path d="M698.7,666c28.3,3,27.4,2.8,27.4,2.8l2.5-13l-8-1.1l-13.3-1.1L698.7,666z"/>
		<path class="st2" d="M672.9,647.1c-0.7-1-0.4-2.8,0.5-3.5c3.1-2.5,6.7-4,10.1-5.8c5.4-23.2,4.2-50.8-8.8-62l-23.8,0.4
			c0,0-10.6,8.2-26.6,22.7c-16,14.5-15.3,46.8-11.4,55c3.9,8.2,19.8,9.9,17,26c-2.1,0.5,11.7,9.1,23.4,4.8c0,0-6.7,1.8,12.8-13.1
			c4.9-3.7,9.2-10.4,12.6-18.7C676.5,651.2,674.5,649.3,672.9,647.1z"/>
		<rect x="573.9" y="593.1" class="st2" width="272.5" height="5.3"/>
		<polygon class="st2" points="478.4,560.4 431,560.4 431,500.2 429.5,500.2 429.5,561.9 478.4,561.9 		"/>
		<polygon class="st2" points="429.5,447.6 429.5,494.4 431,494.4 431,449.1 555.1,449.1 555.1,560.4 484.2,560.4 484.2,561.9 
			556.6,561.9 556.6,447.6 		"/>
		<polygon class="st2" points="430,885.8 430,955.9 431.4,955.9 431.4,888 555.6,888 555.6,1055 484.7,1055 484.7,1057.2 
			557,1057.2 557,885.8 		"/>
		<path class="st2" d="M406.4,723.4h-2.6c-3.4,0-6.2-2.8-6.2-6.2l0.1-89c1.6-11.7,16.3-14.9,19.7-14.9l-4.3,2.1
			c3.4,0-0.6,4.3-0.6,7.7v94C412.6,720.6,409.8,723.4,406.4,723.4z"/>
		<path d="M400.4,626.8c-5.3,104.3-5.3,104.3-5.3,104.3l88-0.4c0,0-1.1-106.4-1.1-111c-1.4-11.4-32.6-10.3-43.3-9.2
			c-19.9,2.1-29.8,6-34.1,9.9C400.4,624.3,400.4,626.8,400.4,626.8z"/>
		<path class="st2" d="M415.3,613.3c-4.3,22,18.1,38.7,23.8,36.5c5.7-2.1,16-11.4,20.6-25.5c4.6-14.2,4.6-14.2,4.6-14.2l-14.9-2.5
			L415.3,613.3z"/>
		<path class="st2" d="M453.1,504.8c-38.3-16.5-62.3,1.1-69.7,30.9s6.9,63.9,38.3,67.6c8.5,1.6,8.5,14.6,8.5,14.6
			c18.1,0.3,22.3-3.3,22.3-3.3c-1.6-18.8,11.2-23.5,18.7-34.2c9-14.9,7.1-48.9-3.6-60.1C456.8,509,453.1,504.8,453.1,504.8z"/>
		<path class="st2" d="M104.2,124c-29.7-12.8-48.4,0.8-54.1,24s5.4,49.6,29.8,52.5c6.6,1.2-3.9,10.5-3.9,10.5
			c14.1,0.2,27.8-1.7,27.8-1.7c-1.2-14.6,8.7-18.3,14.5-26.5c7-11.6,5.5-38-2.8-46.7C107.1,127.3,104.2,124,104.2,124z"/>
		
			<rect x="-206" y="903.6" transform="matrix(6.123234e-17 -1 1 6.123234e-17 -633.6288 1184.733)" class="st2" width="963.1" height="11.2"/>
		
			<rect x="89.4" y="903.6" transform="matrix(6.123234e-17 -1 1 6.123234e-17 -338.2736 1480.0884)" class="st2" width="963.1" height="11.2"/>
		<rect x="-149.9" y="438.8" class="st3" width="420.8" height="425"/>
		<path d="M222.5,785.2h-67.5c-5,0-9-4-9-9v0c0-5,4-9,9-9h67.5c5,0,9,4,9,9v0C231.6,781.1,227.5,785.2,222.5,785.2z"/>
		<path d="M130.4,345.5H62.9c-5,0-9-4-9-9l0,0c0-5,4-9,9-9h67.5c5,0,9,4,9,9l0,0C139.4,341.5,135.4,345.5,130.4,345.5z"/>
		<path class="st2" d="M232.6,493.7c-0.1-1.4-0.1-3-0.5-4.4c-0.8-2.9-1.2-6.2-2.8-8.7c-3.7-5.6-8.9-9.6-15.5-11.3
			c-2.3-0.6-4.9-1-7.2-0.8c-2.9,0.2-5.8,1.1-8.7,1.5c-2.2,0.4-4.1,1.3-6,2.5c-0.9,0.6-1.8,1.1-2.7,1.6c-0.7,0.4-1.6,0.6-2.2,1.1
			c-4.6,3.5-7,8.5-8.7,13.7c-1.1,3.3-0.6,6.9-0.2,10.4c0.3,2.8,1.1,5.5,2.7,7.9c4.6,6.8,11.2,10.7,19.2,12.1c2.3,0.4,4.8,0.5,7,0
			c4-0.9,8-2,11.8-3.5c4-1.6,7.2-4.4,9.6-7.9C231.2,503.7,232.2,498.7,232.6,493.7z"/>
		<path d="M85.1,843.5h26.5c-2.1-1.9-4.2-3.9-7-5.6L85.1,843.5z"/>
		<path class="st4" d="M129.6,815.8l-12.8-5.1l-11.2,26.9l-0.9,0.3c2.8,1.7,4.9,3.7,7,5.6h0.3L129.6,815.8z"/>
		<path class="st4" d="M167.1,815.8l-12.8-5.1l-11.2,26.9l-0.3,0.1c2.5,1.1,5,2.8,7.4,4.6L167.1,815.8z"/>
		<path d="M142.8,837.7l-20.2,5.8h26.9l0.7-1.1C147.8,840.5,145.4,838.9,142.8,837.7z"/>
		<path class="st5" d="M107.4,818.4c2,0.4,3.9,1,5.7,1.7c-1.2-0.5-2.5-1.1-3.7-1.7c-3.6-1.8-7.3-3.4-11.4-3.5
			c-0.2,0-0.5-0.2-0.8-0.3c0.8-2,2.6-2.8,4.2-3.7c1.3-0.8,2.8-1.4,4.3-2c4.5-1.7,7.7-4.7,10.3-8.8c2.6-4.1,5.5-8,9.7-10.8
			c3.8-2.6,7.5-5.3,11.4-7.9c3.2-2.1,5-5,5.8-8.6c0.7-3.3,2.3-6.3,4.4-8.8c1.5-1.9,3.7-3.6,5.9-4.7c1.6-0.8,2.9-1.8,4.1-3
			c-1-0.5-2.1-1-3.1-1.6c-0.6,0.4-1.1,0.7-1.7,1c-5.8,2.8-9.8,7.2-11.5,13.5c-0.4,1.3-0.9,2.7-1.2,4c-0.4,2-1.7,3.4-3.3,4.6
			c-1.5,1.2-3.2,2.1-4.8,3.2c-3.6,2.6-7.6,4.8-10.7,7.9c-3.5,3.5-6.2,7.8-9.2,11.7c-0.7,0.9-1.6,1.8-2.6,2.5c-1.1,0.8-2.4,1.4-3.7,2
			c-4,1.9-8.2,3.6-11.2,7.2c-1,1.2-2.2,2.3-3.3,3.3c-0.2,0.2-0.4,0.5-0.6,0.7C95.9,816.9,101.7,817.3,107.4,818.4z"/>
		<g>
			<circle class="st2" cx="226.1" cy="830.7" r="12"/>
			<circle class="st2" cx="148.5" cy="830.7" r="12"/>
			<path d="M223.2,771.1c-2.4-0.3-4.9-0.6-7.3-0.8c-1.2-0.1-2-0.6-2.9-1.5c-2.4-2.7-2.8-6-2.9-9.3c-0.2-5.5-0.3-11-0.2-16.5
				c0.1-3.3,0.8-6.6,1.1-9.9c0.3-3,0.7-6.1,0.9-9.1c0.6-5.8,0.9-11.7,1.7-17.5c1.4-10.9,2.1-21.9,5.5-32.5c1.2-3.7,1.5-7.7,2.5-11.5
				c0.7-2.8,1.6-5.5,2.5-8.3c0.3-0.8,0.9-1.4,1.5-2.3c1.7,1.2,2.7,2.3,3,4c0.5,2.6,1.3,5.1,1.5,7.7c0.6,6.5,0.9,13.1,1.3,19.6
				c0.6,10.1,1.1,20.2,1.5,30.4c0.2,5.2,0.1,10.3,0.2,15.5c0,2.8,0.2,5.6,0.3,8.4c0.3,6.9-0.7,13.8-1.7,20.6
				c-0.6,3.7-1.2,7.2-3.3,10.4C227.1,770.4,225.5,771.4,223.2,771.1z"/>
			<rect x="187.6" y="776.2" class="st2" width="9.4" height="56.4"/>
			<path d="M226.4,834.9h-75.2c-2.8,0-5.1-2.3-5.1-5.1l0,0c0-2.8,2.3-5.1,5.1-5.1h75.2c2.8,0,5.1,2.3,5.1,5.1l0,0
				C231.6,832.6,229.3,834.9,226.4,834.9z"/>
			<path class="st5" d="M212.1,758.9c-0.1-2.8-0.1-5.7,0-8.7c-0.9,0.8-1.9,1.4-3,2c0,0.4,0,0.8,0,1.2c0,3.4,0.2,6.8,0,10.2
				c-0.3,3.7-1.3,7.3-3.3,10.4c-0.9,1.4-2,2.7-3.2,3.8c-3.4,3.2-6.8,6.3-10.2,9.4c-2.1,1.9-4.4,3.5-6.5,5.3
				c-4.2,3.6-7.9,7.7-10.9,12.3c-0.9,1.3-1.8,2.6-2.7,3.9c-1.6,2.2-2.8,4.6-4,7c-1.8,3.7-4,7.2-6.2,10.6c-1.3,1.9-1.7,1.9-3.7,0.8
				c-3.6-2-7.4-3.3-11.5-3.4c-2.7-0.1-5.4,0.2-8.1,0.2c-4.8-0.1-9.6,0.1-14.4-0.5c-2.7-0.3-5.2-1-7.8-2c2.6,1.1,5.3,2.3,8.1,3.3
				c7.6,2.5,15.5,0.6,23.3,1.9c5.1,0.8,10,2.3,14.7,4.2c0,0,0,0,0,0c3-2.4,4.8-9.5,6.4-12.8c0,0,0,0,0,0c4.9-8.9,11-17.8,18.3-24.9
				c6.3-6.2,14.4-10.1,20.6-16.3c1.1-2.7,2.3-5.3,3.1-8C212,765.6,212.2,762.3,212.1,758.9z"/>
		</g>
		<g>
			<circle class="st2" cx="137.5" cy="400.9" r="12"/>
			<circle class="st2" cx="59.8" cy="400.9" r="12"/>
			<path d="M134.5,341.3c-2.4-0.3-4.9-0.6-7.3-0.8c-1.2-0.1-2-0.6-2.9-1.5c-2.4-2.7-2.8-6-2.9-9.3c-0.2-5.5-0.3-11-0.2-16.5
				c0.1-3.3,0.8-6.6,1.1-9.9c0.3-3,0.7-6.1,0.9-9.1c0.6-5.8,0.9-11.7,1.7-17.5c1.4-10.9,2.1-21.9,5.5-32.5c1.2-3.7,1.5-7.7,2.5-11.5
				c0.7-2.8,1.6-5.5,2.5-8.3c0.3-0.8,0.9-1.4,1.5-2.3c1.7,1.2,2.7,2.3,3,4c0.5,2.6,1.3,5.1,1.5,7.7c0.6,6.5,0.9,13.1,1.3,19.6
				c0.6,10.1,1.1,20.2,1.5,30.4c0.2,5.2,0.1,10.3,0.2,15.5c0,2.8,0.2,5.6,0.3,8.4c0.3,6.9-0.7,13.8-1.7,20.6
				c-0.6,3.7-1.2,7.2-3.3,10.4C138.4,340.6,136.8,341.6,134.5,341.3z"/>
			<rect x="98.9" y="346.4" class="st2" width="9.4" height="56.4"/>
			<path d="M137.7,405.1H62.5c-2.8,0-5.1-2.3-5.1-5.1l0,0c0-2.8,2.3-5.1,5.1-5.1h75.2c2.8,0,5.1,2.3,5.1,5.1l0,0
				C142.9,402.8,140.6,405.1,137.7,405.1z"/>
		</g>
		<path class="st5" d="M185.9,792.6c-4.2,3.6-7.9,7.7-10.9,12.3c-0.9,1.3-1.8,2.6-2.7,3.9c-1.6,2.2-2.8,4.6-4,7
			c-1.8,3.7-4,7.2-6.2,10.6c-1.3,1.9-1.7,1.9-3.7,0.8c-3.6-2-7.4-3.3-11.5-3.4c-2.7-0.1-5.4,0.2-8.1,0.2c-4.8-0.1-9.6,0.1-14.4-0.5
			c-5.3-0.7-10.2-2.8-15.1-5.1c-3.6-1.8-7.3-3.4-11.4-3.5c-0.2,0-0.5-0.2-0.8-0.3c0.8-2,2.6-2.8,4.2-3.7c1.3-0.8,2.8-1.4,4.3-2
			c4.5-1.7,7.7-4.7,10.3-8.8c2.6-4.1,5.5-8,9.7-10.8c3.8-2.6,7.5-5.3,11.4-7.9c3.2-2.1,5-5,5.8-8.6c0.7-3.3,2.3-6.3,4.4-8.8
			c1.5-1.9,3.7-3.6,5.9-4.7c2.2-1.1,3.8-2.6,5.3-4.2c3.5,1,6.9,2,10.3,2.9c5.1,1.3,10.2,0.7,15.2-0.9c3.6-1.2,7.4-1.9,11.1-2.9
			c2.8-0.8,5.6-1.8,8.5-2.6c1.7-0.5,3.4-1.1,5.4-1.7c0.1,1.5,0.2,2.6,0.2,3.7c0,3.4,0.2,6.8,0,10.2c-0.3,3.7-1.3,7.3-3.3,10.4
			c-0.9,1.4-2,2.7-3.2,3.8c-3.4,3.2-6.8,6.3-10.2,9.4C190.3,789.1,188,790.7,185.9,792.6z"/>
		<rect x="-30.6" y="449.9" class="st6" width="191.6" height="223"/>
		<g>
			<polyline class="st2" points="-20.6,557.2 -9.3,535.2 2,557.2 			"/>
			<polyline class="st2" points="-20.6,563.1 -9.3,543.5 2,563.1 			"/>
			<polyline class="st2" points="-24.5,572.9 -9.3,551.5 6,572.9 			"/>
		</g>
		<path class="st1" d="M70.1,624.8c-13.5-6.4-50.4-22.1-95.9-2.9v47.9h188.2v-56C162.3,613.7,84.8,631.8,70.1,624.8z"/>
		<path class="st1" d="M89.4,597.4c-4-8.6-46.8-55.3-115.2-25.9v52.8c2.6-1.4,5.5-3.2,8.6-5.7c12.5-9.6,53.8-10.1,77.3-4.8
			c9.9,4.3,21.4,11.2,37.1,9C97.2,622.9,93.6,606.9,89.4,597.4z"/>
		<rect x="-9.9" y="634.6" width="2.1" height="41"/>
		<rect x="2.9" y="629.8" width="2.1" height="41"/>
		<rect x="14.6" y="631.4" width="2.1" height="41"/>
		<path class="st5" d="M26.9,687.4v-17.9c0-6.3-5.1-11.4-11.4-11.4H-7c-6.3,0-11.4,5.1-11.4,11.4v17.9H26.9z"/>
		<path class="st5" d="M-18.4,693.2V719c0,6.3,5.1,11.4,11.4,11.4h22.4c6.3,0,11.4-5.1,11.4-11.4v-25.8H-18.4z"/>
		<path class="st2" d="M156.7,643.1c-9.6,29.7-7.1,116.4-6,116.4c56.1-1.8,61.7-1.9,61.7-1.9C212,675.4,195,647.9,195,647.9
			L156.7,643.1z"/>
		<path d="M169.6,575.8c-13.4-1.2-26.7-2.2-40-4.4c-0.6,59-4.6,77.8,51.4,74.9c-3.4-29.7-6.6-52.7-10-70.4
			C170.5,575.9,170.1,575.9,169.6,575.8z"/>
		<path class="st4" d="M121,561.7c-9,31.9-0.5,62.8,19.2,68.7s23.9,18.6,23.9,18.6l23.4,1.6l-24.5-96.9L121,561.7z"/>
		<path class="st2" d="M22.7,450.2c-0.5,0.3-1,0.5-1.6,0.6c-2.3,0.4-4.7,0.5-7,0.6c-0.9,0.1-1.7,0.1-2.3,0.9
			c-1.5,2.1-3.3,4.1-4.5,6.4c-1.3,2.3-3.1,3.1-5.6,3.2c-3.3,0.1-6.4-0.8-9.4-1.9c-3.7-1.5-7-1.2-9.9,2.1c-1.8,2-4,3.6-6.1,5.3
			c-1.2,1-2.5,1.1-3.9,0.4c-1.5-0.7-2.9-1.5-4.4-2.3c-0.1,0-0.1-0.1-0.2-0.1v2.9c1.2,1,2.5,1.7,4,2.3c2.1,0.8,3.9,0.7,5.6-0.8
			c2.3-1.9,4.7-3.7,6.7-5.8c1.8-1.8,3.5-1.8,5.7-1.2c3.1,0.9,6.2,1.9,9.4,2.3c3.7,0.4,7.1-0.3,9.3-3.9c0.9-1.6,2.3-2.9,3.3-4.4
			c1.2-1.8,2.8-2.3,4.8-2.4c2.2-0.1,4.3-0.6,6.4-1.1c1.8-0.4,3.1-1.6,3.9-3.2H22.7z"/>
		<path d="M199.7,749c0.3,0,0.5-0.1,0.8-0.1c2-0.4,3.6-0.9,5-1.6C203.6,747.9,201.7,748.5,199.7,749z"/>
		<path d="M113.6,727.9c3.5-1.4,7.3-1.8,11-1.7c0.9,0,1.3,0.4,1.1,1.5c-6,0-11.3,2.4-16.8,4.4C109.9,730.1,111.2,728.9,113.6,727.9z
			"/>
		<path class="st1" d="M412.7,676.7c1.6,0,3.3-0.1,5-0.2c0.1,0.4,0.3,0.7,0.4,1c0.8,5.2,4.4,8,8.6,10.2c1,0.5,2.2,0.6,3.3,0.7
			c1.3,0.2,2.6,0.6,3.8,1.1c0.9-0.7,1.8-1.5,2.7-2.3c-0.6-0.4-0.9-1.1-0.7-2.1c1.1,0,2.1,0,3.1,0c1.2-1.1,2.5-2.3,3.5-3.6
			c-0.5,0-1.1,0.2-1.7,0.2c-3.1,0.4-6.1,0.1-8.8-1.7c-1-0.7-2.2-1.4-2.4-3.1c0.7-0.1,1.3-0.2,1.8-0.2c3.2,0,6.5,0.1,9.7,0.1
			c0.6,0,1.3-0.1,1.9-0.3c-0.7-0.4-1.3-1-1.4-1.8c-0.1-0.5-0.1-0.9-0.1-1.4c-2.6,0.2-5.3,0.3-7.9,0.3c-1.5,0-3,0-4-1.7
			c0.6-1.4,2-1.4,3.2-1.6c1.3-0.2,2.6-0.3,3.9-0.5c-0.1-1.2,0.4-2.4,1.5-3.1c-1.2,0.2-2.4,0.3-3.5,0.4c-2.1,0.2-4.2,0.3-6.1,1.4
			c-2.8,1.6-3.1,3.1-1.5,5.9c0.2,0.4,0.4,1,0.3,1.4c-1,3.3,0.7,5.3,3.3,6.9c0.5,0.3,1,0.6,1.6,1c-2.3,1.2-5.6,0.8-7.6-1.3
			c-1.7-1.8-3.3-3.8-3.5-6.5c-0.3-3.6-0.8-7.2-1.3-11c6.8,1.7,13.3,0.2,20-1.7c0.1,1,0.2,1.9,0.3,3c0.5-0.1,1-0.1,1.5-0.2
			c0.2-1.7,0.4-3.3,0.7-5.1c0.1-0.5,0.3-0.9,0.6-1.3c-0.8-1.7-2.1-2.8-3.8-3.7c-1.1-0.6-2.5-0.6-3-2.2c-0.1-0.5-1.5-0.8-2.4-0.7
			c-1.6,0.1-3.3,0.3-4.9,0.7c-3.4,0.8-6.8,1.6-10.2,2.5c-3.3,0.9-4.3,2.9-3.3,6.1c0.3,1.1,0.6,2.2,1,3.5c-1.5,0.3-2.9,0.6-4.3,0.8
			c-1,0.1-1.7,0.2-2.1,0.4c0.2,0.7,0.2,1.5-0.3,2.2c-0.2,0.2-0.3,0.5-0.5,0.8c-0.1,1.3-0.4,2.7-0.2,3.9
			C409.4,675.9,410.7,676.7,412.7,676.7z M438,660.3c-6.5,1.9-12.9,3.4-19.8,0.3C425.9,657.7,435.1,657.5,438,660.3z M417.2,669.7
			c0.2,1.1,0.4,1.7,0.5,2.4c0,0.2-0.1,0.3-0.2,0.8c-1.4,0.1-3,0.1-4.7,0.2c-0.1-1.1-0.1-1.9-0.2-3
			C414.1,670,415.5,669.9,417.2,669.7z"/>
		<path d="M449.7,618.6c-6-5.1-14.9-6.6-20.4-0.1c0.3-0.2,0.6-0.5,0.9-0.7c0.1,3.5,1.3,6.1,4.3,7.9c-1.1,5.6-2.1,11.2-3.3,17.3
			c0.2,1.1,0.2,2.2,0.2,2.9c7.7,3.1,13.4,0.5,17.2-4.4c-1.6-5.3-3.2-10.4-4.6-14.9C446.1,623.6,447.9,621.1,449.7,618.6z"/>
		<path d="M409.3,777.8c-0.9-16.6-1.8-33.2-2.7-50.1h12.3c0.2,16.7,0.4,33.2,0.6,49.7c0.2,16.4,0.5,32.7,0.7,49.3
			c-2.4,1.2-4.9,1.9-8,0.9C411.3,811.1,410.2,794.5,409.3,777.8z M472.6,803.8c0.3,6.5,0.3,13,0.4,19c-3,0.7-5.7,1.3-8.5,2
			c-0.2-0.6-0.4-1.1-0.4-1.5c-0.8-7.9-1.9-15.9-2.3-23.8c-0.7-13.7-3.3-27.3-3.1-41.2c0.1-3.8-0.7-7.7-1.2-11.6
			c-0.1-0.6-0.2-1.2-0.2-1.8c0-4.8-0.8-9.5-1.7-14.2c-0.1-0.6-0.2-1.2-0.3-2.3h12.9c0.2,2.8,0.3,5.4,0.5,8.1
			c0.4,5.6,0.8,11.1,1.1,16.7c0.4,8.3,0.6,16.6,1.1,24.8C471.3,786.7,472.2,795.2,472.6,803.8z"/>
		<path d="M444.6,649.3c5.5-3.5,9.3-8.4,12.1-14.1c0.4-0.9,0.7-1.8,1-2.7c1.5-4.9,3.1-9.8,4.5-14.7c0.4-1.3,0.7-2.5,1.1-3.8
			c-1.1-2.2-2.1-4.4-3.3-6.5c-0.4,0-0.8,0-1.3,0c-1,0-2.1-0.3-3.2-0.4c-1.6,1.3-3.4,2.2-5.3,2.8c0,0.2,0,0.5,0,0.7
			c-3.3,2.7-14.3,3.8-19.8,1.8c0-0.1,0-0.2-0.1-0.3c-0.2,0-0.3-0.1-0.5-0.1c-2-0.8-4-1.5-6-2.1c-2,0.7-3.9,1.3-5.7,2
			c-1.7,0.6-3.3,1.4-4.9,2.3c0.4,0.7,0.5,1.7,0,2.6c-0.3,0.7-0.5,1.3-0.7,2c0.3-0.2,0.6-0.3,0.9-0.5c0.3,2.5,0.5,4.7,0.8,6.8
			c0.1,0.8,0.4,1.5,0.7,2.2c3.5,6.9,7.8,13.2,13.2,18.8c2.2,2.2,4.6,4,7.6,5C439.1,652,442,651,444.6,649.3z M460.6,611.4
			c-0.7,3.1-1.4,6.1-2.3,9.9c-2.3-2.7-4.2-4.8-5.9-6.8C454.4,610.7,455.1,610.4,460.6,611.4z M416.9,618.5c-0.1-2,0.3-2.4,2.2-3
			c1.2-0.4,2.3-0.7,3.5-1.2c2-0.9,3.7-0.7,5.4,1.2c-3.4,2.6-6.7,5.3-10.4,8.1C417.3,621.7,416.9,620.1,416.9,618.5z M431.2,643
			c0,0.1,0,0.2-0.1,0.3c-5.1-4.9-9-10.2-12.4-16.5c3.5-2.8,6.9-5.4,10.4-8.2c5.5-6.4,14.4-5,20.4,0.1c0.2-0.3,0.4-0.6,0.7-0.9
			c1.9,2.1,3.7,4.1,5.5,6.2c0.4,0.5,0.7,1.3,0.6,1.9c-0.3,4.7-3.8,11.8-7.8,15.7c0,0,0-0.1,0-0.1c-3.8,4.9-9.5,7.5-17.2,4.5
			C431.3,645.1,431.3,644.1,431.2,643z"/>
		<path class="st2" d="M408.2,683.3c0-1-0.1-2.1-0.3-3.1c-1-4.4-1.6-4.9-6.1-4.7c-0.3,0-0.7,0-1.4-0.1c0-0.3,0.1-0.6,0.1-0.9
			c-1,0.4-1.9,0.8-2.9,1.1c-0.6,2.2-1.4,4.4-2.1,6.6c0,0,0,0,0,0c-0.2,3-0.4,6.1-0.7,9.1c-0.1,1.3-0.3,2.6-0.4,3.9
			c-0.1,1-0.4,1.7-0.9,2.3c0,0.3-0.1,0.6-0.1,0.8c-0.1,0.4-0.2,0.7-0.4,1c0.9,0.8,2,1.4,3.3,1.9c0.1-0.3,0.1-0.7,0.2-1
			c0.3-1.3,0.5-2.9,2.5-3.2c-0.2-0.8-0.4-1.5-0.6-2.5c0.9,0.1,1.7,0,2.6,0.2c4.7,0.8,7.3-1.3,7.3-6
			C408.2,687,408.2,685.2,408.2,683.3z M398.4,690.3v-10.1c1.1,0.2,2,0.4,2.8,0.6c1.4,0.4,2.2,1.3,2.3,2.8c0.1,1.6,0.3,3.3,0.6,5.4
			C402.1,689.3,400.4,689.8,398.4,690.3z"/>
		<path d="M608.9,646.5c1.6,3.9,3,7.9,4.9,11.6c2-0.6,4.1-1.2,6-2.1c0.4-0.2,0.7-0.2,1-0.2c0.7-0.5,1.5-1.1,2.2-1.7
			c4.3-3.6,8.7-7.1,10.4-12.8c0.4-1.2,1-2.4,1.6-3.6c1.5-3.1,2.2-6.4,2.6-9.8c0.2-2.5,0.5-2.6,3-2.5c0.9,0,1.8,0.1,2.6-0.1
			c2.4-0.4,2.9-1.1,2.6-4c-0.5-0.1-1.1-0.3-1.7-0.2c-3.4,1-6.3-0.5-9.2-2.1c-1.2-0.7-2.5-1.2-3.1-2.7c-0.8-1.8-1.3-3.6-0.3-5.5
			c0.3-0.5,0.4-1.1,0.6-1.7c0.6-2.4,2-3.9,4.6-4.5c1.5-0.3,2.9-1,4.5-0.1c1.9,1.1,2.5,2.9,3.1,4.6c0.6,1.5,1,3.1,2.5,4
			c1-0.8,1.8-1.4,2.7-2.1c2.8-2.1,5.3-4.5,6.5-8c0.4-1.1,0.9-2,1.4-3.1c2.2-4.5,3-9.3,3.3-14.2c0-0.4,0.1-0.8,0.3-1.5
			c2,0.9,3.7,1.8,5.5,2.6c5.9,2.4,8.6,1.7,12.4-3.4c0.2-0.3,0.4-0.5,0.8-1c0.1,0.3,0.3,0.5,0.4,0.8c0.6-1.6,1-3.2,1.4-4.7
			c-1.7-2.4-4-4.4-6.9-6c-5.4-3.1-10.9-5.9-17.2-6.6c-4.3-0.5-8.7-1.4-13-1.3c-7.8,0.2-15.4,1.9-22.6,5.2c-3.5,1.6-7.1,3.4-9.1,6.8
			c-2.3,3.9-4.6,8-5.9,12.2c-2.7,8.6-4.2,17.5-3.6,26.6c0.2,3.6,0.3,7.2,0.8,10.7C605.2,633.4,606.3,640.1,608.9,646.5z"/>
		<path d="M680.9,641.7c0.1,0.2,0.2,0.5,0.3,0.7c-0.6,0.2-1.2,0.3-1.8,0.5l-0.2-0.4C679.8,642.2,680.3,642,680.9,641.7z M661,695.3
			c2.9,3.3,3,3.5,3.4,6.7c-1-0.6-2-1-2.7-1.6c-1.3-1.1-2.7-1.8-4.4-1.8c0.7-0.5,1.4-0.9,2-1.5C659.9,696.6,660.4,695.9,661,695.3z
			 M688.6,716.6c1.3-5.4,14.7-13,21.5-13.4C708.7,708.3,697.1,715.5,688.6,716.6z M731.6,661.2c-0.2,2.1-1.2,4.2-2.1,6.2
			c-0.5,1.1-1.7,2.1-3.4,1.5c0-1.6,0-3.1,0-4.6c0-1.6-0.1-3.1-1.2-4.5c-1.3-1.7-1.9-2-4-1.2c-0.3,0.1-0.6,0.2-0.9,0.3
			c-2-3.3-3.8-3.6-6.8-1.1c-0.7-0.4-1.4-0.9-2.1-1.3c-1.7-1-3.1-0.5-3.5,1.4c-0.5,2.2-1.6,4.3-0.7,6.7c0.2,0.4-0.1,1-0.2,1.8
			c-2.7-0.3-5.4,0.4-8-0.4c-1.9-0.6-3.4-1.8-3.8-3.9c-0.2-1.4-0.3-2.9-0.2-4.4c0.1-2.9,0.2-5.8,0.3-8.6c0.1-1.9,0.4-3.6,2.5-4.4
			c0.7-0.2,1.2-1.2,1.4-2c0.5-1.6,0.7-3.2,1-5.1c0.9,0,1.8-0.2,2.7,0c3.7,1,7.3,0.1,10.9-0.1c3-0.2,6.1-0.3,9.1,0.1
			c4.3,0.6,7.1,3.9,8,8.1C732,650.9,731.9,656.1,731.6,661.2z"/>
		<path class="st5" d="M259.4,570.7c-17.5-2-34.8-2.7-52.5-3.2c0,1.2-0.1,2.5,0,3.8c0.2,3.6,0.7,7.1,0.8,10.7
			c0.3,6.5,0.5,12.9,0.7,19.4c0,1.2,0.3,2.4,0.5,3.6c0.9,0.1,1.5,0.2,2.1,0.2c6,0,12,0.1,18.1,0c9.8-0.1,19.5-0.2,29.3-0.3
			c4.1-0.1,4.5-0.5,3.7-4.7c-1.2-5.9-1.1-11.8-0.9-17.7C261.2,578.3,260.6,574.5,259.4,570.7z"/>
		<path class="st2" d="M352.3,527.2c-0.7,0-1.2-0.1-1.7,0c-3.2,0.6-6.2,0.2-9.3-0.6c-4.1-0.9-8.1-2.2-12.4-1.5
			c-2.4,0.4-4.8,0.6-7.5,1c1.8,2.1,1.5,4.4,1.2,6.7c-0.5,3.6-0.3,7.3,1.4,10.5c1.7,3.2,1.8,6.4,0.6,9.6c-1.5,4.2-1.4,8.2-0.1,12.4
			c1.8,0.9,3.6,0.2,5.3-0.1c5.8-1.1,11.5-2.3,17.4-1.4c2.8,0.4,5.5,0.8,8.3,1.1c1,0.1,2.1,0,3.1,0c0-0.4,0-0.5,0-0.6
			c-0.1-0.2-0.2-0.5-0.3-0.7c-1.9-2.9-2.3-5.9-0.6-9.1c1.2-2.3,0.6-4.6-0.7-6.7c-0.5-0.8-1.1-1.6-1.5-2.5c-1.4-2.8-2.4-5.6-1-8.8
			c0.2-0.5,0.2-1.2,0.1-1.8C353.8,532.2,353.1,529.7,352.3,527.2z"/>
		<path class="st2" d="M410.3,479.1c-0.3-0.8-0.5-1.3-0.7-1.8c-1.3-3-2.6-5.9-3.9-8.9c-1.1-2.4-1.2-4.7,0.1-7
			c0.4-0.8,0.5-1.9,0.5-2.8c-0.1-1.7-0.5-3.4-0.8-5.2c-0.1-0.4-0.1-1-0.3-1.2c-2-1.4-1.8-3.4-1.8-5.4c0-1.2-0.7-2.1-1.9-2.2
			c-4-0.1-8-1-12,1.1c-0.1,3.1-0.3,6.4-0.2,9.5c0,1,0.8,2.2,1.7,2.8c2,1.3,2.5,3.1,2.4,5.2c-0.1,1.6-0.5,3.3-0.7,4.9
			c-0.2,1.2-0.4,2.4-0.2,3.6c0.3,2,0.8,3.9,1.3,5.9c0.6,2.3,0.9,2.5,3.3,2.5c3.6,0,7.2-0.2,10.7-0.4
			C408.5,479.7,409.2,479.4,410.3,479.1z"/>
		<path class="st2" d="M319.9,582.7c0,2.7,0,5.5,0,8.3c0,1.8-0.1,3.7-0.1,5.5c0,1.6,0,3.3,0,4.9c0,1.2,0.7,1.9,1.8,2.3
			c2.3,0.8,4.7,1.4,7.2,0.8c2-0.4,4-0.7,6-0.9c1.9-0.2,3.8-0.1,5.7-0.4c2.9-0.4,4-1.6,3.9-4.6c-0.2-3.6-0.5-7.2-1-10.7
			c-0.4-3-1.6-4.1-4.6-4.6c-1.7-0.3-3.5-0.5-5.2-0.8c-4.3-0.7-8.7-0.3-13-0.4C320.5,582.3,320.5,582.4,319.9,582.7z"/>
		<path d="M360.3,581.8c0,1.2,0.1,2.1,0,3.1c-0.2,2.2-0.3,4.4-0.9,6.4c-0.8,2.9-1,5.7-0.3,8.5c0.6,2.4,1.4,4.8,2.3,7.6
			c3.3-0.3,6.5-0.5,9.8-0.8c1.1-0.1,1.8-0.7,2-1.7c0.4-1.9,1-3.7,1.1-5.6c0.2-3.9,0.2-7.8,0.2-11.8c0-2.5-0.6-3.4-3-3.8
			C367.9,582.9,364.2,582.4,360.3,581.8z"/>
		<path class="st2" d="M301,471.6c5.4,1.8,10.5,0.9,15.9,0.9c0.1-3.2,0.2-6,0.2-8.9c0-2.4,0-4.7-0.1-7.1c0-1.6-0.1-3.3-0.2-4.9
			c-0.2-1.9-0.4-2.1-2.2-2.2c-1.3-0.1-2.6,0.1-3.9,0c-2.9-0.1-5.8-0.3-8.8-0.4c-0.6,0-1.1,0.3-2,0.5
			C300.3,456.8,300.7,464.1,301,471.6z"/>
		<path class="st5" d="M1,482.9c0-0.7,0-1.5,0-2.2c0-2.7,1.6-4.3,3.9-5.2c5.6-2.1,12.4-0.5,16.3,4c1.9,2.2,2,4.8,1.6,7.5
			c-0.6,3.2-2.1,5.9-5.5,7.1c-0.4,0.2-0.9,0.6-1.1,1c-0.5,1.3-1.4,1.3-2.5,1.2c-3.4-0.3-6.4-1.6-9-3.7C2,490.3,1,487.6,1,482.9z"/>
		<path d="M294.1,534.4c0.1,2,0.3,3.7,0.3,5.5c0.1,3.8,0.1,7.5,0.2,11.3c0.1,2.5,0.4,3,2.7,3.4c1.8,0.3,3.6,0.1,5.4,0.1
			c2.2-0.1,4.3-0.4,6.5-0.5c2.1-0.1,4.3-0.1,6.7-0.2c-0.1-7.3-1.5-13.9-2.7-20.6c-2.8-0.8-5.3-0.6-7.9-0.1c-1.3,0.2-2.6,0.4-3.9,0.1
			C298.7,532.7,296.5,534,294.1,534.4z"/>
		<path d="M325.1,499.9c0.4,4.8,0.7,9.4,1.1,14.2c6-0.9,11.5-1.7,17.2-2.5c0.1-4.6,0.6-8.8-0.6-13.2
			C336.7,498.1,330.9,498.6,325.1,499.9z"/>
		<path d="M371.4,497.6c-5.4,0-10.4,0-15.6,0c0,4.8,0,9.5,0,14.1c3.1,0.8,10.5,1.2,14.5,0.8C371.3,507.8,371.5,502.9,371.4,497.6z"
			/>
		<path class="st2" d="M225.5,547.8c0.6-4.5,0.1-8.6-1.2-12.6c-5.2-3.2-10.6-1.7-16.1-0.7c0.2,5,0.4,9.9,0.6,15.2
			C214.5,548.1,220,549.4,225.5,547.8z"/>
		<path class="st2" d="M212.1,632.5c3.5,0.4,7.2,0.4,10.9,0.4c0.2-0.5,0.4-0.8,0.4-1.2c-0.2-4.3-0.3-8.5-0.7-12.8
			c0-0.6-0.9-1.4-1.5-1.5c-2.9-0.9-5.9-1.3-9.1-0.8C212.1,621.9,212.1,627,212.1,632.5z"/>
		<path d="M526.2,575.4c-0.2,0.5-0.3,1.5-0.8,2.3c-0.6,1-1.5,1.7-2.8,1.5c-1-0.2-2.4-1.5-2.4-2.5c0-1.1,0.1-2.2,1.3-2.8
			c0.5-0.2,0.9-0.6,1.3-0.8C524.7,572,526.2,572.9,526.2,575.4z"/>
		<path d="M112.9,713.3c0,0.7,0.1,1.4,0,2.1c-0.1,0.4-0.5,1.2-0.8,1.1c-0.5,0-1.2-0.4-1.4-0.8c-0.3-0.6-0.4-1.3-0.5-2
			c-0.2-1.9-0.3-3.8-0.4-5.7c-0.1-0.8,0.1-1.5,1-1.5c0.9-0.1,1.5,0.4,1.6,1.3C112.6,709.6,112.7,711.5,112.9,713.3
			C112.9,713.3,112.9,713.3,112.9,713.3z"/>
		<path d="M128.6,542.1c2-1.6,4.1-2.9,6.4-3.8c1.5-0.6,3.1-1.1,4.7-1.5c0.2-0.1,0.5,0.3,1,0.6c-0.5,0.3-0.8,0.6-1.1,0.8
			c-2.8,1.4-5.6,2.8-8.4,4.2C130.3,542.9,129.4,543.5,128.6,542.1z"/>
		<path d="M105.3,723.6c-2.2-0.7-6.5-5.1-6.9-7.1c1.1-0.5,1.9-0.3,2.7,0.6c0.8,1,1.8,1.9,2.7,2.7
			C105.2,721.1,105.6,721.9,105.3,723.6z"/>
		<path d="M17.4,578.8c0.5-1,0.7-1.8,1.2-2c2.1-1.1,4.4-1.7,6.8-1.3c0.5,0.1,0.9,0.8,1.3,1.3c-0.5,0.3-0.9,0.7-1.4,0.8
			c-1.7,0.4-3.4,0.6-5,0.9C19.5,578.6,18.7,578.6,17.4,578.8z"/>
		<path d="M102.7,710c0.6,0.3,1.5,0.5,1.9,1.1c1.1,1.4,2.1,3,3,4.5c0.2,0.3,0.2,0.8,0.2,1.2c-0.1,1-1,1.3-1.7,0.7
			c-0.3-0.2-0.4-0.5-0.6-0.8c-1-1.6-1.9-3.3-2.8-4.9c-0.2-0.4-0.2-0.8-0.4-1.2C102.4,710.3,102.6,710.1,102.7,710z"/>
		<path d="M40.1,573c-1.5,2.6-1.7,2.7-3.6,2.4c-1-0.1-2-0.1-3-0.2c-0.6-0.9-0.4-1.9,0.6-2.1C35.9,572.9,37.9,572.7,40.1,573z"/>
		<path d="M157.3,533.9c-3.1,0.7-6.1,2.5-10,0.9c0.9-0.5,1.3-0.8,1.7-0.9c2.3-0.3,4.6-0.7,7-0.9c0.4,0,0.9,0.3,1.3,0.4
			C157.3,533.6,157.3,533.8,157.3,533.9z"/>
		<path d="M119,711.8c0.1-0.7,0.2-1.9,0.6-3c0.1-0.4,0.8-0.7,1.2-1c0.3,0.4,0.9,0.8,0.8,1.1c-0.1,1.8-0.3,3.6-0.6,5.4
			c0,0.2-0.7,0.6-1,0.6c-0.3,0-0.9-0.4-0.9-0.7C118.9,713.6,119,712.9,119,711.8z"/>
		<path d="M97.8,724.2c0.3-0.1,0.7-0.4,0.9-0.3c1.4,1,2.7,2.1,4,3.2c0.1,0.1,0,0.8-0.1,0.9c-0.3,0.2-0.8,0.3-1.2,0.2
			C99.9,727.7,98.7,726.4,97.8,724.2z"/>
		<path d="M38.9,585.6c-1.1,1.4-2.3,1.2-3.2,0.8c-0.4-0.2-0.6-1.1-0.9-1.7c0.5-0.2,1.1-0.8,1.5-0.6C37.2,584.4,37.9,585,38.9,585.6z
			"/>
		<path d="M136.1,169.2c-4.3,6.2-10.2,9.2-18.7,9.5c-1.3-0.2-2.7-0.2-4-0.6c-5.3-1.4-10.4-3.3-14.2-7c-2.8-2.8-3.9-6.1-4.5-9.6
			c-0.1-0.8,0.1-1.7,0.4-2.4c2.1-5.4,6.2-9.4,12.1-11.9c1.7-0.7,3.6-1.2,5.7-0.8c1,0.2,2.1,0.4,2.6-1c0.1-0.2,1.2-0.4,1.8-0.3
			c5.5,0.7,10.5,2.3,14.8,5.4c2.6,1.9,3.8,4.4,4.8,7C138.5,161.4,138.8,165.4,136.1,169.2z"/>
		<path d="M108.8,317.8l0.5,0.6c2-0.6,4-1.2,5.9-2c0.2-0.2,0.4-0.3,0.6-0.5c5.8-4.8,8.7-10.9,11.7-17.5c0-1.9-0.1-3.8-0.7-5.7
			c-0.4-1.4-0.8-2.7-1.1-4.1c-0.9-3.9,1-7.5,2.3-11.1c1.6-4.3,2.9-8.6,3.5-13.1c0.8-6,1-11.9,0.1-17.9c-0.5-3.3-1.3-6.5-2.2-9.8
			c-0.7-2.5-2.6-4.7-2.6-7.5c0-0.6-0.7-1.3-1.2-1.9c-1.2-1.3-2.4-2.6-3.7-3.9c-3.4-3.1-4.2-6.8-4-10.8c0.1-1.9,0.2-3.8,0.2-5.7
			c0-1-0.2-2-0.8-2.8c-1-1.5-2.2-2.9-3.4-4.3c-1.1-1.2-2.4-2-3.9-2.5c0.3-0.3,0.5-0.5,0.5-0.5c-0.2,0.1-0.4,0.3-0.7,0.5c0,0,0,0,0,0
			c-0.1,0.1-0.1,0.1-0.2,0.2c-3.6,2.5-12.6,8.9-15.1,9.9c-1.6,1-3.5,1.7-5.5,2c-0.8,0.2-1.7,0.2-2.5,0.2c-4.7,0.6-1.4-3.6-6.5-6.1
			c-1.3,1.3-10.9,6.2-12.1,7.5c-2.5,2.6-4.8,5.3-5.7,8.6c-1.5,5-3.8,9.8-6.6,14.3c-1.7,2.8-3.3,5.7-5.5,8.2c-1.5,1.7-3.7,3.4-6,4.2
			c-3.4,1.2-6.2,2.7-8.5,5.1c-2.9,3.1-6.9,4.5-11.3,5.2c-3.8,0.7-7.7,1.2-11.5,1.8c-1.8,0.3-2.2,0.9-2,2.5c0.1,0.9,0.1,1.7,0.2,2.6
			c-0.7,0.2-1,0.3-1.4,0.3c-1.6,0.2-3.3,0.3-4.9,0.6c1.1,5.5,1.1,11,1,16.6c0.3,0.4,0.5,0.7,0.8,1.1c1.7-0.8,3.8-1.1,5.6-1.8
			c0.5-0.2,1.6,0.4,2.3,0.8c6.3,3,13,4.4,20.2,3.1c4.2-0.7,7.7-2.7,11.2-4.6c3.1-1.7,6.1-3.4,9.3-5.2c0.1,0.4,0.3,0.7,0.4,0.9
			c0.1,1.8,0,3.6,0.3,5.4c0.4,2.1,0.5,4.1-0.5,6.1c-0.8,1.6-1.4,3.3-2,4.9c-1.9,5.7,0.3,10.8,3.9,15.5c1.6,2,3.9,3.7,5.9,5.4
			c0.5,0.4,1.1,0.7,1.7,1.1c-0.5,0.6-0.7,1.1-1.1,1.2c-1.2,0.3-2.3,0.7-3.4,1.2c2.6,0.4,5.2,0.9,7.7,1.5c0.4-0.1,0.7-0.3,1.1-0.4
			c1-0.4,2.5,0,3.7,0.2c9.5,1.7,19.1,2.2,28.7,1.2C104.2,318.7,106.5,318.2,108.8,317.8z M106.1,200.6c-0.4,1.6-0.9,3-1.4,4.8
			c-1.1-0.6-1.8-0.9-2.6-1.3C102.2,203.9,104.1,202.3,106.1,200.6z M100.3,206.8c0.9,0.3,1.8,0.7,2.9,1.1c-1.3,2.4-2.9,4.4-5.4,6.2
			c-0.5-1.1-0.9-2-1.3-2.8C97.7,209.8,99,208.4,100.3,206.8z M87,214.2c2-0.4,4-0.9,6.4-1.4c0.5,0.8,1,1.7,1.6,2.7
			c-2.3,1.8-5.1,2-8,2.3V214.2z M83.9,213.5v4.6c-2.9-0.3-5.7-0.6-9-1c1.6-2,2.9-3.7,4.3-5.5C80.9,212.4,82.3,212.9,83.9,213.5z
			 M71.4,213.5c1.2-1.4,2.6-2.6,4-3.9c0.1-0.1,0.6,0.1,1.4,0.3c-1.5,1.9-2.8,3.6-4,5.2C71.5,214.8,70.8,214.3,71.4,213.5z
			 M16.1,261.4c3-0.4,5.9-1,8.9-1.3c5.4-0.6,9.6-2.8,13.3-6.1c1.5-1.4,3.4-2.5,5.4-3.3c5.8-2.4,10.1-6,12.6-11.1
			c0.9-1.7,2.1-3.3,3.4-5.3c0.4,2.1,0.8,3.8,1.1,5.5c0.1,0.5-0.1,1.1-0.5,1.5c-0.8,0.9-1.7,1.8-2.7,2.6c-4.2,3.6-8.3,7.3-12.7,10.6
			c-6.2,4.6-13.6,6.9-21.6,8.1c-2.8,0.4-5.7,1.2-8.7,0.7C14.1,261.9,14.9,261.5,16.1,261.4z M6.5,268.5c3.1-1.1,6.4-0.4,9.9-1.2
			c0.1,1.2,0.2,2,0.3,2.9c-3.1,0.7-6.3-0.7-9.2,1.2C7.1,270.4,6.8,269.6,6.5,268.5z M16.9,278c-0.6-0.2-1-0.2-1.3-0.4
			c-1.4-1-2.8-0.9-4.4-0.3c-1.8,0.6-2.2,0.4-2.8-1.1c-0.2-0.4-0.3-0.8-0.4-1.2c-0.1-0.4-0.1-0.8-0.2-1.4c3.1-0.2,6-0.4,9.1-0.6V278z
			 M93.5,315.7c-6-0.3-12-0.8-18-1.4c-4.1-0.4-7.6-1.8-10.5-4.4c-3.7-3.1-6.5-6.6-7.6-11c-0.8-3.1-0.1-6.2,1.5-8.9
			c1.9-3.3,2.4-6.6,1-10.1c-1.1-2.6,0.4-4.9,0.7-7.5c3.6-0.7,7.1-1.4,10.6-2.1c4-0.8,8.1-1.5,11.4-3.7c2.1-1.4,4.2-3,6-4.7
			c4-3.9,7.9-8,11.8-12.1c2.9-3.1,4.1-6.9,5.9-10.5c0.6-1.3,0.4-2.6-1.2-4.1c-0.7,0.6-1.3,1.1-1.7,1.6c-0.4,0.6-0.7,1.4-1,2.1
			c-2.2,5.8-6.5,10.5-11.2,15.1c-2,2-4.2,3.9-6.3,5.9c-3.2,3.1-7.4,4.9-12,5.9c-2.8,0.6-5.7,1.2-8.5,1.7c-3.7,0.7-7.2,1.7-10.4,3.7
			c-3.6,2.2-7.3,4.4-11.3,6.2c-5.7,2.5-11.8,4.6-18.5,3.1c-1.2-0.3-2.4-0.6-3.6-0.9c-0.2-4.1-0.4-8.1-0.6-12.4
			c1.1-0.2,2.4-0.4,3.7-0.7c4.2-1,8.4-2,12.6-3.2c1.8-0.5,3.5-1.5,5.1-2.4c5.5-3.2,10.4-6.9,15-11c6.9-6.1,13.6-12.3,21.7-17.3
			c3.2-1.9,6.2-3.9,9.9-5.1c0.3-0.1,0.5-0.2,0.7-0.4c0.7-0.6,1.7-1.3,1.1-2.3c-0.5-0.9-2.5-1.4-3.5-0.9c-3,1.6-6,3.1-8.9,4.8
			c-3.6,2.2-7,4.5-10.3,6.7c-1.1-0.3-2.2-0.6-3.3-0.9c0.2-6,0.5-12,4.8-17.2c0.3,0.1,0.5,0.1,0.6,0.2c2.6,2.9,6.3,3.7,10.3,4.1
			c6.2,0.6,12.2,0.2,17.7-2.8c5.8-3.1,9.2-7.5,11-13c0.3-0.8,0.5-1.6,0.7-2.4c0.1-0.3,0.3-0.6,0.6-1c2.9,1.8,4.2,4.2,4.4,7
			c0.1,2,0,4,0,6c0,3.5,1.2,6.6,3.8,9.4c4.1,4.4,7.6,9.1,9.3,14.5c1.9,6.4,2.4,13.1,1.9,19.8c-0.5,7.4-3.3,14.3-5.7,21.3
			c-1.3,3.8-1.3,7.3,0.1,11c1.4,3.7,1.5,7.5,0.3,11.3c-0.8,2.6-2.1,4.9-5.2,6.2c-1.5,0.6-2.5,2.1-4,2.8
			C107.9,314.8,100.9,316,93.5,315.7z"/>
		<path d="M73.5,337.1c-0.8-0.6-1.3-0.9-2.1-1.4c1.1-0.6,2-1.2,2.8-1.7l0.5,0.3C74.4,335.1,74,335.9,73.5,337.1z M110.2,394.5
			c2.1-0.1,4.2-0.3,6.6-0.5c0.5,1.7,1,3.3,1.4,4.9c-7,0.9-13.7,1.2-20.4,1.1c-7-0.1-14-0.5-21.1-0.7c-3.4-0.1-6.8,0-10.3,0
			c-0.4-1-0.6-1.8-1-2.9c1.6-0.2,3-0.2,4.4-0.5c5.6-1,11.3-0.8,16.9-0.9C94.6,394.9,102.4,394.8,110.2,394.5z"/>
		<path class="st1" d="M471.4,65.2c-0.5,0.1-1.3,0.1-1.6,0.4c-2.5,2.2-4.9,4.5-7.3,6.7c-1.5,1.4-2.9,2.8-4.3,4.2
			c-1.2,1.2-2.3,2.4-3.4,3.6c-0.7,0.7-1.4,1.4-2.4,2.4c0,5.9,0,12.4,0,18.9c0,4.3,0.3,8.6-0.3,12.9c-1.4,9.4-1.3,18.9-1.5,28.4
			c-0.2,7.5-0.7,14.9-0.9,22.4c-0.1,5.1,0.3,10.1,0.5,15.4c3-0.3,5.8-0.4,8.6-0.8c3.7-0.5,7.4-1,11.1-1.6c0.5-0.1,1-0.4,1.5-0.6
			c0,1.4,0,2.8,0,4.2c-3.2,0.2-6.4,0.2-9.5,0.6c-3.4,0.4-6.7,1-10,1.7c-1.4,0.3-2.6,1-4.3,1.6c-1.7-1.3-4-0.5-6.3-0.1
			c-4.6,0.8-9.2,1.5-13.8,2.3c-0.1,0-0.2,0.1-0.3,0.1c-6.6,0.4-7.5,0-7-4.7c1.2-10.8,0.1-21.6-0.3-32.3c-0.3-7.9-0.5-15.7,0-23.6
			c0.5-6.9-0.2-13.8-0.3-20.8c0-3,0.2-5.9,0.3-8.9c0.1-4.2,0.2-8.4,0.1-12.6c-0.1-7.1-0.5-14.2-0.7-21.3c0-2,0.3-4,0.5-6
			c0.1-1.1,0.3-2.1,0.2-3.2c-0.7-6.2,0.2-12.4,0.7-18.6c0.2-2-0.1-4-0.3-6c-0.2-1.7-0.3-1.7,1.8-3.6c1.7,1.1,3.3,2.1,2.4,4.2
			c-0.4,0.8-0.1,1.7-0.1,2.6c0.2,3.1,0.5,6.1,0.7,9.2c1.9,0.7,3.7,0.3,5.5,0c5.8-0.8,11.7-0.8,18.1-0.9c0.6,1.9,1.3,3.8,1.7,5.6
			c0.3,1.6,0.2,3.2,0.3,4.7c0.2,8,0.5,15.9,0.7,24.4c3.7-2.4,6.7-4.7,9.5-7.1c2.6-2.2,5.2-4.3,7.7-6.6c1-0.9,1.8-2,2.6-3
			C471.4,61.3,471.4,63.2,471.4,65.2z M445.7,181.2c0.1-0.8,0.1-1.4,0.1-2c0.2-16,0.4-32,0.6-47.9c0-2,0.2-4,0.4-6
			c0.8-8.1,1.4-16.1,1.1-24.2c-0.4-10.8-1-21.6-1.3-32.4c-0.2-5.2,0-10.4,0-15.5c0-2.6-0.1-5.2-1.5-7.9c-6.7,0.4-13.3,0.7-20.1,1
			c-0.1,1.1-0.3,2-0.3,2.8c0,1.7,0.3,3.5,0.2,5.2c-0.1,2.5-1.4,4.9-0.8,7.5c0.3,1.7-0.1,3.5-0.1,5.2c-0.1,1.8-0.3,3.7-0.1,5.5
			c0.3,3.7,1,7.4,1.1,11.1c0.1,3.8-0.4,7.6-0.7,11.4c-0.2,2.2-0.6,4.5-0.5,6.7c0.1,5,0.6,10,0.6,15c0,4.8-0.6,9.6-0.5,14.4
			c0.1,7.9,0.5,15.8,0.7,23.7c0.1,6.5,0,13-0.1,19.5c0,3,0,5.9,0,9.2C431.8,183,438.7,182.1,445.7,181.2z"/>
		<path class="st1" d="M20.8,216.9c-1.9,0.4-3,0-3.1-1.6c-0.2-2.4-0.5-4.8-0.6-7.2c-0.4-10.1-0.9-20.2-1.2-30.3
			c-0.2-6.2-0.5-12.4-0.6-18.6c-0.1-3,0.3-6,0.3-9c0.1-7.5,0-15.1,0.1-22.6c0.1-6.5,0.4-13,0.4-19.4c0-10.3-0.2-20.6-0.3-30.9
			c0-0.3-0.1-0.5-0.2-0.8c-3.7-1.5-4-2.4,0.2-5c-0.3-3.2-0.6-6.5-1-9.9c-0.6-4.4-1.3-8.8-1.8-13.2c-0.2-1.5-1-2.1-2.9-2.4
			C4.5,45-1.2,45-6.8,45.4c-7,0.4-14,0.5-21,0c-4.1-0.3-8.1-0.5-12.4-0.7c-1.2,3.5-1.3,6.9-1.1,10.3c0.4,6.5,1,12.9,1.4,19.4
			c0.3,4.5,0.6,9,0.7,13.6c0.2,5.3,0.1,10.6,0.2,15.9c0.2,7.8,0.5,15.6,0.7,23.4c0.1,4.9-0.1,9.8,0,14.6c0.2,7.6,0.4,15.3,0.7,22.9
			c0.3,6.6,0.6,13.1,1.2,19.7c0.4,5.2,1.4,10.4,1.7,15.6c0.2,4.9-0.1,9.9-0.3,14.9c0,0.9-0.2,1.9-1.8,1.8c-1.7-0.1-2-1-2-2.1
			c-0.1-3.5-0.1-7.1-0.3-10.6c-0.3-6.3-0.6-12.6-0.9-18.9c-0.3-6.9-0.6-13.8-0.9-20.7c-0.3-8.8-0.7-17.6-0.9-26.4
			c-0.2-10.1-0.3-20.2-0.6-30.3c-0.1-4.7-0.7-9.4-0.9-14.1c-0.2-3.7-0.2-7.5-0.4-11.2c-0.3-5-0.5-10.1-0.9-15.1
			c-0.2-1.8-0.9-3.6-1.4-5.4c-1.1-0.1-1.8-0.1-2.5-0.1c-8.6-0.1-17.1-0.1-25.7-0.2c-3.5,0-7,0-10.4,1c-0.7,0.2-1.6,0.3-2.4,0.3
			c-1.8,0-2.8-0.6-3-1.7c-0.1-1.3,1.2-1.6,2.4-1.9c0.3-0.1,0.7-0.1,1-0.1c1.4-0.2,2.8-0.3,4.1-0.6c5.3-1.1,10.6-1.2,16-1.1
			c6.8,0.2,13.6,0,20.5,0c0.3-1.6,0.6-3,0.7-4.4c0.2-3.6,0.3-7.2,0.4-10.9c0-1.4,1.1-2,3.4-2c3.9,0.1,7.7,0.5,11.6,0.6
			c6.3,0.2,12.6,0.4,19,0.4c4.4,0,8.9-0.5,13.3-0.4c3.3,0,6.5,0.4,9.8,0.9c3,0.4,3.7,1,4.1,3.3c0.8,5.5,1.5,10.9,2.2,16.4
			c0.4,3,0.7,6,1,9.1c9.8-0.5,19.5-1,28.9-1.5c2.9,2.6,3.8,5.2,3.4,8.2c-0.4,2.8,0.1,5.7,0.2,8.5c0,0.4,0.2,1-0.1,1.3
			c-0.4,0.5-1.1,1.2-1.6,1.1c-0.8,0-1.9-0.5-2.1-1c-0.4-0.9-0.3-1.9-0.3-2.9c0-2.7,0.1-5.3,0-8c0-0.8-0.4-1.7-0.7-2.8
			c-9.2,0.7-18.2,0.4-27.5,1.8c-0.1,1.3-0.1,2.6-0.2,3.9c-0.1,9.1-0.1,18.1-0.2,27.2c-0.1,6.8-0.2,13.6-0.3,20.5
			c-0.1,8.3-0.2,16.7-0.1,25c0.1,6.2,0.5,12.4,0.6,18.6c0.1,4.1-0.2,8.2-0.1,12.2c0.1,4.7,0.3,9.4,0.6,14.1
			c0.3,4.7,0.8,9.4,1.1,14.1C21.4,212.9,22.8,214.8,20.8,216.9z"/>
		<path class="st2" d="M59.1,63.3c-0.2-2.7,0.3-3.3,2.7-3.4c0.8,0,1.5,0.1,2.3,0.2c1.8,0.1,3.7,0.4,5.5,0.2c4.5-0.7,8.9,0,13.4,0.2
			c6.1,0.2,12.2,0.4,18.7,0.6c0.3-1.2,0.6-2.3,0.7-3.3c0.1-1.4,0-2.8,0-4.2c0-1,0-2,0.2-3c0.2-0.8,0.2-2,1.7-2c1,0,1.8,0.9,1.7,2.2
			c-0.1,2.7-0.4,5.5-0.6,8.2c-0.1,2.1-1.1,3.8-2.5,5.9C88.5,64.3,73.9,63.8,59.1,63.3z"/>
		<path class="st2" d="M175.8,34.2c0.4,0.6,1.3,1.3,1.2,1.8c-0.4,2.7-0.8,5.4-1.6,8c-0.7,2.2-1.1,2.2-3.8,2.2
			c-9.6-0.1-19.3-0.3-28.9-0.5c-4.1-0.1-8.2-0.3-12.2-0.5c-1.1,0-2.1-0.2-3.2-0.4c-1-0.1-1.6-0.7-1.5-1.5c0.1-1,0.7-1.5,1.9-1.5
			c2.8,0.1,5.6,0.1,8.4,0.2c3.3,0.2,6.6,0.5,9.9,0.6c2.5,0.1,5-0.2,7.6-0.2c5.7,0,11.5,0,17.2,0.1c1.6,0,2.4-0.4,2.5-1.8
			c0.1-1.2,0.2-2.5,0.4-3.7C173.8,36.1,173.8,35,175.8,34.2z"/>
		<path class="st2" d="M218.2,43.5c1-2.1,0.2-3.6-0.2-5.2c-0.3-1.3-1-2.8,1.4-3.8c0.5,0.6,1.4,1.1,1.6,1.8c0.9,2.7,1.2,5.5,0.4,8.4
			c-0.6,1.9-1,2.3-3.4,2.3c-5.4,0.1-10.9,0-16.3,0.1c-1.7,0-3.3,0.2-5,0.2c-5-0.1-9.9-0.2-14.9-0.3c-1.7-0.1-2.5-0.9-2.2-2
			c0.3-1,1-1.3,2.3-1.3c6.9,0.1,13.8,0,20.7-0.1C207.8,43.5,212.9,43.5,218.2,43.5z"/>
		<path class="st2" d="M389.3,159.6c1-2.1,0.2-3.6-0.2-5.2c-0.3-1.3-1-2.8,1.4-3.8c0.5,0.6,1.4,1.1,1.6,1.8c0.9,2.7,1.2,5.5,0.4,8.4
			c-0.6,1.9-1,2.3-3.4,2.3c-5.4,0.1-10.9,0-16.3,0.1c-1.7,0-3.3,0.2-5,0.2c-5-0.1-9.9-0.2-14.9-0.3c-1.7-0.1-2.5-0.9-2.2-2
			c0.3-1,1-1.3,2.3-1.3c6.9,0.1,13.8,0,20.7-0.1C378.9,159.5,384.1,159.6,389.3,159.6z"/>
		<path class="st2" d="M180.3,373.7c1-2.1,0.2-3.6-0.2-5.2c-0.3-1.3-1-2.8,1.4-3.8c0.5,0.6,1.4,1.1,1.6,1.8c0.9,2.7,1.2,5.5,0.4,8.4
			c-0.6,1.9-1,2.3-3.4,2.3c-5.4,0.1-10.9,0-16.3,0.1c-1.7,0-3.3,0.2-5,0.2c-5-0.1-9.9-0.2-14.9-0.3c-1.7-0.1-2.5-0.9-2.2-2
			c0.3-1,1-1.3,2.3-1.3c6.9,0.1,13.8,0,20.7-0.1C169.9,373.7,175.1,373.7,180.3,373.7z"/>
		<path class="st2" d="M30.7,234c1.3-2.8-0.5-5.5,0.8-8.1c1.8,0.3,2.9,0.9,2.9,2.4c0,2.2,0,4.5-0.1,6.7c-0.1,2.1-0.8,2.7-3.3,2.6
			c-4.7-0.1-9.3-0.3-14-0.5c-2.2-0.1-4.5,0-6.7-0.1c-3.6,0-7.2,0-10.8-0.1c-1.2,0-2.1-0.4-2-1.6c0.1-1.1,0.8-1.6,2.1-1.6
			c7,0.1,14,0.2,21,0.3C24.1,234,27.5,234,30.7,234z"/>
		<path class="st2" d="M152.8,355.4c-0.2-1.5-0.3-2.9-0.5-4.2c-0.1-0.5-0.5-1-0.4-1.4c0.1-0.5,0.5-1.1,1-1.3
			c0.3-0.1,1.1,0.2,1.5,0.5c0.5,0.5,1,1.1,1,1.7c0.1,2.1,0.2,4.1,0,6.2c-0.2,1.8-1.2,2.5-3.3,2.4c-7.6-0.3-15.1,0.9-22.7,1.3
			c-2.9,0.2-5.8,0-8.6,0c-1.1-2.8-0.4-3.3,2.7-3.3c3.9,0,7.7-0.4,11.6-0.6c5.2-0.3,10.5-0.7,15.7-1.1
			C151.3,355.6,151.8,355.5,152.8,355.4z"/>
		<path class="st2" d="M137,98.7c-0.4-2.4-0.1-3,2.3-3.3c3-0.3,6-0.5,9-0.6c5-0.1,9.9-0.1,14.9-0.2c0.5,0,0.9-0.1,1.6-0.1
			c0.4-2.4,0.2-4.7-0.3-7c-0.2-0.8-0.4-1.7-0.3-2.5c0.1-0.6,0.7-1.2,1-1.7c1.6,0.5,2.2,1.4,2.3,2.4c0.3,2.8,0.6,5.6,0.9,8.4
			c0,0.3,0,0.7-0.1,1c-0.4,2.2-1.4,3-4,3c-5.7,0-11.5,0.1-17.2,0.1c-2.2,0-4.5,0.2-6.7,0.3C139.2,98.7,138.1,98.7,137,98.7z"/>
		<path class="st2" d="M225.2,94.3c-0.4-2.4-0.1-3,2.3-3.3c3-0.3,6-0.5,9-0.6c5-0.1,9.9-0.1,14.9-0.2c0.5,0,0.9-0.1,1.6-0.1
			c0.4-2.4,0.2-4.7-0.3-7c-0.2-0.8-0.4-1.7-0.3-2.5c0.1-0.6,0.7-1.2,1-1.7c1.6,0.5,2.2,1.4,2.3,2.4c0.3,2.8,0.6,5.6,0.9,8.4
			c0,0.3,0,0.7-0.1,1c-0.4,2.2-1.4,3-4,3c-5.7,0-11.5,0.1-17.2,0.1c-2.2,0-4.5,0.2-6.7,0.3C227.4,94.4,226.3,94.3,225.2,94.3z"/>
		<path class="st2" d="M71,368.2c0-0.8,0-1.5,0-2.2c0-0.8,0.3-1.3,1.3-1.4c1-0.1,1.8,0.4,1.8,1.3c0,1.7-0.1,3.5-0.3,5.2
			c-0.1,1-1.1,1.2-2.2,1.2c-8.4,0.1-16.9,0.2-25.3,0.3c-1.3,0-2.7-0.2-4-0.4c-1-0.2-1.7-0.9-1.4-1.8c0.3-0.9,0.9-1.4,2.1-1.3
			c4.9,0.2,9.7,0.3,14.6,0.4c1,0,2,0,2.9-0.1C63.8,368.9,67.2,368.6,71,368.2z"/>
		<path class="st1" d="M-20.1,208.8c0.2-2.4,1.8-4,4.4-5c0.6-0.2,1.4-0.3,2-0.3c3.8,0.2,7.3,4,6.3,6.7c-0.3,0.9-0.6,1.7-1,2.6
			c-1.5,3-5.8,3.6-8.6,1.3C-18.8,212.6-19.8,210.7-20.1,208.8z"/>
		<path class="st1" d="M-14.6,134.2c-0.5,0.9-1.1,2.6-2.3,4c-1.4,1.6-3.6,1.7-5.3,0.3c-2.6-2.2-3.9-4.8-3.5-7.8
			c0.3-1.8,3.2-4.2,5.4-4.4c0.7-0.1,1.6,0.3,2.2,0.6C-15.5,128.6-14.8,130.9-14.6,134.2z"/>
		<path class="st1" d="M-4.8,59.3c-0.1-1.6,2.8-4.1,4.9-4.2c0.7,0,1.4,0.1,2,0.4c3.8,1.8,5.1,6.5,2.6,9.4c-1.9,2.2-4.9,2.2-6.8,0.1
			C-3.8,63.3-4.9,61.4-4.8,59.3z"/>
		<path class="st1" d="M-46.4,145.6c-0.1,3.6-1.6,4.9-4.7,4.7c-1.9-0.1-2.9-1-3.7-2.1c-1.6-2.2-0.9-4.6-0.4-6.8
			c0.1-0.7,1.8-1.6,3-1.9c1.7-0.4,3.4,0.3,4.1,1.5C-47.2,142.8-46.7,144.6-46.4,145.6z"/>
		<path class="st1" d="M-77.9,113.5c0.1-1.6,0.9-2.8,2.4-3.8c1.5-1,3.6-0.9,5,0.2c2.9,2.2,3.1,7.1,0.3,9.5c-1.4,1.2-4.5,0.8-5.5-0.9
			C-76.6,116.9-77.1,115.2-77.9,113.5z M-72.5,113.6c-0.2,0-0.3,0.1-0.5,0.1c0.2,0.5,0.3,1,0.5,1.6c0.2,0,0.4-0.1,0.6-0.1
			C-72.1,114.6-72.3,114.1-72.5,113.6z"/>
		<path class="st1" d="M0.9,89.4c-1.8-0.7-2.5-1.7-4.2-1.3c-1.5,0.3-2.7-0.5-3.4-1.8c-1.8-3.1-0.7-5.8,3-6.8c2-0.5,3.2-0.2,4.4,1.2
			c1.5,1.8,2,3.8,1.7,5.8C2.2,87.4,1.5,88.2,0.9,89.4z"/>
		<path class="st1" d="M-19.2,91.8c0.1,2-1,3.4-3.1,4.6c-1.4,0.7-2.5,0.7-3.7-0.3c-2.1-1.9-2.5-4.1-2.1-6.5c0.2-1,3.3-2.9,4.6-3
			c1.7-0.1,2.8,0.6,3.3,1.6C-19.7,89.4-19.5,90.6-19.2,91.8z"/>
		<path class="st1" d="M-64.5,193c0-0.3,0-0.4,0-0.5c0-2.9,0.1-3.1,2-3.3c2.9-0.3,5.5,0.6,6.2,2.5c0.5,1.4,0.9,3,0.9,4.4
			c0.1,1.9-1.9,2.7-4.1,1.8c-0.4-0.2-0.7-0.6-1.1-0.6C-64.3,197-65.1,195.2-64.5,193z"/>
		<path class="st1" d="M-66.4,144.9c-0.3,1.3-0.7,2.7-2.8,3c-1.3,0.2-3-1.1-3.8-2.8c-0.3-0.7-0.6-1.3-0.8-2
			c-0.3-1.5,0.5-2.8,1.9-3.8c1.2-0.8,4.2-0.6,5.6,0.3c1,0.7,2,1.5,2.6,2.4C-62.2,144.2-63.1,145.1-66.4,144.9z"/>
		<path class="st1" d="M-68,78.3c0,1.4-0.3,2.5-1.9,2.9c-1.7,0.4-2.9-0.2-3.8-1.3c-0.7-0.8-1.5-1.6-2-2.5c-0.7-1.1-1.2-2.3-0.2-3.5
			c0.4-0.4,0.6-1,0.7-1.5c0.1-0.9,0.6-1.7,1.8-1.6c0.9,0,2,0.4,2.7,0.9c0.7,0.4,1.2,1.1,1.4,1.8C-68.7,75.1-68.4,76.9-68,78.3z"/>
		<path class="st1" d="M1.3,192c1.8,2,1.8,4.2,1.8,6.4c0,0.8-0.9,1.8-1.7,2.4c-1.2,0.9-2.2,0.7-3.1-0.4c-1.6-2-2.3-4.2-2.4-6.5
			c-0.1-2.3,0.8-2.8,3.8-2.3C0.3,191.7,0.8,191.9,1.3,192z"/>
		<path class="st1" d="M-50.7,77.7c-0.5,0.5-1.2,1.6-2.3,2c-1.4,0.6-2.7-0.1-3.5-1.2c-1-1.3-3.7-2.4-0.9-4.2c0.1,0-0.2-0.4-0.3-0.6
			c-0.8-1-0.1-1.6,1-1.8c1.4-0.3,2.3-2.1,3.9-1c0.9,0.7,1.1,2,1.4,3.1C-51.1,75-51,76-50.7,77.7z"/>
		<path class="st1" d="M-50.8,99.3c-0.5,0.5-1.2,1.6-2.4,2.3c-1.1,0.6-3.6-0.3-4.4-1.5c-0.8-1.2-1.2-2.6-1.5-4
			c-0.3-1.1,0.9-1.6,2.2-1.7C-53.4,94-50.6,96-50.8,99.3z"/>
		<path class="st1" d="M-24.2,61.7c-0.2,1.3-0.2,2.2-0.5,3c-0.5,1.5-2.1,1.9-3.8,1.1c-1.7-0.8-2.7-2.1-2.5-3.6
			c0.2-1.4,0.6-2.8,1.4-4c0.9-1.5,3.5-1.3,4.4,0.2C-24.6,59.7-24.4,60.9-24.2,61.7z"/>
		<path class="st1" d="M-68.2,211.7c2.8-1.7,5.3-1.2,7.8-0.3c0.3,2-0.9,3.4-2.5,4.7c-1.3,1.1-2.6,0.8-3.5-0.6
			C-67,214.3-67.5,213-68.2,211.7z"/>
		<path class="st1" d="M-1.1,160.3c0,1.4-1.7,2.7-3.6,2.7c-1.5,0-2.5-1.1-2.2-2.8c0-0.1,0-0.2,0.1-0.3c0.4-1.7,1.6-2.8,3.1-2.7
			C-2.3,157.3-1.1,158.8-1.1,160.3z"/>
		<path class="st1" d="M-21.1,163.2c-0.4,0.5-1,1.5-1.4,1.4c-1.3-0.1-2.9-0.4-3.6-1.1c-0.7-0.7-0.7-2-0.4-2.9
			c0.2-0.6,1.4-1.2,2.2-1.3c0.6-0.1,1.6,0.6,2,1.1C-21.8,161.2-21.6,162.1-21.1,163.2z"/>
		<path d="M262.3,360.2c-0.1,2.3-0.4,2.5-2.7,1.7C259.5,360.1,260.8,360.2,262.3,360.2z"/>
		<path d="M465,90.2c-0.4,0.5-0.7,1.6-1.6,2.3c-0.8,0.6-2.1,1.3-3.2,1.3c-1.7,0-2.7-1.3-2.8-2.3c-0.5-3.1,1.1-5.8,3.9-8.1
			c0.8-0.7,1.9-0.3,2.2,0.5C464,85.7,464.4,87.7,465,90.2z"/>
		<path d="M464.4,118.4c-0.9,0.7-1.6,1.3-2.5,2c-1.3-0.1-2.6-0.2-4.2-0.3c-0.4-2.1,0.5-3.9,1.4-5.6c0.3-0.5,1.3-1.1,2-1.1
			c0.7,0,1.7,0.6,2,1.2C463.7,115.7,464,117,464.4,118.4z"/>
		<path d="M462.8,149.9c-1.8,0.8-3.4,1.6-5.2,2.2c-0.6,0.2-1.9,0.1-2.2-0.2c-0.5-0.5-0.6-1.3-0.4-1.9c0.3-0.8,1.3-1.5,1.7-2.3
			c0.7-1.2,1.8-1.7,3.6-1.5c1.7,0.2,1.9,1.1,2.1,2.1C462.6,148.8,462.6,149.1,462.8,149.9z"/>
		<path d="M470.8,167.4c-0.8,1.4-2.3,2-3.9,2.2c-0.6,0.1-1.7-0.3-1.9-0.7c-0.2-0.4,0.3-1.2,0.8-1.5
			C467.3,166.8,468.9,166.6,470.8,167.4z"/>
		<path d="M67.4,146.3c0-2.7,1-4,2.9-4.2c1.8-0.2,3.2,0.7,4,2.9c0.5,1.3,1,2.7,0.4,4.1c-0.9,2.4-3.4,3-5.6,1.3
			C67.7,149.1,67.4,147.6,67.4,146.3z"/>
		<path d="M62.7,145.3c-0.4,1.1-0.6,2-1.2,2.9c-0.9,1.4-2.9,1.4-4,0c-1.4-1.8-1.3-3.8-0.4-5.7c0.9-1.7,3.3-1.8,4.4-0.2
			C62.1,143.2,62.4,144.3,62.7,145.3z"/>
		<path class="st2" d="M125.6,159.6c0.4,3.1-1.1,6.1-3.4,8.8c-0.8,0.9-2.1,1.8-3.4,2.2c-5.3,1.7-13.3-0.7-16.2-4.8
			c-1.2-1.7-1.7-3.6-1.2-5.5c1.3-4.9,3.9-9,9-12.1c3.1-1.9,9.7-1.2,11.9,1.4C124.6,152.5,125.5,154.6,125.6,159.6z M122.6,158.3
			c0.1-1.9-0.4-4-2.2-5.7c-1.1-1.1-2.2-2.7-4.6-1.5c-0.3,0.2-0.9-0.2-1.4-0.2c-0.9,0-1.9,0-2.7,0.3c-2.8,1.2-4.5,3.4-5.6,5.8
			c-1.8,4.3-1.7,7.6,4.6,9.4c0.1,0,0.2,0.1,0.3,0.1c4.1,1.4,7.6,0.4,10-2.8C122.3,162.3,122.5,160.5,122.6,158.3z"/>
		<path d="M276.3,139.2c1,0.8,0.7,1.4,0.2,2.1c-2.1,2.8-4.2,5.6-6.2,8.4c-0.8,1.2-1.5,2.5-2.3,3.7c-0.3,0.6-0.5,1.4-1.6,1
			c-1.1-0.3-0.6-1.1-0.5-1.7C266.8,149.1,272.6,141.5,276.3,139.2z"/>
		<path d="M189.5,309.9c-0.6-0.6-1.3-1-1.5-1.6c-0.2-0.5-0.1-1.4,0.3-1.7c0.4-0.3,1.6-0.3,2,0c0.5,0.4,0.9,1.3,0.8,1.9
			C191,308.9,190.1,309.3,189.5,309.9z"/>
		<path d="M314,150.6c-0.5,1.3-0.8,2.5-1.5,3.6c-0.7,1.2-2.1,1.4-3.5,1.2c-1.4-0.2-2.8-0.7-2.9-2.1c-0.1-1.2-0.3-2.7,0.4-3.6
			c0.8-1.1,2.4-1.9,3.8-2.5c0.5-0.2,1.8,0.2,2.2,0.6C313.3,148.7,313.5,149.7,314,150.6z"/>
		<path d="M294.8,182.9c0.6-0.7,1-1.7,1.6-1.8c2.1-0.3,4.3-0.3,6.5-0.5c0.6,2.2,0.5,2.4-1.4,2.9C299.4,184,297.3,184.4,294.8,182.9z
			"/>
		<path d="M436.7,91.1c0,0.3,0.1-0.1,0-0.4c-0.6-1.2-0.6-2.2,1-3c1.3-0.7,5.8-0.6,6.8,0.1c0.4,0.3,0.9,0.8,0.9,1.1
			c-0.4,1.8-0.6,3.6-1.6,5.3c-0.8,1.5-2.6,1.8-4.4,1.4c-1.8-0.4-2.7-1.5-2.8-3C436.6,92.2,436.7,92,436.7,91.1z"/>
		<path d="M441,64.5c0.1,2-1.2,3.1-3.2,3.1c-0.5,0-1.1-0.2-1.5-0.5c-0.8-0.6-1-4.2-0.4-4.9c0.8-0.9,2-1.1,2.9-0.3
			C439.8,62.8,440.5,63.9,441,64.5z"/>
		<path d="M431.9,70.5c2.6,1,1.4,3.1,2.5,4.4c-2.9,1.2-4.3,1.2-5.2,0.2C427.9,73.6,429.1,71.6,431.9,70.5z"/>
		<path d="M434.9,123c0-1.7,1.1-2.6,3-2.6c1.3,0,2.6,1.2,2.6,2.4c0,1.1-1.7,2.1-3.4,2.1C435.6,124.8,434.9,124.3,434.9,123z"/>
		<path d="M134.2,597.4c-1.9,0.7-3.7,0.5-5.5-0.2c-2.9-1.1-3.7-3.2-2.5-6c0.8-1.9,1.6-3.8,2.4-5.7c0.2-0.4,0.3-0.8,0.6-1.1
			c0.5-0.6,1.5-0.4,1.6,0.4c0.1,0.8,0,1.7-0.2,2.6c-0.4,1.5-1,2.9-1.6,4.4c-0.7,2-0.2,2.9,1.9,3.2c0.6,0.1,1.2,0,1.8,0.1
			C134.5,595.2,134.5,595.3,134.2,597.4z"/>
		<path d="M142.4,569.9c2,0,3.3,1.3,3.3,3.5c0,2.4-1.9,4.5-4.3,4.4c-1.9-0.1-3.2-1.3-3.2-3.1C138.2,571.5,139.6,569.9,142.4,569.9z"
			/>
		<path d="M131.4,572.9c0,2.3-0.8,3.3-2.6,3.4c-1.9,0-3.9-1.8-3.9-3.8c0-1.8,1.7-3.7,3.4-3.7C129.9,568.7,131.4,570.7,131.4,572.9z"
			/>
		<path d="M112,638.6c-1.3,1.7-3.1,1.6-4.7,2c-1,0.3-2.1,0.3-3.1,0.3c-0.4,0-0.9-0.7-1.1-1.2c-0.1-0.2,0.4-0.9,0.6-0.9
			c2.4-0.3,4.8-0.6,7.2-0.8C111.3,637.9,111.6,638.3,112,638.6z"/>
		<path d="M101.6,648c-2.2,0.8-4.1,1.5-6.1,2.1c-0.8,0.2-1.5-0.7-1-1.5c0.9-1.4,2.5-1.4,3.9-1.8C99.5,646.4,100.5,646.7,101.6,648z"
			/>
		<path d="M115.2,649.2c-0.8,2.5-3.3,2.9-6.4,1.1c-0.2-0.9,0.1-1.7,1.1-1.7C111.7,648.7,113.4,649,115.2,649.2z"/>
		<path d="M403.1,546.6c-3.5,0.1-6.2-1.7-8.8-3.6c-0.5-0.3-0.8-1.1-0.9-1.8c-0.1-0.5,0.3-1.2,0.7-1.5c0.4-0.3,1.4-0.3,1.6,0
			c3,3.1,6.7,3.5,10.6,2.6c1.3-0.3,2.6-0.9,3.9-1.3c0.6-0.2,1.3-0.6,1.9-0.5c1.3,0.3,1.8,1.8,0.8,2.6c-1.3,1.2-2.7,2.5-4.6,2.7
			C406.6,546.2,404.9,546.4,403.1,546.6z"/>
		<path d="M395.2,549.8c0.1-1.9,1-2.3,2.3-1.9c1.4,0.3,2.7,0.8,4,1.1c3,0.7,6,0.8,9-0.2c2.1-0.6,3.2-0.2,3.5,1.1
			c0.2,1.1-0.6,1.8-2.6,2.4c-4.1,1.3-8.2,1.3-12.2-0.5C397.7,551.3,396.4,550.4,395.2,549.8z"/>
		<path d="M407.4,533.8c-0.3,1.2-0.4,2.2-0.8,3.2c-0.5,1.3-2.2,2.1-3.7,1.9c-1.5-0.2-2.2-1.2-2.3-2.5c-0.3-2.1-0.1-4.2,1.3-5.9
			c1.5-1.8,3.6-1.6,4.6,0.5C407,531.8,407.1,532.8,407.4,533.8z"/>
		<path d="M412.7,572.5c-0.5,1.1-1,1.7-2.4,1c-0.5-0.3-1.3-0.3-1.9-0.4c-1.5-0.1-2.9-0.2-4.4-0.1c-1.3,0.1-2.5,0.4-3.8,0.7
			c-0.8,0.2-1.6,0.5-2.4,0.8c-0.5-1.3-0.4-2.1,0.7-2.6c2.3-1.1,4.6-2,7.3-1.6c0.8,0.1,1.7,0,2.6-0.1
			C411.2,569.9,411.2,569.9,412.7,572.5z"/>
		<path d="M448.9,545.6c-0.3,0.9-0.8,2.3-1.5,3.6c-0.2,0.4-1.3,0.7-1.7,0.5c-0.4-0.2-0.8-1-0.8-1.6c-0.1-0.4,0.4-1,0.6-1.4
			c0.5-1.1,0.9-2.1-0.6-2.9c-0.3-0.1-0.4-1.1-0.3-1.3c0.4-0.4,1-0.7,1.6-0.6C447.7,541.9,448.9,543.5,448.9,545.6z"/>
		<path d="M428.5,562.6c1.3-3.5,3.8-5.2,6.1-7.1c0.2-0.2,0.9-0.1,1.1,0.1c0.2,0.2,0.2,0.9,0,1.1c-0.9,1.1-1.8,2.1-2.8,3.1
			c-0.7,0.7-1.3,1.5-2,2C430.4,562.2,429.6,562.3,428.5,562.6z"/>
		<path d="M440.9,578.3c-1.6,2-3,3.8-4.6,5.4c-0.5,0.6-1.4,0.8-2.2,1.3c-0.7-1.7,0.2-2.4,1-3.2C438.7,578.3,438.7,578.2,440.9,578.3
			z"/>
		<path d="M393.4,562.6c-0.2-0.5-0.7-1.2-0.6-1.4c1.1-2,2.3-3.9,3.5-5.8c0.1-0.2,0.7-0.3,0.9-0.1c0.3,0.2,0.8,0.8,0.7,1
			c-1.1,2-2.3,4-3.5,6C394.3,562.4,394,562.4,393.4,562.6z"/>
		<path d="M421.6,591c-0.6-2.2,0.1-4.3,0.9-6.4c0.3-0.8,1.6-0.7,1.6,0c0.1,1.6-0.1,3.2-0.4,4.8c-0.1,0.7-0.9,1.3-1.3,1.9
			C422.1,591.2,421.9,591.1,421.6,591z"/>
		<path d="M412.8,580c0.9,0.3,1.3,1.1,0.9,1.8c-1,1.7-1.3,4.2-3.8,4.8C409.4,583.8,410.4,581.7,412.8,580z"/>
		<path d="M433.9,571.8c-0.2-3.3,2.4-6.7,5.1-6.7c-0.4,2.6-2.7,4-3.8,6.1C435.1,571.5,434.4,571.6,433.9,571.8z"/>
		<path d="M400.4,565c-1.8-1.7-1.6-2.2,1.5-5.8c1.5,0.6,1.8,1.1,1.2,2.1C402.3,562.6,401.3,563.7,400.4,565z"/>
		<path d="M417.9,583.4c0.5,2.3-0.3,3.8-0.9,5.4c-0.2,0.4-1.1,0.5-1.7,0.7c-0.1-0.5-0.4-1.1-0.2-1.6c0.3-1.1,0.7-2.1,1.3-3.1
			C416.6,584.3,417.2,584,417.9,583.4z"/>
		<path d="M418.6,563.9c-0.9,1.6-1.3,2.7-2,3.7c-0.3,0.4-1.1,0.4-1.7,0.6c-0.2-0.5-0.6-1.2-0.4-1.6c0.6-1,1.3-2,2.1-2.9
			C416.8,563.5,417.7,563.8,418.6,563.9z"/>
		<path d="M420.7,572.8c0.5-1.1,0.9-2.1,1.4-3.1c0.1-0.2,0.8-0.4,1.1-0.2c0.3,0.1,0.7,0.7,0.6,1c-0.1,0.9-0.3,1.9-0.6,2.8
			c-0.2,0.7-0.7,1.4-1.5,1C421.4,574,421.2,573.4,420.7,572.8z"/>
		<path d="M411.7,561.3c0.1,0.3,0.7,0.9,0.5,1.2c-0.5,0.9-1.1,1.8-1.8,2.5c-0.2,0.2-1.1,0.2-1.4-0.1c-0.3-0.2-0.4-0.9-0.3-1.3
			C409.2,562.4,410.5,561.3,411.7,561.3z"/>
		<path d="M419.5,700.4c-0.8,0.3-1.5,0.5-2.3,0.8c-1.9,0.6-3.7,1.3-5.6,1.9c-0.4,0.1-0.9-0.2-1.4-0.3c0.2-0.5,0.2-1.3,0.6-1.5
			c2.8-1.1,5.6-1.7,8.6-1.5C419.4,700,419.5,700.2,419.5,700.4z"/>
		<path d="M413.2,713.9c0.2-0.6,0.2-1.4,0.5-1.5c2-0.4,4-0.6,6.2-0.1C418.3,714.2,417,714.5,413.2,713.9z"/>
		<path d="M399.4,708.2c0.4-0.8,0.5-1.5,0.9-1.9c1-0.8,2.8-0.6,4.3,0.1C403.8,708.3,403.2,708.5,399.4,708.2z"/>
		<path d="M461,540.6c-0.3,0.5-0.7,1.1-1,1.6c-0.5-0.4-1.3-0.7-1.4-1.2c-0.6-1.7-1-3.5-1.4-5.3c-0.3-1.1-0.6-2.2-0.8-3.3
			c-0.1-0.6-0.2-1.2,0-1.7c0.1-0.4,0.6-0.9,1-0.9c0.4,0,1.1,0.4,1.2,0.8C459.3,533.8,460.1,537.1,461,540.6z"/>
		<path d="M465.4,546.1c-0.9-3-2.6-5.8-1.7-9.1c0.1-0.4,0.1-1,0.3-1.2c0.4-0.4,1-0.7,1.5-0.7c0.3,0,0.8,0.7,0.8,1.1
			c-0.5,2.6,0.3,5,0.8,7.4C467.3,544.6,467.3,545.8,465.4,546.1z"/>
		<path d="M444.9,517.7c0.3,0.5,0.5,0.7,0.5,0.8c-1,1.8-2,3.7-3.2,5.5c-0.2,0.3-1.2,0.1-2.1,0.1
			C440.9,521.1,442.1,518.9,444.9,517.7z"/>
		<path d="M444.8,527.2c0.6-2.7,2.3-4.3,3.8-5.8c0.4-0.4,1.1-0.3,1.7-0.4c0.1,0.2,0.3,0.4,0.4,0.6c-1.2,1.8-2.4,3.7-3.8,5.4
			C446.7,527.3,445.8,527.1,444.8,527.2z"/>
		<path d="M364.7,690.9c-0.8-1.2-0.8-2,0.7-2.4c2.8-0.8,5.4-0.4,8,0.6c-0.2,1.6-1.3,1.8-2.3,1.8C369.1,690.9,367,690.9,364.7,690.9z
			"/>
		<path d="M372.1,679c-0.6,0.2-1.3,0.5-1.9,0.6c-1.8,0.2-3.6,0.4-5.4,0.4c-0.6,0-1.5-0.3-1.7-0.7c-0.4-0.8,0.2-1.5,1.1-1.7
			c2-0.5,4.1-0.9,6.1-0.3c0.7,0.2,1.3,0.7,1.9,1.1C372.2,678.5,372.2,678.7,372.1,679z"/>
		<path d="M365.2,695.1c2.8-2,5.9-0.9,9-0.6c0,1.4-0.8,1.9-1.8,2c-2,0.2-4,0.3-6,0.3C365.5,696.8,365.1,696.1,365.2,695.1z"/>
		<path d="M372.5,684.1c-2.2,0.3-4.1,0.5-6,0.7c-0.7,0.1-1.4-0.1-1.6-1c-0.1-1,0.4-1.5,1.3-1.6c1.3-0.1,2.6-0.2,3.9-0.2
			C371.4,682.1,372.2,682.6,372.5,684.1z"/>
		<path d="M677.7,606.3c0,2.5-1.8,5.1-3.9,5.5c-1.9,0.4-3.2-0.5-3.2-2.4c0-1.6,0.3-3.3,0.8-4.9c0.4-1.5,2.5-2.4,3.8-2.1
			C676.8,602.9,677.7,604.3,677.7,606.3z"/>
		<path d="M678.7,630c-0.7,0.9-0.9,1.4-1.3,1.7c-2.4,1.6-4.7,3.2-7.1,4.8c-0.4,0.2-0.7,0.5-1.1,0.6c-0.4,0.1-1-0.1-1.1-0.3
			c-0.2-0.4-0.1-1-0.1-1.4c0-0.2,0.3-0.4,0.5-0.5c2.6-1.5,5.2-3.1,7.9-4.5C676.8,629.9,677.5,630.1,678.7,630z"/>
		<path d="M662.7,646.6c-0.3,0.4-0.5,0.8-0.8,1.1c-2.1,1.5-4.3,3-6.4,4.5c-0.7,0.5-1.2,0.7-1.8-0.1c0.9-3.6,4.4-4.1,6.8-6
			C661,645.7,662,645.6,662.7,646.6z"/>
		<path d="M660.8,658.2c0.9-0.9,1.4-1.7,2.1-2.2c1.8-1.2,4.4-1.7,6.4-1.3c-0.2,0.5-0.3,1.3-0.7,1.5c-2,0.9-4,1.6-6.1,2.3
			C662.2,658.7,661.8,658.4,660.8,658.2z"/>
		<path d="M667.3,650.9c-0.4,0.5-0.7,1-1.1,1.1c-1.6,0.6-3.2,1.2-4.8,1.7c-0.4,0.1-0.9,0.2-1.3,0.2c-0.8-0.1-1.1-0.9-0.6-1.6
			c0.8-1.1,5.4-2.7,6.7-2.3C666.6,650.2,666.9,650.5,667.3,650.9z"/>
		<path d="M668.7,659.1c0,0.5,0,0.8-0.1,0.8c-1.7,1-3.4,2.1-5.1,3c-0.7,0.4-1.6,0.7-2-0.3c-0.4-0.9,0.2-1.5,1-1.9
			c1.4-0.6,2.9-1.3,4.4-1.8C667.4,658.8,668.1,659.1,668.7,659.1z"/>
		<path d="M660.3,659.5c-2.2,2.5-4.7,3.2-6.9,4.5c-0.7-1.1-0.5-1.8,0.2-2.3C655.4,660.3,657.1,658.8,660.3,659.5z"/>
		<path d="M655.4,643.8c-1.2-1.1-0.8-1.8-0.1-2.3c1.7-1.2,3.2-3,6.1-2.5C660,641.9,657.2,642.1,655.4,643.8z"/>
		<path d="M653,669.6c-0.8-1.2-0.9-1.9,0.1-2.4c1.4-0.6,2.8-1.2,4.3-1.7c0.4-0.1,1.3,0.1,1.5,0.5c0.5,0.7-0.1,1.3-0.8,1.6
			C656.4,668.3,654.8,668.9,653,669.6z"/>
		<path d="M678.2,634.2c-0.8,3.1-4,4.6-7,3.5c0-0.2,0-0.4,0-0.5c0.2-0.3,0.4-0.6,0.7-0.7C673.9,635.8,675.9,635.1,678.2,634.2z"/>
		<path d="M648.8,657.9c0.4-2.3,2.1-2.7,3.5-3.3c0.5-0.2,1.3,0.1,2,0.6C652.7,656.4,651.3,658,648.8,657.9z"/>
		<path d="M614.5,616c0.2,1,0.6,1.9,0.4,2.6c-0.7,2.7,0.2,5.4,0.4,8.1c0.2,2.1,1,4.2,1.5,6.4c0.3,1.2,0.3,1.2-0.4,2.7
			c-1.5-0.3-1.8-1.7-2.1-2.7c-1.2-4.5-2.3-9.1-1.8-13.9C612.6,617.9,612.6,616.7,614.5,616z"/>
		<path d="M613.4,603.4c0.4-1.4,0.9-3.2,1.6-5c1.1-2.7,2.2-5.5,3.4-8.1c0.3-0.7,1-1.3,1.7-1.9c0.2-0.2,0.7-0.1,0.9,0
			c0.2,0.2,0.4,0.6,0.3,0.9c-0.1,0.5-0.4,1-0.6,1.4c-2.3,4.2-3.7,8.8-4.7,13.5c-0.1,0.3,0,0.6-0.2,0.7c-0.4,0.4-0.8,0.7-1.3,1.1
			c-0.3-0.4-0.7-0.8-1-1.3C613.5,604.5,613.5,604.1,613.4,603.4z"/>
		<path d="M646.7,579c0,2.2,0.1,3.7,0,5.3c-0.1,3.5-0.3,6.9-0.5,10.4c-0.1,1.1-0.4,2.2-0.7,3.3c-0.2,0.8-0.7,1.5-1.7,1.2
			c-0.8-0.3-0.6-1-0.5-1.8c0.5-4.5,0.9-9,1.4-13.5c0.1-1.2,0.2-2.4,0.4-3.6C645.1,579.9,645.8,579.7,646.7,579z"/>
		<path d="M626,589.3c-0.1,0.6,0,1.3-0.3,1.9c-2,4.9-4.1,9.7-6.1,14.7c-1.1-0.1-1.4-1-1.2-2c0.4-1.4,0.8-2.9,1.3-4.2
			c1.3-3.1,2.8-6.2,4.3-9.2c0.3-0.6,0.8-1,1.2-1.5C625.5,589.1,625.7,589.2,626,589.3z"/>
		<path d="M639.6,579.2c0.8,0.7,1.5,1,1.5,1.4c0.1,0.8-0.1,1.7-0.2,2.6c-0.3,2.1-0.7,4.3-1.1,6.4c-0.4,2.1-0.7,4.1-1.1,6.2
			c-0.1,0.4-0.7,1.1-1.1,1.1c-0.9,0-1-0.7-0.9-1.5c0.4-1.9,0.8-3.7,1.1-5.6C638.4,586.4,639,583.2,639.6,579.2z"/>
		<path d="M622.4,632.1c-1.4,0.4-1.7-0.2-2-1.1c-1.2-4.4-1.8-8.8-1.2-13.4c0.1-0.4,0.1-0.9,0.3-1.2c0.1-0.2,0.6-0.5,0.8-0.4
			c0.3,0,0.6,0.3,0.8,0.6c0.2,0.3,0.2,0.7,0.1,1c-0.9,4,0.1,7.9,0.8,11.9C622.2,630.3,622.3,631.2,622.4,632.1z"/>
		<path d="M635.2,583.1c-0.1,1.3-0.1,2.5-0.4,3.6c-1,3.4-2.1,6.8-3.3,10.2c-0.1,0.4-0.3,0.8-0.6,1.2c-0.2,0.2-0.7,0.5-0.9,0.4
			c-0.3-0.2-0.8-0.6-0.7-0.9c0.1-0.8,0.3-1.7,0.6-2.5c0.7-2.2,1.6-4.4,2.3-6.6c0.5-1.5,0.8-3,1.1-4.5
			C633.6,582.9,634,582.6,635.2,583.1z"/>
		<path d="M652.3,596.1c-1.2,0.3-1.9,0.1-2-0.9c-0.1-0.8-0.2-1.6-0.1-2.3c0.4-3.8,0.8-7.6,1.3-11.4c1-0.3,1.4,0.3,1.5,1
			c0.1,1,0.1,2.1,0,3.1c-0.1,3-0.3,6.1-0.5,9.1C652.4,595.2,652.4,595.6,652.3,596.1z"/>
		<path d="M666.4,582.2c-0.4-0.7-0.8-1.1-0.7-1.3c0.3-0.4,0.7-0.8,1.1-1.1c0.2,0.3,0.7,0.7,0.6,0.9
			C667.3,581.1,666.9,581.5,666.4,582.2z"/>
		<path class="st2" d="M710.1,644.5c-1,1.4-3.8,2.7-5.1,2.3c-0.9-0.3-1-1.2-0.4-1.6c0.9-0.6,1.9-1,3-1.4
			C708.6,643.5,709.5,643.4,710.1,644.5z"/>
		<path class="st2" d="M703.9,653.7c-0.8,1.7-3.6,3.1-5,2.5c-0.3-0.1-0.7-0.5-0.6-0.7c0.1-0.5,0.3-1.1,0.6-1.3
			C700.4,653.7,702,653,703.9,653.7z"/>
		<path class="st2" d="M722.1,646.7c-1.4,0.3-2.8,0.8-4.2,0.9c-0.4,0.1-1.2-0.5-1.2-0.9c-0.1-0.4,0.4-1.2,0.8-1.3c1-0.3,2-0.5,3-0.5
			c0.6,0,1.1,0.7,1.7,1C722.2,646.3,722.2,646.5,722.1,646.7z"/>
		<path class="st2" d="M724.1,650.8c-0.1,1.4-1.2,1.4-2.1,1.5c-0.9,0.1-1.9,0.3-2.8,0.1c-0.7-0.2-0.6-1.4,0.3-1.8
			C721.1,649.9,722.7,649.9,724.1,650.8z"/>
		<path class="st5" d="M204.4,490c1.1-1.2,2.1-2.2,3-3.4c2.7-3.6,5.2-7.2,7.9-10.8c0.6-0.8,1.1-1.6,1.8-2.2c0.4-0.4,1.2-0.6,1.6-0.4
			c0.4,0.2,0.7,1,0.7,1.5c0,1.8-0.5,3.4-1.7,4.8c-3.3,4.2-6.5,8.4-9.8,12.6c-1,1.3-3.5,2-5.2,1.4c-2.6-1-5.2-2-7.7-3.1
			c-1.1-0.5-2.2-1.2-3-2c-0.4-0.4-0.7-1.5-0.5-2c0.3-0.5,1.3-1,1.9-0.8c1.7,0.4,3.4,1,5,1.6C200.3,488,202.2,488.9,204.4,490z"/>
		<path d="M207.5,513.1c0,1.6,0.1,2.9,0,4.1c0,0.4-0.7,1.1-0.8,1.1c-0.5-0.1-1.2-0.6-1.3-0.9c-0.4-2.8-0.7-5.7-1-8.5
			c-0.1-0.9,0.4-1.5,1.3-1.6c1-0.1,1.3,0.6,1.3,1.5C207.2,510.2,207.4,511.8,207.5,513.1z"/>
		<path d="M205.6,479.8c-1.9-1.5-3.1-5.2-2.3-7c0.2-0.4,0.7-0.8,1.1-0.8c0.5,0,1.4,0.4,1.5,0.7c0.4,1.8,0.7,3.7,0.8,5.6
			C206.7,478.8,206.1,479.3,205.6,479.8z"/>
		<path d="M222.4,493.2c-0.8-0.2-1.4-0.2-1.8-0.5c-0.3-0.3-0.5-0.9-0.5-1.3c0-0.3,0.4-0.9,0.7-0.9c1.2-0.2,2.4-0.4,3.6-0.5
			c0.3,0,0.8,0.3,1,0.6c0.1,0.3,0,1-0.2,1.2C224.2,492.4,223.2,492.8,222.4,493.2z"/>
		<path d="M190.7,494.3c-1.4,1.8-3.1,1.9-4.8,1.9c-0.4,0-1-0.6-1-0.9c0-0.5,0.3-1.5,0.6-1.5C187.1,493.4,188.8,492.9,190.7,494.3z"
			/>
		<path d="M256.7,585.1c-3.1,0.8-6.4,0.5-9.5,0.2c-7.3-0.6-14.6-1.7-21.8-2.4c-1.9-0.2-3.8,0-5.7,0c-1.9-0.1-3.8-0.3-5.7-0.5
			c-0.5-0.1-1-0.3-1.4-0.6c-0.3-0.3-0.6-0.9-0.5-1.3c0.1-0.3,0.8-0.8,1.1-0.7c4.5,1.3,9-0.4,13.5,0.2c6.6,0.9,13.3,1.5,20,2
			c2.5,0.2,5.1,0.1,7.6,0C257,581.7,257.4,582.2,256.7,585.1z"/>
		<path d="M252.3,594.2c0.4,1.5-0.5,1.8-1.3,2c-3.4,1-6.8,1.5-10.3,1.1c-0.4,0-1.1-0.7-1.1-1c0-0.4,0.5-1,1-1.2
			c0.5-0.3,1.2-0.3,1.8-0.3C245.6,594.6,249,594.4,252.3,594.2z"/>
		<path d="M255.1,576c0,1.7-0.8,2.9-2.2,3c-1.7,0.1-4-2.3-4-4.2c0-1.1,1.4-2.1,2.9-2.1C253.6,572.8,255,574.2,255.1,576z"/>
		<path d="M232.1,597c-3.3,1.3-6.6,1.3-10,0.5c-0.7-0.2-1.5-0.5-1.1-1.4c0.2-0.5,1-1,1.5-1c1-0.1,2.1,0.2,3.1,0.3
			c1.6,0.1,3.3,0.3,4.9,0.2C231.6,595.5,231.9,596,232.1,597z"/>
		<path d="M230.7,589c2.7-0.2,5.5-1.5,7.7,1.6c-2.3,1.4-4.7,1-6.9,1C230.2,591.5,230.3,590.3,230.7,589z"/>
		<path d="M223.5,591.5c-0.5,0.2-0.9,0.6-1.4,0.6c-1.8,0-3.7,0-5.5-0.1c-0.8-0.1-1.6-0.5-1.6-1.4c0-1.1,1-1.1,1.8-1.1
			c1.6,0,3.1,0.1,4.7,0.2C222.7,589.7,223.4,590.2,223.5,591.5z"/>
		<path d="M221.3,571.6c0.3,1.9-0.1,3.4-1.8,4.1c-1,0.4-1.9,0-2.5-0.9c-0.6-0.7-0.6-2.7,0.1-3.2
			C218.4,570.7,219.8,570.7,221.3,571.6z"/>
		<path d="M254.2,588.9c0.3,1.9-0.7,2.4-1.8,2.7c-2,0.6-3.1,0.2-4.4-1.6C250,588.5,252.2,589.8,254.2,588.9z"/>
		<path d="M344.7,549.9c-4-0.4-7.8-0.8-11.6-1.3c-0.9-0.1-1.9-0.4-2.7-0.8c-0.4-0.2-0.7-0.9-0.7-1.4c0-0.2,0.8-0.7,1.2-0.7
			c1.8,0.1,3.6,0.4,5.5,0.5c4.1,0.2,8.2,0.4,12.2,0.5c1,0,1.8,0.3,1.9,1.3c0.2,1.1-0.8,1.3-1.5,1.4
			C347.5,549.7,346,549.8,344.7,549.9z"/>
		<path d="M327.3,532.4c-0.5-1.6,0.3-2.2,1.3-2.4c4.9-0.7,9.8-1.9,14.8-1.1c0.7,0.1,1.4,0.3,2,0.5c1.1,0.4,1.3,0.6,2,2.5
			c-0.9,0.2-1.9,0.6-2.7,0.4c-4.9-1.1-9.7-0.4-14.5,0.1C329.2,532.5,328.2,532.4,327.3,532.4z"/>
		<path d="M328.4,538.6c0.5-0.4,0.9-0.9,1.3-0.9c3.4-0.2,6.8-0.5,10.2-0.5c3,0,5.9,0.3,8.9,0.4c0.9,0,1.5,0.3,1.4,1.4
			c-2,1.8-4.4,1.5-6.7,1.2c-3.2-0.4-6.4-0.6-9.6,0C332,540.6,330,540.8,328.4,538.6z"/>
		<path d="M334.5,558.7c0.7-0.3,1.2-0.9,1.7-0.9c2-0.1,4,0.1,6,0c1.5,0,2.3,0.6,2.3,2.2C341.6,561.3,336.9,560.8,334.5,558.7z"/>
		<path d="M396.8,461.1c-0.4-0.4-1.1-0.8-1.3-1.3c-0.2-0.8,0.2-1.5,1.2-1.7c0.9-0.2,1.9-0.4,2.8-0.4c0.6,0,1.4,0.2,1.9,0.5
			c1,0.6,0.8,1.6-0.2,1.9C400,460.5,398.6,460.7,396.8,461.1z"/>
		<path d="M399.2,450.4c-0.8,0.4-1.3,0.8-2,1c-0.6,0.2-1.2,0.1-1.8,0.1c-1.3,0.1-2.3-0.4-2.1-1.2c0.2-1,0.9-1.7,2-1.7
			C396.6,448.7,398,448.6,399.2,450.4z"/>
		<path d="M397,455.2c-1,0.2-1.6-0.2-1.7-1.2c-0.1-1,0.7-1.7,1.9-1.6c1.1,0,2.2,0.1,2.4,1.5C399.8,454.8,398.9,455.2,397,455.2z"/>
		<path d="M333.7,587.6c-0.2,1-0.5,2-0.9,3.6c-1.4-1.8-2.7-1.9-4.2-1.3c-1,0.4-2.3,0.7-2.8-0.5c-0.6-1.4,0.9-1.6,1.8-2
			C329.6,586.5,331.5,586.2,333.7,587.6z"/>
		<path d="M340.3,591.8c-2.7,1.3-3,1.3-4.4-0.2c-0.6-0.7-0.5-1,0.8-3.4C339.6,587.9,339.6,587.9,340.3,591.8z"/>
		<path d="M333.6,596.7c-2,0.2-4-1.3-5.4,1.4c-0.2-0.1-0.3-0.3-0.5-0.4c-0.1-0.7-0.5-1.6-0.3-2c0.5-0.7,1.3-1.4,2.2-1.6
			c1-0.2,2.1-0.1,3.1,0.1C334.2,594.4,334.3,594.8,333.6,596.7z"/>
		<path d="M363.7,589.4c1-0.1,1.7-0.3,2.4-0.2c1.6,0.1,3.1,0.3,4.6,0.5c1.1,0.1,1.7,0.6,1.5,1.9c-0.2,1.2-0.4,2.2-1.7,1.9
			c-2-0.5-3.9-1.2-5.8-2.1C364.2,591.2,364.1,590.3,363.7,589.4z"/>
		<path d="M371.2,585.3c-0.6,0.9-0.8,1.8-1.4,2c-2.4,0.9-4.7,0.6-6.8-0.9c-0.4-0.3-0.6-1.1-0.5-1.5c0.2-0.4,1-0.7,1.4-0.7
			C366.2,584.5,368.4,584.9,371.2,585.3z"/>
		<path d="M362.3,597.8c0.5,0.1,1.1,0.2,1.6,0.3c3.2,1,3.3,1.1,3.8,4.4c-3,1.4-4-1.5-5.8-2.6C361,599.5,361.3,598.6,362.3,597.8z"/>
		<path d="M314.6,459.9c-1.3,0.4-2.3,0.9-3.3,0.9c-2,0-3.9-0.3-5.9-0.6c-0.5-0.1-1.1-0.6-1.4-1.1c-0.4-0.7-0.1-1.6,0.8-1.5
			c3,0.3,6,0.8,9,1.3C313.9,458.8,314.1,459.3,314.6,459.9z"/>
		<path d="M313,453.5c-0.7,0.7-1.1,1.5-1.5,1.5c-2.3,0.1-4.7,0.7-6.9-0.5c-0.5-0.2-1-0.8-1-1.3c0-0.7,0.7-0.8,1.4-0.7
			c1.8,0.1,3.6,0,5.4,0.1C311.2,452.8,311.9,453.2,313,453.5z"/>
		<path d="M312.7,466.8c-2.5,0.8-5,1-7.4,0.2c-0.5-0.2-0.8-1-1.2-1.5c0.6-0.3,1.1-0.7,1.7-0.7c1.4-0.1,2.9,0,4.4,0
			C311.5,464.6,312.2,465.1,312.7,466.8z"/>
		<path class="st2" d="M309.4,537.6c-1.4,1.1-3,1.4-4.5,1.5c-1.5,0.1-3,0.1-4.5,0.1c-1.1,0.1-1.5-0.6-1.7-1.9c1-0.2,1.9-0.5,2.9-0.6
			c1.9-0.2,3.8-0.3,5.7-0.4C308.3,536.2,309,536.4,309.4,537.6z"/>
		<path class="st2" d="M310,542.7c-0.4,0.4-0.6,0.9-0.9,1c-2.5,0.5-5.1,0.9-7.6,1.2c-0.3,0-0.9-0.2-1.1-0.5
			c-0.5-0.6-0.2-1.3,0.5-1.4c2.7-0.4,5.5-0.6,8.2-0.8C309.3,542.1,309.6,542.4,310,542.7z"/>
		<path class="st2" d="M300.1,549.5c2.3,0,4.3,0.1,6.4,0.1c0.4,0,0.9,0.1,1.2,0.3c0.3,0.2,0.6,0.7,0.6,1c0,0.3-0.5,0.8-0.8,0.8
			c-1.8,0.1-3.6,0.2-5.4,0.2C300.6,551.9,299.9,551,300.1,549.5z"/>
		<path class="st2" d="M329.4,502.4c0.7-0.4,1.3-0.9,2.1-1c2.6-0.4,5.2-0.6,7.8-0.8c0.5,0,1,0.3,1.6,0.5c-0.3,0.5-0.6,1.5-0.9,1.6
			c-2.9,0.5-5.8,0.9-8.7,1.2c-0.5,0.1-1-0.5-1.6-0.7C329.5,502.9,329.5,502.7,329.4,502.4z"/>
		<path class="st2" d="M338.9,507.7c-2,0.4-3.7,0.9-5.5,1.1c-0.8,0.1-1.7-0.2-2.5-0.6c-0.6-0.3-0.6-1.3,0-1.4
			c2.4-0.4,4.7-1.1,7.1-0.1C338.4,506.8,338.5,507.2,338.9,507.7z"/>
		<path class="st2" d="M362.4,501.9c0.8-0.9,1.5-1.7,2.3-2.6c1.1,0.6,2.1,1.2,1.6,2.4c-0.3,0.7-0.8,1.8-1.4,1.9
			C363.9,504,363.1,503.1,362.4,501.9z"/>
		<path d="M221.7,544.2c-2,0.2-3.6,0.3-5.1,0.6c-1.6,0.3-3.1,0-4.4-0.9c-0.1-1.3,0.6-1.6,1.6-1.7c1.4-0.1,2.8-0.5,4.2-0.4
			c1.1,0,2.2,0.5,3.2,0.9C221.4,543,221.5,543.7,221.7,544.2z"/>
		<path d="M211.3,538.7c1.3-2.2,3.3-0.9,4.9-1.3c1.2-0.3,1.4,0.1,2.1,1.8C216,540,213.7,540.6,211.3,538.7z"/>
		<path d="M212.3,620.9c0.5-1.3,1.2-1.2,2.1-1.1c1.3,0.2,2.7,0.3,4,0.6c0.6,0.1,1.4,0.5,1.6,0.9c0.3,0.9-0.6,1-1.2,1.3
			C216.2,623.6,214.2,622.6,212.3,620.9z"/>
		<path d="M213.9,625.4c1.9-1,4.8-0.6,6.4,0.7C218.4,628.1,216.3,627.9,213.9,625.4z"/>
		<path d="M220.3,632.7c-1.1,0-2,0.1-2.8-0.1c-0.4-0.1-0.7-0.8-1.1-1.2c0.4-0.3,0.7-0.8,1.1-0.9
			C218.7,630.6,219.9,630.8,220.3,632.7z"/>
		<path d="M575.8,199.3c-0.9,5.9,1.2,7.6,6.3,6.7c2.6-0.5,5.3-1,7.7-2.2c0.5-1.4,0.8-2.8,1.4-3.9c1.5-2.8,3.9-4.9,6.1-7.1
			c0.5-2-0.3-3.7-1.8-5.1c-0.7-0.6-1.4-1.3-2.2-1.9c0.9-1.7,1.6-3.2,2.3-4.7c0.5-1.1,0.9-2.3,1.3-3.4c0.8-2.5-0.1-4.6-1.8-6.4
			c-1.3-1.5-1.3-1.6,0.4-2.8c0,0,0.1-0.1,0.1-0.1c-2.6,0.4-5.3,0.6-7.9,0c-3.4-0.9-6-3.9-4.6-7.5c1.7-4.3,6.9-4.4,11.6-3.8
			c1.7-3.3,1.4-5.7-1.2-8.8c-0.1-0.1-0.1-0.1-0.2-0.2c-3.3-4-3.4-4.1-1-8.7c1.1-2.2,2.4-4.5,4.4-6.1c0.8-0.7,1.5-1.1,2.6-0.7
			c3.7,1.3,7.2,0.5,10.7-0.9c0.6-0.2,1.1-0.8,1.5-1.3c0.7-1.1,1.2-2.3,1.8-3.5c1.6-2.8,4-3.4,6.9-2.1c1.3,0.6,2.6,1,4.1,1.5
			c0.2-0.2,0.5-0.3,0.7-0.4c2.2-0.8,4.3-1.6,6.3-2.4c0.3-0.4,0.7-0.8,1-1.2c3-3.3,4.6-11.1,0.3-14.9c-0.9-0.8-1.3-1.9-1.2-3.3
			c0.1-1.6-0.2-3.3-0.4-5c-0.5-3.6-2.4-6.3-5.9-7.7c-0.9-0.4-1.9-1.1-2.3-1.9c-1.3-2.7-3.3-4.7-5.8-6.2c-5.2-3.2-11.2-4.4-16.2,0.2
			c-0.9,0.9-1.8,1-3.1,0.9c-3.3-0.3-6.7-0.3-9.7,1.4c-2,1.2-4,2.6-5.8,4c-3.8,3-6.2,7.1-8.4,11.3c-0.7,1.4-1.7,2.2-3.4,2.5
			c-5.3,1.1-9.2,4.3-11.8,8.9c-2.2,3.8-3,8-2.7,12.4c0.1,1.8-0.4,3.2-1.8,4.4c-0.4,0.3-0.7,0.8-1.1,1.1c-4.1,3.6-4.9,8.3-4,13.4
			c1,5.7,3.7,10.7,7.3,15.2c1.6,1.9,1.9,3.4,0.5,5.7c-1.9,3-2,6.3,0,9.6c1.8,2.9,4,5,6.8,6.8c1.6,1,3.3,1.9,4.2,3.7
			c-0.4,1-0.9,1.9-1.2,2.8c-0.9,2.8-0.4,4.6,2,6.4c1.2,0.9,2.5,1.5,3.8,2.3c1.2,0.7,2.4,1.4,3.5,2
			C575.8,198.8,575.8,199.1,575.8,199.3z"/>
		<path d="M542.7,103.2c0.3-2.4,0.8-4.5,0.8-6.7c-0.1-9.4,0.1-18.9-0.8-28.3c-0.4-4.2-0.7-8.4-1.4-12.5c-0.5-3.2-0.9-3.5-4.1-3.6
			c-2.8-0.1-5.6-0.1-8.3,0.2c-7,0.8-14,1.8-21,2.8c-2.2,0.3-4.5,0.5-6.7,0.7c-0.2,1-0.5,2-0.4,2.9c0.3,5.7,0,11.5,0.6,17.2
			c0.9,7.4,1.4,15-0.1,22.4c-0.3,1.6-0.6,3.2,0,4.9c6.9-0.2,13.7-0.6,20.5-0.6C528.7,102.7,535.5,103,542.7,103.2z"/>
		<path class="st2" d="M541.5,227.2c-2.1,1-3.3,0.1-4.4-0.8c-5.2-4.3-10.8-8.3-14.8-13.9c-1.1-1.6-2.4-3-3.7-4.4
			c-0.6-0.7-0.9-1.4-0.2-2.1c0.8-0.8,1.6-0.6,2.3,0.2c1.8,2.1,3.6,4.3,5.5,6.3c2.3,2.4,4.8,4.8,7.3,7.1c1.9,1.8,4.1,3.3,6,5
			C540.3,225.3,540.7,226.2,541.5,227.2z"/>
		<path class="st2" d="M517.3,226.9c0.7-2.2,1.1-2.4,2.6-1.3c1.5,1.1,2.9,2.5,4.4,3.7c2.8,2.1,5.6,4,8.5,5.9
			c0.9,0.6,1.8,1.1,1.5,2.5c-1.1,0.8-2.3,0.6-3.4-0.1c-2.4-1.6-4.9-3.2-7.3-5C521.5,230.9,519.5,228.9,517.3,226.9z"/>
		<g>
			<path class="st2" d="M794.7,244.2c0.8-0.2,1.7-0.5,2.4-1c2.1-1.4,4.1-2.9,6.2-4.3c3.9-2.7,8-5,12.5-6.4c2.2-0.7,4.4-1.4,6.4-2.4
				c-0.1-1-0.2-1.9-0.2-2.9c-0.7,0.3-1.4,0.6-2.1,0.9c-5.2,1.9-10.5,3.5-15.2,6.4c-3.7,2.3-7.2,4.8-10.9,7.2
				c-0.1,0.1-0.4,0.2-0.4,0.3c-0.1,0.6-0.4,1.3-0.3,1.9C793.2,244.1,794.2,244.3,794.7,244.2z"/>
			<path class="st2" d="M782.5,234.9c-0.4-1.3,0.2-2.2,1.2-2.9c3.4-2.3,6.8-4.7,10.3-6.8c4-2.4,7.9-4.7,11.6-7.7
				c2.4-2,5.2-3.5,7.8-5.2c0.7-0.5,1.6-0.8,2.1,0c0.4,0.6,0.4,1.5,0.3,2.2c-0.1,0.9-0.7,1.2-1.7,1.2c-0.7,0-1.6,0.1-2.1,0.6
				c-6.1,5.2-12.6,9.6-19.6,13.4c-2.4,1.3-4.5,3-6.7,4.6C784.6,235.2,783.6,235.5,782.5,234.9z"/>
			<path class="st2" d="M773.8,233c-1.8,0-2.4-1.2-1.5-2.5c1.2-1.6,2.5-3.2,3.9-4.6c2.6-2.6,5.5-5.1,8.1-7.8c1.8-1.9,3.4-4,5.1-5.9
				c0.8-1,1.8-1.9,2.8-2.6c0.4-0.3,1.3,0,1.8,0.4c0.7,0.5,0.5,1.2,0,1.8c-3.5,4-6.6,8.3-10.8,11.7c-2.8,2.2-5.4,4.7-7.4,7.7
				C775.1,232,774.2,232.6,773.8,233z"/>
			<path class="st2" d="M799.6,256.8c-0.5-0.4-1.1-0.7-1.2-1.1c-0.1-0.5,0.3-1.3,0.7-1.5c4.9-2.2,9.3-5.6,14.7-6.7
				c0.4-0.1,0.9-0.3,1.3-0.2c0.5,0.1,1,0.5,1.5,0.8c-0.3,0.5-0.5,1-0.9,1.3c-0.4,0.3-0.9,0.5-1.4,0.6c-3.7,0.8-6.8,3-10.1,4.8
				C802.7,255.6,801.2,256.1,799.6,256.8z"/>
			<path class="st2" d="M768,207.3c-0.3,1.1-0.4,1.8-0.7,2.5c-2.4,4.9-4,10-5.2,15.3c-0.1,0.4,0,1-0.3,1.3c-0.4,0.5-1.1,1.1-1.6,1
				c-0.9-0.1-0.8-0.9-0.7-1.7c0.4-1.9,0.7-3.8,1.3-5.6c1.2-3.5,2.5-7,3.9-10.5C765.2,208.4,766,207.6,768,207.3z"/>
			<path class="st2" d="M747.9,229.5c-1.6,0.7-2.4,0.1-2.6-0.9c-0.3-1.4-0.7-3-0.5-4.4c0.5-3.2,1.4-6.3,2.2-9.4
				c0.1-0.3,0.2-0.7,0.4-1c0.4-0.7,0.9-1.5,1.8-1c0.4,0.2,0.5,1.2,0.4,1.8c-0.3,1.3-0.9,2.5-1.3,3.7
				C747.4,222,746.4,225.6,747.9,229.5z"/>
		</g>
		<path class="st2" d="M521.2,245.5c1.2,0.4,2.4,0.8,3.6,1.1c1.3,0.3,2.6,0.2,3.9,0.5c1.2,0.2,2.6-0.5,3.7,0.8
			c-1.2,1.4-2.7,1.3-4.1,1.6c-2.2,0.4-4.3,0-6.4-0.8C520.3,247.9,520.3,247.6,521.2,245.5z"/>
		<path d="M764.2,278.5c-0.1-2.5,0.9-4.6,2.7-6.3c0.5-0.4,1.2-0.8,1.8-0.8c4.2,0,6.7,4.4,4.6,8c-0.8,1.4-1.8,2.7-3.3,3.2
			C766.7,283.9,764.2,282.2,764.2,278.5z"/>
		<path d="M757.4,277.6c-0.3,1.1-0.5,2.2-0.9,3.2c-1.1,2.3-4.2,2.6-5.5,0.3c-0.6-1.1-0.7-2.4-1-3.7c-0.1-0.6,0.1-1.2,0.1-1.8
			c-0.1-1.8,0.3-2.4,1.9-2.8C754.8,272.3,757.5,273.6,757.4,277.6z M753.4,279.4c0.3,0,0.5,0,0.8,0c0.2-0.9,0.4-1.7,0.4-2.6
			c0-0.3-0.7-0.6-1-0.9c-0.2,0.3-0.7,0.6-0.6,0.9C753,277.8,753.2,278.6,753.4,279.4z"/>
		<path d="M580.8,113.9c-0.1-3.6,3.1-6.2,6.6-5.4c2.6,0.6,2.7,0.6,4.2-1.7c1.8-2.6,4-4.5,7.3-5.1c2.5-0.5,4.6,0.7,6.9,1.1
			c0.2,0,0.5,1.2,0.3,1.5c-0.6,0.9-1.6,1.2-2.7,0.9c-1-0.3-2.1-0.5-3.1-0.5c-2.9,0-5.3,1.3-6.6,3.9c-1.3,2.6-3.3,3.5-6,2.8
			c-2.3-0.6-3.2-0.6-4.2,2.8c-0.1,0.3,0,0.8-0.2,1c-0.3,0.4-0.7,0.9-1.1,0.9c-0.3,0-0.7-0.6-0.9-1
			C580.9,114.8,580.9,114.3,580.8,113.9z"/>
		<path d="M592.8,118.1c0.1-0.6,0.1-1.3,0.4-1.8c1.1-1.5,2.4-3,3.7-4.4c0.9-0.9,2.1-1.2,3.4-0.8c0.6,0.2,1.2,0.2,1.8,0.3
			c2.8,0.5,5.1-0.3,6.8-2.7c1.5-2.2,3.7-2.9,6.4-2.9c1.5,0,3.1-0.4,4.6-0.5c0.5,0,1.3,0,1.4,0.3c0.2,0.5,0.2,1.3-0.1,1.7
			c-0.6,0.7-1.5,1.2-2.3,1.6c-0.6,0.3-1.4,0.2-2.1,0.1c-2.8-0.3-5,0.5-7,2.6c-2.2,2.5-5.2,3.1-8.4,2.3c-2.2-0.6-3.7-0.1-4.9,1.8
			c-0.7,1.1-1.9,1.9-2.8,2.9C593.3,118.4,593,118.3,592.8,118.1z"/>
		<path d="M583.6,122.2c0.2,1,0.5,1.9,0.8,3.1c-1.8,0.3-2.7,1.3-3.1,2.8c-1.2,3.7-2.9,4.4-6.9,3.5c-0.8-0.2-1.7-0.5-2.6-0.7
			c-1.1,1.8-2.1,3.5-3.2,5.1c-0.6,0.8-1.3,1.6-2.2,2.2c-0.8,0.5-1.8,0.2-2.2-0.7c-0.5-1,0.1-1.5,1-1.9c0.9-0.5,1.6-1.3,2.2-2.1
			c0.9-1.3,1.6-2.7,2.4-4.1c0.9-1.6,1.5-1.8,3.2-1.2c0.9,0.3,1.8,0.8,2.7,1c1.8,0.6,2.3,0.4,3.2-1.2c0.5-0.8,0.7-1.7,1.2-2.6
			C580.7,124,581.2,122.2,583.6,122.2z"/>
		<path d="M569.2,150.9c-1.3-2.4-1.4-3.2,0.2-4.8c2.2-2.2,4.7-4.2,8-4.7c0.9-0.1,1.7-0.8,2.4-1.3c0.7-0.5,1.2-1.2,1.8-1.7
			c1.4,0.9,0.9,2,0.4,2.6c-0.9,1-2,2.2-3.2,2.5c-4.1,1-7.1,3.2-9,6.9C569.6,150.6,569.4,150.7,569.2,150.9z"/>
		<path d="M577.4,159.2c-2.9,0.1-4,2.6-5.7,4.3c-0.7,0.7-1.2,1.7-1.8,2.5c-0.4,0.5-1,0.8-1.6,1.3c-0.8-1.8-0.5-3.1,0.4-4.2
			c1.3-1.6,2.8-3.1,4.3-4.6c1-0.9,2.2-1.5,3.6-1.1C577.2,157.6,577.8,158.1,577.4,159.2z"/>
		<path d="M582.3,174.8c0.1,0.1,0.8,0.3,0.9,0.6c0.1,0.4-0.2,1.2-0.5,1.3c-2.6,0.5-4.7,2.3-7.1,3.2c-0.3,0.1-1-0.2-1.1-0.4
			c-0.1-0.4-0.1-1.2,0.2-1.4C576.8,176.6,579,174.9,582.3,174.8z"/>
		<path d="M585.8,190c-0.5,1.9-1.9,2.4-3.2,3c-0.2,0.1-0.7,0-0.9-0.2c-0.2-0.2-0.3-0.7-0.2-0.9C581.9,190.9,584.4,189.8,585.8,190z"
			/>
		<path d="M631.9,163.2c-0.3-1.2-0.4-2-0.6-2.7c-0.2-0.8-0.5-1.5-0.5-2.3c0-0.5,0.5-1.2,0.9-1.3c0.4-0.1,1.3,0.3,1.4,0.7
			c0.5,1.9,1.1,3.9,1.1,5.8c-0.1,2.9-2.4,4-4.7,2.3c-2.1-1.5-3.8-3.3-4.6-5.8c-0.3-0.9-0.6-1.8-0.7-2.8c0-0.6,0.4-1.2,0.6-1.8
			c0.6,0.3,1.4,0.5,1.9,1c0.4,0.5,0.5,1.3,0.8,1.9c0.9,1.5,2,3.1,3,4.5C630.6,162.9,631.1,162.9,631.9,163.2z"/>
		<path d="M617.9,181.8c-1.1-1-1.2-1.9-0.6-2.8c1.3-1.8,2.6-3.8,4.2-5.3c2.4-2.3,5.5-1.8,8.4-1.6c1.1,0.1,1.6,1.1,1.5,2.1
			c-0.1,1.1-0.8,1.7-2,1.5c-4.1-0.6-7.3,0.8-9.4,4.4C619.5,180.8,618.6,181.3,617.9,181.8z"/>
		<path d="M58.6,186.2c-1.1-1-1.2-1.9-0.6-2.8c1.3-1.8,2.6-3.8,4.2-5.3c2.4-2.3,5.5-1.8,8.4-1.6c1.1,0.1,1.6,1.1,1.5,2.1
			c-0.1,1.1-0.8,1.7-2,1.5c-4.1-0.6-7.3,0.8-9.4,4.4C60.3,185.3,59.3,185.7,58.6,186.2z"/>
		<path d="M611.1,141.5c0.1-2.1-0.2-3.6,1.5-4.5c1.7-0.9,3-0.5,3.4,1.3c0.5,2.1,0.6,4.3-0.6,6.3c-0.5,0.8-1.2,1.5-2.1,1.1
			c-0.6-0.3-1.3-0.9-1.5-1.5C611.3,143.1,611.2,142,611.1,141.5z"/>
		<path d="M632.5,140.5c0,0.3,0.1,0.7,0,1c-0.2,1-1.4,2-2.4,2.1c-1.3,0-1.7-1-1.8-1.9c-0.1-1.3,0-2.8,0.4-4c0.1-0.5,1.3-0.9,1.9-0.9
			c0.5,0,1.2,0.6,1.5,1.1c0.4,0.8,0.4,1.7,0.5,2.5C632.6,140.4,632.5,140.4,632.5,140.5z"/>
		<path d="M696.8,185.1c-0.5-1.2-0.1-1.9,0.8-2.3c3.3-1.6,6.6-3.2,9.9-4.7c0.2-0.1,0.5,0.1,0.7,0.2
			C707.2,180.7,700.5,184.8,696.8,185.1z"/>
		<path class="st2" d="M509.7,69.4c1.2-2.1,2.2-4.1,3.2-5.9c0.5-0.8,1.1-1.6,1.7-2.3c0.5-0.6,1.2-0.7,1.8-0.1
			c0.7,0.6,1.3,1.6,0.5,2.3c-2.4,2.3-3.1,5.4-4.3,8.2c-0.4,1-0.8,2.2-1.3,3.2c-0.3,0.6-0.8,1.4-1.3,1.4c-0.7,0-1.7-0.4-1.9-1
			c-1-2.2-1.9-4.5-2.5-6.9c-0.4-1.4,0.2-2.3,1.2-2.5c1.3-0.2,1.9,0.6,2.2,1.7C509.3,68.1,509.5,68.6,509.7,69.4z"/>
		<path class="st2" d="M510.7,84.1c0.4,1.3,0.7,2.5,1,3.8c1.6-1,2.3-2.7,3.4-4.1c0.6-0.8,1.2-1.7,1.9-2.5c0.9-0.9,1.8-0.9,2.4-0.1
			c0.9,1.2,0.7,1.9-0.2,2.9c-1.3,1.4-2.5,3-3.7,4.7c-1,1.4-1.8,3-2.7,4.5c-0.5,0.8-1.1,1.3-2.1,1.2c-1.1-0.1-1.3-0.9-1.5-1.8
			c-0.3-1.8-0.7-3.6-0.9-5.4C508.3,85.4,508.8,84.6,510.7,84.1z"/>
		<path class="st2" d="M531.9,92.9c2.1,0,3.1,0.7,3.1,2.3c0,2.5-1.3,4.6-2.9,4.6c-1.9,0-2.7-1.2-2.7-3.9
			C529.4,94.1,530.5,92.8,531.9,92.9z"/>
		<path class="st2" d="M527.7,61.2c2.3-0.3,4,0.3,4.8,1.9c0.5,0.9,0.1,2.3-0.1,3.4c-0.3,1.2-1.3,1.5-2.5,1.4
			c-1.2-0.1-2.1-0.7-2.1-1.9C527.6,64.5,527.7,63,527.7,61.2z"/>
		<path class="st2" d="M532.7,77.8c1.5,1.8,1.7,4,0.7,5.5c-0.7,1-2,1.4-3,1.1c-1.1-0.4-1.2-1.4-1.2-2.4
			C529.3,79.5,530,78.5,532.7,77.8z"/>
		<path d="M769.4,304.1c-0.1,0.8-0.1,1.3-0.2,1.7c-0.4,1.5-2,2.8-3.4,2.8c-1.3,0-2.6-1-3.1-2.7c-0.3-1.1-0.3-2.2-0.2-3.3
			c0.1-2,0.8-2.7,2.6-3c1.7-0.3,2.9,0.3,3.6,1.9C769.1,302.4,769.2,303.4,769.4,304.1z"/>
		<path d="M769.3,394.9c-0.2,2-0.5,3.7-2.3,4.7c-1,0.6-1.8,0.6-2.4-0.5c-0.4-0.8-1-1.6-1-2.4c0-2.5,0.1-5.1,0.5-7.5
			c0.3-1.8,1.3-1.9,2.7-0.7C768.9,390.2,768.8,392.7,769.3,394.9z"/>
		<path d="M759.8,346.5c0-2.1,0.6-2.8,2.1-2.8c2.7,0,4.2,1.2,4.1,3.5c-0.1,1.9-1.5,3.2-3.4,3.1C760.8,350.3,759.8,348.9,759.8,346.5
			z"/>
		<path class="st3" d="M191.4,647.4l-34.7-4.3c-0.4,1.3-0.8,2.7-1.2,4.2C167.4,646.8,179.5,647.2,191.4,647.4z"/>
		<path class="st3" d="M196.6,653.4c-13.9-0.4-28.4-0.9-42.4-0.2c-0.4,2.1-0.8,4.4-1.1,6.8c12.5,3.3,25.9,3.5,38.6,5.7
			c3.6,0.6,7.1,1.2,10.7,1.8c-1.7-6.3-3.4-10.9-4.7-14C197.3,653.4,197,653.4,196.6,653.4z"/>
		<path class="st3" d="M190.3,688.9c5.6,0.6,11.3,1.3,17.1,1.7c-0.7-4-1.4-7.7-2.1-11.1c-5.1,0-10.1-0.2-15.1-0.8
			c-12.8-1.5-25.8-5.7-38.7-3.5c-0.4,4.5-0.7,9.1-0.9,13.8C163.8,686.6,176.8,687.5,190.3,688.9z"/>
		<path class="st3" d="M150.8,705.1c14.8-0.1,29.6-1.5,44.4-0.7c4.8,0.3,9.5,0.6,14.2,0.9c-0.4-3.1-0.8-6.1-1.2-8.9
			c-4.5-0.2-9-0.7-13.4-1.2c-15.1-1.7-29.8-3.3-44.7-0.3c-0.1,3.5-0.3,6.9-0.4,10.4C150.2,705.2,150.5,705.1,150.8,705.1z"/>
		<path class="st3" d="M194.6,723.9c5.5-0.2,11-0.9,16.5-1.3c-0.3-4-0.6-7.8-1-11.4c-4-0.2-8.1-0.5-12.1-0.8
			c-15.7-1.2-31.5,0.4-47.2,0.5c-0.4,0-0.8-0.1-1.1-0.2c-0.1,4.3-0.1,8.5-0.1,12.5C164.6,723.4,179.6,724.4,194.6,723.9z"/>
		<path class="st3" d="M211.9,736.6c-0.1-2.8-0.3-5.4-0.4-8c-4.7,0.3-9.4,0.9-14.1,1.1c-15.9,0.7-31.9-0.4-47.8-0.6
			c0,3.8,0.1,7.4,0.1,10.6C170.5,739.6,191.2,738.6,211.9,736.6z"/>
		<path class="st3" d="M173.5,758.8c34.9-1.1,38.9-1.2,38.9-1.2c0-5.3-0.1-10.3-0.3-15.2c-20.7,2-41.5,3-62.3,3.1
			c0.1,3.4,0.2,6.4,0.3,8.6C157.8,755.9,165.6,757.5,173.5,758.8z"/>
		<path class="st3" d="M186.5,672.4c5.8,0.9,11.6,1.2,17.5,1.3c0,0,0,0,0,0c-4.6-0.8-9.2-1.6-13.8-2.3c-12.4-2.1-25.5-2.4-37.8-5.5
			c-0.1,1.1-0.3,2.3-0.4,3.4C163.6,667.8,175,670.6,186.5,672.4z"/>
		<path d="M121.8,564.6l30.5,0.8c0.8,74.7-10.4,98,51.4,94.8c-13.7-120.5-24.9-130.1-56.2-129.3c-31.3,0.8-30.5,45-30.5,45
			L121.8,564.6z"/>
		<path class="st2" d="M159.1,504.4v-6.6c-0.9,0.1-1.9,0.3-2.8,0.4c-2.5,0.3-4.7-0.5-6.6-2c-0.8-0.7-1.4-2-1.6-3.1
			c-0.3-1.5-0.2-3.1-0.3-4.7c-0.1-0.8-0.2-1.7-0.3-2.8c-1,0.3-1.8,0.4-2.5,0.7c-2.4,1.2-4.9,1.2-7.4,1c-2.3-0.1-3.7-1.4-4.2-3.7
			c-0.3-1.7-0.4-3.5-0.5-5.2c-0.2-3.2,0.7-5.8,3.7-7.5c1.6-1,3.3-2.2,2.9-4.7c-0.6,0-1.2,0-1.8,0c-2.6,0.2-4.5-0.9-5.9-3.1
			c-1.4-2.2-1.4-3.8,0.5-5.6c1.9-1.8,4-3.4,6-5c0.7-0.6,1.4-1.2,1.6-2.2h-4.5c0.2,0.2,0.3,0.3,0.5,0.5c-0.7,0.5-1.3,0.8-1.8,1.3
			c-1.7,1.5-3.5,2.9-5,4.6c-1.3,1.5-2,3.3-1.5,5.4c0.7,2.4,1.9,4.5,4.1,5.9c0.6,0.4,1.3,0.8,2.2,1.4c-0.6,0.5-1,0.8-1.4,1.1
			c-2,1.6-2.9,3.7-2.9,6.2c0,2.4,0.1,4.7,0.4,7.1c0.6,4.8,3.8,7.5,8.7,7.2c2-0.1,3.9-0.5,6-0.7c0.1,1.4,0.3,2.8,0.4,4.3
			c0.4,2.7,1.7,4.7,4.3,5.7c1.9,0.8,3.8,1.3,5.8,1.2c1.2-0.1,2.4,0,3.6,0c0,0.9,0,1.5,0,2.1C159.1,503.8,159.1,504.1,159.1,504.4z"
			/>
		<rect x="48.8" y="555.5" class="st2" width="13.6" height="146.9"/>
		<path class="st7" d="M165.1,603.3c-0.1,3.8-0.2,7.6-0.3,11.4c-0.1,2.3-0.2,4.7-0.2,7c0,1.6-0.1,3.1-1.7,4.2
			c-0.3-0.6-0.7-1-0.7-1.4c-0.1-3.6-0.5-7.1,0.2-10.7c0.5-2.4,0.2-4.8,0.3-7.3c0-0.8,0.1-1.6,0.3-2.3
			C163.1,603.2,163.9,603.1,165.1,603.3z"/>
		<path class="st7" d="M173.6,600.4c-0.1,3.8-0.2,7.6-0.3,11.4c-0.1,2.3-0.2,4.7-0.2,7c0,1.6-0.1,3.1-1.7,4.2
			c-0.3-0.6-0.7-1-0.7-1.4c-0.1-3.6-0.5-7.1,0.2-10.7c0.5-2.4,0.2-4.8,0.3-7.3c0-0.8,0.1-1.6,0.3-2.3
			C171.6,600.4,172.4,600.3,173.6,600.4z"/>
		<path class="st7" d="M187.4,600.1c-0.1,3.8-0.2,7.6-0.3,11.4c-0.1,2.3-0.2,4.7-0.2,7c0,1.6-0.1,3.1-1.7,4.2
			c-0.3-0.6-0.7-1-0.7-1.4c-0.1-3.6-0.5-7.1,0.2-10.7c0.5-2.4,0.2-4.8,0.3-7.3c0-0.8,0.1-1.6,0.3-2.3
			C185.5,600,186.2,599.9,187.4,600.1z"/>
		<path class="st7" d="M189.7,632.1c-0.4,3.3-0.7,6.6-1.2,9.8c-0.1,0.8-0.4,1.8-0.9,2.4c-0.4,0.5-1.3,0.6-1.9,0.8
			c-0.2-0.6-0.6-1.3-0.5-1.8c0.4-2,1-3.9,1.3-5.8c0.3-2.5,0.4-5,0.6-7.5c0-0.8,0-1.7,1.1-1.8c1.2-0.1,1.4,0.9,1.4,1.8
			C189.6,630.7,189.6,631.4,189.7,632.1C189.6,632.1,189.6,632.1,189.7,632.1z"/>
		<path class="st7" d="M176.3,650.7c-0.8-1.3-0.6-2.6-0.2-3.8c0.4-1.6,1.1-3.1,1.4-4.7c0.5-2.5,0.8-5,1.3-7.4c0.2-0.8,0-2.3,1.3-2.2
			c1.5,0.1,1.1,1.4,1.1,2.5c-0.3,4.8-1.5,9.5-3.3,13.9c-0.2,0.5-0.5,0.9-0.8,1.3C176.9,650.3,176.6,650.4,176.3,650.7z"/>
		<path class="st7" d="M199,643.7c-0.9,0-1.5,0-2.1,0c-1.5-3.5-0.6-7.1-1.2-10.7c1.1-0.6,1.9-0.4,2.3,0.7c0.1,0.3,0.1,0.7,0.1,1
			C198.4,637.7,198.7,640.5,199,643.7z"/>
		<path class="st7" d="M168.5,573.5c-0.9,0-1.5,0-2.1,0c-1.5-3.5-0.6-7.1-1.2-10.7c1.1-0.6,1.9-0.4,2.3,0.7c0.1,0.3,0.1,0.7,0.1,1
			C167.9,567.4,168.2,570.3,168.5,573.5z"/>
		<path class="st7" d="M176.3,570.3c-0.9,0-1.5,0-2.1,0c-1.5-3.5-0.6-7.1-1.2-10.7c1.1-0.6,1.9-0.4,2.3,0.7c0.1,0.3,0.1,0.7,0.1,1
			C175.7,564.2,176,567.1,176.3,570.3z"/>
		<rect x="60.6" y="439.1" width="6.4" height="43.3"/>
		<path class="st4" d="M290.3,643.7"/>
		<path class="st4" d="M170.9,696.9c-19.1,21.1-57.4,30-61.9,30.5c-9.4,5.1-12.6,12.9-11.2,14c1.4,1.1,3.6-4.4,7.7-6.3
			c14-2.6,20.4-5.2,20.4-5.2c38.7-1.7,53.9-21.5,57.8-29c3.9-7.5,3.9-10.3,3.9-10.3l-15.3-0.4L170.9,696.9z"/>
		<polygon points="6.9,513.3 122.5,513.3 63.8,478.1 		"/>
		<rect x="716.7" y="868.6" width="6.4" height="43.3"/>
		<polygon points="663,942.8 778.7,942.8 719.9,907.6 		"/>
		<path class="st2" d="M51.7,630.7c-47.2,81.2-41.9,99-25.2,99.3c0.7,0,23.4,0,23.4,0v-7.5H29.5c-14.4-0.4-6.2-22-1.9-29.1
			c4.3-7.1,26.6-53.6,26.6-53.6L51.7,630.7z"/>
		<rect x="-27.4" y="728.6" width="103.6" height="111.4"/>
		<rect x="79" y="751.2" width="52.7" height="13.3"/>
		<rect x="81.7" y="743.9" class="st2" width="43.1" height="7.3"/>
		<path class="st5" d="M34.5,775c0.7,0.4,1.1,1.5,1.4,2.3c0.6,2,1.9,3.5,3.8,4c2,0.6,3.7,1.2,3.6,3.7c-0.1,2.5-0.3,5.1-3.3,6.1
			c-0.3,0.1-0.5,0.1-1.1,0.3c-0.6-3.8-0.8-7.4-3.2-10.3c-2.7-3.2-6.3-1.5-9.6-1.7C27.1,773.9,30.1,772.3,34.5,775z"/>
		<path class="st5" d="M-10.6,788.1c2.7-0.9,4.8,0.4,6.6,1.8c2.9,2.4,4.8,1.2,5.1-2.5c0.1-1,0.3-1.9,0.4-2.9
			c0.1-0.9,0.2-1.9,0.4-3.6c1.3,1,2.3,1.5,3.1,2.3c1,1.1,1.9,2.3,2.8,3.5c1,1.4,1.6,3.6,3.9,3.1c2.3-0.5,1.5-2.9,1.9-4.5
			c0.8-3.1,0.4-6.7,4-9.7c2,2.9,4,5.6,5.6,8.4c1.3,2.3,1.7,2.7,4,2c0.4-0.1,0.7-0.4,1.1-0.5c4.4-1.3,7,0.9,6.2,5.5
			c-0.2,1.1-0.6,2.1-1,3.4c-14.5,0.3-28.9,0.5-43.4,0.8C-11.6,792.9-11.3,790.6-10.6,788.1z"/>
		<polygon class="st2" points="34.3,846.9 -6.1,846.9 -20.7,794.3 48.9,794.3 		"/>
		<path class="st3" d="M-0.6,628.7c-0.4-3.2-0.5-6.4,1.4-9.7c0.5,0.5,1.1,0.9,1.3,1.5c0.4,1.1,0.6,2.2,0.8,3.3
			c0.4,2,0.4,2.1,2.8,2.1c0.4-1.3,0.7-2.7,1.1-4c0.2-0.8,0.7-1.4,1.7-1.3c1,0.2,1.2,0.9,1.1,1.8c-0.1,1.2-0.2,2.4-0.4,3.6
			c-0.1,0.9-0.1,1.8,0.9,2.2c1,0.5,1.6,0,2.2-0.9c0.2-0.3,0.6-0.6,1.1-1c0.2,0.8,0.6,1.3,0.6,1.9c-0.1,2.9-0.7,5.7-3.3,7.5
			c-0.6,0.4-1.6,0.6-2.1,0.4c-1.8-0.7-3.4-1.6-5.1-2.4c-0.2-0.1-0.4-0.5-0.6-0.5C-0.2,633-0.4,630.6-0.6,628.7z"/>
		<path class="st3" d="M-9.6,638c-2.8-0.2-4.1-2.1-5.5-3.9c-3.1-4.1-6.3-8.1-9.3-12.3c-0.5-0.7-0.8-1.7-1-2.6
			c-0.4-1.9,0.7-3.1,2.6-3.3c1.9-0.1,3.3,0.8,4.7,1.9c0.7,0.5,1.3,1.1,2.2,1.9c0.5-1.3,0.9-2.2,1.2-3.1c-0.4-1-0.7-2-1.1-2.9
			c-0.5-1.4,0.3-2.4,1.1-3.3c0.2-0.3,1.3-0.3,1.6,0c1.4,1.5,3.4,2.7,2.8,5.5c-0.3,1.5-0.3,3.4,1.7,4.3c1.8-0.7,2-2.5,2.4-4
			c0.4-1.3,0.7-2.7,1.2-4c0.3-0.7,1.1-1.3,2.3-2.1c0.1,0.4,0.1,0.8,0.2,1.2c1,4.6,1.4,9.1,0.5,13.8c-0.6,2.9-1.3,5.8-1.8,8.7
			c-0.4,2-1.8,3.1-3.4,4.1C-7.9,638.2-8.7,638-9.6,638z"/>
		<path class="st3" d="M15.1,639.6c7.8-1.8,8.2-12.8,7.5-14.5s-4.6-0.4-5,2.1c-1.1-1.4-2.1,0.4-3,4.3
			C13.7,635.3,15.1,639.6,15.1,639.6z"/>
		<path class="st3" d="M126.5,609.4c5.1-3.7,11.2-0.4,11.2-0.4c-2.8,9.2-8.3,7.3-9.8,5.1c-1.4-2.1,0.9-2.7,2.8-2.8
			c3.5-0.4,4.6-1.4,4.6-1.4C128.8,610.1,126.5,609.4,126.5,609.4z"/>
		<rect x="-103" y="861.6" class="st2" width="1101.6" height="10.9"/>
		<rect x="321" y="725.1" class="st2" width="212.9" height="11.4"/>
		
			<rect x="260.6" y="784.7" transform="matrix(6.123234e-17 -1 1 6.123234e-17 -464.4315 1113.3021)" class="st2" width="127.7" height="8.4"/>
		
			<rect x="465.7" y="784.7" transform="matrix(6.123234e-17 -1 1 6.123234e-17 -259.368 1318.3656)" class="st2" width="127.7" height="8.4"/>
		<path class="st2" d="M447,506.7"/>
		<path class="st2" d="M387.7,538.4c-18.7,4.7-18.2,9.2-15.8,10c3.5,0.8,14.1,3.2,14.1,3.2L387.7,538.4z"/>
		<path d="M432.7,547.5c0.3,0.1,0.6,0.2,0.9,0.2c0.5-0.5,1.2-0.9,1.6-1.5c1.3-1.7,2.5-3.5,3.6-5.3c1.7-2.7,3.9-4.9,6.7-6.4
			c5.1-2.9,11.1-0.8,12.6,5.8c1.3,5.5,0.5,10.9-3.6,15.3c-0.5,0.5-1.1,1.2-1.2,1.8c-0.2,2.2-0.4,4.5-0.1,6.7
			c0.7,5.3,1.3,10.7,4.8,15.1c0.3,0.4,0.4,1,0.6,1.5c1.8,4.5,6.1,6.5,10.6,5.5c0.7-0.2,1.6-0.7,2-1.3c2.9-4.7,6.3-9.2,7.9-14.6
			c1.7-5.8,3.8-11.5,3.5-17.5c-0.3-7.2-1.8-14.2-4.2-21c-1.9-5.4-5.8-9.7-8.8-14.5c-2.9-4.5-6.7-8-10.9-11.3
			c-1.6-1.3-3.2-2.5-4.7-3.9c-1.6-1.6-3.4-2.5-5.6-2.9c-1.5,1.3-2.9,2.6-4.4,3.9c-7.4,6.1-13.3,13.3-16.5,22.5
			c-0.6,1.9-0.9,3.9-1.3,5.8c0.2,0.2,0.4,0.3,0.6,0.5c1.1-0.6,2.2-1.2,3.2-1.8c0.5-0.3,0.9-1,1.4-1.3c0.8-0.4,1.7-0.6,2.6-0.8
			c0.2,0.9,0.6,1.7,0.6,2.6c0,0.8-0.4,1.7-0.6,2.5c-0.6,2.9-1.3,5.9-1.7,8.8C432.3,543.8,432.6,545.7,432.7,547.5z"/>
		<path class="st2" d="M442.8,662.5c-12-1.2-12-0.4-12-0.4l-0.1,4.6c-14.8,0.2-22.1,5.8-11.2,7.6s12.7-0.6,12.7-0.6
			c-16.4,2.8-20.9,7-11.9,7.8c9,0.7,12.3-0.9,12.3-0.9c-15.7,7.3-12.3,9.4-3.7,8.4c8.5-1,15.6-9.4,15.6-9.4L442.8,662.5z"/>
		<path class="st2" d="M432.5,666.9c-5.7-2.1-10.1-5.9-3.2-5.1c6.9,0.7,6.9,0.7,6.9,0.7L432.5,666.9z"/>
		<path class="st2" d="M391.8,703.4h-26.7c-4,0-7.2-3.2-7.2-7.2v-24.6c0-4,3.2-7.2,7.2-7.2h26.7c4,0,7.2,3.2,7.2,7.2v24.6
			C399,700.2,395.8,703.4,391.8,703.4z"/>
		<path d="M359.8,688.6v6.9c0,3.6,2.9,6.5,6.5,6.5h24.2c3.6,0,6.5-2.9,6.5-6.5v-6.9H359.8z"/>
		<path class="st2" d="M382.8,727h-62.9V623.2h62.9c6,0,10.9,4.9,10.9,10.9v11.5c0,6-4.9,10.9-10.9,10.9h-22.7
			c-5.2,0-9.5,4.2-9.5,9.5v29.6c0,5.2,4.2,9.5,9.5,9.5h22.7c6,0,10.9,4.9,10.9,10.9C393.7,722.1,388.8,727,382.8,727z M321.3,725.6
			h61.4c5.2,0,9.5-4.2,9.5-9.5c0-5.2-4.2-9.5-9.5-9.5h-22.7c-6,0-10.9-4.9-10.9-10.9v-29.6c0-6,4.9-10.9,10.9-10.9h22.7
			c5.2,0,9.5-4.2,9.5-9.5v-11.5c0-5.2-4.2-9.5-9.5-9.5h-61.4V725.6z"/>
		<path class="st2" d="M481.3,616.9c26.6,27,36.5,51.1-28,63.2c-2.5-17-2.5-17-2.5-17c21.3-3.9,29.1-6,31.9-14.5
			c2.8-8.5-9.2-24.1-9.2-24.1C470,612.3,481.3,616.9,481.3,616.9z"/>
		<circle class="st2" cx="447.4" cy="670.6" r="3"/>
		<path class="st2" d="M417.8,847.9c-4.1,0.8-8.2,1.5-12.3,1.9c-4.1,0.5-8.3,0.6-12.5,0.8c-0.8,0-1.6-0.2-2.4-0.3
			c0-0.3-0.1-0.5-0.1-0.8c0.7-0.5,1.3-1.1,2.1-1.4c4.3-1.9,8.6-3.7,12.9-5.6c1.9-0.9,3.9-1.7,5.8-2.8c0.5-0.3,1.1-1,1.2-1.7
			c0.2-1.2,0.2-2.6,0.3-3.8c0-0.9,0-1.7,0-2.7c2.7-0.3,5.1-0.7,7.9-1c0.2,4.4,0.5,8.6,0.7,12.7C421.3,846.5,420.6,847.4,417.8,847.9
			z"/>
		<path class="st2" d="M473.3,826.9c0,2.3,0,4.5,0,6.7c0,1.6-0.3,3.2-0.2,4.8c0.1,2.1-0.8,3.3-2.3,4.3c-5,3.3-10.4,4.3-16,4.7
			c-2,0.1-4,0.4-6,0.5c-0.9,0.1-1.8,0.1-2.7,0.2c-0.1-0.3-0.2-0.6-0.3-0.9c1.1-2,2.7-3.4,4.6-4.4c1.2-0.7,2.6-1.1,3.9-1.7
			c3.3-1.4,5.8-4.1,8.1-6.9c0.8-1,1.3-2.6,1.6-4c0.3-1.2,0.8-1.9,1.9-2.1c1.9-0.5,3.7-1.1,5.6-1.5
			C472,826.5,472.6,826.8,473.3,826.9z"/>
		<rect x="705.5" y="736.4" class="st2" width="156.8" height="23.4"/>
		<rect x="726.1" y="728.6" width="68.1" height="6.4"/>
		<polygon points="856.2,693.7 816.7,733.1 821.4,737.8 856.2,703 		"/>
		<path class="st2" d="M683.6,615.1c13.8,3.5,7.8,12.8-0.7,10.6C674.3,623.6,683.6,615.1,683.6,615.1z"/>
		<path class="st8" d="M629.8,679.3C608,763.9,627.1,790,627.1,790c65.5-12.8,63.3-17,63.3-17c-6.4-48.4-9-49.5-9-49.5
			c-20.2-2.7-19.7-2.1-19.7-2.1c33-3.7,49.4-3,54.5-41.4c-7.7-1.2-7.7-1.2-7.7-1.2c-12.2,32.5-32.5,24.5-41.5,25
			c-9,0-15.4-20.8-15.4-20.8C641.5,685.2,629.8,679.3,629.8,679.3z"/>
		<path d="M729.3,838.4c-7.1,1.7-14.3,2.4-21.3,0.2c-2.1-0.6-3.8-2.5-4.4-7.9C712.7,832.4,721.4,832.1,729.3,838.4z"/>
		<path class="st2" d="M707.3,676.8c-5-9.2-5-10.5-5-10.5l4.4,0.1c1.7-13.9,6.3-15.4,5.7-9.9c-0.5,5.5-2,10.6-0.5,8.2
			c3.9-11,9.4-12.9,8-8.3s-2.5,10.5-2.5,10.5c8.3-12.9,11.5-12.1,8.7-2.6c-2.8,9.5-8.1,14.7-8.1,14.7L707.3,676.8z"/>
		<rect x="789.5" y="512.2" transform="matrix(6.123234e-17 -1 1 6.123234e-17 259.6838 1331.4607)" width="12.2" height="47.4"/>
		<rect x="783.1" y="500" transform="matrix(6.123234e-17 -1 1 6.123234e-17 265.5377 1312.8347)" width="12.2" height="47.4"/>
		<rect x="792.1" y="487.7" transform="matrix(6.123234e-17 -1 1 6.123234e-17 286.8245 1309.6416)" width="12.2" height="47.4"/>
		
			<rect x="651.3" y="458.9" transform="matrix(-1.836970e-16 1 -1 -1.836970e-16 1144.3511 -170.3385)" width="12.1" height="56.2"/>
		
			<rect x="646.3" y="446.9" transform="matrix(-1.836970e-16 1 -1 -1.836970e-16 1127.3215 -177.4341)" width="12.1" height="56.2"/>
		<rect x="657" y="436.2" transform="matrix(-1.836970e-16 1 -1 -1.836970e-16 1127.3215 -198.721)" width="12.1" height="56.2"/>
		
			<rect x="652.7" y="424.9" transform="matrix(-1.836970e-16 1 -1 -1.836970e-16 1111.7112 -205.8166)" width="12.1" height="56.2"/>
		<rect x="843.3" y="439" width="11.5" height="46.6"/>
		<rect x="836.2" y="442.3" width="9.7" height="41.1"/>
		<path class="st1" d="M817.3,506.3c-0.1,0.2-0.1,0.3-0.1,0.4c0,0.7-0.5,0.8-1,0.7c-0.6-0.1-0.9-0.6-0.7-1.2c0.2-0.9,1-1.5,1.8-1.6
			c1.4-0.2,2.8-0.2,4,0.5c0.4,0.2,0.7,0.4,1.2,0.2c1.9-0.9,3.7-0.4,5.4,0.5c0.8,0.4,1.3,0.5,2.2,0c1.5-0.8,3.1-0.7,4.6,0.6
			c-0.2,0.4-0.4,0.8-0.7,1.3c-1.1-0.8-2.2-1-3.4-0.2c0.3,0.4,0.6,0.7,0.8,1.1c0.1,0.4,0.1,0.8,0,1.2c-0.1,0.5-0.6,0.5-1.1,0.5
			c-1.6-0.1-2.2-0.8-2.2-2.6c-1.3-0.7-2.5-1.3-4.3-1c0.4,0.5,0.8,0.9,1,1.2c0.6,0.9,0.2,1.7-0.8,1.7c-0.9,0-1.6-0.5-2.2-1
			c-0.6-0.5-1.2-1.1-0.8-2C819.7,506,819.2,505.9,817.3,506.3z"/>
		<path class="st2" d="M803.3,523.4c0.3,2.4-0.3,3-2.5,2.9c-1.9,0-3.8-0.2-5.7-0.2c-2.5,0-5.1,0-7.6,0.3c-4.7,0.6-9.4,0.3-14.1-0.1
			c-1-0.1-2.1-0.4-3-0.7c-0.4-0.1-1-0.8-0.9-1c0.2-0.5,0.7-1.1,1.1-1.1c1.7-0.1,3.5-0.3,5.2,0c4,0.8,8-0.1,12-0.4
			c1.7-0.1,3.3-0.2,5-0.2C796.2,523,799.7,523.2,803.3,523.4z"/>
		<path class="st1" d="M840.4,537.4c1.8-2.9,0.9-5.4,0.1-8.1c-3.9-0.2-7.4,0.3-11.1,0.6c-0.3,2.5,1.1,4.9,1.7,7.5
			C834.3,537.5,837.4,537.4,840.4,537.4z M819.7,537.6c2.4-0.1,4.6-0.2,7-0.3c-0.5-2.5-0.9-4.7-1.3-7.1c-2.8,0.2-5.5,0-8.2,0.7
			C817.9,533.1,818,535.3,819.7,537.6z M813.8,531.1c-0.8,0-1.3-0.1-1.8-0.1c-2.9,0.1-3.4,0.4-2.9,2.2c0.4,1.3,0.8,2.7,1.3,4.1
			c1.5,0,3.1,0,4.8,0C814.8,535.3,814.3,533.3,813.8,531.1z"/>
		<rect x="573.9" y="541.5" class="st2" width="272.5" height="5.3"/>
		<path class="st2" d="M672.8,455.4c-0.6,0.2-1.2,0.3-1.6,0.4c-1.1-1.3-2.1-2.5-3.3-3.9c-0.6,1-1,1.7-1.4,2.3c-1.1,1.7-2.1,2-3.9,1
			c-0.7-0.4-1.3-0.9-1.9-1.4c-0.6-0.4-1.1-0.8-2-1.4c-0.4,0.9-0.6,1.6-0.9,2.2c-0.7,1.7-1.3,2.1-3,1.7c-1.8-0.4-3.6-1.2-5.7-1.9
			c-0.4,0.2-1.1,0.7-1.9,0.8c-0.9,0.1-1.9-0.1-2.7-0.3c-0.4-0.1-0.8-0.8-0.7-1.2c0-0.4,0.6-0.9,1-0.9c1.1,0,1.7-0.5,2.4-1.3
			c1.2-1.4,1.9-1.4,3.3-0.1c1.2,1.1,2.3,2.4,4.3,2.3c0.5-0.9,0.9-1.8,1.4-2.7c1.1-1.7,2.2-2,3.9-0.9c1.1,0.8,2.2,1.7,3.4,2.6
			c0.4-0.6,0.8-1,1.1-1.5c1.5-1.9,3-2.3,5-1.1C671.2,451.3,672.8,452.8,672.8,455.4z"/>
		<path class="st1" d="M668.2,465.3c-0.3-1.5-0.6-2.9-0.9-4.5c-4.3,0.1-8.5,0.2-12.7,0.3c0.5,1.8,0.9,3.4,1.3,4.9
			C660,465.7,664.1,465.5,668.2,465.3c1.9,0.3,3.8,0.3,5.7-0.1c0.2-1.7-0.3-3.2-1.2-4.7c-1,0.1-2,0.1-3.2,0.2
			c0.2,0.9,0.4,1.6,0.6,2.3C670.6,464.6,670.4,464.9,668.2,465.3z M680.5,465.5c0.2-0.3,0.2-0.5,0.3-0.6c1.3-1.3,0.6-2.7,0-4
			c-0.1-0.3-0.6-0.6-0.9-0.6c-1.6-0.1-3.2-0.3-4.8,0.2c0.6,1.6,1.2,3.2,1.7,4.6C678.2,465.2,679.3,465.4,680.5,465.5z M648.3,466.4
			c-0.8-1.9,0.3-3.8-0.8-5.4c-2.7,0.2-2.7,0.2-3.9,0.8c0.1,0.9,0.2,1.9,0.4,2.8c0.2,1.1,0.7,1.5,2,1.7
			C646.6,466.3,647.2,466.3,648.3,466.4z M649.8,460.9c0.2,1.4,0.3,2.7,0.5,4c0.3,1.6,0.7,1.8,3.1,1.1c-0.4-1.6-0.8-3.2-1.3-4.9
			C651.4,461,650.8,461,649.8,460.9z"/>
		<path class="st1" d="M654.7,474.6c-0.6,0.9-1.1,1.7-1.5,2.4c-0.1,0.2-0.2,0.5-0.4,0.7c-0.6,0.8-1.2,0.8-1.9,0
			c-0.6-0.7-1.1-1.5-1.6-2.2c-0.3-0.4-0.6-0.8-1-1.2c-1.5,0.6-2.5,1.6-3.5,2.6c-1.1,1-1.4,1.1-2.6-0.1c-1-0.9-2-1.9-2.9-2.9
			c-0.3-0.3-0.5-0.7-0.7-1.1c0.8-0.7,1.3-0.4,1.8,0.1c0.9,0.9,1.8,1.7,2.7,2.6c1.6-1.1,3.2-2.2,4.7-3.2c1.9,0.7,2.5,2.3,3.8,3.5
			c0.5-0.7,1-1.4,1.4-2.1c0.6-0.9,0.8-0.9,1.9-0.4c1,0.4,1.7,1.1,2.3,1.8c0.3,0.4,0.6,0.8,1.1,1.3c0.4-0.6,0.7-1.1,1.1-1.6
			c0.6-0.8,1.4-0.9,2.2-0.2c1,0.8,1.8,1.7,2.6,2.5c0.3,0.3,0.6,0.8,0.1,1.2c-0.5,0.4-1,0.1-1.4-0.3c-0.7-0.7-1.3-1.3-2.1-2.2
			c-0.3,0.8-0.5,1.4-0.7,1.9c-0.3,0.9-1,1.1-1.9,0.4c-0.7-0.5-1.3-1.2-2-1.8C655.8,475.8,655.4,475.3,654.7,474.6z"/>
		<path class="st2" d="M638.7,487c0.1-0.5,0.3-1.1,0.5-1.6c0.6-1.3,1.8-1.5,2.6-0.4c1.1,1.5,1.5,3.1,1.4,4.9c0,0.5-0.5,1.2-1,1.4
			c-0.4,0.2-1.2,0-1.6-0.4C639.6,489.9,638.6,488.8,638.7,487z"/>
		<rect x="573.9" y="489.9" class="st2" width="272.5" height="5.3"/>
		<path d="M681,777.5c-8.4,2.7-24.2,6.7-53.9,12.5c0,0-2.3-3.1-4.4-10.6c-2.4,2-4,5.1-4,8.5c0,6.1,4.9,11,11,11h47.7
			c6.1,0,11-4.9,11-11C688.5,783,685.4,778.9,681,777.5z"/>
		<path class="st2" d="M673,780.5c27.8,16.8,31.3,54.6,31.3,54.6c11.6-1.2,11.6-1.2,11.6-1.2c-4.8-51-31-57.2-31-57.2L673,780.5z"/>
		<line class="st9" x1="637.4" y1="792.8" x2="637.4" y2="838.3"/>
		<line class="st9" x1="674.7" y1="792.8" x2="674.7" y2="838.3"/>
		<path class="st1" d="M446.5,708.1c-3.5,2.1-7.1,4.1-11.4,3.9c-0.3,0-0.6,0-0.8-0.1c-0.3-0.2-0.8-0.6-0.8-0.8
			c0.1-0.4,0.5-0.8,0.9-1.1c0.2-0.1,0.5-0.1,0.8-0.1c3.2,0.4,5.9-1,8.7-2.1c0.8-0.3,1.6-0.4,2.4-0.6
			C446.3,707.5,446.4,707.8,446.5,708.1z"/>
		<path class="st1" d="M437.8,699.6c-0.3,0.2-0.5,0.5-0.8,0.6c-2.7,1-5.4,1.9-8.1,2.8c-0.8,0.3-1.7,0.3-1.9-0.8
			c-0.2-1,0.6-1.3,1.4-1.5c2-0.5,4-1.2,6-1.7c1-0.2,2.1-0.1,3.2-0.2C437.7,699.2,437.7,699.4,437.8,699.6z"/>
		<path class="st1" d="M460.2,705.9c0.6-0.4,1.1-1.1,1.6-1.1c2.1,0.2,4.1-0.2,6.1-0.8c0.3-0.1,0.7-0.2,1-0.1
			c0.3,0.1,0.6,0.4,0.7,0.7c0.1,0.2-0.1,0.5-0.2,0.7C467.8,706.9,462.8,707.3,460.2,705.9z"/>
		<path class="st1" d="M459.1,694.2c-2.3,0.9-4.4,2.4-7.5,1.5c0.6-0.7,1-1.4,1.3-1.4C455,694.4,457,692.6,459.1,694.2z"/>
		<path class="st1" d="M465.9,682c3.6-0.7,3.6-0.7,5.3,0.7c-1.4,0.7-2.7,1.2-4.1,0.8C466.7,683.4,466.5,682.8,465.9,682z"/>
		<path class="st1" d="M457.8,645.6c1.4-2.4,4.8-3.7,7.7-3c-0.4,0.4-0.6,1.1-0.9,1.1C462.4,644,460.7,646.3,457.8,645.6z"/>
		<path class="st1" d="M420.1,648.7c-2.2,2.5-4.7,3-6.7,1.4c0.9-1.7,2.8-1.4,4.2-2C418.4,647.8,419.4,647.6,420.1,648.7z"/>
		<path class="st1" d="M418.5,643.5c-1.6,1.1-3.3,1.8-5.2,0.9c-0.4-0.2-0.6-0.7-0.8-1.1c0.4-0.2,0.8-0.6,1.2-0.7
			c0.8-0.1,1.7-0.2,2.6-0.2c0.8,0,1.6,0.2,2.4,0.3C418.5,642.9,418.5,643.2,418.5,643.5z"/>
		<g>
			<rect x="707.3" y="437" width="6.4" height="43.3"/>
			<polygon points="653.6,511.2 769.3,511.2 710.5,476 			"/>
		</g>
		<g>
			<rect x="707.3" y="18.7" width="6.4" height="43.3"/>
			<polygon points="653.6,92.9 769.3,92.9 710.5,57.7 			"/>
		</g>
		<g>
			<rect x="170.9" y="871.2" width="6.4" height="43.3"/>
			<polygon points="117.2,945.5 232.8,945.5 174.1,910.2 			"/>
		</g>
		<rect x="-103" y="427.4" class="st2" width="1101.6" height="10.9"/>
		<rect x="561.7" y="286" class="st10" width="211.8" height="38"/>
		<rect x="561.7" y="328.2" class="st10" width="211.8" height="38"/>
		<rect x="561.7" y="371.5" class="st10" width="211.8" height="38"/>
		<path d="M614,220.6c22.4,0.7,47.5-56.2,47.5-56.2l12.1,6.1c-25.5,50.1-54.2,62.2-54.2,62.2L614,220.6z"/>
		<path class="st2" d="M689.7,171c0.5-0.6,0.8-1.2,1.4-1.5c4.3-2.3,8.6-4.6,12.9-6.8c1-0.5,2.2-0.8,3.6-1.3c-1,1.9-10.9,8.4-14.9,10
			C691.8,171.7,690.9,172.2,689.7,171z"/>
		<path class="st2" d="M692.9,179.7c-0.7-1.3-0.1-2,0.5-2.6c3.9-3.2,8.3-5.7,13.3-6.9c0.1,0,0.3,0.1,0.6,0.3
			c-0.1,0.3-0.2,0.7-0.4,0.8C701.9,173.6,697.8,177.4,692.9,179.7z"/>
		<path class="st2" d="M692.3,131.7c-2.9,1.9-5.7,3.8-8.7,5.6c-0.5,0.3-1.3,0-2.2-0.1c0.4-0.9,0.5-1.5,0.9-1.9
			C683.7,134,690.4,131.3,692.3,131.7z"/>
		<path class="st2" d="M695.8,142.2c-0.5,0.3-0.9,0.8-1.4,0.8c-2.8-0.1-4.6,2.8-7.6,2.7C688,142.6,691.6,141.1,695.8,142.2z"/>
		<path class="st2" d="M673.6,170.4c-3.5-2.9-7.4-4.9-12.1-6.1c0.3-1,0.4-2,0.9-2.7c1-1.5,2.3-2.8,3.4-4.2c1.7-2.1,3.4-4.2,5.3-6.1
			c1.3-1.4,2.9-2.2,4.9-1.7c-2.5,2.8-4.9,5.5-7.2,8.1c-0.6,0.7-0.8,1.3-0.2,2.1c1.6,0,2.5-1,3.5-2c1.6-1.7,3.3-3.4,5-5
			c1.3-1.2,2.1-1.2,3.8,0.1c-1.9,2.4-3.8,4.7-5.7,7.1c-0.5,0.7-1.7,1.5-0.5,2.4c1,0.8,1.7-0.1,2.4-0.8c1.7-1.8,3.5-3.7,5.2-5.5
			c0.8-0.8,1.7-1.1,3-0.2C681.5,160.7,677.6,165.4,673.6,170.4z"/>
		<path d="M74.7,120.2c26.3-5.7,30.7,25.6,30.7,25.6l11.9,1.4c-8.2-30.2-21.3-31.6-27.7-33.3C83.3,112,74.7,120.2,74.7,120.2z"/>
		<path class="st2" d="M54.9,155.7c-18.1,7.5-17.4,11-9.2,11.4s11-2.1,11-2.1L54.9,155.7z"/>
		<rect x="76.9" y="177.3" transform="matrix(0.9438 -0.3306 0.3306 0.9438 -53.6414 40.941)" width="33.3" height="1.8"/>
		<path d="M81.6,177.9c-3,0-7.5,3.9-7.3,6.4c0,0.1,0,0.2,0,0.2c0.2,3.7,8.8,6.4,11.7,4.4c1.9-1.4,3.2-4.4,2.3-6.5
			C87.2,179.5,84.8,177.9,81.6,177.9z"/>
		<path class="st2" d="M5.2,268.5c-28.7,11.3-30.1,13.3-24.7,13.5S6.6,275,6.6,275L5.2,268.5z"/>
		<rect x="-52.4" y="223.8" width="3.7" height="66.5"/>
		<rect x="-22.1" y="253" transform="matrix(6.123234e-17 -1 1 6.123234e-17 -306.547 266.0529)" width="3.7" height="66.5"/>
		<path d="M64.9,313.9C8.8,347.6-4,383.8-4,383.8s5,5,7.8,3.5C66.1,336,123,311.9,122.3,309.3L64.9,313.9z"/>
		<rect x="-97.7" y="288" class="st2" width="116.4" height="119.2"/>
		<path d="M122.3,309.3c-7.6,18.3-43.3,20.4-43.3,20.4l5.3-10.6L122.3,309.3z"/>
		<rect x="467.9" y="16.8" class="st2" width="11.2" height="411.6"/>
		<rect x="-103" y="17.1" class="st2" width="1101.6" height="10.9"/>
		<path class="st2" d="M274.2,243.7c-1.3-4.8-3.1-9.4-4.7-14.1c-0.5-1.5-0.8-3-0.1-4.6c1.1-2.5,2.7-3.5,5.7-3.3
			c2.3,0.2,2.7,0.5,3.3,2.6c0.6,2.6,0.9,5.3,1.7,7.9c0.8,2.7,1.7,5.3,3.1,7.8c1.6,3.1,3.7,6,6.7,8.2c3.5,2.6,7.4,4.3,11.9,5.1
			c9.2,1.6,18.5,3.2,27.7,4.6c2.7,0.4,5.6,0.7,8.3,0.7c6.3-0.2,12.3,0.7,18.3,2.3c2.3,0.6,4.7,0.8,7,1.2c1.8,0.3,3.3,0.8,4.9,2.7
			c-4.5,0-8.2,0.1-11.9,0c-8.8-0.3-17.6-0.7-26.3-1.1c-6.4-0.2-12.8-0.4-19.2-0.7c-5.6-0.3-11.2-0.2-16.6-1.6
			c-4.2-1-7.9-2.6-11.1-5.3C278.8,252.7,275.6,248.8,274.2,243.7z"/>
		<path d="M211,228c0.8-0.3,1.5-0.6,2.4-0.9c0.5,2.5,1,4.6,1.4,6.8c0.5,2.6,2.1,4.4,5.1,5.3c0.9,0.3,1.8,0.6,2.8,1
			c2.1-0.2,4.2-0.5,6.1-1.1c0.6-0.9,1.4-1.9,2.4-2.7c1.1,1.1,2.2,2.3,3.4,3.3c3.7,3.4,7.6,4.6,10.9-1.4c0.6-1.1,1.2-2.2,1.9-3.4
			c1.2,1.1,2.2,2.1,3.3,3c3.9,3.2,8.9,2,11.9-0.9c4.2-4.1,7.2-8.9,9.7-13.8c-0.4-2.9,0.1-5.6,1.6-8.3c1.6-2.9,3.9-5.3,4.9-8.4
			c0.1-0.3,0.2-0.6,0.4-0.8c2.1-8,4.4-15.9,6.3-24c1.1-4.9,1.8-9.8,2.4-14.8c0.6-4.9,2.2-9.6,3.7-14.3c0.5-1.7,2-2.6,3.6-3.4
			c1.8-0.9,3.6-1.7,5.4-2.5c3.7-1.6,6.5-4.2,9.2-6.8c1.5-1.4,3-2.8,4.8-4.5c0.2,0.4,0.4,0.8,0.6,1.3c0.8-1,1.5-2,2.2-3
			c0-0.1-0.1-0.1-0.1-0.2c-0.5-0.9-0.3-1.7,0.2-2.6c1.3-2.1,1.5-4.4,0.5-6.5c-3.8-8-9.7-14.4-19.8-17.2c-4.4-1.3-8.9-2.4-13.4-1.7
			c-6.4,1-12.6,2.4-18.1,5.9c-11,6.9-21.8,13.9-30.2,23.3c-5.3,5.9-9.6,12.3-12.8,19.1c-2.3,5-4.2,10.2-6.2,15.3
			c-1.9,4.6-3.5,9.3-5.5,13.9c-3.5,7.7-5.2,15.8-6.7,23.9c-0.6,3.4-0.8,6.9-1,10.4c-0.2,2.5-0.3,5,0,7.5
			C204.7,228,207.5,229.3,211,228z"/>
		<path class="st1" d="M255.4,130.3c0.9,1.3,0.4,2.1-0.3,2.8c-1,1.1-2,2.2-3.1,3.3c-3,2.8-5.5,6-7.9,9.2c-0.6,0.8-1.1,2.2-2.5,1.5
			c-1.3-0.7-0.3-1.8,0.2-2.6c2.9-4.9,6.7-9.3,11.5-13C253.9,131.1,254.6,130.8,255.4,130.3z"/>
		<path class="st1" d="M241.3,166.1c-0.4,2-0.6,3.7-1,5.3c-1.1,5-2.3,10.1-3.5,15.1c-0.2,0.7-0.1,1.5-0.3,2.2
			c-0.1,0.4-0.6,0.7-0.9,1.1c-0.5-0.3-1.3-0.7-1.3-1.1c-0.2-1-0.2-2,0.1-3c1.4-5.9,2.9-11.8,4.4-17.7
			C239,167.1,239.2,166.1,241.3,166.1z"/>
		<path class="st1" d="M250.8,166.3c-2.5,7.3-2.8,14.7-3.5,22.1c-1.4,0.4-2.1,0-2.1-1.1c0-1.7-0.1-3.3,0.1-5c0.5-3.9,1-7.7,1.6-11.6
			c0.2-1.3,0.7-2.6,1.3-3.8C248.7,166.2,248.8,166.2,250.8,166.3z"/>
		<path class="st1" d="M263.5,133.3c-0.6,0.7-1,1.5-1.7,2c-4.2,3.1-7.4,6.8-10.2,10.8c-0.7,0.9-1.4,1.8-2.2,2.6
			c-0.2,0.3-1,0.5-1.2,0.4c-0.4-0.3-0.7-0.7-0.7-1.2c0-0.5,0.2-1,0.5-1.4c3.5-4.8,7.2-9.5,12.4-13.1
			C261.2,132.9,262,132,263.5,133.3z"/>
		<path class="st1" d="M276.2,218.7l2.7,15.2l-8,5.3l-4-6.8c-0.2,0.3-0.4,0.7-0.7,1l2.8,11.2l3.2-2.4l10.1-6.9L276.2,218.7z"/>
		<path class="st1" d="M252.9,204.7c-1.4,6.2-2.7,12.2-4.1,18.2c0,0.2-0.4,0.3-0.6,0.6c-1.4-0.2-1.8-1-1.7-1.9
			c0.1-1.6,0.2-3.3,0.6-4.9c0.9-3.5,2.1-7,3.1-10.6C250.5,205,250.9,204.1,252.9,204.7z"/>
		<path class="st1" d="M232.5,167.2c0.7,1,0.4,2.2,0.1,3.3c-1.3,3.7-2.6,7.4-3.9,11.1c-0.8,2.1-1.7,4.2-2.6,6.3
			c-0.3,0.6-0.7,1.2-1.4,1.7c-0.7-1.5-0.7-2.8-0.1-4.3c1.6-3.7,3.1-7.4,4.6-11.2c0.6-1.5,0.9-3,1.4-4.5c0.3-0.9,0.7-1.8,1.1-2.6
			C231.9,167.1,232.2,167.1,232.5,167.2z"/>
		<path class="st1" d="M263.7,167.6c1.6,0.4,1.4,1.1,1.2,1.8c-1.6,4.4-2.4,9-2.8,13.6c-0.1,1.1,0.1,2.3-0.1,3.4
			c-0.1,0.5-0.8,1-1.2,1.4c-0.5-0.4-1.1-0.8-1.4-1.3c-0.2-0.3-0.1-0.8-0.1-1.2c0.7-5.6,1.6-11.1,3.7-16.5
			C263.1,168.5,263.4,168.1,263.7,167.6z"/>
		<path class="st1" d="M283.2,133.6c1.6,0.4,1.4,1.1,1.2,1.8c-1.6,4.4-2.4,9-2.8,13.6c-0.1,1.1,0.1,2.3-0.1,3.4
			c-0.1,0.5-0.8,1-1.2,1.4c-0.5-0.4-1.1-0.8-1.4-1.3c-0.2-0.3-0.1-0.8-0.1-1.2c0.7-5.6,1.6-11.1,3.7-16.5
			C282.6,134.5,283,134.1,283.2,133.6z"/>
		<path class="st1" d="M266.7,135.5c0.1,0.7,0.3,1.4,0.1,2c-0.4,1.2-1,2.3-1.7,3.4c-2.2,3.3-4.5,6.6-6.8,9.9
			c-0.3,0.4-1.1,0.9-1.5,0.8c-1-0.2-1-0.9-0.7-1.6c1.2-2.1,2.4-4.2,3.7-6.2c1.7-2.6,3.5-5.1,5.3-7.7c0.2-0.3,0.5-0.5,0.7-0.7
			C266.2,135.4,266.4,135.4,266.7,135.5z"/>
		<path class="st1" d="M228,201.4c-0.5,1-0.8,1.6-1.2,2.3c-2.3,3.8-4.6,7.5-4.6,11.9c0,0.2,0,0.4-0.1,0.5c-0.3,0.4-0.7,0.7-1.1,1
			c-0.4-0.4-1.2-0.8-1.2-1.1c0.2-1.9,0.4-3.8,0.9-5.6c0.7-2.5,2-4.8,3.7-7C225.2,202.5,225.8,201.4,228,201.4z"/>
		<path class="st1" d="M242.4,204.1c-0.1,0.8-0.1,1.6-0.4,2.3c-1.3,3.4-3.2,6.8-3.2,10.5c0,0.8-0.5,1.4-1.6,1.4
			C235.2,215.4,238,206.6,242.4,204.1z"/>
		<path d="M334.1,271.4c2.5-0.4,5.1-0.9,7.7-1.3c0.4-0.1,0.9-0.2,1.3-0.1c3.9,0.9,7.7-0.1,11.5-0.2c0.3,0,0.7,0,1,0
			c7.4,0.9,14.7-0.3,22.1,0.1c1.9,0.1,3.3-0.5,4.3-1.8c1.4-1.9,3.1-3.7,4.2-5.8c3.4-6.2,6.8-12.4,9.9-18.6
			c3.2-6.6,6.1-13.4,9.2-20.1c1-2.2,2.4-4.2,3.7-6.3c1-1.6,2.6-2.3,4.8-2.3c2.5,1.9,2.4,4,1.4,6.2c-1.8,3.9-3.6,7.7-5.4,11.6
			c-3.5,7.5-7.1,14.9-10.7,22.3c-2.1,4.3-4.2,8.5-6.3,12.8c-0.4,0.9-1.1,1.6-1.7,2.5c-0.9,1.4-2.3,1.8-4.2,1.9
			c-8.5,0.5-17,0.5-25.5,1.7c-8.3,1.2-16.8,0.9-25.2,1C334,274.8,333.7,274.3,334.1,271.4z"/>
		<rect x="333.7" y="266" width="57.5" height="6.4"/>
		<rect x="328.8" y="269.5" class="st2" width="153.3" height="135.1"/>
		<rect x="378.1" y="343" width="55.3" height="69.2"/>
		<path class="st1" d="M375.4,352c-0.5-1.6-1.6-3.2-1.1-5.1c0.3-1-1-1.5-2.1-1.8c-1.5-0.4-2.1-1.4-2.1-3.1c0-1.2,0.3-2.4,1.9-2.8
			c1-0.3,2.1-0.5,3.1-0.7c4.9-0.6,9.7-1.6,14.4-2.9c5.6-1.6,11.6-2,18.3-2.1c3.4,0.5,7.4,1.1,11.4,1.5c3.6,0.4,7.1,0.5,10.7-0.5
			c2.8-0.8,5.7-1,8.6-0.4c2.6,0.5,4.5,2.8,3.6,5c-1,2.4-0.3,4.6,0.2,6.9c1,4.6-1.8,7.5-7.3,7.8c-4,0.2-7.7-0.6-11.3-2
			c-2.7-1.1-2.7-1-4.2,1.1c-4.2,5.8-11.4,6.2-16.9,3.1c-2-1.1-3.8-2.5-5.7-3.8c-0.3-0.2-0.6-0.5-0.9-0.6c-3.5-1.1-3.9-1.4-6,1
			c-1.7,1.9-3.9,3-6.6,3.5C379.8,356.9,376.3,355.2,375.4,352z"/>
	</g>
</g>
</svg>
