<?xml version="1.0" encoding="utf-8"?>
<!-- Generator: Adobe Illustrator 22.0.1, SVG Export Plug-In . SVG Version: 6.00 Build 0)  -->
<svg version="1.1" id="Layer_1" xmlns="http://www.w3.org/2000/svg" xmlns:xlink="http://www.w3.org/1999/xlink" x="0px" y="0px"
	 viewBox="0 0 900 650" style="enable-background:new 0 0 900 650;" xml:space="preserve">
<style type="text/css">
	.st0{clip-path:url(#SVGID_1_);}
	.st1{fill:#EACBC6;}
	.st2{fill:#E3E31D;}
	.st3{fill:#023955;}
	.st4{fill:#F26E27;}
	.st5{fill:#FFFDFD;}
	.st6{fill:#56C0E3;}
	.st7{fill:#422914;}
	.st8{fill:#B6B333;}
	.st9{fill:#A56A3C;}
	.st10{fill:#EE9C75;}
</style>
<g>
	<defs>
		<rect id="SVGID_9_" x="-52.3" y="-568.1" width="1073.6" height="1433.7"/>
	</defs>
	<clipPath id="SVGID_1_">
		<use xlink:href="#SVGID_9_"  style="overflow:visible;"/>
	</clipPath>
	<g class="st0">
		<path class="st1" d="M271.2,266.6h-46.1c-9.4,0-17.1-7.7-17.1-17.1v0c0-9.4,7.7-17.1,17.1-17.1h46.1c9.4,0,17.1,7.7,17.1,17.1v0
			C288.3,258.9,280.6,266.6,271.2,266.6z"/>
		<rect x="-58.1" y="143.1" class="st2" width="1083.8" height="730.4"/>
		<rect x="-66.6" y="-583.8" class="st3" width="1098.3" height="1373.6"/>
		<g>
			<polyline class="st4" points="636.2,698.6 689,696.7 702,734.9 789,667.8 735.7,625.6 636.8,694.5 			"/>
			<path class="st4" d="M684.3,569.4l-51.4-12.2l25.8-32.5l-33.3-29.2l37.5-18.9L623.3,441l31.3-16.7l-12.3-49.9l37.7,5.8l18.3-46.6
				l47.6,31l8.3-27l19.7,31l41.4-30.8l11.9,36.2l38.2-26.5c0,0,1.7,27.1,1.9,31.1c0.2,4,54.6-10.1,54.6-10.1l-27.2,41.7l55-7
				l-30.4,46l45.7,9.8L924.5,501l53.3,25.3l-45.2,37.9l43.3,20.2l-38.7,28.4l40.8,41.4l-58.6-1.7l27.6,35.6l-51.2-5l6.4,31.1
				l-54.8-18.7l-12.5,31l-30.4-38.2l-25.7,35.1l-12.5-28.4l-48.6,23.3l7.4-57.9l-57.8,14.4l32.7-36.6l-67.1-18.4L684.3,569.4z"/>
			<polygon class="st4" points="678.4,556.7 625.8,626.7 673.4,643.2 652.4,674.5 636.2,698.6 704.8,677.3 702,734.9 763.1,697.7 
				781.5,742.3 809.7,686.9 843,752.3 880.9,676.8 			"/>
			<polygon class="st4" points="859.6,384.7 940.5,354.6 919.6,399.7 979.6,398 941.3,443 989.6,464.7 925.5,506.4 			"/>
		</g>
		<g>
			<ellipse class="st5" cx="649.5" cy="8.6" rx="15.2" ry="14.5"/>
			<path class="st5" d="M930,101.3c-0.5-0.2-0.9-0.2-1.4-0.2c-5.6,4.8-10.8,7.7-15,7c-8.4-1.5-9.6-21.5-6.7-33.5
				c4.7-21.9,10.5-45,13.9-62.5c12.3-2,21.9-3.9,21.9-3.9c-0.8-3.4-9.7-4-20.6-3.3c2.3-13.9,2.4-22.5-2.3-21.2
				c-3.4,1-7.6,10.3-11.9,22.7c-10.4,1.5-20.3,3.5-24.8,5.1c-14.6,4.3,0.7,5,6.7,4.3c4.9-0.3,10.2-0.8,15.5-1.5
				c-8.3,25.8-16.8,59.5-22,65.3c-11.8,14-21.4,28.5-34.3,27c-12.9-1.5,3.9-32,10.1-36.5c19.1-29,9.6-47.5-7.9-40.5
				c-15.6,6.2-35.6,20.8-38.1,22.8c70.1-81.3,34.1-84.8,19-80.3c-13.2,3.9-39.6,78.2-46.2,97.4c-11.3,11.3-25.2,23.9-39.9,34.8
				c2-6.2,4-12.7,6.3-19.7l0.9-0.6c6.4-22.6,22.1-67.3,0.3-53.4c-22-29.2-77.1,5.8-78.2,43.8c-19.1,30-48.3,47-27.5-8.5
				c9-39.5-4.1-43.3-24.7-4c-16.1,39-30.9,50.5-33.7,37.5c-2.8-13,18.5-61.5,20.8-65.5c2.2-5.5-23-28-61.8,11.5
				C540,59.1,540,59.1,540,59.1c18-37-3.7-28.3-3.7-28.3s-37.3,91.8-23.9,92.8c13.5,1,27-46,29.8-54.5c15.7-26,47.8-43,46.4-25.5
				c-1.4,17.5-39.1,58.5-9.9,68c29.2,9.5,43.8-26,43.8-26c-2.2,53,45.5,22,53.9,5c-3.4,46,43.3,20.5,54.5,2.5
				c-5.6,23.5-5.4,24.8-5.4,24.8c-60.9,29.2-45.2,47.7-26.1,51.7c3.5,0.7,6.9,0.6,10.1-0.3c1.1-0.5,2.3-0.9,3.7-1.4
				c5.4-2.6,10.1-7.2,13.8-13c2.4-4.2,4.7-9.3,7-15.2c1.1-3.4,1.9-6.9,2.4-10.5c2.6-6.8,4-10.4,4.8-12.3
				c10.5-8.1,25.9-20.4,40.8-33.6c-0.4,1.6-0.7,3.3-1.1,5.2c0.7-1.1,1.1-1.7,1.1-1.7s-8.4,31,2.2,34.5s11.2-27.5,13.5-33.5
				c9-25.5,43.3-54.5,53.4-46.5c10.1,8-19.7,50-24.7,55c-5.1,5,1.7,24.5,24.2,22c22.5-3,40.6-32.9,40.6-32.9
				c7.9,40.2,24.4,34.7,39.1,16.4C930.3,101.5,930.2,101.4,930,101.3z M701,158.7c-8.2-1.3-7.1-8,4.5-18.7s19.1-12,19.1-12
				C716.4,160.7,709.3,160,701,158.7z M730.6,67.8c-18.4,35-27.7,36.3-37.1,33.3c-9.4-3-2.2-31.3-0.4-40c4.5-14,19.1-21.7,19.1-21.7
				C731,32.5,749,32.8,730.6,67.8z M802.6,53.5c14.6-57.3,33.3-71,33.3-71C844.1-17.5,818.3,42.5,802.6,53.5z"/>
		</g>
		<g>
			<path class="st5" d="M942.7-426c-6.4,8.4-18.5,31.2-26.3,5.3c-1.8-9,21-69,21-69c6.8-18.4,15.3-43.7,10.3-46.5
				c-5-2.8-19.9,35.6-27.4,56.2c-3.6,11.1-3.6,11.1-3.6,11.1c-13.5-28.3-43,0.1-47.3,6c-10,14-19.6,41.8-43.4,49.3
				c-23.8,7.5-29.5,1.9-30.6-25c39.1-7.5,62.6-32.8,39.8-41.8c-22.8-9-46.6,16.8-55.1,42.7c-17.1,33.7-41.3,40.3-39.7,15.5
				c5.2-33.9,23.7-76,19-86.9c-4.6-10.9-27.7,59.6-37.3,72.1c-21.3,33.4-29.2,36.2-30.9,21.8c-1.8-14.4,18.8-47.4,20.3-49
				c11-19.7-19.9-25-40.2-10c-15.3,14-15.3,14-15.3,14c6-24.6-6-25.3-11-5.9c-5,19.3-16.7,47.1-38,55.2s-34.5-4.7-30.2-27.8
				c59.7-13.4,49.4-36.2,43.4-40.6c-7.8-5.6-42.7-13.7-59,40.3c-6.4,17.2-12.8,17.5-12.8,17.5c-9.2-42.1-27.4-57.4-32.7-55.2
				c-5.3,2.2-21,39.9-32.4,50.2c-12.1,11.2-18.8,27.8-27,16.8c-8.5-11.2,26.7-58,26.7-58c3.9-10-10.7-22.8-34.1-10.3
				c-14.9,8.6-19.9,12.3-21.5,13.8c3.7-21.9-6.7-13.5-13.7,5.2c-9.2,21.8-16.7,28.4-29.2,32.1c29.2-59.9-18.1-53.7-18.1-53.7
				c-24.9,2.2-33.9,23.7-33.9,23.7c-7.7-6.5-17.3,20.3-17.3,20.3c-30.2,29-53,38.4-60.4,23.7c-8.2-16.5,0.7-64.3,33.1-60.5
				c8.9,1.2,9.2,14.7-0.7,25c-15.3,19.3,7.3,7.3,7.3,7.3c26.1-19.2,10.4-42.9-8.8-41c-19.2,1.9-53,20.3-44.1,68
				c9.6,47.7,72.5-13.4,72.5-13.4c3.2,39.6,43,36.2,65.1,8.4c11.4,3.7,23.8-10.6,23.8-10.6c-10,35.6-0.7,32.5,7.1,17.2
				c25.6-67.7,48-61.8,50.8-59.9c2.8,1.9-30.6,62.4-10.7,72.7c19.9,10.3,44.1-27.5,44.1-27.5c13.2-20.3,22.7-38.6,22.7-38.6
				c27.8,29,15,51.4,12.1,52.7c-8.2,3.1-17.1,8.1-25.6-1.9c-8.5-10-21.7,4.1-8.2,12.2c13.5,8.1,42.3,3.1,54.4-9.4
				c9.2-9.4,12.4-17.2,12.4-17.2c0,30.3,27.7,32.5,35.2,32.1c7.5-0.3,34.1-24,34.1-24c-8.2,30,9.2,34,11.4,15.3
				c2.1-18.7,17.8-69,47.3-66.8c13.5,1.6-6.8,33.7-7.8,35.3c-4.6,10.3-19.6,39,8.2,42.7c27.7,3.4,36.3-35.6,36.3-35.6
				c2.1,42.1,38.8,36.5,53.7,3.7c12.4,44,44.8,28.7,74.7,1.6c5,58.3,48-1.6,48.4-0.6c5.7,34.6,32.4,32.8,54.4-10.6
				C959.4-443.8,945.9-432.2,942.7-426z M829.8-475.6c8.9,2.8-2.1,16.5-7.1,20.3c-10,5.9-24.9,10.9-24.9,10.9
				C809.9-470.3,820.9-478.4,829.8-475.6z M610.6-475.6c8.9,2.8-2.1,16.5-7.1,20.3c-10,5.9-24.9,10.9-24.9,10.9
				C590.7-470.3,601.7-478.4,610.6-475.6z M333.2-409.4c-9.6-9.7-2.5-35.9-2.5-35.9c11.4,30,34.1,26.8,34.1,26.8
				C352.8-400.1,342.8-399.8,333.2-409.4z M369.3-423.8c0,0-5.9,3.1-19.4-4.1l-2.5-1.9c0,0,0,0-2.1-1.9s-7.5-10-2.1-29
				c4.3-12.5,19.9-17.8,29.5-15C382.3-472.8,386.9-454.7,369.3-423.8z M902-430.3c-20.3,26.7-26.1,24.8-33.1,18.7s4.3-38.8,8.5-45.4
				c9.1-17.3,19.2-15,19.2-15C910-471.1,922.3-457,902-430.3z"/>
			<path class="st5" d="M782.4-481.8c0-7.5-58.6-0.5-63.2,0.9c-6,1.9,46.6,2.8,55.9,3.3C786.4-477.6,782.4-481.8,782.4-481.8z"/>
		</g>
		<path class="st5" d="M415.1,13.9l2-8c2.3-7.7,4.6-16.3,6.5-24.5c0.6-2.5,1-4.6,1.3-6.3l0.9-3.7c-0.2,0.5-0.4,1-0.7,1.5
			c0.8-10.1-6.9,0.6-24.5,42.9c-7.8,1.1-16.3,2.2-25.7,3.6c0,0-0.7,3,7.5,4.1c1.4-0.2,7.1-0.2,15.2-0.4c-1.8,4.4-3.7,9.1-5.7,14.1
			c-20.5,35-39.1,60-43.9,62.7c-15-49.1-45.7-72.2-45.7-72.2c-72.6,103-83.8,96.5-74.8,67.5c21-50.9,13.5-86.4-3.7-55.6
			C195.3,1,142.9,61.4,139.2,66.8C125.7,88.7,128,82.1,128,82.1c-27.7,37.9-30.7,40.3-49.4,39.1c-18.7-1.2-6.7-39.1-6.7-39.1
			c1.5-4.7,2.9-9.4,4.3-14.1C134.7,21.8,152.9-29.4,140-38C121.2-50.5,95-38,75.6,2.2C65.8,22.4,52,49.6,46.7,74
			C11.7,97.8,5.9,109.9,5.9,109.9c27.3-9.2,18.3-7.9,38.7-20.1c-0.7,17.6,5.5,32.4,24.3,39.7c48.6,18.9,55.4-32,55.4-32
			c5.2,55.1,65.1,25.5,78.6,4.7c3.7,69.3,56.1,3,62.1-1.8c25.4-26,42-53.3,42-53.3c43.3,51,22.4,67.6,10.4,71.1
			c-12,3.6-32.2,4.1-43.4-8.3c5.2,33.7,43.4,16.6,53.9,14.2c15.7-5.3,41.2-12.4,47.9-34.3c-5.2,68.1,66.6,49.7,93.5-8.9
			c-47.9,47.4-68.9,49.1-71.8,25.5c-2.4-19.5,10.2-66.2,15.2-83.7c21.3-0.8,48.1-2.6,61.1-7.4C482.7,11.2,483.4,5.4,415.1,13.9z
			 M109.3-20.9c12.7-13.6,21.7-6.5,19.5,5.9c-2.2,12.4-9.7,32-29.2,50.3c-3.5,3.3-9.9,8.3-17.9,14.2C91.3,16.8,99.6-10.5,109.3-20.9
			z M204.7,64.7c0,0-5.2,24.3-15.7,36.4c-2.6,2.1-31.4,27.8-46.8,9.2c-15.3-18.6,16.5-54.8,34.4-63.3S210.3,44,204.7,64.7z"/>
		<g>
			<path class="st6" d="M492.7,242.2l-0.2-9.2c-2.9,6.6-9.1,10.5-16,10.5c-10.1,0-19.6-8.6-19.6-22.5c0-13.9,9.1-22.6,19.8-22.6
				c9,0,16.8,6.3,18.9,16.6l-4.5,0.2c-1.9-7.7-7.5-13-14.4-13c-8.3,0-15,7.6-15,18.8c0,11.1,6.8,18.7,15.2,18.7
				c8.6,0,13.9-8,14.7-15.1h-11.7v-3.7h16v21.3H492.7z"/>
			<path class="st6" d="M504,242.2v-31.4h4.1l0.1,7.5c2-5.6,6.2-8.7,10.3-8.7v4.1c-3.5-0.2-10.3,3.5-10.3,15v13.5H504z"/>
			<path class="st6" d="M551.3,231.7c-0.1,4.2-5.6,11.7-14,11.7c-8.4,0-14.8-7.5-14.8-16.8c0-9.5,6.5-17.1,14.7-17.1
				c8.2,0,14.3,7.4,14.4,15.6v2.2h-24.8c0.4,7.3,5,12.6,10.8,12.6c6.1,0,9.6-5.3,9.9-8.2H551.3z M547.4,224.3
				c-0.8-6.6-5.1-11.2-10.2-11.2c-5.2,0-9.6,4.6-10.4,11.2H547.4z"/>
			<path class="st6" d="M586.4,242.2h-4.1l-0.2-6.5c-2.1,4.6-5.8,7.8-10.9,7.8c-8,0-14-7.3-14-17.1c0-9.7,5.9-16.8,14-16.8
				c5,0,8.8,3,10.9,7.6l0.2-6.3h4.1V242.2z M582.3,226.4c0-7.7-4.5-13.2-10.4-13.2c-6,0-10.4,6.1-10.4,13.2
				c0,7.1,4.4,13.4,10.4,13.4C577.8,239.8,582.3,234,582.3,226.4z"/>
			<path class="st6" d="M609.7,242.3c0,0-1.2,0.3-3.1,0.3c-4.9,0-7.7-2.7-7.7-9.7v-19.3h-3.7v-2.9h3.7v-7.7h4.3v7.7h5.6v2.9h-5.6v19
				c0,4.9,1.5,6.6,4.5,6.6c1.3,0,2-0.1,2-0.1V242.3z"/>
			<path class="st6" d="M650.8,218.8c-0.4-3.9-3.3-5.9-7.6-5.9c-4.1,0-7,1.8-7,5.3c0,4.1,3.2,5.2,8.5,6.1c7,1,10.7,4.5,10.7,9.9
				c0,6.5-5.4,9.3-12.1,9.3c-7.6,0-11.6-3.9-12.4-10.4l3.8-0.2c0.6,4.5,3.6,7.2,8.8,7.2c4.6,0,7.8-2.3,7.8-5.8c0-3.9-3.2-6-8.5-6.6
				c-6.1-0.8-10.6-3.7-10.6-9.4c0-5.5,4.6-8.8,10.9-8.8c6.7,0,10.8,3.7,11.4,9.1L650.8,218.8z"/>
			<path class="st6" d="M689.8,231.7c-0.1,4.2-5.6,11.7-14,11.7c-8.4,0-14.8-7.5-14.8-16.8c0-9.5,6.5-17.1,14.7-17.1
				c8.2,0,14.3,7.4,14.4,15.6v2.2h-24.8c0.4,7.3,5,12.6,10.8,12.6c6.1,0,9.6-5.3,9.9-8.2H689.8z M685.8,224.3
				c-0.8-6.6-5.1-11.2-10.2-11.2c-5.2,0-9.6,4.6-10.4,11.2H685.8z"/>
			<path class="st6" d="M715.5,242.2l-9.5-12.9l-9.4,12.9h-4.5l11.8-15.9l-11.5-15.5h4.9l9.1,12.8l8.8-12.8h4.6l-11.3,15.5
				l12.1,15.9H715.5z"/>
			<path class="st6" d="M746.3,242.2h-4.1v-45.3h4.3v20.3c2.1-4.6,5.8-7.6,10.9-7.6c8,0,13.9,7.1,13.9,16.8c0,9.8-6,17.1-13.9,17.1
				c-5.1,0-8.9-3.2-11-7.8L746.3,242.2z M767.1,226.4c0-7.2-4.4-13.4-10.4-13.4c-5.8,0-10.4,5.6-10.4,13.4c0,7.8,4.6,13.6,10.4,13.6
				C762.6,240,767.1,233.6,767.1,226.4z"/>
			<path class="st6" d="M806.1,231.7c-0.1,4.2-5.6,11.7-14,11.7c-8.4,0-14.8-7.5-14.8-16.8c0-9.5,6.5-17.1,14.7-17.1
				c8.2,0,14.3,7.4,14.4,15.6v2.2h-24.8c0.4,7.3,5,12.6,10.8,12.6c6.1,0,9.6-5.3,9.9-8.2H806.1z M802.2,224.3
				c-0.8-6.6-5.1-11.2-10.2-11.2c-5.2,0-9.6,4.6-10.4,11.2H802.2z"/>
			<path class="st6" d="M837.2,235.3c-2,4.9-6,8.2-11.2,8.2c-8,0-14-7.1-14-16.9c0-9.9,5.9-17,14-17c5.2,0,9.1,3.3,11.1,8.2l0.1-6.9
				h3.9v30.7c0,9.8-6.4,14.3-14.1,14.3c-7.7,0-11.9-4.1-12.9-9.6l4.2-0.1c0.7,4.2,4,6.8,8.7,6.8c4.5,0,10.2-2.3,10.2-11.3V235.3z
				 M837.2,226.5c0-7.9-4.6-13.6-10.5-13.6c-6,0-10.4,6.3-10.4,13.6c0,7.3,4.5,13.6,10.4,13.6C832.6,240.1,837.2,234.3,837.2,226.5z
				"/>
			<path class="st6" d="M851.8,242.2v-31.4h4.3v31.4H851.8z M851.9,203.8v-7h4.3v7H851.9z"/>
			<path class="st6" d="M889.2,242.2v-18.9c-0.1-7-2.8-10-7.9-10c-5.8,0-10.1,5-10.4,14.1v14.8h-4.3v-31.4h4.1l0.1,7.1
				c1.9-4.8,5.8-8.4,11.8-8.4c6.6,0,10.8,4.2,10.8,12.9v19.8H889.2z"/>
			<path class="st6" d="M920.7,218.8c-0.4-3.9-3.3-5.9-7.6-5.9c-4.1,0-7,1.8-7,5.3c0,4.1,3.2,5.2,8.5,6.1c7,1,10.7,4.5,10.7,9.9
				c0,6.5-5.4,9.3-12.1,9.3c-7.6,0-11.6-3.9-12.4-10.4l3.8-0.2c0.6,4.5,3.6,7.2,8.8,7.2c4.6,0,7.8-2.3,7.8-5.8c0-3.9-3.2-6-8.5-6.6
				c-6.1-0.8-10.6-3.7-10.6-9.4c0-5.5,4.6-8.8,10.9-8.8c6.7,0,10.8,3.7,11.5,9.1L920.7,218.8z"/>
			<path class="st6" d="M481.3,310.2v-18.9c-0.1-7-2.8-10-7.9-10c-5.8,0-10.1,5-10.4,14.1v14.8h-4.2v-45.3h4.2v21
				c1.8-4.8,5.8-8.3,11.8-8.3c6.6,0,10.8,4.2,10.8,12.9v19.8H481.3z"/>
			<path class="st6" d="M493.7,294.5c0-10,6.2-16.9,15-16.9c8.7,0,15.1,6.9,15.1,16.8c0,10.1-6.3,17.1-15.1,17.1
				C500,311.4,493.7,304.5,493.7,294.5z M519.6,294.5c0-7.4-4.8-13.4-10.8-13.4c-6.2,0-10.8,6.1-10.8,13.4s4.6,13.4,10.8,13.4
				C514.8,307.9,519.6,301.9,519.6,294.5z"/>
			<path class="st6" d="M556.2,310.2l-6.9-27.8l-8.2,27.8h-4.4l-9.6-31.4h4.4l7.5,26.9l8.2-26.9h4.6l6.7,27.1l9.1-27.1h4.4
				l-11.2,31.4H556.2z"/>
			<path class="st6" d="M593.6,310.2v-31.4h4.3v31.4H593.6z M593.6,271.8v-7h4.3v7H593.6z"/>
			<path class="st6" d="M621.2,310.4c0,0-1.2,0.3-3.1,0.3c-4.9,0-7.7-2.7-7.7-9.7v-19.3h-3.7v-2.9h3.7v-7.7h4.3v7.7h5.6v2.9h-5.6v19
				c0,4.9,1.5,6.6,4.5,6.6c1.3,0,2-0.1,2-0.1V310.4z"/>
			<path class="st6" d="M672.1,299.8c-0.1,4.2-5.6,11.7-14,11.7s-14.8-7.5-14.8-16.8c0-9.5,6.5-17.1,14.7-17.1
				c8.2,0,14.3,7.4,14.4,15.6v2.2h-24.8c0.4,7.3,5,12.6,10.8,12.6c6.1,0,9.6-5.3,9.9-8.2H672.1z M668.2,292.3
				c-0.8-6.6-5.1-11.2-10.2-11.2c-5.2,0-9.6,4.6-10.4,11.2H668.2z"/>
			<path class="st6" d="M703,310.2v-18.9c-0.1-7-2.8-10-7.9-10c-5.8,0-10.1,5-10.4,14.1v14.8h-4.3v-31.4h4.1l0.1,7.1
				c1.9-4.8,5.8-8.4,11.8-8.4c6.6,0,10.8,4.2,10.8,12.9v19.8H703z"/>
			<path class="st6" d="M744.5,310.2h-4.1l-0.2-6.5c-2.1,4.6-5.8,7.8-10.9,7.8c-8,0-14-7.3-14-17.1c0-9.7,5.9-16.8,14-16.8
				c5,0,8.8,3,10.9,7.5v-20.2h4.3V310.2z M740.4,294.4c0-7.8-4.5-13.4-10.4-13.4c-6,0-10.4,6.1-10.4,13.4S724,308,730,308
				C735.9,308,740.4,302.2,740.4,294.4z"/>
			<path class="st6" d="M771.7,286.8c-0.4-3.9-3.3-5.9-7.6-5.9c-4.1,0-7,1.8-7,5.3c0,4.1,3.2,5.2,8.5,6.1c7,1,10.7,4.5,10.7,9.9
				c0,6.5-5.4,9.3-12.1,9.3c-7.6,0-11.6-3.9-12.4-10.4l3.8-0.2c0.6,4.5,3.6,7.2,8.8,7.2c4.6,0,7.8-2.3,7.8-5.8c0-3.9-3.2-6-8.5-6.6
				c-6.1-0.8-10.6-3.7-10.6-9.4c0-5.5,4.6-8.8,10.9-8.8c6.7,0,10.8,3.7,11.4,9.1L771.7,286.8z"/>
			<path class="st6" d="M784.1,310.2v-6.9h5.8v6.9H784.1z"/>
		</g>
		<polygon class="st2" points="0.4,-512.3 26.2,-512.3 44.9,-456.7 53.7,-485.3 70.9,-485.3 85.9,-456.7 91.2,-521.9 123,-521.9 
			116.8,-393.2 85.5,-393.2 65.2,-428.9 57.7,-395.4 20.2,-395.4 		"/>
		<g>
			<rect x="137.1" y="-513.1" class="st2" width="26.5" height="118.2"/>
			<rect x="137.1" y="-412.9" class="st2" width="60" height="23.3"/>
			<rect x="137.1" y="-463.6" class="st2" width="60" height="23.3"/>
			<rect x="137.1" y="-513" class="st2" width="60" height="23.3"/>
		</g>
		<g>
			<path class="st6" d="M235.8-289.7c-4.7-31.2,15.6-38.2,27.1-38.8c11.5-0.6,22.4-1.2,22.4-1.2v-21.8c0,0-72.6-22.9-75.3,50
				c-2.7,72.9,84.1,45.3,84.1,45.3v-22.9C294.1-279.1,240.5-258.6,235.8-289.7z"/>
			<path class="st6" d="M332.5-308v-42.7H304v98.3h28.5v-38.8c11.8-2.1,24.2,8.1,23.4,40.9c0,0,25.2,0.9,26.6,0
				C387.6-310.3,364.1-322.9,332.5-308z"/>
			<polygon class="st6" points="719.8,-355.4 693.3,-355.4 693.3,-355.3 693.3,-331.9 693.3,-315.7 693.3,-290.2 693.3,-280 
				693.3,-260.7 693.3,-256.4 747.6,-256.4 747.6,-280 719.8,-280 719.8,-290.2 747.6,-290.2 747.6,-315.7 719.8,-315.7 
				719.8,-331.9 747.6,-331.9 747.6,-355.3 719.8,-355.3 			"/>
			<polygon class="st6" points="519.8,-329.3 536.2,-329.3 536.2,-259.2 562.7,-259.2 562.7,-329.3 579.8,-329.3 579.8,-352.6 
				519.8,-352.6 			"/>
			<polygon class="st6" points="649.6,-325.5 624.9,-325.5 624.9,-351.9 598.4,-351.9 598.4,-259.9 624.9,-259.9 624.9,-302.2 
				649.6,-302.2 649.6,-259.9 676.1,-259.9 676.1,-351.9 649.6,-351.9 			"/>
			<path class="st6" d="M856.7-362.2c-6.2-1.5-10.9,0.3-10.9,0.3s-8.2,25.9,12.9,27.3c0,15,2.1,16.2,2.1,16.2s8.5-3.2,10-20
				C872.3-355.1,862.9-360.7,856.7-362.2z"/>
			<path class="st6" d="M919.1-323.6c-13.5-5.2-10.3-14.3-3.2-16.9c7.4-2.6,21.8,4.7,21.8,4.7v-18.5c0,0-50.3-13.8-50.9,23.4
				c0.6,15.6,15.3,21.4,24.7,33.3c9.4,12-2.6,16.9-22.4,14.1c0.9,0.5,0,26,0,26s50.3,12.5,57.1-19.3
				C952.4-310,923.2-320.7,919.1-323.6z"/>
			<path class="st6" d="M80.5-295.6c0,0-24.7,26.5-34.7,6.5c-4.7-13.5,1.8-20,1.8-20h44.1c0,0,9.5-46.4-38.8-45.3
				s-46.5,63.5-27.7,87.6c18.8,24.1,55.9,20.6,73-10.6C97.2-274.9,80.5-295.6,80.5-295.6z M46.6-335.3c1.8-5.3,10.6-7.1,10.6-7.1
				c12.8-0.9,14.1,20.3,12.8,19.8c-1.3-0.4-24.3,0-24.3,0S44.9-330,46.6-335.3z"/>
			<path class="st6" d="M170.1-338.2c-26.5-17.1-66.6,3.5-59,51.4c6.2,40.3,41.1,35.5,59,21.6v12.9h26.5v-98.3h-26.5V-338.2z
				 M168-282.8c-32.2,12.3-43.7-0.4-43.7-19.4c-1.8-20.3,15.9-25.1,22.5-26c6.6-0.9,21.2,1.8,21.2,1.8V-282.8z"/>
			<path class="st6" d="M473.8-358.9c-22.5,0-40.8,23.7-40.8,53c0,29.3,18.2,53,40.8,53s40.8-23.7,40.8-53
				C514.5-335.1,496.3-358.9,473.8-358.9z M473.8-278.8c-11.5,0-20.9-12.2-20.9-27.1c0-15,9.4-27.1,20.9-27.1
				c11.5,0,20.9,12.2,20.9,27.1C494.6-290.9,485.3-278.8,473.8-278.8z"/>
			<path class="st6" d="M833.2-324.5c2.9-23-3.5-30.2-39.2-31.7v-0.2h-7.5c-5.7-0.1-12-0.1-19,0v96.3H794v-34.3l18.5,39.1h23.4
				l-22.1-46.3C813.8-301.6,829.7-296.8,833.2-324.5z M791.7-315.5l0.9-29.1c0,0,24.3,0,21.6,16.3
				C811.6-311.9,791.7-315.5,791.7-315.5z"/>
		</g>
		<g>
			<path class="st5" d="M915.5,506.1c12.9-0.7-13.6,69.8-17.9,83.9c-7.2,22.8-12.9,32.2-13.6,16.1c-0.7-16.1,16.5-71.1,17.9-78.5
				C907.6,512.8,915.5,506.1,915.5,506.1z"/>
			<path class="st5" d="M751.6,566.4c-8.4,29-28.4,54.6-36.2,51.6c-7.7-3-4.5-39.2,5.2-63.4c2.8-7.2,4-14.1,4-20.5
				c-0.3,0.4-0.5,0.6-0.5,0.6c0.1-7.1-0.7-12.9-2.1-17.6c-0.7-2.2-1.5-4.4-2.5-6.4c-3.5-7-8.4-10.4-12.2-11.2
				c-4-0.9-4.1,3.1-2.9,7.3c5,8.6,6.1,20.1,0.7,34.1c-15.5,39.8-20,88.7,16.1,86.9c19-1.9,25.6-19.4,27.6-27.1
				c-13.8,64.8-23.3,74.2-34.7,74.8c-11.6,0.6-17.4-7.2-6.5-18.7c11-11.5-14.2-7.2-21.3,6c-7.1,13.3,6.5,27.8,32.3,21.1
				c25.8-6.6,39.4-70,40-72.4C771.6,548.6,758.7,543.5,751.6,566.4z"/>
			<path class="st5" d="M838.7,550.4c-1.4,4-19.4,63.1-28,69.8c-8.6,6.7-26.6,11.4-23.7-29.5c0,0,45.2-16.8,33.7-35.6
				c-11.5-18.8-30.1-12.8-44.5,37.6c0,0-2.9,6.7,0,20.8c2.9,14.1,13.6,24.2,26.6,22.1c12.9-2,29.4-34.9,35.2-59.7
				c2.2-19.5,10-10.1,13.6,12.1c2.2,13.4,0,38.9-15.8,33.6c-9.3-3.4-18.7,3.4-5,10.1c13.6,6.7,31.6,5.4,32.3-30.9
				C866,566.5,839.5,535.7,838.7,550.4z M809.9,553.8c5.9,2.8,4.3,14.1-7.5,21.6c-11.8,7.5-14,7.3-14,6.5
				C795.3,558.6,809.9,553.8,809.9,553.8z"/>
			<path class="st5" d="M885.4,624.9c11.5,0,10.8,11.4,2.2,13.4s-13.6-4.7-10.8-8.1C879.7,626.9,885.4,624.9,885.4,624.9z"/>
		</g>
		<g>
			<path class="st3" d="M715.7,443.1l-11.3-38.2h-0.1l-11.9,38.2h-5.3l-12.2-42.5h4.8l10.1,38.6l11.7-38.6h5.8l10.8,37.6l10.4-37.6
				h4.5l-12.8,42.5H715.7z"/>
			<path class="st3" d="M738,443.1v-31.4h4.2v31.4H738z M738.1,404.8v-7h4.3v7H738.1z"/>
			<path class="st3" d="M765.6,443.3c0,0-1.2,0.3-3.1,0.3c-4.9,0-7.7-2.7-7.7-9.7v-19.3h-3.7v-2.9h3.7v-7.7h4.3v7.7h5.6v2.9h-5.6v19
				c0,4.9,1.5,6.6,4.5,6.6c1.3,0,2-0.1,2-0.1V443.3z"/>
			<path class="st3" d="M796.8,443.1v-18.9c-0.1-7-2.8-10-7.9-10c-5.8,0-10.1,5-10.4,14.1v14.8h-4.3v-45.3h4.3v21
				c1.8-4.8,5.8-8.3,11.8-8.3c6.6,0,10.8,4.2,10.8,12.9v19.8H796.8z"/>
			<path class="st3" d="M836.8,443.1v-18.6l-13.5-23.9h5l10.9,20.1l11.5-20.1h4.5l-13.8,23.7v18.8H836.8z"/>
			<path class="st3" d="M882.2,432.7c-0.1,4.3-5.6,11.7-14,11.7c-8.4,0-14.8-7.5-14.8-16.8c0-9.5,6.5-17.1,14.7-17.1
				c8.2,0,14.3,7.4,14.4,15.6v2.2h-24.8c0.4,7.3,5,12.6,10.8,12.6c6.1,0,9.6-5.3,9.9-8.2H882.2z M878.3,425.2
				c-0.8-6.6-5.1-11.2-10.2-11.2c-5.2,0-9.6,4.6-10.4,11.2H878.3z"/>
			<path class="st3" d="M907.2,419.8c-0.4-3.9-3.3-5.9-7.6-5.9c-4.1,0-7,1.8-7,5.3c0,4.1,3.2,5.2,8.5,6.1c7,1,10.7,4.5,10.7,9.9
				c0,6.5-5.4,9.3-12.1,9.3c-7.6,0-11.6-3.9-12.4-10.4l3.8-0.2c0.6,4.5,3.6,7.2,8.8,7.2c4.6,0,7.8-2.3,7.8-5.8c0-3.9-3.2-6-8.5-6.6
				c-6.1-0.8-10.6-3.7-10.6-9.4c0-5.5,4.6-8.8,10.9-8.8c6.7,0,10.8,3.7,11.5,9.1L907.2,419.8z"/>
			<path class="st3" d="M919.8,448.3c1.6-0.5,2.4-1.7,2.6-5.1h-2.8v-6.9h5.8v6.9c0,4.1-2,7.4-5.6,8V448.3z"/>
			<path class="st3" d="M770.3,511.2v-18.6l-13.5-23.9h5l10.9,20.1l11.5-20.1h4.5l-13.8,23.7v18.8H770.3z"/>
			<path class="st3" d="M815.7,500.7c-0.1,4.2-5.6,11.7-14,11.7c-8.4,0-14.8-7.5-14.8-16.8c0-9.5,6.5-17.1,14.7-17.1
				c8.2,0,14.3,7.4,14.4,15.6v2.2h-24.8c0.4,7.3,5,12.6,10.8,12.6c6.1,0,9.6-5.3,9.9-8.2H815.7z M811.8,493.3
				c-0.8-6.6-5.1-11.2-10.2-11.2c-5.2,0-9.6,4.6-10.4,11.2H811.8z"/>
			<path class="st3" d="M840.7,487.8c-0.4-3.9-3.3-5.9-7.6-5.9c-4.1,0-7,1.8-7,5.3c0,4.1,3.2,5.2,8.5,6.1c7,1,10.7,4.5,10.7,9.9
				c0,6.5-5.4,9.3-12.1,9.3c-7.6,0-11.6-3.9-12.4-10.4l3.8-0.2c0.6,4.5,3.6,7.2,8.8,7.2c4.6,0,7.8-2.3,7.8-5.8c0-3.9-3.2-6-8.5-6.6
				c-6.1-0.8-10.6-3.7-10.6-9.4c0-5.5,4.6-8.8,10.9-8.8c6.7,0,10.8,3.7,11.5,9.1L840.7,487.8z"/>
			<path class="st3" d="M853.3,516.3c1.6-0.5,2.4-1.7,2.6-5.1h-2.8v-6.9h5.8v6.9c0,4.1-2,7.4-5.6,8V516.3z"/>
		</g>
		<g>
			<path class="st5" d="M7.8,333.4c-0.3-1.4-0.6-2.7-0.9-4.2c3-2.2,5.8-4.2,8.5-6.3c1.6-1.3,3.5-2.5,4.3-4.2
				c2.7-6.3,7.7-10,13.8-13.2c-0.4-5.9-2.4-12.2,2.9-17c-1.3-3.8-3.3-6.6-5.5-9.3c-3.7-4.4-3.6-8.9-1.2-13.8c2.8-5.6,7-10,11.9-13.7
				c1.8-1.4,3.6-2.7,5.6-4.2c-0.3-3.4-0.7-6.6-1-9.7c-0.4-5.4,0.7-10.4,3.8-15c2.7-4,6.1-7,11-7.8c2-0.3,3.9-1,6.1-1.7
				c0.6-1.9,1.1-3.9,1.8-5.7c2.4-6.7,7.1-10.5,14.1-11.2c4.6-0.5,9.2-0.6,13.7,1.1c1.9,0.7,3.9,1.1,6.2,1.7c2.3-2.1,4.6-4.2,6.9-6.4
				c5.6-5.4,12.4-7.3,19.9-7.2c4,0,7.3,1.6,9.9,4.7c1.8,2.2,3.8,4.3,6,6.6c2.2-1.1,4-1.8,5.7-2.8c2-1.2,3.7-2.8,5.8-3.9
				c3.1-1.6,6.1-1.4,8.7,1.3c1.2,1.3,2.3,2.7,3.7,3.7c2.9,2.2,3.8,4.8,2.8,8.4c-0.5,1.9-0.6,4.1-0.4,6.1c0.7,6.6-0.9,12.6-4.1,18.5
				c-2.5,4.6-1.7,6.8,2.9,10.9c0.4-0.4,1.1-0.7,1.1-1.1c0.1-5.9,2.9-10.7,6.1-15.1c7.1-9.7,15.3-18.3,25.9-24.2
				c13.6-7.7,27.9-13,43.8-11.6c13.9,1.3,27.5,3.8,39.6,11.4c2.2,1.4,4.5,2.7,6.8,3.9c14.7,7.5,22.6,20.2,27.1,35.7
				c3.3,11.3,1.5,21.9-3.1,32.4c-0.9,2.1-2,4.2-3.1,6.5c3.1,3,4.1,7.5,7.9,10.2c3.3,2.3,3,2.7,1,8.7c1.4,1.1,2.8,2.6,4.5,3.4
				c11,5.2,22.2,9.8,34.2,12.1c4.2,0.8,8.5,2.1,12.4,3.8c12.4,5.5,25.1,5.9,38.1,2.6c6.5-1.6,12.9-3,19.7-2.5
				c7.9,0.5,16.4,6.8,18.9,14.4c0.3,0.8,0.5,1.7,0.6,2.5c0.5,2.5,0.3,5.5,1.6,7.4c1.7,2.5,4.5,4.6,7.2,6.2c7,4,13.8,8.1,22.4,8.4
				c8.9,0.3,18,1.4,26.6,3.5c11.6,2.9,22.4,7.9,30.3,17.6c8.1,10,18.3,16.6,30.5,20.6c6.3,2.1,12.6,4.2,18.4,7.8
				c9.4,5.9,16.2,14,21.5,23.6c1.5,2.7,2.3,6,3,9.1c3.8,16.7,5,33.4,1.9,50.4c-0.6,3.2-1,6.3-1.5,9.5c-0.8,5.6-0.4,10.9,1.8,16.3
				c2.7,6.7,5,13.7,7.1,20.6c2.5,8.3,2,17,0.4,25.2c-1.2,6.1-4.8,11.8-7.8,17.4c-1.5,2.9-4.6,4.3-7.7,5.3
				c-5.2,1.6-10.4,3.5-15.7,4.9c-12.5,3.2-23.9,8.8-34.5,16.1c-8.7,6-28.8,29.2-33.2,38.9c-1.8,4-4.1,7.7-6.6,11.2
				c-2,2.9-4.1,5.7-5.9,8.7c-6.8,11.4-16.2,19.7-28,25.4c-7.9,3.9-16.4,5.5-25,6.9c-11.1,1.8-22.4,2.7-33.3,5.6
				c-7.9,2.1-15.2,5.4-22.2,9.5c-9.3,5.5-17.4,12.6-26.1,18.9c-8.9,6.4-18.7,9.8-29.3,8.9c-13.9-1.1-25.5-7.2-33.3-19.4
				c-0.9-1.5-1.9-2.9-2.9-4.5c-3,0-5.8,0-9,0c-1.8,4-2.2,7.9-1.7,12.5c0.8,6.6,0.2,13.4,0.3,20c0,1.7,0.4,3.5,0.1,5.2
				c-0.4,2.3-1.2,4.5-2,7.3c-2,0.4-4.1,0.8-5.9,1.1c-0.9-0.8-1.4-1.1-1.7-1.6c-3.5-6.2-4.9-12.9-4.8-20.1c0.2-7.3-0.2-14.6-0.2-21.9
				c0-5.3-2.4-8.5-7.4-10.5c-8.3-3.4-16.5-7.2-24.5-11.2c-5.7-2.9-11.2-6.2-16.4-9.8c-15.9-11.2-31.7-22.6-47.2-34.2
				c-9.8-7.3-20.2-13.6-30.4-20.3c-14.3-9.5-28.4-19.1-42.7-28.6c-5.5-3.7-11.1-7.3-16.8-10.8c-15-9.1-27.8-20.9-40.8-32.5
				c-5.2-4.7-10.3-9.4-15.6-14c-1.4-1.3-3.3-2-5.4-3.3c-0.7,2.1-1.6,3.7-1.8,5.3c-1.3,8.9-2.3,17.9-3.7,26.8
				c-1.1,7.2-2.2,8.2-10.5,9.2c-2.3-2.2-3.1-5.2-3.1-8.5c0-6.7-0.3-13.5,0.3-20.1c0.4-4.4,0.5-8.7,0.2-13c-0.3-3.8-0.7-7.7,0-11.4
				c1.8-8.5-0.5-16.2-3.6-23.8c-2.3-5.5-3.4-11.1-3.6-17c-0.3-6.4-1-12.8-0.9-19.2c0.1-8.2,0.5-16.3,1.1-24.5
				c0.8-11.3,1.7-22.7,4.2-33.9c0.8-3.7,0.4-7.6,1.1-11.3c0.9-4.8,1.7-9.7,3.6-14.3c1.7-4.2,1.3-8.1-2.3-12c-5.4-6-6.8-14-8.5-21.7
				c-1.2-5.6-1.6-11.5-4.8-16.5c2.5,0.4,4.5,1.4,5.4,3.9c1.2,3.6,2.3,7.2,3.2,10.9c2.2,8.6,5.5,16.7,12.2,22.7
				c3.4,3.1,7.4,5.6,11.1,8.5c3.6,2.8,7,5.8,11.2,9.2c0-1.9,0.1-3,0-4.1c-0.7-5.5-1.5-11-2.3-16.5c-1.6-11.2-5.3-21.5-13.9-29.4
				c-0.8-0.8-1.4-1.9-2.2-2.7c-2.2-2.4-2.6-4.9-1.4-8c2-5.2,4.4-10.1,9.1-13.5c1.3-0.9,2.1-2.4,3.2-3.6c-2-1.8-3.7-3.1-5.8-1.9
				c-4.8,2.7-9.8,5.3-12.7,10.3C20.7,325.8,14.6,330,7.8,333.4z"/>
			<path class="st5" d="M46.1,301.7c0,0-27.3,16.4-31.1,24s-7.1,7.7-7.1,7.7l13.7,36c22.9,25.1,43.7,26.8,45.3,26.8
				S89.8,335,89.8,335L46.1,301.7z"/>
			<path class="st1" d="M329.4,333c-8.4-4.7-17.3-8.8-27.1-8.2c-5.9,0.4-10-2.1-13.9-5.7c-3.6-3.4-5.6-7.4-3.3-12.5
				c0.6-1.3,0.8-2.8,1.5-4.1c4.8-9.6,6.2-20,6.5-30.6c0-1.1-0.5-2.1-0.7-3.2c-1.8-0.1-3.2-0.2-4.6-0.3c-0.6-1.7-1.5-3.2,0.5-4.7
				c1.1-0.8,2.4-2.1,2.5-3.3c0.4-5.8,0.9-11.7-4.1-15.4c-4.2-0.7-4.7,3.2-7.3,5.2c-0.7-2.6-1.2-4.4-1.8-6.5c-3.6,0-7.2,0.7-10.3-0.2
				c-3.1-0.9-5.8-3.4-8.7-5.3c-8.3,3.7-15.5,10.6-25.9,7.4c4.7-2,9.3-4.2,14.1-6c5-2,8.8-6.5,14.2-7.8c4.9,7,4.9,7,13.5,7.3
				c1.7,0.1,3.6,0.2,5,0.9c1.5,0.8,2.6,0.7,4,0.2c4-1.6,6.7,0.7,8.9,3.6c2.1,2.8,3.3,6.1,3.5,9.7c0.3,4.1,0.7,8.1,1.3,12.1
				c0.8,5.5,1.1,11,0.3,16.5c-0.2,1.3-0.8,2.8,0.9,3.8c5.4-1.3,9.1-4.9,11.5-9.7c2.7-5.2,5.2-10.4,7-16c1.6-4.9,2-9.8,1.2-14.7
				c-1.4-8.4-4.1-16.4-9.4-23.2c-5.4-7-11.7-12.5-19.7-16.7c-11.2-5.9-22.5-10.7-35.1-12.1c-8.9-1-17.7-1.8-26.6,1
				c-5.3,1.7-10.5,3.5-15.3,5.9c-10.1,5.1-20.2,10.3-26.2,20.7c-0.4,0.7-1,1.4-1.7,2c-5.5,4.8-7.6,11.6-10.6,17.8
				c-1.6,3.4-1,6.1,1.7,8.9c1.4,0.4,3.1,0.8,4.7,1.2c5.9,1.6,7.5,3.5,8.2,9.6c0.8,6.2-1.2,11.4-5.4,15.7c1.1,4.3,2.5,8.2,2.9,12.2
				c0.6,5.9,4.3,9.4,8.6,12.4c5.8,4,12.4,6.2,19.1,8.1c0.4,0.1,1-0.4,1.6-0.7c-2-4.2-4.5-8.2-5.9-12.5c-1.5-4.6-2.2-9.6-3.1-14.5
				c-0.4-2-0.7-4.1-0.6-6c0.6-7.5,1.4-15.1,2.1-22.6c0.1-1.4,0-2.8,0-3.7c-1.7-2-4.5-0.3-5.7-3.6c1.5,0,2.6,0,3.7,0
				c6.8-0.2,13.1-1.8,19.1-5.2c4.8-2.7,9.8-5.1,14.7-7.4c1.5-0.7,3.2-1.3,4.9-1.6c0.6-0.1,1.7,0.7,2,1.3c0.3,0.6,0.3,1.9-0.2,2.3
				c-1,0.9-2.3,1.7-3.6,2.2c-9.9,3.9-18.9,10.2-29.5,11.8c-0.8,2.8-1.5,5-2,7.2c-1.7,7.4-3.4,15.2-1.8,22.5c1.8,8.4,4,16.9,9.3,24.3
				c7.5,10.5,16.8,16.6,30,15.6c2.9-0.2,5.8,0,8.7-0.3c5.9-0.8,10.1,1.6,13.2,6.4c1.4,2.2,2.9,4.3,4.5,6.6c-1.2,2.3-2.3,4.4-3.4,6.3
				c-2.7,4.6-4.3,9.6-5.3,14.8c-1,5.1-0.3,7.8,3.5,14.3c11.3-10.1,20.3-22.3,31.2-32.6c3.2,2.7,3.6,3.3,2.3,4.8
				c-2.8,3.3-5.7,6.6-8.6,9.8c-9,9.9-17.8,20-29.3,27.2c-8.6,5.5-17.5,10.4-27.7,12c-7.4,1.1-14.5,1-19.7-5.6
				c-0.3-0.4-0.9-0.4-1.5-0.6c-1.7,2.7,1,4.2,1.7,6.2c0.6,1.8-0.1,4.3-1.6,4.3c-5.1,0.2-7.6,5-12.1,6.2c-0.7,0.2-1.7,1-1.8,1.7
				c-0.2,0.7-0.1,1.7,0.1,2.4c0.7,0.4,1.9,0.6,3.8,0.4c1-0.7,1.9-1.5,2.9-2.1c2.9-1.8,5-4.9,8.9-5.5c0.2,1,0.8,2.1,0.5,2.5
				c-1,1.4-2.3,2.6-3.5,3.7c-2.5,2.3-5.7,3.8-8,6.8c0.2,2.4,2.7,4.9,5.1,6.6c0.2-0.7,0.6-1.4,1.2-2.1c3-3.9,6.6-7.2,10.2-10.6
				c0.8-0.8,2.6-1.5,4,0.5c-1.2,3.3-5,4.4-6.9,7.3c-1.1,1.7-2.7,3-3.8,4.6c-0.4,0.5-0.3,2.2,0,2.3c0.3,0.2,0.8,0.3,1.2,0.4
				c0.6,0.1,1.1,0.1,1.6,0.1c0.1,0,0.2,0,0.3-0.1c3.8-2.6,8.2-4.8,10.9-8.4c2.5-3.2,5.4-4.4,8.7-5.9c3.4-1.5,6.5-3.9,9.9-5.3
				c12.7-5.3,23.9-13.1,35.4-20.4c6.8-4.4,12.9-9.8,17.4-16.9c6-9.6,12.2-19,18.3-28.3c4.1,1.1,4.6,2,3.2,4.5
				c-4.3,7.2-9.8,13.8-12.9,21.7c-0.5,1.3-1.7,2.4-2.6,3.5c-7.3,8-14.6,15.8-24.2,21.1c-1,0.5-1.8,1.4-2.9,2.3
				c1.4,2.5,2.7,4.6,6,4.6c8.1-8.2,16.4-16.3,24.3-24.9c8.1-8.7,15.7-17.9,23.6-26.9C334,335.5,331.6,334.2,329.4,333z"/>
			<path class="st6" d="M287,310.7c2.5,10.7,7.4,13.1,9.8,13.9c36.1,0,45.5,12.5,45.5,12.5c34-6,44.4-14.9,40.5-15
				c-42.6-13.9-68-25.4-68-25.4L287,310.7z"/>
			<path class="st6" d="M183.7,300.9l15.6,34.2l-23,11.1c52,24.5,58.2,33.3,58.2,33.3c23.8-18,35.3-43.7,32.4-49.7
				c-2.9-6-7.8-6.8-13.5-5.2c-15.6,7.4-36.2,9-36.2,9c-5.5-12.2-17-23.7-17-23.7L183.7,300.9z"/>
			<path class="st6" d="M306.6,665.5l-142.2-140c0,0-45.7,13.1-45.7-9.7c0,0-5.5-5.5,7.6-19.7c0,0,27.3-5.5,50-47.9
				c0,0-47.8-29.7-63.1-62.4c0,0-7.6,5.5-39.6,21c0,0-17.2-5.7-47.8-30.8l-2.7,28.8c0,0-10.4,52-8.3,87.6c2,3.6,4.6,6.9,6.5,10.7
				c2.9,5.6,2.8,11.2,3.7,17.2c0.2,1.4,0.5,2.7,0.9,4.1C59.5,557.9,228,670.8,228,670.8s39.3,39.5,84,41.2L306.6,665.5z"/>
			<path class="st1" d="M78.9,324.5c1.5,1.4,3,2.6,4.3,4c3.8,4.5,8.2,8.1,13.2,11.2c4.6,2.8,9.8,3.7,14.8,4.9c8,2,14.9,5,17.2,13.9
				c0.5,1.8,1.8,3,3.5,3.5c9.2,2.7,18.2,2.9,27.1-1.2c6.2-2.8,7.7-5.2,6.7-12.1c-0.4-3-0.3-5.7,1.1-8.5c2.8-5.7,5.6-11.5,8.1-17.3
				c2.3-5.3,5.1-10.6,6-16.3c1.1-6.5,0.6-13.4-1-20c-2.6-11.3-4.8-22.7-9.4-33.6c-2.7-6.5-6.3-12.3-9.8-17.8
				c-6.4,0.3-12.1,0.6-18.3,0.9c-1.2,1.2-2.8,2.5-4.1,4c-3.7,4.3-8.4,6.1-13.9,5.7c-2.9-0.2-5.8-0.4-8.6-0.9
				c-4.3-0.6-8.6-1-13.3-0.3c-0.7,6.3-4.1,10.7-9.5,13.6c-0.7,0.4-1.4,1-2,1.7c-3.4,3.6-5.5,7.5-3.7,12.6c0.9,2.5,1,5.2,1.9,7.6
				c1.4,3.8,1.7,7.7-0.3,11c-1.5,2.6,0,4.9-0.5,7.3c-1.5,0.6-2.9,1.1-4.2,1.6c-4.1,1.3-8.3,2.4-12.4,3.9c-2.2,0.8-4.1,2.3-4.2,5
				c0,2.1,2.7,3.5,6.3,3c4-0.6,7.9-1.6,11.9-2.3c1.7-0.3,3.6-0.5,4.4,2.7c-5.8,2.6-11.4,6-18.5,5.5c-2.8-0.2-5-1.4-7-3.1
				c-2.9-2.4-3.3-7.3-0.6-10.2c1.8-1.9,3.7-4.1,6-4.8c4.6-1.4,7.9-4.7,11.8-7.1c4.6-2.9,5.2-5.9,3.6-11.2c-1.3-4.2-2.6-8.4-3.4-12.6
				c-0.9-4.9,0.6-9.2,4.7-12.4c1.6-1.2,3.2-2.5,4.8-3.7c3.5-2.5,6.1-5.3,5.7-10.1c-0.1-0.8,0.4-1.6,0.7-2.8c1.3-0.2,2.7-0.7,4.1-0.7
				c6.9,0,13.9-0.2,20.8,0.4c6.4,0.5,11.3-1.4,15.1-6.6c0.7-1,1.2-2,1.6-2.7c5.3,0,9.6,0.1,14,0c5.4-0.2,9.4-3,11.4-8
				c1.1-2.6,1.9-5.5,2.1-8.3c0.3-4,0.1-8.2-0.3-12.2c-0.5-5.7-6.8-8.4-11.5-5.1c-2.1,1.5-4.1,3.2-6.4,4.6c-3.1,1.9-5.1,1.6-7.7-1.1
				c-1.4-1.5-2.8-3-3.9-4.7c-1.9-3.1-4.9-4.3-8.1-4.3c-5.8,0-11.6,0.7-16.1,5.1c-3.3,3.2-6.7,6.3-10.3,9.6c-1.8-0.8-3.3-1.5-4.9-2.1
				c-5.3-1.8-10.6-2.9-16.2-1.4c-4.9,1.3-8.4,3.8-9.7,8.9c-0.4,1.7-0.7,3.5-1.6,5c-0.8,1.4-2.3,2.5-3.7,3.3
				c-0.9,0.5-2.3,0.4-3.4,0.5c-6.2,0.7-9.7,4.7-11.9,10.2c-1.6,3.9-1.8,7.9-1,12.1c0.5,2.8,0.8,5.7,1.2,8.5c-3,2.2-5.7,3.9-8,6
				c-3.2,3-6.3,6-8.9,9.5c-2.6,3.6-2.9,7.5,0.5,11.1c1.2,1.3,2.4,2.6,3.2,4.2c2.1,4.2,4,8.2,0.2,12.9c-2.4,2.9-1.3,5.9,1.8,8.2
				c2.4,1.7,5,3,7.2,4.9c3.4,2.8,5.1,6.3,2.9,10.8c-0.6,1.2-0.6,2.7-0.8,4.2c2.8,1.7,5.3,3.1,7.7,4.6c2.1,1.3,3.2,3.4,3.1,5.9
				c0,1.2-0.4,2.3-0.4,3.5c0,3.4,2.5,5.5,5.8,4.4c5.1-1.8,10.1-3.9,15.1-5.9C80.5,331.4,76.7,329,78.9,324.5z"/>
			<path class="st2" d="M430.7,338.2c-0.4,3.6-0.3,3.7-1.9,4.2c-4.5,1.4-8.3,4.1-12.4,6.3c-12.3,6.6-24.9,12.4-38.7,15
				c-5,0.9-9.3,3.1-13.5,5.8c-1.9,1.3-3.7,2.9-5.7,4.1c-10.2,5.9-18.6,13.9-25.2,23.6c-7.4,10.9-17.2,18.7-28.7,24.8
				c-11.8,6.2-23.5,12.6-34.4,20.4c-10.9,7.8-21.1,16.4-29.8,26.7c-3.7,4.4-7.4,9.1-10.1,14.2c-3.8,7.2-7.4,14.4-9.9,22.3
				c-2.3,7.3-6.4,13.7-12,19c-4,3.8-8.5,7-12.7,10.5c-14.9,12.6-23.2,29.4-30.2,47.6c4.1,1.4,8.3,1.1,11.6,4
				c4.3,3.9,8.8,7.4,12,12.5c2.6,4.2,5.9,8,9.2,11.6c5.4,5.7,11,11.3,16.7,16.6c4.9,4.6,10,8.8,16.4,11.2c2.9,1.1,5.6,3,8.2,4.9
				c15.3,11.1,31.7,19.2,50.4,19.2c3.1,2.6,5.7,4.8,8.4,7c4.2,3.4,7,7.7,8,13.1c1.4,7.4,2.5,14.9,7.7,21c0.6,0.8,0.3,2.3,0.7,3.4
				c4.1,10.6,11.1,18.3,22.2,21.7c12.7,3.9,24.6,2.2,35.5-5.4c5.9-4.2,11.6-8.7,17.3-13.1c11.4-8.9,24.2-15,38.3-17.9
				c11.3-2.3,22.8-3.8,34.2-5.6c13.1-2.2,24.8-7.2,34.5-16.8c4.6-4.6,8.5-9.4,11.8-15c3.4-5.7,7.6-10.9,10.7-16.9
				c2.5-4.9,5.6-9.5,8.9-13.9c2.6-3.5,6-6.4,8.5-9.9c7-10.1,16.8-16.8,26.9-23c3.4-2.1,7-4.2,10.8-5.5c8.2-2.9,16.5-5.2,24.8-7.8
				c6.5-2.1,11.7-5.2,15.1-11.9c5.5-11.1,6.6-22.2,3.5-33.9c-1-3.9-2.3-7.8-3.9-11.6c-4.8-11.6-6.4-23.2-3.6-35.8
				c3.5-15.8,2.6-31.8-1.1-47.7c-1.5-6.5-4.4-12-8.5-16.9c-7.2-8.7-16.5-14.5-27.2-18c-5.2-1.7-10.4-3.5-15.5-5.6
				c-9-3.8-15.8-10.6-22.1-17.9c-1.9-2.2-3.9-4.3-6.1-6.2c-7-6.2-15.7-8.7-24.4-10.6c-8.7-1.9-17.7-2.6-26.7-3.2
				c-3.3-0.2-6.1-0.9-9-2.5c-2.5-1.5-5.3-2.3-7.9-3.6c-1.8-0.9-3.7-1.8-5-3.3c-2.2-2.5-4.9-3.9-8-4.9c-0.7-0.2-1.2-1.2-1.9-2
				c0.8-2.2,1.6-4.3,2.4-6.3c-0.6-1.3-1-2.4-1.5-3.4c-3.6-7.5-9.4-11.3-17.9-11.4c-6.2,0-12.2,0.7-17.9,2.7
				c-3.5,1.2-7.5,0.4-10.5,3.5c-3.4,3.4-7.1-0.3-10.7,0c-0.9,0.1-1.7,0.3-2.5,0.5c-10.2,3.3-20.8,4.7-30.8,8.8
				c-7.8,3.2-15.1,7.2-21.8,12.3c-6.7,5.1-12.5,11.2-18.2,17.4c-6.9,7.5-14.4,14.4-21,22.1c-4.6,5.5-9.9,9.7-15.9,13.4
				c-3.9,2.5-7.7,5.2-11.5,7.8c-0.7,0.5-1.4,1.1-2.2,1.3c-7.4,2.5-14,6.7-20.7,10.6c-4.3,2.5-8.6,5-13.1,6.8
				c-9.4,3.8-19,6.9-28.5,10.6c-11.9,4.7-23.4,10.3-30.8,21.6c-1.8,2.7-3.4,5.4-5,8.1c-5.7,10.1-13,18.5-24.1,22.9
				c-1.6,0.6-3.3,1.3-4.8,2.1c-3.3,1.9-6.6,3.8-9.6,5.9c-4.8,3.4-7.4,8.2-6.5,14.3c0.5,3.7,0.8,7.6,2,11.1c1.9,6,1.2,11.4-2.1,16.7
				c-1.1,1.7-2.2,3.5-3,5.3c-2.7,5.8-1,10.2,5,12.6c2.1,0.9,4.5,1.1,6.7,1.9c4.9,1.8,7.2,5.7,6.6,10.9c-0.2,1.7-1.1,3.4-1,5.1
				c0.1,2.3,0.6,4.6,1.4,6.7c0.3,0.9,2.1,2,2.7,1.8c4.4-1.9,8.5-0.3,12.7,0.6c2.8,0.6,5.3-0.4,6.4-3.3c1.6-4,3-8.1,4.4-12.3
				c3.8-11.4,9-22,16.6-31.4c6.1-7.6,13.8-13.4,21.8-18.6c6.2-4,10-9.6,12.8-16.1c1.1-2.7,2-5.5,3-8.2c3.6-8.9,6.7-18.1,12.5-25.8
				c9.7-12.9,21-24,34.4-33.1c12.7-8.7,26.4-15.6,39.8-23.2c9-5.1,16.8-11.2,22.6-20c2.5-3.9,5.5-7.6,8.7-10.9
				c7.5-7.8,16.1-14.2,25.3-19.8c6-3.6,12.2-6.6,19.3-7.2c3.1-0.3,6.2-1.5,9.1-2.7c9.7-3.8,19.4-7.5,28.2-13.4
				C422.7,338.4,426.4,336.6,430.7,338.2z"/>
			<path class="st1" d="M141.8,420.4c4.1-7.5,5.5-15.1,4.4-23.1c-1.4-10.2-8.7-16.7-19.9-17.3c-1.1,1.4-2.3,3-3.6,4.5
				c-2,2.5-3.5,5.5-5.9,7.5c-7,5.6-12.7,12.7-19.5,18.5c-5.5,4.6-9.3,10.3-12.7,16.4c-2.7,4.7-3.9,9.8-3.2,15.1
				c0.6,4.3,1.2,8.7,2.5,12.8c2.3,7.5,4.9,14.9,7.8,22.2c1.8,4.8,2.6,9.3,1,14.4c-1,3.2-0.4,6.9-0.4,10.3c0,0.5,1.1,1.1,1.8,1.7
				c2.4-2.7,1-5.8,1.7-8.5c0.2-0.8,1.1-1.5,2.1-2.8c1.4,3.7,2.4,6.5,3.7,10.2c2.4-3.6,2.6-6.7,2.1-9.9c-0.2-1.5-0.4-2.9,1.4-3.6
				c2.1,3.1,3.1,4.2,5.8,5.9c2.5-5.3-0.9-9.4-3.3-13.9c2-1,3.5-1.8,5-2.4c1.6-0.7,3.4-1,4.8-1.9c0.8-0.5,1.7-1.8,1.6-2.7
				c-0.2-1.2-1.4-1.5-2.7-1c-1.6,0.6-3.2,1.3-4.9,1.7c-5.2,1.2-7.7,0.4-10.1-4.2c-5.6-10.6-8-21.7-4.8-33.6
				c2-7.4,5.7-14.1,10.9-19.6c5.1-5.5,10.8-10.6,16.5-15.5c2.4-2,5.4-3.4,8.3-4.7c1-0.5,2.6,0.3,4.2,0.5c-0.9,6.3-7.5,6.6-9.9,11.3
				c2.4,2,4.8,4.1,7.4,6C136.2,416.8,138.9,418.4,141.8,420.4z"/>
			<path class="st1" d="M232.7,382.9c-9.4-12-21.4-18.3-33.9-23.6c-4.2-1.8-8.9-3.8-15-1.6c2.3,1.2,3.8,2,5.2,2.8
				c4,2.3,8,4.6,11.9,7.1c3.5,2.3,6.3,5.1,6.3,9.8c0,0.6,1,1.3,1.6,1.9c0.6-0.1,1.4-0.1,1.7-0.4c2.6-3.1,5.4-2.9,8.4-0.9
				c1.2,0.8,2.5,1.6,3.4,2.7C224.9,383.7,228.1,383.8,232.7,382.9z"/>
			<path class="st1" d="M244.2,403.2c3.6,2.7,5.5,4.4,7.7,5.7c2.5,1.5,4,0.7,6.8-3.6c-1.5-0.4-2.8-0.5-3.9-1.2
				c-1.2-0.7-2.1-1.8-3.3-2.9C249.7,401.7,247.9,402.2,244.2,403.2z"/>
			<g>
				<path class="st7" d="M622.9,533c-2.1-7-4.4-13.9-7.1-20.6c-2.2-5.4-2.6-10.7-1.8-16.3c0.5-3.2,0.9-6.4,1.5-9.5
					c3.1-16.9,1.8-33.7-1.9-50.4c-0.7-3.1-1.5-6.4-3-9.1c-5.3-9.5-12.1-17.7-21.5-23.6c-5.8-3.6-12.1-5.7-18.4-7.8
					c-12.2-4-22.4-10.6-30.5-20.6c-7.9-9.7-18.7-14.8-30.3-17.6c-8.6-2.1-17.7-3.2-26.6-3.5c-8.6-0.3-15.4-4.3-22.4-8.4
					c-2.7-1.6-5.4-3.6-7.2-6.2c-1.3-1.9-1.1-4.9-1.6-7.4c-0.2-0.9-0.4-1.7-0.6-2.5c-2.5-7.6-11-13.8-18.9-14.4
					c-6.8-0.5-13.2,0.9-19.7,2.5c-13,3.3-25.7,2.8-38.1-2.6c-3.9-1.7-8.2-3-12.4-3.8c-12-2.4-23.2-6.9-34.2-12.1
					c-1.7-0.8-3.1-2.3-4.5-3.4c2-6,2.3-6.4-1-8.7c-3.8-2.7-4.8-7.1-7.9-10.2c1.1-2.3,2.2-4.4,3.1-6.5c4.6-10.4,6.4-21,3.1-32.4
					c-4.6-15.5-12.4-28.1-27.1-35.7c-2.3-1.2-4.6-2.5-6.8-3.9c-12.1-7.6-25.8-10.1-39.6-11.4c-15.9-1.4-30.2,3.9-43.8,11.6
					c-10.6,6-18.8,14.5-25.9,24.2c-3.2,4.4-6.1,9.2-6.1,15.1c0,0.4-0.7,0.7-1.1,1.1c-4.5-4-5.4-6.3-2.9-10.9
					c3.2-5.8,4.7-11.8,4.1-18.5c-0.2-2-0.1-4.2,0.4-6.1c1-3.6,0.1-6.2-2.8-8.4c-1.4-1-2.5-2.5-3.7-3.7c-2.6-2.8-5.6-2.9-8.7-1.3
					c-2,1.1-3.8,2.7-5.8,3.9c-1.7,1-3.5,1.8-5.7,2.8c-2.1-2.4-4.1-4.4-6-6.6c-2.6-3.2-5.9-4.7-9.9-4.7c-7.5-0.1-14.3,1.9-19.9,7.2
					c-2.3,2.2-4.6,4.3-6.9,6.4c-2.3-0.6-4.3-1-6.2-1.7c-4.5-1.7-9.1-1.5-13.7-1.1c-7,0.7-11.7,4.5-14.1,11.2
					c-0.7,1.9-1.2,3.8-1.8,5.7c-2.2,0.6-4.1,1.3-6.1,1.7c-5,0.8-8.3,3.8-11,7.8c-3.1,4.5-4.2,9.5-3.8,15c0.3,3.2,0.6,6.4,1,9.7
					c-2,1.5-3.8,2.8-5.6,4.2c-4.9,3.8-9.1,8.1-11.9,13.7c-2.4,4.9-2.5,9.4,1.2,13.8c2.2,2.6,4.2,5.5,5.5,9.3
					c-5.2,4.8-3.2,11.1-2.9,17c-6.1,3.2-11,7-13.8,13.2c-0.8,1.7-2.7,3-4.3,4.2c-2.7,2.1-5.5,4.1-8.5,6.3c0.3,1.5,0.6,2.8,0.9,4.1
					c0,0-0.1,0-0.1,0c3.2,5,3.6,10.9,4.8,16.5c1.7,7.7,3.1,15.7,8.5,21.7c3.5,3.9,4,7.8,2.3,12c-1.9,4.7-2.7,9.5-3.6,14.3
					c-0.7,3.7-0.3,7.6-1.1,11.3c-2.5,11.2-3.3,22.5-4.2,33.9c-0.6,8.1-1,16.3-1.1,24.5c0,6.4,0.6,12.8,0.9,19.2
					c0.3,5.9,1.4,11.6,3.6,17c3.2,7.6,5.4,15.3,3.6,23.8c-0.8,3.6-0.3,7.6,0,11.4c0.3,4.4,0.2,8.6-0.2,13
					c-0.6,6.7-0.3,13.4-0.3,20.1c0,3.3,0.8,6.3,3.1,8.5c8.3-1,9.4-1.9,10.5-9.2c1.3-8.9,2.4-17.9,3.7-26.8c0.2-1.6,1.1-3.2,1.8-5.3
					c2.1,1.3,4,2.1,5.4,3.3c5.3,4.6,10.4,9.3,15.6,14c13,11.7,25.8,23.5,40.8,32.5c5.7,3.5,11.3,7.1,16.8,10.8
					c14.3,9.5,28.4,19.1,42.7,28.6c10.1,6.7,20.6,13,30.4,20.3c15.6,11.7,31.4,23,47.2,34.2c5.2,3.7,10.7,7,16.4,9.8
					c8,4.1,16.2,7.9,24.5,11.2c5,2,7.3,5.2,7.4,10.5c0,7.3,0.4,14.6,0.2,21.9c-0.2,7.2,1.2,13.9,4.8,20.1c0.3,0.5,0.8,0.8,1.7,1.6
					c1.8-0.3,3.9-0.7,5.9-1.1c0.8-2.8,1.6-5,2-7.3c0.3-1.7-0.1-3.5-0.1-5.2c-0.1-6.7,0.5-13.4-0.3-20c-0.5-4.6-0.1-8.6,1.7-12.5h9
					c1,1.6,2,3,2.9,4.5c7.8,12.2,19.4,18.3,33.3,19.4c10.7,0.8,20.5-2.5,29.3-8.9c8.7-6.3,16.8-13.4,26.1-18.9
					c7.1-4.2,14.4-7.5,22.2-9.5c11-2.9,22.2-3.8,33.3-5.6c8.6-1.4,17.1-3.1,25-6.9c11.7-5.7,21.2-14.1,28-25.4
					c1.8-3,3.9-5.8,5.9-8.7c2.5-3.6,4.8-7.2,6.6-11.2c4.4-9.7,24.4-32.9,33.2-38.9c10.6-7.3,22-12.8,34.5-16.1
					c5.3-1.4,10.5-3.2,15.7-4.9c3.1-1,6.2-2.4,7.7-5.3c2.9-5.7,6.6-11.3,7.8-17.4C624.9,549.9,625.4,541.2,622.9,533z M364.2,317.6
					c4.7,1.1,9.3,2.8,14.8,4.6c-1.3,1.4-1.8,2.7-2.6,2.8c-11.2,2.1-21.6,6.3-31.6,11.5c-0.7,0.4-1.6,0.5-2.4,0.8
					c-9.5-9.6-20.7-15.7-34-17.7c-2.8-0.4-5.7-0.1-8.6-0.3c-4-0.3-8.3-0.1-10.6-5.8c3-1.8,5.7-3.6,8.4-5.1
					c5.1-2.8,10.3-5.3,15.3-8.1c2.5-1.4,4.7-1.6,7.2,0C333.6,308.9,348.7,313.8,364.2,317.6z M315.8,285.2c0.9,1.5,1.9,2.9,3.1,4.8
					c-7.5,7.3-17.2,10.7-26.5,15.1c0.5-6.9,2-10.1,5.8-12.9c4.8-3.6,9.7-7.1,15-11.1C314.1,282.5,314.9,283.8,315.8,285.2z
					 M173.3,241.3c3-6.3,5.1-13,10.6-17.8c0.6-0.6,1.2-1.3,1.7-2c6-10.5,16.1-15.7,26.2-20.7c4.9-2.5,10.1-4.3,15.3-5.9
					c8.9-2.8,17.7-2.1,26.6-1c12.6,1.4,23.9,6.3,35.1,12.1c8,4.2,14.3,9.7,19.7,16.7c5.3,6.9,8,14.8,9.4,23.2
					c0.8,4.9,0.4,9.8-1.2,14.7c-1.8,5.6-4.3,10.8-7,16c-2.5,4.8-6.1,8.4-11.5,9.7c-1.7-1-1.1-2.6-0.9-3.8c0.8-5.5,0.5-11-0.3-16.5
					c-0.6-4-1-8.1-1.3-12.1c-0.3-3.6-1.4-6.9-3.5-9.7c-2.1-2.8-4.7-5-8.5-3.7c-2,1.7-4,3.5-5.7,5.4c0.4,1.4,0.8,2.9,1.3,4.7
					c2.6-2,3.1-5.9,7.3-5.2c5,3.6,4.5,9.6,4.1,15.4c-0.1,1.2-1.4,2.5-2.5,3.3c-2,1.5-1.1,3-0.5,4.7c1.4,0.1,2.8,0.2,4.6,0.3
					c0.3,1.1,0.7,2.1,0.7,3.2c-0.3,10.6-1.7,20.9-6.5,30.6c-0.6,1.3-0.9,2.8-1.5,4.1c-2.3,5.1-0.3,9.2,3.3,12.5
					c3.9,3.6,8,6,13.9,5.7c9.8-0.6,18.7,3.5,27.1,8.2c2.2,1.2,4.7,2.5,5.2,5.3c-7.9,9-15.5,18.2-23.6,26.9
					c-7.9,8.5-16.2,16.6-24.3,24.9c-3.3,0-4.6-2.1-6-4.6c1.1-0.9,1.9-1.8,2.9-2.3c9.6-5.3,16.9-13.1,24.2-21.1
					c1-1.1,2.1-2.2,2.6-3.5c3.1-8,8.5-14.5,12.9-21.7c1.5-2.5,1-3.3-3.2-4.5c-6,9.3-12.3,18.8-18.3,28.3
					c-4.4,7.1-10.5,12.5-17.4,16.9c-11.5,7.3-22.7,15.2-35.4,20.4c-3.4,1.4-6.5,3.8-9.9,5.3c-3.3,1.5-6.2,2.7-8.7,5.9
					c-2.7,3.5-7.1,5.8-10.9,8.4c-0.7,0.5-2.1,0-3.1-0.4c-0.3-0.1-0.3-1.7,0-2.3c1.1-1.6,2.7-3,3.8-4.6c1.9-2.9,5.7-3.9,6.9-7.3
					c-1.5-2-3.2-1.3-4-0.5c-3.6,3.4-7.2,6.7-10.2,10.6c-2.8,3.6-1.5,7.5,2.6,9.3c1,0.5,2.6,0.9,3.3,0.4c3.5-2.5,8.1-2.9,11-6.6
					c3-3.9,6.7-7.2,11.1-9.9c2.7,1.8,5.7,3,7.7,6.1c-3.6,3.7-8,5.9-12.4,7.8c-8.7,3.8-17.7,7.1-26.6,10.5
					c-12,4.5-23.8,9.2-33.5,17.5c-2.9,0.7-4.6-1-6.4-2.5c-7.9-6.9-15.7-13.8-23.6-20.8c0-3.4,1.2-6.4,2.3-9.3
					c1.6-4.2,2.1-8.5,2.2-12.9c0.5-12.2-4.8-20.6-15.8-25.6c-0.5-0.2-1-0.5-1.6-0.7c-2.1-0.7-3.9-2-3.9-4.2c0-1.5,1.3-3.1,2.1-4.8
					c7.7,1,15,2.5,22.5,0.8c7.3-1.6,13-6.1,19.5-9.4c5.1,2.4,10.1,4.6,14.9,7.1c4.4,2.2,8.4,4.7,11.5,8.9c3.4,4.6,7.5,8.6,11.7,13.3
					c-0.7,0.6-1.4,1.5-2.3,2c-2,1.1-4.4,1.6-6.2,3c-1.8,1.3-3.2,3.4-4.7,5.1c-0.2,0.6-0.4,1.1-0.4,1.7c-0.3,3.8,3,5.2,4.6,7.7
					c1.6,2.5,0.4,6.5,3.4,8.6c0.6,0.5,4.3,0.8,4.9,1.2c1.7-1.6-2.2-2.7-3-3.9c-0.7-1.2-1.1-2.5-1.7-3.8c2.3-3.6,5.9-5.2,8.6-7.7
					c1.3-1.1,2.5-2.4,3.5-3.7c0.3-0.4-0.3-1.5-0.5-2.5c-3.9,0.6-6,3.7-8.9,5.5c-1.5,0.9-2.7,2.2-4.2,2.9c-0.6,0.3-2,0-2.3-0.5
					c-0.5-0.9-0.6-2.2-0.4-3.1c0.2-0.7,1.1-1.5,1.8-1.7c4.5-1.2,7-6.1,12.1-6.2c1.6-0.1,2.2-2.6,1.6-4.3c-0.7-2-3.4-3.5-1.7-6.2
					c0.6,0.2,1.3,0.3,1.5,0.6c5.3,6.6,12.3,6.7,19.7,5.6c10.3-1.6,19.1-6.5,27.7-12c11.4-7.2,20.3-17.3,29.3-27.2
					c2.9-3.2,5.8-6.5,8.6-9.8c1.3-1.5,0.9-2.1-2.3-4.8c-10.8,10.3-19.9,22.4-31.2,32.6c-3.8-6.5-4.5-9.2-3.5-14.3
					c1-5.2,2.6-10.2,5.3-14.8c1.2-2,2.2-4,3.4-6.3c-1.6-2.3-3.1-4.4-4.5-6.6c-3.1-4.8-7.4-7.2-13.2-6.4c-2.9,0.4-5.8,0.1-8.7,0.3
					c-13.2,1-22.5-5-30-15.6c-5.3-7.4-7.4-15.9-9.3-24.3c-1.6-7.3,0.1-15.1,1.8-22.5c0.4-1.7,0.9-3.4,1.5-5.3
					c-0.7-2-1.3-3.9-1.7-5.8c-1.7,0.3-3.5,0.4-5.2,0.5c-1.1,0-2.2,0-3.7,0c1.1,3.2,4,1.6,5.7,3.6c0,0.9,0.1,2.3,0,3.7
					c-0.7,7.5-1.5,15.1-2.1,22.6c-0.2,2,0.2,4.1,0.6,6c0.9,4.8,1.6,9.8,3.1,14.5c1.4,4.4,3.9,8.4,5.9,12.5c-0.6,0.3-1.2,0.8-1.6,0.7
					c-6.7-1.9-13.3-4.1-19.1-8.1c-4.4-3-8-6.5-8.6-12.4c-0.4-4-1.8-7.9-2.9-12.2c4.1-4.3,6.1-9.5,5.4-15.7c-0.7-6.1-2.3-8-8.2-9.6
					c-1.7-0.4-3.3-0.9-4.7-1.2C172.4,247.4,171.7,244.7,173.3,241.3z M258.3,398c6-3.4,11.4-6.5,17.6-10c2,2,3.6,3.5,5.4,5.3
					c-4.4,5.4-10.4,7.6-16.4,10.8C262.9,402.2,260.9,400.4,258.3,398z M258.7,405.3c-2.9,4.3-4.4,5.1-6.8,3.6
					c-2.2-1.3-4.1-3-7.7-5.7c3.7-1,5.6-1.5,7.3-2c1.2,1.1,2.1,2.3,3.3,2.9C255.9,404.7,257.3,404.9,258.7,405.3z M103.7,492.6
					c0.4,3.2,0.3,6.3-2.1,9.9c-1.3-3.6-2.4-6.5-3.7-10.2c-1,1.3-1.9,2-2.1,2.8c-0.7,2.7,0.7,5.8-1.7,8.5c-0.7-0.7-1.8-1.2-1.8-1.7
					c-0.1-3.5-0.6-7.1,0.4-10.3c1.5-5.1,0.8-9.6-1-14.4c-2.8-7.3-5.5-14.7-7.8-22.2c-1.3-4.1-1.9-8.5-2.5-12.8
					c-0.7-5.4,0.6-10.5,3.2-15.1c3.5-6,7.3-11.7,12.7-16.4c6.8-5.8,12.5-12.9,19.5-18.5c2.4-1.9,4-5,5.9-7.5
					c1.2-1.6,2.5-3.1,3.6-4.5c11.1,0.6,18.4,7.1,19.9,17.3c1.1,8-0.2,15.5-4.4,23.1c-2.9-2-5.6-3.6-8.1-5.5c-2.5-1.9-4.9-4-7.4-6
					c2.4-4.7,9-5.1,9.9-11.3c-1.6-0.2-3.2-1-4.2-0.5c-2.9,1.3-5.9,2.6-8.3,4.7c-5.7,4.9-11.3,10-16.5,15.5
					c-5.2,5.6-8.9,12.2-10.9,19.6c-3.2,11.9-0.8,23,4.8,33.6c2.4,4.6,5,5.4,10.1,4.2c1.7-0.4,3.3-1.1,4.9-1.7c1.3-0.5,2.5-0.2,2.7,1
					c0.1,0.8-0.8,2.2-1.6,2.7c-1.5,0.9-3.2,1.2-4.8,1.9c-1.5,0.7-3,1.5-5,2.4c2.4,4.5,5.8,8.6,3.3,13.9c-2.6-1.7-3.7-2.8-5.8-5.9
					C103.3,489.7,103.5,491.1,103.7,492.6z M102.9,387.7c-2,1.1-4.2,2.1-6.4,2.5c-9.8,1.9-18.9,5.2-26.6,11.8
					c-0.4,0.4-1.1,0.4-1.9,0.8c-5.7-3-8.2-8.6-10.3-14.3c-2.2-6-3.7-12.3-4-18.7c-0.4-8-3.2-15.5-6.4-22.6c-1.9-4-5.6-7.3-8.6-10.7
					c-1.3-1.5-3-2.6-4.6-3.9c0.7-7,3.9-11.5,10.1-14.2c1.4,7.2,1.4,7.2,11,12.7c0.1,1.7,0.2,3.7,0.3,5.6c0.3,5.8,5.4,9.5,10.8,7.6
					c3-1,5.8-2.7,8.7-4c2.9-1.3,5.7-2.5,8.5-3.8c1.4,1,2.4,1.6,3.2,2.3c6,5.3,12.7,9,20.6,10.5c2.5,0.5,5,1.3,7.5,2
					c3.9,1.1,6.5,3.7,7.7,7.7c1.5,4.9,1.5,9.7-0.4,14.5c-0.9,2.3-2.2,4.1-4.3,5.3C112.9,382,108,385,102.9,387.7z M108.1,500.4
					c8.5-2.9,9-3.9,6.8-12.5c-0.3-1.1-0.5-2.2-0.9-3.8c1.5-0.8,3-1.5,4.3-2.5c1.4-1,2.9-2,3.8-3.4c1.3-1.9,2.1-4.3,0.8-6.6
					c-1.4-2.3-3.8-2.3-6.2-1.8c-1.7,0.4-3.4,1-5.1,1.2c-4.4,0.7-6.6-0.3-8.3-4.5c-3-7.1-4.2-14.6-2.8-22.3
					c1.8-9.3,5.7-17.7,12.6-24.5c2-2,4-4.1,6.3-6.6c6.4,2.2,10.9,6,15.4,9.5c5.7,4.5,11.2,9.3,16.7,14.1c6.3,5.6,12.4,11.3,19,17.3
					c-0.8,1.8-1.3,3.7-2.4,5.3c-3.9,5.8-7.9,11.5-12,17.1c-2.6,3.5-6.3,6-10.2,8c-5.4,2.7-10.8,5.6-16.2,8.3
					c-5.5,2.8-9.1,7.1-10.4,13.3c-0.2,1.1-0.8,2.2-1.4,3.7c-4.2-0.5-7.7-2.4-10.3-5.5c-0.6-0.7-0.4-2.1-0.5-2.9
					C107.7,500.8,107.9,500.5,108.1,500.4z M211.1,333.3c1.1,2.9,2.2,5.9,4.5,8.8c2.6-2.4,4.9-4.5,7.2-6.5c2.4-2.2,5.1-3.9,8.5-3.7
					c5.4,0.3,10.2-1.5,15-3.6c4-1.7,7.9-3.4,12.4-3.5c3.6-0.1,6.2,1.1,8.1,4.9c-2.9,9.7-7.8,18.8-14.2,27.2
					c-4,5.3-7.9,10.7-13.6,14.6c-1.4,1-2.2,3-3.2,4.7c-2.6-1.8-5.4-3.3-7.6-5.6c-3.9-4-8.1-7.5-13.2-9.7c-0.8-0.3-1.6-0.7-2.3-1.2
					c-9.1-6-19-9.7-31.2-9.8c1.5-1.6,2-2.6,2.8-2.9c5.6-2.3,11.3-4.5,17-6.6c3.6-1.4,4.4-3.2,2.4-6.6c-3.4-5.8-6.9-11.4-10.3-17.2
					c-2.2-3.7-4.5-7.3-5.3-12.5c4,0.9,6.5,2.7,9,5.2C203.8,316.2,207.8,324.5,211.1,333.3z M209,314.6c6-1.5,11-0.1,15.8,4
					c3.4,2.9,7.8,4.7,13.3,7.8c-5.1,0.8-8.9,1-12.3,2.1c-3.1,1.1-5.9,3.3-8.8,5C212.7,327.1,210.4,321.6,209,314.6z M259.8,357.1
					c2.7,4.2,4.3,8.3,6.2,12.8c-6.6,5.6-14.1,9.3-21.8,13c-2.7-2.2-5.4-4.3-8-6.4c5.5-0.8,10.1-3.2,13.6-7.6
					C253,365.1,256.2,361.4,259.8,357.1z M232.7,382.9c-4.6,0.9-7.8,0.7-10.5-2.3c-0.9-1.1-2.2-1.8-3.4-2.7c-3-2.1-5.9-2.2-8.4,0.9
					c-0.3,0.3-1,0.3-1.7,0.4c-0.5-0.6-1.6-1.2-1.6-1.9c0-4.7-2.8-7.5-6.3-9.8c-3.9-2.5-7.9-4.8-11.9-7.1c-1.4-0.8-2.9-1.5-5.2-2.8
					c6.1-2.2,10.8-0.2,15,1.6C211.3,364.7,223.3,371,232.7,382.9z M199.3,335.1c-1.3,0.9-2.3,1.9-3.5,2.3c-6.9,2-13.8,4-19.4,8.9
					c-0.9,0.7-2,1.3-3,1.6c-1,0.2-2.2,0.1-3.1-0.3c-0.5-0.2-0.7-1.6-0.5-2.3c0.9-2.7,1.7-5.5,3.1-8.1c2.7-5.1,5.7-10.1,8.5-15.1
					c1.4-2.5,2.6-5.1,4.8-9.3c1.1,1.9,1.6,2.6,2,3.3C191.7,322.2,195.4,328.4,199.3,335.1z M181.3,268.3c-3.1-3-2-7.4-4.2-10.4
					c2.6-1.6,4.3-1.4,5.1,0.5C183.6,261.7,185.4,265.2,181.3,268.3z M35.6,277.6c-3.4-3.6-3.2-7.6-0.5-11.1c2.6-3.5,5.7-6.5,8.9-9.5
					c2.3-2.2,5.1-3.8,8-6c-0.4-2.8-0.7-5.7-1.2-8.5c-0.7-4.1-0.6-8.2,1-12.1c2.2-5.4,5.7-9.4,11.9-10.2c1.1-0.1,2.5,0,3.4-0.5
					c1.4-0.8,2.8-2,3.7-3.3c0.9-1.4,1.1-3.3,1.6-5c1.3-5.1,4.8-7.6,9.7-8.9c5.6-1.5,10.9-0.4,16.2,1.4c1.6,0.5,3.1,1.3,4.9,2.1
					c3.5-3.3,7-6.4,10.3-9.6c4.5-4.4,10.3-5.1,16.1-5.1c3.2,0,6.2,1.2,8.1,4.3c1.1,1.7,2.5,3.2,3.9,4.7c2.6,2.7,4.6,3.1,7.7,1.1
					c2.2-1.4,4.2-3.1,6.4-4.6c4.7-3.3,11-0.6,11.5,5.1c0.4,4,0.6,8.2,0.3,12.2c-0.2,2.8-1,5.7-2.1,8.3c-2.1,5-6,7.8-11.4,8
					c-4.3,0.2-8.7,0-14,0c-0.4,0.7-1,1.8-1.6,2.7c-3.7,5.2-8.7,7.1-15.1,6.6c-6.9-0.6-13.9-0.4-20.8-0.4c-1.4,0-2.8,0.5-4.1,0.7
					c-0.3,1.2-0.8,2-0.7,2.8c0.4,4.7-2.2,7.6-5.7,10.1c-1.7,1.2-3.2,2.4-4.8,3.7c-4.1,3.2-5.6,7.5-4.7,12.4
					c0.8,4.3,2.1,8.5,3.4,12.6c1.7,5.4,1,8.3-3.6,11.2c-3.9,2.4-7.2,5.7-11.8,7.1c-2.3,0.7-4.3,2.9-6,4.8c-2.7,2.8-2.3,7.7,0.6,10.2
					c2,1.7,4.2,2.9,7,3.1c7,0.5,12.6-2.9,18.5-5.5c-0.8-3.2-2.7-3-4.4-2.7c-4,0.7-7.9,1.7-11.9,2.3c-3.5,0.5-6.3-0.9-6.3-3
					c0-2.7,2-4.2,4.2-5c4.1-1.5,8.3-2.6,12.4-3.9c1.4-0.4,2.7-1,4.2-1.6c0.5-2.4-1-4.7,0.5-7.3c1.9-3.3,1.7-7.2,0.3-11
					c-0.9-2.4-1.1-5.2-1.9-7.6c-1.8-5.2,0.2-9.1,3.7-12.6c0.6-0.6,1.3-1.2,2-1.7c5.4-3,8.8-7.3,9.5-13.6c4.7-0.8,9-0.4,13.3,0.3
					c2.9,0.4,5.7,0.7,8.6,0.9c5.5,0.4,10.2-1.4,13.9-5.7c1.3-1.5,2.9-2.8,4.1-4c6.1-0.3,11.9-0.6,18.3-0.9
					c3.5,5.5,7.1,11.3,9.8,17.8c4.5,10.9,6.7,22.3,9.4,33.6c1.5,6.6,2.1,13.4,1,20c-0.9,5.6-3.8,10.9-6,16.3
					c-2.5,5.9-5.3,11.6-8.1,17.3c-1.4,2.8-1.5,5.5-1.1,8.5c1,6.9-0.5,9.3-6.7,12.1c-8.9,4.1-17.9,3.9-27.1,1.2
					c-1.8-0.5-3.1-1.7-3.5-3.5c-2.4-8.9-9.3-11.9-17.2-13.9c-5-1.2-10.1-2.1-14.8-4.9c-5.1-3-9.4-6.7-13.2-11.2
					c-1.2-1.4-2.8-2.6-4.3-4c-2.2,4.4,1.7,6.9,2.3,10.6c-5,2-10,4.1-15.1,5.9c-3.2,1.1-5.8-1-5.8-4.4c0-1.2,0.3-2.3,0.4-3.5
					c0.1-2.5-1-4.6-3.1-5.9c-2.4-1.5-4.9-2.9-7.7-4.6c0.3-1.5,0.3-3,0.8-4.2c2.2-4.5,0.5-8-2.9-10.8c-2.2-1.8-4.8-3.2-7.2-4.9
					c-3.1-2.2-4.2-5.3-1.8-8.2c3.8-4.7,1.9-8.7-0.2-12.9C38,280.3,36.8,278.9,35.6,277.6z M16.2,348.1c-0.9-3.7-2.1-7.3-3.2-10.9
					c-0.8-2.4-2.8-3.4-5.1-3.8c6.7-3.4,12.8-7.6,16.8-14.4c2.9-5,7.9-7.6,12.7-10.3c2.2-1.2,3.8,0,5.8,1.9c-1,1.2-1.9,2.7-3.2,3.6
					c-4.7,3.4-7.1,8.3-9.1,13.5c-1.2,3.1-0.8,5.7,1.4,8c0.8,0.9,1.3,1.9,2.2,2.7c8.6,7.9,12.2,18.2,13.9,29.4
					c0.8,5.5,1.6,11,2.3,16.5c0.1,1.1,0,2.2,0,4.1c-4.2-3.4-7.6-6.4-11.2-9.2c-3.6-2.9-7.6-5.4-11.1-8.5
					C21.7,364.7,18.4,356.7,16.2,348.1z M23.2,404.7c0.9-8.4,2-16.7,5-25.2c5.6,2.6,10.4,5.9,14.9,9.9c1.1,1,1.9,2.2,2.7,3.4
					c2.2,3,5,4.8,8.5,4.1c3.8,5.4,7.6,10.1,13,14c2.1-1.4,4.6-2.4,6.3-4.2c4.7-4.8,10.5-7,16.7-8.9c3-0.9,6.2-1.6,9.2-2.5
					c3-0.9,5.8-2.1,10.5-3.9c-5.2,6.2-9.8,10.3-14.5,14.3c-7,6-12,13.4-16.4,21.3c-2.6,4.7-3.9,10.4-3,16.1c1.2,7.2,2.2,14.4,5,21.2
					c2.6,6.2,4.4,12.6,6.9,18.8c1.7,4.1,0.2,7.9-0.1,11.9c-1.1-2.3-2.1-4.7-3.4-6.9c-1.3-2.3-3.1-4-5.7-5
					c-11.1-4.2-19.2-12.7-27.6-20.6c-1.9-1.8-3.8-3.6-5.8-5.2c-7.1-5.5-14.1-11.1-20.1-18c-1.9-2.1-4.2-3.9-6.5-6.1
					C20.4,423.7,22.1,414.2,23.2,404.7z M305.3,705.6c-6-0.6-12-1.4-17.6-3.9c-11.6-5.2-23.3-10.3-34.6-16c-5.9-3-11.3-7-16.8-10.8
					c-10-6.9-19.9-14-29.8-21.1c-8.2-5.9-16.3-12.1-24.5-18c-2.3-1.7-4.9-3-7.3-4.5c-2-1.2-4-2.4-5.9-3.7
					c-12.2-8.3-24.4-16.6-36.7-24.9c-6-4.1-12-8.1-18.1-12.1c-4.6-3-9.5-5.6-13.9-8.8c-10-7.4-20.1-14.6-29.2-23.2
					c-9-8.6-18.3-16.9-27.3-25.4c-2.3-2.2-4.3-4.6-6.3-7.1c-1.1-1.3-1.9-3-3-4.3c-6.6-7.6-10.5-16.7-13.9-26
					c-0.7-1.9-1.5-3.9-1.5-5.9c0-11.7-2.5-23.2-1.7-34.9c0.3-4,1.1-8.1,1.8-12.8c1.5,0.8,2.8,1.2,3.7,2.1
					c12.4,13.1,27.4,23.3,40.5,35.6c2.3,2.1,5.2,3.8,8.2,4.8c6.4,2.1,11.8,5.6,16.5,10.4c0,0,0,0,0,0c-1.3,4.3,1.3,7.8,2.7,11.5
					c0.9,2.5,2.8,2.7,5.6,1c0.7-0.4,1.4-1,1.7-1.3c6.2,0.3,10.7,3.7,15.4,6.5c3,1.8,5.5,4.3,6.2,8.1c0.2,1.1,0.6,2.3,1.1,3.3
					c2.8,5.3,2,9.9-2,14.4c-1.7,1.9-3.1,4.4-3.7,6.8c-2.2,8.5-0.5,14.3,7.5,18.2c1.5,0.8,3.2,1.2,4.9,1.8c1.6,0.6,3.2,1.3,4.8,2
					c0.5,0.2,0.8,0.8,1.8,1.6c-0.1,2.7-0.4,5.8-0.5,8.9c-0.2,5.6,2.2,9.7,7.7,11.1c5.6,1.4,11.3,2.5,17,3c4.4,0.4,8.3-1.8,11.5-5.7
					c6.5,3.9,12.6,8,15.9,14.7c2.5,5,5.9,9.3,9.7,13.3c5.6,5.9,11.4,11.6,17.2,17.3c4.7,4.8,10.1,8.7,16.3,11.4
					c4.3,1.8,7.9,4.7,11.8,7.1c11.7,7.4,23.5,14.9,37.7,16.9c4.8,0.6,9.2,2.9,13.8,4.4c4.2,1.3,7.1,4.9,8.4,9.4
					c2.2,7.8,4.6,15.6,6.9,23.6C306.7,705,305.9,705.7,305.3,705.6z M614.2,565.8c-3.4,6.7-8.6,9.9-15.1,11.9
					c-8.2,2.6-16.6,4.9-24.8,7.8c-3.8,1.3-7.3,3.4-10.8,5.5c-10.1,6.3-19.9,12.9-26.9,23c-2.5,3.6-5.9,6.4-8.5,9.9
					c-3.2,4.4-6.4,9.1-8.9,13.9c-3.1,6-7.3,11.2-10.7,16.9c-3.3,5.6-7.2,10.4-11.8,15c-9.7,9.6-21.3,14.7-34.5,16.8
					c-11.4,1.9-22.8,3.4-34.2,5.6c-14.1,2.9-26.9,8.9-38.3,17.9c-5.7,4.5-11.4,9-17.3,13.1c-10.9,7.6-22.8,9.3-35.5,5.4
					c-11.1-3.4-18.1-11-22.2-21.7c-0.4-1.1,0-2.6-0.7-3.4c-5.2-6-6.3-13.5-7.7-21c-1-5.4-3.8-9.7-8-13.1c-2.7-2.2-5.3-4.4-8.4-7
					c-18.7,0-35.1-8.1-50.4-19.2c-2.6-1.9-5.2-3.8-8.2-4.9c-6.4-2.4-11.6-6.6-16.4-11.2c-5.7-5.4-11.3-10.9-16.7-16.6
					c-3.4-3.6-6.7-7.4-9.2-11.6c-3.1-5.1-7.6-8.6-12-12.5c-3.3-2.9-7.5-2.6-11.6-4c7-18.2,15.3-35,30.2-47.6
					c4.2-3.5,8.7-6.8,12.7-10.5c5.6-5.2,9.7-11.7,12-19c2.5-7.9,6.1-15.1,9.9-22.3c2.7-5.1,6.3-9.8,10.1-14.2
					c8.7-10.3,18.9-18.9,29.8-26.7c10.9-7.8,22.6-14.2,34.4-20.4c11.5-6.1,21.3-13.9,28.7-24.8c6.6-9.7,15-17.7,25.2-23.6
					c2-1.2,3.7-2.8,5.7-4.1c4.2-2.7,8.5-4.9,13.5-5.8c13.8-2.5,26.4-8.4,38.7-15c4.1-2.2,7.9-4.9,12.4-6.3c1.6-0.5,1.5-0.7,1.9-4.2
					c-4.3-1.5-8.1,0.3-11.4,2.5c-8.7,5.9-18.5,9.6-28.2,13.4c-2.9,1.1-6,2.4-9.1,2.7c-7.2,0.7-13.3,3.6-19.3,7.2
					c-9.2,5.6-17.8,12-25.3,19.8c-3.2,3.3-6.2,7-8.7,10.9c-5.8,8.8-13.6,14.9-22.6,20c-13.4,7.5-27.1,14.5-39.8,23.2
					C253,447,241.7,458.1,232,471c-5.8,7.7-8.9,17-12.5,25.8c-1.1,2.7-1.9,5.5-3,8.2c-2.8,6.5-6.6,12.1-12.8,16.1
					c-8,5.2-15.6,11-21.8,18.6c-7.6,9.4-12.8,20-16.6,31.4c-1.4,4.1-2.8,8.2-4.4,12.3c-1.1,2.9-3.6,3.9-6.4,3.3
					c-4.2-0.9-8.3-2.5-12.7-0.6c-0.6,0.2-2.3-0.9-2.7-1.8c-0.8-2.1-1.3-4.4-1.4-6.7c-0.1-1.7,0.8-3.4,1-5.1
					c0.6-5.2-1.8-9.1-6.6-10.9c-2.2-0.8-4.5-1-6.7-1.9c-6-2.4-7.6-6.8-5-12.6c0.8-1.8,1.9-3.6,3-5.3c3.4-5.2,4.1-10.6,2.1-16.7
					c-1.1-3.6-1.4-7.4-2-11.1c-0.9-6.1,1.7-10.9,6.5-14.3c3.1-2.2,6.4-4.1,9.6-5.9c1.5-0.9,3.1-1.5,4.8-2.1
					c11.1-4.4,18.4-12.8,24.1-22.9c1.6-2.8,3.3-5.5,5-8.1c7.4-11.3,18.9-16.8,30.8-21.6c9.4-3.7,19.1-6.9,28.5-10.6
					c4.5-1.8,8.8-4.3,13.1-6.8c6.7-3.9,13.3-8,20.7-10.6c0.8-0.3,1.5-0.9,2.2-1.3c3.8-2.6,7.6-5.3,11.5-7.8
					c5.9-3.7,11.2-7.9,15.9-13.4c6.6-7.8,14.1-14.6,21-22.1c5.7-6.2,11.5-12.3,18.2-17.4c6.7-5.1,14-9.1,21.8-12.3
					c10-4.1,20.7-5.5,30.8-8.8c0.8-0.3,1.7-0.5,2.5-0.5c3.6-0.3,7.4,3.4,10.7,0c3-3,7.1-2.2,10.5-3.5c5.7-2.1,11.8-2.8,17.9-2.7
					c8.5,0,14.3,3.8,17.9,11.4c0.5,1,0.9,2.1,1.5,3.4c-0.8,2.1-1.6,4.2-2.4,6.3c0.7,0.8,1.2,1.7,1.9,2c3.1,1,5.8,2.4,8,4.9
					c1.3,1.4,3.2,2.4,5,3.3c2.6,1.3,5.4,2.2,7.9,3.6c2.8,1.7,5.6,2.3,9,2.5c8.9,0.6,17.9,1.3,26.7,3.2c8.7,1.9,17.4,4.4,24.4,10.6
					c2.2,1.9,4.2,4,6.1,6.2c6.3,7.3,13.1,14.1,22.1,17.9c5.1,2.1,10.3,3.9,15.5,5.6c10.7,3.5,19.9,9.3,27.2,18
					c4.1,5,7,10.5,8.5,16.9c3.7,15.9,4.6,31.9,1.1,47.7c-2.8,12.6-1.2,24.2,3.6,35.8c1.6,3.7,2.8,7.6,3.9,11.6
					C620.8,543.6,619.7,554.7,614.2,565.8z"/>
				<path class="st7" d="M433.3,331c-5.4,3.5-9.4,2.9-13.8,2.7C422,330.8,422,330.8,433.3,331z"/>
				<path class="st7" d="M245.7,307.1c0.6-0.6,1-1.2,1.4-1.2c6.1-0.5,11.9-1.5,17-5.2c0.9-0.6,2.2-0.7,3.3-0.9
					c2-0.4,4.1,1.1,4.3,3.1c1,7-2.4,10.9-9.2,11.8C255.2,315.6,250.2,312.3,245.7,307.1z M258.6,309.1c7.5,0.7,7.5,0.6,7.9-5
					C264.1,305.6,262.1,306.9,258.6,309.1z"/>
				<path class="st4" d="M128.8,255.7c-2,0.3-3.8,0.8-5.4,0.8c-5.6,0-9.2,2.4-12.3,5.2c-1.4,1.3-2.5,2.7-3.5,3.9
					c-2.3,0.5-2.9-0.1-2.7-0.8c1.2-3.9,4.3-7.3,10.6-9.6c4.5-1.6,8.8-1.6,12.9-1.1C128.8,254.1,128.6,254.9,128.8,255.7z"/>
				<path class="st4" d="M159.2,245.6c-2,0.3-3.8,0.8-5.4,0.8c-5.6,0-9.2,2.4-12.3,5.2c-1.4,1.3-2.5,2.7-3.5,3.9
					c-2.3,0.5-2.9-0.1-2.7-0.8c1.2-3.9,4.3-7.3,10.6-9.6c4.5-1.6,8.8-1.6,12.9-1.1C159.1,244,159,244.8,159.2,245.6z"/>
				<path class="st7" d="M236.9,286.7c5.6,1.1,5.6,1.1,11.4-2.3c0.8,3.3,0.4,4.7-2.5,5.6c-1.8,0.6-4,0.8-5.7,0.2
					C238.9,289.8,238,287.9,236.9,286.7z"/>
				<path class="st7" d="M195.1,277.8c0.8,3.1,2.7,6,0.9,9.7C193.5,284,195.9,280.6,195.1,277.8z"/>
				<path class="st7" d="M132.2,320.9c11.2,0.4,17.7-6.9,24.1-13.8c3.1,0.9,4.9,2.7,6,5.2c1.7,3.6,0.8,7.5,0.7,11.2
					c0,1.1-0.9,2.1-1.2,3.3c-0.8,4.3-3.8,5.9-7.5,5.8c-4-0.1-8.1,0-11.7-2.4c-3.1-2-6.5-3.7-9.6-5.8
					C132.4,324,132.5,322.4,132.2,320.9z M156.7,315.4c-3.8,2.7-7.6,4.6-9.4,9.3C155.3,325.6,157.4,323.5,156.7,315.4z"/>
				<path class="st7" d="M142.9,283.5c2.4,6.3,1.9,10.8,0.8,15.2c-0.6,2.5-3.1,4.1-5.7,4.6c-0.8,0.2-1.7-0.1-2.5-0.5
					c-1.5-0.8-3-1.7-4.2-2.8c-0.5-0.4-0.5-1.5-1-3c1.5,0.4,2.5,0.5,3.4,0.8c5.6,2,7.2,0.9,7.6-5c0.1-1.7-0.1-3.5,0.1-5.2
					C141.4,286.9,141.8,286.2,142.9,283.5z"/>
				<path class="st7" d="M122.7,269.9c0,0.9,0,1.2,0,1.5c-0.4,2.1-1.2,3.9-3.5,4.4c-0.7,0.2-1.8-0.1-2.3-0.6
					c-1.6-1.5-1.8-4.3-0.5-6.3c1-1.6,3.3-2.7,4.3-1.9C121.6,267.9,122.2,269.2,122.7,269.9z"/>
				<path class="st7" d="M149.3,266.5c-1.3,0.5-2.4,1.2-3.4,1.2c-0.9-0.1-2.4-0.9-2.5-1.6c-0.2-1.9-0.1-3.9,0.3-5.8
					c0.2-0.7,1.7-1.5,2.6-1.5c0.9,0,2.2,1,2.4,1.8C149.3,262.4,149.2,264.4,149.3,266.5z"/>
				<path class="st7" d="M229.3,270.1c-1.3,0.5-2.4,1.2-3.4,1.2c-0.9-0.1-2.4-0.9-2.5-1.6c-0.2-1.9-0.1-3.9,0.3-5.8
					c0.2-0.7,1.7-1.5,2.6-1.5c0.9,0,2.2,1,2.4,1.8C229.3,266,229.2,268,229.3,270.1z"/>
				<path class="st7" d="M253.9,266.1c-1.3,0.5-2.4,1.2-3.4,1.2c-0.9-0.1-2.4-0.9-2.5-1.6c-0.2-1.9-0.1-3.9,0.3-5.8
					c0.2-0.7,1.7-1.5,2.6-1.5c0.9,0,2.2,1,2.4,1.8C253.9,262,253.8,264,253.9,266.1z"/>
				<path class="st7" d="M78.9,545.3c-0.2-4.9-0.2-4.9,3.9-9.2C82.7,540.7,82.7,540.7,78.9,545.3z"/>
				<path class="st7" d="M57.7,509.2c0.4,1.6,0.8,2.2,0.7,2.6c-1,2.6-2,5.2-3.1,7.9c-2.3-0.6-1.9-2.2-1.8-3.4
					C53.7,513.6,55.3,511.6,57.7,509.2z"/>
				<path class="st7" d="M46.4,418.2c-1.5,3.1-3.1,6.4-5.4,11.1c-0.5-2.6-1.2-3.7-0.8-4.4c1.4-2.8,1.6-6.7,5.5-7.6
					C45.8,417.2,46,417.7,46.4,418.2z"/>
				<path class="st7" d="M60.5,426c-1.2,2.4-2.4,4.8-3.9,7.6C55.7,429,55.7,429,60.5,426z"/>
				<path class="st7" d="M151.7,451.4c-8.2-1.2-13.5-4.2-18.5-8.2c-8.9-7.1-8.9-7-10.8-12.1c1.2,0,2.5-0.3,3.3,0.1
					c1.5,0.7,2.9,1.8,4.3,2.9c6.2,4.6,12.5,9.3,18.7,14C149.3,448.5,149.7,449.2,151.7,451.4z"/>
			</g>
			<path class="st4" d="M83.3,315.6c7,19.7-0.4,30.3-8.6,34.4c-8.6,4.1-24.2-5.7-22.9-17.2c-15.6,0.4-10.2-18.4-10.2-18.4
				c-19.3,1.2-9-26.2-9-26.2c-31.5-15.6-1.2-33.6-1.2-33.6c-8.6-25,8.2-28.7,8.2-28.7c3.3-25,22.9-21.7,22.9-21.7
				c7.4-27.9,36.9-13.5,36.9-13.5c29.5-18.4,41.4-4.9,41.4-4.9c23.8-17.2,33.2,4.9,35.6,11.1c3.3,11.5-2,38.9-18,42.6
				c-16.4,3.7-47.5,10.7-47.5,10.7c-22.5,0.8-18.4,36.1-25,43.8s-6.6,7.8-6.6,7.8c-11.9,0-10.7,11.1-3.7,14.7
				C82.5,320.1,83.3,315.6,83.3,315.6z"/>
			<g>
				<path class="st8" d="M247,432.5c-0.8,4.2-3.5,5.4-6,6.8c-7.1,4-14.3,7.7-21.2,11.9c-8.4,5.1-16.7,10.5-25,15.8
					c-1,0.6-1.9,1.3-2.7,2.2c-11.3,11.2-22.7,22.4-33.9,33.8c-2.8,2.9-4.9,6.4-7.2,9.8c-2.4,3.5-4.3,7.5-7.6,10.3
					c-1.9-1.1-0.7-2.2-0.3-3c2.3-4.4,4.7-8.6,7.1-12.9c4.2-7.4,10.2-13.3,16-19.4c4.6-4.8,9.7-9.1,14.6-13.7
					c18.5-17.6,40.4-29.9,62.9-41.2C244.4,432.5,245.3,432.6,247,432.5z"/>
				<path class="st8" d="M388.8,336.2c-2.1,1.5-2.9,2.3-3.9,2.7c-4.3,1.7-8.6,3.5-12.9,5c-16.2,5.6-29.5,15.8-41.7,27.5
					c-7.5,7.2-14.6,14.9-21.6,22.7c-7.9,8.8-17.5,15.1-27.7,20.9c-1.5-1.8,0.5-2.5,1.3-3.2c1.9-1.8,3.9-3.4,6.1-4.9
					c7.5-5,13.7-11.5,19.7-18.2c7.4-8.2,14.5-16.7,22.6-24.1c11.8-10.8,24.7-20.1,40-25.5c3.8-1.3,7.8-2.1,11.7-2.9
					C383.9,335.9,385.6,336.2,388.8,336.2z"/>
				<path class="st8" d="M143.8,558.4c3.6-8.2,6.8-16.5,10.8-24.4c5.8-11.5,12.8-22.3,21.7-31.5c6.4-6.6,13.7-12.5,20.7-18.5
					c3.3-2.8,6.8-5.3,10.3-7.9c3.4-2.5,5.5-5.9,7.4-9.6c0.6-1.1,1.8-1.7,3.6-3.4c-3,8.7-8.1,16-15,22.1
					c-6.3,5.6-12.5,11.3-18.8,16.9c-13.8,12.4-23.4,28-32.1,44.2c-2.3,4.3-4.8,8.5-7,12.9C145,558.8,144.4,558.6,143.8,558.4z"/>
				<path class="st8" d="M259.1,510.3c-2.3-0.7-2.7-2.4-2.2-4.1c0.8-2.5,1.8-4.9,3.3-7.1c4.7-7.1,10.1-13.5,16.9-18.7
					c7.6-5.9,15.1-11.7,22.7-17.5c0.7-0.5,1.6-0.6,2.4-0.9c0.3,0.3,0.6,0.4,0.7,0.6c0.1,0.2-0.1,0.6-0.2,0.8c-2.3,3-4.4,6.2-6.9,8.9
					c-2.5,2.8-5.3,5.4-8.3,7.7c-10.3,8.1-19.5,17.3-26.4,28.6C260.5,509.5,259.6,509.9,259.1,510.3z"/>
				<path class="st8" d="M287.1,525.7c5-5,9.2-8.6,12.8-12.8c7.3-8.6,15.9-15.2,25.6-20.6c11.1-6.3,22.6-11.6,34.7-15.7
					c0.2-0.1,0.5,0.1,0.9,0.2c0.7,1.6-0.9,1.7-1.6,2.2c-0.7,0.5-1.6,0.7-2.4,1.1c-7.5,3.8-15,7.5-22.5,11.3
					c-13.3,6.8-25.1,15.5-34.5,27.4c-2.3,2.9-5.4,5.3-8.3,7.6C291,526.7,289.3,526,287.1,525.7z"/>
				<path class="st8" d="M383,527.2c-4.1,6-7.4,11.1-11,16c-1.3,1.8-2.9,3.9-4.9,4.7c-6.4,2.6-12.9,4.8-19.5,6.8
					c-1.5,0.5-3.3-0.1-4.7-0.2c-1.1-2.3,0.1-3.2,1.5-3.8c4-1.6,8-3.4,12.1-4.5c6.8-1.9,11.6-6.1,15.6-11.7c2-2.9,4-5.7,7.5-7
					C380.2,527.3,381.1,527.4,383,527.2z"/>
				<path class="st8" d="M425.2,557.4c1.6-2.2,3.2-4.3,4.7-6.4c7-9.5,11.8-19.9,12-32c0-0.3-0.1-0.7,0.1-0.9
					c0.5-0.6,1.3-1.8,1.5-1.7c0.9,0.4,2.4,1.2,2.4,1.8c-0.1,9.6-1.5,19-6.2,27.6c-2.5,4.6-4.8,9.3-8.9,12.7
					C428.9,560.1,427.1,560.3,425.2,557.4z"/>
				<path class="st8" d="M382.4,447.7c4.3-3.2,8.8-6.2,12.9-9.6c2.7-2.2,5-4.8,7.6-7.1c0.8-0.8,1.8-1.6,2.8-1.9
					c0.9-0.3,2.1,0.1,3.9,0.2c-5.1,5.4-9.6,10.2-14.2,15c-2.7,2.8-6,4.5-9.8,5.1C384.3,449.7,382.8,449.6,382.4,447.7z"/>
				<path class="st8" d="M421.3,423.8c-0.5-1.5-1.2-2.4-0.9-2.8c1-1.8,2-3.5,3.3-5c8.9-9.9,18.7-18.9,30.1-25.9
					c0.9-0.6,2.1-0.8,3.1-1.2c0.2-0.1,0.5,0.3,1.1,0.6C445,399.9,431.2,409.3,421.3,423.8z"/>
				<path class="st8" d="M401.7,399.6c1-7.8,5.6-10.6,9.1-14.1c8-8.1,16-11.9,25.6-12.8c-3.7,3.6-8.6,3.5-11.8,6.5
					c-3.6,3.3-7.8,6-11.5,9.2C409.5,391.5,406.4,394.9,401.7,399.6z"/>
				<path class="st8" d="M482,419.2c-9.7,7.3-19.4,14.5-29.1,21.7c-0.3,0.3-1.1,0-1.9,0c0-0.7-0.3-1.9,0-2.2
					c8.7-7.2,17.3-14.5,27.5-19.5c1-0.5,2.1-0.7,3.1-1.1C481.7,418.6,481.9,418.9,482,419.2z"/>
				<path class="st8" d="M408.6,541.9c-0.5,2.1-0.5,3.1-1,3.6c-1.2,1.3-2.5,2.5-3.9,3.5c-5.8,3.9-11.1,8.3-15.2,14.1
					c-1.3,1.8-2.4,1.7-4.9,0C392.2,552,394.3,550.2,408.6,541.9z"/>
				<path class="st8" d="M396.7,465c5-3.7,10-7.4,15-11.1c0.1-0.1,0.5,0.2,0.7,0.3c1,1.3,0,2.2-0.7,2.9c-3.3,3.1-6.6,6.3-10.2,9.1
					c-1,0.8-3,0.4-4.5,0.5C396.8,466.2,396.8,465.6,396.7,465z"/>
				<path class="st8" d="M428.3,467.2c-3.9,4.7-5.3,11.5-11.9,14.2c1.1-4.2,4.5-9.3,8.9-13.4C426,467.4,427.3,467.5,428.3,467.2z"/>
				<path class="st8" d="M494.5,526.6c-1.4-0.1-2.3,0-2.3-0.2c-1-3.8-2-7.6-2.9-11.5c-0.1-0.4,0.9-1.2,1.6-1.6
					c0.2-0.1,1.2,0.3,1.3,0.7C493.5,518.1,493.7,522.3,494.5,526.6z"/>
				<path class="st8" d="M444.2,480.1c2.3,0.8,2.6,2.4,1.7,3.6c-1.8,2.5-4.1,4.7-6,7c-2.4-0.9-2.2-2.4-1.4-3.5
					C440.3,484.7,442.4,482.4,444.2,480.1z"/>
			</g>
			<path class="st7" d="M306.1,211c-16.9-17.5-65-49.7-115.3-2.2c-20.2,22.4-20.4,30.1-20.4,30.1c2.9,8.1,2.9,9.8,2.9,9.8
				c18.6-1.1,20.8,19.7,11.5,25.7c3.8,21.9,3.8,27.9,3.8,27.9c19.1,17.5,17.5,35.5,17.5,35.5l2.9-13.5l10.2,17.9l1.1-21.3l12,18.6
				l-2.2-15.3l9.8,9.3l1.6-7.6c-21.9-6.4-34.1-46.7-29.1-74.6c-0.2-0.6-0.1-1.2,0.3-1.7c0,0,0-0.1,0-0.1c0,0,0,0,0.1,0
				c0.2-0.1,0.4-0.2,0.7-0.3c3.6-0.8,5.7-3.3,9-4.3c2-0.6,4.4-0.1,6.4-0.7c1.9-0.5,1.6-1.3,3.8-1.7c2.7-0.5,3.9,0.8,6.4,1.1
				c4.5,0.6,7-3.3,11.1-3.6c3.1-0.2,4.6,1.5,8,0.2c2-0.8,2.8-1.9,5.1-1.6c3.4,0.5,6.2,4.6,9.7,5.5c2.4,0.6,4.8,0.4,7.2-0.1
				c9.8-10.8,14.6,3.9,15.6,9.7c-0.1,10.9-6.6,18-6.6,18c6.6,20.8-2.2,39.1-2.2,39.1l10.4-8.5l6,9.8l3.3-15.8l8.7,11.5l-1.6-20.8
				C330.7,245.4,323,227.4,306.1,211z"/>
			<g>
				<path class="st9" d="M202.8,229.8c-0.1-1-0.5-2.2-0.1-2.8c1.9-3.2,3.6-6.8,6.2-9.4c7-7,14.3-13.7,23.5-17.6
					c0.7-0.3,1.6-0.3,3-0.5c-6.3,5-12.2,9.5-17.8,14.3C212.2,218.4,207.7,224,202.8,229.8z"/>
				<path class="st9" d="M243.8,207.2c-0.2,0.8-0.3,1.6-0.7,2.4c-0.2,0.5-0.8,0.8-1.3,1.1c-6.6,4.1-13.2,8.1-19.7,12.2
					c-1.5-1.4-0.4-2.3,0.4-2.9c4.8-3.2,9.6-6.4,14.4-9.4c2.2-1.4,4.6-2.4,6.9-3.5L243.8,207.2z"/>
				<path class="st9" d="M272.8,224.6c3.3-2.8,5.5-3,8.1-2.2C279.1,225.1,276.8,225.1,272.8,224.6z"/>
				<path class="st9" d="M303.7,254.2c-1.3-1-2.3-1.4-2.5-2.1c-1.8-6.6-5.2-12.7-6.7-19.5c0-0.1,0.4-0.4,1-0.9
					c1,1.3,2.4,2.4,2.9,3.8C300.5,241.4,303.6,247,303.7,254.2z"/>
				<path class="st9" d="M306.9,238c4.5,5.4,5.1,8.6,3.9,17.8C307.7,250,309,243.7,306.9,238z"/>
				<path class="st9" d="M188.3,228.9c-1.3,4.4-3.4,8.3-6.8,12.4C179.7,234.2,185.7,232.4,188.3,228.9z"/>
			</g>
			<path class="st3" d="M281.6,383.6c0.8-0.7,1.7-1.3,2.5-2c29.8-24.5,43-51.7,43-51.7l7.5,8.4c-29.2,35.9-47.8,51.8-47.8,51.8
				l-6-3.2"/>
			<path class="st3" d="M299.7,323c-11.1,5.7-6.6,22.1-6.6,22.1l-7.8,5.7c-1.2-15.6,7-27.9,7-27.9H299.7z"/>
			<path class="st1" d="M259.8,357.1l6.2,12.8c-12.1,8.6-21.8,13-21.8,13l-6.7-6.1C246,373,259.8,357.1,259.8,357.1z"/>
			<path class="st1" d="M181.3,268.3c4.2-3.1,2.3-6.6,0.8-10c-0.8-1.9-2.5-2.1-5.1-0.5C179.3,261,178.1,265.3,181.3,268.3z"/>
			<path class="st7" d="M170.9,245.7l4.1,7.6c12.3,1.1,12.8,8.5,10.9,11.7c-1.9,3.3-3.8,8.7-3.8,8.7l4.6,25.4l15-2.2l-1.4-36.1
				l-9-12.3l-21-4.1"/>
			<path class="st10" d="M116.5,201.7c13.5-2,17.6,19.7,17.6,19.7c7.3-21.2-9-25.8-11.5-25.8S116.5,201.7,116.5,201.7z"/>
			<path class="st10" d="M84.2,211.1c-7.8-2.5-21.3,20.5-17.2,24.6c5.7-15.2,19.7-22.1,19.7-22.1L84.2,211.1z"/>
			<path class="st10" d="M59.2,256.2c0.4,28.7-13.1,38.9-13.1,38.9C71,278.3,59.2,256.2,59.2,256.2z"/>
		</g>
		<g>
			<g>
				<path class="st4" d="M640.5-207.7c-33.8,0-61.2,31.8-61.2,71.1s27.4,71.1,61.2,71.1s61.2-31.8,61.2-71.1
					S674.2-207.7,640.5-207.7z M640.5-100.1c-17.3,0-31.3-16.3-31.3-36.4s14-36.4,31.3-36.4c17.3,0,31.3,16.3,31.3,36.4
					S657.8-100.1,640.5-100.1z"/>
				<path class="st4" d="M161.2-134.9c0,0,18.7,6.6,22.9-31.4c3.4-31.4-4.2-41.4-46.2-43.3v-0.3h-8.8c-6.7-0.1-14.2-0.1-22.4,0
					v131.8h31.2v-47l21.8,53.5h27.6L161.2-134.9z M135.2-153.8l1-39.8c0,0,28.6,0,25.5,22.3S135.2-153.8,135.2-153.8z"/>
				<path class="st4" d="M67.1-149.1c5-0.2,20.4-3.4,22.6-34.2c2.7-36.9-79.8-30.5-79.8-30.5l-0.6,7.6v133.9c0,0,69,22.5,80.2-28
					C99.2-144.4,73.8-148.7,67.1-149.1z M36.8-94.6c0.4-1.3,0-24.2,0-24.2s7.5-0.9,12.7,0.9s7,10.6,7,10.6
					C57.4-94.6,36.4-93.2,36.8-94.6z M36.8-168.6c0.4-1.3,0-24.2,0-24.2s7.5-0.9,12.7,0.9s7,10.6,7,10.6
					C57.4-168.6,36.4-167.3,36.8-168.6z"/>
				<path class="st4" d="M250.4-79.3h32.2l-13.8-60.2v-4.4h-1l-13.3-58.3h-32.8L194.3-81.1l24.6-0.6l6.7-39h16.7L250.4-79.3z
					 M229.6-143.9l3.8-21.9l4.3,21.9H229.6z"/>
				<polygon class="st4" points="352.3,-74.2 352.3,-204.7 389.1,-204.7 432.4,-109.2 432.4,-209.8 463.4,-209.8 461.1,-71.7 
					409,-71.7 376.3,-158.3 376.3,-73.6 				"/>
				<path class="st4" d="M533.2-182.6v-25.9c0,0-56.8-19.3-57.5,32.8c0.7,21.9,17.3,29.9,27.9,46.6s-3,23.7-25.3,19.7
					c1,0.7,0,36.4,0,36.4s56.8,17.5,64.5-27c7-46.6-25.9-61.6-30.6-65.6c-15.3-7.3-11.6-20-3.7-23.7
					C517-192.8,533.2-182.6,533.2-182.6z"/>
				<g>
					<rect x="298.6" y="-157.4" class="st4" width="35.3" height="85.8"/>
					<ellipse class="st4" cx="315.5" cy="-188.9" rx="21.7" ry="20.9"/>
				</g>
				<path class="st4" d="M712.1-204h30.5c0,0-10.4,96.3,23.7,97.5s21.5-96.9,21.5-96.9H824c0,0,30.6,125.5-43.1,134.2
					c-70.2,1.9-64.6-43.5-66-67.1C712.1-163,712.1-204,712.1-204z"/>
				<g>
					<rect x="838" y="-203.3" class="st4" width="97.2" height="31.2"/>
					<rect x="870.4" y="-200.8" class="st4" width="41.9" height="130.3"/>
				</g>
			</g>
			<polygon class="st4" points="29.6,-205 39,-212.1 40.4,-182.2 38.2,-79.4 29.9,-113.3 			"/>
			<polygon class="st4" points="106.7,-209.9 115.5,-216.9 119.1,-199.8 146.7,-85.1 137.9,-78.1 112.9,-80.7 			"/>
			<polygon class="st4" points="196,-78.6 187.3,-71.5 171.4,-74.1 169.6,-86.5 			"/>
			<polygon class="st4" points="230.6,-209.2 221.8,-202.2 221.3,-179.5 237.8,-199.7 			"/>
			<polygon class="st4" points="227.6,-88.7 218,-81.3 209.5,-96 			"/>
			<polygon class="st4" points="291.4,-86.4 282.6,-79.3 266,-81 266.8,-95.4 			"/>
			<polygon class="st4" points="342.6,-78.7 333.9,-71.7 323.9,-92.1 			"/>
			<polygon class="st4" points="361,-211.7 352.3,-204.7 356.6,-187.6 372.4,-190.5 			"/>
			<polygon class="st4" points="385,-80.6 376.3,-73.6 367.4,-78 369,-98.4 			"/>
			<polygon class="st4" points="469.9,-78.7 461.1,-71.7 444.5,-107.1 460.2,-98.8 			"/>
			<path class="st4" d="M441.2-216.9l-8.8,7l6.6,21c0,0,14.5-3.8,14.1-5S441.2-216.9,441.2-216.9z"/>
			<polygon class="st4" points="487.2,-116.4 478.4,-107.1 489.6,-84.2 			"/>
			<polygon class="st4" points="542,-189.6 533.2,-182.6 526.1,-202.6 537.7,-197.6 			"/>
			<polygon class="st4" points="720.8,-211.1 712.1,-204 724.2,-181.8 733.3,-193 			"/>
			<polygon class="st4" points="796.6,-210.5 787.8,-203.4 800,-177.1 			"/>
			<polygon class="st4" points="846.8,-210.4 838,-203.3 842.2,-192.9 854.7,-197.6 			"/>
			<polygon class="st4" points="944,-179.2 934.6,-172.2 922.9,-186.1 929.2,-191.8 			"/>
			<polygon class="st4" points="921.1,-77.5 912.4,-70.4 899,-87.6 905.2,-89.1 			"/>
			<polygon class="st4" points="18.7,-220.8 10,-213.8 17.5,-191.3 			"/>
			<g>
				<path class="st2" d="M649.2-214.8c-33.8,0-61.2,31.8-61.2,71.1s27.4,71.1,61.2,71.1s61.2-31.8,61.2-71.1S683-214.8,649.2-214.8z
					 M649.2-107.2c-17.3,0-31.3-16.3-31.3-36.4s14-36.4,31.3-36.4s31.3,16.3,31.3,36.4S666.5-107.2,649.2-107.2z"/>
				<path class="st2" d="M170-141.9c0,0,18.7,6.6,22.9-31.4c3.4-31.4-4.2-41.4-46.2-43.3v-0.3h-8.8c-6.7-0.1-14.2-0.1-22.4,0v131.8
					h31.2v-47l21.8,53.5H196L170-141.9z M144-160.9l1-39.8c0,0,28.6,0,25.5,22.3S144-160.9,144-160.9z"/>
				<path class="st2" d="M75.9-156.1c5-0.2,20.4-3.4,22.6-34.2c2.7-36.9-79.8-30.5-79.8-30.5l-0.6,7.6v133.9c0,0,69,22.5,80.2-28
					C108-151.4,82.6-155.8,75.9-156.1z M45.6-101.6c0.4-1.3,0-24.2,0-24.2s7.5-0.9,12.7,0.9s7,10.6,7,10.6
					C66.2-101.6,45.1-100.3,45.6-101.6z M45.6-175.7c0.4-1.3,0-24.2,0-24.2s7.5-0.9,12.7,0.9s7,10.6,7,10.6
					C66.2-175.7,45.1-174.4,45.6-175.7z"/>
				<path class="st2" d="M259.2-86.4h32.2l-13.8-60.2l-0.9-4.6l-0.1,0.1l-13.3-58.3h-32.8L203.1-88.1l24.6-0.6l6.7-39h16.7
					L259.2-86.4z M238.4-151l3.8-21.9l4.3,21.9H238.4z"/>
				<polygon class="st2" points="361,-81.3 361,-211.7 397.9,-211.7 441.2,-116.3 441.2,-216.9 472.2,-216.9 469.9,-78.7 
					417.8,-78.7 385,-165.3 385,-80.6 				"/>
				<path class="st2" d="M542-189.6v-25.9c0,0-56.8-19.3-57.5,32.8c0.7,21.9,17.3,29.9,27.9,46.6c10.6,16.8-3,23.7-25.3,19.7
					c1,0.7,0,36.4,0,36.4s56.8,17.5,64.5-27c7-46.6-25.9-61.6-30.6-65.6c-15.3-7.3-11.6-20-3.7-23.7
					C525.7-199.8,542-189.6,542-189.6z"/>
				<g>
					<ellipse class="st2" cx="324.3" cy="-196" rx="21.7" ry="20.9"/>
				</g>
				<path class="st2" d="M720.8-211.1h30.5c0,0-10.4,96.3,23.7,97.5c34.1,1.2,21.5-96.9,21.5-96.9h36.1c0,0,30.6,125.5-43.1,134.2
					c-70.2,1.9-64.6-43.5-66-67.1C720.8-170.1,720.8-211.1,720.8-211.1z"/>
				<g>
					<rect x="846.8" y="-210.4" class="st2" width="97.2" height="31.2"/>
					<rect x="879.2" y="-207.8" class="st2" width="41.9" height="130.3"/>
				</g>
			</g>
		</g>
		<path class="st5" d="M252.4,309.6c7.5,0.7,13.7,0.1,14.1-5.5C264.1,305.6,255.9,307.4,252.4,309.6z"/>
		<path class="st5" d="M156.7,315.4c-3.8,2.7-11.3,3.7-13.1,8.4C151.6,324.7,157.4,323.5,156.7,315.4z"/>
		<g>
			<path class="st3" d="M193.1,839.5v-26.9h3.7v26.9H193.1z"/>
			<path class="st3" d="M205.2,830.7c0.2,4.1,2.6,6.9,5.6,6.9c3.2,0,5.1-2.7,5.2-4.3l3.5,0c-0.1,2.9-3.6,7-8.9,7
				c-5.3,0-9.2-4.4-9.2-10.1c0-5.8,4-10.2,9.2-10.2s8.8,4.2,9,9.4v1.3H205.2z M216,828.4c-0.6-3.4-2.8-5.7-5.3-5.7
				c-2.7,0-4.8,2.3-5.4,5.7H216z"/>
			<path class="st3" d="M241.2,839.5h-3.5l-0.1-3.8c-1.2,2.8-3.4,4.5-6.3,4.5c-4.8,0-8.3-4.3-8.3-10.2c0-5.9,3.5-10.1,8.3-10.1
				c3,0,5.1,1.7,6.3,4.4l0.1-3.7h3.5V839.5z M237.5,830.1c0-4.2-2.4-7.3-5.5-7.3c-3.1,0-5.5,3.4-5.5,7.3c0,4,2.4,7.4,5.5,7.4
				C235.1,837.4,237.5,834.2,237.5,830.1z"/>
			<path class="st3" d="M246.9,839.5v-18.8h3.6l0.1,4.6c1.1-3.4,3.5-5.3,6.3-5.3v3.5c-2.3-0.2-6.3,1.9-6.3,8.3v7.7H246.9z"/>
			<path class="st3" d="M274.4,839.5v-11.1c0-3.8-1.5-5.5-4.2-5.5c-3.1,0-5.3,2.7-5.4,7.5v9.1H261v-18.8h3.6l0.1,3.9
				c1.2-2.8,3.6-4.6,7-4.6c4,0,6.4,2.5,6.4,7.8v11.7H274.4z"/>
			<path class="st3" d="M317.8,839.5v-11.1c0-3.8-1.4-5.5-3.8-5.5c-2.8,0-4.7,2.8-4.7,7.8v8.8h-3.7v-11.1c0-3.8-1.3-5.5-3.8-5.5
				c-2.7,0-4.7,2.7-4.8,7.4v9.2h-3.7v-18.8h3.6l0.1,3.7c1.1-2.6,3.3-4.4,6.3-4.4c2.8,0,4.8,1.4,5.7,4.9c1.2-3.2,3.6-4.9,6.5-4.9
				c3.8,0,6.1,2.5,6.1,7.8v11.7H317.8z"/>
			<path class="st3" d="M326.1,830.1c0-6.1,3.9-10.1,9.3-10.1s9.4,4,9.4,10.1c0,6.1-3.9,10.2-9.4,10.2
				C330,840.3,326.1,836.2,326.1,830.1z M341.1,830.1c0-4.2-2.5-7.4-5.6-7.4c-3.2,0-5.6,3.2-5.6,7.4c0,4.2,2.4,7.4,5.6,7.4
				C338.6,837.5,341.1,834.3,341.1,830.1z"/>
			<path class="st3" d="M349.4,839.5v-18.8h3.6l0.1,4.6c1.1-3.4,3.5-5.3,6.3-5.3v3.5c-2.3-0.2-6.3,1.9-6.3,8.3v7.7H349.4z"/>
			<path class="st3" d="M365.1,830.7c0.2,4.1,2.6,6.9,5.6,6.9c3.2,0,5.1-2.7,5.2-4.3l3.5,0c-0.1,2.9-3.6,7-8.9,7
				c-5.3,0-9.2-4.4-9.2-10.1c0-5.8,4-10.2,9.2-10.2c5.2,0,8.8,4.2,9,9.4v1.3H365.1z M375.9,828.4c-0.6-3.4-2.8-5.7-5.3-5.7
				c-2.7,0-4.8,2.3-5.4,5.7H375.9z"/>
			<path class="st3" d="M410.5,839.5H407l-0.1-3.8c-1.2,2.8-3.4,4.5-6.3,4.5c-4.8,0-8.3-4.3-8.3-10.2c0-5.9,3.5-10.1,8.3-10.1
				c3,0,5.1,1.7,6.3,4.4l0.1-3.7h3.5V839.5z M406.9,830.1c0-4.2-2.4-7.3-5.5-7.3c-3.1,0-5.5,3.4-5.5,7.3c0,4,2.4,7.4,5.5,7.4
				C404.4,837.4,406.9,834.2,406.9,830.1z"/>
			<path class="st3" d="M425.1,839.6c0,0-0.9,0.3-2.5,0.3c-3.2,0-5.1-1.5-5.1-6.1v-11h-2.3v-2.2h2.3V816h3.7v4.7h3.4v2.2h-3.4v10.7
				c0,2.8,0.9,3.7,2.6,3.7c0.8,0,1.3-0.1,1.3-0.1V839.6z"/>
			<path class="st3" d="M441.8,830.7c0.2,4.1,2.6,6.9,5.6,6.9c3.2,0,5.1-2.7,5.2-4.3l3.5,0c-0.1,2.9-3.6,7-8.9,7
				c-5.3,0-9.2-4.4-9.2-10.1c0-5.8,4-10.2,9.2-10.2c5.2,0,8.8,4.2,9,9.4v1.3H441.8z M452.6,828.4c-0.6-3.4-2.8-5.7-5.3-5.7
				c-2.7,0-4.8,2.3-5.4,5.7H452.6z"/>
			<path class="st3" d="M470.8,839.5l-5.1-7.2l-5.2,7.2h-3.6l7.1-9.4l-7-9.4h4.2l5,7.2l4.9-7.2h3.5l-6.9,9.3l7.3,9.5H470.8z"/>
			<path class="st3" d="M482.1,847.1h-3.7v-26.4h3.5l0.1,3.8c1.2-2.7,3.4-4.5,6.4-4.5c4.8,0,8.3,4.3,8.3,10.2
				c0,5.9-3.5,10.1-8.3,10.1c-3,0-5.1-1.6-6.3-4.3V847.1z M492.9,830.2c0-4-2.3-7.5-5.5-7.5c-3.1,0-5.5,3.2-5.5,7.5s2.4,7.3,5.5,7.3
				C490.6,837.5,492.9,834.2,492.9,830.2z"/>
			<path class="st3" d="M501.2,839.5v-26.9h3.7v26.9H501.2z"/>
			<path class="st3" d="M510.8,839.5v-18.8h3.7v18.8H510.8z M510.8,816.9v-4.2h3.7v4.2H510.8z"/>
			<path class="st3" d="M537.2,832.7c-0.9,4.5-4.1,7.6-8.8,7.6c-5.4,0-9.3-4.3-9.3-10.2c0-5.9,3.9-10.1,9.3-10.1
				c4.5,0,7.8,2.9,8.8,7.2l-3.6,0.1c-0.8-2.5-2.6-4.6-5.1-4.6c-3.3,0-5.7,3.4-5.7,7.4c0,4,2.4,7.5,5.7,7.5c2.6,0,4.4-2.5,5.1-4.9
				L537.2,832.7z"/>
			<path class="st3" d="M541.6,839.5v-18.8h3.7v18.8H541.6z M541.6,816.9v-4.2h3.7v4.2H541.6z"/>
			<path class="st3" d="M560,839.6c0,0-0.9,0.3-2.5,0.3c-3.2,0-5.1-1.5-5.1-6.1v-11H550v-2.2h2.3V816h3.7v4.7h3.4v2.2H556v10.7
				c0,2.8,0.9,3.7,2.6,3.7c0.8,0,1.3-0.1,1.3-0.1V839.6z"/>
			<path class="st3" d="M580.7,832.7c-0.9,4.5-4.1,7.6-8.8,7.6c-5.4,0-9.3-4.3-9.3-10.2c0-5.9,3.9-10.1,9.3-10.1
				c4.5,0,7.8,2.9,8.8,7.2l-3.6,0.1c-0.8-2.5-2.6-4.6-5.1-4.6c-3.3,0-5.7,3.4-5.7,7.4c0,4,2.4,7.5,5.7,7.5c2.6,0,4.4-2.5,5.1-4.9
				L580.7,832.7z"/>
			<path class="st3" d="M583.9,830.1c0-6.1,3.9-10.1,9.3-10.1c5.4,0,9.4,4,9.4,10.1c0,6.1-3.9,10.2-9.4,10.2
				C587.7,840.3,583.9,836.2,583.9,830.1z M598.8,830.1c0-4.2-2.5-7.4-5.6-7.4c-3.2,0-5.6,3.2-5.6,7.4c0,4.2,2.4,7.4,5.6,7.4
				C596.4,837.5,598.8,834.3,598.8,830.1z"/>
			<path class="st3" d="M620.5,839.5v-11.1c0-3.8-1.5-5.5-4.2-5.5c-3.1,0-5.3,2.7-5.4,7.5v9.1h-3.7v-18.8h3.6l0.1,3.9
				c1.2-2.8,3.6-4.6,7-4.6c4,0,6.4,2.5,6.4,7.8v11.7H620.5z"/>
			<path class="st3" d="M640.3,825.6c-0.2-2-1.8-3-4.2-3c-2.2,0-3.7,0.9-3.7,2.7c0,2.1,1.8,2.7,5,3.2c4.2,0.6,6.6,2.7,6.6,6.1
				c0,3.9-3.4,5.8-7.8,5.8c-4.8,0-7.4-2.3-7.8-6.2l3.2-0.1c0.3,2.3,1.9,3.7,4.8,3.7c2.5,0,4.2-1.1,4.2-3c0-2-1.8-3.1-4.9-3.5
				c-3.8-0.6-6.6-2.4-6.6-5.8c0-3.4,3.1-5.4,7.1-5.4c4.2,0,6.9,2,7.4,5.4L640.3,825.6z"/>
			<path class="st3" d="M650.7,830.7c0.2,4.1,2.6,6.9,5.6,6.9c3.2,0,5.1-2.7,5.2-4.3l3.5,0c-0.1,2.9-3.6,7-8.9,7
				c-5.3,0-9.2-4.4-9.2-10.1c0-5.8,4-10.2,9.2-10.2c5.2,0,8.8,4.2,9,9.4v1.3H650.7z M661.5,828.4c-0.6-3.4-2.8-5.7-5.3-5.7
				c-2.7,0-4.8,2.3-5.4,5.7H661.5z"/>
			<path class="st3" d="M683,839.5v-11.1c0-3.8-1.5-5.5-4.2-5.5c-3.1,0-5.3,2.7-5.4,7.5v9.1h-3.7v-18.8h3.6l0.1,3.9
				c1.2-2.8,3.6-4.6,7-4.6c4,0,6.4,2.5,6.4,7.8v11.7H683z"/>
			<path class="st3" d="M700.9,839.6c0,0-0.9,0.3-2.5,0.3c-3.2,0-5.1-1.5-5.1-6.1v-11h-2.3v-2.2h2.3V816h3.7v4.7h3.4v2.2H697v10.7
				c0,2.8,0.9,3.7,2.6,3.7c0.8,0,1.3-0.1,1.3-0.1V839.6z"/>
			<path class="st3" d="M705.7,839.5v-4.6h4.5v4.6H705.7z"/>
			<path class="st3" d="M714.8,830.1c0-6.1,3.9-10.1,9.3-10.1c5.4,0,9.4,4,9.4,10.1c0,6.1-3.9,10.2-9.4,10.2
				C718.6,840.3,714.8,836.2,714.8,830.1z M729.8,830.1c0-4.2-2.5-7.4-5.6-7.4c-3.2,0-5.6,3.2-5.6,7.4c0,4.2,2.4,7.4,5.6,7.4
				C727.3,837.5,729.8,834.3,729.8,830.1z"/>
			<path class="st3" d="M738,839.5v-18.8h3.6l0.1,4.6c1.1-3.4,3.5-5.3,6.3-5.3v3.5c-2.3-0.2-6.3,1.9-6.3,8.3v7.7H738z"/>
			<path class="st3" d="M764.8,835.7c-1.2,2.8-3.4,4.6-6.4,4.6c-4.8,0-8.3-4.2-8.3-10.2c0-5.9,3.5-10.1,8.3-10.1
				c3,0,5.2,1.7,6.4,4.5l0.2-3.8h3.4v18c0,6.2-3.9,8.9-8.8,8.9c-5,0-7.6-2.5-8.2-5.8h3.6c0.4,2.2,2.1,3.7,4.6,3.7
				c2.4,0,5.3-1.3,5.3-6.1V835.7z M764.7,830.1c0-4.3-2.5-7.4-5.5-7.4c-3.1,0-5.5,3.4-5.5,7.4c0,4.1,2.4,7.5,5.5,7.5
				C762.3,837.6,764.7,834.4,764.7,830.1z"/>
		</g>
		<path class="st9" d="M218.3,256.7c7.9-8.4,15.8-3.8,15.8-3.8C227.8,243.9,218.3,256.7,218.3,256.7z"/>
		<path class="st9" d="M243.7,254c7.9-8.4,15.8-3.8,15.8-3.8C253.2,241.2,243.7,254,243.7,254z"/>
		<path class="st1" d="M212.3,255.5c0.6-9.6,3.5-12.3,5.6-13.8c5.2-3.8,9-5.4,9-5.4l-2.6,4.5l17.8-6.6l-4.4,5.2l20.2-6.7l-4.4,5.8
			l18.5-5.6c0,0-5.2,5-4.4,5c13.8-1,17.1,8.3,14.2,13.8s-12.7-5.4-12.7-5.4l-21.7-1l-7.3,3.8l-10-1.7l-10,1.9L212.3,255.5z"/>
		<path class="st7" d="M283,245.9c-0.1,0.1-0.3,0.2-0.4,0.3c-3.3,2.1-3.7,2.7-3.2,2c2.4-4.4,2.4-4.4,2.4-4.4c-9-3.6-14-5.8-14-5.8
			l16.6-8.1c0,0,5.1,2.5,5.3,2.8c0.2,0.3,5.4,9.9,5.4,9.9l-9.7,1.5L283,245.9z"/>
		<g>
			<path class="st2" d="M61.3,640.6c15,14.4,18.6,18.3,18.6,18.3l1.1-4.4l4.2,2.2l0.6-4.2l8.6,1.1l-1.9-3.9l7.2,0.3l-16.9-22
				l-0.8,3.1l-5.3-2.2l-0.6,4.2l-4.7-1.7l-0.8,4.2l-5.8-1.7l0.8,4.4l-3.9-1.7L61.3,640.6z"/>
			<path class="st8" d="M79.9,651c-5.2,0-9.4-3.5-9.4-7.7c0-4.3,4.2-7.7,9.4-7.7s9.4,3.5,9.4,7.7C89.3,647.6,85.1,651,79.9,651z
				 M79.9,638.7c-3.4,0-6.2,2.1-6.2,4.6c0,2.5,2.8,4.6,6.2,4.6s6.2-2.1,6.2-4.6C86.1,640.8,83.3,638.7,79.9,638.7z"/>
		</g>
		<path class="st2" d="M15.8,692.2l-2.5,2.3l3.1,0.2l-1.9,3.5l5-0.6l-0.4,3.3l2.1-0.8l0.6,4.8l4.4-1.5l-0.4,2.9L30,705l-0.2,2.7
			L46,694.1c-6.8-5.7-11.5-11.1-19.5-13.1L15.8,692.2z"/>
		<path class="st2" d="M48.6,685.5l0.6-3.2l-5.9,0.3l-0.1-3.4l-5.1,2.5l1.4-4.6l-4.3,0.9l1.4-3.4l-5.1,2.7l-0.5-3.3l-4.1,5.9
			c8.2,0.8,13.7,5.4,21.3,10l4.6-5.2L48.6,685.5z"/>
		<path class="st2" d="M-3,633.5l1.1,1.6l10.4,15.4l1-2.3l3.8,1.9l1.5-4l5.4,1.9l0.4-3.8l4.8,1l0.4-3.5l4.8,1l1-2.5l2.5,0.6
			l-10.9-13C14.3,629.5,5.1,630.7-3,633.5z"/>
		<path class="st2" d="M14.2,617.3l-0.8,2.7l-5.2-0.5l1.7,3.1l-5.1,0.1l-0.7,1.8l-2.5-1l-0.7,4l-4.6-1.7l1,2.8l-5,0.5l4.7,4.7
			c7.4-4.3,16.2-7.2,24.7-10.5L14.2,617.3z"/>
		<polygon class="st4" points="307.4,-164.5 298.6,-157.4 304.7,-141.7 312.4,-149 		"/>
		<rect x="307.4" y="-164.5" class="st2" width="35.3" height="85.8"/>
	</g>
</g>
</svg>
