<?xml version="1.0" encoding="utf-8"?>
<!-- Generator: Adobe Illustrator 23.0.4, SVG Export Plug-In . SVG Version: 6.00 Build 0)  -->
<svg version="1.1" id="Layer_1" xmlns="http://www.w3.org/2000/svg" xmlns:xlink="http://www.w3.org/1999/xlink" x="0px" y="0px"
	 viewBox="0 0 900 650" style="enable-background:new 0 0 900 650;" xml:space="preserve">
<style type="text/css">
	.st0{clip-path:url(#SVGID_2_);}
	.st1{fill:#4CA1BB;}
	.st2{fill:#FFFFFF;}
	.st3{fill:#ED6448;}
	.st4{fill:#CDA18B;}
	.st5{fill:#FFCF67;}
	.st6{fill:#5CC1EB;}
	.st7{fill:#303030;}
	.st8{fill:none;stroke:#000000;stroke-width:4.2558;stroke-miterlimit:10;}
	.st9{fill:none;stroke:#000000;stroke-width:3.9849;stroke-miterlimit:10;}
	.st10{fill:none;stroke:#4CA1BB;stroke-width:2.1279;stroke-miterlimit:10;}
</style>
<g>
	<defs>
		<rect id="SVGID_1_" x="-170.6" y="-464.8" width="1070.6" height="1434"/>
	</defs>
	<clipPath id="SVGID_2_">
		<use xlink:href="#SVGID_1_"  style="overflow:visible;"/>
	</clipPath>
	<g class="st0">
		<rect x="-311.9" y="-760.4" class="st1" width="1350.3" height="1729.7"/>
		<circle cx="182.2" cy="98.4" r="72.7"/>
		<path d="M345.4,146.7c-1.6-1.2-2.6-1.7-3.3-2.5c-4.5-5.5-8.8-11.3-13.5-16.7c-8.5-9.9-17.3-19.5-27.9-26.4
			c-4.8-3.1-9.2-6.9-13.9-10.2c-3.9-2.7-7.9-5.3-11.9-7.8c-7.6-4.8-15.3-9.6-22.9-14.4c-6.1-3.8-11.9-8.3-18.2-11.3
			c-6.3-3.1-13.1-5-19.8-7c-1.9-0.6-4.1,0.2-6.7,0.4c3.2-6,6.1-10.7,8.3-15.7c1.4-3.2,3-3.8,5.7-2.5c7.5,3.8,15.1,7.5,22.6,11.3
			c16.3,8.4,30.9,20,45.7,31.3c4.6,3.5,9.4,6.6,13.8,10.3c9.2,7.7,18.3,15.5,27.2,23.6c3.5,3.3,6.4,7.5,9.6,11.3
			c1.6,1.9,3.2,3.8,5.2,6V146.7z"/>
		<path class="st2" d="M244-141.9c-1,2.2-1.1,4.6-1.4,7c-0.3,2.5-0.4,5-0.7,7.5c-0.4,3.2-1.7,4-6.6,4c0.3-1.1,0.5-2.1,0.8-3.1
			c3.3-11.8,6.9-23.6,9.9-35.4c1.8-7,2.7-14.2,3.7-21.4c0.9-7.1,3.4-13.9,5.7-20.7c0.8-2.4,3.1-3.8,5.6-4.9c2.7-1.2,5.5-2.4,8.3-3.6
			c5.7-2.4,10-6,14.2-9.8c2.3-2.1,4.6-4.1,7.4-6.5c3.1,5.9,4.3,11.6,5,17.3c0.6,4.6,1.1,9.3,1,14c-0.1,4.3,2.7,6.6,7.2,8.1
			c1.9,0.6,4.2,0.8,4.8,3.1c-2.5,1.7-5.5,2.6-8.6,3.3c-1.2,0.3-2.3,0.5-3.5,0.7c-4.9,0.8-8,2.7-9.7,6.9c-2.4,5.9-6.3,11.4-12.1,15.7
			c-6.1,4.6-12.6,8.8-21,10.7C249.3-148,245.7-145.6,244-141.9z"/>
		<polygon class="st2" points="165.9,-108.8 129.7,45.3 149.1,32.2 163.2,59.5 182.2,34.5 205.3,58 215.6,35.5 243.6,45 240,-125.6 
					"/>
		<rect x="424.1" y="-375.6" class="st2" width="101.4" height="209.9"/>
		<path class="st2" d="M82,28.6c-0.3,3.3-0.4,6.5-0.9,9.7c-0.6,4.1-1.7,4.9-6.4,5.3c-7,0.7-13.9,0.1-20.7-0.7
			c-0.7-0.1-1.4-0.2-2.1-0.3C43.3,42,34.7,41.4,26,40.7c-1.2-0.1-2.6-0.4-3.4-1c-0.6-0.5-0.6-2-0.2-2.6c0.4-0.7,1.8-1.3,2.8-1.3
			c4.7,0.2,9.3,0.7,14,1.1c0.3,0,0.6,0.1,0.8,0.1c10.5,0.5,21,1.1,31.4,1.3c5.1,0.1,5.4-0.4,5.4-4.9c0-3.3,0-6.5,0-9.8
			c0-0.7-0.2-1.6,0.1-2.2c0.4-0.8,1.2-1.7,2.1-1.9c1.4-0.3,2.5,0.6,2.6,1.8c0.2,1.6,0.1,3.1,0.1,4.7c0,0.8,0,1.7,0,2.5
			C81.9,28.6,82,28.6,82,28.6z"/>
		<rect x="-290.9" y="-374.8" class="st2" width="178" height="258.7"/>
		<polygon points="788.2,-229.2 842.1,-124.9 904.7,-164.2 852.4,-269.2 		"/>
		<path d="M708.6-129.5c-29,51.2-25.9,78.1-25.9,78.1l71.9,5.2c0,0-8.3-70.9-15-78.1S708.6-129.5,708.6-129.5z"/>
		<path class="st2" d="M742.7-262.2c38.8,64.4,24.8,104.7,4.6,125.3c-12.4,15.2-6.2,16-6.2,16c-19.4,10.8-31.8-3.5-31.8-3.5
			c-0.7-20.6-6.9-22.2-24-38.5c-29.5-43.5-21.7-79.2,3.9-96.2C714.8-276.2,742.7-262.2,742.7-262.2z"/>
		<rect x="633.1" y="-33.3" class="st2" width="339.4" height="216.2"/>
		<path class="st2" d="M973.4-37.6H638.5c-8.4,0-15.3-6.8-15.3-15.3v-9.5c0-8.4,6.8-15.3,15.3-15.3h334.8c8.4,0,15.3,6.8,15.3,15.3
			v9.5C988.6-44.4,981.8-37.6,973.4-37.6z"/>
		<path d="M851.8,544.9c41.3,4.3,40,4.2,40,4.2l3.6-19l-11.6-1.6l-19.4-1.6L851.8,544.9z"/>
		<path class="st2" d="M814.1,517.2c-1-1.4-0.6-4.1,0.7-5.2c4.5-3.7,9.7-5.8,14.8-8.5c7.9-33.8,6.1-74-12.8-90.4l-34.7,0.5
			c0,0-15.5,11.9-38.8,33.1C720,468,721,515.1,726.7,527c5.7,11.9,28.9,14.5,24.8,37.9c-3.1,0.7,17.1,13.2,34.2,7
			c0,0-9.8,2.6,18.7-19.1c7.1-5.4,13.4-15.2,18.3-27.2C819.4,523.2,816.5,520.5,814.1,517.2z"/>
		<rect x="669.8" y="438.5" class="st2" width="397.3" height="7.8"/>
		<polygon class="st2" points="530.5,390.9 461.3,390.9 461.3,303.1 459.2,303.1 459.2,393 530.5,393 		"/>
		<polygon class="st2" points="459.2,226.4 459.2,294.6 461.3,294.6 461.3,228.5 642.3,228.5 642.3,390.9 539,390.9 539,393 
			644.5,393 644.5,226.4 		"/>
		<polygon class="st2" points="459.9,865.3 459.9,967.6 462,967.6 462,868.5 643,868.5 643,1112 539.7,1112 539.7,1115.2 
			645.1,1115.2 645.1,865.3 		"/>
		<path class="st2" d="M425.5,628.4h-3.8c-5,0-9-4-9-9l0.2-129.8c2.3-17.1,23.8-21.7,28.7-21.7l-6.2,3.1c5,0-0.9,6.3-0.9,11.2v137.1
			C434.5,624.4,430.5,628.4,425.5,628.4z"/>
		<path d="M416.8,487.6c-7.8,152.1-7.8,152.1-7.8,152.1l128.3-0.5c0,0-1.6-155.2-1.6-161.9c-2.1-16.6-47.6-15-63.1-13.5
			c-29,3.1-43.5,8.8-49.7,14.5C416.8,484,416.8,487.6,416.8,487.6z"/>
		<path class="st2" d="M438.5,468c-6.2,32.1,26.4,56.4,34.7,53.3s23.3-16.6,30-37.2c6.7-20.7,6.7-20.7,6.7-20.7l-21.7-3.6L438.5,468
			z"/>
		<path class="st2" d="M493.6,309.7c-55.8-24-90.8,1.6-101.7,45s10.1,93.1,55.9,98.6c12.4,2.3,12.4,21.3,12.4,21.3
			c26.4,0.5,32.6-4.8,32.6-4.8c-2.3-27.3,16.4-34.3,27.2-49.9c13.2-21.7,10.3-71.3-5.3-87.7C499.1,315.9,493.6,309.7,493.6,309.7z"
			/>
		<path class="st2" d="M-15.2-245.5c-43.3-18.7-70.5,1.2-78.9,35s7.8,72.3,43.4,76.5c9.6,1.8-5.7,15.3-5.7,15.3
			c20.5,0.4,40.6-2.5,40.6-2.5c-1.8-21.2,12.7-26.7,21.1-38.7c10.2-16.9,8-55.4-4.1-68.1S-15.2-245.5-15.2-245.5z"/>
		
			<rect x="-467.5" y="891.2" transform="matrix(6.123234e-17 -1 1 6.123234e-17 -664.7062 1134.1278)" class="st2" width="1404.3" height="16.4"/>
		
			<rect x="-36.8" y="891.2" transform="matrix(6.123234e-17 -1 1 6.123234e-17 -234.0177 1564.8164)" class="st2" width="1404.3" height="16.4"/>
		<rect x="-385.7" y="213.5" class="st3" width="613.7" height="619.8"/>
		<path d="M157.4,718.6H59c-7.3,0-13.2-5.9-13.2-13.2v0c0-7.3,5.9-13.2,13.2-13.2h98.4c7.3,0,13.2,5.9,13.2,13.2v0
			C170.6,712.7,164.7,718.6,157.4,718.6z"/>
		<path d="M23,77.5h-98.4c-7.3,0-13.2-5.9-13.2-13.2v0c0-7.3,5.9-13.2,13.2-13.2H23c7.3,0,13.2,5.9,13.2,13.2v0
			C36.2,71.6,30.3,77.5,23,77.5z"/>
		<path class="st2" d="M172.1,293.5c-0.2-2.1-0.2-4.3-0.7-6.4c-1.1-4.3-1.7-9-4-12.6c-5.3-8.2-13-14-22.6-16.5
			c-3.4-0.9-7.1-1.4-10.6-1.2c-4.3,0.3-8.5,1.6-12.7,2.2c-3.2,0.5-6,1.9-8.7,3.6c-1.3,0.8-2.6,1.6-3.9,2.3c-1.1,0.6-2.3,0.9-3.3,1.6
			c-6.7,5.1-10.2,12.4-12.7,20c-1.6,4.8-0.9,10.1-0.2,15.1c0.5,4.1,1.5,8,3.9,11.5c6.7,10,16.3,15.5,27.9,17.7
			c3.3,0.6,6.9,0.7,10.2,0c5.8-1.2,11.7-2.9,17.2-5.1c5.8-2.3,10.5-6.5,14-11.5C170.1,308.1,171.5,300.9,172.1,293.5z"/>
		<path d="M-43,803.6h38.7c-3-2.8-6.1-5.7-10.2-8.1L-43,803.6z"/>
		<path class="st4" d="M21.8,763.3l-18.6-7.4l-16.3,39.2l-1.4,0.4c4.1,2.5,7.2,5.4,10.2,8.1h0.5L21.8,763.3z"/>
		<path class="st4" d="M76.5,763.3l-18.6-7.4l-16.3,39.2l-0.4,0.1c3.7,1.7,7.2,4.1,10.8,6.8L76.5,763.3z"/>
		<path d="M41.2,795.2l-29.4,8.4h39.2L52,802C48.4,799.3,44.9,796.9,41.2,795.2z"/>
		<path class="st5" d="M-10.5,767c2.9,0.6,5.7,1.4,8.4,2.5c-1.8-0.8-3.6-1.7-5.4-2.5c-5.3-2.6-10.6-4.9-16.7-5.1
			c-0.3,0-0.7-0.2-1.2-0.4c1.2-2.9,3.8-4.1,6.1-5.5c2-1.2,4.1-2,6.2-2.9c6.6-2.5,11.2-6.8,15-12.8c3.8-5.9,8.1-11.7,14.2-15.8
			c5.6-3.7,11-7.8,16.6-11.5c4.6-3.1,7.3-7.2,8.4-12.6c1-4.8,3.4-9.2,6.4-12.9c2.2-2.8,5.4-5.3,8.6-6.8c2.4-1.1,4.3-2.7,6-4.3
			c-1.5-0.7-3-1.4-4.6-2.3c-0.9,0.5-1.7,1-2.5,1.4c-8.5,4.1-14.4,10.4-16.8,19.7c-0.5,2-1.3,3.9-1.8,5.9c-0.6,3-2.5,5-4.8,6.7
			c-2.2,1.7-4.7,3-7,4.6c-5.3,3.8-11.1,7-15.6,11.6c-5.1,5.1-9,11.4-13.5,17c-1.1,1.4-2.4,2.7-3.8,3.7c-1.7,1.2-3.6,2-5.4,2.9
			c-5.8,2.8-11.9,5.2-16.3,10.4c-1.5,1.7-3.2,3.3-4.8,4.8c-0.3,0.3-0.6,0.7-0.9,1C-27.3,764.8-18.8,765.4-10.5,767z"/>
		<g>
			<circle class="st2" cx="162.7" cy="785" r="17.5"/>
			<circle class="st2" cx="49.4" cy="785" r="17.5"/>
			<path d="M158.3,698.1c-3.5-0.5-7.1-0.9-10.6-1.2c-1.8-0.2-3-0.9-4.2-2.3c-3.5-3.9-4.1-8.7-4.2-13.6c-0.2-8-0.5-16.1-0.3-24.1
				c0.1-4.8,1.1-9.6,1.7-14.4c0.5-4.4,1-8.8,1.4-13.3c0.8-8.5,1.4-17,2.4-25.5c2-15.9,3.1-31.9,8-47.4c1.7-5.4,2.3-11.2,3.6-16.8
				c1-4.1,2.3-8.1,3.6-12c0.4-1.1,1.3-2,2.2-3.3c2.5,1.7,3.9,3.4,4.4,5.8c0.7,3.7,1.9,7.4,2.3,11.2c0.8,9.5,1.3,19.1,1.8,28.6
				c0.8,14.8,1.6,29.5,2.2,44.3c0.3,7.5,0.2,15,0.3,22.6c0.1,4.1,0.2,8.1,0.4,12.2c0.4,10.1-1,20.1-2.5,30.1
				c-0.8,5.4-1.8,10.5-4.8,15.1C164.1,697.1,161.8,698.5,158.3,698.1z"/>
			<rect x="106.4" y="705.5" class="st2" width="13.7" height="82.3"/>
			<path d="M163.1,791.1H53.4c-4.1,0-7.5-3.4-7.5-7.5l0,0c0-4.1,3.4-7.5,7.5-7.5h109.7c4.1,0,7.5,3.4,7.5,7.5l0,0
				C170.6,787.7,167.2,791.1,163.1,791.1z"/>
			<path class="st5" d="M142.2,680.3c-0.1-4.1-0.1-8.3-0.1-12.6c-1.3,1.1-2.8,2.1-4.4,2.9c0,0.6,0.1,1.2,0.1,1.7
				c0,5,0.3,10-0.1,14.9c-0.4,5.3-1.8,10.6-4.8,15.2c-1.3,2-2.9,3.9-4.6,5.5c-4.9,4.7-9.9,9.2-14.9,13.7c-3,2.7-6.3,5.1-9.4,7.8
				c-6.1,5.3-11.5,11.2-15.9,18c-1.3,1.9-2.6,3.8-3.9,5.6c-2.4,3.2-4.1,6.7-5.8,10.2c-2.6,5.4-5.8,10.5-9.1,15.4
				c-1.9,2.8-2.5,2.8-5.4,1.2c-5.2-3-10.7-4.7-16.7-4.9c-3.9-0.1-7.9,0.3-11.8,0.3c-7-0.1-14.1,0.1-21-0.8
				c-3.9-0.5-7.7-1.5-11.3-2.8c3.8,1.7,7.7,3.4,11.8,4.7c11.1,3.7,22.6,0.8,34,2.7c7.4,1.2,14.6,3.3,21.5,6.1c0,0,0,0,0,0
				c4.3-3.5,7-13.9,9.3-18.7c0,0,0,0,0,0c7.1-12.9,16.1-25.9,26.6-36.3c9.2-9,20.9-14.8,30.1-23.8c1.6-3.9,3.3-7.7,4.5-11.7
				C142.1,690.1,142.3,685.2,142.2,680.3z"/>
		</g>
		<g>
			<circle class="st2" cx="33.3" cy="158.3" r="17.5"/>
			<circle class="st2" cx="-80" cy="158.3" r="17.5"/>
			<path d="M29,71.4c-3.5-0.5-7.1-0.9-10.6-1.2c-1.8-0.2-3-0.9-4.2-2.3c-3.5-3.9-4.1-8.7-4.2-13.6c-0.2-8-0.5-16.1-0.3-24.1
				c0.1-4.8,1.1-9.6,1.7-14.4c0.5-4.4,1-8.8,1.4-13.3c0.8-8.5,1.4-17,2.4-25.5c2-15.9,3.1-31.9,8-47.4c1.7-5.4,2.3-11.2,3.6-16.8
				c1-4.1,2.3-8.1,3.6-12c0.4-1.1,1.3-2,2.2-3.3c2.5,1.7,3.9,3.4,4.4,5.8c0.7,3.7,1.9,7.4,2.3,11.2c0.8,9.5,1.3,19.1,1.8,28.6
				c0.8,14.8,1.6,29.5,2.2,44.3c0.3,7.5,0.2,15,0.3,22.6c0.1,4.1,0.2,8.1,0.4,12.2c0.4,10.1-1,20.1-2.5,30.1
				c-0.8,5.4-1.8,10.5-4.8,15.1C34.7,70.4,32.4,71.8,29,71.4z"/>
			<rect x="-22.9" y="78.7" class="st2" width="13.7" height="82.3"/>
			<path d="M33.7,164.4H-76c-4.1,0-7.5-3.4-7.5-7.5v0c0-4.1,3.4-7.5,7.5-7.5H33.7c4.1,0,7.5,3.4,7.5,7.5v0
				C41.2,161,37.9,164.4,33.7,164.4z"/>
		</g>
		<path class="st5" d="M104,729.3c-6.1,5.3-11.5,11.2-15.9,18c-1.3,1.9-2.6,3.8-3.9,5.6c-2.4,3.2-4.1,6.7-5.8,10.2
			c-2.6,5.4-5.8,10.5-9.1,15.4c-1.9,2.8-2.5,2.8-5.4,1.2c-5.2-3-10.7-4.7-16.7-4.9c-3.9-0.1-7.9,0.3-11.8,0.3
			c-7-0.1-14.1,0.1-21-0.8c-7.7-1-14.9-4.1-21.9-7.5c-5.3-2.6-10.6-4.9-16.7-5.1c-0.3,0-0.7-0.2-1.2-0.4c1.2-2.9,3.8-4.1,6.1-5.5
			c2-1.2,4.1-2,6.2-2.9c6.6-2.5,11.2-6.8,15-12.8c3.8-5.9,8.1-11.7,14.2-15.8c5.6-3.7,11-7.8,16.6-11.5c4.6-3.1,7.3-7.2,8.4-12.6
			c1-4.8,3.4-9.2,6.4-12.9c2.2-2.8,5.4-5.3,8.6-6.8c3.3-1.6,5.6-3.8,7.8-6.2c5.1,1.4,10.1,2.9,15.1,4.2c7.5,1.9,14.8,1.1,22.2-1.3
			c5.3-1.7,10.8-2.7,16.2-4.2c4.2-1.2,8.2-2.6,12.4-3.8c2.5-0.8,5-1.6,7.9-2.4c0.1,2.1,0.2,3.8,0.3,5.4c0,5,0.3,10-0.1,14.9
			c-0.4,5.3-1.8,10.6-4.8,15.2c-1.3,2-2.9,3.9-4.6,5.5c-4.9,4.7-9.9,9.2-14.9,13.7C110.4,724.3,107,726.7,104,729.3z"/>
		<rect x="-211.8" y="229.8" class="st6" width="279.4" height="325.2"/>
		<g>
			<polyline class="st2" points="-197.1,386.1 -180.6,354 -164.1,386.1 			"/>
			<polyline class="st2" points="-197.1,394.7 -180.6,366.1 -164.1,394.7 			"/>
			<polyline class="st2" points="-202.8,409 -180.6,377.8 -158.3,409 			"/>
		</g>
		<path class="st1" d="M-64.9,484.7c-19.7-9.4-73.5-32.2-139.9-4.2v69.8H69.6v-81.7C69.6,468.6-43.5,494.9-64.9,484.7z"/>
		<path class="st1" d="M-36.7,444.7c-5.8-12.5-68.3-80.6-168-37.8V484c3.7-2,8-4.7,12.6-8.3c18.3-14,78.5-14.7,112.8-7
			c14.5,6.2,31.2,16.3,54.1,13.2C-25.3,482-30.6,458.7-36.7,444.7z"/>
		<rect x="-181.5" y="499" width="3.1" height="59.8"/>
		<rect x="-162.9" y="492" width="3.1" height="59.8"/>
		<rect x="-145.8" y="494.4" width="3.1" height="59.8"/>
		<path class="st5" d="M-127.9,576v-26.2c0-9.2-7.5-16.7-16.7-16.7h-32.7c-9.2,0-16.7,7.5-16.7,16.7V576H-127.9z"/>
		<path class="st5" d="M-193.9,584.5v37.6c0,9.2,7.5,16.7,16.7,16.7h32.7c9.2,0,16.7-7.5,16.7-16.7v-37.6H-193.9z"/>
		<path class="st2" d="M61.4,511.4c-14,43.3-10.3,169.7-8.8,169.7c81.7-2.7,90-2.8,90-2.8c-0.5-119.8-25.3-160-25.3-160L61.4,511.4z
			"/>
		<path d="M80.2,413.3c-19.5-1.7-39-3.2-58.3-6.4c-0.9,86-6.6,113.5,75,109.2c-4.9-43.3-9.6-76.8-14.6-102.7
			C81.6,413.5,80.9,413.4,80.2,413.3z"/>
		<path class="st4" d="M9.4,392.7c-13.2,46.6-0.8,91.6,27.9,100.1S72.3,520,72.3,520l34.1,2.3L70.7,381.1L9.4,392.7z"/>
		<path class="st2" d="M-134,230.1c-0.7,0.4-1.5,0.7-2.4,0.9c-3.4,0.7-6.8,0.7-10.3,0.9c-1.3,0.1-2.5,0.1-3.4,1.4
			c-2.2,3.1-4.8,6-6.6,9.3c-1.9,3.4-4.6,4.5-8.1,4.6c-4.8,0.1-9.3-1.1-13.7-2.8c-5.5-2.1-10.3-1.8-14.5,3c-2.6,2.9-5.9,5.2-8.9,7.8
			c-1.7,1.5-3.7,1.6-5.7,0.6c-2.1-1.1-4.3-2.2-6.3-3.3c-0.1-0.1-0.2-0.1-0.3-0.2v4.3c1.7,1.4,3.7,2.5,5.8,3.3c3.1,1.2,5.7,1,8.2-1.1
			c3.3-2.8,6.8-5.4,9.8-8.5c2.6-2.6,5.2-2.6,8.4-1.7c4.5,1.3,9.1,2.8,13.7,3.3c5.3,0.6,10.4-0.4,13.5-5.7c1.3-2.3,3.4-4.2,4.9-6.4
			c1.7-2.6,4.1-3.3,7.1-3.5c3.1-0.2,6.3-0.8,9.4-1.6c2.7-0.6,4.5-2.3,5.7-4.6H-134z"/>
		<path d="M124.2,665.9c0.4-0.1,0.8-0.1,1.2-0.2c2.9-0.6,5.3-1.3,7.2-2.3C129.8,664.2,127,665.1,124.2,665.9z"/>
		<path d="M-1.5,635.1c5.2-2,10.6-2.6,16.1-2.4c1.3,0,1.8,0.6,1.6,2.2c-8.8,0-16.4,3.5-24.4,6.4C-6.9,638.3-5,636.5-1.5,635.1z"/>
		<path class="st1" d="M434.7,560.5c2.4,0,4.8-0.2,7.3-0.3c0.2,0.5,0.5,1,0.5,1.4c1.1,7.5,6.4,11.6,12.5,14.9
			c1.4,0.8,3.2,0.8,4.8,1.1c2,0.3,3.8,0.9,5.6,1.6c1.3-1.1,2.6-2.2,3.9-3.4c-0.8-0.6-1.3-1.6-1-3.1c1.5,0,3.1,0,4.6,0
			c1.8-1.7,3.6-3.4,5.2-5.3c-0.8,0-1.6,0.2-2.4,0.3c-4.5,0.6-8.9,0.1-12.8-2.5c-1.5-1-3.2-2-3.5-4.5c1-0.1,1.8-0.2,2.7-0.2
			c4.7,0,9.4,0.2,14.1,0.1c0.9,0,1.9-0.2,2.8-0.5c-1-0.5-1.9-1.4-2-2.6c-0.1-0.7-0.2-1.3-0.2-2c-3.9,0.2-7.7,0.4-11.6,0.5
			c-2.1,0-4.4,0-5.9-2.4c0.9-2,2.9-2,4.7-2.3c1.9-0.2,3.8-0.5,5.7-0.7c-0.2-1.7,0.6-3.6,2.2-4.5c-1.7,0.2-3.4,0.5-5.1,0.7
			c-3,0.3-6.1,0.4-8.8,2c-4,2.3-4.6,4.5-2.2,8.7c0.3,0.6,0.6,1.5,0.4,2.1c-1.5,4.9,1.1,7.7,4.8,10c0.7,0.5,1.5,0.9,2.3,1.4
			c-3.4,1.8-8.2,1.1-11.1-1.9c-2.5-2.7-4.7-5.6-5.1-9.5c-0.5-5.2-1.2-10.5-1.8-16c9.9,2.4,19.4,0.4,29.1-2.5
			c0.1,1.4,0.2,2.7,0.4,4.4c0.7-0.1,1.4-0.2,2.2-0.3c0.3-2.4,0.6-4.9,1.1-7.4c0.1-0.8,0.4-1.4,0.8-1.8c-1.2-2.4-3.1-4.1-5.5-5.4
			c-1.6-0.8-3.6-0.9-4.4-3.2c-0.2-0.7-2.3-1.1-3.4-1c-2.4,0.1-4.8,0.4-7.2,1c-5,1.1-9.9,2.3-14.8,3.7c-4.8,1.3-6.3,4.3-4.9,8.9
			c0.5,1.6,0.9,3.2,1.5,5.1c-2.2,0.4-4.3,0.9-6.3,1.1c-1.5,0.2-2.4,0.3-3,0.6c0.3,1.1,0.2,2.3-0.4,3.2c-0.3,0.4-0.5,0.7-0.7,1.1
			c-0.2,1.9-0.5,3.9-0.2,5.8C429.8,559.3,431.8,560.5,434.7,560.5z M471.6,536.4c-9.5,2.7-18.8,5-28.8,0.4
			C453.9,532.7,467.3,532.5,471.6,536.4z M441.2,550.3c0.3,1.5,0.5,2.5,0.7,3.5c0,0.2-0.1,0.5-0.3,1.1c-2.1,0.1-4.3,0.2-6.9,0.3
			c-0.1-1.6-0.2-2.8-0.3-4.4C436.8,550.6,438.8,550.5,441.2,550.3z"/>
		<path d="M488.6,475.7c-8.7-7.5-21.7-9.6-29.7-0.2c0.4-0.3,0.9-0.7,1.3-1c0.2,5.1,1.9,8.8,6.3,11.5c-1.5,8.1-3.1,16.3-4.8,25.2
			c0.3,1.6,0.3,3.2,0.3,4.2c11.2,4.5,19.5,0.7,25.1-6.5c-2.4-7.7-4.7-15.1-6.7-21.7C483.4,483,486,479.4,488.6,475.7z"/>
		<path d="M429.7,707.8c-1.4-24.2-2.6-48.4-4-73h18c0.3,24.4,0.6,48.4,0.9,72.4c0.3,23.9,0.7,47.7,1,71.8c-3.5,1.7-7.2,2.8-11.7,1.4
			C432.6,756.4,431.1,732.1,429.7,707.8z M522.1,745.7c0.5,9.4,0.5,18.9,0.6,27.8c-4.3,1-8.3,1.9-12.4,2.9c-0.3-0.9-0.6-1.6-0.6-2.2
			c-1.2-11.6-2.7-23.1-3.3-34.7c-1.1-20-4.8-39.8-4.5-60c0.1-5.6-1.1-11.3-1.7-16.9c-0.1-0.9-0.4-1.7-0.4-2.6c0-7-1.1-13.9-2.5-20.7
			c-0.2-0.8-0.2-1.7-0.4-3.3h18.7c0.2,4,0.4,7.9,0.7,11.8c0.5,8.1,1.2,16.2,1.6,24.4c0.6,12.1,0.9,24.1,1.6,36.2
			C520.2,720.8,521.4,733.2,522.1,745.7z"/>
		<path d="M481.3,520.5c8-5.1,13.6-12.2,17.7-20.6c0.6-1.3,1-2.6,1.4-4c2.2-7.2,4.5-14.3,6.6-21.5c0.6-1.8,1.1-3.7,1.6-5.5
			c-1.6-3.2-3.1-6.4-4.8-9.5c-0.6,0-1.2,0-1.8,0c-1.5,0-3.1-0.4-4.7-0.5c-2.4,1.9-5,3.2-7.7,4.1c0,0.4,0,0.7,0,1.1
			c-4.8,3.9-20.9,5.5-28.9,2.6c0-0.1-0.1-0.3-0.1-0.4c-0.2-0.1-0.4-0.1-0.7-0.2c-2.9-1.2-5.8-2.2-8.7-3.1c-2.9,1-5.6,1.9-8.3,2.9
			c-2.5,0.9-4.8,2-7.1,3.3c0.5,1.1,0.7,2.4,0,3.8c-0.5,1-0.8,1.9-1.1,2.9c0.4-0.3,0.8-0.5,1.3-0.8c0.4,3.6,0.7,6.8,1.2,9.9
			c0.2,1.1,0.5,2.3,1,3.3c5.1,10.1,11.4,19.3,19.3,27.4c3.2,3.2,6.7,5.9,11.1,7.3C473.2,524.3,477.4,523,481.3,520.5z M504.6,465.2
			c-1,4.5-2.1,9-3.3,14.4c-3.4-3.9-6.1-7-8.7-9.9C495.5,464.1,496.5,463.8,504.6,465.2z M440.8,475.5c-0.1-2.9,0.4-3.4,3.2-4.4
			c1.7-0.6,3.4-1,5-1.7c2.9-1.3,5.4-1.1,7.9,1.8c-4.9,3.8-9.8,7.7-15.1,11.9C441.4,480.2,440.9,477.9,440.8,475.5z M461.6,511.2
			c0,0.1-0.1,0.3-0.1,0.4c-7.5-7.1-13.1-14.9-18.1-24.1c5.1-4,10.1-7.9,15.2-12c8-9.4,21-7.4,29.7,0.1c0.3-0.4,0.6-0.9,1-1.3
			c2.7,3,5.5,6,8.1,9.1c0.6,0.7,1,1.8,0.9,2.7c-0.4,6.9-5.5,17.1-11.3,22.9c0,0,0-0.1,0-0.1c-5.6,7.1-13.9,11-25.1,6.5
			C461.9,514.4,461.9,512.8,461.6,511.2z"/>
		<path class="st2" d="M428.1,570.1c0-1.5-0.2-3.1-0.5-4.5c-1.4-6.4-2.4-7.1-9-6.8c-0.5,0-1-0.1-2-0.1c0-0.4,0.1-0.9,0.1-1.3
			c-1.4,0.6-2.8,1.2-4.3,1.6c-0.9,3.2-2,6.4-3,9.7c0,0,0,0,0,0.1c-0.3,4.4-0.7,8.9-1,13.3c-0.1,1.9-0.4,3.8-0.5,5.7
			c-0.1,1.5-0.5,2.5-1.3,3.4c-0.1,0.4-0.1,0.8-0.2,1.2c-0.1,0.6-0.3,1-0.5,1.4c1.3,1.1,2.9,2,4.8,2.7c0.1-0.5,0.2-1,0.3-1.5
			c0.4-1.9,0.8-4.3,3.7-4.7c-0.3-1.2-0.5-2.2-0.9-3.6c1.3,0.1,2.5,0.1,3.7,0.3c6.8,1.1,10.6-2,10.7-8.8
			C428.2,575.4,428.2,572.8,428.1,570.1z M413.9,580.2v-14.7c1.7,0.3,2.9,0.5,4.1,0.8c2.1,0.5,3.2,1.8,3.4,4.1
			c0.2,2.4,0.5,4.8,0.8,7.8C419.3,578.8,416.8,579.5,413.9,580.2z"/>
		<path d="M720.8,516.3c2.3,5.7,4.4,11.5,7.2,17c3-0.8,5.9-1.8,8.8-3c0.5-0.2,1-0.3,1.5-0.4c1.1-0.8,2.2-1.6,3.2-2.4
			c6.3-5.2,12.6-10.4,15.2-18.6c0.6-1.8,1.5-3.5,2.3-5.2c2.1-4.5,3.3-9.3,3.8-14.3c0.4-3.6,0.8-3.8,4.3-3.6c1.3,0.1,2.6,0.1,3.8-0.1
			c3.5-0.5,4.2-1.6,3.8-5.8c-0.8-0.1-1.7-0.4-2.4-0.2c-5,1.4-9.2-0.7-13.4-3c-1.7-0.9-3.6-1.8-4.5-3.9c-1.2-2.7-1.9-5.3-0.4-8
			c0.4-0.8,0.6-1.7,0.9-2.5c0.9-3.5,2.9-5.8,6.7-6.5c2.2-0.4,4.2-1.5,6.6-0.1c2.8,1.6,3.6,4.2,4.5,6.7c0.8,2.3,1.5,4.5,3.6,5.9
			c1.4-1.1,2.6-2.1,3.9-3c4.1-3.1,7.8-6.6,9.5-11.7c0.5-1.5,1.4-3,2.1-4.5c3.2-6.5,4.3-13.5,4.8-20.7c0-0.6,0.2-1.2,0.4-2.1
			c2.8,1.3,5.4,2.7,8.1,3.8c8.6,3.5,12.6,2.4,18.1-4.9c0.3-0.4,0.6-0.8,1.2-1.5c0.2,0.4,0.4,0.8,0.6,1.2c0.8-2.3,1.5-4.6,2-6.8
			c-2.6-3.4-5.9-6.4-10-8.7c-7.8-4.5-15.8-8.6-25-9.6c-6.3-0.7-12.7-2.1-19-1.9c-11.4,0.3-22.5,2.8-32.9,7.6
			c-5.1,2.3-10.3,5-13.2,10c-3.3,5.7-6.7,11.6-8.6,17.8c-3.9,12.5-6.2,25.5-5.2,38.7c0.4,5.2,0.5,10.5,1.2,15.6
			C715.3,497.2,717,507.1,720.8,516.3z"/>
		<path d="M825.8,509.4c0.1,0.3,0.3,0.7,0.4,1c-0.9,0.2-1.7,0.5-2.6,0.7l-0.2-0.6C824.2,510.1,825,509.8,825.8,509.4z M796.7,587.5
			c4.3,4.8,4.4,5.1,5,9.8c-1.5-0.9-2.8-1.4-3.9-2.3c-1.9-1.5-3.9-2.6-6.4-2.6c1-0.7,2-1.3,2.9-2.1
			C795.2,589.4,795.9,588.4,796.7,587.5z M837,618.6c1.9-7.8,21.4-19,31.4-19.5C866.3,606.4,849.4,616.9,837,618.6z M899.7,537.8
			c-0.2,3.1-1.7,6.2-3,9.1c-0.8,1.7-2.4,3-4.9,2.1c0-2.4,0-4.5,0-6.7c-0.1-2.3-0.2-4.5-1.7-6.5c-1.9-2.5-2.8-2.9-5.8-1.7
			c-0.5,0.2-0.9,0.3-1.4,0.5c-2.8-4.8-5.6-5.3-9.9-1.6c-1-0.6-2-1.3-3.1-1.9c-2.5-1.5-4.5-0.8-5.2,2.1c-0.7,3.2-2.3,6.3-1,9.7
			c0.2,0.6-0.1,1.5-0.3,2.7c-4-0.4-7.9,0.6-11.7-0.6c-2.8-0.9-5-2.6-5.5-5.7c-0.3-2.1-0.4-4.3-0.3-6.4c0.1-4.2,0.3-8.4,0.5-12.6
			c0.1-2.8,0.5-5.2,3.7-6.4c1-0.3,1.8-1.8,2.1-2.9c0.7-2.3,1-4.7,1.5-7.5c1.3,0,2.7-0.3,3.9,0c5.4,1.4,10.6,0.2,15.9-0.1
			c4.4-0.2,8.9-0.4,13.2,0.2c6.2,0.8,10.4,5.7,11.7,11.9C900.2,522.8,900.2,530.3,899.7,537.8z"/>
		<path class="st5" d="M211.1,405.9c-25.5-2.9-50.8-3.9-76.6-4.7c0,1.8-0.1,3.7,0,5.5c0.4,5.2,1,10.4,1.2,15.6
			c0.4,9.4,0.7,18.8,1,28.3c0.1,1.7,0.4,3.4,0.7,5.2c1.2,0.1,2.1,0.2,3,0.2c8.8,0,17.6,0.1,26.3,0c14.3-0.1,28.5-0.3,42.7-0.5
			c6-0.1,6.6-0.8,5.4-6.9c-1.7-8.6-1.6-17.2-1.4-25.8C213.7,416.9,212.9,411.3,211.1,405.9z"/>
		<path class="st2" d="M346.7,342.4c-1,0-1.8-0.1-2.5,0c-4.6,0.9-9,0.3-13.6-0.8c-5.9-1.4-11.8-3.3-18.1-2.2c-3.5,0.6-7,0.9-11,1.4
			c2.6,3,2.2,6.4,1.7,9.8c-0.7,5.3-0.5,10.6,2,15.3c2.5,4.7,2.6,9.3,0.9,14c-2.2,6.1-2,11.9-0.2,18.1c2.6,1.3,5.2,0.3,7.8-0.1
			c8.4-1.5,16.7-3.3,25.4-2.1c4,0.6,8.1,1.1,12.1,1.6c1.5,0.2,3.1,0,4.6,0c0-0.6,0-0.8,0-0.9c-0.1-0.4-0.3-0.7-0.5-1
			c-2.8-4.3-3.3-8.6-0.9-13.3c1.7-3.4,0.8-6.7-1-9.8c-0.7-1.2-1.6-2.3-2.2-3.6c-2.1-4.1-3.5-8.2-1.5-12.8c0.3-0.8,0.3-1.8,0.1-2.6
			C348.8,349.7,347.7,346.1,346.7,342.4z"/>
		<path class="st2" d="M431.2,272.3c-0.5-1.2-0.7-1.9-1-2.6c-1.9-4.3-3.8-8.6-5.7-12.9c-1.5-3.5-1.8-6.8,0.2-10.3
			c0.6-1.1,0.8-2.7,0.7-4c-0.2-2.5-0.7-5-1.2-7.5c-0.1-0.6-0.1-1.5-0.5-1.8c-2.9-2-2.6-5-2.6-7.9c0-1.8-1-3.1-2.7-3.2
			c-5.8-0.1-11.7-1.4-17.5,1.6c-0.1,4.6-0.5,9.3-0.3,13.9c0.1,1.4,1.2,3.2,2.4,4c2.9,1.9,3.7,4.5,3.4,7.5c-0.2,2.4-0.8,4.8-1.1,7.1
			c-0.2,1.7-0.6,3.6-0.3,5.3c0.4,2.9,1.2,5.7,2,8.6c0.9,3.3,1.4,3.6,4.9,3.6c5.2-0.1,10.4-0.3,15.7-0.5
			C428.6,273.1,429.7,272.6,431.2,272.3z"/>
		<path class="st2" d="M299.4,423.3c0,4,0,8,0,12.1c0,2.7-0.2,5.3-0.2,8c0,2.4,0,4.8,0.1,7.2c0,1.7,1,2.8,2.6,3.4
			c3.4,1.1,6.8,2,10.5,1.2c2.9-0.6,5.8-1,8.7-1.3c2.8-0.3,5.6-0.2,8.3-0.6c4.3-0.6,5.9-2.4,5.7-6.6c-0.2-5.2-0.7-10.4-1.4-15.6
			c-0.6-4.3-2.4-5.9-6.7-6.7c-2.5-0.4-5-0.7-7.6-1.1c-6.3-1-12.6-0.4-18.9-0.5C300.3,422.8,300.2,422.9,299.4,423.3z"/>
		<path d="M358.2,422c0,1.8,0.1,3.1,0,4.5c-0.3,3.1-0.4,6.4-1.3,9.4c-1.1,4.2-1.4,8.3-0.4,12.4c0.9,3.5,2.1,7,3.3,11
			c4.8-0.4,9.5-0.8,14.3-1.1c1.6-0.1,2.6-1,2.9-2.5c0.6-2.7,1.4-5.5,1.6-8.2c0.3-5.7,0.3-11.4,0.4-17.2c0-3.6-0.9-4.9-4.4-5.6
			C369.4,423.6,364,422.9,358.2,422z"/>
		<path class="st2" d="M271.9,261.3c7.9,2.6,15.3,1.3,23.2,1.3c0.1-4.6,0.3-8.8,0.4-13c0-3.4-0.1-6.9-0.1-10.3
			c-0.1-2.4-0.1-4.8-0.3-7.2c-0.2-2.7-0.6-3-3.2-3.2c-1.9-0.1-3.8,0.1-5.7,0c-4.3-0.2-8.5-0.5-12.8-0.6c-0.8,0-1.7,0.4-2.9,0.7
			C270.8,239.8,271.4,250.4,271.9,261.3z"/>
		<path class="st5" d="M-165.7,277.8c0-1.1,0-2.1,0-3.2c0-4,2.3-6.3,5.8-7.6c8.1-3,18-0.7,23.8,5.8c2.8,3.1,3,7,2.3,10.9
			c-0.8,4.7-3.1,8.6-8,10.3c-0.6,0.2-1.3,0.8-1.5,1.4c-0.7,1.8-2,1.9-3.6,1.8c-4.9-0.4-9.3-2.3-13.1-5.4
			C-164.2,288.5-165.6,284.7-165.7,277.8z"/>
		<path d="M261.7,352.9c0.2,2.9,0.4,5.5,0.5,8c0.1,5.5,0.2,10.9,0.3,16.4c0.1,3.7,0.5,4.4,3.9,4.9c2.6,0.4,5.3,0.2,7.9,0.1
			c3.2-0.2,6.3-0.6,9.5-0.8c3.1-0.2,6.2-0.2,9.7-0.3c-0.1-10.6-2.2-20.3-4-30.1c-4-1.2-7.7-0.8-11.5-0.2c-1.8,0.3-3.8,0.5-5.7,0.2
			C268.4,350.4,265.2,352.3,261.7,352.9z"/>
		<path d="M307,302.6c0.5,7,1,13.7,1.5,20.8c8.7-1.3,16.8-2.5,25.1-3.7c0.1-6.7,0.9-12.8-0.9-19.2C323.9,300,315.5,300.7,307,302.6z
			"/>
		<path d="M374.4,299.2c-7.8,0-15.2,0-22.7,0c0,7.1,0,13.9,0,20.6c4.5,1.2,15.3,1.7,21.1,1.1C374.3,314.1,374.7,307,374.4,299.2z"/>
		<path class="st2" d="M161.7,372.5c0.8-6.6,0.2-12.6-1.8-18.3c-7.6-4.7-15.4-2.5-23.4-1c0.3,7.4,0.6,14.4,0.9,22.1
			C145.6,372.9,153.8,374.8,161.7,372.5z"/>
		<path class="st2" d="M142.2,496c5.1,0.6,10.5,0.6,15.8,0.7c0.3-0.8,0.7-1.2,0.6-1.7c-0.3-6.2-0.5-12.5-1-18.7
			c-0.1-0.8-1.3-2-2.2-2.3c-4.3-1.3-8.6-1.9-13.3-1.2C142.2,480.4,142.2,487.9,142.2,496z"/>
		<path d="M600.3,412.7c-0.3,0.8-0.5,2.2-1.2,3.3c-0.8,1.5-2.2,2.5-4.1,2.2c-1.4-0.2-3.4-2.2-3.5-3.7c0-1.6,0.2-3.3,2-4.1
			c0.7-0.3,1.3-0.8,1.9-1.2C598.1,407.8,600.2,409.1,600.3,412.7z"/>
		<path d="M-2.4,613.8c0,1,0.1,2.1,0,3c-0.1,0.6-0.8,1.7-1.1,1.7c-0.7-0.1-1.7-0.5-2.1-1.1c-0.5-0.8-0.6-1.9-0.7-2.9
			c-0.2-2.8-0.4-5.5-0.6-8.3c-0.1-1.1,0.1-2.1,1.4-2.3c1.3-0.1,2.2,0.6,2.3,2c0.3,2.6,0.5,5.3,0.7,7.9
			C-2.5,613.8-2.4,613.8-2.4,613.8z"/>
		<path d="M20.4,364.2c2.9-2.3,5.9-4.3,9.4-5.6c2.2-0.9,4.5-1.5,6.8-2.2c0.3-0.1,0.8,0.5,1.4,0.9c-0.7,0.5-1.1,0.9-1.6,1.2
			c-4.1,2.1-8.2,4.1-12.3,6.2C22.9,365.3,21.6,366.1,20.4,364.2z"/>
		<path d="M-13.6,628.8c-3.3-1-9.5-7.4-10.1-10.4c1.6-0.7,2.8-0.5,4,0.9c1.2,1.4,2.6,2.8,4,4C-13.7,625.1-13.1,626.4-13.6,628.8z"/>
		<path d="M-141.7,417.6c0.8-1.4,1-2.6,1.7-3c3.1-1.6,6.4-2.5,9.9-1.8c0.7,0.1,1.3,1.2,1.9,1.8c-0.7,0.4-1.3,1.1-2,1.2
			c-2.4,0.5-4.9,0.9-7.4,1.3C-138.7,417.4-139.8,417.4-141.7,417.6z"/>
		<path d="M-17.3,608.9c0.9,0.5,2.1,0.8,2.7,1.5c1.6,2.1,3,4.4,4.4,6.6c0.3,0.5,0.3,1.2,0.3,1.8c-0.2,1.4-1.4,1.9-2.4,1
			c-0.4-0.3-0.6-0.8-0.9-1.2c-1.4-2.4-2.8-4.8-4.1-7.2c-0.3-0.5-0.4-1.1-0.5-1.7C-17.8,609.4-17.6,609.2-17.3,608.9z"/>
		<path d="M-108.6,409.2c-2.2,3.8-2.5,3.9-5.3,3.5c-1.5-0.2-2.9-0.2-4.4-0.3c-0.8-1.4-0.6-2.8,0.9-3
			C-114.7,409-111.9,408.8-108.6,409.2z"/>
		<path d="M62.2,352.2c-4.5,1-8.8,3.6-14.6,1.3c1.3-0.7,1.9-1.2,2.5-1.3c3.4-0.5,6.8-1,10.2-1.3c0.6-0.1,1.3,0.4,1.9,0.6
			C62.3,351.7,62.3,352,62.2,352.2z"/>
		<path d="M6.5,611.6c0.2-1,0.3-2.8,0.8-4.4c0.2-0.6,1.1-1,1.7-1.5c0.4,0.5,1.3,1.1,1.2,1.6c-0.2,2.6-0.5,5.3-0.9,7.9
			c-0.1,0.4-1,0.8-1.4,0.8c-0.5,0-1.2-0.5-1.4-1C6.3,614.2,6.5,613.3,6.5,611.6z"/>
		<path d="M-24.5,629.6c0.4-0.2,1.1-0.6,1.3-0.5c2,1.5,4,3,5.9,4.6c0.2,0.2,0.1,1.1-0.2,1.3c-0.5,0.3-1.2,0.4-1.7,0.3
			C-21.5,634.8-23.2,632.8-24.5,629.6z"/>
		<path d="M-110.4,427.6c-1.7,2-3.3,1.7-4.6,1.2c-0.6-0.2-0.9-1.6-1.3-2.4c0.7-0.3,1.6-1.1,2.2-0.9
			C-112.9,425.8-111.8,426.7-110.4,427.6z"/>
		<path d="M31.4-179.6c-6.3,9.1-14.8,13.4-27.3,13.8c-1.9-0.3-4-0.4-5.8-0.9c-7.8-2.1-15.2-4.7-20.7-10.2c-4-4-5.7-8.8-6.5-13.9
			c-0.2-1.1,0.1-2.4,0.6-3.5c3.1-7.8,9-13.6,17.6-17.3c2.5-1.1,5.3-1.7,8.2-1.2c1.5,0.3,3.1,0.5,3.7-1.4c0.1-0.3,1.8-0.6,2.6-0.5
			c8,1,15.4,3.3,21.6,7.8c3.8,2.7,5.5,6.4,7,10.2C34.8-191,35.3-185.2,31.4-179.6z"/>
		<path d="M-8.4,37l0.7,0.8C-4.8,37-1.8,36.1,1,35c0.3-0.2,0.6-0.4,0.9-0.7c8.4-7,12.6-15.9,17-25.5c0.1-2.8-0.2-5.6-1-8.3
			c-0.6-2-1.2-4-1.6-6c-1.3-5.8,1.5-11,3.4-16.2c2.3-6.3,4.2-12.6,5-19.1c1.1-8.7,1.4-17.4,0.2-26.1c-0.7-4.8-1.9-9.5-3.1-14.2
			c-1-3.7-3.8-6.9-3.7-10.9c0-0.9-1-2-1.7-2.8c-1.7-1.9-3.5-3.9-5.4-5.6c-5-4.5-6.1-10-5.8-15.8c0.1-2.8,0.4-5.6,0.3-8.3
			c0-1.4-0.4-2.9-1.1-4.1c-1.4-2.2-3.2-4.3-5-6.3c-1.6-1.8-3.5-2.9-5.7-3.6c0.5-0.4,0.7-0.7,0.8-0.8c-0.3,0.2-0.6,0.4-1,0.7
			c0,0,0,0,0,0c-0.1,0.1-0.2,0.2-0.3,0.3c-5.2,3.6-18.4,12.9-22,14.5c-2.3,1.5-5.1,2.4-8,3c-1.2,0.2-2.5,0.3-3.7,0.4
			c-6.9,0.9-2-5.3-9.5-8.9c-1.9,1.9-15.8,9.1-17.7,11c-3.6,3.8-7,7.8-8.4,12.5c-2.2,7.3-5.5,14.2-9.6,20.9c-2.5,4.1-4.8,8.3-8,11.9
			c-2.2,2.5-5.4,4.9-8.7,6.1c-4.9,1.7-9.1,3.9-12.3,7.4c-4.2,4.5-10.1,6.5-16.5,7.6c-5.5,1-11.2,1.7-16.7,2.6
			c-2.6,0.4-3.2,1.3-3,3.6c0.1,1.3,0.2,2.5,0.3,3.9c-1,0.2-1.5,0.4-2,0.5c-2.4,0.3-4.8,0.5-7.2,0.9c1.6,8,1.6,16.1,1.5,24.2
			c0.4,0.5,0.7,1.1,1.1,1.6c2.5-1.1,5.5-1.7,8.2-2.6c0.8-0.3,2.3,0.6,3.3,1.1c9.2,4.4,19,6.4,29.5,4.6c6.1-1.1,11.2-3.9,16.4-6.8
			c4.5-2.5,8.9-5,13.6-7.6c0.2,0.5,0.5,1,0.5,1.4c0.2,2.6-0.1,5.3,0.5,7.9c0.6,3.1,0.7,5.9-0.8,8.9c-1.2,2.3-2.1,4.8-2.9,7.2
			c-2.8,8.4,0.4,15.8,5.6,22.6c2.3,3,5.7,5.3,8.7,7.9c0.7,0.6,1.6,1,2.5,1.5c-0.8,0.9-1.1,1.7-1.6,1.8c-1.7,0.5-3.4,1.1-4.9,1.7
			c3.8,0.6,7.5,1.4,11.3,2.2c0.5-0.2,1.1-0.4,1.6-0.6c1.5-0.5,3.6,0,5.4,0.3c13.9,2.5,27.8,3.2,41.9,1.8
			C-15.2,38.3-11.8,37.6-8.4,37z M-12.4-133.8c-0.7,2.3-1.2,4.3-2,7c-1.6-0.8-2.6-1.3-3.8-2C-18.1-129.1-15.3-131.4-12.4-133.8z
			 M-20.8-124.8c1.3,0.5,2.6,1,4.2,1.6c-1.9,3.5-4.3,6.4-7.9,9.1c-0.8-1.7-1.4-2.9-1.9-4.1C-24.6-120.4-22.8-122.5-20.8-124.8z
			 M-40.2-114c2.9-0.6,5.8-1.3,9.3-2c0.7,1.1,1.5,2.5,2.4,3.9c-3.4,2.6-7.4,2.9-11.7,3.4V-114z M-44.8-115v6.8
			c-4.3-0.5-8.4-0.9-13.1-1.4c2.3-3,4.2-5.4,6.3-8C-49.1-116.7-47-115.9-44.8-115z M-63-115c1.7-2,3.8-3.8,5.8-5.6
			c0.2-0.2,0.9,0.2,2.1,0.4c-2.1,2.8-4,5.2-5.8,7.5C-62.9-113.1-63.9-113.9-63-115z M-143.6-45.2c4.3-0.6,8.6-1.4,13-2
			c7.8-0.9,14.1-4,19.4-8.9c2.2-2,5-3.7,7.9-4.9c8.5-3.5,14.8-8.7,18.4-16.2c1.2-2.5,3.1-4.9,4.9-7.8c0.6,3.1,1.2,5.5,1.6,8
			c0.1,0.7-0.2,1.7-0.7,2.2c-1.2,1.4-2.5,2.6-3.9,3.8c-6.1,5.2-12.1,10.6-18.6,15.4c-9,6.7-19.9,10.1-31.5,11.8
			c-4.2,0.6-8.3,1.7-12.7,1.1C-146.6-44.5-145.4-45-143.6-45.2z M-157.6-34.8c4.6-1.6,9.4-0.6,14.4-1.7c0.1,1.7,0.3,2.9,0.4,4.2
			c-4.5,1-9.2-1-13.4,1.7C-156.8-32.1-157.1-33.2-157.6-34.8z M-142.5-21c-0.9-0.3-1.5-0.3-1.9-0.6c-2-1.4-4.1-1.3-6.4-0.4
			c-2.6,0.9-3.2,0.6-4.1-1.6c-0.2-0.6-0.4-1.2-0.6-1.7c-0.1-0.6-0.2-1.2-0.3-2.1c4.5-0.3,8.8-0.6,13.3-0.9V-21z M-30.7,34
			c-8.8-0.4-17.5-1.2-26.3-2c-5.9-0.6-11-2.7-15.4-6.4c-5.4-4.6-9.4-9.6-11.1-16c-1.2-4.6-0.2-9.1,2.1-13c2.8-4.9,3.6-9.6,1.5-14.7
			c-1.5-3.7,0.6-7.1,1-11c5.2-1,10.3-2,15.4-3.1c5.8-1.2,11.7-2.2,16.6-5.5c3.1-2.1,6.2-4.3,8.8-6.9c5.9-5.7,11.6-11.6,17.2-17.6
			c4.3-4.5,6-10.1,8.6-15.4c0.9-1.8,0.7-3.8-1.8-5.9c-0.9,0.9-1.9,1.6-2.4,2.4c-0.6,0.9-1.1,2-1.5,3c-3.2,8.5-9.5,15.4-16.3,22
			c-3,2.9-6.2,5.7-9.2,8.6c-4.7,4.5-10.7,7.1-17.5,8.6c-4.1,0.9-8.3,1.7-12.5,2.5c-5.4,1-10.6,2.5-15.2,5.4
			c-5.3,3.3-10.7,6.5-16.5,9c-8.4,3.7-17.2,6.7-27,4.6c-1.8-0.4-3.5-0.9-5.3-1.4c-0.3-6-0.6-11.9-0.9-18.1c1.6-0.3,3.6-0.6,5.4-1.1
			c6.1-1.5,12.3-2.9,18.4-4.6c2.6-0.8,5-2.2,7.4-3.5c8-4.6,15.1-10.1,21.9-16c10-8.9,19.8-18,31.7-25.3c4.6-2.8,9.1-5.8,14.4-7.5
			c0.4-0.1,0.8-0.4,1-0.6c1.1-0.9,2.5-1.9,1.6-3.4c-0.7-1.3-3.6-2.1-5.1-1.3c-4.4,2.3-8.8,4.5-12.9,7c-5.2,3.2-10.2,6.6-15,9.7
			c-1.7-0.5-3.1-0.9-4.8-1.4c0.3-8.7,0.8-17.5,7-25.1c0.4,0.2,0.8,0.2,0.9,0.4c3.8,4.2,9.2,5.4,15,5.9c9.1,0.8,17.7,0.3,25.9-4
			c8.5-4.5,13.4-11,16-18.9c0.4-1.2,0.7-2.4,1.1-3.5c0.2-0.4,0.5-0.8,0.9-1.5c4.2,2.6,6.2,6.1,6.4,10.3c0.2,2.9,0,5.8,0,8.7
			c0,5.1,1.7,9.6,5.6,13.8c5.9,6.4,11.1,13.3,13.5,21.2c2.8,9.4,3.5,19.1,2.8,28.8c-0.7,10.8-4.8,20.9-8.4,31
			c-1.9,5.5-1.9,10.7,0.2,16c2.1,5.5,2.2,10.9,0.4,16.5c-1.2,3.8-3.1,7.1-7.6,9c-2.2,0.9-3.7,3-5.8,4.1C-9.8,32.7-20,34.5-30.7,34z"
			/>
		<path d="M-59.9,65.2c-1.2-0.8-1.9-1.3-3.1-2.1c1.6-0.9,2.8-1.7,4.1-2.4l0.8,0.4C-58.7,62.2-59.2,63.4-59.9,65.2z M-6.4,149
			c3.1-0.1,6.2-0.5,9.6-0.7c0.7,2.6,1.4,4.8,2.1,7.2c-10.2,1.4-19.9,1.8-29.7,1.6c-10.2-0.2-20.5-0.8-30.7-1.1c-4.9-0.1-9.9,0-15,0
			c-0.5-1.5-0.9-2.6-1.4-4.2c2.3-0.2,4.4-0.3,6.4-0.7c8.2-1.5,16.4-1.2,24.7-1.4C-29.2,149.5-17.8,149.3-6.4,149z"/>
		<path class="st1" d="M520.3-331.3c-0.8,0.2-1.9,0.1-2.3,0.5c-3.6,3.2-7.1,6.5-10.7,9.8c-2.1,2-4.2,4-6.3,6.1
			c-1.7,1.7-3.3,3.6-5,5.3c-1,1-2,2-3.5,3.5c0,8.5,0,18,0,27.5c0,6.3,0.4,12.6-0.5,18.8c-2,13.8-1.8,27.6-2.1,41.4
			c-0.2,10.9-1.1,21.7-1.2,32.6c-0.1,7.4,0.4,14.8,0.7,22.5c4.4-0.4,8.4-0.6,12.5-1.1c5.4-0.7,10.8-1.5,16.2-2.3
			c0.8-0.1,1.5-0.6,2.3-0.9c0,2.1,0,4.1,0,6.2c-4.6,0.3-9.3,0.3-13.9,0.9c-4.9,0.6-9.8,1.5-14.6,2.5c-2,0.4-3.8,1.4-6.2,2.3
			c-2.5-1.9-5.8-0.7-9.2-0.1c-6.7,1.1-13.4,2.3-20.2,3.4c-0.2,0-0.3,0.1-0.5,0.1c-9.6,0.6-11,0.1-10.2-6.9
			c1.7-15.7,0.2-31.4-0.4-47.1c-0.5-11.5-0.8-23,0-34.5c0.7-10.1-0.3-20.2-0.4-30.3c0-4.3,0.3-8.7,0.4-13c0.1-6.1,0.3-12.3,0.2-18.4
			c-0.2-10.4-0.7-20.7-0.9-31.1c-0.1-2.9,0.5-5.9,0.7-8.8c0.1-1.5,0.4-3.1,0.2-4.6c-1.1-9.1,0.3-18.1,1.1-27.2
			c0.3-2.9-0.1-5.9-0.4-8.8c-0.3-2.5-0.4-2.5,2.6-5.3c2.4,1.7,4.8,3.1,3.5,6.1c-0.5,1.1-0.2,2.5-0.1,3.8c0.3,4.5,0.7,8.9,1,13.5
			c2.7,1.1,5.4,0.4,8.1,0.1c8.5-1.1,17.1-1.2,26.5-1.3c0.9,2.8,1.9,5.5,2.5,8.2c0.5,2.3,0.3,4.6,0.4,6.9c0.4,11.6,0.7,23.2,1.1,35.6
			c5.4-3.6,9.8-6.9,13.9-10.4c3.8-3.2,7.6-6.3,11.2-9.6c1.5-1.3,2.6-3,3.8-4.4C520.3-336.9,520.3-334.1,520.3-331.3z M482.8-162.1
			c0.1-1.2,0.2-2.1,0.2-3c0.3-23.3,0.6-46.6,0.9-69.9c0-2.9,0.3-5.9,0.6-8.8c1.2-11.7,2-23.5,1.6-35.3c-0.6-15.7-1.4-31.5-2-47.2
			c-0.3-7.6,0-15.1,0-22.7c0-3.8-0.1-7.6-2.2-11.5c-9.8,0.5-19.4,1-29.3,1.5c-0.2,1.6-0.5,2.9-0.5,4.1c0,2.6,0.5,5.1,0.3,7.6
			c-0.2,3.7-2,7.2-1.2,11c0.5,2.5-0.1,5-0.2,7.6c-0.1,2.7-0.4,5.3-0.2,8c0.4,5.4,1.5,10.8,1.6,16.2c0.1,5.6-0.6,11.1-1,16.7
			c-0.2,3.2-0.8,6.5-0.8,9.7c0.1,7.3,0.8,14.5,0.9,21.8c0,7-0.8,14-0.8,21.1c0.1,11.5,0.8,23,1,34.5c0.2,9.5-0.1,18.9-0.1,28.4
			c0,4.3,0,8.6,0,13.4C462.5-159.5,472.6-160.9,482.8-162.1z"/>
		<path class="st1" d="M-136.8-110.1c-2.7,0.6-4.4-0.1-4.6-2.3c-0.3-3.5-0.7-7-0.8-10.5c-0.6-14.7-1.2-29.5-1.8-44.2
			c-0.4-9.1-0.7-18.1-0.9-27.2c-0.1-4.4,0.4-8.8,0.4-13.2c0.1-11,0.1-22,0.2-33c0.1-9.5,0.6-18.9,0.6-28.4c0-15-0.2-30-0.4-45
			c0-0.4-0.2-0.8-0.3-1.1c-5.3-2.2-5.8-3.5,0.2-7.2c-0.5-4.6-0.8-9.5-1.5-14.4c-0.8-6.4-1.9-12.9-2.6-19.3c-0.3-2.2-1.5-3.1-4.3-3.6
			c-8.1-1.3-16.4-1.4-24.5-0.9c-10.3,0.6-20.5,0.7-30.7,0.1c-5.9-0.4-11.8-0.7-18-1.1c-1.8,5.1-1.8,10.1-1.6,15.1
			c0.5,9.4,1.4,18.8,2.1,28.3c0.4,6.6,0.8,13.2,1,19.8c0.2,7.7,0.1,15.5,0.3,23.2c0.3,11.4,0.8,22.8,1.1,34.2
			c0.2,7.1-0.1,14.2,0.1,21.3c0.2,11.1,0.6,22.2,1.1,33.4c0.4,9.6,0.9,19.1,1.7,28.7c0.6,7.6,2.1,15.1,2.5,22.7
			c0.4,7.2-0.2,14.5-0.4,21.7c0,1.3-0.3,2.8-2.7,2.7c-2.4-0.1-2.9-1.5-2.9-3.1c-0.1-5.2-0.2-10.4-0.4-15.5
			c-0.4-9.2-0.9-18.3-1.4-27.5c-0.5-10.1-0.9-20.2-1.3-30.3c-0.5-12.8-1-25.6-1.3-38.4c-0.4-14.7-0.4-29.5-0.8-44.2
			c-0.2-6.9-1-13.7-1.3-20.5c-0.3-5.4-0.4-10.9-0.6-16.3c-0.4-7.4-0.7-14.7-1.4-22c-0.2-2.6-1.3-5.2-2.1-7.9
			c-1.6-0.1-2.6-0.2-3.6-0.2c-12.5-0.1-25-0.2-37.5-0.3c-5.1,0-10.2,0-15.2,1.4c-1.1,0.3-2.3,0.4-3.5,0.4c-2.6,0.1-4.1-0.9-4.3-2.5
			c-0.2-1.9,1.7-2.3,3.5-2.8c0.5-0.1,1-0.1,1.5-0.1c2-0.3,4.1-0.4,6-0.8c7.7-1.7,15.4-1.8,23.4-1.6c9.9,0.3,19.8,0.1,29.9,0.1
			c0.4-2.3,0.9-4.3,1-6.4c0.3-5.3,0.4-10.6,0.6-15.8c0.1-2,1.5-3,4.9-2.9c5.6,0.2,11.3,0.7,16.9,0.8c9.2,0.3,18.4,0.6,27.7,0.6
			c6.5,0,13-0.7,19.4-0.7c4.7,0,9.5,0.6,14.2,1.3c4.4,0.6,5.5,1.4,6,4.8c1.2,8,2.2,15.9,3.2,23.9c0.5,4.4,0.9,8.7,1.4,13.2
			c14.3-0.7,28.5-1.4,42.2-2.1c4.2,3.8,5.6,7.5,5,12c-0.5,4.1,0.1,8.2,0.3,12.4c0,0.6,0.2,1.4-0.1,1.9c-0.5,0.7-1.6,1.7-2.4,1.7
			c-1.1,0-2.8-0.7-3.1-1.4c-0.6-1.3-0.4-2.8-0.4-4.2c0-3.9,0.1-7.8,0-11.6c0-1.2-0.6-2.5-1-4c-13.4,1.1-26.6,0.6-40.1,2.7
			c-0.1,2-0.2,3.8-0.2,5.7c-0.1,13.2-0.2,26.4-0.3,39.6c-0.1,10-0.3,19.9-0.4,29.8c-0.1,12.2-0.3,24.3-0.2,36.5
			c0.1,9,0.7,18.1,0.9,27.1c0.1,6-0.2,11.9-0.1,17.9c0.1,6.9,0.4,13.7,0.8,20.6c0.4,6.9,1.1,13.7,1.5,20.5
			C-135.9-115.9-133.8-113.1-136.8-110.1z"/>
		<path class="st2" d="M-80.9-334.1c-0.2-4,0.4-4.7,3.9-4.9c1.1,0,2.2,0.2,3.4,0.2c2.7,0.1,5.5,0.6,8.1,0.3c6.6-1,13,0.1,19.5,0.3
			c8.9,0.4,17.9,0.5,27.3,0.8c0.4-1.8,0.9-3.3,1.1-4.8c0.2-2,0-4.1,0-6.2c0-1.4,0-2.9,0.3-4.3c0.3-1.2,0.2-2.9,2.4-2.9
			c1.5,0,2.6,1.3,2.5,3.2c-0.2,4-0.6,8-0.8,11.9c-0.1,3-1.6,5.6-3.6,8.6C-38.1-332.6-59.4-333.3-80.9-334.1z"/>
		<path class="st2" d="M89.3-376.5c0.7,0.9,1.8,1.9,1.7,2.6c-0.5,3.9-1.1,7.9-2.3,11.7c-1,3.2-1.6,3.3-5.5,3.2
			c-14.1-0.2-28.1-0.4-42.2-0.7c-6-0.1-11.9-0.4-17.9-0.7c-1.6-0.1-3.1-0.3-4.6-0.5c-1.5-0.2-2.3-1-2.2-2.2c0.1-1.4,1-2.2,2.8-2.1
			c4.1,0.1,8.2,0.1,12.3,0.3c4.8,0.2,9.6,0.7,14.4,0.8c3.7,0.1,7.4-0.3,11-0.3c8.4,0,16.7,0,25.1,0.2c2.3,0,3.5-0.6,3.6-2.6
			c0.1-1.8,0.3-3.6,0.6-5.4C86.3-373.8,86.4-375.4,89.3-376.5z"/>
		<path class="st2" d="M151-362.9c1.5-3,0.3-5.3-0.3-7.6c-0.5-1.9-1.5-4.1,2.1-5.6c0.8,0.8,2,1.6,2.3,2.6c1.4,4,1.8,8.1,0.6,12.2
			c-0.8,2.8-1.4,3.3-4.9,3.4c-7.9,0.1-15.9,0.1-23.8,0.1c-2.4,0-4.8,0.3-7.2,0.3c-7.3-0.1-14.5-0.3-21.8-0.5
			c-2.5-0.1-3.7-1.2-3.2-2.9c0.4-1.4,1.4-2,3.4-1.9c10.1,0.1,20.1-0.1,30.2-0.1C135.9-363,143.4-362.9,151-362.9z"/>
		<path class="st2" d="M400.6-193.7c1.5-3,0.3-5.3-0.3-7.6c-0.5-1.9-1.5-4.1,2.1-5.6c0.8,0.8,2,1.6,2.3,2.6c1.4,4,1.8,8.1,0.6,12.2
			c-0.8,2.8-1.4,3.3-4.9,3.4c-7.9,0.1-15.9,0.1-23.8,0.1c-2.4,0-4.8,0.3-7.2,0.3c-7.3-0.1-14.5-0.3-21.8-0.5
			c-2.5-0.1-3.7-1.2-3.2-2.9c0.4-1.4,1.4-2,3.4-1.9c10.1,0.1,20.1-0.1,30.2-0.1C385.4-193.7,392.9-193.7,400.6-193.7z"/>
		<path class="st2" d="M95.9,118.6c1.5-3,0.3-5.3-0.3-7.6c-0.5-1.9-1.5-4.1,2.1-5.6c0.8,0.8,2,1.6,2.3,2.6c1.4,4,1.8,8.1,0.6,12.2
			c-0.8,2.8-1.4,3.3-4.9,3.4c-7.9,0.1-15.9,0.1-23.8,0.1c-2.4,0-4.8,0.3-7.2,0.3c-7.3-0.1-14.5-0.3-21.8-0.5
			c-2.5-0.1-3.7-1.2-3.2-2.9c0.4-1.4,1.4-2,3.4-1.9c10.1,0.1,20.1-0.1,30.2-0.1C80.7,118.6,88.2,118.6,95.9,118.6z"/>
		<path class="st2" d="M-122.3-85.1c2-4.1-0.7-8.1,1.2-11.9c2.7,0.4,4.3,1.3,4.3,3.5c0,3.3,0,6.5-0.1,9.8c-0.1,3-1.1,3.9-4.8,3.8
			c-6.8-0.1-13.6-0.5-20.4-0.7c-3.3-0.1-6.5-0.1-9.8-0.1c-5.3,0-10.5,0-15.8-0.2c-1.7,0-3.1-0.6-2.9-2.4c0.2-1.6,1.1-2.3,3.1-2.3
			c10.2,0.2,20.4,0.3,30.7,0.4C-131.9-85.1-127-85.1-122.3-85.1z"/>
		<path class="st2" d="M55.7,92c-0.2-2.2-0.4-4.2-0.7-6.1c-0.1-0.7-0.7-1.4-0.5-2.1c0.2-0.7,0.7-1.6,1.5-2c0.4-0.2,1.7,0.3,2.1,0.8
			c0.7,0.7,1.4,1.6,1.5,2.5c0.2,3,0.3,6,0,9c-0.3,2.7-1.7,3.6-4.8,3.5c-11.1-0.4-22.1,1.3-33.1,1.9c-4.2,0.2-8.5,0-12.6,0
			c-1.6-4.1-0.6-4.9,3.9-4.8c5.6,0,11.3-0.5,16.9-0.9c7.6-0.5,15.3-1,22.9-1.6C53.5,92.2,54.3,92.1,55.7,92z"/>
		<path class="st2" d="M32.7-282.4c-0.6-3.6-0.2-4.4,3.4-4.8c4.4-0.5,8.8-0.7,13.2-0.8c7.2-0.2,14.5-0.2,21.7-0.3
			c0.7,0,1.4-0.1,2.3-0.2c0.6-3.5,0.2-6.8-0.4-10.1c-0.2-1.2-0.6-2.4-0.4-3.6c0.1-0.9,1-1.7,1.5-2.5c2.3,0.8,3.1,2,3.3,3.6
			c0.5,4.1,0.9,8.2,1.3,12.3c0,0.5-0.1,1-0.2,1.4c-0.6,3.3-2.1,4.4-5.9,4.4c-8.4,0.1-16.8,0.1-25.1,0.2c-3.3,0-6.5,0.3-9.8,0.4
			C35.9-282.4,34.3-282.4,32.7-282.4z"/>
		<path class="st2" d="M161.3-288.8c-0.6-3.6-0.2-4.4,3.4-4.8c4.4-0.5,8.8-0.7,13.2-0.8c7.2-0.2,14.5-0.2,21.7-0.3
			c0.7,0,1.4-0.1,2.3-0.2c0.6-3.5,0.2-6.8-0.4-10.1c-0.2-1.2-0.6-2.4-0.4-3.6c0.1-0.9,1-1.7,1.5-2.5c2.3,0.8,3.1,2,3.3,3.6
			c0.5,4.1,0.9,8.2,1.3,12.3c0,0.5-0.1,1-0.2,1.4c-0.6,3.3-2.1,4.4-5.9,4.4c-8.4,0.1-16.8,0.1-25.1,0.2c-3.3,0-6.5,0.3-9.8,0.4
			C164.5-288.8,162.9-288.8,161.3-288.8z"/>
		<path class="st2" d="M-63.6,110.6c0-1.1,0-2.2,0-3.3c0-1.1,0.5-1.9,1.9-2c1.5-0.1,2.6,0.6,2.6,1.8c0,2.5-0.1,5.1-0.4,7.6
			c-0.2,1.5-1.6,1.8-3.2,1.8c-12.3,0.2-24.6,0.4-37,0.5c-2,0-4-0.3-5.9-0.7c-1.5-0.3-2.5-1.2-2.1-2.7c0.4-1.3,1.3-2,3.1-1.9
			c7.1,0.2,14.2,0.4,21.3,0.5c1.4,0,2.8,0,4.3-0.2C-74.1,111.6-69.1,111.1-63.6,110.6z"/>
		<path class="st1" d="M-196.4-121.8c0.3-3.5,2.6-5.8,6.4-7.3c0.9-0.3,2-0.4,3-0.4c5.5,0.2,10.7,5.8,9.2,9.8
			c-0.5,1.2-0.8,2.5-1.4,3.7c-2.1,4.4-8.5,5.3-12.6,1.9C-194.6-116.4-195.9-119.1-196.4-121.8z"/>
		<path class="st1" d="M-188.4-230.7c-0.7,1.3-1.7,3.7-3.4,5.8c-2,2.4-5.3,2.5-7.7,0.5c-3.8-3.2-5.7-7-5.1-11.3
			c0.4-2.6,4.7-6.2,7.9-6.5c1-0.1,2.3,0.4,3.2,0.9C-189.7-238.9-188.7-235.5-188.4-230.7z"/>
		<path class="st1" d="M-174.1-339.9c-0.1-2.3,4.1-6,7.1-6.1c1,0,2.1,0.2,2.9,0.6c5.6,2.6,7.4,9.5,3.7,13.7c-2.8,3.1-7.1,3.2-10,0.1
			C-172.6-334.1-174.2-336.8-174.1-339.9z"/>
		<path class="st1" d="M-234.7-214.1c-0.1,5.3-2.3,7.1-6.8,6.9c-2.8-0.1-4.2-1.5-5.4-3.1c-2.3-3.2-1.3-6.6-0.6-9.9
			c0.2-1.1,2.7-2.3,4.4-2.7c2.5-0.6,5,0.4,5.9,2.2C-235.9-218.2-235.2-215.5-234.7-214.1z"/>
		<path class="st1" d="M-280.6-260.8c0.1-2.4,1.4-4.1,3.5-5.6c2.2-1.5,5.2-1.3,7.3,0.3c4.3,3.2,4.5,10.4,0.5,13.8
			c-2,1.7-6.5,1.1-8.1-1.3C-278.8-255.9-279.6-258.4-280.6-260.8z M-272.8-260.7c-0.2,0-0.5,0.1-0.7,0.1c0.2,0.8,0.5,1.5,0.7,2.3
			c0.3-0.1,0.6-0.1,0.9-0.2C-272.2-259.3-272.5-260-272.8-260.7z"/>
		<path class="st1" d="M-165.8-296.1c-2.6-1.1-3.6-2.4-6.2-1.9c-2.1,0.5-4-0.8-5-2.6c-2.6-4.6-1-8.5,4.4-9.9
			c2.9-0.8,4.7-0.3,6.4,1.7c2.3,2.6,3,5.5,2.5,8.5C-163.9-298.9-164.9-297.7-165.8-296.1z"/>
		<path class="st1" d="M-195.1-292.5c0.1,2.9-1.5,5-4.6,6.6c-2,1.1-3.7,1.1-5.3-0.4c-3.1-2.8-3.6-6-3-9.5c0.2-1.4,4.8-4.2,6.7-4.4
			c2.4-0.2,4,0.9,4.7,2.4C-195.8-296.1-195.6-294.2-195.1-292.5z"/>
		<path class="st1" d="M-261.2-144.9c0-0.4,0-0.5,0-0.7c0-4.2,0.2-4.5,2.8-4.9c4.2-0.5,8,0.9,9.1,3.6c0.8,2.1,1.2,4.3,1.3,6.5
			c0.1,2.7-2.7,3.9-6,2.7c-0.6-0.2-1-0.8-1.6-0.9C-260.9-139.1-262-141.6-261.2-144.9z"/>
		<path class="st1" d="M-263.9-215.1c-0.5,1.9-1,3.9-4.1,4.4c-1.9,0.3-4.3-1.6-5.5-4c-0.5-1-0.9-2-1.1-3c-0.4-2.2,0.7-4.1,2.8-5.5
			c1.7-1.1,6.1-0.9,8.1,0.5c1.5,1,2.9,2.2,3.8,3.5C-257.8-216.1-259.2-214.8-263.9-215.1z"/>
		<path class="st1" d="M-266.3-312.2c0,2.1-0.4,3.6-2.7,4.2c-2.5,0.6-4.3-0.2-5.5-1.9c-1-1.2-2.1-2.4-2.9-3.6
			c-1-1.6-1.8-3.4-0.2-5.1c0.5-0.6,0.9-1.4,1-2.2c0.2-1.3,0.9-2.4,2.7-2.4c1.4,0,2.9,0.6,4,1.2c1,0.6,1.7,1.7,2,2.6
			C-267.3-316.8-266.8-314.3-266.3-312.2z"/>
		<path class="st1" d="M-165.2-146.4c2.6,2.9,2.6,6.2,2.6,9.3c0,1.2-1.3,2.6-2.4,3.5c-1.7,1.4-3.2,1.1-4.5-0.5
			c-2.3-2.9-3.4-6.1-3.5-9.5c-0.2-3.3,1.1-4,5.6-3.3C-166.7-146.8-165.9-146.6-165.2-146.4z"/>
		<path class="st1" d="M-241-313.1c-0.7,0.7-1.7,2.3-3.4,3c-2,0.9-3.9-0.2-5.1-1.7c-1.5-1.9-5.4-3.5-1.4-6.2
			c0.1-0.1-0.2-0.6-0.4-0.8c-1.1-1.4-0.1-2.3,1.5-2.7c2-0.4,3.4-3.1,5.7-1.5c1.4,1,1.6,2.9,2.1,4.5
			C-241.6-317-241.5-315.5-241-313.1z"/>
		<path class="st1" d="M-241.1-281.6c-0.7,0.7-1.7,2.4-3.4,3.4c-1.5,0.9-5.3-0.4-6.4-2.2c-1.1-1.8-1.7-3.9-2.2-5.8
			c-0.4-1.6,1.4-2.3,3.1-2.5C-245-289.2-240.9-286.4-241.1-281.6z"/>
		<path class="st1" d="M-202.4-336.3c-0.3,1.9-0.3,3.2-0.7,4.4c-0.7,2.1-3,2.8-5.5,1.6c-2.5-1.2-3.9-3.1-3.6-5.2c0.2-2,0.9-4,2-5.8
			c1.3-2.1,5.2-1.9,6.4,0.3C-202.9-339.4-202.7-337.5-202.4-336.3z"/>
		<path class="st1" d="M-266.5-117.7c4.1-2.5,7.7-1.7,11.4-0.4c0.5,2.8-1.3,5-3.6,6.9c-1.8,1.5-3.9,1.2-5.1-0.9
			C-264.8-113.9-265.5-115.7-266.5-117.7z"/>
		<path class="st1" d="M-168.7-192.7c0,2-2.6,3.9-5.2,3.9c-2.3,0-3.6-1.7-3.3-4c0-0.1,0.1-0.3,0.1-0.4c0.5-2.5,2.4-4.1,4.5-4
			C-170.5-197-168.6-194.9-168.7-192.7z"/>
		<path class="st1" d="M-197.9-188.4c-0.6,0.7-1.5,2.2-2,2.1c-1.9-0.2-4.3-0.5-5.3-1.5c-1-1-1-2.9-0.7-4.3c0.2-0.8,2-1.7,3.3-1.9
			c0.9-0.1,2.4,0.9,3,1.6C-198.8-191.3-198.6-190-197.9-188.4z"/>
		<path d="M215.3,98.8c-0.2,3.4-0.6,3.7-4,2.5C211.2,98.7,213.3,98.9,215.3,98.8z"/>
		<path d="M510.9-294.8c-0.5,0.8-1.1,2.3-2.3,3.4c-1.1,0.9-3,1.9-4.6,1.9c-2.5,0-3.9-1.8-4.1-3.4c-0.7-4.5,1.7-8.5,5.7-11.8
			c1.2-1,2.8-0.4,3.2,0.7C509.5-301.3,510.1-298.4,510.9-294.8z"/>
		<path d="M510-253.7c-1.3,1-2.4,1.9-3.6,2.9c-1.8-0.1-3.8-0.3-6.1-0.5c-0.6-3,0.7-5.7,2-8.2c0.4-0.8,2-1.7,3-1.7
			c1,0,2.5,0.9,2.9,1.7C509.1-257.7,509.4-255.7,510-253.7z"/>
		<path d="M507.7-207.8c-2.6,1.1-5,2.3-7.6,3.2c-0.9,0.3-2.7,0.2-3.2-0.2c-0.7-0.7-0.9-1.9-0.6-2.7c0.5-1.2,1.9-2.1,2.5-3.3
			c1-1.8,2.6-2.5,5.3-2.2c2.5,0.3,2.7,1.7,3.1,3.1C507.4-209.4,507.5-208.9,507.7-207.8z"/>
		<path d="M519.5-182.3c-1.2,2.1-3.3,2.9-5.6,3.2c-0.9,0.1-2.5-0.5-2.8-1c-0.3-0.6,0.4-1.8,1.1-2.2
			C514.3-183.2,516.6-183.4,519.5-182.3z"/>
		<path d="M-68.8-213.1c0-3.9,1.4-5.8,4.2-6.2c2.6-0.3,4.6,1.1,5.9,4.3c0.8,1.9,1.4,3.9,0.6,6c-1.3,3.5-5,4.3-8.2,1.8
			C-68.4-208.9-68.8-211.1-68.8-213.1z"/>
		<path d="M-75.6-214.5c-0.6,1.5-0.9,3-1.7,4.2c-1.3,2-4.3,2-5.8,0c-2.1-2.7-1.9-5.5-0.5-8.3c1.3-2.5,4.8-2.6,6.3-0.3
			C-76.5-217.5-76.2-216-75.6-214.5z"/>
		<path class="st2" d="M16-193.7c0.6,4.5-1.6,8.9-5,12.8c-1.2,1.4-3.1,2.6-5,3.2c-7.7,2.5-19.4-1.1-23.7-7c-1.8-2.5-2.5-5.2-1.8-8
			c2-7.1,5.7-13.1,13.1-17.7c4.5-2.8,14.1-1.7,17.4,2.1C14.6-204,15.9-200.9,16-193.7z M11.6-195.5c0.2-2.7-0.7-5.8-3.2-8.3
			c-1.6-1.6-3.3-4-6.7-2.2c-0.4,0.2-1.3-0.3-2-0.3c-1.3,0.1-2.8,0-4,0.5c-4.1,1.8-6.6,4.9-8.1,8.5c-2.6,6.3-2.5,11.1,6.8,13.7
			c0.1,0,0.2,0.1,0.4,0.2c6,2.1,11.1,0.6,14.6-4C11.2-189.7,11.5-192.3,11.6-195.5z"/>
		<path d="M235.7-223.3c1.5,1.2,1,2.1,0.3,3.1c-3,4.1-6.1,8.1-9,12.3c-1.2,1.7-2.2,3.6-3.3,5.5c-0.5,0.9-0.8,2-2.4,1.5
			c-1.6-0.5-0.9-1.6-0.7-2.5C221.9-208.9,230.3-220,235.7-223.3z"/>
		<path d="M109.2,25.5c-0.9-0.9-2-1.5-2.2-2.3c-0.3-0.8-0.1-2.1,0.5-2.5c0.6-0.4,2.4-0.4,3,0c0.8,0.6,1.3,1.9,1.2,2.7
			C111.4,24.1,110.2,24.7,109.2,25.5z"/>
		<path d="M290.8-206.7c-0.7,1.9-1.2,3.7-2.2,5.2c-1,1.7-3.1,2.1-5.2,1.8c-2.1-0.3-4-1-4.2-3.1c-0.1-1.8-0.4-3.9,0.6-5.2
			c1.2-1.6,3.5-2.7,5.5-3.6c0.7-0.3,2.6,0.3,3.3,0.9C289.7-209.5,290.1-208.1,290.8-206.7z"/>
		<path d="M262.7-159.6c0.9-1,1.5-2.5,2.4-2.6c3.1-0.5,6.3-0.5,9.5-0.7c0.8,3.2,0.7,3.5-2,4.2C269.5-158,266.5-157.5,262.7-159.6z"
			/>
		<path d="M469.8-293.5c0,0.4,0.2-0.2,0-0.6c-0.9-1.7-0.9-3.3,1.4-4.4c2-1,8.4-0.9,10,0.1c0.6,0.4,1.3,1.1,1.2,1.6
			c-0.6,2.6-0.9,5.3-2.3,7.7c-1.2,2.2-3.9,2.7-6.4,2c-2.6-0.6-4-2.1-4.1-4.4C469.6-291.9,469.6-292.2,469.8-293.5z"/>
		<path d="M475.9-332.3c0.1,3-1.8,4.6-4.6,4.6c-0.7,0-1.7-0.3-2.2-0.7c-1.2-0.9-1.5-6.1-0.5-7.2c1.1-1.3,2.9-1.7,4.2-0.5
			C474.3-334.8,475.2-333.2,475.9-332.3z"/>
		<path d="M462.6-323.6c3.8,1.5,2,4.5,3.6,6.5c-4.2,1.7-6.3,1.7-7.6,0.2C456.9-319,458.6-321.9,462.6-323.6z"/>
		<path d="M467.1-247c0.1-2.5,1.6-3.8,4.4-3.8c1.9,0,3.8,1.7,3.8,3.4c0,1.6-2.5,3.1-5,3.1C468-244.3,467.1-245.2,467.1-247z"/>
		<path d="M28.6,444.8c-2.7,1-5.4,0.8-8.1-0.3c-4.2-1.7-5.4-4.7-3.6-8.8c1.2-2.8,2.3-5.6,3.5-8.4c0.2-0.6,0.5-1.2,0.9-1.7
			c0.8-0.9,2.2-0.5,2.3,0.6c0.1,1.2,0,2.5-0.3,3.7c-0.6,2.2-1.5,4.3-2.3,6.4c-1.1,2.9-0.3,4.2,2.8,4.7c0.9,0.1,1.8,0,2.7,0.1
			C29,441.6,29,441.7,28.6,444.8z"/>
		<path d="M40.5,404.7c3,0,4.7,1.9,4.8,5.1c0.1,3.5-2.8,6.5-6.2,6.4c-2.8-0.1-4.7-1.9-4.7-4.5C34.5,407,36.5,404.7,40.5,404.7z"/>
		<path d="M24.5,409c0,3.4-1.1,4.9-3.8,4.9c-2.8,0.1-5.7-2.7-5.7-5.5c0-2.6,2.5-5.3,5-5.4C22.3,402.9,24.5,405.8,24.5,409z"/>
		<path d="M-3.7,504.8c-1.9,2.5-4.6,2.4-6.8,3c-1.4,0.4-3,0.5-4.5,0.4c-0.6-0.1-1.3-1-1.6-1.7c-0.1-0.3,0.5-1.3,0.9-1.4
			c3.5-0.5,7-0.9,10.5-1.2C-4.8,503.8-4.4,504.4-3.7,504.8z"/>
		<path d="M-19,518.5c-3.3,1.1-6,2.2-8.8,3c-1.2,0.4-2.2-1.1-1.5-2.2c1.3-2.1,3.6-2,5.6-2.6C-22,516.2-20.6,516.7-19,518.5z"/>
		<path d="M0.9,520.3c-1.2,3.6-4.8,4.2-9.3,1.7c-0.3-1.3,0.2-2.5,1.5-2.4C-4.3,519.6-1.7,520,0.9,520.3z"/>
		<path d="M420.8,370.8c-5.1,0.2-9-2.5-12.8-5.2c-0.7-0.5-1.2-1.7-1.3-2.6c-0.1-0.7,0.4-1.8,1-2.2c0.6-0.4,2-0.4,2.4,0
			c4.4,4.6,9.7,5.1,15.5,3.9c1.9-0.4,3.7-1.3,5.6-2c0.9-0.3,1.9-0.8,2.8-0.7c1.9,0.4,2.6,2.6,1.2,3.8c-2,1.8-3.9,3.7-6.8,4
			C425.8,370.2,423.3,370.5,420.8,370.8z"/>
		<path d="M409.1,375.3c0.1-2.7,1.4-3.3,3.3-2.8c2,0.5,3.9,1.2,5.9,1.6c4.4,1,8.8,1.1,13.1-0.2c3-0.9,4.7-0.3,5,1.6
			c0.3,1.7-0.9,2.7-3.7,3.5c-6,1.8-12,1.8-17.8-0.7C412.9,377.5,411,376.3,409.1,375.3z"/>
		<path d="M426.9,352c-0.4,1.7-0.6,3.2-1.2,4.6c-0.8,2-3.1,3-5.4,2.8c-2.1-0.3-3.1-1.7-3.4-3.6c-0.4-3.1-0.2-6.1,1.9-8.7
			c2.1-2.6,5.3-2.3,6.8,0.7C426.3,349.1,426.5,350.6,426.9,352z"/>
		<path d="M434.7,408.4c-0.7,1.5-1.5,2.5-3.4,1.4c-0.8-0.4-1.9-0.5-2.8-0.5c-2.1-0.1-4.3-0.3-6.4-0.1c-1.9,0.1-3.7,0.6-5.5,1.1
			c-1.2,0.3-2.3,0.7-3.6,1.1c-0.8-1.9-0.5-3.1,1.1-3.8c3.4-1.6,6.7-3,10.6-2.3c1.2,0.2,2.5,0,3.8-0.1
			C432.6,404.7,432.6,404.6,434.7,408.4z"/>
		<path d="M487.5,369.2c-0.5,1.3-1.2,3.3-2.2,5.2c-0.3,0.6-1.9,1-2.5,0.7c-0.6-0.3-1.1-1.5-1.2-2.3c-0.1-0.7,0.5-1.4,0.8-2.1
			c0.7-1.6,1.3-3.1-0.8-4.2c-0.4-0.2-0.7-1.6-0.4-1.9c0.5-0.5,1.5-1,2.3-0.9C485.7,363.8,487.5,366.1,487.5,369.2z"/>
		<path d="M457.8,394.1c1.9-5.1,5.5-7.6,8.8-10.3c0.3-0.3,1.3-0.2,1.6,0.1c0.3,0.3,0.3,1.3,0,1.6c-1.3,1.6-2.7,3-4,4.5
			c-1,1-1.8,2.2-2.9,3C460.5,393.5,459.4,393.6,457.8,394.1z"/>
		<path d="M475.9,417c-2.4,2.9-4.4,5.5-6.6,7.9c-0.8,0.8-2,1.2-3.1,1.9c-1.1-2.5,0.3-3.5,1.4-4.7C472.6,416.9,472.6,416.8,475.9,417
			z"/>
		<path d="M406.6,394c-0.3-0.7-1.1-1.7-0.9-2.1c1.6-2.9,3.3-5.6,5.1-8.4c0.2-0.3,1-0.4,1.3-0.2c0.5,0.3,1.2,1.2,1,1.4
			c-1.6,3-3.4,5.9-5.2,8.8C407.9,393.8,407.4,393.8,406.6,394z"/>
		<path d="M447.7,435.4c-0.9-3.2,0.1-6.3,1.3-9.3c0.4-1.1,2.3-1,2.4,0c0.1,2.3-0.1,4.7-0.6,7c-0.2,1-1.3,1.9-1.9,2.8
			C448.4,435.7,448,435.6,447.7,435.4z"/>
		<path d="M434.9,419.4c1.4,0.4,1.8,1.7,1.2,2.7c-1.5,2.5-1.9,6.1-5.6,7C429.9,424.9,431.4,421.8,434.9,419.4z"/>
		<path d="M465.7,407.4c-0.3-4.9,3.5-9.8,7.5-9.7c-0.6,3.8-4,5.8-5.6,8.8C467.4,407,466.4,407.1,465.7,407.4z"/>
		<path d="M416.7,397.6c-2.6-2.4-2.3-3.1,2.2-8.4c2.2,0.9,2.6,1.5,1.7,3C419.5,394,418.1,395.6,416.7,397.6z"/>
		<path d="M442.3,424.3c0.7,3.3-0.5,5.6-1.4,7.9c-0.2,0.6-1.6,0.7-2.5,1c-0.1-0.8-0.5-1.6-0.4-2.3c0.4-1.6,1.1-3.1,1.8-4.5
			C440.4,425.6,441.3,425.2,442.3,424.3z"/>
		<path d="M443.3,396c-1.3,2.4-1.9,4-3,5.4c-0.4,0.6-1.6,0.6-2.5,0.9c-0.2-0.8-0.9-1.8-0.6-2.3c0.8-1.5,1.8-3,3.1-4.2
			C440.8,395.4,442,395.8,443.3,396z"/>
		<path d="M446.4,408.9c0.7-1.6,1.3-3.1,2-4.5c0.2-0.3,1.2-0.5,1.7-0.4c0.4,0.2,1,1,0.9,1.4c-0.1,1.4-0.5,2.7-0.9,4
			c-0.3,1-1,2-2.2,1.5C447.4,410.7,447,409.7,446.4,408.9z"/>
		<path d="M433.3,392.1c0.2,0.4,1,1.3,0.8,1.7c-0.7,1.3-1.6,2.6-2.6,3.6c-0.3,0.3-1.5,0.3-2-0.1c-0.4-0.3-0.6-1.3-0.4-1.9
			C429.6,393.7,431.5,392.1,433.3,392.1z"/>
		<path d="M444.7,595c-1.1,0.4-2.2,0.7-3.3,1.1c-2.7,0.9-5.4,1.9-8.2,2.7c-0.6,0.2-1.3-0.3-2-0.4c0.3-0.7,0.4-1.9,0.8-2.1
			c4-1.6,8.2-2.5,12.5-2.1C444.5,594.4,444.6,594.7,444.7,595z"/>
		<path d="M435.4,614.7c0.3-0.9,0.4-2.1,0.7-2.2c2.9-0.6,5.8-0.9,9-0.1C442.9,615.1,441,615.6,435.4,614.7z"/>
		<path d="M415.3,606.4c0.5-1.2,0.7-2.2,1.3-2.7c1.4-1.1,4-0.9,6.3,0.2C421.7,606.5,420.9,606.8,415.3,606.4z"/>
		<path d="M505.1,362c-0.5,0.7-1,1.5-1.5,2.3c-0.7-0.6-1.8-1-2.1-1.8c-0.9-2.5-1.4-5.1-2.1-7.7c-0.4-1.6-0.8-3.2-1.1-4.8
			c-0.2-0.8-0.3-1.8,0-2.5c0.2-0.6,0.9-1.3,1.5-1.4c0.6,0,1.5,0.6,1.7,1.1C502.7,352,503.8,356.9,505.1,362z"/>
		<path d="M511.6,370c-1.3-4.3-3.8-8.4-2.5-13.3c0.2-0.6,0.1-1.4,0.5-1.8c0.6-0.5,1.4-1,2.2-1c0.4,0,1.2,1.1,1.1,1.6
			c-0.7,3.7,0.5,7.2,1.2,10.8C514.4,367.8,514.3,369.6,511.6,370z"/>
		<path d="M481.7,328.6c0.4,0.7,0.7,1,0.7,1.1c-1.5,2.7-2.9,5.4-4.6,8c-0.3,0.4-1.7,0.1-3.1,0.2
			C475.8,333.5,477.6,330.4,481.7,328.6z"/>
		<path d="M481.6,342.4c0.8-4,3.3-6.2,5.6-8.5c0.5-0.5,1.7-0.4,2.5-0.6c0.2,0.3,0.4,0.6,0.6,0.8c-1.8,2.6-3.5,5.4-5.5,7.9
			C484.3,342.6,482.9,342.3,481.6,342.4z"/>
		<path d="M364.8,581c-1.2-1.7-1.1-3,1-3.6c4-1.1,7.9-0.5,11.7,0.9c-0.3,2.3-1.9,2.6-3.4,2.6C371.1,581.1,368,581,364.8,581z"/>
		<path d="M375.6,563.7c-0.9,0.3-1.9,0.7-2.8,0.9c-2.6,0.3-5.2,0.5-7.9,0.6c-0.8,0-2.2-0.4-2.4-1c-0.6-1.2,0.2-2.1,1.5-2.5
			c3-0.8,6-1.3,9-0.4c1,0.3,1.9,1,2.8,1.5C375.7,563.1,375.6,563.4,375.6,563.7z"/>
		<path d="M365.4,587.2c4.1-2.9,8.6-1.3,13.1-0.9c0,2-1.2,2.7-2.6,2.9c-2.9,0.3-5.8,0.4-8.7,0.5
			C365.8,589.7,365.3,588.7,365.4,587.2z"/>
		<path d="M376.1,571.2c-3.2,0.4-5.9,0.7-8.7,1c-1.1,0.1-2.1-0.1-2.3-1.4c-0.2-1.4,0.5-2.2,1.9-2.3c1.9-0.1,3.8-0.2,5.7-0.3
			C374.5,568.2,375.7,569,376.1,571.2z"/>
		<path d="M821.1,457.8c0,3.7-2.6,7.4-5.8,8.1c-2.7,0.6-4.7-0.7-4.6-3.5c0-2.4,0.5-4.8,1.2-7.1c0.6-2.2,3.6-3.5,5.6-3
			C819.8,452.9,821.1,454.8,821.1,457.8z"/>
		<path d="M822.6,492.3c-1,1.3-1.3,2.1-1.9,2.4c-3.4,2.4-6.9,4.6-10.4,6.9c-0.5,0.3-1.1,0.7-1.7,0.8c-0.5,0.1-1.5-0.1-1.6-0.4
			c-0.3-0.6-0.2-1.4-0.1-2.1c0-0.3,0.5-0.6,0.8-0.8c3.8-2.2,7.6-4.5,11.4-6.6C819.9,492.2,820.9,492.4,822.6,492.3z"/>
		<path d="M799.3,516.5c-0.4,0.5-0.7,1.2-1.2,1.6c-3.1,2.2-6.2,4.3-9.3,6.6c-1,0.8-1.7,1-2.6-0.2c1.3-5.2,6.5-6,9.9-8.7
			C796.8,515.2,798.2,515,799.3,516.5z"/>
		<path d="M796.5,533.5c1.3-1.4,2-2.5,3.1-3.2c2.7-1.7,6.4-2.4,9.4-1.9c-0.4,0.8-0.5,1.9-1,2.2c-2.9,1.3-5.9,2.3-8.9,3.4
			C798.6,534.2,797.9,533.8,796.5,533.5z"/>
		<path d="M806,522.8c-0.6,0.7-1,1.4-1.6,1.7c-2.3,0.9-4.7,1.7-7.1,2.5c-0.6,0.2-1.2,0.3-1.8,0.3c-1.2-0.1-1.6-1.3-0.9-2.3
			c1.2-1.6,7.8-4,9.7-3.4C804.9,521.7,805.3,522.2,806,522.8z"/>
		<path d="M808,534.7c0,0.7,0,1.1-0.1,1.2c-2.5,1.5-4.9,3-7.5,4.4c-1,0.6-2.3,1-2.9-0.4c-0.6-1.3,0.3-2.2,1.5-2.7
			c2.1-0.9,4.2-1.9,6.4-2.6C806.1,534.4,807.1,534.7,808,534.7z"/>
		<path d="M795.8,535.3c-3.2,3.6-6.9,4.6-10,6.5c-1.1-1.6-0.8-2.7,0.2-3.4C788.6,536.5,791.1,534.3,795.8,535.3z"/>
		<path d="M788.6,512.4c-1.8-1.6-1.2-2.6-0.2-3.3c2.5-1.7,4.7-4.4,8.9-3.6C795.3,509.6,791.2,510,788.6,512.4z"/>
		<path d="M785.1,550.1c-1.2-1.7-1.3-2.8,0.1-3.4c2-0.9,4.1-1.8,6.3-2.5c0.7-0.2,1.9,0.2,2.3,0.7c0.7,1.1-0.2,1.9-1.2,2.3
			C790.1,548.1,787.7,549.1,785.1,550.1z"/>
		<path d="M821.9,498.5c-1.2,4.5-5.9,6.6-10.2,5.2c0-0.2-0.1-0.5,0.1-0.7c0.3-0.4,0.6-0.9,1-1C815.6,500.8,818.5,499.7,821.9,498.5z
			"/>
		<path d="M779.1,533c0.6-3.3,3-3.9,5.2-4.8c0.8-0.3,1.9,0.2,2.9,0.9C784.6,530.9,782.6,533.2,779.1,533z"/>
		<path d="M728.9,471.9c0.3,1.4,0.9,2.7,0.6,3.8c-1,4,0.2,7.9,0.6,11.8c0.3,3.1,1.4,6.2,2.2,9.3c0.4,1.8,0.5,1.8-0.6,3.9
			c-2.1-0.5-2.6-2.4-3-4c-1.8-6.6-3.4-13.3-2.7-20.3C726.2,474.7,726.2,473,728.9,471.9z"/>
		<path d="M727.4,453.5c0.6-2,1.3-4.7,2.3-7.3c1.5-4,3.2-8,5-11.9c0.5-1.1,1.5-2,2.4-2.8c0.2-0.2,1-0.2,1.4,0.1
			c0.3,0.2,0.6,0.9,0.5,1.3c-0.1,0.7-0.5,1.4-0.9,2.1c-3.4,6.2-5.4,12.8-6.8,19.6c-0.1,0.4,0,0.9-0.3,1.1c-0.6,0.6-1.2,1-1.8,1.5
			c-0.5-0.6-1-1.2-1.5-1.9C727.4,455.1,727.5,454.6,727.4,453.5z"/>
		<path d="M775.9,418c0,3.2,0.1,5.5,0,7.7c-0.2,5.1-0.4,10.1-0.8,15.2c-0.1,1.6-0.5,3.3-1,4.8c-0.3,1.1-1,2.2-2.5,1.7
			c-1.2-0.4-0.9-1.5-0.8-2.6c0.7-6.6,1.4-13.1,2-19.7c0.2-1.8,0.2-3.6,0.6-5.3C773.6,419.3,774.6,419,775.9,418z"/>
		<path d="M745.7,433c-0.1,0.9-0.1,1.9-0.4,2.8c-2.9,7.1-5.9,14.2-9,21.4c-1.6-0.2-2.1-1.4-1.7-2.9c0.5-2.1,1.1-4.2,2-6.2
			c2-4.5,4.1-9,6.2-13.5c0.4-0.8,1.2-1.4,1.8-2.1C745,432.7,745.4,432.8,745.7,433z"/>
		<path d="M765.6,418.2c1.2,1.1,2.2,1.5,2.2,2.1c0.1,1.2-0.1,2.5-0.3,3.8c-0.5,3.1-1,6.3-1.6,9.4c-0.5,3-1,6-1.6,9
			c-0.1,0.6-1.1,1.5-1.6,1.5c-1.3,0-1.5-1.1-1.3-2.2c0.5-2.7,1.1-5.5,1.6-8.2C763.9,428.8,764.7,424,765.6,418.2z"/>
		<path d="M740.4,495.4c-2,0.6-2.5-0.3-2.9-1.5c-1.8-6.4-2.6-12.9-1.8-19.5c0.1-0.6,0.2-1.3,0.5-1.8c0.2-0.4,0.8-0.7,1.2-0.6
			c0.4,0,0.9,0.5,1.1,0.8c0.2,0.4,0.3,1,0.2,1.5c-1.3,5.9,0.2,11.6,1.2,17.3C740.2,492.8,740.3,494.1,740.4,495.4z"/>
		<path d="M759.2,423.9c-0.2,1.9-0.1,3.7-0.6,5.3c-1.5,5-3.1,9.9-4.7,14.8c-0.2,0.6-0.4,1.2-0.8,1.7c-0.3,0.3-1,0.7-1.2,0.6
			c-0.5-0.3-1.1-0.9-1.1-1.3c0.1-1.2,0.4-2.5,0.8-3.7c1.1-3.2,2.3-6.4,3.4-9.7c0.7-2.2,1.2-4.4,1.6-6.6
			C756.8,423.6,757.4,423.2,759.2,423.9z"/>
		<path d="M784.1,442.9c-1.8,0.5-2.7,0.1-2.9-1.3c-0.2-1.1-0.3-2.3-0.2-3.4c0.6-5.5,1.2-11.1,1.9-16.6c1.5-0.4,2,0.4,2.1,1.5
			c0.1,1.5,0.1,3,0,4.6c-0.2,4.4-0.5,8.9-0.7,13.3C784.3,441.5,784.2,442.1,784.1,442.9z"/>
		<path d="M804.7,422.6c-0.6-1-1.2-1.6-1.1-1.9c0.4-0.6,1.1-1.1,1.6-1.6c0.3,0.4,1,1,0.9,1.3C806,421.1,805.4,421.6,804.7,422.6z"/>
		<path class="st2" d="M868.4,513.4c-1.4,2-5.6,3.9-7.4,3.4c-1.4-0.4-1.4-1.7-0.6-2.3c1.2-0.9,2.8-1.5,4.3-2
			C866.1,512,867.6,511.9,868.4,513.4z"/>
		<path class="st2" d="M859.3,526.9c-1.2,2.5-5.3,4.5-7.2,3.7c-0.4-0.2-1-0.7-0.9-1c0.1-0.7,0.4-1.7,0.9-1.9
			C854.2,526.8,856.5,525.8,859.3,526.9z"/>
		<path class="st2" d="M885.9,516.7c-2,0.5-4,1.1-6.1,1.4c-0.6,0.1-1.7-0.7-1.8-1.3c-0.1-0.6,0.6-1.7,1.2-1.9c1.4-0.5,3-0.7,4.4-0.7
			c0.8,0.1,1.6,1,2.4,1.5C886,516,886,516.3,885.9,516.7z"/>
		<path class="st2" d="M888.8,522.7c-0.1,2.1-1.7,2.1-3,2.2c-1.3,0.2-2.8,0.4-4,0.1c-1.1-0.2-0.9-2,0.4-2.6
			C884.4,521.3,886.7,521.3,888.8,522.7z"/>
		<path class="st5" d="M131,288.2c1.5-1.7,3.1-3.2,4.4-4.9c3.9-5.2,7.6-10.5,11.5-15.7c0.8-1.1,1.6-2.3,2.6-3.3
			c0.6-0.5,1.7-0.9,2.4-0.6c0.5,0.2,1,1.4,1,2.2c-0.1,2.6-0.8,4.9-2.5,7c-4.8,6.1-9.5,12.2-14.2,18.4c-1.5,1.9-5.1,2.9-7.6,2
			c-3.8-1.5-7.6-2.9-11.3-4.6c-1.6-0.7-3.1-1.7-4.4-2.9c-0.6-0.6-1-2.2-0.7-2.9c0.4-0.7,1.9-1.4,2.8-1.2c2.5,0.6,4.9,1.4,7.2,2.4
			C125,285.2,127.7,286.6,131,288.2z"/>
		<path d="M135.5,321.8c0,2.4,0.1,4.2-0.1,5.9c-0.1,0.6-1,1.6-1.2,1.6c-0.7-0.2-1.8-0.8-1.9-1.4c-0.6-4.1-1-8.3-1.5-12.4
			c-0.1-1.3,0.6-2.2,1.9-2.4c1.5-0.2,1.9,0.9,2,2.2C135,317.6,135.3,320,135.5,321.8z"/>
		<path d="M132.8,273.3c-2.8-2.2-4.5-7.6-3.4-10.2c0.2-0.5,1.1-1.2,1.6-1.1c0.8,0,2.1,0.5,2.2,1c0.6,2.7,1,5.4,1.2,8.2
			C134.4,271.9,133.4,272.5,132.8,273.3z"/>
		<path d="M157.2,292.9c-1.2-0.3-2.1-0.3-2.6-0.7c-0.5-0.4-0.8-1.3-0.8-1.9c0-0.5,0.6-1.3,1-1.4c1.7-0.4,3.5-0.6,5.2-0.7
			c0.5,0,1.2,0.5,1.4,0.9c0.2,0.5,0.1,1.5-0.3,1.7C159.8,291.7,158.3,292.3,157.2,292.9z"/>
		<path d="M111,294.4c-2,2.6-4.5,2.8-7,2.7c-0.5,0-1.4-0.9-1.5-1.4c0-0.8,0.4-2.1,0.9-2.2C105.8,293.1,108.3,292.4,111,294.4z"/>
		<path d="M207.2,426.8c-4.6,1.2-9.3,0.8-13.9,0.3c-10.6-0.9-21.2-2.4-31.8-3.5c-2.8-0.3-5.6,0.1-8.4-0.1c-2.8-0.1-5.5-0.4-8.3-0.8
			c-0.7-0.1-1.5-0.4-2-0.9c-0.5-0.4-0.9-1.3-0.8-1.9c0.1-0.5,1.2-1.2,1.7-1c6.5,1.9,13.1-0.6,19.7,0.3c9.7,1.4,19.5,2.1,29.2,3
			c3.7,0.3,7.4,0.2,11.1,0C207.7,421.9,208.3,422.6,207.2,426.8z"/>
		<path d="M200.7,440.2c0.7,2.1-0.8,2.6-1.9,2.9c-4.9,1.5-9.9,2.2-15,1.6c-0.6-0.1-1.6-1-1.7-1.5c0-0.6,0.8-1.4,1.4-1.8
			c0.7-0.4,1.7-0.4,2.6-0.4C191.1,440.7,195.9,440.4,200.7,440.2z"/>
		<path d="M204.9,413.6c0.1,2.5-1.2,4.3-3.2,4.4c-2.5,0.2-5.8-3.3-5.8-6.1c0-1.6,2.1-3.1,4.2-3.1
			C202.8,408.9,204.8,410.9,204.9,413.6z"/>
		<path d="M171.4,444.1c-4.9,1.9-9.7,1.9-14.5,0.7c-1-0.3-2.2-0.8-1.7-2c0.3-0.7,1.4-1.5,2.2-1.5c1.5-0.1,3,0.4,4.5,0.5
			c2.4,0.2,4.8,0.4,7.2,0.3C170.7,442,171.1,442.7,171.4,444.1z"/>
		<path d="M169.2,432.5c4-0.3,8-2.2,11.2,2.3c-3.4,2.1-6.9,1.5-10.1,1.4C168.6,436.2,168.8,434.4,169.2,432.5z"/>
		<path d="M158.8,436.1c-0.7,0.3-1.3,0.9-2,0.9c-2.7,0-5.3,0-8-0.2c-1.2-0.1-2.3-0.7-2.3-2.1c0.1-1.5,1.4-1.6,2.6-1.6
			c2.3,0,4.6,0.1,6.9,0.3C157.6,433.5,158.6,434.3,158.8,436.1z"/>
		<path d="M155.6,407.2c0.4,2.8-0.1,4.9-2.6,6c-1.5,0.6-2.7-0.1-3.7-1.3c-0.8-1-0.9-3.9,0.1-4.6
			C151.3,405.9,153.4,405.8,155.6,407.2z"/>
		<path d="M203.6,432.4c0.5,2.8-1.1,3.5-2.7,3.9c-2.9,0.9-4.5,0.3-6.4-2.3C197.4,431.7,200.7,433.7,203.6,432.4z"/>
		<path d="M335.5,375.5c-5.8-0.6-11.4-1.2-16.9-1.9c-1.4-0.2-2.8-0.6-4-1.2c-0.6-0.3-1-1.4-1-2.1c0-0.3,1.1-1,1.7-1
			c2.7,0.1,5.3,0.6,8,0.7c5.9,0.3,11.9,0.6,17.9,0.8c1.4,0.1,2.6,0.4,2.8,2c0.2,1.6-1.1,1.9-2.2,2
			C339.6,375.2,337.4,375.3,335.5,375.5z"/>
		<path d="M310.2,350c-0.7-2.3,0.4-3.3,1.9-3.5c7.2-1.1,14.3-2.8,21.6-1.7c1,0.2,2,0.4,3,0.7c1.6,0.5,1.9,0.9,2.9,3.7
			c-1.4,0.2-2.8,0.8-3.9,0.6c-7.1-1.7-14.1-0.5-21.2,0.2C313,350.1,311.5,350,310.2,350z"/>
		<path d="M311.7,359.1c0.7-0.5,1.3-1.3,1.9-1.3c4.9-0.3,9.9-0.7,14.8-0.7c4.3,0,8.6,0.4,12.9,0.6c1.3,0.1,2.2,0.5,2.1,2
			c-2.9,2.6-6.4,2.2-9.7,1.8c-4.7-0.5-9.3-0.9-14,0C317,362,314.1,362.3,311.7,359.1z"/>
		<path d="M320.7,388.3c1-0.5,1.7-1.2,2.5-1.3c2.9-0.1,5.8,0.1,8.7,0c2.2,0,3.3,0.9,3.3,3.1C331.1,392.2,324.2,391.4,320.7,388.3z"
			/>
		<path d="M411.5,246c-0.5-0.5-1.6-1.1-1.8-2c-0.3-1.1,0.3-2.2,1.7-2.5c1.4-0.2,2.7-0.6,4.1-0.6c0.9,0,2,0.2,2.8,0.7
			c1.4,0.9,1.2,2.3-0.3,2.8C416.1,245.1,414.1,245.4,411.5,246z"/>
		<path d="M415.1,230.4c-1.1,0.6-2,1.1-2.9,1.4c-0.8,0.2-1.8,0.1-2.6,0.2c-1.9,0.1-3.3-0.6-3-1.8c0.3-1.5,1.3-2.5,2.9-2.4
			C411.3,227.9,413.2,227.8,415.1,230.4z"/>
		<path d="M411.8,237.4c-1.5,0.3-2.3-0.3-2.5-1.7c-0.2-1.4,1-2.4,2.7-2.4c1.5,0.1,3.2,0.2,3.5,2.2
			C415.8,236.9,414.6,237.4,411.8,237.4z"/>
		<path d="M319.5,430.5c-0.3,1.4-0.7,2.9-1.3,5.2c-2-2.7-3.9-2.7-6.1-1.8c-1.4,0.6-3.3,1.1-4-0.7c-0.8-2.1,1.4-2.3,2.6-2.9
			C313.5,428.9,316.3,428.5,319.5,430.5z"/>
		<path d="M329.1,436.6c-3.9,1.9-4.4,1.8-6.4-0.3c-0.9-1-0.8-1.5,1.2-4.9C328.2,430.9,328.2,430.9,329.1,436.6z"/>
		<path d="M319.4,443.8c-2.9,0.3-5.9-1.9-7.9,2c-0.2-0.2-0.4-0.4-0.7-0.6c-0.2-1-0.8-2.3-0.4-2.9c0.7-1.1,1.9-2.1,3.1-2.4
			c1.4-0.4,3-0.1,4.5,0.2C320.2,440.4,320.3,441,319.4,443.8z"/>
		<path d="M363.3,433.1c1.5-0.2,2.5-0.4,3.4-0.4c2.3,0.1,4.5,0.4,6.8,0.7c1.6,0.2,2.4,0.9,2.1,2.8c-0.2,1.7-0.6,3.3-2.5,2.8
			c-2.9-0.7-5.7-1.8-8.5-3C364,435.8,363.8,434.4,363.3,433.1z"/>
		<path d="M374.2,427.2c-0.8,1.3-1.2,2.6-2,2.9c-3.5,1.4-6.9,0.9-9.9-1.3c-0.5-0.4-0.9-1.6-0.7-2.2c0.2-0.5,1.4-1.1,2.1-1
			C366.9,425.9,370.1,426.5,374.2,427.2z"/>
		<path d="M361.1,445.4c0.8,0.2,1.6,0.3,2.3,0.5c4.6,1.4,4.8,1.6,5.6,6.5c-4.3,2.1-5.8-2.2-8.4-3.9
			C359.4,447.8,359.8,446.5,361.1,445.4z"/>
		<path d="M291.6,244.2c-1.9,0.5-3.4,1.3-4.9,1.3c-2.9,0-5.7-0.4-8.6-0.9c-0.7-0.1-1.6-0.9-2-1.6c-0.6-1-0.1-2.3,1.1-2.2
			c4.4,0.5,8.7,1.2,13.1,1.9C290.7,242.7,290.9,243.3,291.6,244.2z"/>
		<path d="M289.4,235c-1.1,1.1-1.6,2.1-2.2,2.2c-3.4,0.2-6.8,1-10-0.7c-0.7-0.4-1.5-1.2-1.5-1.8c0-1.1,1-1.1,2-1.1
			c2.6,0.1,5.3,0,7.9,0.2C286.6,233.9,287.7,234.5,289.4,235z"/>
		<path d="M288.9,254.3c-3.7,1.2-7.2,1.4-10.8,0.3c-0.7-0.2-1.2-1.4-1.7-2.2c0.8-0.4,1.7-1,2.5-1.1c2.1-0.1,4.2,0.1,6.4,0
			C287.1,251.2,288.2,251.9,288.9,254.3z"/>
		<path class="st2" d="M284.1,357.5c-2.1,1.7-4.4,2-6.6,2.2c-2.2,0.2-4.3,0.1-6.5,0.2c-1.7,0.1-2.2-0.8-2.5-2.8
			c1.4-0.3,2.8-0.8,4.2-0.9c2.8-0.3,5.6-0.4,8.3-0.6C282.4,355.5,283.5,355.8,284.1,357.5z"/>
		<path class="st2" d="M285,365c-0.5,0.6-0.9,1.3-1.3,1.4c-3.7,0.7-7.4,1.3-11.1,1.8c-0.5,0.1-1.3-0.3-1.6-0.7
			c-0.7-0.9-0.3-1.9,0.7-2.1c4-0.5,8-0.9,11.9-1.2C283.9,364.2,284.4,364.6,285,365z"/>
		<path class="st2" d="M270.6,374.9c3.3,0.1,6.3,0.1,9.3,0.2c0.6,0,1.3,0.1,1.8,0.5c0.5,0.3,0.9,1,0.9,1.5c-0.1,0.5-0.7,1.2-1.2,1.2
			c-2.6,0.2-5.3,0.4-7.9,0.2C271.3,378.4,270.3,377.1,270.6,374.9z"/>
		<path class="st2" d="M313.3,306.3c1-0.5,2-1.4,3-1.5c3.8-0.5,7.5-0.9,11.3-1.1c0.7-0.1,1.5,0.5,2.3,0.7c-0.5,0.8-0.8,2.2-1.4,2.3
			c-4.2,0.8-8.5,1.3-12.7,1.8c-0.7,0.1-1.5-0.7-2.3-1C313.4,307,313.4,306.7,313.3,306.3z"/>
		<path class="st2" d="M327.1,314c-2.9,0.6-5.5,1.3-8.1,1.6c-1.2,0.1-2.5-0.3-3.6-0.8c-0.9-0.5-0.9-1.9,0-2.1
			c3.4-0.6,6.9-1.6,10.4-0.2C326.3,312.7,326.5,313.2,327.1,314z"/>
		<path class="st2" d="M361.4,305.5c1.2-1.3,2.2-2.5,3.4-3.7c1.6,0.9,3,1.7,2.3,3.6c-0.4,1.1-1.1,2.6-2,2.8
			C363.5,308.7,362.4,307.2,361.4,305.5z"/>
		<path d="M156.1,367.2c-2.9,0.3-5.2,0.5-7.4,0.9c-2.4,0.4-4.5,0-6.5-1.2c-0.1-1.9,0.8-2.3,2.4-2.4c2-0.1,4.1-0.7,6.1-0.6
			c1.6,0.1,3.2,0.7,4.6,1.4C155.8,365.4,155.9,366.5,156.1,367.2z"/>
		<path d="M141,359.2c1.9-3.2,4.9-1.3,7.1-1.8c1.8-0.4,2.1,0.1,3.1,2.6C147.8,361,144.5,362,141,359.2z"/>
		<path d="M142.4,479.1c0.7-1.8,1.8-1.8,3-1.6c2,0.3,4,0.4,5.9,0.9c0.9,0.2,2.1,0.7,2.3,1.4c0.5,1.3-0.8,1.5-1.8,1.9
			C148.1,482.9,145.2,481.5,142.4,479.1z"/>
		<path d="M144.9,485.6c2.8-1.4,7.1-0.9,9.4,1.1C151.3,489.5,148.3,489.3,144.9,485.6z"/>
		<path d="M154.1,496.3c-1.6,0-2.9,0.2-4.1-0.1c-0.6-0.1-1-1.1-1.5-1.7c0.5-0.4,1.1-1.2,1.6-1.2
			C151.9,493.2,153.5,493.6,154.1,496.3z"/>
		<path d="M672.5-135.7c-1.2,8.6,1.8,11.1,9.1,9.8c3.9-0.7,7.8-1.4,11.2-3.3c0.7-2,1.2-4.1,2.1-5.7c2.1-4.1,5.6-7.2,8.9-10.4
			c0.7-3-0.4-5.4-2.7-7.4c-1-0.9-2.1-1.8-3.2-2.8c1.3-2.5,2.4-4.6,3.4-6.8c0.7-1.6,1.4-3.3,1.9-5c1.2-3.7-0.1-6.7-2.6-9.4
			c-1.9-2.1-1.8-2.3,0.5-4c0.1,0,0.1-0.1,0.2-0.1c-3.8,0.5-7.8,0.9-11.5-0.1c-5-1.3-8.8-5.7-6.7-11c2.5-6.3,10.1-6.4,16.9-5.5
			c2.5-4.9,2-8.3-1.8-12.8c-0.1-0.1-0.2-0.2-0.3-0.3c-4.8-5.8-4.9-6-1.4-12.7c1.7-3.3,3.4-6.5,6.4-8.9c1.2-1,2.1-1.6,3.7-1
			c5.4,1.9,10.5,0.7,15.6-1.2c0.8-0.3,1.6-1.1,2.1-1.9c1-1.6,1.7-3.4,2.6-5.1c2.3-4,5.9-4.9,10.1-3c1.8,0.8,3.8,1.5,5.9,2.2
			c0.3-0.2,0.7-0.4,1.1-0.6c3.2-1.2,6.3-2.3,9.2-3.5c0.5-0.6,1-1.2,1.5-1.7c4.4-4.9,6.7-16.2,0.5-21.7c-1.3-1.2-1.9-2.8-1.8-4.8
			c0.1-2.4-0.2-4.8-0.6-7.2c-0.8-5.3-3.4-9.2-8.6-11.2c-1.3-0.5-2.8-1.6-3.4-2.8c-2-3.9-4.8-6.8-8.5-9.1c-7.5-4.7-16.4-6.5-23.6,0.3
			c-1.3,1.2-2.7,1.5-4.5,1.3c-4.9-0.5-9.8-0.5-14.1,2.1c-2.9,1.8-5.8,3.8-8.5,5.9c-5.5,4.4-9,10.3-12.3,16.4c-1.1,2-2.5,3.2-4.9,3.7
			c-7.7,1.5-13.3,6.2-17.1,12.9c-3.1,5.5-4.4,11.7-4,18.1c0.2,2.6-0.6,4.7-2.7,6.4c-0.6,0.5-1.1,1.1-1.6,1.6
			c-6,5.3-7.2,12.1-5.9,19.5c1.5,8.4,5.4,15.7,10.7,22.2c2.3,2.8,2.8,5,0.7,8.4c-2.7,4.4-3,9.1,0.1,14c2.6,4.2,5.8,7.4,9.9,9.9
			c2.4,1.5,4.8,2.8,6.1,5.4c-0.6,1.4-1.3,2.7-1.7,4c-1.4,4.1-0.6,6.7,2.9,9.3c1.7,1.3,3.7,2.2,5.5,3.3c1.7,1,3.5,2,5.1,2.9
			C672.5-136.5,672.5-136.1,672.5-135.7z"/>
		<path d="M624.2-275.9c0.4-3.5,1.2-6.6,1.2-9.7c-0.1-13.8,0.2-27.5-1.1-41.2c-0.6-6.1-1.1-12.2-2-18.2c-0.7-4.7-1.3-5.1-5.9-5.3
			c-4-0.2-8.1-0.1-12.1,0.4c-10.2,1.2-20.4,2.7-30.7,4c-3.2,0.4-6.5,0.7-9.8,1c-0.2,1.5-0.7,2.9-0.6,4.3c0.5,8.4-0.1,16.7,0.9,25.1
			c1.3,10.9,2,21.8-0.2,32.7c-0.5,2.3-0.9,4.7,0.1,7.2c10-0.3,19.9-0.9,29.8-0.9C603.8-276.6,613.8-276.1,624.2-275.9z"/>
		<path class="st2" d="M622.5-95.1c-3.1,1.5-4.8,0.2-6.4-1.1c-7.6-6.3-15.7-12.1-21.6-20.3c-1.6-2.3-3.6-4.3-5.4-6.4
			c-0.8-1-1.2-2-0.2-3c1.1-1.1,2.3-0.9,3.3,0.2c2.7,3,5.2,6.2,8.1,9.1c3.4,3.6,6.9,7,10.6,10.4c2.8,2.6,5.9,4.8,8.8,7.3
			C620.7-97.9,621.4-96.6,622.5-95.1z"/>
		<path class="st2" d="M587.3-95.4c1-3.1,1.6-3.5,3.8-2c2.3,1.6,4.2,3.7,6.4,5.4c4.1,3,8.2,5.9,12.4,8.7c1.3,0.9,2.6,1.5,2.2,3.6
			c-1.7,1.1-3.3,0.9-4.9-0.2c-3.6-2.4-7.2-4.7-10.6-7.3C593.4-89.7,590.5-92.6,587.3-95.4z"/>
		<g>
			<path class="st2" d="M991.7-70.3c1.2-0.3,2.4-0.8,3.5-1.5c3.1-2,6-4.3,9.1-6.3c5.7-3.9,11.6-7.3,18.3-9.4c3.2-1,6.3-2,9.3-3.5
				c-0.2-1.4-0.3-2.8-0.4-4.2c-1,0.5-2.1,0.9-3.1,1.3c-7.5,2.8-15.2,5.1-22.1,9.3c-5.4,3.3-10.6,7-15.8,10.5
				c-0.2,0.1-0.5,0.3-0.6,0.5c-0.2,0.9-0.6,1.9-0.4,2.8C989.5-70.4,991-70.1,991.7-70.3z"/>
			<path class="st2" d="M973.9-83.8c-0.6-2,0.2-3.2,1.8-4.2c5-3.3,9.9-6.8,15-9.9c5.8-3.4,11.5-6.9,16.8-11.2
				c3.6-2.8,7.6-5.1,11.4-7.6c1-0.7,2.3-1.1,3.1,0.1c0.5,0.8,0.6,2.2,0.4,3.2c-0.2,1.2-1.1,1.8-2.5,1.8c-1,0-2.4,0.2-3.1,0.9
				c-8.8,7.5-18.4,14-28.6,19.6c-3.5,1.9-6.6,4.3-9.8,6.7C977-83.4,975.6-82.9,973.9-83.8z"/>
			<path class="st2" d="M961.2-86.5c-2.6,0-3.5-1.8-2.2-3.6c1.7-2.3,3.6-4.6,5.7-6.7c3.9-3.9,8-7.4,11.8-11.3
				c2.6-2.7,4.9-5.8,7.4-8.6c1.2-1.4,2.6-2.8,4.1-3.8c0.5-0.4,1.9,0,2.6,0.5c1,0.7,0.7,1.8-0.1,2.7c-5.1,5.8-9.6,12.1-15.8,17
				c-4,3.2-7.9,6.8-10.8,11.2C963.1-88,961.9-87.2,961.2-86.5z"/>
			<path class="st2" d="M998.9-51.9c-0.7-0.6-1.7-1-1.8-1.6c-0.1-0.7,0.4-1.9,1-2.2c7.2-3.2,13.5-8.1,21.4-9.7
				c0.6-0.1,1.3-0.5,1.8-0.3c0.8,0.2,1.5,0.7,2.2,1.1c-0.4,0.7-0.8,1.5-1.4,2c-0.6,0.5-1.4,0.7-2.1,0.9c-5.4,1.2-9.9,4.4-14.7,7
				C1003.4-53.7,1001.2-52.9,998.9-51.9z"/>
			<path class="st2" d="M952.8-124c-0.5,1.6-0.6,2.7-1.1,3.6c-3.5,7.1-5.8,14.6-7.6,22.3c-0.1,0.6,0,1.4-0.4,1.8
				c-0.6,0.7-1.6,1.5-2.3,1.5c-1.3-0.1-1.2-1.4-1-2.4c0.6-2.7,1.1-5.5,2-8.1c1.7-5.2,3.7-10.2,5.6-15.3
				C948.7-122.5,949.9-123.7,952.8-124z"/>
			<path class="st2" d="M923.5-91.7c-2.3,1-3.4,0.2-3.8-1.3c-0.5-2.1-1.1-4.3-0.7-6.3c0.8-4.6,2.1-9.2,3.2-13.7
				c0.1-0.5,0.3-1,0.5-1.4c0.6-1,1.3-2.2,2.6-1.5c0.6,0.3,0.8,1.8,0.6,2.6c-0.4,1.8-1.4,3.6-1.8,5.4
				C922.8-102.7,921.3-97.4,923.5-91.7z"/>
		</g>
		<path class="st2" d="M592.9-68.4c1.7,0.5,3.5,1.2,5.3,1.6c1.8,0.4,3.8,0.3,5.6,0.7c1.7,0.3,3.8-0.7,5.4,1.2c-1.7,2-3.9,1.9-6,2.3
			c-3.2,0.6-6.3,0-9.3-1.2C591.6-64.9,591.6-65.3,592.9-68.4z"/>
		<path d="M947.3-20.3c-0.1-3.7,1.4-6.7,3.9-9.2c0.7-0.6,1.8-1.1,2.7-1.1c6.1,0,9.7,6.4,6.7,11.7c-1.2,2-2.6,3.9-4.8,4.7
			C950.9-12.3,947.3-14.9,947.3-20.3z"/>
		<path d="M937.4-21.5c-0.4,1.6-0.7,3.3-1.4,4.7c-1.6,3.4-6.1,3.7-8,0.5c-0.9-1.5-1.1-3.5-1.4-5.4c-0.2-0.8,0.2-1.8,0.1-2.6
			c-0.1-2.7,0.4-3.5,2.8-4.1C933.6-29.3,937.5-27.4,937.4-21.5z M931.5-18.9c0.4,0,0.8,0,1.2,0.1c0.2-1.3,0.6-2.5,0.6-3.8
			c0-0.4-1-0.8-1.5-1.3c-0.3,0.5-1,0.9-0.9,1.4C930.9-21.3,931.3-20.1,931.5-18.9z"/>
		<path d="M679.8-260.2c-0.2-5.3,4.5-9,9.7-7.9c3.9,0.8,3.9,0.8,6.1-2.5c2.6-3.8,5.9-6.5,10.6-7.4c3.6-0.7,6.7,1.1,10.1,1.6
			c0.3,0,0.7,1.7,0.4,2.2c-0.9,1.4-2.3,1.8-4,1.4c-1.5-0.4-3-0.7-4.5-0.7c-4.3,0.1-7.7,1.9-9.7,5.7c-1.9,3.8-4.9,5.1-8.8,4.1
			c-3.4-0.9-4.7-0.9-6.2,4c-0.1,0.5,0,1.1-0.3,1.5c-0.4,0.5-1,1.3-1.6,1.3c-0.5,0-1.1-0.8-1.4-1.4C680-259,680-259.7,679.8-260.2z"
			/>
		<path d="M697.3-254.1c0.2-0.9,0.1-1.9,0.6-2.6c1.7-2.2,3.4-4.4,5.3-6.4c1.3-1.4,3-1.7,4.9-1.2c0.9,0.2,1.7,0.3,2.6,0.5
			c4.1,0.7,7.4-0.4,9.9-4c2.2-3.2,5.5-4.3,9.3-4.2c2.2,0,4.5-0.5,6.8-0.7c0.7-0.1,1.9,0.1,2,0.4c0.3,0.7,0.3,1.9-0.1,2.4
			c-0.9,1-2.1,1.8-3.3,2.3c-0.9,0.4-2,0.3-3,0.2c-4.1-0.4-7.4,0.7-10.2,3.9c-3.2,3.6-7.6,4.5-12.2,3.3c-3.2-0.8-5.3-0.2-7.2,2.6
			c-1.1,1.6-2.7,2.8-4.1,4.2C698.1-253.7,697.7-253.9,697.3-254.1z"/>
		<path d="M683.9-248.1c0.4,1.4,0.7,2.8,1.1,4.5c-2.7,0.4-3.9,1.8-4.6,4.1c-1.7,5.4-4.2,6.5-10,5c-1.2-0.3-2.4-0.7-3.8-1.1
			c-1.6,2.6-3.1,5.1-4.7,7.5c-0.8,1.2-1.9,2.4-3.2,3.1c-1.1,0.7-2.6,0.4-3.3-1c-0.7-1.5,0.1-2.1,1.5-2.8c1.3-0.7,2.3-1.9,3.2-3.1
			c1.3-1.9,2.3-3.9,3.5-5.9c1.4-2.3,2.2-2.6,4.7-1.7c1.3,0.4,2.6,1.1,3.9,1.5c2.6,0.8,3.4,0.6,4.7-1.7c0.7-1.2,1.1-2.5,1.7-3.8
			C679.7-245.6,680.4-248.2,683.9-248.1z"/>
		<path d="M662.8-206.3c-1.9-3.5-2-4.7,0.3-7c3.3-3.2,6.8-6.1,11.6-6.8c1.3-0.2,2.5-1.1,3.6-1.9c1-0.7,1.8-1.7,2.6-2.5
			c2.1,1.3,1.4,2.9,0.6,3.8c-1.3,1.5-2.9,3.2-4.7,3.6c-6,1.4-10.3,4.7-13.1,10.1C663.5-206.7,663.3-206.6,662.8-206.3z"/>
		<path d="M674.9-194.2c-4.2,0.2-5.8,3.8-8.3,6.2c-1.1,1-1.7,2.5-2.7,3.7c-0.6,0.7-1.4,1.2-2.3,1.9c-1.2-2.6-0.7-4.6,0.6-6.2
			c1.9-2.4,4-4.6,6.2-6.7c1.4-1.3,3.2-2.2,5.2-1.6C674.6-196.5,675.4-195.9,674.9-194.2z"/>
		<path d="M681.9-171.5c0.2,0.1,1.1,0.4,1.3,0.9c0.1,0.6-0.4,1.8-0.7,1.9c-3.9,0.7-6.8,3.3-10.3,4.7c-0.4,0.2-1.5-0.2-1.6-0.5
			c-0.2-0.6-0.1-1.7,0.3-2C674.1-168.8,677.2-171.3,681.9-171.5z"/>
		<path d="M687.2-149.4c-0.8,2.7-2.8,3.6-4.7,4.4c-0.3,0.1-1-0.1-1.3-0.4c-0.3-0.3-0.4-1-0.2-1.4C681.5-148,685-149.6,687.2-149.4z"
			/>
		<path d="M754.3-188.4c-0.4-1.7-0.6-2.8-0.9-4c-0.3-1.1-0.7-2.2-0.7-3.3c0-0.7,0.7-1.8,1.2-2c0.6-0.2,1.9,0.5,2,1
			c0.7,2.8,1.7,5.7,1.6,8.5c-0.1,4.2-3.5,5.8-6.9,3.4c-3-2.1-5.5-4.9-6.7-8.5c-0.4-1.3-0.9-2.7-1-4c0-0.9,0.6-1.8,0.9-2.7
			c0.9,0.5,2.1,0.8,2.7,1.5c0.6,0.7,0.7,1.9,1.2,2.7c1.4,2.3,2.8,4.5,4.4,6.6C752.5-188.8,753.1-188.8,754.3-188.4z"/>
		<path d="M733.9-161.3c-1.6-1.5-1.8-2.8-0.9-4.1c1.9-2.6,3.7-5.5,6.1-7.8c3.4-3.4,8-2.6,12.3-2.3c1.6,0.1,2.3,1.6,2.1,3.1
			c-0.2,1.6-1.1,2.5-2.9,2.2c-6-0.9-10.6,1.1-13.8,6.4C736.3-162.6,734.9-162.1,733.9-161.3z"/>
		<path d="M-81.6-154.8c-1.6-1.5-1.8-2.8-0.9-4.1c1.9-2.6,3.7-5.5,6.1-7.8c3.4-3.4,8-2.6,12.3-2.3c1.6,0.1,2.3,1.6,2.1,3.1
			c-0.2,1.6-1.1,2.5-2.9,2.2c-6-0.9-10.6,1.1-13.8,6.4C-79.2-156.2-80.6-155.6-81.6-154.8z"/>
		<path d="M724-220c0.1-3.1-0.3-5.3,2.2-6.6c2.4-1.3,4.3-0.7,5,1.9c0.8,3.1,0.9,6.3-0.9,9.2c-0.7,1.1-1.7,2.2-3.1,1.6
			c-0.9-0.4-1.9-1.3-2.3-2.2C724.3-217.6,724.2-219.3,724-220z"/>
		<path d="M755.2-221.5c0,0.5,0.1,1,0,1.5c-0.3,1.5-2.1,3-3.5,3c-1.9,0.1-2.5-1.4-2.6-2.7c-0.1-2,0-4,0.6-5.9
			c0.2-0.7,1.8-1.3,2.8-1.3c0.7,0,1.8,0.9,2.1,1.7c0.5,1.1,0.5,2.4,0.8,3.7C755.3-221.6,755.3-221.6,755.2-221.5z"/>
		<path d="M849-156.5c-0.8-1.7-0.2-2.8,1.1-3.4c4.8-2.3,9.6-4.6,14.4-6.9c0.3-0.1,0.7,0.1,1,0.2C864.1-162.8,854.4-156.9,849-156.5z
			"/>
		<path class="st2" d="M576.2-325.1c1.7-3.1,3.1-5.9,4.7-8.6c0.7-1.2,1.6-2.3,2.5-3.4c0.8-0.9,1.8-1,2.7-0.1c1,0.9,1.9,2.3,0.7,3.3
			c-3.5,3.3-4.5,7.8-6.2,12c-0.7,1.5-1.1,3.1-1.8,4.6c-0.4,0.8-1.2,2-1.9,2c-1,0-2.5-0.6-2.8-1.4c-1.4-3.2-2.7-6.6-3.7-10
			c-0.6-2,0.3-3.4,1.8-3.6c1.9-0.3,2.8,0.8,3.3,2.5C575.6-327.1,575.8-326.3,576.2-325.1z"/>
		<path class="st2" d="M577.6-303.8c0.5,1.9,1,3.6,1.5,5.6c2.3-1.5,3.4-4,5-6c0.9-1.2,1.7-2.5,2.8-3.6c1.3-1.4,2.7-1.4,3.6-0.2
			c1.3,1.7,1.1,2.7-0.3,4.2c-1.9,2.1-3.7,4.4-5.3,6.8c-1.4,2.1-2.7,4.3-3.9,6.5c-0.7,1.2-1.5,2-3,1.8c-1.6-0.2-1.9-1.4-2.2-2.7
			c-0.4-2.6-1-5.2-1.3-7.9C574.1-301.8,574.9-302.9,577.6-303.8z"/>
		<path class="st2" d="M608.5-290.9c3.1,0.1,4.5,1.1,4.5,3.4c0,3.7-1.9,6.7-4.3,6.7c-2.7,0-4-1.8-3.9-5.7
			C604.8-289.1,606.4-291,608.5-290.9z"/>
		<path class="st2" d="M602.4-337c3.3-0.5,5.8,0.4,7,2.8c0.7,1.3,0.2,3.4-0.2,5c-0.4,1.7-2,2.1-3.7,2c-1.7-0.2-3-1-3.1-2.7
			C602.2-332.3,602.4-334.5,602.4-337z"/>
		<path class="st2" d="M609.7-312.9c2.1,2.6,2.5,5.9,1,8.1c-1,1.4-2.9,2.1-4.3,1.5c-1.6-0.6-1.8-2-1.7-3.4
			C604.7-310.5,605.8-311.9,609.7-312.9z"/>
		<path d="M954.9,17.1c-0.1,1.2-0.1,1.8-0.3,2.4c-0.6,2.2-2.9,4.1-4.9,4.1c-1.9,0-3.8-1.5-4.5-4c-0.4-1.6-0.4-3.3-0.3-4.9
			c0.2-2.9,1.2-4,3.7-4.3c2.5-0.4,4.2,0.4,5.2,2.8C954.4,14.6,954.6,16.1,954.9,17.1z"/>
		<path d="M954.7,149.4c-0.3,2.9-0.7,5.4-3.3,6.8c-1.5,0.8-2.7,0.9-3.5-0.8c-0.6-1.1-1.5-2.3-1.5-3.4c0-3.7,0.2-7.4,0.7-11
			c0.4-2.6,1.9-2.8,4-1C954.1,142.6,954,146.3,954.7,149.4z"/>
		<path d="M940.9,79c0-3,0.9-4.1,3.1-4.1c4,0,6.1,1.8,6,5.1c-0.1,2.7-2.2,4.7-4.9,4.6C942.3,84.5,940.8,82.4,940.9,79z"/>
		<path class="st3" d="M112,517.7l-50.6-6.3c-0.6,1.9-1.2,3.9-1.7,6.1C77,516.8,94.7,517.4,112,517.7z"/>
		<path class="st3" d="M119.6,526.4c-20.3-0.6-41.4-1.3-61.8-0.3c-0.6,3.1-1.1,6.4-1.6,9.9c18.2,4.8,37.8,5.2,56.3,8.3
			c5.2,0.9,10.4,1.7,15.5,2.6c-2.6-9.2-5-15.8-6.9-20.5C120.6,526.5,120.1,526.4,119.6,526.4z"/>
		<path class="st3" d="M110.4,578.2c8.2,0.9,16.5,1.9,24.9,2.4c-1-5.8-2-11.2-3-16.1c-7.4,0-14.7-0.3-22-1.2
			c-18.6-2.2-37.7-8.3-56.5-5.2c-0.6,6.5-1,13.3-1.4,20.1C71.8,574.8,90.7,576.1,110.4,578.2z"/>
		<path class="st3" d="M52.9,601.9c21.6-0.1,43.2-2.2,64.7-1c7,0.4,13.9,0.9,20.7,1.4c-0.5-4.5-1.1-8.8-1.7-12.9
			c-6.6-0.4-13.1-1.1-19.5-1.8c-22-2.5-43.4-4.8-65.2-0.5c-0.2,5.1-0.4,10.1-0.5,15.1C51.9,602,52.3,601.9,52.9,601.9z"/>
		<path class="st3" d="M116.7,629.3c8-0.2,16-1.3,24-1.8c-0.4-5.8-0.9-11.4-1.4-16.6c-5.9-0.3-11.7-0.8-17.7-1.2
			c-22.9-1.7-45.9,0.7-68.8,0.8c-0.6,0-1.1-0.1-1.6-0.3c-0.1,6.2-0.2,12.3-0.2,18.2C72.9,628.5,94.8,629.9,116.7,629.3z"/>
		<path class="st3" d="M141.9,647.8c-0.2-4-0.4-7.9-0.6-11.7c-6.9,0.5-13.7,1.3-20.6,1.6c-23.2,1-46.5-0.7-69.7-0.8
			c0,5.5,0.1,10.7,0.2,15.5C81.5,652.2,111.8,650.7,141.9,647.8z"/>
		<path class="st3" d="M85.8,680.1c50.9-1.6,56.8-1.7,56.8-1.7c0-7.7-0.2-15.1-0.4-22.1c-30.2,2.9-60.5,4.4-90.9,4.6
			c0.1,5,0.3,9.3,0.5,12.6C63,675.9,74.4,678.2,85.8,680.1z"/>
		<path class="st3" d="M104.9,554.1c8.4,1.3,17,1.8,25.5,1.9c0,0,0,0,0,0c-6.7-1.1-13.4-2.3-20.1-3.4c-18-3.1-37.2-3.5-55.1-8
			c-0.2,1.6-0.4,3.3-0.5,5C71.5,547.5,88.2,551.6,104.9,554.1z"/>
		<path d="M10.5,397l44.5,1.2c1.2,108.9-15.2,142.9,75,138.2c-19.9-175.7-36.3-189.7-82-188.6C2.3,349,3.5,413.4,3.5,413.4L10.5,397
			z"/>
		<path class="st2" d="M64.9,309.1v-9.6c-1.4,0.2-2.7,0.4-4.1,0.6c-3.7,0.5-6.9-0.8-9.6-2.9c-1.2-1-2-2.9-2.3-4.6
			c-0.5-2.2-0.3-4.5-0.4-6.8c-0.1-1.2-0.2-2.4-0.4-4.1c-1.5,0.4-2.6,0.5-3.6,1c-3.5,1.8-7.2,1.7-10.9,1.5c-3.3-0.2-5.4-2.1-6.1-5.4
			c-0.5-2.5-0.6-5-0.8-7.6c-0.3-4.6,1.1-8.4,5.4-11c2.4-1.4,4.8-3.1,4.2-6.9c-0.9,0-1.8-0.1-2.6,0c-3.8,0.3-6.6-1.4-8.6-4.5
			c-2.1-3.2-2-5.5,0.7-8.2c2.8-2.6,5.8-5,8.8-7.3c1.1-0.9,2-1.7,2.4-3.2h-6.5c0.3,0.2,0.5,0.5,0.7,0.7c-1,0.7-1.9,1.2-2.6,1.9
			c-2.5,2.2-5,4.3-7.3,6.7c-2,2.1-2.9,4.8-2.1,7.8c1,3.5,2.8,6.5,5.9,8.6c0.9,0.6,1.8,1.2,3.2,2.1c-0.8,0.7-1.4,1.2-2,1.6
			c-3,2.3-4.2,5.4-4.2,9c0,3.4,0.1,6.9,0.6,10.3c0.8,7,5.6,10.9,12.6,10.5c2.9-0.2,5.8-0.7,8.7-1c0.2,2,0.4,4.1,0.7,6.3
			c0.5,4,2.5,6.8,6.3,8.3c2.8,1.1,5.5,1.9,8.5,1.7c1.7-0.1,3.5,0,5.3,0c0,1.3,0,2.2,0,3.1C64.8,308.2,64.9,308.7,64.9,309.1z"/>
		<rect x="-95.9" y="383.7" class="st2" width="19.8" height="214.2"/>
		<path class="st7" d="M73.6,453.3c-0.2,5.6-0.3,11.1-0.5,16.6c-0.1,3.4-0.3,6.8-0.3,10.2c0,2.3-0.2,4.5-2.5,6.2
			c-0.4-0.8-1-1.5-1-2.1c-0.1-5.2-0.7-10.3,0.3-15.5c0.7-3.4,0.3-7.1,0.4-10.6c0-1.1,0.2-2.3,0.4-3.4
			C70.8,453.3,71.8,453.1,73.6,453.3z"/>
		<path class="st7" d="M86,449.2c-0.2,5.6-0.3,11.1-0.5,16.6c-0.1,3.4-0.3,6.8-0.3,10.2c0,2.3-0.2,4.5-2.5,6.2c-0.4-0.8-1-1.5-1-2.1
			c-0.1-5.2-0.7-10.3,0.3-15.5c0.7-3.4,0.3-7.1,0.4-10.6c0-1.1,0.2-2.3,0.4-3.4C83.2,449.1,84.2,449,86,449.2z"/>
		<path class="st7" d="M106.2,448.7c-0.2,5.6-0.3,11.1-0.5,16.6c-0.1,3.4-0.3,6.8-0.3,10.2c0,2.3-0.2,4.5-2.5,6.2
			c-0.4-0.8-1-1.5-1-2.1c-0.1-5.2-0.7-10.3,0.3-15.5c0.7-3.4,0.3-7.1,0.4-10.6c0-1.1,0.2-2.3,0.4-3.4
			C103.4,448.6,104.4,448.5,106.2,448.7z"/>
		<path class="st7" d="M109.5,495.3c-0.6,4.8-1.1,9.6-1.7,14.3c-0.2,1.2-0.6,2.6-1.3,3.5c-0.6,0.7-1.9,0.8-2.8,1.2
			c-0.3-0.9-0.9-1.9-0.7-2.7c0.5-2.8,1.5-5.6,1.9-8.5c0.5-3.6,0.6-7.3,0.8-11c0.1-1.2,0-2.5,1.5-2.6c1.7-0.1,2,1.3,2.1,2.6
			c0.1,1,0,2,0,3C109.4,495.3,109.4,495.3,109.5,495.3z"/>
		<path class="st7" d="M90,522.4c-1.1-1.9-0.8-3.8-0.4-5.6c0.6-2.3,1.6-4.6,2.1-6.9c0.7-3.6,1.1-7.3,1.8-10.9
			c0.2-1.2-0.1-3.3,1.9-3.2c2.2,0.1,1.7,2.1,1.6,3.6c-0.4,7.1-2.1,13.8-4.8,20.3c-0.3,0.7-0.8,1.3-1.2,1.9
			C90.8,522,90.5,522.1,90,522.4z"/>
		<path class="st7" d="M123,512.3c-1.4,0-2.2,0-3,0c-2.2-5.1-0.8-10.4-1.7-15.6c1.7-0.9,2.8-0.6,3.3,1.1c0.2,0.5,0.2,1,0.2,1.5
			C122.2,503.5,122.6,507.7,123,512.3z"/>
		<path class="st7" d="M78.6,409.9c-1.4,0-2.2,0-3,0c-2.2-5.1-0.8-10.4-1.7-15.6c1.7-0.9,2.8-0.6,3.3,1.1c0.2,0.5,0.2,1,0.2,1.5
			C77.8,401.1,78.1,405.2,78.6,409.9z"/>
		<path class="st7" d="M89.9,405.2c-1.4,0-2.2,0-3,0c-2.2-5.1-0.8-10.4-1.7-15.6c1.7-0.9,2.8-0.6,3.3,1.1c0.2,0.5,0.2,1,0.2,1.5
			C89.1,396.4,89.5,400.6,89.9,405.2z"/>
		<rect x="-78.8" y="214" width="9.3" height="63.1"/>
		<path class="st4" d="M256.2,512.2"/>
		<path class="st4" d="M82.1,589.9c-27.9,30.7-83.7,43.7-90.2,44.5c-13.7,7.5-18.4,18.9-16.3,20.4c2.1,1.6,5.3-6.4,11.2-9.2
			c20.4-3.8,29.7-7.5,29.7-7.5c56.4-2.4,78.6-31.4,84.3-42.3c5.7-10.9,5.7-15,5.7-15l-22.2-0.5L82.1,589.9z"/>
		<polygon points="-157.1,322.2 11.5,322.2 -74.1,270.8 		"/>
		<rect x="878" y="840.2" width="9.3" height="63.1"/>
		<polygon points="799.7,948.5 968.4,948.5 882.7,897.1 		"/>
		<path class="st2" d="M-91.7,493.3c-68.8,118.5-61,144.3-36.7,144.9c1,0,34.1,0,34.1,0v-10.9h-29.8c-20.9-0.5-9-32.1-2.8-42.4
			c6.2-10.3,38.8-78.1,38.8-78.1L-91.7,493.3z"/>
		<rect x="-207.1" y="636.1" width="151.1" height="162.4"/>
		<rect x="-51.9" y="669" width="76.8" height="19.4"/>
		<rect x="-48" y="658.4" class="st2" width="62.9" height="10.6"/>
		<path class="st5" d="M-116.8,703.8c1,0.6,1.7,2.2,2,3.4c0.9,3,2.7,5,5.6,5.9c2.9,0.8,5.5,1.7,5.3,5.4c-0.2,3.7-0.5,7.4-4.8,8.9
			c-0.4,0.1-0.8,0.2-1.6,0.4c-0.8-5.5-1.1-10.7-4.7-15c-4-4.7-9.2-2.2-14-2.4C-127.6,702.1-123.3,699.9-116.8,703.8z"/>
		<path class="st5" d="M-182.6,722.9c3.9-1.3,7.1,0.5,9.6,2.6c4.2,3.5,7,1.7,7.4-3.6c0.1-1.4,0.4-2.8,0.6-4.2
			c0.2-1.4,0.3-2.8,0.5-5.3c1.9,1.4,3.4,2.2,4.5,3.4c1.5,1.6,2.8,3.4,4.1,5.2c1.5,2,2.4,5.3,5.6,4.6c3.4-0.8,2.2-4.3,2.8-6.6
			c1.2-4.6,0.6-9.7,5.8-14.1c2.9,4.3,5.8,8.1,8.1,12.2c2,3.4,2.5,3.9,5.9,2.9c0.6-0.2,1.1-0.6,1.6-0.7c6.4-2,10.2,1.3,9,8
			c-0.3,1.6-0.9,3-1.5,5c-21.1,0.4-42.2,0.8-63.3,1.2C-184,729.8-183.6,726.4-182.6,722.9z"/>
		<polygon class="st2" points="-117.1,808.7 -176.1,808.7 -197.3,731.8 -95.8,731.8 		"/>
		<path class="st3" d="M-168,490.4c-0.6-4.6-0.8-9.4,2-14.1c0.8,0.8,1.7,1.3,2,2.1c0.6,1.5,0.8,3.2,1.1,4.8c0.5,3,0.6,3,4.1,3
			c0.5-1.9,1-3.9,1.6-5.8c0.4-1.2,1.1-2.1,2.5-1.9c1.5,0.2,1.8,1.4,1.7,2.6c-0.1,1.8-0.3,3.5-0.6,5.3c-0.2,1.4-0.1,2.6,1.3,3.2
			c1.5,0.7,2.4,0,3.2-1.3c0.3-0.5,0.9-0.8,1.6-1.5c0.4,1.1,0.8,1.9,0.8,2.7c-0.2,4.3-1,8.4-4.9,10.9c-0.8,0.6-2.3,0.9-3.1,0.6
			c-2.6-1-5-2.3-7.5-3.5c-0.3-0.2-0.5-0.7-0.8-0.8C-167.3,496.7-167.7,493.2-168,490.4z"/>
		<path class="st3" d="M-181.1,503.9c-4-0.3-5.9-3.1-8-5.8c-4.6-5.9-9.1-11.9-13.6-17.9c-0.8-1.1-1.2-2.5-1.5-3.8
			c-0.6-2.8,1-4.6,3.9-4.7c2.8-0.2,4.9,1.2,6.9,2.8c1,0.8,1.9,1.6,3.2,2.7c0.8-2,1.3-3.2,1.8-4.5c-0.5-1.4-1.1-2.9-1.6-4.3
			c-0.7-2,0.5-3.5,1.6-4.8c0.3-0.4,1.9-0.4,2.3,0c2.1,2.2,4.9,4,4.1,7.9c-0.4,2.2-0.5,5,2.4,6.3c2.7-1.1,2.9-3.6,3.5-5.9
			c0.5-1.9,1-3.9,1.8-5.8c0.5-1.1,1.5-1.9,3.4-3.1c0.1,0.6,0.1,1.2,0.3,1.8c1.4,6.6,2.1,13.3,0.7,20.1c-0.9,4.2-1.8,8.4-2.7,12.7
			c-0.6,2.9-2.6,4.6-4.9,6C-178.7,504.3-179.8,504-181.1,503.9z"/>
		<path class="st3" d="M-145,506.3c11.4-2.6,11.9-18.6,10.9-21.2s-6.7-0.5-7.2,3.1c-1.6-2.1-3.1,0.5-4.4,6.2
			C-147.1,500.1-145,506.3-145,506.3z"/>
		<path class="st3" d="M17.4,462.3c7.5-5.4,16.3-0.5,16.3-0.5c-4.1,13.5-12.2,10.6-14.2,7.5c-2.1-3.1,1.3-3.9,4.1-4.1
			c5.2-0.5,6.7-2.1,6.7-2.1C20.8,463.3,17.4,462.3,17.4,462.3z"/>
		<rect x="-317.3" y="830.1" class="st2" width="1606.4" height="15.8"/>
		<rect x="300.9" y="631" class="st2" width="310.4" height="16.6"/>
		
			<rect x="212.9" y="717.9" transform="matrix(6.123234e-17 -1 1 6.123234e-17 -417.9818 1029.967)" class="st2" width="186.1" height="12.2"/>
		
			<rect x="511.9" y="717.9" transform="matrix(6.123234e-17 -1 1 6.123234e-17 -118.9573 1328.9916)" class="st2" width="186.1" height="12.2"/>
		<path class="st2" d="M484.6,312.5"/>
		<path class="st2" d="M398.3,358.7c-27.3,6.9-26.5,13.5-23,14.6c5,1.2,20.6,4.7,20.6,4.7L398.3,358.7z"/>
		<path d="M463.8,372.1c0.4,0.1,0.9,0.2,1.3,0.3c0.8-0.7,1.7-1.3,2.3-2.1c1.8-2.5,3.6-5.1,5.3-7.7c2.5-3.9,5.7-7.1,9.7-9.4
			c7.4-4.3,16.2-1.2,18.4,8.5c1.8,8.1,0.7,15.9-5.3,22.3c-0.7,0.8-1.6,1.7-1.7,2.6c-0.2,3.3-0.5,6.6-0.1,9.8c1.1,7.7,1.8,15.6,7,22
			c0.5,0.6,0.6,1.4,0.9,2.2c2.6,6.6,8.9,9.4,15.5,8c1.1-0.2,2.4-1,3-1.9c4.2-6.9,9.2-13.4,11.6-21.3c2.5-8.4,5.5-16.8,5.2-25.6
			c-0.4-10.5-2.6-20.8-6.1-30.7c-2.8-7.9-8.4-14.2-12.9-21.1c-4.2-6.6-9.8-11.7-15.8-16.5c-2.3-1.8-4.7-3.6-6.9-5.7
			c-2.3-2.3-5-3.6-8.1-4.2c-2.2,1.9-4.3,3.8-6.4,5.6c-10.7,8.9-19.5,19.4-24,32.8c-0.9,2.7-1.3,5.6-1.9,8.4c0.3,0.2,0.6,0.4,0.9,0.7
			c1.6-0.9,3.2-1.7,4.7-2.7c0.8-0.5,1.3-1.4,2.1-1.8c1.2-0.6,2.5-0.8,3.7-1.2c0.3,1.3,0.8,2.5,0.9,3.8c0,1.2-0.6,2.4-0.8,3.6
			c-0.9,4.3-1.9,8.5-2.4,12.9C463.3,366.6,463.7,369.3,463.8,372.1z"/>
		<path class="st2" d="M478.5,539.6c-17.5-1.8-17.5-0.5-17.5-0.5l-0.1,6.6c-21.6,0.3-32.2,8.5-16.3,11.1c15.9,2.7,18.5-0.9,18.5-0.9
			c-23.9,4.1-30.4,10.3-17.3,11.3s17.9-1.3,17.9-1.3c-22.9,10.7-17.9,13.7-5.4,12.2s22.7-13.7,22.7-13.7L478.5,539.6z"/>
		<path class="st2" d="M463.6,546.1c-8.3-3.1-14.7-8.5-4.7-7.5c10.1,1,10.1,1,10.1,1L463.6,546.1z"/>
		<path class="st2" d="M404.2,599.4h-39c-5.8,0-10.5-4.7-10.5-10.5V553c0-5.8,4.7-10.5,10.5-10.5h39c5.8,0,10.5,4.7,10.5,10.5v35.8
			C414.7,594.7,410,599.4,404.2,599.4z"/>
		<path d="M357.6,577.8v10c0,5.3,4.3,9.5,9.5,9.5h35.2c5.3,0,9.5-4.3,9.5-9.5v-10H357.6z"/>
		<path class="st2" d="M391.1,633.8h-91.7V482.4h91.7c8.8,0,15.9,7.2,15.9,15.9v16.8c0,8.8-7.1,15.9-15.9,15.9H358
			c-7.6,0-13.8,6.2-13.8,13.8v43.2c0,7.6,6.2,13.8,13.8,13.8h33.1c8.8,0,15.9,7.1,15.9,15.9S399.9,633.8,391.1,633.8z M301.5,631.7
			h89.6c7.6,0,13.8-6.2,13.8-13.8c0-7.6-6.2-13.8-13.8-13.8H358c-8.8,0-15.9-7.1-15.9-15.9v-43.2c0-8.8,7.1-15.9,15.9-15.9h33.1
			c7.6,0,13.8-6.2,13.8-13.8v-16.8c0-7.6-6.2-13.8-13.8-13.8h-89.6V631.7z"/>
		<path class="st2" d="M534.8,473.2c38.8,39.3,53.3,74.5-40.9,92.1c-3.6-24.8-3.6-24.8-3.6-24.8c31-5.7,42.4-8.8,46.6-21.2
			c4.1-12.4-13.5-35.2-13.5-35.2C518.2,466.4,534.8,473.2,534.8,473.2z"/>
		<circle class="st2" cx="485.4" cy="551.5" r="4.4"/>
		<path class="st2" d="M442.2,810.1c-6,1.1-12,2.1-18,2.8c-6,0.7-12.1,0.9-18.2,1.2c-1.2,0.1-2.3-0.2-3.5-0.4
			c-0.1-0.4-0.1-0.7-0.2-1.1c1-0.7,2-1.6,3-2.1c6.2-2.8,12.5-5.4,18.8-8.2c2.8-1.2,5.7-2.5,8.4-4c0.8-0.4,1.6-1.5,1.8-2.5
			c0.4-1.8,0.3-3.7,0.4-5.6c0-1.2,0-2.5,0-3.9c3.9-0.5,7.5-1,11.5-1.5c0.3,6.4,0.8,12.5,1,18.6C447.2,808,446.3,809.3,442.2,810.1z"
			/>
		<path class="st2" d="M523.1,779.5c0,3.4,0,6.6,0,9.8c0,2.3-0.4,4.7-0.3,7c0.1,3-1.1,4.7-3.3,6.2c-7.2,4.8-15.1,6.3-23.3,6.9
			c-2.9,0.2-5.8,0.5-8.7,0.8c-1.3,0.1-2.7,0.2-4,0.3c-0.2-0.4-0.3-0.9-0.5-1.3c1.6-2.9,4-5,6.7-6.5c1.8-1,3.8-1.7,5.7-2.5
			c4.7-2.1,8.4-6,11.8-10c1.2-1.4,1.8-3.8,2.3-5.8c0.4-1.8,1.2-2.7,2.7-3.1c2.7-0.7,5.4-1.6,8.1-2.2
			C521.2,778.9,522.1,779.3,523.1,779.5z"/>
		<rect x="861.7" y="647.5" class="st2" width="228.7" height="34.1"/>
		<rect x="891.7" y="636.1" width="99.3" height="9.3"/>
		<polygon points="1081.3,585.2 1023.8,642.7 1030.6,649.5 1081.3,598.7 		"/>
		<path class="st2" d="M829.7,470.6c20.2,5.2,11.4,18.6-1,15.5S829.7,470.6,829.7,470.6z"/>
		<path class="st8" d="M751.3,564.2c-31.8,123.4-3.9,161.4-3.9,161.4c95.4-18.6,92.3-24.8,92.3-24.8c-9.3-70.6-13.2-72.2-13.2-72.2
			c-29.5-3.9-28.7-3.1-28.7-3.1c48.1-5.4,72.1-4.4,79.5-60.4c-11.2-1.7-11.2-1.7-11.2-1.7c-17.8,47.3-47.3,35.7-60.5,36.5
			c-13.2,0-22.5-30.3-22.5-30.3C768.4,572.8,751.3,564.2,751.3,564.2z"/>
		<path d="M896.4,796.3c-10.4,2.4-20.8,3.5-31.1,0.3c-3-0.9-5.6-3.6-6.4-11.5C872.2,787.5,884.8,787.1,896.4,796.3z"/>
		<path class="st2" d="M864.3,560.6c-7.2-13.5-7.2-15.3-7.2-15.3l6.4,0.1c2.4-20.3,9.1-22.4,8.4-14.4S869,546.6,871,543
			c5.7-16,13.7-18.9,11.6-12.2c-2.1,6.7-3.6,15.3-3.6,15.3c12.2-18.9,16.8-17.6,12.6-3.8s-11.9,21.4-11.9,21.4L864.3,560.6z"/>
		<rect x="984.1" y="320.5" transform="matrix(6.123234e-17 -1 1 6.123234e-17 637.9265 1348.0868)" width="17.8" height="69.1"/>
		<rect x="974.8" y="302.7" transform="matrix(6.123234e-17 -1 1 6.123234e-17 646.4626 1320.9263)" width="17.8" height="69.1"/>
		<rect x="988" y="284.9" transform="matrix(6.123234e-17 -1 1 6.123234e-17 677.5032 1316.2701)" width="17.8" height="69.1"/>
		
			<rect x="782.6" y="242.9" transform="matrix(-1.836970e-16 1 -1 -1.836970e-16 1075.2427 -507.6428)" width="17.6" height="81.9"/>
		
			<rect x="775.4" y="225.3" transform="matrix(-1.836970e-16 1 -1 -1.836970e-16 1050.4102 -517.9897)" width="17.6" height="81.9"/>
		
			<rect x="790.9" y="209.7" transform="matrix(-1.836970e-16 1 -1 -1.836970e-16 1050.4102 -549.0303)" width="17.6" height="81.9"/>
		
			<rect x="784.7" y="193.2" transform="matrix(-1.836970e-16 1 -1 -1.836970e-16 1027.6471 -559.3771)" width="17.6" height="81.9"/>
		<rect x="1062.6" y="213.8" width="16.8" height="67.9"/>
		<rect x="1052.2" y="218.6" width="14.2" height="60"/>
		<path class="st1" d="M1024.7,311.9c-0.1,0.2-0.2,0.4-0.2,0.6c0,1-0.7,1.1-1.4,1.1c-0.8-0.1-1.3-0.8-1.1-1.7
			c0.3-1.4,1.4-2.2,2.7-2.4c2-0.4,4.1-0.3,5.9,0.8c0.6,0.3,1.1,0.6,1.8,0.2c2.7-1.3,5.4-0.5,7.9,0.7c1.1,0.5,1.9,0.7,3.1,0.1
			c2.2-1.1,4.5-1.1,6.8,0.8c-0.3,0.6-0.6,1.2-1,1.9c-1.7-1.2-3.2-1.5-4.9-0.4c0.4,0.6,0.9,1,1.1,1.6c0.2,0.5,0.2,1.2,0,1.8
			c-0.2,0.7-0.9,0.8-1.6,0.7c-2.3-0.2-3.2-1.2-3.3-3.8c-1.8-1-3.7-1.8-6.2-1.5c0.6,0.8,1.1,1.3,1.5,1.8c0.9,1.3,0.3,2.4-1.2,2.5
			c-1.3,0.1-2.3-0.7-3.2-1.4c-0.9-0.7-1.7-1.6-1.2-2.8C1028.2,311.5,1027.4,311.4,1024.7,311.9z"/>
		<path class="st2" d="M1004.3,336.9c0.4,3.5-0.4,4.3-3.6,4.3c-2.8-0.1-5.6-0.3-8.3-0.3c-3.7,0-7.4,0-11,0.4
			c-6.9,0.8-13.7,0.4-20.6-0.2c-1.5-0.1-3-0.5-4.4-1c-0.6-0.2-1.5-1.2-1.3-1.4c0.3-0.7,1-1.6,1.6-1.7c2.5-0.2,5.2-0.5,7.6,0
			c5.9,1.1,11.6-0.2,17.5-0.5c2.4-0.2,4.8-0.4,7.2-0.3C993.9,336.3,999,336.6,1004.3,336.9z"/>
		<path class="st1" d="M1058.4,357.3c2.7-4.2,1.3-7.9,0.1-11.8c-5.6-0.4-10.8,0.4-16.2,0.9c-0.5,3.7,1.6,7.1,2.4,10.9
			C1049.5,357.4,1053.9,357.4,1058.4,357.3z M1028.2,357.5c3.6-0.2,6.8-0.3,10.2-0.5c-0.7-3.6-1.2-6.9-1.9-10.3
			c-4,0.3-8.1,0.1-11.9,1C1025.6,351,1025.7,354.3,1028.2,357.5z M1019.6,348.1c-1.2,0-1.9-0.1-2.6-0.1c-4.2,0.1-4.9,0.6-4.2,3.2
			c0.6,2,1.2,3.9,1.8,6c2.3,0,4.5,0,7.1,0C1021,354.2,1020.3,351.3,1019.6,348.1z"/>
		<rect x="669.8" y="363.2" class="st2" width="397.3" height="7.8"/>
		<path class="st2" d="M814,237.7c-0.9,0.2-1.7,0.4-2.3,0.6c-1.6-1.9-3-3.6-4.8-5.7c-0.9,1.5-1.5,2.4-2.1,3.3
			c-1.7,2.5-3.1,2.9-5.7,1.4c-1-0.6-1.9-1.3-2.8-2c-0.8-0.6-1.6-1.1-2.9-2c-0.5,1.3-0.9,2.3-1.3,3.2c-1,2.4-1.9,3.1-4.4,2.5
			c-2.7-0.6-5.2-1.7-8.3-2.8c-0.5,0.2-1.6,1-2.8,1.2c-1.3,0.2-2.7-0.1-4-0.5c-0.5-0.2-1.1-1.2-1.1-1.7c0-0.5,0.9-1.4,1.4-1.4
			c1.6,0,2.5-0.8,3.5-1.9c1.7-2,2.8-2,4.7-0.2c1.8,1.6,3.3,3.5,6.3,3.3c0.7-1.3,1.3-2.6,2.1-3.9c1.6-2.5,3.3-2.9,5.7-1.3
			c1.7,1.1,3.2,2.4,4.9,3.8c0.6-0.8,1.1-1.5,1.7-2.2c2.1-2.8,4.3-3.4,7.3-1.6C811.7,231.7,813.9,233.9,814,237.7z"/>
		<path class="st1" d="M807.2,252.1c-0.4-2.1-0.8-4.3-1.3-6.6c-6.2,0.2-12.3,0.3-18.6,0.5c0.7,2.6,1.3,4.9,1.9,7.2
			C795.4,252.8,801.3,252.4,807.2,252.1c2.8,0.5,5.5,0.5,8.3-0.2c0.3-2.5-0.4-4.6-1.8-6.9c-1.5,0.1-2.8,0.2-4.6,0.3
			c0.4,1.3,0.6,2.4,0.9,3.4C810.8,251.1,810.4,251.6,807.2,252.1z M825.2,252.4c0.2-0.5,0.3-0.7,0.5-0.9c1.9-1.9,0.9-3.9,0-5.8
			c-0.2-0.4-0.8-0.8-1.3-0.9c-2.3-0.1-4.7-0.5-7,0.3c0.9,2.4,1.7,4.6,2.5,6.8C821.8,252,823.4,252.2,825.2,252.4z M778.2,253.7
			c-1.1-2.8,0.4-5.5-1.2-7.9c-4,0.2-4,0.2-5.7,1.2c0.2,1.4,0.3,2.7,0.6,4.1c0.3,1.6,1,2.2,2.9,2.4
			C775.7,253.6,776.6,253.6,778.2,253.7z M780.5,245.7c0.3,2.1,0.4,3.9,0.7,5.8c0.4,2.3,1.1,2.6,4.5,1.7c-0.6-2.3-1.2-4.7-1.8-7.2
			C782.8,245.9,781.9,245.8,780.5,245.7z"/>
		<path class="st1" d="M787.6,265.7c-0.9,1.4-1.6,2.4-2.2,3.5c-0.2,0.3-0.4,0.7-0.6,1c-0.9,1.2-1.8,1.2-2.8,0
			c-0.8-1.1-1.6-2.2-2.4-3.2c-0.4-0.6-0.9-1.1-1.5-1.8c-2.1,0.9-3.6,2.4-5.1,3.7c-1.7,1.5-2,1.6-3.8-0.2c-1.4-1.4-2.9-2.7-4.2-4.2
			c-0.4-0.5-0.7-1.1-1-1.6c1.1-1,1.9-0.6,2.7,0.2c1.3,1.2,2.6,2.5,4,3.9c2.4-1.6,4.7-3.2,6.9-4.7c2.8,1.1,3.7,3.4,5.5,5.1
			c0.7-1.1,1.4-2.1,2.1-3c0.9-1.3,1.1-1.3,2.7-0.7c1.5,0.6,2.4,1.6,3.4,2.7c0.5,0.5,0.9,1.1,1.6,1.9c0.6-0.9,1-1.6,1.5-2.3
			c0.9-1.1,2-1.3,3.2-0.3c1.4,1.1,2.6,2.4,3.9,3.7c0.5,0.5,0.8,1.2,0.1,1.7c-0.8,0.6-1.5,0.1-2-0.4c-1-1-1.9-1.9-3.1-3.2
			c-0.4,1.1-0.7,2-1,2.8c-0.5,1.3-1.5,1.6-2.7,0.6c-1-0.8-1.9-1.7-2.9-2.7C789.2,267.5,788.6,266.8,787.6,265.7z"/>
		<path class="st2" d="M764.3,283.8c0.2-0.7,0.4-1.6,0.7-2.4c0.8-1.9,2.6-2.2,3.8-0.5c1.5,2.1,2.2,4.6,2,7.2c-0.1,0.7-0.8,1.7-1.4,2
			c-0.6,0.3-1.8,0-2.3-0.5C765.6,288.1,764.1,286.5,764.3,283.8z"/>
		<rect x="669.8" y="288" class="st2" width="397.3" height="7.8"/>
		<path d="M826,707.3c-12.2,3.9-35.2,9.8-78.6,18.3c0,0-3.3-4.5-6.4-15.5c-3.6,2.9-5.8,7.4-5.8,12.4c0,8.9,7.2,16,16,16h69.6
			c8.9,0,16-7.2,16-16C836.9,715.5,832.3,709.5,826,707.3z"/>
		<path class="st2" d="M814.2,711.7c40.5,24.6,45.6,79.6,45.6,79.6c16.9-1.8,16.9-1.8,16.9-1.8c-7-74.3-45.2-83.4-45.2-83.4
			L814.2,711.7z"/>
		<line class="st9" x1="762.4" y1="729.8" x2="762.4" y2="796"/>
		<line class="st9" x1="816.7" y1="729.8" x2="816.7" y2="796"/>
		<path class="st1" d="M483.9,606.2c-5.1,3.1-10.3,6-16.7,5.7c-0.4,0-0.8,0-1.1-0.1c-0.5-0.3-1.2-0.9-1.1-1.2
			c0.2-0.6,0.8-1.1,1.3-1.5c0.2-0.2,0.7-0.2,1.1-0.1c4.6,0.5,8.6-1.5,12.8-3c1.1-0.4,2.3-0.6,3.5-0.9
			C483.7,605.4,483.8,605.8,483.9,606.2z"/>
		<path class="st1" d="M471.3,593.8c-0.4,0.3-0.7,0.8-1.1,0.9c-3.9,1.4-7.9,2.8-11.9,4.1c-1.1,0.4-2.5,0.4-2.8-1.1
			c-0.3-1.5,0.8-1.9,2-2.2c2.9-0.8,5.8-1.8,8.8-2.5c1.5-0.3,3.1-0.2,4.7-0.3C471.1,593.2,471.2,593.5,471.3,593.8z"/>
		<path class="st1" d="M504,603c0.9-0.6,1.6-1.6,2.3-1.5c3.1,0.2,6-0.4,8.9-1.2c0.5-0.1,1-0.3,1.5-0.1c0.4,0.1,0.8,0.6,1,1
			c0.1,0.2-0.1,0.8-0.3,1C515.1,604.4,507.7,605.1,504,603z"/>
		<path class="st1" d="M502.4,586c-3.4,1.3-6.5,3.5-11,2.1c0.9-1,1.4-2,1.9-2C496.3,586.2,499.3,583.7,502.4,586z"/>
		<path class="st1" d="M512.3,568.2c5.2-1,5.2-1,7.7,1c-2,1.1-3.9,1.7-6,1.2C513.5,570.2,513.1,569.2,512.3,568.2z"/>
		<path class="st1" d="M500.5,515c2-3.5,7-5.4,11.3-4.4c-0.5,0.6-0.9,1.5-1.4,1.6C507.1,512.7,504.7,516.1,500.5,515z"/>
		<path class="st1" d="M445.5,519.6c-3.2,3.6-6.8,4.4-9.8,2.1c1.3-2.5,4.1-2.1,6.1-2.9C443,518.2,444.5,518,445.5,519.6z"/>
		<path class="st1" d="M443.1,511.9c-2.3,1.6-4.8,2.6-7.6,1.3c-0.5-0.3-0.8-1.1-1.2-1.6c0.6-0.3,1.1-0.9,1.7-1
			c1.2-0.2,2.5-0.3,3.8-0.3c1.1,0,2.3,0.3,3.4,0.4C443.1,511.2,443.1,511.6,443.1,511.9z"/>
		<g>
			<rect x="864.3" y="210.9" width="9.3" height="63.1"/>
			<polygon points="786,319.1 954.6,319.1 869,267.7 			"/>
		</g>
		<g>
			<rect x="864.3" y="-399.1" width="9.3" height="63.1"/>
			<polygon points="786,-290.8 954.6,-290.8 869,-342.2 			"/>
		</g>
		<g>
			<rect x="82.1" y="844.1" width="9.3" height="63.1"/>
			<polygon points="3.8,952.3 172.4,952.3 86.8,901 			"/>
		</g>
		<rect x="-317.3" y="196.8" class="st2" width="1606.4" height="15.8"/>
		<rect x="651.9" y="-9.3" class="st10" width="308.9" height="55.4"/>
		<rect x="651.9" y="52.2" class="st10" width="308.9" height="55.4"/>
		<rect x="651.9" y="115.4" class="st10" width="308.9" height="55.4"/>
		<path d="M728.3-104.7c32.6,1,69.3-82,69.3-82l17.6,8.8C777.9-104.7,736-87.1,736-87.1L728.3-104.7z"/>
		<path class="st2" d="M838.6-177c0.7-0.8,1.2-1.7,2-2.2c6.3-3.4,12.5-6.7,18.9-10c1.5-0.8,3.3-1.2,5.3-1.9
			c-1.5,2.8-15.9,12.2-21.8,14.6C841.7-175.9,840.4-175.3,838.6-177z"/>
		<path class="st2" d="M843.2-164.3c-1-1.9-0.2-3,0.8-3.8c5.7-4.7,12.1-8.4,19.4-10.1c0.2,0,0.4,0.2,0.8,0.4
			c-0.2,0.4-0.3,1.1-0.6,1.2C856.4-173.2,850.5-167.7,843.2-164.3z"/>
		<path class="st2" d="M842.4-234.4c-4.2,2.7-8.4,5.5-12.6,8.1c-0.7,0.4-1.8,0-3.3-0.1c0.6-1.2,0.8-2.2,1.3-2.7
			C829.9-230.9,839.6-234.9,842.4-234.4z"/>
		<path class="st2" d="M847.5-219c-0.7,0.4-1.4,1.2-2,1.2c-4.1-0.2-6.7,4.1-11.1,3.9C836.2-218.4,841.4-220.6,847.5-219z"/>
		<path class="st2" d="M815.1-177.8c-5.1-4.2-10.8-7.2-17.6-8.8c0.4-1.5,0.6-2.9,1.3-3.9c1.5-2.2,3.3-4.1,5-6.1c2.5-3,5-6.1,7.7-8.9
			c1.9-2,4.2-3.3,7.1-2.5c-3.7,4.1-7.1,8-10.5,11.8c-0.9,1-1.1,1.9-0.2,3.1c2.3,0,3.7-1.5,5.1-2.9c2.4-2.4,4.8-4.9,7.2-7.3
			c1.8-1.8,3.1-1.7,5.6,0.1c-2.8,3.4-5.6,6.8-8.3,10.3c-0.8,1-2.5,2.1-0.7,3.5c1.4,1.1,2.5-0.2,3.5-1.2c2.5-2.7,5-5.3,7.6-8
			c1.2-1.2,2.5-1.7,4.4-0.3C826.6-192,821-185.1,815.1-177.8z"/>
		<path d="M-58.1-251.1c38.3-8.3,44.7,37.3,44.7,37.3l17.3,2c-11.9-44-31-46-40.4-48.6C-45.7-263-58.1-251.1-58.1-251.1z"/>
		<path class="st2" d="M-87.1-199.4c-26.4,10.9-25.3,16-13.5,16.6c11.9,0.5,16-3.1,16-3.1L-87.1-199.4z"/>
		<rect x="-55" y="-167.8" transform="matrix(0.9438 -0.3306 0.3306 0.9438 53.3246 -19.506)" width="48.6" height="2.6"/>
		<path d="M-48-166.9c-4.4,0.1-10.9,5.7-10.7,9.4c0,0.1,0,0.2,0,0.4c0.4,5.4,12.9,9.4,17,6.4c2.8-2,4.6-6.4,3.4-9.4
			C-40-164.5-43.5-166.9-48-166.9z"/>
		<path class="st2" d="M-159.5-34.8c-41.8,16.5-43.9,19.3-35.9,19.7c8,0.4,38-10.3,38-10.3L-159.5-34.8z"/>
		<rect x="-243.6" y="-100.1" width="5.4" height="97"/>
		<rect x="-199.3" y="-57.4" transform="matrix(6.123234e-17 -1 1 6.123234e-17 -187.7539 -205.4959)" width="5.4" height="97"/>
		<path d="M-72.4,31.4C-154.3,80.5-173,133.3-173,133.3s7.2,7.2,11.4,5.2C-70.8,63.6,12.3,28.4,11.2,24.6L-72.4,31.4z"/>
		<rect x="-309.5" y="-6.4" class="st2" width="169.7" height="173.8"/>
		<path d="M11.2,24.6C0.1,51.3-51.9,54.4-51.9,54.4l7.8-15.5L11.2,24.6z"/>
		<rect x="515.2" y="-401.8" class="st2" width="16.4" height="600.2"/>
		<rect x="-317.3" y="-401.5" class="st2" width="1606.4" height="15.8"/>
		<path class="st2" d="M232.7-71c-1.9-6.9-4.6-13.7-6.8-20.6c-0.7-2.2-1.2-4.4-0.2-6.7c1.6-3.6,4-5.2,8.3-4.8c3.4,0.3,4,0.7,4.7,3.8
			c0.9,3.8,1.3,7.8,2.4,11.5c1.2,3.9,2.5,7.8,4.5,11.4c2.4,4.5,5.4,8.7,9.8,12c5.1,3.8,10.8,6.3,17.3,7.4
			c13.5,2.3,26.9,4.6,40.4,6.8c4,0.6,8.1,1.1,12.1,1c9.2-0.2,18,1.1,26.7,3.4c3.3,0.9,6.8,1.2,10.2,1.7c2.6,0.4,4.8,1.2,7.2,4
			c-6.5,0-11.9,0.2-17.3,0c-12.8-0.4-25.6-1.1-38.4-1.6c-9.3-0.4-18.7-0.5-28-1c-8.1-0.4-16.3-0.3-24.2-2.3
			c-6.1-1.5-11.5-3.7-16.1-7.7C239.4-57.8,234.7-63.6,232.7-71z"/>
		<path d="M140.6-93.8c1.1-0.4,2.2-0.8,3.5-1.3c0.8,3.6,1.4,6.8,2.1,10c0.8,3.8,3.1,6.4,7.5,7.7c1.3,0.4,2.7,0.9,4.1,1.4
			c3-0.3,6.1-0.7,8.9-1.7c0.9-1.4,2.1-2.7,3.6-3.9c1.6,1.6,3.2,3.3,4.9,4.9c5.4,5,11,6.7,15.9-2c0.9-1.6,1.8-3.2,2.8-5
			c1.7,1.6,3.2,3,4.8,4.3c5.7,4.7,13,2.9,17.3-1.3c6.1-6,10.4-12.9,14.2-20.1c-0.6-4.3,0.2-8.2,2.3-12.1c2.3-4.2,5.7-7.7,7.2-12.3
			c0.1-0.4,0.3-0.8,0.6-1.2c3.1-11.6,6.4-23.2,9.2-35c1.7-7.1,2.6-14.3,3.5-21.5c0.9-7.1,3.3-14,5.4-20.8c0.8-2.4,2.9-3.8,5.3-5
			c2.6-1.3,5.2-2.5,7.8-3.6c5.4-2.4,9.5-6.1,13.4-9.9c2.1-2.1,4.4-4.1,7-6.6c0.3,0.6,0.6,1.2,0.9,1.8c1.1-1.4,2.2-2.9,3.2-4.3
			c-0.1-0.1-0.1-0.2-0.1-0.3c-0.8-1.3-0.4-2.4,0.4-3.7c1.8-3,2.2-6.4,0.7-9.5c-5.6-11.7-14.2-20.9-28.8-25.1
			c-6.4-1.8-12.9-3.6-19.6-2.5C239-271.1,230-269,222-264c-16,10.1-31.8,20.3-44,34c-7.7,8.7-14.1,17.9-18.7,27.9
			c-3.4,7.3-6.1,14.8-9.1,22.2c-2.7,6.8-5.1,13.6-8.1,20.3c-5.1,11.3-7.5,23.1-9.8,34.9c-0.9,5-1.1,10.1-1.4,15.2
			c-0.2,3.6-0.4,7.3,0,10.9C131.4-93.8,135.5-92,140.6-93.8z"/>
		<path class="st1" d="M205.3-236.3c1.4,1.9,0.5,3-0.4,4.1c-1.5,1.6-2.9,3.3-4.5,4.8c-4.3,4.1-8,8.7-11.5,13.4
			c-0.8,1.1-1.6,3.2-3.6,2.2c-2-1-0.4-2.6,0.3-3.8c4.3-7.2,9.8-13.6,16.8-19C203.1-235.1,204.1-235.6,205.3-236.3z"/>
		<path class="st1" d="M184.7-184.2c-0.5,2.8-0.9,5.3-1.4,7.8c-1.6,7.3-3.4,14.7-5,22c-0.2,1.1-0.2,2.2-0.5,3.2
			c-0.2,0.6-0.9,1.1-1.3,1.6c-0.7-0.5-1.8-1-1.9-1.5c-0.2-1.4-0.3-2.9,0.1-4.3c2.1-8.6,4.3-17.2,6.4-25.9
			C181.4-182.6,181.7-184.1,184.7-184.2z"/>
		<path class="st1" d="M198.7-183.8c-3.6,10.6-4.1,21.5-5.1,32.3c-2.1,0.6-3.1,0-3.1-1.6c0-2.4-0.1-4.8,0.2-7.2
			c0.7-5.6,1.4-11.2,2.3-16.8c0.3-1.9,1.1-3.7,1.9-5.5C195.5-184.1,195.7-184,198.7-183.8z"/>
		<path class="st1" d="M217.2-232c-0.9,1.1-1.4,2.2-2.4,3c-6.1,4.5-10.8,9.9-14.9,15.7c-1,1.3-2,2.6-3.2,3.8
			c-0.4,0.4-1.5,0.7-1.7,0.5c-0.5-0.4-1-1.1-1-1.7c0-0.7,0.3-1.4,0.7-2c5-7,10.4-13.9,18.1-19.1C213.9-232.6,214.9-233.9,217.2-232z
			"/>
		<path class="st1" d="M235.6-107.4l3.9,22.1l-11.6,7.8l-5.8-10c-0.3,0.5-0.6,1-1,1.4l4.1,16.3l4.7-3.5l14.7-10.1L235.6-107.4z"/>
		<path class="st1" d="M201.7-127.8c-2,9-3.9,17.7-5.9,26.5c-0.1,0.3-0.5,0.5-0.9,0.8c-2-0.2-2.6-1.4-2.5-2.8
			c0.2-2.4,0.3-4.8,0.9-7.2c1.3-5.2,3-10.3,4.5-15.4C198.2-127.4,198.8-128.7,201.7-127.8z"/>
		<path class="st1" d="M171.9-182.6c1,1.5,0.6,3.2,0.1,4.8c-1.9,5.4-3.8,10.8-5.8,16.2c-1.2,3.1-2.5,6.1-3.8,9.2
			c-0.4,0.9-1.1,1.8-2.1,2.5c-1.1-2.1-1-4.1-0.2-6.2c2.3-5.4,4.6-10.9,6.7-16.3c0.9-2.2,1.3-4.4,2.1-6.6c0.4-1.3,1.1-2.6,1.6-3.8
			C171.1-182.7,171.5-182.6,171.9-182.6z"/>
		<path class="st1" d="M217.4-181.9c2.4,0.5,2.1,1.6,1.7,2.7c-2.4,6.5-3.5,13.1-4.2,19.9c-0.2,1.7,0.1,3.4-0.2,5
			c-0.1,0.8-1.1,1.4-1.7,2.1c-0.7-0.6-1.5-1.2-2-1.9c-0.3-0.5-0.2-1.2-0.1-1.8c1-8.1,2.3-16.2,5.3-24
			C216.5-180.6,217-181.2,217.4-181.9z"/>
		<path class="st1" d="M245.9-231.6c2.4,0.5,2.1,1.6,1.7,2.7c-2.4,6.5-3.5,13.1-4.2,19.9c-0.2,1.7,0.1,3.4-0.2,5
			c-0.1,0.8-1.1,1.4-1.7,2.1c-0.7-0.6-1.5-1.2-2-1.9c-0.3-0.5-0.2-1.2-0.1-1.8c1-8.1,2.3-16.2,5.3-24
			C245-230.3,245.5-230.9,245.9-231.6z"/>
		<path class="st1" d="M221.8-228.8c0.1,1,0.5,2,0.2,2.9c-0.6,1.7-1.5,3.4-2.5,5c-3.2,4.8-6.5,9.6-9.9,14.4
			c-0.4,0.6-1.6,1.3-2.2,1.2c-1.4-0.2-1.5-1.3-1-2.3c1.7-3,3.4-6.1,5.4-9c2.5-3.8,5.1-7.5,7.8-11.2c0.3-0.4,0.7-0.7,1.1-1
			C221-228.9,221.4-228.9,221.8-228.8z"/>
		<path class="st1" d="M165.3-132.7c-0.8,1.4-1.2,2.4-1.8,3.3c-3.3,5.5-6.7,11-6.7,17.4c0,0.2,0,0.5-0.1,0.7c-0.5,0.5-1.1,1-1.6,1.4
			c-0.6-0.6-1.7-1.1-1.7-1.7c0.3-2.7,0.6-5.5,1.3-8.2c1-3.7,2.8-7.1,5.4-10.2C161.2-131.1,162.1-132.6,165.3-132.7z"/>
		<path class="st1" d="M186.4-128.7c-0.2,1.1-0.2,2.3-0.6,3.3c-2,5-4.7,9.9-4.7,15.3c0,1.2-0.8,2-2.3,2.1
			C175.9-112.3,180-125.1,186.4-128.7z"/>
		<path d="M320.1-30.6c3.6-0.6,7.4-1.3,11.3-1.9c0.7-0.1,1.4-0.4,2-0.2c5.6,1.4,11.2-0.1,16.8-0.3c0.5,0,1-0.1,1.5,0
			c10.7,1.3,21.5-0.4,32.2,0.2c2.8,0.2,4.9-0.7,6.3-2.6c2.1-2.8,4.5-5.4,6.2-8.4c5-9,10-18,14.4-27.2c4.7-9.7,8.8-19.6,13.4-29.3
			c1.5-3.2,3.6-6.2,5.4-9.2c1.4-2.3,3.8-3.3,7-3.4c3.6,2.8,3.5,5.8,2,9c-2.6,5.6-5.2,11.3-7.9,16.9c-5.2,10.9-10.3,21.7-15.6,32.6
			c-3,6.2-6.1,12.4-9.2,18.6c-0.6,1.3-1.6,2.4-2.4,3.6c-1.4,2-3.4,2.6-6.2,2.7c-12.4,0.7-24.8,0.7-37.2,2.5
			c-12.1,1.8-24.5,1.3-36.8,1.4C320-25.6,319.6-26.3,320.1-30.6z"/>
		<rect x="319.6" y="-38.5" width="83.8" height="9.3"/>
		<rect x="312.3" y="-33.4" class="st2" width="223.5" height="197"/>
		<rect x="384.2" y="73.8" width="80.7" height="100.9"/>
		<path class="st1" d="M380.3,87c-0.7-2.4-2.3-4.6-1.6-7.4c0.4-1.4-1.4-2.1-3-2.6c-2.2-0.6-3-2-3-4.5c0-1.8,0.5-3.4,2.7-4.1
			c1.5-0.4,3-0.8,4.5-1c7.2-0.9,14.1-2.3,21-4.3c8.2-2.3,16.9-2.9,26.6-3c4.9,0.7,10.8,1.6,16.7,2.2c5.2,0.6,10.4,0.8,15.6-0.7
			c4.1-1.2,8.3-1.4,12.6-0.5c3.9,0.8,6.6,4.1,5.2,7.3c-1.5,3.4-0.4,6.7,0.3,10c1.5,6.7-2.6,10.9-10.6,11.4
			c-5.9,0.4-11.2-0.8-16.5-2.9c-4-1.6-3.9-1.4-6.1,1.6c-6.1,8.5-16.6,9-24.7,4.5c-3-1.7-5.6-3.7-8.4-5.6c-0.4-0.3-0.9-0.7-1.4-0.9
			c-5-1.6-5.6-2-8.8,1.4c-2.5,2.7-5.6,4.4-9.6,5C386.8,94,381.6,91.5,380.3,87z"/>
	</g>
</g>
</svg>
