<?xml version="1.0" encoding="utf-8"?>
<!-- Generator: Adobe Illustrator 22.0.1, SVG Export Plug-In . SVG Version: 6.00 Build 0)  -->
<svg version="1.1" id="Layer_1" xmlns="http://www.w3.org/2000/svg" xmlns:xlink="http://www.w3.org/1999/xlink" x="0px" y="0px"
	 viewBox="0 0 16 16" style="enable-background:new 0 0 16 16;" xml:space="preserve">
<style type="text/css">
	.st0{fill:#FFFFFF;}
	.st1{fill:#6A8542;}
	.st2{fill:#00AFAF;}
	.st3{fill:none;}
	.st4{fill:#F0D1B5;}
	.st5{fill:#D98427;}
</style>
<path class="st0" d="M8,0.8C4.2,0.8,1,4,1,8s3.2,7.2,7,7.2s7-3.2,7-7.2S11.9,0.8,8,0.8z"/>
<path class="st1" d="M5.4,15.2C6,13.8,6.6,13,7.8,13.2s3.3-0.4,4.5,1.2c-2.1,0.6-3.9,0.9-3.9,0.9L5.4,15.2z"/>
<path class="st2" d="M-5,5.7"/>
<circle class="st3" cx="-12.5" cy="3.2" r="8"/>
<path class="st2" d="M15.4,10.5"/>
<g>
	<path d="M13.1,7.7c-0.1-0.5-0.2-1-0.3-1.5c0-0.2-0.1-0.4-0.1-0.6c-0.3-0.8-0.8-1.4-1.5-1.8c-0.3-0.2-0.7-0.3-1-0.5c0,0,0,0-0.1,0
		C9.6,3.2,9.1,3,8.7,3.1c-0.3,0-0.6,0-0.9,0c-0.4,0-0.9,0-1.3,0.2c0,0-0.1,0-0.2,0c-0.4,0-0.7,0.2-1.1,0.5C5,3.9,4.7,4.1,4.5,4.3
		C4.2,4.6,4.1,5,4,5.4C4,5.5,4,5.6,3.9,5.8C3.8,6,3.8,6.3,3.8,6.6c0,0.3,0,0.6-0.1,0.9c0,0.1,0,0.2,0,0.2c0,0.3,0.1,0.7,0.2,1.1
		c0,0.1,0,0.2,0,0.3c0,0.1,0,0.1,0,0.2c0.2,0.4,0.4,0.9,0.8,1.3c0.3,0.3,0.6,0.7,1,0.9c0.2,0.1,0.3,0.3,0.6,0.3c0,0,0.1,0,0.1,0
		C6.3,12,6.5,12,6.7,12c0.1,0,0.2,0,0.3,0.1c0.2,0.1,0.3,0.1,0.5,0.2c0.3,0.2,0.4,0.3,0.3,0.7c-0.1,0-0.1,0.1-0.2,0.1
		c0,0.1,0.1,0.2,0,0.3c0,0,0,0,0.1,0c0,0.1,0,0.2,0,0.3C7.8,13.8,8,14,8.2,14c0.3,0.1,0.5,0.2,0.8,0.1c0.3,0,0.6,0,0.9-0.2
		c0.1,0,0.3-0.1,0.4-0.2c0.1-0.1,0.1-0.2,0.2-0.2c0-0.1,0-0.3-0.1-0.4c-0.1-0.2,0-0.3,0-0.4c0-0.1,0-0.1,0.1-0.2
		c0.1-0.1,0.2-0.2,0.3-0.2c0.2-0.1,0.3-0.2,0.5-0.2c0.7-0.2,1.2-0.7,1.5-1.3c0.1-0.3,0.2-0.5,0.3-0.8c0-0.2,0.1-0.3,0.1-0.5
		C13.2,8.9,13.2,8.3,13.1,7.7z M4.4,9.9c0,0-0.1-0.1-0.1-0.1C4.1,9.3,4,8.9,3.9,8.4c0-0.1,0-0.2,0-0.4C3.8,7.5,4,7,4,6.5
		c0,0,0-0.1,0-0.1c0.1-0.3,0.2-0.7,0.3-1C4.4,4.9,4.7,4.6,5,4.4C5.4,4,5.8,3.7,6.3,3.6c0.1,0,0.3-0.1,0.4-0.1
		c0.2-0.1,0.3-0.1,0.5-0.1c0.4,0,0.8,0,1.2,0c0.4,0,0.8,0,1.2,0.2c0.4,0.1,0.7,0.3,1,0.4c0.4,0.2,0.7,0.4,1,0.7
		c0.3,0.3,0.5,0.6,0.6,1c0,0,0,0.1,0,0.2c-0.1,0-0.2,0-0.2,0.1c-0.3,0.1-0.7,0-1-0.1c-0.5-0.2-0.9-0.5-1.3-0.8
		C9.6,4.9,9.3,4.6,9,4.3C8.9,4.2,8.8,4.1,8.6,4c0,0.1-0.1,0.2-0.1,0.3c0,0.4-0.2,0.8-0.4,1.2C8,5.8,7.6,6.1,7.3,6.2
		C7,6.4,6.6,6.5,6.3,6.6C6.2,6.5,6.1,6.4,6,6.3c-0.3-0.1-0.8,0-1,0.3C4.8,6.8,4.7,7.1,4.7,7.3v0.4c0,0.3,0,0.5,0.2,0.7
		C5,8.9,4.8,9.4,4.4,9.9z M13,9.3c0,0.1,0,0.2-0.1,0.4c-0.1,0.5-0.2,1-0.7,1.4c0,0,0,0,0,0c-0.2,0.3-0.5,0.5-0.8,0.6
		c-0.3,0.1-0.6,0.3-0.9,0.4c-0.2,0.1-0.3,0.2-0.4,0.4C10,12.7,10,13,10,13.3c0,0.2,0,0.3-0.2,0.3c-0.2,0.1-0.4,0.2-0.6,0.2
		c-0.2,0-0.4,0-0.7,0c-0.2,0-0.3-0.1-0.5-0.2c-0.1-0.1-0.2-0.2-0.2-0.4c0-0.2,0-0.4,0-0.7c0-0.1-0.1-0.3-0.2-0.4
		c-0.2-0.2-0.4-0.3-0.6-0.4c0,0-0.1,0-0.1,0c-0.1,0-0.2,0-0.3-0.1c-0.1,0-0.3-0.1-0.4-0.1c-0.1,0-0.1,0-0.2-0.1
		c-0.6-0.2-1-0.7-1.4-1.1c0,0-0.1-0.1-0.1-0.2c0-0.1,0.1-0.1,0.1-0.2C4.9,9.8,5,9.6,5,9.4c0.1-0.2,0.2-0.5,0.2-0.7
		c0-0.1,0.1-0.2,0.2-0.1c0,0,0.1,0,0.1,0c0,0,0,0,0.1,0c0.1-0.1,0.1-0.2-0.1-0.3c-0.1,0-0.2-0.1-0.3-0.1C5,8,4.9,7.9,4.9,7.6
		c0-0.1,0-0.2,0-0.3C4.9,7.2,5,7.1,5,7c0.1-0.1,0.3-0.2,0.4-0.3c0.3-0.1,0.5,0,0.7,0.1C6.3,7,6.4,7.1,6.5,7.3c0,0.1,0.1,0.1,0.2,0.1
		c0-0.1,0-0.3,0-0.5C6.8,6.8,7,6.7,7.2,6.6c0.5-0.2,0.9-0.6,1.1-1.1c0.1-0.3,0.3-0.7,0.4-1.1C9,4.7,9.3,4.9,9.5,5.1
		c0.5,0.5,1,0.8,1.6,1.1c0.3,0.2,0.7,0.2,1,0.1c0.1,0,0.3,0,0.4-0.1c0,0.1,0,0.1,0.1,0.2c0.1,0.4,0.2,0.9,0.2,1.3
		c0,0.1,0,0.3,0.1,0.5C12.9,8.5,12.8,8.9,13,9.3C13,9.2,13,9.2,13,9.3z"/>
	<path class="st4" d="M4.6,10.1c0-0.1,0.1-0.1,0.1-0.2C4.9,9.8,5,9.6,5,9.4c0.1-0.2,0.2-0.5,0.2-0.7c0-0.1,0.1-0.2,0.2-0.1
		c0,0,0.1,0,0.1,0c0,0,0,0,0.1,0c0.1-0.1,0.1-0.2-0.1-0.3c-0.1,0-0.2-0.1-0.3-0.1C5,8,4.9,7.9,4.9,7.6c0-0.1,0-0.2,0-0.3
		C4.9,7.2,5,7.1,5,7c0.1-0.1,0.3-0.2,0.4-0.3c0.3-0.1,0.5,0,0.7,0.1C6.3,7,6.4,7.1,6.5,7.3c0,0.1,0.1,0.1,0.2,0.1c0-0.1,0-0.3,0-0.5
		C6.8,6.8,7,6.7,7.2,6.6c0.5-0.2,0.9-0.6,1.1-1.1c0.1-0.3,0.3-0.7,0.4-1.1C9,4.7,9.3,4.9,9.5,5.1c0.5,0.5,1,0.8,1.6,1.1
		c0.3,0.2,0.7,0.2,1,0.1c0.1,0,0.3,0,0.4-0.1c0,0.1,0,0.1,0.1,0.2c0.1,0.4,0.2,0.9,0.2,1.3c0,0.1,0,0.3,0.1,0.5
		c0,0.3-0.1,0.6,0.1,0.9c0,0,0,0.1,0,0.1c0,0.1,0,0.2-0.1,0.4c-0.1,0.5-0.2,1-0.7,1.4c0,0,0,0,0,0c-0.2,0.3-0.5,0.5-0.8,0.6
		c-0.3,0.1-0.6,0.3-0.9,0.4c-0.2,0.1-0.3,0.2-0.4,0.4C10,12.7,10,13,10,13.3c0,0.2,0,0.3-0.2,0.3c-0.2,0.1-0.4,0.2-0.6,0.2
		c-0.2,0-0.4,0-0.7,0c-0.2,0-0.3-0.1-0.5-0.2c-0.1-0.1-0.2-0.2-0.2-0.4c0-0.2,0-0.4,0-0.7c0-0.1-0.1-0.3-0.2-0.4
		c-0.2-0.2-0.4-0.3-0.6-0.4c0,0-0.1,0-0.1,0c-0.1,0-0.2,0-0.3-0.1c-0.1,0-0.3-0.1-0.4-0.1c-0.1,0-0.1,0-0.2-0.1
		c-0.6-0.2-1-0.7-1.4-1.1C4.6,10.3,4.6,10.2,4.6,10.1z"/>
	<path d="M10.5,11.1c-0.2,0.2-0.4,0.2-0.7,0.3c-0.3,0-0.7-0.1-1-0.2c-0.2-0.1-0.3-0.3-0.5-0.4c0,0,0-0.1,0-0.2c0.1,0,0.1,0,0.2,0
		c0.1,0,0.1,0.1,0.2,0.1c0.2,0.1,0.4,0.2,0.7,0.3c0.3,0,0.6,0,0.9,0c0.1,0,0.2,0,0.4-0.1C10.7,10.9,10.6,11,10.5,11.1z"/>
	<path d="M10.2,9.2c0.1-0.3,0-0.6,0-0.9c0-0.1,0-0.1,0-0.1c0,0,0,0,0.1,0.1c0.2,0.4,0.1,0.9,0,1.3c0,0.1-0.1,0.2-0.1,0.3
		c0,0.1-0.1,0.1-0.2,0.1c0,0-0.1-0.1-0.1-0.1C9.8,9.8,9.7,9.7,9.6,9.5c-0.1-0.3-0.2-0.7-0.3-1c0-0.1,0-0.1,0.1-0.2
		c0,0.2,0.1,0.4,0.1,0.6c0,0.2,0.1,0.4,0.3,0.6C10.1,9.4,10.1,9.4,10.2,9.2z"/>
	<path d="M5.9,7.5c-0.2-0.2-0.3-0.2-0.5,0c0,0,0,0,0,0c0,0.1,0.2,0.3,0,0.4C5.3,7.9,5.2,7.7,5.3,7.5c0-0.2,0.2-0.3,0.3-0.4
		c0.1,0,0.2,0,0.3,0.1c0,0,0,0,0,0c0.1,0.1,0.2,0.2,0.1,0.4C6,7.6,6,7.6,5.9,7.5z"/>
	<path d="M10.5,6.8c0-0.1,0.1-0.3,0.2-0.3c0.1,0,0.3,0.1,0.3,0.3c0,0.1,0,0.2,0,0.3c0,0.1-0.2,0.2-0.3,0C10.5,7,10.5,6.9,10.5,6.8
		C10.5,6.8,10.5,6.8,10.5,6.8z"/>
	<path d="M8.9,6.9c0,0.1-0.1,0.2-0.2,0.2c-0.1,0-0.2,0-0.2-0.1c0-0.1,0-0.1,0-0.2c0-0.1,0-0.2,0.1-0.2c0.1,0,0.2,0,0.3,0.1
		C8.9,6.7,8.9,6.8,8.9,6.9z"/>
	<path class="st5" d="M12.2,4.8l1,0.3c0,0-0.8-1.5-4.2-2.1c0,0,0,0,0.7-0.2c0,0-1.6-0.7-4.3,0.2c0,0,0,0,0.3-0.7c0,0-1.9,0.5-2.4,4
		c0,0,0,0-0.3-1c0,0-0.9,2.9,1,5.4c0,0,1.1-0.2,1.2-2.2c0,0-0.3-0.6-0.6-1.2s0.9-1.7,1.9-0.4c0,0,1.2,0.2,2.4-1.6
		c0,0,2.9,2.1,4.1,1.2C13.1,6.5,13.1,5.7,12.2,4.8z"/>
</g>
<path d="M7.9,12.9C7.8,12.9,7.8,12.9,7.9,12.9c-2,0.2-2.5,2.1-2.5,2.1l0.1,0.1c1.6-2.1,2.2-1.7,2.2-1.7L7.9,12.9"/>
<path d="M10.2,13.1c1.6,0,2,1.1,2,1.1l-0.1,0.1c-0.6-0.8-1.8-0.9-1.8-0.9L10.2,13.1z"/>
<path class="st2" d="M7.9,15.8c-4.3,0-7.8-3.5-7.8-7.8s3.5-7.8,7.8-7.8s7.8,3.5,7.8,7.8S12.3,15.8,7.9,15.8z M7.9,1.1
	C4.1,1.1,1,4.2,1,8s3.1,6.9,6.9,6.9s6.9-3.1,6.9-6.9S11.7,1.1,7.9,1.1z"/>
</svg>
