<?xml version="1.0" encoding="utf-8"?>
<!-- Generator: Adobe Illustrator 22.0.1, SVG Export Plug-In . SVG Version: 6.00 Build 0)  -->
<svg version="1.1" id="Layer_1" xmlns="http://www.w3.org/2000/svg" xmlns:xlink="http://www.w3.org/1999/xlink" x="0px" y="0px"
	 viewBox="0 0 266.9 266.9" style="enable-background:new 0 0 266.9 266.9;" xml:space="preserve">
<style type="text/css">
	.st0{fill:#DDEADD;}
</style>
<path class="st0" d="M501,80h-30.7c-1.5,0-2.7,1.2-2.7,2.6v30.8c0,1.4,1.2,2.6,2.7,2.6H501c1.5,0,2.7-1.2,2.7-2.6V82.6
	C503.7,81.2,502.5,80,501,80z M478.3,110.7H473V93.5h5.3V110.7z M475.7,91.2c-1.7,0-3.1-1.4-3.1-3.1c0-1.8,1.4-3.1,3.1-3.1
	s3.1,1.4,3.1,3.1C478.8,89.8,477.4,91.2,475.7,91.2z M498.4,110.6h-5.3v-8.4c0-2,0-4.6-2.8-4.6s-3.2,2.2-3.2,4.4v8.5h-5.3l-0.1-17
	h5.1v2.3h0.1c0.7-1.4,2.5-2.8,5.1-2.8c5.4,0,6.4,3.6,6.4,8.2L498.4,110.6L498.4,110.6z"/>
<g>
	<path class="st0" d="M2.7,133c0-20.6-0.1-41.3,0-61.9c0-8.9,0.2-17.8,2.5-26.4C11.2,22.8,25.2,9,47.2,3.5
		c8.2-2.1,16.7-2.3,25.1-2.3c41.6-0.1,83.1-0.1,124.7,0c9.1,0,18.2,0.3,27,2.8c21.4,6.1,34.8,20.1,40.3,41.6
		c1.5,6,2.1,12.1,2.1,18.3c0,46.3,0.1,92.6,0,138.8c0,10.1-1.5,20.1-6,29.3c-8.1,16.7-21.4,27-39.5,31c-8.9,1.9-17.9,2.1-26.9,2.1
		c-40.5,0-80.9,0-121.4,0c-9.2,0-18.5-0.2-27.4-2.8c-21.2-6.2-34.6-20.1-40-41.5c-2.4-9.5-2.3-19.4-2.4-29.1
		C2.6,172,2.7,152.5,2.7,133C2.7,133,2.7,133,2.7,133z M133,231.4c0-0.2,0-0.3,0-0.5c10.6,0,21.2,0.1,31.8,0
		c8.6-0.1,17.3-0.3,25.7-2.4c20.3-5,33.3-17.7,38.9-37.9c2.3-8.2,2.6-16.7,2.7-25.1c0.1-21.6,0.1-43.3,0-64.9
		c-0.1-7.9-0.4-15.9-2.3-23.6c-5-20.1-17.4-33.2-37.4-38.8c-8.2-2.3-16.6-2.7-25.1-2.8c-25.5-0.4-51.1-0.9-76.6,0.5
		c-8.9,0.5-17.6,2.4-25.6,6.6c-15,8-23.5,20.8-26.7,37.3c-1.7,8.7-1.8,17.5-1.8,26.2c-0.1,19.8-0.1,39.7,0.1,59.5
		c0.1,8.9,0.6,17.8,3.1,26.5c4.5,15.1,13.6,26.2,28,32.8c8.2,3.8,16.9,5.3,25.9,5.5C106.8,230.9,119.9,231.1,133,231.4z"/>
	<path class="st0" d="M133,213.7c-12.4-0.2-24.9-0.4-37.3-0.8c-6.5-0.2-13-1-19.1-3.4c-11-4.4-17.7-12.5-20.2-23.9
		c-1.1-4.7-1.7-9.5-1.8-14.3c-0.3-23.3-0.3-46.5-0.3-69.8c0-7.2,0.3-14.4,2.1-21.4c3.9-14.9,14.5-24.3,30.3-26
		c9.1-1,18.4-1.3,27.6-1.4c17.2-0.2,34.4,0,51.6,0.1c7.2,0.1,14.5,0.3,21.6,2.1c14.7,3.9,23.9,14.4,26,29.7
		c1.4,10.3,1.4,20.6,1.4,30.9c0.1,16.4,0,32.8-0.2,49.3c-0.1,7.1-0.3,14.3-2.1,21.3c-3.9,14.7-13.6,23.1-28.3,25.5
		c-6.8,1.1-13.8,1.4-20.7,1.5c-10.1,0.2-20.2,0.1-30.4,0.1C133,213.4,133,213.6,133,213.7z M184.8,133.1c0-27.9-22.6-50.4-50.4-50.3
		c-28,0.1-50.3,22.6-50.3,50.7c0,27.5,22.7,50,50.4,50C162.2,183.4,184.8,160.8,184.8,133.1z M198.4,81c0-6.6-5.2-11.8-11.8-11.8
		c-6.5,0-11.8,5.2-11.8,11.7c0,6.6,5.2,11.9,11.8,11.9C193.1,92.7,198.4,87.4,198.4,81z"/>
	<path class="st0" d="M167.1,133.1c-0.1,18.3-14.8,32.8-33.1,32.7c-18-0.1-32.4-15-32.2-33.4c0.1-17.8,15-32.1,33.2-32
		C152.6,100.6,167.2,115.4,167.1,133.1z"/>
</g>
</svg>
