<?xml version="1.0" encoding="utf-8"?>
<!-- Generator: Adobe Illustrator 22.0.1, SVG Export Plug-In . SVG Version: 6.00 Build 0)  -->
<svg version="1.1" id="Layer_1" xmlns="http://www.w3.org/2000/svg" xmlns:xlink="http://www.w3.org/1999/xlink" x="0px" y="0px"
	 viewBox="0 0 848 299" style="enable-background:new 0 0 848 299;" xml:space="preserve">
<style type="text/css">
	.st0{fill:#FFFFFF;}
</style>
<g>
	<g>
		<path class="st0" d="M680,259c21.5-56.6,43-113.3,64.5-169.9c7.7-20.3,15.8-40.6,23.3-61c1.6-4.2,2.1-9.1,1.9-13.6
			C769.2,3.4,768.9,3.4,779,0c2.3,0,4.7,0,7,0c0.6,0.3,1.2,0.7,1.8,0.7c15.3,1.8,29.2,7.3,42.6,14.7c7,3.9,13.4,8.5,17.6,15.6
			c0,1.3,0,2.7,0,4c-0.8,1-1.4,2.3-2.4,3.1c-8.5,6.5-12.2,15.7-15.9,25.3c-26.7,70-53.6,140-80.3,210c-5.2,13.7-14.4,22.5-29.1,24.9
			c-0.4,0.1-0.8,0.5-1.2,0.7c-2.7,0-5.3,0-8,0c-1.1-0.4-2.1-0.8-3.2-1.1c-12.8-3.2-21.4-10.9-25.8-23.4c-0.8-2.2-1.3-4.4-2-6.6
			C680,265,680,262,680,259z M842.5,33.4c-1.8-2.3-2.8-4.2-4.3-5.3C821.3,14.7,802.1,7.1,780.5,6c-4.2-0.2-6.2,1.3-5.5,5.8
			c1.1,7.4-0.2,14.4-2.9,21.5c-13,33.5-25.8,67-38.6,100.6c-15.2,39.6-30.4,79.1-45.5,118.8c-4.2,11.1-2.4,21.4,5.4,30.3
			c7.7,8.8,17.6,11.7,28.9,8.9c11.4-2.8,17.7-10.8,21.7-21.4c25.2-66.2,50.5-132.3,76.1-198.4C825.5,58.2,828.1,42.7,842.5,33.4z"/>
		<path class="st0" d="M798,112c-5.6,14.7-11.3,29.4-16.9,44.1c-14.7,38.3-29.4,76.6-44,115c-3.5,9.1-10,14.5-19.6,15.6
			c-8.6,1-15.7-2.4-20.9-9.3c-5.4-7.2-6.2-15.2-2.9-23.6c11.9-31,24.1-61.9,35.5-93.2c5.8-15.9,16.5-25,32.7-27.9
			c13-2.4,23.5-8.8,32.5-18.1c1-1,1.7-2.3,2.5-3.5C797.2,111.4,797.6,111.7,798,112z M735.2,187.3c-3.7,0.1-7.2,3.9-7.1,7.6
			c0.2,3.6,3.6,6.9,7.2,6.9c3.8,0,7.3-3.5,7.3-7.3C742.6,190.7,739.1,187.2,735.2,187.3z M724.1,213.2c1.7-2.5,3.8-4.3,3.5-5.4
			c-0.4-1.5-2.6-2.6-4.1-3.8c-1.2,1.4-3.2,2.7-3.2,4.1C720.2,209.5,722.2,210.9,724.1,213.2z M760.4,167.3c-1.8,2.7-3.7,4.4-3.4,5.6
			c0.4,1.6,2.5,2.7,3.9,4c1.1-1.4,3.1-2.7,3.2-4.2C764.2,171.3,762.3,169.8,760.4,167.3z"/>
		<path class="st0" d="M824.1,33.5c-13.7-2.1-25.7-6.2-36-14.2c-1.4-1.1-2-3.2-3-4.8c1.8-0.6,3.6-1.7,5.4-1.6
			c13.1,0.9,24.8,5.6,35.3,13.2c1.7,1.2,2.5,3.6,3.8,5.4C827.5,32.2,825.5,33,824.1,33.5z"/>
	</g>
	<g>
		<path class="st0" d="M317.1,177.5c-12.5,10.1-23,20.5-35.2,27.8c-13.3,7.9-27.7,15.7-42.6,18.8c-29.4,6.1-45.2-14.1-35-42.3
			c10.6-29.4,47.1-51,77.6-45.9c15.6,2.6,20.5,14.9,10.7,27.3c-9,11.4-33.5,20.8-46.1,19.1c10-4.4,22.6-8.6,33.6-15.4
			c4.6-2.8,5.7-11.3,8.4-17.1c-6.8-0.8-14.8-4.3-20.1-1.9c-19.3,8.7-33,23.9-38.7,44.5c-1.7,6.1-0.2,15.8,3.8,20
			c3.6,3.7,13.9,4.7,19.3,2.4c33.5-14.9,63.2-34.8,79.8-69.3c18-37.4,41.2-71.3,72.3-98.8c11.2-9.9,25-17.3,38.6-24
			c8.6-4.2,19.2-4,26.4,4.4c7.4,8.6,4.3,17.9-0.3,26.7c-12.5,23.9-34.7,37.5-56,51.8c-8.1,5.4-17.1,9.5-27.2,11.6
			c1.9-1.4,3.7-2.7,5.6-4.1c20.9-16.1,42-32.1,62.6-48.5c4.1-3.2,7-8.3,9.4-13c1.5-3,1.1-6.9,1.5-10.4c-3.5-0.2-7.8-1.8-10.4-0.3
			C445.1,46.4,434.7,52,426,59.4c-29.6,25-52.9,55.3-74.2,86.8c13.2-7.1,25.8-15.7,39.7-20.6c6.2-2.2,17.5,0.5,21.7,5.3
			c3.4,3.8,1.7,15.3-1.6,21.2c-11.3,20.1-31.9,24.8-52.7,28c-3.6,0.5-7.3,0.5-11.2,0.7c10.8,17.4,35.4,29.7,54.7,27.7
			c-15.8,15.4-44.8,8.7-77.7-19.9c-2.2,18.5-4.2,34.7-6.1,50.3c-9.6-6-8.9-17.5-7.7-28.6C312.1,199.8,314.7,189.5,317.1,177.5z
			 M348.1,176.9c17.3-2,32.3-6,41.9-19.1c3.2-4.3,1.7-12,2.3-18.1c-5.8-0.4-13.1-3.1-17-0.6c-11.3,7.3-21.4,16.6-31.7,25.5
			c-2.1,1.8-4.3,6.9-3.5,8C342.3,175,346.2,176,348.1,176.9z"/>
		<path class="st0" d="M176.4,168.7c-3.3,2.1-6.7,4.1-10,6.2c-0.6-0.5-1.1-1-1.7-1.5c5.5-6,11.6-11.6,16.2-18.3
			c4.7-6.7,11.9-13.6,3.5-24.7c11.2,0.7,15.9,6.7,15,14.9c-1.4,13-2.5,26.8-7.8,38.5c-20.8,45.6-49.2,84.7-97.7,104.8
			c-18.5,7.7-37.4,9.9-57,4.7c-21.1-5.6-33-19.2-36.9-43.8c2.3,3.3,3.2,4.2,3.7,5.2c0.5,1.1,0.7,2.4,1.2,3.5
			c9.6,27.1,36.6,39.7,63.1,28.8c33.4-13.8,57.4-39.2,78.4-67.3c11.8-15.7,21.7-32.8,32.5-49.3C178,170,177.2,169.4,176.4,168.7z"/>
		<path class="st0" d="M510.9,155.5c9.2-14.7,18.1-29.6,27.5-44.1c7-10.7,14.4-10.9,23.6,0.8c-1.3,0.5-2.9,1.7-4.4,1.7
			c-16.6-0.4-20.9,11.8-25.7,24c-10.9,28.1-19.7,57.4-33.8,83.7c-18.9,35.2-47.2,62.3-87.8,71.7c-12.9,3-27.1,3.3-40.2,1.2
			c-22.6-3.5-34.7-17.8-39.9-44.1c2.2,3.3,3.4,4.5,3.9,6c9.6,28.5,35.3,41.1,64.1,31.9c23.8-7.6,42-23.1,58-41.3
			c23.1-26.2,41.9-55.4,55.7-87.6C511.6,158.2,511.3,156.9,510.9,155.5z"/>
		<path class="st0" d="M510.9,155.5c0.4,1.3,0.7,2.7,1.1,4c-14.1,14.5-27.8,29.4-42.6,43.3c-5.2,4.8-12.5,8.5-19.4,10.1
			c-14.2,3.2-22.6-5-18.5-18.9c3.2-10.8,9.8-20.7,16-30.3c6-9.2,13.5-17.3,18.6-27.9c-23,6.9-36.4,27-54.8,40.1
			c-0.7-0.8-1.4-1.6-2.1-2.4c15.6-14.1,30.3-29.4,47.2-41.7c5.5-4,18.4-3.1,25,0.7c9.2,5.3,6.5,16.3,1.7,24.6
			c-5.3,9.3-12.1,17.8-18,26.8c-3.5,5.3-6.4,11-8,17.9C481.9,194.1,493.6,171.5,510.9,155.5z"/>
		<path class="st0" d="M229.2,103.5c-9.4,7.2-15.5,12.6-22.4,16.4c-1.2,0.6-8.1-5-8.8-8.5c-1.4-6.7,9.6-18.1,16.5-17.2
			C218.3,94.6,221.7,98.5,229.2,103.5z"/>
		<path class="st0" d="M645.8,222.7c8-1.4,16.2-4.4,22.9-8.8c13.4-8.8,25.9-19.1,40.4-30.1l8.6-22.5c-12.4,21.7-32.1,35-53.4,47.4
			c-6.7,3.9-16.2,3-24.4,4.3c1-8.5-0.7-18.7,3.4-25.3c16-25.5,33.4-50.2,51.3-74.6c12-16.3,26.2-31,38-47.5
			c5.8-8.1,1.5-14.6-8.6-14.6c-16,0-30,5.8-42.1,16.7c3.9-1.2,7.9-2.4,12.2-3.7c0.5,2.2,1.2,3.5,1,4.5c-0.7,2.8-1.3,5.9-3,8.1
			c-22.5,31.2-43.3,64.1-68.7,92.8c-14.2,16.1-36.2,25.4-55,37.2c-2.7,1.7-9.4,1.1-11.2-1c-2.4-2.7-2.9-8.3-2.1-12.2
			c1.3-6,3.9-11.8,6.7-17.3c16.3-31.6,38.3-59,62.5-84.9c9-9.6,17.4-20.1,24.3-31.3c6.1-9.9,0.4-18.4-10.7-16
			c-13.8,3-27,8.6-40.4,13.1c0.4,1.3,0.8,2.5,1.2,3.8c3.8-0.9,7.6-1.7,15.1-3.4c-9.5,25.1-24.4,43.8-38.3,62.8
			c-14.1,19.2-29.7,37.4-45.9,57.7c5.4-3.6,9.2-6.2,13.9-9.3c-2.3,7.3-4.3,13.2-5.8,19.2c-4.5,17.4,4.9,30.7,22.3,27.3
			c14.4-2.8,28-11,41-18.6c8.8-5.1,15.9-13.1,24.8-20.7c-1.9,8.8-4.2,16-4.9,23.3C619.6,215.5,629.8,225.6,645.8,222.7z"/>
	</g>
</g>
</svg>
