<?xml version="1.0" encoding="utf-8"?>
<!-- Generator: Adobe Illustrator 22.0.1, SVG Export Plug-In . SVG Version: 6.00 Build 0)  -->
<svg version="1.1" id="Layer_1" xmlns="http://www.w3.org/2000/svg" xmlns:xlink="http://www.w3.org/1999/xlink" x="0px" y="0px"
	 viewBox="0 0 16 16" style="enable-background:new 0 0 16 16;" xml:space="preserve">
<style type="text/css">
	.st0{fill:#00AFAF;}
	.st1{fill:#2C3E50;}
	.st2{fill:#FFFFFF;}
</style>
<path class="st0" d="M-5,5.7"/>
<circle class="st1" cx="8" cy="8.1" r="8"/>
<path class="st2" d="M7.9,14.9c1,0,2-0.2,2.9-0.6c-0.3-0.3-0.7-0.6-1.1-0.8l0,0c-0.1,0.6-0.7,0.9-1.4,0.9c-0.8,0-1.4-0.4-1.4-1.2
	v0.1c-0.7,0.1-1.4,0.5-1.8,1C5.9,14.7,6.9,14.9,7.9,14.9z"/>
<g>
	<path class="st2" d="M12.9,7.3L12.9,7.3c-0.1,0.3-0.1,0.8-0.2,1.4c0.1,0,0.2-0.1,0.3-0.3C13.2,8.1,13.1,7.5,12.9,7.3z"/>
	<path class="st2" d="M12.2,8.3c0-0.4-0.1-0.8-0.2-1.2c-1.3,0.3-3.5-1.3-3.5-1.3C7.3,7.5,6.2,7.3,6.2,7.3c-0.5-0.6-1-0.7-1.4-0.5
		l0,0C4.2,7,4.1,7.7,4.3,8.2c0.1,0.4,0.4,0.7,0.6,0.9c0,0.2-0.1,0.4-0.1,0.6c0.2,0.5,0.5,1,0.8,1.5c0.4,0.4,1,0.6,1.5,0.8v0.1l0,0
		v0.1v1c0,0.6,0.5,0.9,1.1,0.9s1.2-0.3,1.2-0.9v-1l0,0V12C11,11.5,12.2,10.1,12.2,8.3z M5.4,7.7L5.4,7.7C5.2,7.4,5.1,7.4,4.9,7.6
		c0,0.1,0.2,0.3,0,0.4C4.8,8,4.7,7.8,4.8,7.6c0-0.2,0.2-0.3,0.3-0.4c0.1,0,0.2,0,0.3,0.1S5.5,7.5,5.4,7.7z M8.1,9.1
		c0,0.4,0.4,0.9,0.6,0.9s0.6-0.4,0.7-0.8l0,0c0,0.6-0.3,1-0.7,1C8.3,10.1,8.1,9.7,8.1,9.1L8.1,9.1z M7.3,7.9c0-0.1,0-0.3,0.1-0.3
		s0.3,0,0.4,0.1c0,0,0,0.1,0,0.3c0,0.2-0.1,0.3-0.2,0.3s-0.3,0-0.3-0.1S7.3,8,7.3,7.9z M7.2,10.7l2.4,0.4
		C9.2,11.2,8.1,11.8,7.2,10.7z M10.2,8c0,0.1-0.1,0.3-0.3,0.3s-0.3,0-0.3-0.1s0-0.1,0-0.3s0-0.3,0.1-0.3s0.3,0,0.4,0.1
		C10.2,7.7,10.2,7.9,10.2,8z"/>
	<path class="st2" d="M7.9,1.1C4.1,1.1,1,4.2,1,8c0,2.6,1.5,4.9,3.6,6.1C5.2,13.4,6,13,6.9,12.8v-0.6c-0.3-0.1-0.5-0.2-0.8-0.4
		l0.3,0.3l-1.3-0.6l0.4,0.7c0,0-0.7-0.4-1.6-1.4H3.8c-1.8-2.4-1-5.1-1-5.1c0.3,1,0.3,1,0.3,1c0.5-3.3,2.3-3.8,2.3-3.8
		C5.1,3.6,5.1,3.6,5.1,3.6c2.6-0.9,4.1-0.2,4.1-0.2C8.5,3.6,8.5,3.6,8.5,3.6c3.2,0.6,4,2,4,2l-0.7-0.2c1.5,1.2,1.6,2.1,1.6,2.1
		l-0.1-0.1c0.1,0.3,0.2,0.8,0,1.2C13.1,8.8,12.9,9,12.7,9c-0.1,0.4-0.3,0.8-0.6,1.1c-0.5,1-1.3,1.7-2.3,2.1V13
		c0.6,0.2,1.1,0.6,1.5,1.1c2.2-1.2,3.6-3.5,3.6-6.1C14.8,4.2,11.7,1.1,7.9,1.1z"/>
</g>
</svg>
