<?xml version="1.0" encoding="utf-8"?>
<!-- Generator: Adobe Illustrator 21.0.0, SVG Export Plug-In . SVG Version: 6.00 Build 0)  -->
<svg version="1.1" id="Layer_1" xmlns="http://www.w3.org/2000/svg" xmlns:xlink="http://www.w3.org/1999/xlink" x="0px" y="0px"
	 viewBox="0 0 36.1 36" style="enable-background:new 0 0 36.1 36;" xml:space="preserve">
<style type="text/css">
	.st0{fill:#DDEADD;}
	.st1{fill:#D98427;}
	.st2{fill:#FFFFFF;}
	.st3{fill:#C1958F;}
	.st4{opacity:0.89;}
	.st5{fill:#EDC24D;}
	.st6{fill:#CCA544;}
	.st7{clip-path:url(#SVGID_2_);}
	.st8{fill:#B4917B;}
	.st9{fill:#6F6F6F;}
	.st10{clip-path:url(#SVGID_4_);}
	.st11{fill:none;stroke:#B0C9AF;stroke-miterlimit:10;}
	.st12{fill:#6A8542;}
	.st13{fill:#FFFFFF;stroke:#000000;stroke-miterlimit:10;}
	.st14{fill:#F0D1B5;}
	.st15{fill:#3FBDBB;}
	.st16{fill:#DDEADD;stroke:#000000;stroke-miterlimit:10;}
	.st17{opacity:0.73;fill:#FFFFFF;enable-background:new    ;}
</style>
<path class="st0" d="M33.4,0H2.7C1.2,0,0,1.2,0,2.6v30.8C0,34.8,1.2,36,2.7,36h30.7c1.5,0,2.7-1.2,2.7-2.6V2.6
	C36.1,1.2,34.9,0,33.4,0z M10.7,30.7H5.4V13.5h5.3V30.7z M8.1,11.2C6.4,11.2,5,9.8,5,8.1C5,6.3,6.4,5,8.1,5c1.7,0,3.1,1.4,3.1,3.1
	C11.2,9.8,9.8,11.2,8.1,11.2z M30.8,30.6h-5.3v-8.4c0-2,0-4.6-2.8-4.6s-3.2,2.2-3.2,4.4v8.5h-5.3l-0.1-17h5.1v2.3h0.1
	c0.7-1.4,2.5-2.8,5.1-2.8c5.4,0,6.4,3.6,6.4,8.2V30.6z"/>
<g>
	<path d="M169.4-263.1c0.1,0.2,0.2,0.3,0.3,0.5c-0.2,0.1-0.5,0.3-0.7,0.4c0-0.2-0.1-0.5-0.1-0.6C168.9-263,169.2-263,169.4-263.1z"
		/>
	<g>
		<polygon class="st1" points="183.7,-295.8 67.9,-295.8 66.9,-211.8 65.7,-211.8 65.7,-295.8 58.8,-295.8 58.8,-204.7 
			185.4,-205.6 		"/>
		<path class="st2" d="M96.9-227.7c-1.5-2.3-3.1-4.7-4.7-7.1c-0.8,0.6-1.5,1.4-2.3,1.9c-1.3,0.8-2.7,1.9-4.1,2.3
			c-4.2,1.2-8.1-2.1-9.5-8c-2.2-9.6-1.2-18.7,3-27.1c2.3-4.5,6-6.3,9.8-7.7c0.8-0.3,1.8,0.3,2.6,1.5c5,7.3,5.2,15.9,4.9,24.8
			c-0.1,1.8-0.5,3.8-1.1,5.5c-0.7,2-0.5,3.6,0.5,5.3c1.5,2.5,1.4,5.5,1.5,8.3C97.3-227.9,97.1-227.8,96.9-227.7z M88.4-267.7
			c-3.9,0.6-6.7,2.8-8.2,7.2c-0.5,1.4-0.5,2.9-0.9,4.3c-1.6,4.9-1.1,9.9-0.5,15c0.3,2.4,1.1,4.4,3.1,5c2.7,0.9,5.4,0.8,7.8-1.7
			c-1-2.3-2.2-4.6-0.6-7.5c1.4,1.3,2.7,2.5,3.9,3.6c2.3-4.3,1.3-8.7,1-13c-0.1-2.5-0.8-4.8-2.1-6.8
			C90.5-263.4,89.6-265.4,88.4-267.7z"/>
		<path class="st2" d="M154.6-274.4c1.4,7.2,1.1,14.3,2.1,21.9c5.6-6.2,10.1-13,15.4-18.9c0.5,6.1,0.1,7-6.7,15.3
			c1.7,9.4,5.6,18.5,3.4,28.9c-1.1-0.7-1.7-2-2.1-3.6c-1.5-6-3.1-11.9-4.6-17.8c-0.2-0.8-0.5-1.5-0.7-2.3c-0.3,0.1-0.5,0.2-0.7,0.3
			c-4.3,2.6-4.3,7.6-4.1,12.5c0.1,3.8,0,7.6-1.2,11.3c-1.6-0.7-1.5-2.3-1.5-3.6c-0.2-4.3-0.4-8.7-0.6-13c-0.3-8.6-0.6-17.1-0.9-25.7
			C152.3-271.1,152.2-273,154.6-274.4z"/>
		<path class="st2" d="M104.7-273.7c0.2,2.4,0.3,4.4,0.4,6.4c0.7,9.4,1.3,18.7,2,28.1c0.1,0.9,0.3,1.9,0.7,2.7
			c0.8,1.8,1.9,3.1,3.6,2.9c1.8-0.1,2.7-1.5,3.1-3.5c0.2-0.8,0.5-1.6,0.5-2.4c0.2-4.8,0.6-9.5,0.4-14.3c-0.2-4.9,0.4-9.8-0.9-14.6
			c-0.6-2.3,0.8-4,2.4-6.2c0.5,2.8,1.1,4.9,1.2,7.2c0.3,9.8,0.3,19.6-0.4,29.3c-0.2,3-0.5,5.9-2.3,8.3c-3.8,5.1-9.3,2.6-12.1-2.9
			c-1.6-3.3-0.9-5.7-1-9.6c0-5.3,0-10.7-0.1-16c0-3.8-0.3-7.6-0.3-11.4C102-272.1,102-272.1,104.7-273.7z"/>
		<path class="st2" d="M148.8-242.4c0.3,3.1,0.1,6.1-0.8,9c-1.6,5.2-8.2,7.8-11.9,2.4c-2.1-3.1-3.6-6.6-3.9-10.6
			c-0.3-4.7-0.4-9.5-0.3-14.3c0.1-5.3,2.3-9.7,5.1-13.3c2-2.6,4.9-3.9,8-4c1.8,0,3.3,1.3,3.8,3.3c0.6,2.3,0.5,4.9,0.8,8.2
			c-1.4-1.9-2.2-3.1-3.1-4.2c-1.5-1.7-2.7-1.8-4.5-0.6c-3.4,2.2-5.5,5.4-6.4,10.2c-0.9,4.9-0.9,9.8-0.3,14.6
			c0.6,5.4,3.9,8.7,7.6,8.2c2.5-0.4,3.4-1.3,4-4.4c0.3-1.5,0.6-3.1,0.9-4.6C148.2-242.5,148.5-242.4,148.8-242.4z"/>
		<path class="st2" d="M126.7-226.3c-3.4-2.6-2.7-6.5-2.8-9.9c0-10.5,0.2-21,0.4-31.5c0.1-2.4,0.1-5.1,2.1-7.2
			C128-258.5,128.2-242.6,126.7-226.3z"/>
		<polygon class="st3" points="58.8,-204.7 65.7,-212 65.7,-227.5 59,-220.8 		"/>
		<polygon class="st1" points="-46,-303.2 -41.4,-298.7 -45.7,-294.6 -41.4,-290.5 -45.7,-286.3 -41.4,-282.2 -45.7,-278.1 
			-41.4,-274 -45.7,-269.9 -41.4,-265.8 -45.7,-261.6 -41.4,-257.5 -45.7,-253.4 -41.4,-249.3 -45.7,-245.2 -41.4,-241.1 
			-45.7,-236.9 -41.4,-232.8 -45.7,-228.7 -41.4,-224.6 -45.7,-220.5 -41.4,-216.3 -46,-212 65.7,-212 65.7,-303.2 		"/>
		<path class="st2" d="M10-253.5c0.5,4.5-0.5,9.2-1.9,13.7c-1.2,3.7-2.9,7.3-6.6,7.3c-3.4,0-5.3-3-6.7-6.5c-2.2-5.3-2.2-11-1.8-16.7
			c0.3-4.3,1.3-8.6,1.8-12.9c0.4-3.1,2.3-5.5,2-9c-0.2-1.8,2-3.1,4-3.1c1.7,0,3.2,0.2,3.7,2.8c0.2,1.1,0.4,2.4,1,3.2
			c4.1,5.7,4.1,12.9,4.5,19.9C10-254.5,10-254.2,10-253.5z M-1.3-274c-0.2,0.5-0.5,1-0.5,1.6c-0.6,5.6-1.4,11.3-1.8,17
			c-0.2,3,0.2,6.2,0.8,9.1c0.5,2.2,1.5,4.4,2.7,6c2.6,3.4,5.5,2.2,6.2-2.5c1.4-9.9-0.1-19.2-3.8-28C1.6-272.4,0.6-274-1.3-274z"/>
		<path class="st2" d="M53.7-234.4c-0.3-5.8-0.6-11.5-0.9-17.3c-2.9,0-5.7,0-9,0c0.3,4.8,0.5,9,0.7,13.3c0.2,3.4-0.8,6.1-3.2,9
			c-2.7-18,0-35.3-1.7-52.5c2.1-0.1,2.3,1.4,2.5,2.9c0.7,5.9,2.6,11.5,1.8,17.6c-0.1,1.1,0.4,2.2,0.6,3.3c2.8,0,5.4,0,8,0
			c0.8-8.3-1.6-16.5,0.6-25.7c0.9,1.6,1.6,2.3,1.6,3c-0.3,6.2,1.7,12.1,1.9,18.2c0.1,5.8,0,11.7-0.1,17.5c-0.1,3.1,0.4,6.2-1,9.1
			c-0.3,0.6-0.6,1.2-0.8,1.8C54.3-234.3,54-234.3,53.7-234.4z"/>
		<path class="st2" d="M-20.3-274.2c-2.7,0-4.9,0-7.2,0c-0.7-4.1-0.3-5.3,2.7-5.7c3.9-0.5,7.8-0.8,11.7-0.9c1.2-0.1,2.4,0.6,3.9,1
			c-0.9,1.9-1.6,3.3-2.4,5c-1,0.1-2.2,0.1-3.6,0.2c0,3.6-0.4,7.2,0.1,10.6c1.2,8,1.3,15.8-0.9,23.7c-2.4,8.6-9.1,10.7-14.4,4.2
			c-1.5-1.8-3-3.7-2.1-6.8c0.1-0.4,0.4-0.7,0.9-1.5c1.4,1,2.8,2.2,4.2,3.2c1,0.7,2,1.5,3.1,1.9c3.6,1.4,4.9,0.2,4.8-4.6
			c-0.1-7.1-0.5-14.3-0.7-21.4C-20.4-268.1-20.3-270.9-20.3-274.2z"/>
		<path class="st2" d="M30.1-269.4c-0.8-1.6-1.4-3.3-2.3-4.8c-0.5-0.9-1.3-1.8-2.1-2.1c-2-0.9-3.3,0.4-3.4,3.1
			c0,0.7-0.1,1.5,0.1,2.2c1.8,5.1,2.5,11,5.6,15.3c2.4,3.3,3,7.6,3.9,11.6c0.8,3.6-0.6,7.3-2.2,10.3c-1.7,3.2-7.4,3.5-10.2,1.2
			c-3.6-2.8-3.8-7.6-4.9-12.8c4.1,5.4,7.6,10.6,13.9,7.8c-1.5-5.2-3.2-9.8-5.3-14.3c-2.9-6-5.3-12.6-4.6-20.1c0.4-4.5,3-8.6,6.5-9.7
			c3.6-1.2,6.8,1.9,6.6,6.6c-0.1,2-0.6,3.9-0.9,5.9C30.5-269.3,30.3-269.3,30.1-269.4z"/>
	</g>
	<g>
		<g class="st4">
			<path class="st2" d="M264-126.6c0.5,0.3,0.9,0.4,1.2,0.6c2.4,1.3,2.4,4.2,0,5.4c-0.8,0.5-1.7,0.9-2.5,1.4
				c-0.6,0.3-1.1,0.6-1.9,0.4c-0.3-0.5-0.5-1-0.5-1.6c-0.1-1.6-0.2-3.1-0.2-4.7c-0.1-2.2-0.3-4.4-0.7-6.6c0,0,0-0.1,0.1-0.3
				c1-0.4,1.7-1.2,2.9-1.4c1.6-0.3,3.4,0.2,4.1,1.5c0.5,0.9,0.5,1.8,0.1,2.7c-0.3,0.7-0.8,1.4-1.5,2
				C264.7-127,264.4-126.8,264-126.6z M261.4-126.9c1.7-0.3,2.7-1.1,3.6-2.1c0.6-0.6,0.5-1.3,0.3-2c-0.1-0.2-0.3-0.4-0.5-0.6
				c-0.9-0.5-2.5-0.4-3.3,0.2c-0.3,0.2-0.6,0.5-0.5,0.9C260.9-129.4,260.8-128.2,261.4-126.9z M261.3-125.2c0,1.5-0.1,2.9,0.1,4.3
				c0,0.2,0.2,0.4,0.4,0.7c1.2-0.5,2.2-0.9,3.1-1.5c1.1-0.8,1-1.9-0.1-2.6C263.9-125.1,262.7-125.2,261.3-125.2z"/>
			<path class="st2" d="M273.4-119.1c-0.9-1.2-0.8-2.4-0.9-3.5c-0.1-1.2-0.1-2.5-0.1-3.7c0.1-1.7-0.3-3.5-0.5-5.2c0-0.4,0-0.9,0-1.4
				c1.2-0.5,2.4-0.9,3.8-0.6c1.5,0.3,2.8,0.8,3.9,1.8c1.2,1.1,1.9,2.3,2.1,3.8c0.4,2.5-0.6,4.5-2.5,6.3c-1.1,1-2.4,1.7-3.9,2.1
				c-0.4,0.1-0.7,0.3-1.1,0.4C273.9-119.1,273.7-119.1,273.4-119.1z M273.3-131.6c0.2,1.1,0.4,2.2,0.5,3.4c0.1,1.1,0.1,2.3,0.1,3.4
				c0,1.2,0.1,2.5,0.1,3.8c0.3,0,0.6,0.1,0.8,0c2.7-0.6,6.3-3.4,5.5-6.9c-0.5-2.5-2.4-4-5.3-4.2
				C274.4-132.2,273.7-132.2,273.3-131.6z"/>
			<path class="st2" d="M353.8-125.4c-0.8-0.1-1.4,0.1-1.7,0.5c-0.2,0.3-0.3,0.7-0.3,1.1c0,1,0.1,1.9,0.3,2.9
				c0.1,0.7-0.1,1.1-0.9,1.3c-0.8-0.5-0.8-1.2-0.8-1.9c-0.1-1.4-0.2-2.7-0.1-4.1c0-1.7-0.2-3.4-0.7-5.1c-0.1-0.4-0.1-0.9-0.1-1.3
				c1.3-1.1,2.8-1.6,4.4-2.1c2.6-0.8,5.4,0.4,5.4,3.3c0,1.2-0.4,2.3-1.6,3.2c-0.6,0.4-1,0.9-1.6,1.5c0.1,0.3,0.2,0.7,0.4,1
				c0.5,0.9,1.1,1.8,1.7,2.8c0.3,0.5,0.7,1,1,1.5c0.2,0.3,0.3,0.6,0.4,1c0.1,0.3-0.4,0.8-0.8,0.9c-0.5,0.1-0.8,0-1-0.4
				s-0.5-0.7-0.7-1.1c-0.9-1.5-1.8-3.1-2.7-4.6C354.2-125,354-125.2,353.8-125.4z M351.8-126.6c1-0.2,1.9-0.4,2.6-0.6
				c1.3-0.4,2.4-1.1,3-2.2c0.8-1.3-0.2-2.8-1.9-3c-1.5-0.1-2.8,0.3-4,1.1c-0.4,0.2-0.4,0.6-0.3,0.9c0.1,0.8,0.2,1.7,0.3,2.6
				C351.6-127.5,351.7-127.1,351.8-126.6z"/>
			<path class="st2" d="M242-121.7c0.6-0.2,0.8-0.8,1.1-1.3s0.5-1,0.7-1.5c0.6-0.3,1.1-0.2,1.4,0.2c0.5,0.5,1,1,1.5,1.5
				c0.4,0.4,0.6,0.9,1.3,1.2c0.3-0.4,0.2-0.9,0.3-1.3c0-0.5,0-1,0.1-1.5c0-0.5,0.1-0.9,0.1-1.4s0.1-0.9,0.1-1.4s-0.1-0.9-0.1-1.4
				s0-1,0-1.5s0-0.9,0.1-1.4c0-0.4,0.1-0.9,0.2-1.4c0.4,0.1,0.7,0.1,0.9,0.3s0.3,0.4,0.3,0.7c-0.1,3.5-0.2,7-0.4,10.5
				c0,0.7,0,1.4-0.9,1.9c-0.9-0.2-1.6-0.7-2.1-1.4c-0.5-0.7-1.1-1.4-1.9-2c-1.1,1.1-1.4,2.7-3.1,3.5c-0.2-0.2-0.5-0.4-0.7-0.6
				c-0.2-0.3-0.3-0.6-0.3-0.9c-0.5-2.2-1.1-4.4-1.2-6.6c0-1-0.4-2.1-0.6-3.2c-0.1-0.3-0.1-0.7,0-1c0-0.1,0.2-0.3,0.3-0.3
				c0.2,0,0.5,0,0.6,0.2c0.2,0.3,0.4,0.6,0.5,1c0.2,1.5,0.3,3,0.6,4.5c0.2,1.5,0.6,2.9,0.9,4.3C241.7-121.8,241.9-121.8,242-121.7z"
				/>
			<path class="st2" d="M328.1-125c-0.1,0.8-0.1,1.8-0.6,2.7c-0.5,0.9-1.3,1.6-2.3,2.2c-1.2,0.7-2.8,0.4-3.6-0.7
				c-0.8-1.1-1.6-2.2-1.5-3.6c0-0.5-0.1-0.9-0.2-1.4c-0.3-2.3,0-4.5,1.2-6.6c0.4-0.6,0.9-0.9,1.6-0.8c0.8,0.1,1.7,0.3,2.5,0.6
				c0.6,0.2,1,0.6,1.2,1.1C327.6-129.4,328.3-127.4,328.1-125z M326.8-125.7c0-1.6-0.6-3.1-1.1-4.5c-0.1-0.2-0.2-0.5-0.4-0.7
				c-0.5-0.5-1.1-0.6-1.8-0.2c-0.2,0.1-0.4,0.2-0.6,0.1c-0.7-0.1-0.9,0-1.1,0.4c-0.4,1-0.6,2.1-0.4,3.2c0.1,0.8,0.3,1.6,0.3,2.5
				c0,1,0.4,1.8,0.9,2.6c0.6,1,1.3,1.1,2.4,0.6c0.7-0.3,1.2-0.8,1.3-1.4C326.5-124,326.6-124.9,326.8-125.7z"/>
			<path class="st2" d="M285.5-126.1c-0.2,1.5-0.4,2.9,0.2,4.4c0.7,0,1.5,0.1,2.3,0.1c0.7,0,1.4-0.1,2.3-0.1
				c0.2,0.1,0.5,0.3,0.6,0.5c0.4,0.6,0.1,1.1-0.6,1.2c-0.5,0.1-1,0-1.6,0.1c-0.8,0.1-1.7,0.1-2.5,0.2c-0.7,0.1-1.3-0.1-1.9-0.5
				c-0.4-1.1-0.5-2.2-0.4-3.3c0.2-2.5,0.1-5-0.6-7.5c0-0.2-0.1-0.3-0.1-0.5c-0.1-0.6,0.2-1,0.9-1.1c1.8-0.3,3.6-0.5,5.4-0.7
				c1-0.1,1.3,0.2,1.4,1.3c-0.4,0.4-1,0.4-1.6,0.4c-1.2,0.2-2.5,0.3-3.7,0.5c-0.5,0.1-0.8,0.4-0.7,0.8c0.1,0.6,0.3,1.2,0.5,1.8
				c0.9,0.3,1.8,0.1,2.7,0.1c0.5,0,0.9-0.1,1.4-0.1c0.4,0,1,0.4,1.2,0.8c0,0.1,0,0.4-0.1,0.4c-0.3,0.2-0.6,0.5-0.9,0.5
				c-0.9,0.2-1.8,0.2-2.7,0.3C286.4-126.3,286-126.2,285.5-126.1z"/>
			<path class="st2" d="M305.9-126.1c-0.2,1.5-0.4,2.9,0.2,4.4c0.7,0,1.5,0.1,2.3,0.1c0.7,0,1.4-0.1,2.3-0.1
				c0.2,0.1,0.5,0.3,0.6,0.5c0.4,0.6,0.1,1.1-0.6,1.2c-0.5,0.1-1,0-1.6,0.1c-0.8,0.1-1.7,0.1-2.5,0.2c-0.7,0.1-1.3-0.1-1.9-0.5
				c-0.4-1.1-0.5-2.2-0.4-3.3c0.2-2.5,0.1-5-0.6-7.5c0-0.2-0.1-0.3-0.1-0.5c-0.1-0.6,0.2-1,0.9-1.1c1.8-0.3,3.6-0.5,5.4-0.7
				c1-0.1,1.3,0.2,1.4,1.3c-0.4,0.4-1,0.4-1.6,0.4c-1.2,0.2-2.5,0.3-3.7,0.5c-0.5,0.1-0.8,0.4-0.7,0.8c0.1,0.6,0.3,1.2,0.5,1.8
				c0.9,0.3,1.8,0.1,2.7,0.1c0.5,0,0.9-0.1,1.4-0.1c0.4,0,1,0.4,1.2,0.8c0,0.1,0,0.4-0.1,0.4c-0.3,0.2-0.6,0.5-0.9,0.5
				c-0.9,0.2-1.8,0.2-2.7,0.3C306.8-126.3,306.3-126.2,305.9-126.1z"/>
			<path class="st2" d="M342-126.1c-0.2,1.5-0.4,2.9,0.2,4.4c0.7,0,1.5,0.1,2.3,0.1c0.7,0,1.4-0.1,2.3-0.1c0.2,0.1,0.5,0.3,0.6,0.5
				c0.4,0.6,0.1,1.1-0.6,1.2c-0.5,0.1-1,0-1.6,0.1c-0.8,0.1-1.7,0.1-2.5,0.2c-0.7,0.1-1.3-0.1-1.9-0.5c-0.4-1.1-0.5-2.2-0.4-3.3
				c0.2-2.5,0.1-5-0.6-7.5c0-0.2-0.1-0.3-0.1-0.5c-0.1-0.6,0.2-1,0.9-1.1c1.8-0.3,3.6-0.5,5.4-0.7c1-0.1,1.3,0.2,1.4,1.3
				c-0.4,0.4-1,0.4-1.6,0.4c-1.2,0.2-2.5,0.3-3.7,0.5c-0.5,0.1-0.8,0.4-0.7,0.8c0.1,0.6,0.3,1.2,0.5,1.8c0.9,0.3,1.8,0.1,2.7,0.1
				c0.5,0,0.9-0.1,1.4-0.1c0.4,0,1,0.4,1.2,0.8c0,0.1,0,0.4-0.1,0.4c-0.3,0.2-0.6,0.5-0.9,0.5c-0.9,0.2-1.8,0.2-2.7,0.3
				C342.8-126.3,342.4-126.2,342-126.1z"/>
			<path class="st2" d="M331.5-125.2c0.2,1.6,0.4,3.2,0.6,4.7c0.1,0.4-0.1,0.8-0.5,1.1c-0.1,0.1-0.3,0.1-0.6,0.2
				c-0.1-0.3-0.2-0.5-0.3-0.7c-0.1-0.7-0.2-1.4-0.3-2.2c-0.2-1.7-0.4-3.5-0.5-5.2c-0.1-1.1-0.3-2.2-0.8-3.3
				c-0.4-0.8-0.2-1.1,0.6-1.5c0.6-0.3,1.3-0.6,1.9-0.9c2.7-1.5,6,0.3,6.6,2.2c0.1,0.3,0.1,0.6-0.1,0.9c-0.4,0.8-0.7,1.5-1.3,2.2
				c-0.6,0.8-1.5,1.2-2.6,1.4C333.4-126.1,332.4-125.8,331.5-125.2z M331.2-127.2c1.6-0.1,2.8-0.5,3.9-1c0.7-0.3,1.2-0.9,1.5-1.5
				c0.3-0.7,0.1-1.1-0.5-1.7c-1.2-1-3.8-0.9-5.2,0.4c-0.1,0.1-0.2,0.3-0.2,0.4C330.9-129.5,331.1-128.4,331.2-127.2z"/>
			<path class="st2" d="M251.2-132.7c1.6-0.2,3.1-0.4,4.6-0.7c0.9-0.1,1.3,0.3,1.8,0.8c0.3,0.4,0,0.9-0.5,1
				c-1.1,0.1-2.2,0.2-3.3,0.4c-0.3,0-0.5,0.1-0.8,0.1c-0.4,1-0.2,1.9,0.1,2.8c1.5,0.4,2.7-0.4,4.1-0.5c0.5,0.5,1.4,0.7,0.9,1.7
				c-1.7,0.2-3.4,0.4-5.1,0.9c0,1.6,0,3.2,0,4.8c0.5,0,0.8,0.1,1.2,0c1-0.1,1.9-0.3,2.9-0.5c0.5-0.1,0.9,0,1.3,0.2
				c0.6,0.3,0.6,0.9,0,1.2c-0.1,0.1-0.3,0.2-0.5,0.2c-1.7,0.2-3.5,0.5-5.2,0.7c-0.1,0-0.2-0.1-0.4-0.1c-0.5-0.3-0.4-0.8-0.4-1.2
				c0-1.1,0-2.3-0.1-3.4c0-1.5-0.4-3-0.3-4.5c0-0.7-0.2-1.4-0.4-2.1C251-131.4,250.9-132.1,251.2-132.7z"/>
			<path class="st2" d="M297.3-121.5c0.2-0.3,0.3-0.4,0.4-0.5c0.5-1.9,1-3.8,1.5-5.7c0.4-1.4,0.6-2.9,1-4.3c0.1-0.5,0.3-1.1,1.2-1.3
				c0.7,0.5,0.9,1,0.7,1.6c-0.6,1.9-1.1,3.8-1.5,5.8c-0.4,1.8-1.1,3.6-1.6,5.5c-0.2,0.7-0.6,1.3-1.2,1.7c-0.6,0.4-1.4,0.2-1.7-0.5
				c0-0.1,0-0.1-0.1-0.2c-0.6-2.4-1.3-4.9-1.7-7.3c-0.2-1.4-0.4-2.8-1-4.2c-0.1-0.2-0.2-0.5-0.2-0.7c0-0.3,0.1-0.7,0.7-0.7
				c0.5,0,0.9,0.2,1.1,0.6c0.2,0.5,0.3,0.9,0.4,1.4c0.5,2.6,1,5.3,1.5,7.9C296.9-122.2,297.1-121.9,297.3-121.5z"/>
			<path class="st2" d="M316.3-120.6c0.9-0.1,1.7-0.2,2.7-0.3c0,0,0.2,0.1,0.3,0.2c0.9,0.5,0.6,1.4-0.5,1.6s-2.3,0.3-3.4,0.4
				c-0.6-0.5-0.7-1.1-0.7-1.7c0-1.1,0-2.2-0.1-3.3c-0.2-1.9-0.2-3.8-0.8-5.7c-0.3-1-0.4-1.9-0.5-2.9c0-0.1,0-0.3,0-0.4
				c0.1-0.3,0.2-0.6,0.6-0.6c0.3,0,0.6,0.3,0.6,0.7c0.2,1.2,0.4,2.3,0.6,3.5c0.2,1.3,0.3,2.6,0.5,4c0.1,1.2,0.2,2.4,0.4,3.5
				C316.1-121.4,316.2-121.1,316.3-120.6z"/>
		</g>
		<g class="st4">
			<path class="st2" d="M363.2-160.6c0.8,0.3,1.1,0.8,1,1.5c-0.1,1.3,0.1,2.7,0.2,4c0.2,2.4,0.3,4.8,0.4,7.1c0,0.7-0.2,1.5-0.3,2.2
				c0,0.2-0.2,0.4-0.3,0.5c-0.3,0.3-0.8,0.4-1.1,0.1c-0.2-0.3-0.4-0.6-0.6-0.9c-1.6-3.1-3.2-6.3-4.8-9.4c-0.1-0.2-0.2-0.3-0.4-0.6
				c-0.5,0.5-0.2,1.1-0.4,1.5c-0.2,0.4-0.2,0.9-0.3,1.3c-0.1,1-0.3,2.1-0.4,3.1c-0.1,0.8-0.2,1.7-0.4,2.5c-0.1,0.7-0.3,1.4-0.9,1.9
				c-0.6-0.2-0.7-0.6-0.6-1c0.4-1.9,0.5-3.7,0.7-5.6c0.1-0.8,0.2-1.7,0.3-2.5c0.2-1.3,0.3-2.6,0.4-3.9c0-0.3,0.2-0.5,0.4-0.8
				c1,0.2,1.5,0.7,1.8,1.4c0.8,1.6,1.5,3.1,2.3,4.7c0.8,1.6,1.6,3.1,2.4,4.6c0.1,0.1,0.2,0.2,0.3,0.3c0.4-0.2,0.3-0.4,0.3-0.7
				c-0.2-2.5-0.4-5-0.6-7.6c-0.1-1.1-0.1-2.2-0.1-3.3C362.6-160.2,362.8-160.5,363.2-160.6z"/>
			<path class="st2" d="M269-152.2c-1.5,0.2-2.6,0.6-3.9,1c-0.1,1.3-0.4,2.5-0.4,3.8c0,0.6-0.2,1.2-0.3,1.8c0,0.1-0.2,0.1-0.4,0.2
				c-0.1,0-0.2-0.1-0.2-0.1c-0.1-0.3-0.3-0.6-0.2-0.9c0.1-3.3,0.2-6.5,0.4-9.8c0.1-1.3,0.2-2.7,0.6-4c0.1-0.4,0.2-0.7,0.6-0.9
				c1.3,0.4,2.1,1.1,2.6,2.2c0.6,1.4,1.1,2.8,1.6,4.2c0.9,2.8,1.8,5.6,2.7,8.5c0.1,0.3,0.1,0.5,0.1,0.8c0,0.1-0.2,0.4-0.3,0.4
				s-0.4-0.1-0.5-0.2c-0.2-0.2-0.3-0.5-0.4-0.8c-0.5-1.6-1-3.1-1.4-4.7C269.3-151.3,269.2-151.7,269-152.2z M265.9-159.5
				c-0.7,2.3-1,5.4-0.6,6.8c0.5-0.2,1-0.4,1.6-0.5c0.5-0.1,1.1-0.2,1.5-0.6c-0.2-1-1.2-4.1-1.5-4.7
				C266.6-158.8,266.3-159.1,265.9-159.5z"/>
			<path class="st2" d="M255.1-153.5c-0.9,0.3-1.6,0.5-2.4,0.8c0,0.5,0,0.9,0,1.4c0.1,2,0.2,4,0.3,5.9c0,0.4-0.1,0.7-0.6,0.8
				c-0.4-0.2-0.6-0.5-0.6-0.8c0-0.6,0-1.2,0-1.8c-0.1-1.8-0.2-3.6-0.4-5.3c-0.2-1.9-0.6-3.7-0.8-5.6c0-0.2-0.1-0.5-0.1-0.7
				c-0.1-0.5,0.2-0.9,0.6-1.2c1.5-1.1,3.6-1.2,5.4-0.4c0.3,0.1,0.6,0.3,0.9,0.5c2,1.1,2.3,3.5,0.5,4.9c-0.4,0.3-0.8,0.6-1.3,0.9
				c0.2,0.3,0.3,0.7,0.4,1c1.2,1.9,2.4,3.8,3.6,5.7c0.3,0.4,0.5,0.8,0.8,1.2c0.1,0.2,0.3,0.4,0.4,0.7c0.1,0.3,0,0.7-0.3,0.8
				c-0.3,0.1-0.6,0-0.8-0.4c-0.7-1.1-1.3-2.1-2-3.2c-0.8-1.2-1.6-2.4-2.4-3.7C255.9-152.6,255.5-153,255.1-153.5z M252.6-154.3
				c1.2,0.2,2-0.4,2.8-0.9c0.7-0.4,1.4-0.9,2-1.5c0.5-0.4,0.3-1.5-0.2-1.9c-1.1-1-3.2-1.2-4.6-0.5c-0.3,0.2-0.6,0.4-0.6,0.7
				C252-157,252.2-155.6,252.6-154.3z"/>
			<path class="st2" d="M289.4-152.8c-1.7,0.1-3.2,0-4.7,0.7c-0.1,2.1-0.2,4.3-0.5,6.5c-0.4-0.1-0.7-0.1-0.8-0.2
				c-0.3-0.4-0.4-0.9-0.3-1.3c0.1-0.8,0.2-1.7,0.2-2.5c0-2.9,0-5.7,0.1-8.6c0-0.5,0.1-1,0.2-1.5c0.1-0.5,0.5-0.6,1.1-0.3
				c0.1,0.1,0.3,0.2,0.5,0.3c-0.1,1.9-0.2,3.8-0.3,5.9c1.5-0.2,2.9-0.3,4.4-0.5c0-2.1-0.8-4.2-0.6-6.3c0.9,0.2,1.2,0.3,1.2,0.8
				c0,1.4,0.3,2.7,0.5,4c0.3,2,0.6,4,0.9,6c0.2,1.3,0.4,2.6,0.8,3.9c0.1,0.2,0.1,0.5,0.1,0.7c0,0.3,0,0.6-0.3,0.7
				c-0.3,0.1-0.8-0.1-1-0.5c-0.1-0.3-0.2-0.6-0.3-0.9c-0.3-2.1-0.5-4.2-0.8-6.2C289.6-152.4,289.5-152.5,289.4-152.8z"/>
			<path class="st2" d="M275.2-153.2c0.2,1.1,0.3,2,0.4,3c0.1,0.9,0.2,1.8,0.3,2.7c0.1,0.9,0.3,1.9,0,2.7c-0.7,0.2-0.9-0.1-0.9-0.4
				c-0.1-0.8-0.3-1.5-0.4-2.3c-0.1-1.1-0.2-2.1-0.3-3.2c-0.1-0.4-0.2-0.9-0.3-1.3c-0.3-2.2-0.7-4.4-1-6.7c-0.2-1,0.2-1.4,1.4-1.7
				c1.9-0.5,3.7-0.3,5.5,0.4c1.9,0.7,2.9,3,1,4.6c-0.5,0.4-1.2,0.7-1.9,1C277.9-154.1,276.6-153.7,275.2-153.2z M275.1-154.8
				c1.2-0.1,3.8-0.9,4.5-1.3c0.3-0.2,0.6-0.5,0.9-0.8c0.4-0.5,0.3-0.9-0.1-1.4c-0.3-0.3-0.7-0.6-1.2-0.8c-1.2-0.3-2.4-0.4-3.7-0.1
				c-0.8,0.2-1,0.4-1,0.9C274.5-157,274.7-155.9,275.1-154.8z"/>
			<path class="st2" d="M246.9-156.5c-0.7-0.8-1.3-1.6-2-2.2c-0.9-0.9-1.9-0.9-2.7,0.1c-0.6,0.8-1.2,1.7-1.5,2.6
				c-0.6,1.7-0.9,3.6-0.8,5.4c0,1.4,0.6,2.6,1.7,3.6c0.5,0.5,1.1,0.8,1.9,0.8c0.5,0,1,0.1,1.4,0.1c2,0,3.2-1.1,3.2-2.9
				c-0.4-0.3-0.9-0.2-1.3-0.1c-0.5,0.1-0.9,0.1-1.5,0.2c-0.2-0.4-0.4-0.7-0.6-1.2c1.3-0.2,2.6-0.3,3.8-0.2c0.9,0.1,1.4,1,1.3,1.7
				c-0.1,0.4-0.2,0.9-0.4,1.3c-0.6,2.1-2.6,2.7-4.4,2.7c-0.5,0-1.1-0.1-1.6-0.1c-1.6-0.1-2.7-0.9-3.4-2c-0.8-1.3-1.3-2.6-1.2-4.1
				c0.1-2.1,0.3-4.1,1-6.1c0.4-1.2,1.3-2,2.1-2.9c0.2-0.2,0.6-0.4,0.9-0.4c0.5,0,1.2,0,1.5,0.2c1.4,0.8,2.6,1.8,2.8,3.3
				C247.1-156.8,247-156.7,246.9-156.5z"/>
			<path class="st2" d="M313.6-145.5c-0.1-0.6-0.3-0.9-0.3-1.2c-0.2-2.7-0.3-5.4-0.4-8c-0.1-1-0.3-2-0.5-3c-0.4-1.8,0.7-2.7,2.8-2.6
				c2.4,0.1,4,1.3,4.7,3c1,2.3,1.3,4.7,0.2,7c-0.8,1.7-2.1,3.2-4.3,3.9C315.2-146.2,314.5-145.9,313.6-145.5z M313.8-158.5
				c0.1,3,0.3,5.8,0.4,8.6c0,0.7,0.2,1.4,0.3,2.1c0,0,0,0.1,0.1,0.1c0,0,0.1,0,0.3,0.1c2.4-0.5,3.9-2,4.6-4c0.6-1.8,0.3-3.7-0.6-5.4
				c-0.6-1.1-1.6-1.7-3.1-1.8C315.1-158.8,314.5-158.6,313.8-158.5z"/>
			<path class="st2" d="M346.9-160c1.8,0.4,2.8,1.5,3.3,2.9c0.1,0.4,0,0.7-0.6,0.8c-0.3-0.4-0.6-0.9-1-1.3c-0.4-0.4-0.9-0.9-1.7-0.8
				c-0.9,0.1-1.2,0.7-1.4,1.3c-0.4,1.9-0.9,3.8-0.1,5.7c0.4,0.9,0.6,1.8,0.9,2.7c0.4,1,1.4,1.5,2.7,1.5c1,0,1.7-0.4,1.9-1.2
				c0.2-0.7,0.2-1.5,0-2.3c-0.7,0-1.4,0-2,0c-0.2-0.1-0.3-0.1-0.3-0.2c-0.1-0.3-0.2-0.7-0.3-1.1c1.1-0.3,2.2-0.3,3.3-0.6
				c1,0.5,1.4,1.1,1.2,2c-0.1,0.6-0.2,1.2-0.2,1.8s-0.3,1.2-0.6,1.7c-0.7,1.1-1.9,1.5-3.3,1.3c-1.5-0.2-2.9-0.6-3.5-1.9
				c-0.3-0.7-0.9-1.4-0.9-2.3c0-0.2-0.1-0.4-0.2-0.6c-0.8-1.9-0.8-3.9-0.3-5.9c0.1-0.5,0.1-1,0.2-1.5
				C344.6-158.8,345.3-159.7,346.9-160z"/>
			<path class="st2" d="M322.6-145.2c-0.4-0.5-0.5-1-0.3-1.5s0.3-1.2,0.4-1.7c0.1-1.1,0-2.3,0.1-3.4c0.1-2.2-0.2-4.5-0.7-6.7
				c-0.1-0.4-0.1-0.9-0.1-1.4c0.4-0.1,0.7-0.1,1.1-0.1c1.5-0.1,3.1-0.1,4.8-0.2c0.4,0.2,0.9,0.4,1.1,0.9c-0.1,0.4-0.4,0.6-0.9,0.6
				c-0.9,0.1-1.9,0.1-2.8,0.2c-0.5,0-1,0.1-1.5,0.2c0,0.9,0,1.7,0,2.5c0,0.5,0.4,0.7,1,0.5c0.6-0.1,1.1-0.3,1.7-0.4
				c0.5-0.1,1,0,1.4,0.2c0.2,0.1,0.4,0.3,0.4,0.4c0,0.2-0.2,0.5-0.4,0.6c-0.5,0.2-1,0.3-1.5,0.4c-0.7,0.2-1.5,0.2-2.2,0.8
				c0.1,2-0.4,4.1-0.3,6.3c0.8,0,1.6-0.1,2.3-0.2c0.7-0.1,1.4-0.1,2.1-0.1c0.2,0,0.6,0.3,0.6,0.4c0.1,0.2-0.1,0.5-0.3,0.6
				c-0.3,0.2-0.7,0.4-1.1,0.4C325.9-145.7,324.3-145.5,322.6-145.2z"/>
			<path class="st2" d="M383.3-151.7c-0.8-0.1-1.5,0.1-1.9,0.6c-0.3,0.3-0.3,0.8-0.3,1.3c0,1.1,0.1,2.2,0.3,3.2
				c0.1,0.7-0.1,1.2-1,1.5c-0.9-0.6-0.9-1.3-0.9-2.1c-0.1-1.5-0.2-3.1-0.2-4.6c0-1.9-0.2-3.8-0.8-5.7c-0.1-0.5-0.1-1-0.1-1.4
				c1.4-1.3,3.1-1.8,4.9-2.3c3-0.9,6,0.5,6.1,3.7c0,1.4-0.5,2.6-1.8,3.6c-0.6,0.5-1.1,1-1.8,1.6c0.1,0.3,0.3,0.7,0.5,1.1
				c0.6,1,1.2,2.1,1.8,3.1c0.4,0.6,0.8,1.1,1.1,1.6c0.2,0.3,0.4,0.7,0.5,1.1c0.1,0.3-0.4,0.9-0.9,1c-0.5,0.1-0.9,0-1.1-0.4
				c-0.3-0.4-0.5-0.8-0.7-1.2c-1-1.7-2-3.4-3.1-5.1C383.7-151.3,383.5-151.5,383.3-151.7z M381-153.1c1.2-0.3,2.1-0.4,2.9-0.7
				c1.5-0.5,2.7-1.2,3.4-2.4c0.9-1.4-0.2-3.1-2.1-3.3c-1.7-0.2-3.2,0.4-4.5,1.2c-0.4,0.2-0.4,0.6-0.4,1c0.1,0.9,0.2,1.9,0.3,2.9
				C380.8-154,380.9-153.7,381-153.1z"/>
			<path class="st2" d="M370-152.5c-0.2,1.6-0.5,3.2,0.2,4.9c0.8,0,1.7,0.1,2.5,0.1s1.6-0.1,2.5-0.2c0.2,0.2,0.5,0.3,0.7,0.6
				c0.5,0.6,0.1,1.3-0.7,1.4c-0.6,0.1-1.2,0-1.8,0.1c-0.9,0.1-1.9,0.2-2.8,0.3c-0.8,0.1-1.4-0.1-2.1-0.5c-0.4-1.2-0.5-2.5-0.4-3.7
				c0.2-2.8,0.1-5.6-0.7-8.4c-0.1-0.2-0.1-0.4-0.1-0.5c-0.1-0.6,0.3-1.1,1-1.2c2-0.3,4-0.6,6-0.8c1.1-0.1,1.4,0.2,1.6,1.5
				c-0.5,0.4-1.2,0.4-1.8,0.5c-1.4,0.2-2.7,0.3-4.1,0.6c-0.6,0.1-0.9,0.4-0.8,0.9c0.1,0.7,0.3,1.3,0.5,2c1,0.3,2,0.2,3,0.1
				c0.5,0,1-0.1,1.5-0.2c0.5,0,1.1,0.4,1.3,0.9c0.1,0.2,0,0.4-0.1,0.5c-0.3,0.2-0.7,0.5-1,0.6c-1,0.2-2,0.2-3,0.4
				C371-152.8,370.5-152.6,370-152.5z"/>
			<path class="st2" d="M331-147.8c0.6,0.2,0.9,0.3,1.3,0.4c0.8,0.2,1.6,0.5,2.4,0.7c0.3,0.1,0.6,0.1,0.9,0.1
				c1.4-0.1,1.7-1.4,1.2-2.2c-0.6-0.9-1.2-1.8-2-2.5c-0.6-0.5-1.2-1-1.8-1.5c-0.7-0.6-1.2-1.3-1.7-2.1c-0.8-1.5-0.8-3-0.3-4.6
				c0.2-0.7,0.7-1.1,1.5-1.1c0.9-0.1,1.6,0.3,2.3,0.8c0.9,0.7,1,1.6,0.5,2.6c0,0.1-0.2,0.2-0.3,0.2c-0.1,0-0.2,0-0.3,0
				c-0.3-0.1-0.2-0.4-0.2-0.6c0-1-0.9-1.7-1.8-1.3c-0.3,0.1-0.5,0.5-0.6,0.8c-0.3,1.3,0.3,2.3,1.1,3.1c0.7,0.7,1.4,1.3,2.2,1.9
				c1.1,0.9,1.8,2.1,2.6,3.2c0.2,0.3,0.3,0.7,0.4,1c0.4,1.2,0.1,2.4-0.8,3.2c-0.8,0.8-1.8,1-3,0.6c-1.1-0.4-2.3-0.6-3.3-0.9
				C330.7-146.5,330.9-147.1,331-147.8z"/>
			<path class="st2" d="M304.3-157.7c-0.4-0.3-0.6-0.6-0.8-0.8c-1.6-1.2-3.9-0.6-4.4,1.1c-0.4,1.6-0.6,3.2-0.2,4.9
				c0.2,0.8,0.2,1.6,0.4,2.4c0.2,1.2,1,2.2,2.2,3c0.8,0.6,1.9,0.6,2.9,0.4c0.5-0.1,1.1-0.1,1.6-0.1c0.3,0,0.7,0.2,0.7,0.6
				c0,0.2-0.2,0.5-0.3,0.6c-0.1,0.1-0.4,0.3-0.6,0.3c-1.5,0.3-2.9,0.4-4.3-0.3c-1.7-0.9-2.9-2.1-3.2-3.8c-0.1-0.8-0.2-1.6-0.5-2.3
				c-0.6-2.1-0.5-4.2,0.1-6.3c0.5-1.8,2.2-2.7,4.2-2.3c0.8,0.2,1.5,0.3,2.1,0.8C304.7-159,304.9-158.5,304.3-157.7z"/>
			<path class="st2" d="M341.7-145.3c-0.5-0.2-0.8-0.3-0.9-0.4c-0.2-0.3-0.3-0.7-0.3-1c-0.1-1.7-0.5-3.4-0.6-5.2c-0.1-2-0.4-4-0.6-6
				c-0.1-0.6-0.1-1.2-0.1-1.8c0-0.4,0.4-0.6,0.6-0.6c0.4,0.1,0.6,0.3,0.7,0.6c0.1,1,0.1,2.1,0.4,3.1c0.5,2.3,0.4,4.6,0.4,6.9
				c0,0.8,0.2,1.6,0.2,2.4C341.6-146.6,341.6-146.1,341.7-145.3z"/>
			<path class="st2" d="M295.1-144.7c-0.5-1.1-0.8-2-0.8-2.9c0-1.3,0-2.6,0-3.9c-0.1-1.6-0.2-3.3-0.3-4.9c-0.1-1.3-0.2-2.6-0.2-3.9
				c0-0.1,0-0.3,0.1-0.4c0.1-0.1,0.4-0.2,0.6-0.3c0.1,0,0.3,0.1,0.4,0.3c0.1,0.1,0.1,0.3,0.1,0.4c0.1,1.8,0.2,3.6,0.4,5.4
				c0.2,1.5,0,3.1,0.1,4.6c0.1,1.3,0.2,2.7,0.3,4c0,0.3,0.1,0.6,0,0.9C295.7-145.1,295.4-145,295.1-144.7z"/>
			<polygon class="st2" points="263,-152.7 263,-152.8 263.1,-152.7 			"/>
		</g>
		<g class="st4">
			<path class="st2" d="M316.7-105.8c0.8-0.4,1.6-0.8,2.4-1.2c2.1-1,4.2-1,6.3-0.2c0.9,0.3,1.4,1,1.6,1.7c0.5,1.6-0.4,3.2-2.1,4.2
				c-0.5,0.3-1,0.5-1.5,0.7c-0.3,0.1-0.5,0.3-0.8,0.5c0.4,1.5,1.6,2.6,2.3,3.9c0.7,1.3,1.7,2.5,2.6,3.9c0,0.5-0.5,0.7-1,1
				c-0.2-0.1-0.4-0.1-0.5-0.2c-0.2-0.1-0.4-0.3-0.4-0.5c-0.2-1-1-1.8-1.5-2.6c-1-1.6-2.1-3.2-3.2-4.8c-0.3-0.4-0.7-0.5-1.2-0.4
				c-0.4,0.1-0.8,0.3-1.2,0.4c0,1.8,0,3.4,0,5.1c0,0.7-0.1,1.2-0.8,1.5c-0.6,0-0.8-0.3-0.8-0.8c0-0.3,0-0.6,0.1-1
				c0-0.6,0.2-1.3,0.1-1.9c-0.5-2.8-0.1-5.7-0.4-8.6C316.6-105.3,316.7-105.5,316.7-105.8z M318.3-101.5c1.8,0.1,3.3-0.1,4.5-0.5
				c1.1-0.4,2-0.9,2.8-1.7c0.5-0.5,0.4-1-0.1-1.4c-1.1-1-3.5-1.4-5-0.7c-0.7,0.3-1.3,0.7-1.9,1.1c-0.2,0.2-0.4,0.5-0.4,0.7
				C318.2-103.3,318-102.4,318.3-101.5z"/>
			<path class="st2" d="M275.2-105.3c-0.8,0.2-0.9,0.7-1,1.2c-0.3,0.8-0.5,1.7-0.7,2.5c-0.1,0.5-0.4,0.8-1.1,0.8
				c-1.4-1.1-2.3-2.7-3.8-4.2c-0.1,0.4-0.2,0.6-0.2,0.8c0,0.6-0.1,1.3-0.1,1.9c0,2-0.2,4-0.5,6c-0.1,0.6,0,1.2-0.1,1.8
				c0,0.3-0.1,0.6-0.3,0.9c-0.1,0.2-0.4,0.3-0.6,0.3c-0.2,0-0.4-0.3-0.4-0.5c0-0.7,0-1.4,0.1-2.1c0.6-3.5,0.7-7,0.7-10.5
				c0-0.5,0-1,0.8-1.2c0.9,0.3,1.5,0.9,2,1.6c0.6,0.8,1.2,1.5,1.9,2.3c0.1,0.1,0.3,0.2,0.5,0.3c0.4-0.4,0.5-0.9,0.6-1.3
				c0.2-0.9,0.7-1.6,1.2-2.4c0.1-0.3,0.5-0.5,0.7-0.7c0.4-0.3,1-0.2,1.1,0.2c0.5,1,1,2,1.2,3.1c0.6,2.6,1.1,5.3,1.6,8
				c0.2,0.8,0.4,1.7,0.6,2.5c0.1,0.4,0.2,0.8,0,1.3c-0.1,0.3-0.4,0.5-0.7,0.4c-0.2,0-0.5-0.2-0.6-0.4c-0.1-0.2-0.1-0.4-0.2-0.6
				c-0.6-3.3-1.1-6.6-2-9.9C275.7-103.9,275.5-104.6,275.2-105.3z"/>
			<path class="st2" d="M257-96c0.5-0.8,0.4-1.5,0.4-2.2c-0.2-2-0.4-4.1-0.6-6.1c-0.1-1.2,0-2.4,0-3.6c0.7-0.2,0.9-0.2,1,0.3
				c0.1,1,0.2,1.9,0.3,2.9c0.2,2.2,0.4,4.4,0.6,6.6c0.2,1.5,0.1,2.9-0.1,4.4c0,0.2-0.1,0.4-0.2,0.6c-0.3,0.6-1.2,0.6-1.6,0.1
				c-0.5-0.6-0.9-1.2-1.2-1.8c-0.7-1.2-1.3-2.5-2-3.7c-0.8-1.3-1.6-2.6-2.4-3.9c-0.1-0.2-0.4-0.4-0.6-0.6c-0.5,0.5-0.4,0.9-0.3,1.3
				c0.1,2.7,0.3,5.4,0.4,8.1c0,0.2,0,0.3,0,0.5c0,0.4-0.2,0.6-0.6,0.7c-0.3,0.1-0.7-0.3-0.7-0.6c0-0.3,0-0.5,0-0.8
				c0-3.3-0.1-6.7-0.1-10c0-0.7,0-1.4,0-2.1c0-0.2,0.3-0.4,0.4-0.5c0.3,0,0.7,0.1,0.8,0.2c0.8,1.2,1.6,2.3,2.4,3.5
				c1.2,1.9,2.2,3.9,3.4,5.8C256.4-96.6,256.7-96.4,257-96z"/>
			<path class="st2" d="M314.3-99.6c0.1,1.3-0.3,2.6-0.9,3.9c-0.3,0.6-0.8,1.2-1.2,1.8c-1,1.1-2.3,1.4-3.9,1.2
				c-0.3,0-0.5-0.2-0.7-0.2c-2.7-0.1-3.8-1.6-4.4-3.5c-0.8-2.5-0.3-5,0.8-7.4c0.3-0.7,0.7-1.4,1.1-2.1c0.2-0.3,0.4-0.7,0.7-1
				c1.1-1.1,1.6-1.2,3.2-0.5c1.2,0.6,2.5,1,3.5,2C314.1-103.7,314.7-101.9,314.3-99.6z M306.8-106.2c-0.4,0.6-0.7,1.3-1.1,1.9
				c-0.9,1.3-1.2,2.7-1.4,4.2c-0.1,1,0,2.1,0.3,3c0.3,1,1,1.9,2.2,2.3c1.1,0.4,2.3,0.4,3.4,0.2c0.6-0.1,1.1-0.5,1.5-1
				c0.8-1.1,1.2-2.4,1.5-3.7c0.2-0.9,0.2-1.9,0-2.7c-0.3-1.4-1.4-2.5-2.7-3.2C309.5-105.7,308.4-106.4,306.8-106.2z"/>
			<path class="st2" d="M287.6-97.6c-1.3,0-2.3,0-3.5,0c-0.5,1-0.7,2.2-1.1,3.3c-0.1,0.4-0.2,0.7-0.4,1.1c-0.1,0.1-0.4,0.2-0.7,0.2
				c-0.1,0-0.3-0.2-0.3-0.4c0-0.3,0-0.5,0.1-0.8c0.9-3.1,1.8-6.2,2.6-9.3c0.3-1.1,0.3-2.2,0.4-3.4c0-0.2,0.1-0.4,0.2-0.6
				c0.1-0.3,0.7-0.4,1-0.1c0.3,0.4,0.6,0.7,0.7,1.1c0.5,2.7,1.7,5.2,2.4,7.8c0.2,0.7,0.3,1.4,0.5,2c0.2,0.7,0.5,1.4,0.9,2.1
				c0.3,0.5,0.3,1,0.1,1.6c-0.1,0.3-0.8,0.4-1,0.2c-0.3-0.4-0.6-0.7-0.7-1.1c-0.2-0.6-0.3-1.2-0.5-1.7
				C288.2-96.2,287.9-96.9,287.6-97.6z M287.2-99.2c-0.5-1.4-0.9-2.6-1.3-3.8c0-0.1-0.2-0.1-0.4-0.2c-0.1,0.2-0.3,0.4-0.3,0.5
				c-0.2,1-0.4,1.9-0.7,2.9c-0.1,0.3-0.2,0.5,0.1,0.8C285.4-99.1,286.2-99.1,287.2-99.2z"/>
			<path class="st2" d="M297.2-103.9c-0.2,1.4-0.5,2.6-0.3,3.8c0.2,1.5,0.2,3,0.3,4.5c0,0.7,0.2,1.4,0.3,2.1
				c0.1,0.5,0.1,0.9-0.3,1.3c-0.2,0.2-0.5,0.3-0.8,0.3c-0.2,0-0.6-0.2-0.6-0.4c-0.2-0.4-0.2-0.9-0.3-1.4c-0.1-1.7-0.1-3.5-0.1-5.2
				c0-1.4,0-2.8-0.1-4.2c0-0.6-0.4-0.8-1.3-0.8c-1.3,0.1-2.6,0.1-3.9,0.2c-0.9,0-1.3-0.5-0.8-1.1c0.3-0.3,0.7-0.6,1.1-0.6
				c3.7-0.2,7.4-0.4,11-0.6c0.2,0,0.6,0,0.7,0c0.3,0.2,0.7,0.4,0.7,0.6c0.1,0.2-0.2,0.6-0.4,0.7c-0.4,0.2-0.9,0.2-1.4,0.3
				C299.8-104.2,298.6-104.1,297.2-103.9z"/>
			<path class="st2" d="M261.9-93c-0.4-0.5-0.4-1.1-0.5-1.7c-0.2-2.8-0.5-5.6-0.7-8.4c0-0.6,0-1.2,0.1-1.8c0.1-0.6,0.2-1.2,0-1.8
				c0-0.1,0-0.3,0.1-0.5s0.4-0.3,0.6-0.3s0.4,0.2,0.5,0.4c0.1,0.2,0.1,0.4,0.1,0.6c0,0.4,0,0.8,0,1.1c0,2.9,0.3,5.8,0.7,8.7
				c0.1,0.9,0.2,1.7,0.3,2.6C263-93.5,262.8-93.3,261.9-93z"/>
			<path class="st2" d="M245-99c-1.4-0.4-2.6,0.1-4,0.3c-0.3,1.1-0.3,2.2-0.5,3.2c-0.1,0.6-0.1,1.2-0.1,1.8c0,0.6-0.2,1.1-0.6,1.5
				c-0.2,0-0.4,0-0.5-0.1c-0.2-0.2-0.5-0.5-0.6-0.8c-0.1-0.2,0-0.4,0.1-0.6c0.6-2.2,0.7-4.4,0.9-6.6c0.2-2.1,0.5-4.2,0.8-6.3
				c0.1-0.4,0.3-0.8,0.5-1.2c0.2-0.4,0.9-0.6,1.3-0.2c0.8,0.8,1.6,1.7,2,2.7c0.6,1.6,1.2,3.2,1.8,4.8c0.5,1.2,0.9,2.5,1.4,3.7
				c0.3,0.8,0.6,1.5,0.3,2.4c-0.1,0.2-0.3,0.4-0.5,0.4s-0.5-0.2-0.6-0.3c-0.3-0.7-0.5-1.4-0.8-2.2C245.7-97.3,245.3-98.1,245-99z
				 M241.3-100.5c1.2,0,2.1-0.1,3-0.3c-0.1-1.4-0.6-2.9-1.4-4c-0.2-0.3-0.5-0.5-0.9-0.9c-0.2,0.4-0.4,0.6-0.4,0.8
				C241.4-103.5,241.1-102.1,241.3-100.5z"/>
		</g>
		<g class="st4">
			<path class="st2" d="M245.4-174c0.9-0.1,1.7-0.2,2.7-0.3c0,0,0.2,0.1,0.3,0.2c0.9,0.5,0.6,1.4-0.5,1.6c-1.1,0.2-2.3,0.3-3.4,0.4
				c-0.6-0.5-0.7-1.1-0.7-1.7c0-1.1,0-2.2-0.1-3.3c-0.2-1.9-0.2-3.8-0.8-5.7c-0.3-1-0.4-1.9-0.5-2.9c0-0.1,0-0.3,0-0.4
				c0.1-0.3,0.2-0.6,0.6-0.6c0.3,0,0.6,0.3,0.6,0.7c0.2,1.2,0.4,2.3,0.6,3.5c0.2,1.3,0.3,2.6,0.5,4c0.1,1.2,0.2,2.4,0.4,3.5
				C245.2-174.8,245.3-174.5,245.4-174z"/>
			<path class="st2" d="M252.8-174c0.9-0.1,1.7-0.2,2.7-0.3c0,0,0.2,0.1,0.3,0.2c0.9,0.5,0.6,1.4-0.5,1.6c-1.1,0.2-2.3,0.3-3.4,0.4
				c-0.6-0.5-0.7-1.1-0.7-1.7c0-1.1,0-2.2-0.1-3.3c-0.2-1.9-0.2-3.8-0.8-5.7c-0.3-1-0.4-1.9-0.5-2.9c0-0.1,0-0.3,0-0.4
				c0.1-0.3,0.2-0.6,0.6-0.6c0.3,0,0.6,0.3,0.6,0.7c0.2,1.2,0.4,2.3,0.6,3.5c0.2,1.3,0.3,2.6,0.5,4c0.1,1.2,0.2,2.4,0.4,3.5
				C252.5-174.8,252.7-174.5,252.8-174z"/>
			<path class="st2" d="M269.8-174.9c0.5,0.2,0.9,0.3,1.2,0.4c0.7,0.2,1.5,0.5,2.2,0.7c0.3,0.1,0.6,0.1,0.8,0.1
				c1.3-0.1,1.6-1.3,1.1-2.1c-0.5-0.9-1.1-1.7-1.9-2.4c-0.6-0.5-1.1-1-1.7-1.4c-0.7-0.5-1.1-1.2-1.6-2c-0.8-1.4-0.7-2.8-0.3-4.3
				c0.2-0.7,0.7-1,1.4-1c0.8,0,1.5,0.3,2.1,0.8c0.8,0.7,0.9,1.4,0.4,2.4c0,0.1-0.2,0.1-0.3,0.2c-0.1,0-0.2,0-0.3,0
				c-0.3-0.1-0.2-0.3-0.2-0.6c0-0.9-0.8-1.6-1.7-1.2c-0.3,0.1-0.5,0.5-0.5,0.8c-0.2,1.2,0.2,2.1,1,2.9c0.6,0.6,1.3,1.2,2,1.8
				c1,0.8,1.7,1.9,2.4,3c0.2,0.3,0.3,0.6,0.4,0.9c0.3,1.1,0,2.2-0.7,3c-0.7,0.7-1.7,0.9-2.8,0.6c-1-0.4-2.1-0.6-3.1-0.9
				C269.5-173.7,269.7-174.2,269.8-174.9z"/>
			<path class="st2" d="M240-171.9c-0.5-1-0.8-1.8-0.8-2.7c0-1.2,0-2.4,0-3.6c-0.1-1.5-0.2-3.1-0.3-4.6c-0.1-1.2-0.2-2.4-0.2-3.6
				c0-0.1,0-0.3,0.1-0.4c0.1-0.1,0.3-0.2,0.5-0.2c0.1,0,0.3,0.1,0.4,0.2c0.1,0.1,0.1,0.3,0.1,0.4c0.1,1.7,0.2,3.3,0.4,5
				c0.2,1.4,0,2.9,0.1,4.3c0.1,1.2,0.2,2.5,0.3,3.7c0,0.3,0.1,0.6,0,0.8C240.6-172.4,240.4-172.2,240-171.9z"/>
			<polygon class="st2" points="261.3,-179.5 261.4,-179.5 261.4,-179.5 			"/>
			<path class="st2" d="M291.1-185.8c0.8-0.4,1.6-0.8,2.4-1.2c2.1-1,4.2-1,6.3-0.2c0.9,0.3,1.4,1,1.6,1.7c0.5,1.6-0.4,3.2-2.1,4.2
				c-0.5,0.3-1,0.5-1.5,0.7c-0.3,0.1-0.5,0.3-0.8,0.5c0.4,1.5,1.6,2.6,2.3,3.9c0.7,1.3,1.7,2.5,2.6,3.9c0,0.5-0.5,0.7-1,1
				c-0.2-0.1-0.4-0.1-0.5-0.2c-0.2-0.1-0.4-0.3-0.4-0.5c-0.2-1-1-1.8-1.5-2.6c-1-1.6-2.1-3.2-3.2-4.8c-0.3-0.4-0.7-0.5-1.2-0.4
				c-0.4,0.1-0.8,0.3-1.2,0.4c0,1.8,0,3.4,0,5.1c0,0.7-0.1,1.2-0.8,1.5c-0.6,0-0.8-0.3-0.8-0.8c0-0.3,0-0.6,0.1-1
				c0-0.6,0.2-1.3,0.1-1.9c-0.5-2.8-0.1-5.7-0.4-8.6C291-185.2,291-185.4,291.1-185.8z M292.7-181.4c1.8,0.1,3.3-0.1,4.5-0.5
				c1.1-0.4,2-0.9,2.8-1.7c0.5-0.5,0.4-1-0.1-1.4c-1.1-1-3.5-1.4-5-0.7c-0.7,0.3-1.3,0.7-1.9,1.1c-0.2,0.2-0.4,0.5-0.4,0.7
				C292.5-183.2,292.4-182.4,292.7-181.4z"/>
			<path class="st2" d="M339.5-185.8c0.8-0.4,1.6-0.8,2.4-1.2c2.1-1,4.2-1,6.3-0.2c0.9,0.3,1.4,1,1.6,1.7c0.5,1.6-0.4,3.2-2.1,4.2
				c-0.5,0.3-1,0.5-1.5,0.7c-0.3,0.1-0.5,0.3-0.8,0.5c0.4,1.5,1.6,2.6,2.3,3.9c0.7,1.3,1.7,2.5,2.6,3.9c0,0.5-0.5,0.7-1,1
				c-0.2-0.1-0.4-0.1-0.5-0.2c-0.2-0.1-0.4-0.3-0.4-0.5c-0.2-1-1-1.8-1.5-2.6c-1-1.6-2.1-3.2-3.2-4.8c-0.3-0.4-0.7-0.5-1.2-0.4
				c-0.4,0.1-0.8,0.3-1.2,0.4c0,1.8,0,3.4,0,5.1c0,0.7-0.1,1.2-0.8,1.5c-0.6,0-0.8-0.3-0.8-0.8c0-0.3,0-0.6,0.1-1
				c0-0.6,0.2-1.3,0.1-1.9c-0.5-2.8-0.1-5.7-0.4-8.6C339.4-185.2,339.5-185.4,339.5-185.8z M341.1-181.4c1.8,0.1,3.3-0.1,4.5-0.5
				c1.1-0.4,2-0.9,2.8-1.7c0.5-0.5,0.4-1-0.1-1.4c-1.1-1-3.5-1.4-5-0.7c-0.7,0.3-1.3,0.7-1.9,1.1c-0.2,0.2-0.4,0.5-0.4,0.7
				C340.9-183.2,340.8-182.4,341.1-181.4z"/>
			<path class="st2" d="M336.7-178.9c0.1,1.3-0.3,2.6-0.9,3.9c-0.3,0.6-0.8,1.2-1.2,1.8c-1,1.1-2.3,1.4-3.9,1.2
				c-0.3,0-0.5-0.2-0.7-0.2c-2.7-0.1-3.8-1.6-4.4-3.5c-0.8-2.5-0.3-5,0.8-7.4c0.3-0.7,0.7-1.4,1.1-2.1c0.2-0.3,0.4-0.7,0.7-1
				c1.1-1.1,1.6-1.2,3.2-0.5c1.2,0.6,2.5,1,3.5,2C336.4-183,337-181.2,336.7-178.9z M329.1-185.5c-0.4,0.6-0.7,1.3-1.1,1.9
				c-0.9,1.3-1.2,2.7-1.4,4.2c-0.1,1,0,2.1,0.3,3c0.3,1,1,1.9,2.2,2.3c1.1,0.4,2.3,0.4,3.4,0.2c0.6-0.1,1.1-0.5,1.5-1
				c0.8-1.1,1.2-2.4,1.5-3.7c0.2-0.9,0.2-1.9,0-2.7c-0.3-1.4-1.4-2.5-2.7-3.2C331.8-185,330.7-185.7,329.1-185.5z"/>
			<path class="st2" d="M283.7-184.5c-0.2,1.4-0.5,2.6-0.3,3.8c0.2,1.5,0.2,3,0.3,4.5c0,0.7,0.2,1.4,0.3,2.1
				c0.1,0.5,0.1,0.9-0.3,1.3c-0.2,0.2-0.5,0.3-0.8,0.3c-0.2,0-0.6-0.2-0.6-0.4c-0.2-0.4-0.2-0.9-0.3-1.4c-0.1-1.7-0.1-3.5-0.1-5.2
				c0-1.4,0-2.8-0.1-4.2c0-0.6-0.4-0.8-1.3-0.8c-1.3,0.1-2.6,0.1-3.9,0.2c-0.9,0-1.3-0.5-0.8-1.1c0.3-0.3,0.7-0.6,1.1-0.6
				c3.7-0.2,7.4-0.4,11-0.6c0.2,0,0.6,0,0.7,0c0.3,0.2,0.7,0.4,0.7,0.6c0.1,0.2-0.2,0.6-0.4,0.7c-0.4,0.2-0.9,0.2-1.4,0.3
				C286.3-184.7,285.1-184.6,283.7-184.5z"/>
			<path class="st2" d="M319.3-184.5c-0.2,1.4-0.5,2.6-0.3,3.8c0.2,1.5,0.2,3,0.3,4.5c0,0.7,0.2,1.4,0.3,2.1
				c0.1,0.5,0.1,0.9-0.3,1.3c-0.2,0.2-0.5,0.3-0.8,0.3c-0.2,0-0.6-0.2-0.6-0.4c-0.2-0.4-0.2-0.9-0.3-1.4c-0.1-1.7-0.1-3.5-0.1-5.2
				c0-1.4,0-2.8-0.1-4.2c0-0.6-0.4-0.8-1.3-0.8c-1.3,0.1-2.6,0.1-3.9,0.2c-0.9,0-1.3-0.5-0.8-1.1c0.3-0.3,0.7-0.6,1.1-0.6
				c3.7-0.2,7.4-0.4,11-0.6c0.2,0,0.6,0,0.7,0c0.3,0.2,0.7,0.4,0.7,0.6c0.1,0.2-0.2,0.6-0.4,0.7c-0.4,0.2-0.9,0.2-1.4,0.3
				C321.9-184.7,320.7-184.6,319.3-184.5z"/>
			<path class="st2" d="M309.6-178.3c-1.4-0.4-2.6,0.1-4,0.3c-0.3,1.1-0.3,2.2-0.5,3.2c-0.1,0.6-0.1,1.2-0.1,1.8s-0.2,1.1-0.6,1.5
				c-0.2,0-0.4,0-0.5-0.1c-0.2-0.2-0.5-0.5-0.6-0.8c-0.1-0.2,0-0.4,0.1-0.6c0.6-2.2,0.7-4.4,0.9-6.6c0.2-2.1,0.5-4.2,0.8-6.3
				c0.1-0.4,0.3-0.8,0.5-1.2c0.2-0.4,0.9-0.6,1.3-0.2c0.8,0.8,1.6,1.7,2,2.7c0.6,1.6,1.2,3.2,1.8,4.8c0.5,1.2,0.9,2.5,1.4,3.7
				c0.3,0.8,0.6,1.5,0.3,2.4c-0.1,0.2-0.3,0.4-0.5,0.4c-0.2,0-0.5-0.2-0.6-0.3c-0.3-0.7-0.5-1.4-0.8-2.2
				C310.3-176.6,310-177.4,309.6-178.3z M305.9-179.8c1.2,0,2.1-0.1,3-0.3c-0.1-1.4-0.6-2.9-1.4-4c-0.2-0.3-0.5-0.5-0.9-0.9
				c-0.2,0.4-0.4,0.6-0.4,0.8C306-182.8,305.7-181.4,305.9-179.8z"/>
			<g>
				<path class="st2" d="M260.1-176.8c-0.1-1.4,0.1-2.8-0.1-4.3c-0.2-1.7-0.3-3.3-0.4-5c0-0.1,0-0.3-0.1-0.4
					c-0.1-0.1-0.3-0.3-0.4-0.2c-0.2,0-0.4,0.1-0.5,0.2c-0.1,0.1-0.1,0.3-0.1,0.4c0.1,1.2,0.2,2.4,0.2,3.6c0.1,1.5,0.2,3.1,0.3,4.6
					c0,0.8,0,1.7,0,2.5c0.4,0.2,0.6,0.7,0.5,1c0.3,0.3,0.6,0.6,0.9,0.9C260.2-174.5,260.1-175.7,260.1-176.8z"/>
				<path class="st2" d="M266.5-175.1c0-0.5,0-1.1,0-1.6c0-1.4,0.3-2.8,0.2-4.3c-0.1-1.7,0-3.4-0.1-5c0-0.1,0-0.3-0.1-0.4
					c-0.1-0.1-0.2-0.3-0.3-0.3c-0.2,0-0.4,0.1-0.5,0.2c-0.1,0.1-0.1,0.2-0.1,0.4c0,1.2,0,2.4,0,3.6c0,1.5,0,3.1-0.1,4.6
					c0,1.2-0.2,2.4-0.3,3.6c0,0.4,0,0.8,0.1,1.2c0.2-0.2,0.5-0.4,0.8-0.5c0-0.1,0-0.2,0.1-0.3c0-0.2,0.2-0.3,0.3-0.4
					C266.3-174.6,266.3-174.9,266.5-175.1z"/>
				<path class="st2" d="M258.8-175.3c0.6,3.2,7.3,4.1,7.6,1.7c0.2-2.4,0.2-2.4,0.2-2.4l-1.3-0.4c-0.7,3-1.6,2.6-3,2.4
					c-1.4-0.2-2.2-0.5-2.2-2.7s0-2.2,0-2.2l-1.3-0.2C258.9-176.1,258.8-175.3,258.8-175.3z"/>
			</g>
		</g>
	</g>
	<g>
		<path d="M371.9,128.7"/>
		<polygon class="st5" points="246.2,288.4 118,199.9 118.1,53.4 241.2,-12.5 364.1,52.9 369.2,195.6 		"/>
		<polygon class="st6" points="363.7,130.1 239.5,57.4 120,130 119.1,128.6 239.5,55.4 364.5,128.6 		"/>
		<polygon class="st6" points="363.7,182.3 239.5,109.7 120,182.3 119.1,180.8 239.5,107.7 364.5,180.8 		"/>
		<g>
			<g>
				<defs>
					<polygon id="SVGID_1_" points="243.8,291.2 115.7,202.8 115.8,56.2 238.8,-9.6 367,54.4 366.9,198.5 					"/>
				</defs>
				<clipPath id="SVGID_2_">
					<use xlink:href="#SVGID_1_"  style="overflow:visible;"/>
				</clipPath>
				<g class="st7">
					<rect x="238.6" y="-10.9" class="st8" width="1.7" height="150"/>
					<polygon class="st6" points="363.7,104.4 239.5,31.8 120,104.4 119.1,102.9 239.5,29.8 364.6,102.9 					"/>
					<polygon class="st6" points="363.7,151.7 239.5,77.4 120,151.7 119.1,150.3 239.5,75.4 364.6,150.3 					"/>
				</g>
			</g>
		</g>
		<polygon class="st0" points="119.5,200.6 243.8,291.2 362.8,200.7 238.8,127.9 		"/>
		<polygon class="st2" points="228.7,30.3 179.6,128.2 179.6,50.6 224.1,27.7 		"/>
		<rect x="194.1" y="59" class="st9" width="1.7" height="135.6"/>
		<rect x="215.6" y="42.9" class="st9" width="1.7" height="135.6"/>
		<rect x="205" y="45.2" class="st9" width="1.7" height="135.6"/>
		<polygon class="st0" points="228.7,108 184.2,130.9 184.2,53.2 228.7,30.3 		"/>
		<g>
			<g>
				<defs>
					<polygon id="SVGID_3_" points="119.5,200.6 243.8,291.2 362.8,200.7 238.8,127.9 					"/>
				</defs>
				<clipPath id="SVGID_4_">
					<use xlink:href="#SVGID_3_"  style="overflow:visible;"/>
				</clipPath>
				<g class="st10">
					<line class="st11" x1="151.5" y1="180.1" x2="151.5" y2="237.4"/>
					<line class="st11" x1="175.5" y1="143.7" x2="175.5" y2="257.9"/>
					<line class="st11" x1="199.4" y1="143.7" x2="199.4" y2="272.6"/>
					<line class="st11" x1="223.3" y1="119.1" x2="223.3" y2="298.1"/>
					<line class="st11" x1="247.2" y1="119.1" x2="247.2" y2="298.1"/>
					<line class="st11" x1="271.2" y1="119.1" x2="271.2" y2="298.1"/>
					<line class="st11" x1="295.1" y1="119.1" x2="295.1" y2="298.1"/>
					<line class="st11" x1="319" y1="119.1" x2="319" y2="298.1"/>
					<line class="st11" x1="343" y1="119.1" x2="343" y2="298.1"/>
					<line class="st11" x1="127.6" y1="143.7" x2="127.6" y2="257.9"/>
				</g>
			</g>
		</g>
		<path class="st12" d="M217.9,117.3l4-3c7.8,17,33.1,26.5,43.8,26.2c3.9,9.1,16.6,2.8,16.6,2.8c10.3,5.7,9.4,17.2,9.4,17.2
			c0.2,9.1,4.9,13.1,4.9,13.1c-0.2,14.9,5.4,22.7,1.7,25c-3.9,2.3-3.9,2.3-3.9,2.3l-20.8-16.5l-13.3,6.7l-4.7-8.2l9.2-5.6l-6.8-4.5
			l-0.8-25.1l-7.5-2.3c-23.2-4.2-27.5-17-27.5-17L217.9,117.3z"/>
		<path d="M306.9,108.9c0-0.5,0-1-0.1-1.4c-0.3-1.8-0.6-3.7-0.6-5.6s-0.3-3.7-0.8-5.5c-0.2-0.7-0.3-1.5-0.5-2.2
			c-0.7-2.3-1.4-4.6-3.1-6.5c-1.3-1.5-2.8-2.7-4.4-3.8c-2-1.4-4.1-2.5-6.6-2.8c-0.3,0-0.7-0.2-1-0.3c-2.7-0.7-5.4-1.2-8.2-1.1
			c-1.9,0.1-3.9,0.1-5.8,0.1c-2.9-0.1-5.6,1-8.4,1.5c-0.1,0-0.3,0.1-0.4,0.2c-2.1,1-4.3,2-6.3,3.1c-4.6,2.5-7.9,6.3-9.5,11.4
			c-0.3,1.1-0.7,2.3-0.9,3.4c-0.6,3.1-1.2,6.3-1.8,9.4c-0.8,3.7-0.9,7.4-0.4,11.1c0.1,1,0.5,2,0.6,3c0.2,1.8,0.9,3.4,1.7,4.9
			c2.1,3.8,5.1,6.7,9.3,8.2c1.1,0.4,2.2,0.9,3.2,1.4c0.7,0.4,1.4,0.8,2.1,1.3c0.5,0.4,1,1,0.6,1.8c-0.9,0.1-1.8,0.1-2.7-0.1
			c-2.9-0.7-5.8-1.3-8.7-2.2c-4.8-1.4-9.4-3.3-13.8-5.7c-1.8-0.9-3.5-2-5.2-3c-1.6-0.9-2.6-2.5-3.9-3.7c-0.3-0.3-0.5-0.6-0.8-1
			c0.1-0.1,0.2-0.1,0.3-0.2c-0.5-0.3-1-0.7-1.3-1.1l0,0c-0.5-0.5-0.9-0.8-1.2-1.2c-1.1-1.4-2.1-2.8-3.1-4.1c-0.4-0.5-0.7-1-0.6-1.7
			c0.1-2.1-0.5-4.1-1-6.1c-0.1-0.3-0.1-0.5-0.2-0.9c0.5-0.3,1.1-0.6,1.6-0.9c1.3-0.7,1.6-2.6,1.1-3.9c-0.5-1.3-2.4-1.8-3.8-1.2
			c-0.6,0.3-1.1,0.6-1.7,1c-1.5-0.8-3-0.9-4.6-0.8c-0.6,0.1-1.2,0.2-1.8,0.4c-0.6,0.2-1.1,0.6-1.4,1.2c-0.4,0.8-0.8,1.6-1.3,2.4
			c0.3,1-0.1,2-0.1,2.8c0.4,0.1,0.7,0.4,0.8,0.9c0.4,2.4,2.3,3.3,3.9,4.6c0.6,0.5,1.2,0.9,1.8,1.4c0.5,0.5,0.8,1.1,0.9,1.8
			c0.2,1.9,0.9,3.6,1.5,5.4c0.5,1.4,1.3,2.6,2.2,3.9c-0.1,0.1-0.2,0.1-0.3,0.2c0.5,0.5,1,1.1,1.3,1.7c0.3,0.2,0.5,0.4,0.7,0.6
			c1,1.1,2,2.3,2.9,3.5c2.4,2.9,5.2,5.1,8.7,6.5c0.7,0.3,1.4,0.6,2.1,0.9c3.7,1.8,7.6,2.9,11.6,3.7c2.6,0.5,5,1.4,7.5,2.3
			c0,0.4,0.1,0.7,0.1,0.9c-0.1,1.1-0.2,2.2-0.3,3.3c-0.1,0.8-0.2,1.7-0.2,2.5c0,3.2,0,6.4-0.1,9.6c0,1.6,0,3.2-0.2,4.8
			c-0.1,0.9-0.2,1.9-0.2,2.8c0.5,0.4,1.1,0.8,1.6,1.2c0.1-2,0.3-4.1,0.3-6.1c0.1-1.5,0-3.1,0.1-4.6c0-1.3,0.2-2.6,0.1-3.9
			c-0.2-3.6,0-7.1,0.6-10.6c0.1-0.3,0.1-0.6,0.1-0.8c0-0.8-0.2-1.1-1-1.3c-2.8-0.8-5.6-1.7-8.4-2.2c-5.2-0.9-10-2.9-14.6-5.2
			c-2.6-1.3-4.9-2.9-6.8-5.1c-1-1.1-1.8-2.3-2.8-3.3c-2.7-2.9-4.5-6.2-5.3-10.1c-0.2-0.8-0.1-1.5,0-2.2c0.7-0.5,1.3-0.9,2.1-0.8
			c0.8,1.2,1.6,2.4,2.4,3.5c0.5,0.7,1.1,1.4,1.7,2.1c2,2.9,4.1,5.8,6.9,8c0.2,0.2,0.4,0.4,0.6,0.6c0.7,0.5,1.3,1.1,2,1.5
			c1.5,0.9,3.1,1.8,4.7,2.6c4.4,2.2,8.9,4.1,13.6,5.6c0.3,0.1,0.5,0.2,0.8,0.3c3.2,0.8,6.3,1.6,9.4,2.3c0.7,0.9,1.4,1.8,2.2,2.7
			c0.6,0.7,1.4,1.2,2.2,1.5c1.8,0.7,3.6,0.9,5.5,1c1.7,0.1,3.3-0.3,4.9-0.9c1.2-0.5,2-1.5,2.8-2.4c0.3-0.3,0.2-1,0.3-1.7
			c1.3,0.8,2.5,1.6,3.3,2.8c0.7,1.1,1.5,2.1,2.4,3.2c1.6,2.1,2.9,4.3,3.3,6.9c0.2,1.4,0.4,2.9,0.5,4.3c0.1,1.5,0,3.1,0.2,4.6
			c0.1,0.9,0.2,1.8,0.6,2.6c0.7,1.7,1.6,3.4,2.4,5.1c0.4,0.8,0.6,1.5,0.6,2.4c0,1.5,0,3.1-0.1,4.6c-0.1,1.3-0.2,2.6,0,3.9
			c0.3,1.6,0.6,3.3,1,4.9c0.5,2,0.9,4.1,0.8,6.2c0,1-0.4,1.8-1.1,2.6c-0.7,0.8-1.5,1.3-2.4,1.8c1.1,0.8,2.1,1.7,3.2,2.5
			c0.3-0.2,0.5-0.4,0.8-0.6c-0.3-0.9-0.2-1.6,0.5-2.4c0.7-0.9,0.8-2.1,0.7-3.2c-0.2-2.2-0.4-4.4-1-6.6c-0.8-2.7-1-5.4-0.9-8.2
			c0.1-1.6,0-3.2,0-4.8c0-0.8-0.2-1.5-0.5-2.2c-0.8-1.7-1.6-3.5-2.4-5.3c-0.6-1.2-0.8-2.3-0.9-3.6c-0.1-1.9-0.1-3.9-0.3-5.8
			c-0.1-1.1-0.3-2.2-0.6-3.3c-0.7-2.4-1.6-4.6-3-6.6c-0.9-1.2-1.8-2.5-2.6-3.8c-1.2-2-3-3.4-5-4.4c-0.2-2.4,0.1-3.2,2.1-4.3
			c1-0.5,2-0.9,3-1.4c0.5-0.3,0.9-0.4,1.5-0.4c1.2,0,2.3-0.2,3.1-1.2c0.1-0.1,0.3-0.3,0.5-0.2c1.6,0.3,2.6-0.8,3.7-1.5
			c2.2-1.6,4-3.6,5.9-5.6c2.1-2.3,3.5-5,4.8-7.7c0.2-0.5,0.3-0.9,0.1-1.4c-0.3-0.5-0.2-1-0.2-1.6
			C306.4,113.3,306.7,111.1,306.9,108.9z M223.9,104.2c0.8,0.2,1.3,0.9,1,1.6c-0.1,0.1-0.4,0.3-0.5,0.3c-0.6-0.2-0.9-0.9-0.9-1.5
			C223.6,104.4,223.8,104.3,223.9,104.2z M214.5,105.9c0.2-0.1,0.3-0.3,0.5-0.3c1.1-0.2,2.2-0.3,3.7,0.2c-1,0.8-1.7,1.4-2.5,1.9
			c-0.6-0.2-1.2-0.4-1.7-0.7C214.2,106.8,214.2,106.1,214.5,105.9z M221.9,114.3c-0.1,0-0.1,0-0.2,0.1c-1,0.5-2,1-3.1,1.5
			c-1-0.8-2.2-1.6-3.3-2.5c-0.4-0.3-0.8-0.8-1.1-1.2c-0.2-0.3-0.3-0.6-0.4-1c-0.1-0.6,0.2-1.1,0.6-1.5c0.4-0.3,1.1-0.3,1.6,0
			c0.4,0.3,0.8,0.6,1.1,1c0.3,0.3,0.5,0.6,0.6,0.8c2,0.4,2.9-1,4.4-1.3c0.3,0.8,0.6,1.5,0.8,2.3C223,113.4,222.7,113.8,221.9,114.3z
			 M221.9,107.9c-0.8,0.5-1.6,1-2.5,1.5c-0.8,0.5-0.9,0.4-1.7-0.7c0.3-0.4,0.5-0.7,0.9-1c1.1-0.8,2.3-1.6,3.6-2.5
			c0.3,0.7,0.5,1.2,0.8,1.9C222.7,107.4,222.3,107.7,221.9,107.9z M300.7,124.6c-2.5,2.8-5.1,5.5-8.8,6.9c-0.4,0.2-0.9,0.3-1.4,0.4
			c-0.9,0.2-1.8,0.4-2.6,0.7c-0.7,0.3-1.4,0.6-2.2,0.6c-0.2,0-0.4,0-0.6,0.1c-1.4,0.8-2.8,1.5-3.9,2.7c-0.6,0.6-1,1.3-0.9,2.2
			c0,1.4,0,2.8,0.1,4.2c0.1,1-0.3,1.8-1,2.3c-0.9,0.7-1.9,1.3-3.2,1.4c-1.4,0.1-2.7,0.4-4.1,0.3c-1.3-0.1-2.4-0.5-3.6-1.1
			c-0.9-0.5-1.3-1.1-1.1-2.2c0.3-1.8,0-3.4-0.8-5c-0.6-1.1-1.4-2.1-2.6-2.6c-1.8-0.8-3.5-1.6-5.3-2.4c-1.9-0.9-3.6-2-4.9-3.7
			c0-0.1-0.1-0.1-0.1-0.2c-2.7-2.3-3.5-5.6-4.2-8.9c-0.2-0.7-0.3-1.5-0.4-2.3c0-0.2-0.1-0.4,0-0.6c0.8-1.9,0.2-3.8,0.4-5.8
			c0.1-1,0.2-1.9,0.4-2.9c0.5-2.7,1-5.3,1.5-8c0.1-0.4,0.3-0.8,0.4-1.3c1,0.2,1.8,0.3,2.7,0.5c2.2,0.5,4.2,0.3,6.3-0.7
			c3.7-1.9,7.1-4.1,10-7c1.3-1.3,2.8-2.4,4.3-3.7c0.9,2.3,1.8,4.5,2.7,6.6c1.4,3.1,3.9,5.2,6.9,6.6c1.3,0.6,2.6,1,3.8,1.5
			c-0.1,1-0.1,2-0.2,2.9c0.7,0.2,0.9-0.2,1.1-0.5c0.5-1,1.2-1.9,2-2.6c1.3-1.1,2.6-1.4,4.2-0.8c1,0.4,1.8,1,2.5,1.8
			c0.6,0.6,0.9,1.3,0.9,2c0.1,0.6,0,1.3,0.1,1.9c0.1,1.6-0.8,2.4-2,3c-0.6,0.3-1.2,0.4-1.7,0.7c-0.8,0.4-0.9,0.7-0.4,1.6
			c0.1,0.1,0.2,0.2,0.4,0.3c0.3-0.1,0.6-0.2,0.9-0.3c0.7-0.2,1.1,0,1,0.8c-0.1,1.6,0.4,3.1,0.9,4.6c0.5,1.3,1.1,2.5,2.1,3.6
			c0.3,0.3,0.5,0.7,0.8,1.1C301.1,123.9,301,124.3,300.7,124.6z M305.4,110.7c-0.1,0.8-0.1,1.5-0.2,2.3c-0.5,2.7-1.2,5.4-2.3,8
			c-0.1,0.2-0.3,0.4-0.5,0.8c-2.8-2.6-3.6-5.8-3.4-9.4c1.2-1,1.4-2.5,1.4-4c0-0.8,0-1.7,0-2.5c-0.1-1.5-0.7-2.8-1.6-4
			c-1.4-1.9-4-2.5-6.2-1.9c-0.7,0.2-1.3,0.8-1.9,1.3c-2.2-0.4-4.3-1-6.3-2c-2.2-1.1-4.1-2.6-5.3-4.8c-1.2-2.3-2.4-4.5-2.7-7.2
			c0-0.5-0.3-1-0.4-1.6c-1,0.3-1.6,1-2.2,1.6c-1.8,1.9-3.8,3.6-5.9,5.2c-2.5,1.9-5.1,3.5-8,4.8c-1.9,0.8-3.8,1.1-5.9,0.6
			c-0.5-0.1-0.9-0.2-1.5-0.3c0-0.4-0.1-0.7,0-1c0.6-2.5,2.1-4.5,3.9-6.3c1.9-1.9,4.1-3.3,6.5-4.4c2.1-1,4.2-2.1,6.5-2.7
			c2.5-0.6,5-0.9,7.6-1c2.5-0.1,5,0,7.5-0.1c1.1,0,2.2,0.1,3.3,0.5c0.9,0.3,1.8,0.6,2.8,0.8c3.2,0.6,5.9,2.4,8.4,4.4
			c1.9,1.5,3.5,3.4,4.2,5.8c0.6,2.1,1.2,4.3,1.7,6.4c0.1,0.3,0.2,0.5,0.2,0.8C304.8,104.1,305.9,107.4,305.4,110.7z"/>
		<path class="st8" d="M211.4,107.6c-0.1,0.2-0.2,0.3-0.3,0.5c-1.6-0.2-3,0.2-4.5,0.5c-1.6,0.3-2.9-0.5-3.3-2.1
			c-0.2-0.9-0.2-1.8,0.2-2.6c0.5-1.1,1.2-2,2.2-2.8c1.6-1.2,3.3-2.3,5.2-3c2.6-1,5.1-2.1,7.6-3.3c1-0.5,1.9-1.4,2.7-2.2
			c1.4-1.5,1.4-3.3,0.9-5.1c-0.3-1.2-0.9-2.3-1.5-3.4c-0.5-0.9-1.2-1.6-2.2-1.8c-1.3-0.3-1.9-1.2-2.4-2.4c-1.5-3.4-4.3-5-7.8-5.6
			c-2.8-0.4-5.7-0.2-8.4,1c-0.3,0.1-0.6,0.1-0.8,0.3c-1.5,1.3-3.3,2.3-4.4,4.1c-0.7,1-1.4,2.1-2.1,3.1c-1.1,1.6-1.5,3.6-1.9,5.5
			c-0.2,1-0.2,2.1,0.5,3c0.1,0.2,0.4,0.2,0.9,0.5c-0.8-3.3,0.3-5.7,1.6-8.1c0.9-1.6,2.2-3,3.6-4.3c2.4-2.3,5.4-3,8.6-3.2
			c2.5-0.1,4.8,0.7,6.8,2.1c1.2,0.9,2.1,2,2.5,3.6c-0.9,0.4-1.8,0.8-2.6,1.3c-1.9,0.9-3.1,3.1-2.8,5.1c0.2,1.6,1.2,2.4,2.7,2.1
			c1.1-0.2,2.1-0.7,3.1-1.2c0.9-0.4,1.1-1.4,1.2-2.3c0.1-0.9,0.2-1.8,0.3-2.8c0.4,0,0.9-0.1,1.2,0.1c1.9,1,3.1,4.1,2.3,6.1
			c-0.3,0.6-0.7,1.2-1.2,1.6c-0.9,0.7-1.8,1.3-2.8,1.8c-2.6,1.2-5.3,2.3-8,3.5c-1.7,0.8-3.3,1.7-4.7,3c-2.3,2.1-2.6,4.6-1.9,7.4
			c0.4,1.9,2.5,3.2,4.4,3.1c0.6-0.1,1.2-0.3,1.8-0.4c0.8-0.1,1.5-0.2,2.3-0.2c0.2,0,0.4,0,0.6,0.1
			C211.4,109.5,211.7,108.6,211.4,107.6z M215.4,87.4c-0.8,0.9-1.8,1.5-3,1.5c-0.6,0-1.1-0.5-1-1s0.2-1,0.5-1.3
			c0.9-1.3,2.2-2,3.8-2.1C216.1,85.5,216.1,86.5,215.4,87.4z"/>
		<path class="st2" d="M220.6,151.3c-3,0-6,0.8-8.4,2.4L169.1,183c-2.2,1.5-3.5,3.6-3.6,5.6c0,1.9,0.9,3.6,2.7,4.9l82.1,60.3
			c4.1,3,11.5,3,16.1-0.2L305,220c2.2-1.5,3.5-3.6,3.6-5.6c0-1.9-0.9-3.6-2.7-4.9l-77.6-56C226.2,152,223.4,151.3,220.6,151.3z"/>
		<path class="st13" d="M231.6,217L202,191.6c-4.9-4.2-4.7-10.1,0.5-13.2l14.6-8.6c5.2-3.1,13.4-2.1,18.3,2.1l29.6,25.4
			c4.9,4.2,4.7,10.1-0.5,13.2l-14.6,8.6C244.7,222.1,236.5,221.2,231.6,217z"/>
		<g>
			<path class="st9" d="M346,185.2L346,185.2c-2.6,0-4.8-2.1-4.8-4.8l0,0c0-2.6,2.1-4.8,4.8-4.8l0,0c2.6,0,4.8,2.1,4.8,4.8l0,0
				C350.8,183.1,348.6,185.2,346,185.2z"/>
			<path class="st1" d="M346,186.2c-3.2,0-5.7-2.6-5.7-5.7c0-3.2,2.6-5.7,5.7-5.7c3.2,0,5.7,2.6,5.7,5.7
				C351.7,183.6,349.2,186.2,346,186.2z M346,176.6c-2.1,0-4.6,2.3-4.6,4.4s1.7,3.8,3.8,3.8s4.6-2.3,4.6-4.4
				C349.8,178.3,348.1,176.6,346,176.6z"/>
		</g>
		<path d="M284.4,158.5c-0.2-1.1-0.8-2.2-1.2-3.3c-0.1-0.1-0.4-0.2-0.6-0.2c-0.2,0-0.4,0.2-0.4,0.4c-0.1,0.7-0.1,1.4,0.2,2
			c0.2,0.4,0.4,0.9,0.6,1.3c0.8,3,0.8,6,0.2,9.1c-0.6,3-1.9,5.7-3.2,8.5c-0.9,2-2.5,3.4-4.2,4.5c-2.8,1.8-5.8,3.3-8.7,4.9
			c-2,1.1-4.1,2-6.2,3c-0.4,0.2-0.7,0.3-1.2,0.4c-0.3-1.9-1.7-3.1-2.5-4.6c1.4-0.5,2.6-0.9,3.9-1.2c1.4-0.3,2.9-0.7,4.1-1.4
			c2.1-1.1,4.2-2.4,6.2-3.8c2.2-1.5,4-3.5,5.4-5.7c0.4-0.7,0.8-1.5,1.1-2.2c0.7-2.3,1-4.6,0.8-7c-0.2-2.1-0.8-4.2-1.2-6.3
			c-0.1-0.4-0.3-0.7-0.7-0.6c-0.4,0.1-0.5,0.5-0.5,0.8c0,0.4,0,0.8,0.1,1.2c0.2,1.2,0.3,2.3,0.6,3.5c0.7,2.5,0.4,4.9-0.5,7.3
			c-0.3,0.7-0.5,1.5-0.9,2.1c-1.6,2.2-3.4,4.2-5.7,5.7c-0.8,0.5-1.6,1-2.5,1.5c-2,1.1-4,2.2-6.3,2.7c-1.6,0.4-3.2,0.9-4.8,1.4
			c-0.3,0.1-0.5,0.2-0.8,0.3c-0.6,0.1-1.1,0-1.5-0.5c-0.5-0.6-0.9-1.2-1.4-1.8c-0.3-0.4-0.7-0.9-1.1-1.2c-0.4-0.4-1-0.5-1.5-0.5
			c-0.8,0.1-1.3,0.5-1.3,1.3c0,1.2-0.1,2.4,0.4,3.5c0.2,0.4,0.2,0.9,0.4,1.6c-0.9,0.2-1.6,0.3-2.3,0.5c-1.4,0.4-2.3,1.3-2.3,2.8
			c0,1,0,1.9,0,2.9c0.6,0.1,1,0.2,1.6,0.3c-0.9,1.3-1.6,2.5-1,4c1.6,1.1,1.6,1.1,3,0.1c0.5-0.3,1-0.7,1.8-0.8
			c-0.1,0.7-0.2,1.3-0.2,1.9c0,1.4,0.2,1.9,1.2,2.1c1.5-0.8,2.9-1.8,4.2-2.9c-0.1-0.2-0.2-0.3-0.3-0.5c1.2-1.2,2.3-2.4,3.5-3.6
			c0.4-0.4,0.8-0.7,1.3-1c2-1,4-1.9,6-2.9c3.4-1.6,6.8-3.2,9.9-5.3c2.6-1.7,4.8-4,5.9-7c0.3-0.8,0.6-1.6,1-2.3
			c1.1-2.3,1.5-4.9,1.8-7.4C285.1,163.6,284.9,161.1,284.4,158.5z M258.1,190.1c-1,1-2.1,2-3.2,3.1c-0.6,1.3-1.2,2.7-2.2,3.8
			c-0.3,0.4-0.7,0.4-1.1,0.2l-0.1,0.1v-0.1c-0.4-0.3-0.6-0.8-0.2-1.2c0.8-1,1.4-2.1,1.9-3.3c-0.2-0.2-0.4-0.4-0.6-0.6
			c-0.1,0.1-0.2,0.2-0.3,0.2c-1.7,0.3-2.8,1.4-4,2.4c-0.5,0.5-0.5,0.5-1.5,0.3c0-0.8,0.4-1.3,1-1.7c0.7-0.5,1.5-1,2.3-1.5
			c0.6-0.4,1.2-0.7,1.9-1.1c-0.2-0.5-0.3-1-0.4-1.4c-1.4,0.2-2.8,0.3-4.2,0.3c-0.6,0-0.9-0.5-0.9-0.9c0,0,0,0,0-0.1
			c0-0.4,0.2-0.7,0.7-0.8c0.3,0,0.6,0,0.9,0c0.2-0.1,0.5-0.1,0.7-0.2c2.2-0.5,2.9-1.8,1.9-3.7c-0.4-0.7-0.5-1.4-0.6-2.2
			c0-0.2,0.1-0.5,0.1-0.7c0.5-0.2,0.8,0.1,1,0.3c0.3,0.4,0.6,0.9,0.9,1.4c0.8,1.3,1.7,2.4,3.2,3.1c1.2,0.6,2,1.7,2.7,2.8
			C258.4,189.2,258.5,189.7,258.1,190.1z"/>
		<path class="st1" d="M346.1,182.3c-0.4-0.6-0.8-1.2-1.2-1.8c-0.8,0.6-22.2,16.2-23.2,16.7c-0.9,1.1-2,1.9-3.2,2.7
			c-0.7,0.7-1.5,1.4-2.2,2.1c-1.5,1.4-2.7,2.9-3.6,4.8c-0.8,1.4-6.5,19.2-7.1,20.7c0.4,0.4,0.8,0.8,1.2,1.2c0-0.1,5.2-16.5,5.2-16.5
			c0.5-1.4,1.2-2.7,1.8-4c1.3-2.8,3.7-4.7,5.6-6.9c0.3-0.3,0.6-0.5,1-0.5c1-0.8,2.1-1.5,3.3-2c-0.1-0.1-0.2-0.1-0.3-0.2
			C324.1,198.1,345.4,182.7,346.1,182.3z"/>
		<path class="st1" d="M261.3,265.1c0-0.1,0-0.2,0.1-0.2c0.2-0.2,0.3-0.5,0.6-0.6c1.4-1,2-2.4,2.1-4.1c0.1-1-0.1-1.9-0.4-2.8
			c-0.5,0.2-1.1,0.4-1.7,0.5c0.5,0.9,0.6,1.9,0.6,2.9c-0.8,1.3-2.1,2-3.5,2.8c-1.1-0.9-1.8-1.9-2.2-3.1c-0.3-0.8-0.2-1.6,0.4-2.3
			l0,0c-0.6,0-1.2-0.1-1.8-0.2c-0.9,1.2-1,2.5-0.5,3.9c0.2,0.6,0.5,1.1,0.8,1.7c0.2,0.4,0.4,0.7,0.6,1.1c-0.4,0.2-0.7,0.4-1,0.4
			c-3.9,0.7-7.8,0.9-11.7-0.3c-1.6-0.5-3.3-1.1-4.8-1.7c0.5,1.1,0.2,1,0.8,2c1.5,0.5,3.7,2.1,5.2,2.5c1.4,0.4,2.9,0.4,4.3,0.4
			c3.1-0.1,6.1-0.3,8.9-1.4c1.5,0.6,2.9,1.3,4.4,1.8c1,0.4,2.1,0.7,3.1,1c0.2-0.8,0.4-1.5,0.5-2.3c-1.4-0.3-2.7-0.8-4.1-1.4
			C261.7,265.6,261.3,265.5,261.3,265.1z"/>
		<path d="M325,218.9c0.3-0.6,0.7-0.9,1.4-1.1C326.1,218.5,325.6,218.8,325,218.9C325,218.8,325,218.9,325,218.9z"/>
		<path d="M140.6,127.8c0.1,0.9-0.6,1-1.3,1.5C139.9,128.4,139.9,128.4,140.6,127.8C140.7,127.9,140.6,127.8,140.6,127.8z"/>
		<path d="M328.2,216.1c0.2-0.1,0.3-0.2,0.5-0.3c0,0.1,0.1,0.2,0.1,0.3s-0.2,0.2-0.3,0.2C328.4,216.3,328.3,216.2,328.2,216.1z"/>
		<path d="M141.8,126.9c-0.3,1-0.3,1-1.1,1l0,0C141,127.6,141.4,127.2,141.8,126.9L141.8,126.9z"/>
		<path d="M296.1,226.6c-0.2-0.3-0.4-0.7,0.2-0.9C296.3,226,296.2,226.3,296.1,226.6L296.1,226.6z"/>
		<path d="M294.8,226.6c0.2,0.8,0.2,0.8-0.6,1l0,0C294.4,227.3,294.6,226.9,294.8,226.6L294.8,226.6z"/>
		<path d="M151.9,16.7c-0.4,0.4-0.7,0.4-1.2,0.1l0,0C151.2,16.7,151.6,16.7,151.9,16.7C152,16.7,151.9,16.7,151.9,16.7z"/>
		<path d="M261.7,250.1c0.1-0.1,0.1-0.3,0.2-0.3s0.2,0.1,0.3,0.1l-0.1,0.1C261.9,250.1,261.7,250.1,261.7,250.1
			C261.6,250.1,261.7,250.1,261.7,250.1z"/>
		<path class="st14" d="M300.7,124.6c-2.5,2.8-5.1,5.5-8.8,6.9c-0.4,0.2-0.9,0.3-1.4,0.4c-0.9,0.2-1.8,0.4-2.6,0.7
			c-0.7,0.3-1.4,0.6-2.2,0.6c-0.2,0-0.4,0-0.6,0.1c-1.4,0.8-2.8,1.5-3.9,2.7c-0.6,0.6-1,1.3-0.9,2.2c0,1.4,0,2.8,0.1,4.2
			c0.1,1-0.3,1.8-1,2.3c-0.9,0.7-1.9,1.3-3.2,1.4c-1.4,0.1-2.7,0.4-4.1,0.3c-1.3-0.1-2.4-0.5-3.6-1.1c-0.9-0.5-1.3-1.1-1.1-2.2
			c0.3-1.8,0-3.4-0.8-5c-0.6-1.1-1.4-2.1-2.6-2.6c-1.8-0.8-3.5-1.6-5.3-2.4c-1.9-0.9-3.6-2-4.9-3.7c0-0.1-0.1-0.1-0.1-0.2
			c-2.7-2.3-3.5-5.6-4.2-8.9c-0.2-0.7-0.3-1.5-0.4-2.3c0-0.2-0.1-0.4,0-0.6c0.8-1.9,0.2-3.8,0.4-5.8c0.1-1,0.2-1.9,0.4-2.9
			c0.5-2.7,1-5.3,1.5-8c0.1-0.4,0.3-0.8,0.4-1.3c1,0.2,1.8,0.3,2.7,0.5c2.2,0.5,4.2,0.3,6.3-0.7c3.7-1.9,7.1-4.1,10-7
			c1.3-1.3,2.8-2.4,4.3-3.7c0.9,2.3,1.8,4.5,2.7,6.6c1.4,3.1,3.9,5.2,6.9,6.6c1.3,0.6,2.6,1,3.8,1.5c-0.1,1-0.1,2-0.2,2.9
			c0.7,0.2,0.9-0.2,1.1-0.5c0.5-1,1.2-1.9,2-2.6c1.3-1.1,2.6-1.4,4.2-0.8c1,0.4,1.8,1,2.5,1.8c0.6,0.6,0.9,1.3,0.9,2
			c0.1,0.6,0,1.3,0.1,1.9c0.1,1.6-0.8,2.4-2,3c-0.6,0.3-1.2,0.4-1.7,0.7c-0.8,0.4-0.9,0.7-0.4,1.6c0.1,0.1,0.2,0.2,0.4,0.3
			c0.3-0.1,0.6-0.2,0.9-0.3c0.7-0.2,1.1,0,1,0.8c-0.1,1.6,0.4,3.1,0.9,4.6c0.5,1.3,1.1,2.5,2.1,3.6c0.3,0.3,0.5,0.7,0.8,1.1
			C301.1,123.9,301,124.3,300.7,124.6z"/>
		<path class="st15" d="M217.4,64.1c-0.6,0.3-1.2,0.6-1.9,1c-0.5,1.4-1,2.9-0.2,4.5c0.3,0.5,0.7,0.7,1.2,0.4
			c0.7-0.4,1.4-0.8,2.1-1.2c0.4-0.2,0.7-0.4,1.1-0.6c1.6-0.5,3.1,0.6,3.1,2.3c0,2.1-1.5,3.4-3.7,3.2c-0.8-0.1-1.6-0.4-2.4-0.7
			c-0.4-0.1-0.7-0.3-1.2-0.4c-0.1,0.7-0.3,1.3-0.4,1.9c-0.7-0.1-0.9-0.5-0.9-1.1c0-0.3,0.1-0.7,0.2-1c0.2-0.7,0.2-1.4-0.2-2
			c-1-1.8-0.4-3.6,0.2-5.4c0.4-1.1,1.4-1.5,2.7-1.2C217.3,63.7,217.3,63.9,217.4,64.1z M217.5,71.2c0.7,0.9,1.5,0.5,2.3,0.6
			c0.7,0,1.2-0.4,1.6-0.8c0,0,0.1-0.1,0.1-0.2c0.3-0.4,0.1-1-0.3-1.3c-0.7-0.4-1.2-0.5-1.9,0C218.8,70.1,218.2,70.7,217.5,71.2z"/>
		<path d="M263.7,127.6c0.8,0.2,1.5,0.3,2.2,0.5c1.8,0.6,3.5,0.5,5.3,0.3c1.5-0.2,2.9-0.8,4.2-1.7c0.4-0.3,0.8-0.6,1.1-0.9
			c0.3-0.2,0.6-0.3,0.9-0.1s0.5,0.8,0.3,1.1c-0.8,1-1.5,2.1-2.8,2.6c-2.1,0.8-4.2,1.4-6.4,1.3c-1.6-0.1-3-0.6-4.2-1.5
			C263.8,128.9,263.3,128.4,263.7,127.6z"/>
		<path d="M267.9,120.2c1.4-1,1.4-2.4,1.8-3.7c0.3-1.2,0.6-2.5,0.9-3.8c0.9,0.2,1.1,0.3,0.9,1c-0.4,2.1-0.7,4.2-1.6,6.2
			c-0.3,0.7-0.7,1.3-1.1,1.9c-0.2,0.3-0.5,0.5-0.7,0.7c-0.7,0-1.1-0.4-1.3-0.9c-0.3-0.7-0.7-1.4-0.9-2.1c-0.7-2.7-0.8-5.3,0.2-7.9
			c0.1-0.2,0.2-0.3,0.4-0.4c0.5,0.2,0.4,0.5,0.3,0.8c-0.6,1.9-0.7,3.8-0.3,5.7C266.8,118.8,266.9,118.9,267.9,120.2z"/>
		<path d="M291.8,107.9c-0.4-1,0.2-1.7,0.8-2.4c0.1-0.1,0.2-0.2,0.3-0.2c0.6-0.4,1.2-1,2.1-0.6c1,0.4,1.8,1.1,2,2.2
			c0.2,1.3,0.1,2.5-0.9,3.5c-1.3-1,0-1.9,0-2.7c0-0.2,0-0.3-0.1-0.3c-1-1.4-1.8-1.5-3-0.2C292.7,107.5,292.5,108,291.8,107.9z"/>
		<path d="M264.5,102.8c0,0.7-0.2,1.4-0.7,1.9c-0.7,0.6-1.7,0.5-2-0.3c-0.2-0.6-0.3-1.2-0.3-1.8c0-0.9,0.7-1.6,1.5-1.6
			c0.9,0,1.5,0.7,1.5,1.6C264.5,102.6,264.5,102.7,264.5,102.8z"/>
		<path d="M274.7,101.8c0.6-0.4,1.1-0.7,1.7-0.4c0.5,0.3,0.6,0.9,0.6,1.5c0,0.4-0.1,0.8-0.2,1.2c-0.3,0.7-0.9,1-1.5,0.8
			s-1-0.8-1-1.4C274.4,102.9,274.6,102.4,274.7,101.8z"/>
		<ellipse class="st0" cx="119.5" cy="127" rx="9.2" ry="23.4"/>
		<ellipse class="st0" cx="119.5" cy="175.5" rx="9.2" ry="25.1"/>
		<ellipse class="st0" cx="364.1" cy="127" rx="9.2" ry="23.4"/>
		<path class="st1" d="M305.4,228.3c-0.6,1.3-2.7,6.3-3.4,7.6c-0.9,0.9-28,33.2-35.9,31.3l-3.6,1.4c0,0,2.8,1.9,6.3,0.4
			c6.3-3.3,12.8-9.3,21.7-18c7.4-7.2,13.8-12,17-22.6C306.3,229.3,306.7,227.5,305.4,228.3z"/>
		<path d="M305.9,208l-32.3-23.6c-0.6,0.4-1.1,0.8-1.7,1.1l32.9,24c1.8,1.3,2.8,3.1,2.7,4.9c0,2.1-1.3,4.1-3.6,5.6l-37.5,33.5
			c-4.6,3.1-12,3.2-16.1,0.2l-82.1-60.3c-1.8-1.3-2.8-3.1-2.7-4.9c0-2.1,1.3-4.1,3.6-5.6l43.1-29.3c2.3-1.6,5.4-2.4,8.4-2.4
			c2.9,0,5.7,0.7,7.7,2.2l37.4,27.4c0.6-0.4,1.1-0.8,1.7-1.2l-38-27.7c-4.8-3.5-13-3.5-18.3,0.1L168,181.3c-2.8,1.9-4.4,4.5-4.4,7.2
			c0,2.5,1.2,4.8,3.5,6.5l82.1,60.3c2.4,1.7,5.6,2.6,8.8,2.6c3.4,0,6.8-0.9,9.5-2.7l37.5-33.5c2.8-1.9,4.4-4.5,4.4-7.2
			C309.5,212,308.2,209.7,305.9,208z"/>
		<path class="st1" d="M235.3,257.3c-0.5-0.7-1-1.6-1.2-2.4c-0.6-2.1-0.5-4.3,0-6.4c0.2-0.8,0.6-1,1.4-0.8c1.6,0.5,3.2,0.4,4.7,0.3
			s2.6-0.8,3.5-1.9s0.6-3.3-0.5-4.2c-1.4-1.1-4.4-1.2-5.9-0.2c-0.6,0.4-1.2,0.8-1.7,1.2c-0.5,0.4-1,0.9-1.4,1.4
			c-2.5-1.7-3.8-3.2-4.8-5.7c-0.2-0.4-0.3-0.9-0.6-1.3c-1-1.8-1.2-3.7-1.1-5.7c0.2-2.5,0.3-5,1.1-7.4c0.8-2.3,1.5-4.6,2.4-6.9
			c0.5-1.2,1.9-4.8,2.7-5.8c-0.5-0.1-1-0.1-1.5-0.2c-0.6,1.2-2.3,4.7-2.9,6c-2.2,4.9-3.1,10.2-3.7,15.5c0,0.3,0,0.7,0.1,1
			c0.1,0.5,0.2,1.1,0.2,1.6c0,1.3,0.4,2.4,1,3.6c0.2,0.4,0.4,0.7,0.5,1.1c0.6,1.9,1.7,3.5,3.2,4.7c0.4,0.3,0.7,0.7,1.1,1
			c0.7,0.5,0.8,1.1,0.6,2c-0.5,1.9-0.7,3.8-0.6,5.8c0.1,1.6,0.4,3.2,1.3,4.6c1.3,2,2.8,4,4.7,5.5c1.9,1.6,4,2.9,6.2,3.9
			c0.6-0.6,1.2-1.3,1.8-1.9C241.7,264,238.1,261.2,235.3,257.3z M239.5,243.1c1.1-0.2,2.2,0,3,0.9c-0.3,1-1.1,1.3-1.9,1.4
			c-1.4,0.1-2.8,0.5-4.2-0.5C237.1,243.8,238.3,243.3,239.5,243.1z"/>
		<path class="st1" d="M248.3,100.8c7.5,5.8,25.4-7.5,25.4-7.5c7.5,11.4,14.9,10.2,14.9,10.2c6.4-8,13.7-1.3,11.9,2.3
			c-1.8,3.6-3.9,7.6-3.9,7.6c0.9,12.2,7.5,13.7,7.5,13.7c11.8-16,6-33.6,6-33.6c-1.7,6.3-1.7,6.3-1.7,6.3c-3.4-21.8-15-24.7-15-24.7
			c2.2,4.6,2.2,4.6,2.2,4.6c-16.4-6-26.4-1.5-26.4-1.5c4.1,1.2,4.1,1.2,4.1,1.2C252,83,247.2,92.2,247.2,92.2l6.5-1.7
			C248.3,95.9,248.3,100.8,248.3,100.8z"/>
		<path d="M109.5,64.8"/>
		<polygon class="st0" points="116.5,151.8 86.8,184.8 118.9,200.6 		"/>
		<polygon class="st0" points="365.6,103.4 395.2,136.4 363.2,152.2 		"/>
		<path class="st12" d="M378.4,144.9c-0.8-2.6-1.2-5.7-1.2-9c0-6.2,1.6-11.6,4.1-14.9l14,15.6L378.4,144.9z"/>
		<path d="M103.6,193.1c0.8-2.6,1.2-5.7,1.2-9c0-6.2-1.6-11.6-4.1-14.9l-14,15.6L103.6,193.1z"/>
		<polygon class="st6" points="363.7,81.2 239.5,8.6 120,81.2 119.1,79.7 239.5,6.6 364.6,79.7 		"/>
		<rect x="165.5" y="193.5" width="2.3" height="31"/>
		<rect x="247.4" y="253.5" width="2.3" height="31"/>
		<polygon points="307.3,240.4 305.1,240.4 305.1,220 307.3,218.3 		"/>
		<path class="st0" d="M128.8,78.3c0,14-5.4,28.7-9.2,25.4c-1.5-1.3-9.2-11.4-9.2-25.4s4-25.4,9.1-25.4S128.8,64.3,128.8,78.3z"/>
		<polygon class="st0" points="116.5,53.6 86.8,86.6 118.9,102.4 		"/>
		<path class="st1" d="M103.6,94.9c0.8-2.6,1.2-5.7,1.2-9c0-6.2-1.6-11.6-4.1-14.9l-14,15.6L103.6,94.9z"/>
		<ellipse class="st12" cx="118.2" cy="126.9" rx="3.7" ry="9.2"/>
		<ellipse class="st0" cx="364.1" cy="78.3" rx="9.2" ry="25.4"/>
		<ellipse class="st0" cx="364.1" cy="175.9" rx="9.2" ry="24.6"/>
		<ellipse class="st1" cx="364.1" cy="79.5" rx="3.7" ry="9.2"/>
		<ellipse cx="364.1" cy="175.9" rx="3.7" ry="9.2"/>
		<polygon class="st2" points="184.2,130.9 179.6,128.2 182.1,114.8 184.2,105.8 		"/>
		<path class="st16" d="M238.8,169.7c4.8,4.2,8,13.8,7.1,21.5l-2.6,21.7c-0.9,7.7-5.6,10.5-10.4,6.4l-29.2-25.2
			c-4.8-4.2-8-13.8-7.1-21.5l2.6-21.7c0.9-7.7,5.6-10.5,10.4-6.4L238.8,169.7z"/>
		<path class="st15" d="M217.4,173.9c-0.3,0-0.6,0-0.9,0c-2.1,0-3.5,1-4.7,2.6c-1.3,1.9-1.5,4-1,6.2c0.3,1.3,1.1,2.2,2.4,2.6
			c1.3,0.3,2.5,0.6,3.9,0.6c3.8-0.1,4.8-1.4,5.7-4.6c0.4-1.3,0.5-2.8-0.2-4.1C221.5,175.2,220,173.6,217.4,173.9z"/>
		<path class="st14" d="M214.5,105.9c0.2-0.1,0.3-0.3,0.5-0.3c1.1-0.2,2.2-0.3,3.7,0.2c-1,0.8-1.7,1.4-2.5,1.9
			c-0.6-0.2-1.2-0.4-1.7-0.7C214.2,106.8,214.2,106.1,214.5,105.9z"/>
		<path class="st14" d="M221.9,114.3c-0.1,0-0.1,0-0.2,0.1c-1,0.5-2,1-3.1,1.5c-1-0.8-2.2-1.6-3.3-2.5c-0.4-0.3-0.8-0.8-1.1-1.2
			c-0.2-0.3-0.3-0.6-0.4-1c-0.1-0.6,0.2-1.1,0.6-1.5c0.4-0.3,1.1-0.3,1.6,0c0.4,0.3,0.8,0.6,1.1,1c0.3,0.3,0.5,0.6,0.6,0.8
			c2,0.4,2.9-1,4.4-1.3c0.3,0.8,0.6,1.5,0.8,2.3C223,113.4,222.7,113.8,221.9,114.3z"/>
		<path class="st14" d="M258.1,190.1c-1,1-2.1,2-3.2,3.1c-0.6,1.3-1.2,2.7-2.2,3.8c-0.3,0.4-0.7,0.4-1.1,0.2l-0.1,0.1v-0.1
			c-0.4-0.3-0.6-0.8-0.2-1.2c0.8-1,1.4-2.1,1.9-3.3c-0.2-0.2-0.4-0.4-0.6-0.6c-0.1,0.1-0.2,0.2-0.3,0.2c-1.7,0.3-2.8,1.4-4,2.4
			c-0.5,0.5-0.5,0.5-1.5,0.3c0-0.8,0.4-1.3,1-1.7c0.7-0.5,1.5-1,2.3-1.5c0.6-0.4,1.2-0.7,1.9-1.1c-0.2-0.5-0.3-1-0.4-1.4
			c-1.4,0.2-2.8,0.3-4.2,0.3c-0.6,0-0.9-0.5-0.9-0.9c0,0,0,0,0-0.1c0-0.4,0.2-0.7,0.7-0.8c0.3,0,0.6,0,0.9,0
			c0.2-0.1,0.5-0.1,0.7-0.2c2.2-0.5,2.9-1.8,1.9-3.7c-0.4-0.7-0.5-1.4-0.6-2.2c0-0.2,0.1-0.5,0.1-0.7c0.5-0.2,0.8,0.1,1,0.3
			c0.3,0.4,0.6,0.9,0.9,1.4c0.8,1.3,1.7,2.4,3.2,3.1c1.2,0.6,2,1.7,2.7,2.8C258.4,189.2,258.5,189.7,258.1,190.1z"/>
		<path class="st12" d="M270.1,178.5c-5.3,4.4-12.9,6.1-12.9,6.1c1.8,3.6,2.5,4.6,2.5,4.6c11-4.4,16.1-8.3,16.1-8.3L270.1,178.5z"/>
		<path class="st17" d="M112.6-14.7c11.9-6.2,27.3-1.7,27.3-1.7c13.6-4,27.8,0,29.5,1.1c25.6-2.8,27.8,5.1,25.6,6.8
			c-3.4,4-11.4,8-18.2,9.7c-20.5,3.4-36.4-3.4-36.4-3.4c-13.1,4.5-18.7,0-22.2,1.1c-18.2,0-25.6,0-27.3,0
			c-9.1-5.7-2.3-10.2,2.8-11.4S112.6-14.7,112.6-14.7z"/>
		<path class="st17" d="M337.8,0.7c5.7-6.6,23.2-1.8,23.2-1.8c16-5.5,23.4,7.2,23.4,7.2c16.1-0.4,15,8,11.2,10.7
			c-7,4.7-17.5-1.5-21.2,1.8c-9.5,7.3-28.3,1.9-28.3,1.9c-6.4,3.4-22.7-5.3-22.7-5.3C311.9,20,311,10.3,311,10.3
			c3-11.4,14.1-6.1,14.1-6.1C331.2-2.4,337.8,0.7,337.8,0.7z"/>
		<path class="st17" d="M101,233.2c19.5-3.5,28.2,3.4,31.3,2.6c10.4,0.7,26.2,7.1,18.1,10.4c-8.1,3.3-20.4,4.9-27.5,5.9
			c-20.7,2.9-39.1-3.6-39.1-3.6c-12.8,2-15.1-3-11.4-5.6c4.1-2.6,12.1-4,13.9-5.4C90.9,233,101,233.2,101,233.2z"/>
	</g>
</g>
</svg>
