<?xml version="1.0" encoding="utf-8"?>
<!-- Generator: Adobe Illustrator 22.0.1, SVG Export Plug-In . SVG Version: 6.00 Build 0)  -->
<svg version="1.1" id="Layer_1" xmlns="http://www.w3.org/2000/svg" xmlns:xlink="http://www.w3.org/1999/xlink" x="0px" y="0px"
	 viewBox="0 0 900 650" style="enable-background:new 0 0 900 650;" xml:space="preserve">
<style type="text/css">
	.st0{clip-path:url(#SVGID_2_);}
	.st1{clip-path:url(#SVGID_4_);}
	.st2{fill:#7BCBBE;}
	.st3{fill:#F96858;}
	.st4{fill:#4D1A57;}
	.st5{fill:#7E3C8E;}
	.st6{fill:#ED452D;}
	.st7{fill:#C92F1F;}
	.st8{fill:#839E64;}
	.st9{fill:#FFFFFF;}
	.st10{fill:#A6CE72;}
	.st11{fill:#FECD36;}
	.st12{fill:#F2BE2A;}
	.st13{fill:#1B8910;}
	.st14{fill:none;}
	.st15{fill:#F3F7D6;}
	.st16{fill:#E5E8C5;}
	.st17{fill:#D13020;}
	.st18{fill:#677F47;}
	.st19{fill:#FFD90F;}
	.st20{fill:#F2EDE9;}
	.st21{fill:#D3A933;}
</style>
<g>
	<defs>
		<rect id="SVGID_1_" x="-6" y="-11" width="904" height="660"/>
	</defs>
	<clipPath id="SVGID_2_">
		<use xlink:href="#SVGID_1_"  style="overflow:visible;"/>
	</clipPath>
	<g class="st0">
		<g>
			<defs>
				<rect id="SVGID_3_" x="-482" y="-23.9" width="1496.6" height="1501.3"/>
			</defs>
			<clipPath id="SVGID_4_">
				<use xlink:href="#SVGID_3_"  style="overflow:visible;"/>
			</clipPath>
			<g class="st1">
				<rect x="-562.1" y="-63.1" class="st2" width="1597.1" height="1554.6"/>
				<path class="st3" d="M-497.2,422.6c42-28.1,61.5-31.3,81.7-23c20.1,8.2,45.1,15.1,65,4.2c19.9-10.8,66.6-17.8,93.4-7.5
					s80.2,1.1,93.3-13.9c13.2-15,55.2-34.6,93.4-9.7s67.4,10,84.2-0.8C33.2,359.4,61,341.2,61,341.2l46.8,31.4l34.2-29l78.6,39.7
					l-67.4,60.8l-656.5,31.6L-497.2,422.6z"/>
				<g>
					<rect x="-852" y="38.2" class="st4" width="169.5" height="353.8"/>
					<g>
						<rect x="-830.5" y="57.9" class="st5" width="40.7" height="37.4"/>
						<rect x="-782.1" y="57.9" class="st5" width="40.7" height="37.4"/>
						<rect x="-733.8" y="57.9" class="st5" width="40.7" height="37.4"/>
					</g>
					<g>
						<rect x="-830.5" y="118" class="st5" width="40.7" height="37.4"/>
						<rect x="-782.1" y="118" class="st5" width="40.7" height="37.4"/>
						<rect x="-733.8" y="118" class="st5" width="40.7" height="37.4"/>
					</g>
					<g>
						<rect x="-830.5" y="178.1" class="st5" width="40.7" height="37.4"/>
						<rect x="-782.1" y="178.1" class="st5" width="40.7" height="37.4"/>
						<rect x="-733.8" y="178.1" class="st5" width="40.7" height="37.4"/>
					</g>
					<g>
						<rect x="-830.5" y="238.2" class="st5" width="40.7" height="37.4"/>
						<rect x="-782.1" y="238.2" class="st5" width="40.7" height="37.4"/>
						<rect x="-733.8" y="238.2" class="st5" width="40.7" height="37.4"/>
					</g>
					<g>
						<rect x="-830.5" y="300.2" class="st5" width="40.7" height="37.4"/>
						<rect x="-782.1" y="300.2" class="st5" width="40.7" height="37.4"/>
						<rect x="-733.8" y="300.2" class="st5" width="40.7" height="37.4"/>
					</g>
				</g>
				<g>
					<g>
						<circle class="st4" cx="-963.8" cy="322.6" r="4.8"/>
						<circle class="st4" cx="-951.8" cy="322.5" r="4.8"/>
						<circle class="st4" cx="-921.7" cy="322.2" r="4.8"/>
						<circle class="st4" cx="-909.7" cy="322.1" r="4.8"/>
						<g>
							<path class="st4" d="M-998.7,280.9c6.1-8.4,15.5-14.4,20.7-12.7c8.9,2.2,18.1,10.7,18.1,10.7c13.9-10.9,19.5-11.5,27.1-5.4
								c7.6,6.1,7.6,6.1,7.6,6.1c10-11.7,24.6-14,37.8,0C-887.9,286.4-998.7,280.9-998.7,280.9z"/>
							<polygon class="st6" points="-1002.6,280.1 -886.1,278.4 -885.9,293.5 -895.6,310.4 -895.4,319.5 -972.2,320.6 -992.1,320.9 
								-992.2,309.7 -1002.8,292.6 							"/>
							<polygon class="st7" points="-973.3,309.4 -981.7,291.4 -981.9,279.8 -1002.6,280.1 -1002.4,292.6 -992.2,309.7 
								-992.1,320.9 -972.2,320.6 							"/>
						</g>
					</g>
					<g>
						<circle class="st4" cx="-1073.1" cy="326.1" r="5.3"/>
						<circle class="st4" cx="-1060" cy="326" r="5.3"/>
						<circle class="st4" cx="-1027.3" cy="325.7" r="5.3"/>
						<circle class="st4" cx="-1014.2" cy="325.6" r="5.3"/>
						<g>
							<path class="st4" d="M-1111.1,280.7c6.7-9.1,16.9-15.7,22.6-13.8c9.7,2.4,19.7,11.6,19.7,11.6c15.1-11.8,21.2-12.5,29.5-5.9
								c8.3,6.6,8.3,6.6,8.3,6.6c10.8-12.7,26.8-15.2,41.1,0C-990.5,286.7-1111.1,280.7-1111.1,280.7z"/>
							<polygon class="st6" points="-1115.3,279.8 -988.5,278 -988.3,294.4 -998.8,312.9 -998.7,322.7 -1082.3,324 -1103.8,324.3 
								-1104,312.1 -1115.6,293.5 							"/>
							<polygon class="st7" points="-1083.4,311.8 -1092.6,292.2 -1092.8,279.5 -1115.3,279.8 -1115.1,293.4 -1104,312.1 
								-1103.8,324.3 -1082.3,324 							"/>
						</g>
					</g>
				</g>
				<path class="st8" d="M226.6,400.3c-741.9,1.5-1339.3,140.4-1339.3,381.3c0,240.8,597.4,493.3,1339.3,500.3V400.3z"/>
				<path class="st8" d="M251.2,400.3c-0.8,0-1.6,0-2.4,0V1282c0.8,0,1.6,0,2.4,0c753.3,0,1364-257,1364-500.5
					S1004.5,400.3,251.2,400.3z"/>
				<path class="st9" d="M-236.9,326.3c-8.4,6.6-19.1,10.5-30.8,10.3c-15.4-0.4-28.8-7.9-37-19.2c-7.1,3.9-15.4,6.1-24.1,5.9
					c-8.8-0.2-16.9-2.8-23.9-7c8.4,79.8,23.9,228.8,23.1,232.8c27.4-8.4,74,4.7,82.3,16.6c14.5-118,24.3-186.8,30.8-226.9
					C-224,335.9-231,331.6-236.9,326.3z"/>
				<path class="st9" d="M-123.6,204.7c0.8-33.6-27.5-61.5-63.3-62.3c-10.3-0.2-20.1,1.8-28.8,5.7c-8.3-10.4-21.4-17.3-36.3-17.6
					c-5.9-0.1-11.6,0.8-16.9,2.6c-8.9-10.7-23.7-17.8-40.6-18.2c-24.7-0.6-45.6,13.5-50.4,32.6c-2.2-0.3-4.3-0.5-6.6-0.6
					c-27.9-0.7-50.9,17.3-51.5,40.1c-0.2,6.3,1.5,12.2,4.4,17.6c-8.1,7.1-13.1,16.5-13.4,27.1c-0.6,22.8,21.6,41.9,49.5,42.6
					c1.2,0,2.5,0,3.7-0.1c3,21.1,21.9,37.7,45.3,38.2c8.8,0.2,17-1.9,24.1-5.7c8.3,10.9,21.7,18.2,37.1,18.6
					c11.7,0.3,22.4-3.5,30.8-9.9c11.2,9.7,26,15.9,42.4,16.3c35.8,0.9,65.4-25.6,66.2-59.2c0.3-11.8-3.1-22.8-9-32.3
					C-128.9,230.2-124,218-123.6,204.7z"/>
				<path class="st10" d="M-41.4,702c-31.4-11.3-26.4-22.4-6.1-30.9c2.3-3.8,6.4-6.5,11.8-5.1c0.6,0.1,1.3,0.3,2.1,0.4
					c15.6-4.5,35.3-7.8,54.5-9.5c2.8,0.1,5.5,0.1,8,0.1c11.6-4.8,18.5-11.4,13.2-20.1c-12.6-20.6-46.6-27-67.4-32.1
					c-24.6-6-50-10.1-73.3-20.5c-4.9-2.2-6.9-6.7-6.9-11.1c-31.4-15.9-37-42.1-37-42.1c-41.9-39.2-105,4.5-143.8,7.8
					c-53.2,7.2-50-9.5-81.8-13.8c-32.6-2.9-78.2,35.9-131.8,62.1c-83.8,6.5-201.7,69.3-64.9,66.2c136.8-3.1,195.1,32.3,67.9,61
					C-624,743-444.8,755.8-365,747.2C-81.4,751.9,15.2,722.4-41.4,702z"/>
				<g>
					<path class="st4" d="M155.8,875C124.1,746.9-59.3,760.7-94.3,771.3c-28.6,5.3-67.8-28.6-67.8-28.6c22.2-33.9,4.6-63-42.7-43.1
						c-62.2-20.4-81.2-18.3-81.2-18.3c-13.8-41.3-70.9-25.2-37,18.2c-35,55.1-2.2,105.7,13.7,115.2c29.7,6.4,46.6,11.7,46.6,11.7
						l1.1,83.7L5.3,926l100.6-43.4L155.8,875z"/>
					<path class="st11" d="M-289.5,725.5c-20.1-5.1-26.4-15.2-13.7-21.9c3-1.6,10.4-2.4,15.2-1.3c5,1.2,16,5.6,17.4,8.1
						C-265.5,720.1-263.6,727.4-289.5,725.5z"/>
					<ellipse class="st11" cx="-311.7" cy="760.2" rx="18.5" ry="29.1"/>
					<path class="st4" d="M-305,740.4c-3.7-5.4-8-5.8-12.6-1.6c-3.4,3.1-5.7,7-7.3,12.9c6.6,7.3,14.7,7,22.3,8.8
						C-300.4,752.7-301.1,746.2-305,740.4z M-316.4,748.9c-2-2-1.4-3.6,0.4-5.2C-314.7,745.4-313.3,747.3-316.4,748.9z
						 M-308.9,752.2c-2-2-1.4-3.6,0.4-5.2C-307.2,748.8-305.8,750.6-308.9,752.2z"/>
					<path class="st4" d="M-317,753.6l-0.5,15c0,0-8.1-2.9-7.8-1.7s-1.2,3.7,8.3,7.3c9.5,3.6,14.4,1.5,11.1-1.1
						c-3.3-2.6-6.5-3.3-6.5-3.3v-13L-317,753.6z"/>
					<circle class="st4" cx="-298.4" cy="709.1" r="4.2"/>
					<path class="st11" d="M-276.7,723.1c-6-0.4-8.3-5.5-5-11.1c0.8-1.3,2.8-2.7,4.2-2.7c1.5,0,4.8,1.2,5.3,2.5
						C-270.3,716.9-269.3,720.9-276.7,723.1z"/>
					<circle class="st4" cx="-277.3" cy="716.3" r="4.2"/>
				</g>
				<path class="st8" d="M1006.4,261.7c-9.5-12.7-19.1-98.5-56.8-119.8c0,0-22.6-32.7-51.2-10.5c0,0,0,0-40.4-4.3
					c0,0,10.1,7.6-58.1,89.1c-17.3,14.8-57.2-8.5-83.2,12.1c0,0-15.3,81.1-147.4,64.6c-132.1-16.5-118.9-50.2-233.3,51.5
					c0,0,0,0-77,20.1c-0.3,2.9-0.6,5.7-1,8.6c-5.7,43.7-21.2,86-41.6,124.9c-20.6,39.3,91.3,158.9,59.5,189.9
					c-33.4,32.6,38.8,146,0,171.6C234.6,886.6-6.8,904-48.3,930.9c-82.4,53.6-215-55.3-304.5-14.3c-44.5,20.4-90.4,39.5-137.3,53.4
					c-22.8,6.7-46.1,11.8-69.8,14c-6.9,0.6-13.8,0.9-20.6,1l-75.1,582.7h1766.8l35-1159.8C1146.2,407.9,1095.4,322.1,1006.4,261.7z"
					/>
				<path class="st6" d="M326.4,352.8c91.1-86.9,105.3-86.6,192.5-70.9c91.4,17.9,108.4,24.3,165.5-11.8
					c80.5-93.2,80.5-38.1,95.3-38.1c21.2-6.4,57.2-65.7,57.2-65.7c31.8-50.8,43-51.2,49-33c31.5-22,37.8-28.4,37.8-28.4
					c16.9,33.9,10.6,33.9,16.9,33.9c27.5-2.1,29.7,8.5,31.8,29.7c6.4,53,144.9,192.7,150.8,203.3s-59.8,86.9-59.8,86.9l-61.4,8.5
					l-84.7-38.1c0,0-476.7-57.4-580.5-13.9C332.7,371.9,326.4,352.8,326.4,352.8z"/>
				<path class="st9" d="M805.4,210.9c57.8-21.3,40.8-7.5,33.5-0.7c-7.3,6.8,17.9,19.6,57-13.6c39.1-33.2,30.1,13.6,19.5,20.4
					c-10.6,6.8,24.4,4.3,39.1-10.2s27.7-6.8,34.2,14.5c7.3,22.1,35.5,25.4,25.7,12.7c-4.9-24.7-50.9-102.9-56.6-102.9
					c-6.5,0-21.2-1.7-21.2-1.7c-1.6-2.6-13.8-27.2-13.8-27.2l-26.8,23.8L866.6,114l-52.1,84.3L805.4,210.9z"/>
				<g>
					<path class="st11" d="M697.8,818.4c-1.7,65.6-3.3,70.5-3.3,70.5l-331.3,20.4L318.9,774c169.9-51,269.7-69,295.9-13.9
						c60.5-5,76.2,8,72,31.5"/>
					<path class="st4" d="M617.1,774.2c-3.9,7.1-3.3,21.9,1.7,25.4c3,2.1,8,2.5,11.9,2.3c1.9-0.1,4.5-3.4,5-5.6c1-4-2.7-5.5-5.8-7.5
						c-3.4-2.2-5.9-5.6-8.6-8.7C619.8,778.3,618.6,776.3,617.1,774.2z"/>
					<path class="st4" d="M647.7,807.5c-0.5-5.3,3.6-10.8,7.1-10.2c1.5,0.2,3.6,2.6,3.6,4c-0.1,3.8-1.2,7.9-5.9,8.7
						C650.8,810.3,648.8,808.1,647.7,807.5z"/>
					<g>
						<path class="st12" d="M445.9,784.7c-13.9,2.4-27.8,4.9-41.7,7.1c-1.7,0.3-3.7-1.3-7.3-2.8c3.4-1.4,5.1-2.3,6.9-2.7
							c11.9-2.3,23.8-4.6,35.8-6.6C442.5,779.2,445.2,779.9,445.9,784.7z"/>
						<path class="st12" d="M534.6,792.2c11.3-0.8,22.4-5.1,33.6-0.8C557,793.5,546,799.4,534.6,792.2z"/>
						<path class="st12" d="M469.5,809.9c13.3-2.9,25.7-5.5,38.7-5c-5.6,4.4-12.7,4-19,5.8C474.9,814.9,474.9,814.8,469.5,809.9z"/>
						<path class="st12" d="M530.6,840.9c2-0.7,4.1-2,6.1-1.9c8.3,0.8,16.7-4.8,26.1-0.1C548.8,844.3,541.1,845.2,530.6,840.9z"/>
						<path class="st12" d="M508,769.5c-8.2,6.8-23.9,9.4-35.1,6.6c4.4-6,11-2.5,16-4.2C494.2,770.1,500.3,770.3,508,769.5z"/>
						<path class="st12" d="M437.3,805.1c-9.3,3.8-18.2,9-29,6.6C417.3,807.2,426.9,804.6,437.3,805.1z"/>
						<path class="st12" d="M616.1,847.3c-3.3,5.7-4.8,6-19,3.9C602.3,843,610.1,848.8,616.1,847.3z"/>
					</g>
					<path class="st4" d="M677.6,801.9c-2.3,5.2-3.6,8-4.8,10.9c-5.1-2.3-5-5.4-3.3-8.1C670.3,803.4,673.2,803.3,677.6,801.9z"/>
					<path class="st4" d="M700.3,879.5c-1.5-33.2,0.5-66.6-10.9-98.5c-0.2-0.7,0-1.2,0.3-1.5c-18.6-23.9-44-27.4-73.6-23.2
						c-0.9-1.6-2.5-3.8-3.6-6.3c-8.9-19.9-26-26.9-47.2-28.1c-22.8-1.2-45,3.8-67.4,6.1c-7.9,0.8-15.7,1.8-23.5,2.9
						c-12.7,1.8-25.6,1.5-38.2,5.1c-10.6,3.1-21.6,5.9-32.6,6.8c-15.6,1.2-30.3,5.4-44.6,10.7c-5.4,2-39.5,10.3-43.6,13.6
						c1.6,2.6,2.4,5.4,2.9,8.3c2.2-1.4,34.2-8.4,37.1-9.6c1.9-0.9,3.9-1.8,6.1-2.4c10.2-3,20.7-5.3,31.1-7.6
						c100.6-23.1,155.1-31.8,186.7-22.1c7.4,1.6,14.3,4.7,19.8,10.9c4.8,5.4,8.8,11.7,11.9,18.1c51.2-10.1,69.4,13.8,74.3,24.5
						c0.5,1,1,2.5,1.5,4.3c2.6,5.7,4.3,12.1,5.1,19.1c1.2,11.2,2.8,22.4,3.7,33.6c1.3,11.2,2.1,21.1,2.1,26.4
						c-0.7,3.6-1.2,6.5-1.6,8.8H700.3z"/>
					<path class="st4" d="M690.2,784.5c14-14,17.1-16.8,17.1-16.8c5,8.4-13.5,33.1-13.5,33.1L690.2,784.5z"/>
				</g>
				<path class="st9" d="M720,226.1c-39.5,45.4-17.8,35.3-3.4,25.1c14.3-10.2,34.4-22.7,26.9-10.8s49.3-13.1,55.6-19.1
					s-25.2-3.6-37.8-6.6c-20-4.2-30.9,1.8-30.9,1.8C726.3,220.1,720,226.1,720,226.1z"/>
				<path class="st2" d="M1169.4,837.2c-441.1-127-477.7-193.1-455.1-210.7c82.4-64,267.6-92,332.3-108.5
					c38.8-9.9,159.2,32.3,182.2,4.2c-4.9-3.1-181-46.3-185.9-54c-35.8-56.4-230-72.3-564.2-74.5c-46.1,1.6-94.7,3.8-145.4,6.5
					l-0.7,16.3c505.9-8.3,687,29.4,586.3,60.5c-38.6,9.3-73.7,17-105.4,24.3c-73.1,17.5-132.3,36.2-170.7,60.7
					c-12.3,8.4-23.4,18-33.3,29.2c-9,11.7-14.2,24.7-15.2,39.1c-4,57.8,67,103.5,129.3,136.8c44.4,23.7,229.9,106.1,301.8,134.7
					l146.2-56.4L1169.4,837.2z"/>
				<path class="st9" d="M356.6,323.7c135.3-1.6,154.1-2.4,140.2-11.9s19.7-13.5,41-7.1c34.4,9.5,82.8-4,63.1-4
					c-19.7,0,12.3-7.9,12.3-7.9c-139.4-26.2-177.1-31.8-198.4-17.5C393.5,289.5,356.6,323.7,356.6,323.7z"/>
				<path class="st9" d="M742.5,98.5c1.8,2.5,2.8,4.3,4.2,5.9c5.5,6.7,6.3,14.5,4,22.2c-2.9,9.7-11.9,13.3-21,14.3
					c-16.5,1.9-33.1,1.5-48.7-5c-10.4-4.3-20.6-3.5-30.6,0.8c-6.3,2.8-12.3,6.2-18.4,9.4c-1.2,0.6-2.5,1.2-3.3,2.2
					c-5.9,7.6-14.4,11.6-22.8,15.8c-3.1,1.5-5.6,4.1-8.7,5.6c-16.4,8.4-33.4,9.9-50.8,3.4c-6.5-2.4-13.1-5-18.9-8.7
					c-14.3-9-29.4-10.3-45.9-7.7c-8.9,1.4-17.2,4.2-25.5,7.1c-8.8,3.1-21-0.3-26.3-7.5c-2.6-3.5-2.7-7.4-0.8-11.1
					c2.4-4.7,4.9-9.3,8-13.6c3.4-4.9,9.4-6,14.9-7.1c6.3-1.3,12.9-1.8,19.4-2.7c1.6-0.2,3.3-0.1,4.9-0.3c3.3-0.4,6.8-0.9,7.6-4.6
					c0.7-3.4-2-5.4-4.7-6.6c-5-2.4-10.3-4.3-15.5-6.4c-4.2-1.7-8.8-2.9-12.4-5.5c-7.2-5.1-5.4-11.2-1-15.9
					c9.3-9.8,21-15.4,34.5-17.5c7.5-1.2,15.1-1.9,22.7-2.2c12.7-0.5,24.4-3.3,35.4-9.8c21.6-12.7,44.8-13.7,68.9-7.3
					c14,3.7,27.8,9.1,42.8,8.8c4.6-0.1,9.2-0.3,13.7-1c16-2.6,31.9-5.8,47.9-8.3c15.1-2.3,29.7,0.1,43.9,5.5c3.4,1.3,7.3,2.3,11,2.2
					c4.8-0.2,7.1,2.2,8.8,5.5c4.3,8.5,0.9,23.5-7.1,29.3c-2.9,2.1-6.7,3.2-10.2,4.2c-3.9,1.1-8,1.4-11.8,2.5
					C747.8,95.3,745.4,97,742.5,98.5z"/>
				<path class="st4" d="M1437.3,354.1c2.8-0.1,5.1,0.3,7.1-0.3c5.7-1.5,8.6,0.7,9.8,5.8c0.3,1.4,0.7,2.8,1.2,4.2
					c2.9,8.4,5.5,9.6,13.9,5.8c5.6-2.5,10.9-5.4,16.7-8.3c1.6,3.2,2.7,5.9,4.2,8.3c4.2,7.3,6.8,8.1,14.4,4.7
					c1.7-0.8,3.5-1.4,4.9-2.6c4.9-4.1,9.5-3.9,15.3-0.9c10.1,5.3,12.1,4.1,16.2-6.3c1.1-2.9,2.9-5.6,4.5-8.5c2.2,1.2,3.5,2,4.8,2.5
					c1.3,0.5,2.7,0.8,4,1.2c2.4-7.8,0.5-12.7-5.8-16.4c-3.5-2-7.6-3.4-10.3-6.1c-3.9-3.9-7.2-4.5-11.6-1.1c-1.7,1.4-3.7,2.4-5.7,3.4
					c-7.3,3.7-10.2,3-15.3-3.3c-1.4-1.7-2.3-3.7-3.5-5.5c-3.4-5.2-5.4-5.9-10.8-2.8c-4.4,2.5-8.4,5.7-12.6,8.6
					c0.5-0.7,0.9-1.4,1.4-2.1c-2.6-1.5-5.9-2.5-7.7-4.6c-6.8-8.2-15.1-8.9-24.6,1.1c-2.2,2.4-3.4,5.9-5.9,7.7
					C1436.5,342.4,1435.8,347.1,1437.3,354.1z"/>
				<path class="st7" d="M1009,335.8c-8.7-15.3-22.2-26.2-21.1-44.1c0.4-5.7-0.1-11.5-0.8-17.2c-0.4-3.1-1.3-6.6-3.4-8.9
					c-7.9-8.6-11.3-18.2-10.1-29.7c0.6-5.6-0.6-11.4-0.8-17c-0.1-2.3,0.5-4.6,1-8.5c6.6,6.2,7.2,12.7,6.3,18.7
					c-1.5,10.2,0.5,18.9,6.9,27.3c4.3,5.7,7.1,12.5,6.2,20.2c-1.9,15.9,3.6,29.6,13.6,42.2C1010.3,322.9,1012.2,328,1009,335.8z"/>
				<path class="st7" d="M905.8,229.3c6.5,9.2,5.3,16.6,2.3,23.7c-5.9,13.5-5,27.2-2.8,41.2c1.9,12.4,3,24.9,4,37.4
					c0.3,3.6-1,7.3-1.5,11c-0.9,0.1-1.7,0.2-2.6,0.4c-1.1-1.9-2.8-3.7-3.1-5.7c-2.2-19.5-4.8-39-6-58.6c-0.4-6.9,1.8-14.1,4.1-20.8
					c2.4-7.2,4.5-14.3,3.3-22C903.3,234.2,904.7,232.4,905.8,229.3z"/>
				<path class="st7" d="M957.8,362.3c-1.4-1.8-3.7-3.4-4-5.4c-1.6-10.2-2.5-20.6-4.2-30.8c-0.8-4.5-2.5-9-4.6-13.1
					c-4.9-9.3-7.4-18.9-5.7-29.1c1.4-8.6,3.2-17.1,4.9-25.7c0.9,0.1,1.8,0.2,2.7,0.3c0,2.2,0.2,4.5-0.2,6.7
					c-3,16.7-1.8,32.8,6.7,48.1c1.5,2.8,2.2,6.1,2.8,9.3c1.8,9.9,3.4,19.8,4.9,29.7c0.4,3,0,6-0.1,9
					C959.8,361.6,958.8,361.9,957.8,362.3z"/>
				<path class="st13" d="M976,1139.4c0.7,4.5,1.2,7.6,1.8,12.1c6.6-6,12.5-11.5,19.7-18.2c0.8,4.2,1.3,6.8,1.9,9.4
					c0.6,2.7,1.2,5.3,2,8c0.6,2.1,1.4,4.2,2.2,6.2c-2.5,0.6-5,1.1-8.4,1.9c-0.4-5.5-0.6-9.6-1-15.5c-3.7,4.2-6.3,7.1-8.8,10.1
					c-2.6,2.9-5.1,5.9-7.7,8.9c-6.8-4-3.3-9.7-5.1-16.9c-3.4,7.4-5.8,12.6-9.1,19.7c-4.1-5.5-7.1-9.7-10.6-14.5
					c-1.4,3.9-2.8,7.8-4.5,12.5c-4-8.8-3.3-12.1,4.1-21.5c3.4,4.5,6.5,8.6,10.5,13.9C964.3,1147.8,967.1,1142.1,976,1139.4z"/>
				<path class="st7" d="M480.6,341.9c-3.6,0.9-7.1,2.4-10.7,2.6c-23.4,1.6-46.4-1.4-69.5-3.7c-0.2-0.9-0.4-1.8-0.6-2.6
					c1.8-1.2,3.5-3.2,5.5-3.5c3.7-0.5,7.5-0.3,11.2,0c21.1,1.5,42.2,3,63.2,4.5C480,340.1,480.3,341,480.6,341.9z"/>
				<path class="st7" d="M455.1,357.3c28.1-1.5,56.2-3,86-4.6c-2.2,2.5-3.3,4.9-4.7,5.1c-8.7,1.5-17.5,3.2-26.4,3.4
					c-16.6,0.4-33.3-0.3-49.9-0.5c-1.7,0-3.4-0.6-5.1-0.9C455.1,358.9,455.1,358.1,455.1,357.3z"/>
				<path class="st7" d="M725,343.2c0.5-2.9,1.4-5.8,1.4-8.7c-0.1-4.5,0.2-9.4-1.5-13.4c-1.9-4.5-2-8.6,0.6-12.1
					c4.3-5.7,4.9-11.7,4.2-18.3c-0.3-2.7,1.4-5.6,3.3-8.2c4.4,7.8,4.6,15.9,0.4,23.1c-2.9,5.1-3.3,9.2-0.6,14
					c4.4,7.6-0.3,14.4-2.2,21.4c-0.4,1.3-2.5,2.1-3.8,3.2C726.3,343.8,725.7,343.5,725,343.2z"/>
				<path class="st7" d="M787.4,297c3.5,17.2-4.2,30.8-13.8,43.9c1.2-4.4,1.3-9.4,3.7-13c4.7-6.8,5.2-13.8,4.6-21.3
					c-0.2-2.1-0.3-4.5,0.6-6.3C783.3,298.8,785.7,298.1,787.4,297z"/>
				<path class="st7" d="M565.6,333.7c10.2-4.7,19.4,2.9,29.1,2c1.5,5.6-2.4,6.9-5.4,6.4c-8.1-1.3-16.1-3.6-24.2-5.5
					C565.3,335.6,565.5,334.7,565.6,333.7z"/>
				<path class="st4" d="M829.6,1489.5c4.9,8.5,6.1,18.1,8.9,27.2c0.3,1.1-1.3,2.8-2.3,4.5C831,1514.2,828.2,1502.7,829.6,1489.5z"
					/>
				<path class="st7" d="M819.8,308.5c-1.8-3.5-2.6-4.4-2.6-5.4c0-1.4,0.4-2.8,1-4.1c3.9-8.4,7.9-16.8,12.6-25
					C829.6,285.5,825.3,296,819.8,308.5z"/>
				<path class="st7" d="M640.3,360.2c-9.1,3.6-18.8,3.1-27.9-1.1C621.9,357.1,630.4,355.2,640.3,360.2z"/>
				<path class="st4" d="M831.7,1118c-0.1,6.3-0.3,12.6-0.4,19.5c-6.8-6.3-4.4-13-2.6-19.7C829.8,1117.9,830.8,1117.9,831.7,1118z"
					/>
				<path class="st4" d="M809.9,1119.8c0.5,7.1,1,14.2,1.4,21.3c-6.9-6.5-5.6-13.8-4.4-21.1C807.9,1119.9,808.9,1119.8,809.9,1119.8
					z"/>
				<path class="st7" d="M864.6,289.4c-3.4,6.7,0.7,15.7-7.6,22.4C855.3,302,858.7,295.3,864.6,289.4z"/>
				<path class="st13" d="M956.8,935.1c3.2,6.8,3.9,13.7,2,22.4C953,949.4,957.6,942,956.8,935.1z"/>
				<path class="st13" d="M940.1,937.9c1.4,7.2,4.3,14.5,0,23.1C937.5,952.5,936.7,945.3,940.1,937.9z"/>
				<path class="st13" d="M976.6,937.3c7.4,7.7,7.8,9,5.5,18.3C976,950.2,980.2,942.6,976.6,937.3z"/>
				<path class="st7" d="M801.8,248.8c-0.9,3.7-1.9,7.4-2.9,11.4C794.1,253.5,794.1,253.5,801.8,248.8z"/>
				<path class="st6" d="M1038,833.6l0.2,8.1c0,0-104.9,30.2-133.5,9.5c-28.6-20.7-150.9-15.9-163.6-4.8
					c-12.7,11.1-69.9,12.7-117.6-1.6c-47.7-14.3-79.4-4.8-117.6,7.9c-38.1,12.7-98.5,0-147.8-39.7l2.5-1.5
					c-35.9-32-70.6-106.2-62.1-278.2l-34.4,8.1l-60.2-8.1c0,96.3,1.8,167.5-7.1,216.6c-1.7,11.5-4.4,24.7-8.8,39.2
					c-14.3,47.7-90.6,92.2-152.5,69.9c-62-22.2-211.3-22.2-235.1-4.8c-23.8,17.5-65.1,15.9-104.9-3.2
					c-30.2-9.5-46.1-15.9-119.2,20.7c-43.8,15-37-20.5-89-8.4v563.2h102.9v70.5c0,81.6,58.7,148.1,130.9,148.1h188.3v-9.9h-188.3
					c-67.3,0-122.1-62-122.1-138.2v-70.5h657.4v-80.6l465.2,8.8l0.8,71.8h188.9v70.5c0,76.2-54.8,138.2-122.1,138.2H601v9.9h188.3
					c72.2,0,130.9-66.4,130.9-148.1v-70.5h571.3v-594L1038,833.6z"/>
				<path class="st11" d="M230.6,566.8c0.4,53.3,1.7,92.4,4.9,84.6c3.6-6.2,4.5-10.8,4.8-13.7c0.3,17,2.1,98.9,9.4,85.7
					c8.1-14.7,7.4-105.6,7.4-105.6c8.1,11.9,9.4-1.4,12.1-7c-0.8-15.5-1.5-30.2-2.2-44.1H230.6z"/>
				<path class="st11" d="M219.9,728.8c-7.9,76.3-1.6,92.2-1.6,92.2C235.8,760.6,219.9,728.8,219.9,728.8z"/>
				<path class="st11" d="M270.8,698.7c-6.4,55.6-1.6,116-1.6,116C285.1,741.6,270.8,698.7,270.8,698.7z"/>
				<path class="st11" d="M-287.7,1138.3c-20-6.2-41.6-1.4-41.6-1.4C-303,1152.7-287.7,1138.3-287.7,1138.3z"/>
				<path class="st11" d="M-396.3,1010.2c-20-6.2-41.6-1.4-41.6-1.4C-411.6,1024.6-396.3,1010.2-396.3,1010.2z"/>
				<path class="st11" d="M736,1174.4c-20-6.2-41.6-1.4-41.6-1.4C720.7,1188.7,736,1174.4,736,1174.4z"/>
				<path class="st11" d="M299.4,798.8c0,36.5,3.2,55.6,3.2,55.6C310.5,817.8,299.4,798.8,299.4,798.8z"/>
				<path class="st11" d="M272.4,636.7c0,38.1,6.4,46.1,6.4,46.1C281.9,644.6,272.4,636.7,272.4,636.7z"/>
				<circle class="st9" cx="-563.4" cy="1290.2" r="162.1"/>
				<circle class="st9" cx="-431" cy="1429" r="162.1"/>
				<ellipse class="st11" cx="-352" cy="933.8" rx="6.4" ry="3.2"/>
				<ellipse class="st11" cx="-184.2" cy="1121.8" rx="6.4" ry="3.2"/>
				<ellipse class="st11" cx="-169.3" cy="1206.5" rx="6.4" ry="3.2"/>
				<ellipse class="st11" cx="585" cy="884.2" rx="6.4" ry="3.2"/>
				<ellipse class="st11" cx="880.7" cy="1108.9" rx="6.4" ry="3.2"/>
				<ellipse class="st11" cx="739.4" cy="1098.4" rx="16.9" ry="5.2"/>
				<ellipse class="st11" cx="927.7" cy="931.4" rx="16.9" ry="5.2"/>
				<ellipse class="st11" cx="-394.4" cy="1099.7" rx="6.4" ry="3.2"/>
				<ellipse class="st11" cx="798.8" cy="1164.2" rx="6.4" ry="3.2"/>
				<rect x="-482" y="-15.3" class="st14" width="1496.6" height="1556.4"/>
				<path class="st4" d="M308.4,570H195c-9.9,0-18-8.1-18-18v0c0-9.9,8.1-18,18-18h113.3c9.9,0,18,8.1,18,18v0
					C326.4,561.9,318.3,570,308.4,570z"/>
				<g>
					<polygon class="st4" points="66.6,430.1 66.6,636.7 146,496.2 209.6,496.2 209.6,352.4 173.9,352.4 					"/>
					<polygon class="st4" points="324.8,352.4 289,352.4 289,496.2 352.6,496.2 432,636.7 432,430.1 					"/>
				</g>
				<path class="st15" d="M162.2,549.3h174.2V201.6l-0.2-1.2c-3.2-41.2-41.9-120.6-86.9-120.6c-45,0-83.7,79.4-86.9,120.6l-0.2,2.2
					V549.3z"/>
				<path class="st16" d="M252.8,88.4c-2.2-0.4-4.4-0.6-6.6-0.6c-36.9,0-72.5,74.2-75.4,110.8l-0.2,1.9v344.1h82.2V88.4z"/>
				<circle class="st6" cx="251.7" cy="244.3" r="59.3"/>
				<polyline class="st6" points="339.1,512.8 339.1,528.7 160.1,528.7 160.1,512.8 				"/>
				<g>
					<rect x="252.8" y="512.8" class="st14" width="86.3" height="15.9"/>
					<rect x="160.1" y="512.8" class="st14" width="10.5" height="15.9"/>
					<rect x="170.6" y="512.8" class="st17" width="82.2" height="15.9"/>
				</g>
				<path class="st4" d="M341.2,554.1H157.4V197.8h0.4c4.5-42.9,44.8-122.8,91.5-122.8c46.7,0,87,79.9,91.4,122.8h0.4V554.1z
					 M162.2,549.3h174.2V201.6l-0.2-1.2c-3.2-41.2-41.9-120.6-86.9-120.6c-45,0-83.7,79.4-86.9,120.6l-0.2,2.2V549.3z"/>
				<path class="st18" d="M496.2,445.8h-19c-0.8,0-1.5-0.7-1.5-1.5l0,0c0-0.8,0.7-1.5,1.5-1.5h19c0.8,0,1.5,0.7,1.5,1.5l0,0
					C497.7,445.1,497,445.8,496.2,445.8z"/>
				<path class="st18" d="M578.4,471.9h-19c-0.8,0-1.5-0.7-1.5-1.5v0c0-0.8,0.7-1.5,1.5-1.5h19c0.8,0,1.5,0.7,1.5,1.5v0
					C579.9,471.2,579.2,471.9,578.4,471.9z"/>
				<path class="st18" d="M691.8,460.2h-19c-0.8,0-1.5-0.7-1.5-1.5l0,0c0-0.8,0.7-1.5,1.5-1.5h19c0.8,0,1.5,0.7,1.5,1.5l0,0
					C693.2,459.6,692.6,460.2,691.8,460.2z"/>
				<path class="st18" d="M780.7,479.3h-19c-0.8,0-1.5-0.7-1.5-1.5l0,0c0-0.8,0.7-1.5,1.5-1.5h19c0.8,0,1.5,0.7,1.5,1.5l0,0
					C782.2,478.6,781.5,479.3,780.7,479.3z"/>
				<path class="st18" d="M517,500.5h-19c-0.8,0-1.5-0.7-1.5-1.5l0,0c0-0.8,0.7-1.5,1.5-1.5h19c0.8,0,1.5,0.7,1.5,1.5l0,0
					C518.5,499.8,517.8,500.5,517,500.5z"/>
				<path class="st18" d="M609.2,522.3h-19c-0.8,0-1.5-0.7-1.5-1.5l0,0c0-0.8,0.7-1.5,1.5-1.5h19c0.8,0,1.5,0.7,1.5,1.5l0,0
					C610.7,521.6,610,522.3,609.2,522.3z"/>
				<path class="st18" d="M467.2,527.5h-19c-0.8,0-1.5-0.7-1.5-1.5l0,0c0-0.8,0.7-1.5,1.5-1.5h19c0.8,0,1.5,0.7,1.5,1.5l0,0
					C468.7,526.8,468,527.5,467.2,527.5z"/>
				<g>
					<path class="st19" d="M-92.9,1138.3v76.7h-27.3v-135.6h30l23.2,63.3l21.3-63.3h31.4V1215h-28v-78.1l-19.4,53.8h-11.6
						L-92.9,1138.3z"/>
					<path class="st19" d="M90,1079.4c8,0,13.5,6.4,13.5,15.9v103.8c0,9.4-5.5,15.9-13.5,15.9H30.9c-8,0-13.5-6.4-13.5-15.9v-103.8
						c0-9.4,5.5-15.9,13.5-15.9H90z M73.8,1111c0-1.2-0.9-2.2-1.9-2.2H48.6c-0.7,0-1.5,1-1.5,2.2v72.9c0,1,0.9,1.8,1.5,1.8h23.4
						c1,0,1.9-0.8,1.9-1.8V1111z"/>
					<path class="st19" d="M162.5,1140.5v74.5h-27.3v-135.6h27.3l34.4,74.7v-74.7h27.3V1215H196L162.5,1140.5z"/>
					<path class="st19" d="M328,1079.4v29.3h-26.1V1215h-29.7v-106.3h-26.1v-29.3H328z"/>
					<path class="st19" d="M434.3,1215h-29.7v-33.7h-26.1v33.7h-29.7v-119.7c0-9.4,5.5-15.9,13.5-15.9h58.5c8,0,13.5,6.4,13.5,15.9
						V1215z M404.7,1151.9v-40.8c0-2.4-1.7-4-4.1-4h-18.4c-2,0-3.6,1.8-3.6,4v40.8H404.7z"/>
					<path class="st19" d="M493.3,1140.5v74.5h-27.3v-135.6h27.3l34.4,74.7v-74.7H555V1215h-28.1L493.3,1140.5z"/>
					<path class="st19" d="M672.1,1215h-29.7v-33.7h-26.1v33.7h-29.7v-119.7c0-9.4,5.5-15.9,13.5-15.9h58.5c8,0,13.5,6.4,13.5,15.9
						V1215z M642.5,1151.9v-40.8c0-2.4-1.7-4-4.1-4H620c-2,0-3.6,1.8-3.6,4v40.8H642.5z"/>
				</g>
				<path class="st18" d="M555.1,534.9h-19c-0.8,0-1.5-0.7-1.5-1.5l0,0c0-0.8,0.7-1.5,1.5-1.5h19c0.8,0,1.5,0.7,1.5,1.5l0,0
					C556.6,534.2,555.9,534.9,555.1,534.9z"/>
				<path class="st18" d="M903.3,709.2h-19c-0.8,0-1.5-0.7-1.5-1.5l0,0c0-0.8,0.7-1.5,1.5-1.5h19c0.8,0,1.5,0.7,1.5,1.5l0,0
					C904.8,708.6,904.1,709.2,903.3,709.2z"/>
				<path class="st18" d="M1004.2,677.8h-19c-0.8,0-1.5-0.7-1.5-1.5l0,0c0-0.8,0.7-1.5,1.5-1.5h19c0.8,0,1.5,0.7,1.5,1.5l0,0
					C1005.7,677.1,1005,677.8,1004.2,677.8z"/>
				<path class="st18" d="M639.9,733.5h-19c-0.8,0-1.5-0.7-1.5-1.5l0,0c0-0.8,0.7-1.5,1.5-1.5h19c0.8,0,1.5,0.7,1.5,1.5l0,0
					C641.3,732.8,640.7,733.5,639.9,733.5z"/>
				<path class="st18" d="M377.2,700.7h-19c-0.8,0-1.5-0.7-1.5-1.5v0c0-0.8,0.7-1.5,1.5-1.5h19c0.8,0,1.5,0.7,1.5,1.5v0
					C378.7,700,378,700.7,377.2,700.7z"/>
				<path class="st18" d="M482.3,626.8h-19c-0.8,0-1.5-0.7-1.5-1.5l0,0c0-0.8,0.7-1.5,1.5-1.5h19c0.8,0,1.5,0.7,1.5,1.5l0,0
					C483.8,626.1,483.1,626.8,482.3,626.8z"/>
				<path class="st18" d="M550.9,591.6h-19c-0.8,0-1.5-0.7-1.5-1.5l0,0c0-0.8,0.7-1.5,1.5-1.5h19c0.8,0,1.5,0.7,1.5,1.5l0,0
					C552.4,590.9,551.7,591.6,550.9,591.6z"/>
				<path class="st18" d="M-404.5,486.3h-19c-0.8,0-1.5-0.7-1.5-1.5l0,0c0-0.8,0.7-1.5,1.5-1.5h19c0.8,0,1.5,0.7,1.5,1.5l0,0
					C-403,485.6-403.7,486.3-404.5,486.3z"/>
				<path class="st18" d="M371.9,582h-19c-0.8,0-1.5-0.7-1.5-1.5l0,0c0-0.8,0.7-1.5,1.5-1.5h19c0.8,0,1.5,0.7,1.5,1.5l0,0
					C373.4,581.4,372.7,582,371.9,582z"/>
				<path class="st18" d="M377.2,630.8h-19c-0.8,0-1.5-0.7-1.5-1.5l0,0c0-0.8,0.7-1.5,1.5-1.5h19c0.8,0,1.5,0.7,1.5,1.5l0,0
					C378.7,630.1,378,630.8,377.2,630.8z"/>
				<path class="st18" d="M148.4,704.5h-19c-0.8,0-1.5-0.7-1.5-1.5l0,0c0-0.8,0.7-1.5,1.5-1.5h19c0.8,0,1.5,0.7,1.5,1.5l0,0
					C149.9,703.8,149.2,704.5,148.4,704.5z"/>
				<path class="st18" d="M-444.2,464.6h-19c-0.8,0-1.5-0.7-1.5-1.5l0,0c0-0.8,0.7-1.5,1.5-1.5h19c0.8,0,1.5,0.7,1.5,1.5l0,0
					C-442.7,463.9-443.4,464.6-444.2,464.6z"/>
				<path class="st18" d="M151.6,758.9h-19c-0.8,0-1.5-0.7-1.5-1.5l0,0c0-0.8,0.7-1.5,1.5-1.5h19c0.8,0,1.5,0.7,1.5,1.5l0,0
					C153,758.3,152.4,758.9,151.6,758.9z"/>
				<path class="st18" d="M478.9,671h-19c-0.8,0-1.5-0.7-1.5-1.5l0,0c0-0.8,0.7-1.5,1.5-1.5h19c0.8,0,1.5,0.7,1.5,1.5l0,0
					C480.3,670.3,479.7,671,478.9,671z"/>
				<path class="st18" d="M46.7,730.3h-19c-0.8,0-1.5-0.7-1.5-1.5l0,0c0-0.8,0.7-1.5,1.5-1.5h19c0.8,0,1.5,0.7,1.5,1.5l0,0
					C48.2,729.7,47.5,730.3,46.7,730.3z"/>
				<path class="st18" d="M-433.1,839.9h-19c-0.8,0-1.5-0.7-1.5-1.5l0,0c0-0.8,0.7-1.5,1.5-1.5h19c0.8,0,1.5,0.7,1.5,1.5l0,0
					C-431.6,839.3-432.3,839.9-433.1,839.9z"/>
				<path class="st18" d="M996.8,735.6h-19c-0.8,0-1.5-0.7-1.5-1.5l0,0c0-0.8,0.7-1.5,1.5-1.5h19c0.8,0,1.5,0.7,1.5,1.5l0,0
					C998.3,734.9,997.6,735.6,996.8,735.6z"/>
				<path class="st18" d="M338,663.6h-19c-0.8,0-1.5-0.7-1.5-1.5l0,0c0-0.8,0.7-1.5,1.5-1.5h19c0.8,0,1.5,0.7,1.5,1.5l0,0
					C339.5,662.9,338.8,663.6,338,663.6z"/>
				<path class="st18" d="M141,650.9h-19c-0.8,0-1.5-0.7-1.5-1.5l0,0c0-0.8,0.7-1.5,1.5-1.5h19c0.8,0,1.5,0.7,1.5,1.5l0,0
					C142.5,650.2,141.8,650.9,141,650.9z"/>
				<path class="st18" d="M-407.2,790.7h-19c-0.8,0-1.5-0.7-1.5-1.5l0,0c0-0.8,0.7-1.5,1.5-1.5h19c0.8,0,1.5,0.7,1.5,1.5l0,0
					C-405.7,790-406.3,790.7-407.2,790.7z"/>
				<path class="st18" d="M410.5,662h-19c-0.8,0-1.5-0.7-1.5-1.5l0,0c0-0.8,0.7-1.5,1.5-1.5h19c0.8,0,1.5,0.7,1.5,1.5l0,0
					C412,661.3,411.4,662,410.5,662z"/>
				<path class="st18" d="M-39.1,540.7h-19c-0.8,0-1.5-0.7-1.5-1.5l0,0c0-0.8,0.7-1.5,1.5-1.5h19c0.8,0,1.5,0.7,1.5,1.5l0,0
					C-37.6,540.1-38.3,540.7-39.1,540.7z"/>
				<path class="st18" d="M43.6,426.7h-19c-0.8,0-1.5-0.7-1.5-1.5l0,0c0-0.8,0.7-1.5,1.5-1.5h19c0.8,0,1.5,0.7,1.5,1.5l0,0
					C45,426.1,44.4,426.7,43.6,426.7z"/>
				<path class="st18" d="M-159.8,458.1h-19c-0.8,0-1.5-0.7-1.5-1.5l0,0c0-0.8,0.7-1.5,1.5-1.5h19c0.8,0,1.5,0.7,1.5,1.5l0,0
					C-158.4,457.4-159,458.1-159.8,458.1z"/>
				<path class="st4" d="M251.7,306.2c-34.2,0-62-27.8-62-62s27.8-62,62-62c34.2,0,62,27.8,62,62S285.9,306.2,251.7,306.2z
					 M251.7,187.7c-31.2,0-56.6,25.4-56.6,56.6s25.4,56.6,56.6,56.6c31.2,0,56.6-25.4,56.6-56.6S282.9,187.7,251.7,187.7z"/>
				<path class="st9" d="M-592.6,1391.6l3.3,205.2c642,0,1604.1-7.4,1636.5-27.5c13.4-12.7,25.3-54.8,11.1-97.3
					c-9-26.9-31.3-60.8-86.6-70l-2.1-0.3l-1.2-1.6c-0.7-0.9-82.7-157.4-242.4-55.5l-3.7,0.7l10.8-8.8c-0.2-0.3-28.5-33-67.3-57.4
					c-51.7-32.4-115.6-29.1-182.9,1.2l-3.1,1.4l-2.5-2.2c-63.4-54.8-262.5-48.2-296.5-2.3l-2.6,0.9l-2.2-1.5
					c-0.9-0.6-94.6-61.7-232.6-12.2l-2.7,1l-2.3-1.7c-42.7-32.6-256.7-34.9-272.9,56.1l-14.6,19l-2.6-0.8
					c-0.5-0.2-50.1-15.8-104.6-16.5C-527.8,1320.4-573.5,1344-592.6,1391.6z"/>
				<circle class="st9" cx="966.6" cy="1350.6" r="173.1"/>
				<path class="st9" d="M581.1,1390.3c0-89.5,56.7-164.7,146.2-164.7s162.1,72.6,162.1,162.1c0,89.5-72.6,162.1-162.1,162.1
					S581.1,1479.8,581.1,1390.3z"/>
				<path class="st9" d="M411.6,1407.3c0-89.5,56.7-164.7,146.2-164.7s162.1,72.6,162.1,162.1c0,89.5-72.6,162.1-162.1,162.1
					S411.6,1496.8,411.6,1407.3z"/>
				<path class="st9" d="M13.4,1405.1c0-89.5,56.7-164.7,146.2-164.7s162.1,72.6,162.1,162.1c0,89.5-72.6,162.1-162.1,162.1
					S13.4,1494.6,13.4,1405.1z"/>
				<path class="st9" d="M-501.4,1375.5c0-89.5,56.7-164.7,146.2-164.7s162.1,72.6,162.1,162.1s-72.6,162.1-162.1,162.1
					S-501.4,1465-501.4,1375.5z"/>
				<g>
					<polygon class="st6" points="-52.5,1358.9 -106.5,1358.9 -106.5,1302.2 -122.7,1302.2 -122.7,1435.5 -106.5,1435.5 
						-106.5,1378.2 -52.5,1378.2 -52.5,1435.5 -36.2,1435.5 -36.2,1302.2 -52.5,1302.2 					"/>
					<polygon class="st6" points="-13.8,1331.7 -13.8,1406.8 -13.8,1435.5 3.4,1435.5 3.4,1406.8 3.4,1331.7 3.4,1330.4 
						-13.8,1330.4 					"/>
					<rect x="-13.8" y="1301.7" class="st6" width="17.2" height="19"/>
					<polygon class="st6" points="653.3,1302.2 653.3,1358.9 599.3,1358.9 599.3,1302.2 583.1,1302.2 583.1,1435.5 599.3,1435.5 
						599.3,1378.2 653.3,1378.2 653.3,1435.5 669.6,1435.5 669.6,1302.2 					"/>
					<polygon class="st6" points="384.6,1302.2 382.3,1302.2 382.3,1435.5 384.6,1435.5 384.6,1436.4 460.2,1436.4 460.2,1417.1 
						398.5,1417.1 398.5,1378.2 460.2,1378.2 460.2,1358.9 398.5,1358.9 398.5,1321.6 460.2,1321.6 460.2,1302.2 398.5,1302.2 					
						"/>
					<polygon class="st6" points="288.1,1320.8 315.9,1320.8 315.9,1435.5 332.1,1435.5 332.1,1320.8 363.7,1320.8 363.7,1301.5 
						288.1,1301.5 					"/>
					<polygon class="st6" points="204.4,1358.9 150.4,1358.9 150.4,1302.2 134.2,1302.2 134.2,1435.5 150.4,1435.5 150.4,1378.2 
						204.4,1378.2 204.4,1435.5 220.6,1435.5 220.6,1302.2 204.4,1302.2 					"/>
					<polygon class="st6" points="25.3,1301.6 25.3,1319.3 25.3,1414.8 25.3,1432 25.3,1432.5 120,1432.5 120,1432 120,1414.8 
						120,1376.1 120,1359.4 120,1358.4 68.2,1358.4 68.2,1376.1 101.5,1376.1 101.5,1414.8 43.8,1414.8 43.8,1319.3 120,1319.3 
						120,1301.6 43.8,1301.6 					"/>
					<polygon class="st6" points="479.3,1301.6 479.3,1319.3 479.3,1414.8 479.3,1432 479.3,1432.5 574.1,1432.5 574.1,1414.8 
						497.9,1414.8 497.9,1319.3 574.1,1319.3 574.1,1301.6 497.9,1301.6 					"/>
				</g>
				<g>
					<g>
						<path class="st9" d="M325.1,989.2h5c2.7-3,5.3-5.9,8-8.9v-69c-3.1-3.5-6.3-6.9-9.5-10.4h-67.7v140.3h19.2v-52h27.2l17.4,52.2
							h19.3L325.1,989.2z M319,961h-40.6v-43.5H319V961z"/>
						<path class="st9" d="M-249,1030.1v-53.5l-9.1-7.5l6.9-7.7v-51.7c-2.7-3-5.5-6.1-8.2-9.1c-18.8,0.1-63.6,0.4-63.3,0.4v139.4
							h64.5C-255.2,1036.9-252.1,1033.5-249,1030.1z M-276,1016.6h-28.2v-32.5h28.2V1016.6z M-276,950h-28.2v-32.5h28.2V950z"/>
						<path class="st9" d="M-157.1,899.6H-218l-7.8,8.7v123.6l8,8.9h62.6c1.7-2,3.4-3.9,5.1-6c0.1-0.1,0.2-0.2,0.3-0.3V908
							C-152.2,905.3-154.7,902.5-157.1,899.6z M-170.3,1026.2h-35.3V913.8h35.3V1026.2z"/>
						<path class="st9" d="M-62.5,899.6h-60.9l-7.8,8.7v123.6l8,8.9h62.6c1.7-2,3.4-3.9,5.1-6c0.1-0.1,0.2-0.2,0.3-0.3V908
							C-57.7,905.3-60.1,902.5-62.5,899.6z M-75.7,1026.2h-35.3V913.8h35.3V1026.2z"/>
						<polygon class="st9" points="-31.4,921 -1.3,921 -1.3,1041.2 17.9,1041.2 17.9,921 48.1,921 48.1,899.6 -31.4,899.6 						"/>
						<polygon class="st9" points="164.7,921 194.9,921 194.9,1041.2 214.1,1041.2 214.1,921 244.2,921 244.2,899.6 164.7,899.6 
													"/>
						<polygon class="st9" points="732,922.8 732,902 657.5,902 657.5,1041.2 676.7,1041.2 676.7,1040.8 732,1040.8 732,1019.4 
							676.7,1019.4 676.7,980.5 717.4,980.5 717.4,959.1 676.7,959.1 676.7,922.8 						"/>
						<path class="st9" d="M145.8,1033.4v-61.8c-3.1-3.4-6.2-6.9-9.2-10.4H87.8v-46.8h54.4v-16.2L74,898.7l-6.6,7.4v73.1h56.8v44.1
							H67v20.1h69.8L145.8,1033.4z"/>
						<path class="st9" d="M537.2,981.5v-72.2l-7.5-8.4h-69.7v140.3h19.2v-52h51.1L537.2,981.5z M521.8,963.9h-40.6v-43.5h40.6
							V963.9z"/>
						<path class="st9" d="M633.7,981.5v-72.2l-7.5-8.4h-69.7v140.3h19.2v-52h51.1L633.7,981.5z M618.3,963.9h-40.6v-43.5h40.6
							V963.9z"/>
						<path class="st9" d="M387.1,901.8l-33.3,137.2c0.2,0.2,3.9,0.5,17.2,0.7l11.6-51h33.1l12.3,51.8c11.4,0.1,19.4,0.2,19.4,0.2
							l-38.3-139H387.1z M387.5,967.4l11.3-49.6l11.8,49.6H387.5z"/>
						<path class="st9" d="M816.4,902h-60.9v139.2h19.2v0H816l13.4-20.2h0.8v-92.7v-5.5v-0.1L816.4,902z M811,926.1v93.7h-36.3v-97
							H811L811,926.1L811,926.1z"/>
					</g>
				</g>
				<ellipse class="st20" cx="828.4" cy="1323.1" rx="16.9" ry="5.2"/>
				<ellipse class="st20" cx="173.9" cy="1268.9" rx="16.9" ry="5.2"/>
				<ellipse class="st20" cx="-356.8" cy="1300.8" rx="16.9" ry="5.2"/>
				<ellipse class="st20" cx="667.1" cy="1282" rx="16.9" ry="5.2"/>
				<ellipse class="st20" cx="-283.7" cy="1389.7" rx="16.9" ry="5.2"/>
				<path class="st20" d="M771.1,1416.2c-20-6.2-41.6-1.4-41.6-1.4C755.8,1430.6,771.1,1416.2,771.1,1416.2z"/>
				<path class="st20" d="M-158.8,1272.1c-20-6.2-41.6-1.4-41.6-1.4C-174.2,1286.5-158.8,1272.1-158.8,1272.1z"/>
				<path class="st20" d="M-369.6,1381.2c-20-6.2-41.6-1.4-41.6-1.4C-384.9,1395.6-369.6,1381.2-369.6,1381.2z"/>
				<path class="st20" d="M936.4,1371.7c-20-6.2-41.6-1.4-41.6-1.4C921.1,1386.1,936.4,1371.7,936.4,1371.7z"/>
				<path class="st20" d="M984.1,1224.6c-20-6.2-41.6-1.4-41.6-1.4C968.8,1238.9,984.1,1224.6,984.1,1224.6z"/>
				<g>
					<path class="st21" d="M312.4,441.3c-4.8,0-9.1,0-13.5,0c-0.6,0-1.1,0.1-1.5-0.6c-1.6-2.7-3.3-5.4-5.1-8.4c2.2,0,4.1,0,6.5,0
						c-11.8-19-23.4-37.8-35-56.5c-0.7,0.1-0.7,0.7-0.9,1.1c-6.3,11.7-12.7,23.3-18.9,35c-0.7,1.3-1.5,1.9-3,1.8
						c-5.2-0.1-10.3-0.1-15.5,0c-1.7,0-1.9-0.3-1-1.8c8.8-15.8,17.6-31.7,26.4-47.5c2.5-4.5,5-9,7.6-13.7
						C276.5,381,294.4,411,312.4,441.3z"/>
					<path class="st5" d="M197.7,454.5c2.3-4.1,4.5-7.9,6.6-11.8c0.3-0.6,0.8-0.7,1.4-0.7c2.3,0,4.7,0,7.2,0
						c-0.9,1.8-1.7,3.4-2.7,5.3c0.8,0,1.4,0,2,0c21.7,0,43.5,0,65.2,0c0.6,0,1.4,0.3,1.8-0.2c0.4-0.7-0.4-1.2-0.7-1.8
						c-7.8-13.3-15.7-26.7-23.6-40c-0.6-1.1-0.7-1.9-0.1-3.1c2.6-4.8,5.1-9.7,7.8-14.7c2.2,3.8,4.4,7.5,6.6,11.1
						c10.6,18,21.3,36.1,31.9,54.1c0.7,1.2,1,1.7-0.9,1.7c-33.8,0-67.7,0-101.5,0C198.5,454.5,198.3,454.5,197.7,454.5z"/>
					<path class="st5" d="M242.6,350.7c2.3,3.7,4.3,7,6.4,10.4c0.4,0.7,0.2,1.1-0.2,1.7c-1.2,2-2.4,4.1-3.7,6.3
						c-1.4-1.2-1.9-2.9-3.1-4.2c-0.6,0-0.7,0.6-0.9,1c-11.3,19.1-22.7,38.3-34,57.4c-1,1.7-1,1.7,1.1,1.7c14.7,0,29.5,0.1,44.2,0
						c1.2,0,1.9,0.3,2.5,1.4c2.3,4,4.7,7.9,7,11.8c0.2,0.4,0.6,0.7,0.4,1.3c-23.9,0-47.7,0-71.9,0
						C207.9,409.9,225.2,380.4,242.6,350.7z"/>
				</g>
				<rect x="-46.6" y="341.1" class="st4" width="7.3" height="159.1"/>
				<rect x="516.1" y="486.1" class="st4" width="7.3" height="159.1"/>
				<polygon class="st11" points="518.5,426.9 562.3,512.8 547.2,512.8 571.4,573.8 554.4,573.1 573.7,622.4 470.8,621.4 
					482.1,580.5 467.1,580.3 493.7,512.2 473.8,512 				"/>
				<g>
					<path class="st4" d="M883.4,572.8c-0.1-13.4,0.4-23.9,10.1-32.6C895.9,549.6,891.6,565,883.4,572.8z"/>
					<path class="st4" d="M917.1,548.6c-4.6,11-9.3,22-14.6,34.6C899,570.6,904.4,555.9,917.1,548.6z"/>
					<path class="st4" d="M922.8,586.3c-6.1-6.8-4.6-10.9,8.5-24.9C934.9,569,934.9,569,922.8,586.3z"/>
					<path class="st4" d="M838.6,552.2c5.1-5.1,9.7-9.2,13.6-13.7c7.1-8.1,16.3-8.6,25-4.7c36.4,16.2,71.1,35,101.7,60.4
						c17,14.1,17,30.6,12.2,49c-1.7,6.6-2.2,13.5-4,20.1c-2.1,7.8-5.1,15.5-7.6,22.9c-16.9-0.1-14.5-16.8-25.5-22.8
						c-1.8,5.3-3.4,9.5-4.7,13.7c-1.5,5.1-5,8.4-10.3,8.2c-6.2-0.1-7.2-4.9-7.6-9.9c-0.1-1.8-1.1-3.5-2.2-6.9
						c-16.5,1.1-33.1,2.3-49.4,3.4c-4.9,9.3-9.6,18.1-14.5,27.6c-16.3-7.1-9.3-20.8-13.1-32c-4.1,6.9-7.6,12.7-11.6,19.4
						c-4.3-1.6-8.1-3-11.7-4.3c-0.4-5.5-0.8-10-1.2-15.5c-3.7,0.3-6.9,0.6-10,0.9c-14.8,1.4-23.2-3-27.6-16.4
						c-2.9-8.7-4.8-18-5.2-27.1c-0.6-12,0.1-24.1,1.2-36.1c1.1-11.8,6.6-22,15.3-30.4C811.4,548.4,820.8,547,838.6,552.2z
						 M842.2,565.3c-3-1-4.5-1.2-5.7-1.8c-19.5-9.9-34.4-4.4-39.1,16.3c-4.7,20.2-5.8,40.9,0.2,61.3c2.1,7,4.9,13.3,13.2,14.9
						c8.4,1.7,14.9-1.1,20.1-7.9c2.8-3.7,7.4-6.2,9.9-8.2c4.4,4.1,6.8,8.4,9.9,8.9c9.8,1.3,11.1,7,11.1,14.8
						c0,6.5-1.4,13.4,2.1,22.7c5-6.5,6.3-11.6,7.7-16.8c2.9-10.3,3-10.2,14.9-9.8c2.8,0.1,5.7-0.6,8.5-0.8
						c22.5-2.1,44.9-4.2,65.8-6.1c8.1,7.7,5.5,19.1,17.4,24c0.1-6.4,1.4-12,0.1-17c-1.7-6.5,0.2-11.2,3.1-16.9
						c7.7-15.2,6.5-24.8-5.3-34.9c-24.2-20.7-50.9-38-80.4-51.2c-9.1-4.1-18.3-8.1-27.3-12.5c-6.6-3.2-11-1-14.6,4.4
						C850,554.1,846.3,559.4,842.2,565.3z M846.6,657.7c-11.7,6.5-12.5,9.4-6.9,19C841.9,670.8,843.7,665.6,846.6,657.7z
						 M939.1,676.9c1.3,0.1,2.6,0.2,3.9,0.2c0.4-3.1,0.9-6.2,1.3-9.3c-1.7,0-3.4-0.1-5.2-0.1C939.1,670.7,939.1,673.8,939.1,676.9z"
						/>
					<path class="st11" d="M801.9,566.4c19.8-19.1,36.9-5.1,36.9-5.1c21.5-26.3,30.7-27.3,46.1-18.4c19.5,9.2,85.7,54.3,87.8,55.7
						c8.5,7.2,18.8,12.3,13.3,41c-6.8,41-8.2,48.1-14.3,38.6c-6.1-9.6-18.8-19.5-18.8-19.5l-73.1,5.8c-14.7,29.4-21.2,40-22.5,17.4
						c-1.4-22.5-6.1-27.7-10.2-19.5c-3.4,8.2-5.1,20.1-9.2,18.8s-6.5-17.8-6.5-17.8c22.2-16.4,9.5-23.6,9.5-23.6"/>
					<path class="st11" d="M838.8,561.3c-10.6-8.5-29.4-9.6-41.3,10.9c-12,20.5-13.3,88.4,13.7,88.4c23.9-1.7,39.3-17.8,39.3-17.8
						l4.8-33.8L838.8,561.3z"/>
					<path class="st12" d="M929.3,602.3c9.6,0.2,16.4,0.3,24.2,0.4C945.4,610.9,943.2,610.9,929.3,602.3z"/>
					<path class="st12" d="M920.3,589.5c-7.4-0.9-14.4,9.7-23.6,0.8C905.4,585.9,912.8,586.7,920.3,589.5z"/>
					<path class="st12" d="M878.6,612.2c6.6,0.1,13.1,0.2,21.1,0.4c-7.6,5.6-14.2,4.8-20.8,3C878.8,614.4,878.7,613.3,878.6,612.2z"
						/>
					<path class="st4" d="M852.8,567.5c-7.2,3.7-14.5,7.5-21.7,11.2c3.2,8.6,5.4,10,12.5,8.2C851.9,584.8,854.5,579.4,852.8,567.5z"
						/>
					<path class="st4" d="M810.9,608.1c-0.5-5,3.4-10,6.6-9.5c1.3,0.2,3.3,2.4,3.3,3.7c-0.1,3.5-1.1,7.3-5.5,8.1
						C813.8,610.7,811.9,608.7,810.9,608.1z"/>
				</g>
				<path class="st8" d="M-409.1,590c6.1,1.2,11.8,2.9,17.2,5c7,1.4,14.1,2.1,21.6,1.8c-1.6-0.4-3.2-0.8-4.8-1.4
					c-12.9-4.7-25.7-8.4-40.8-8.2C-413.6,588.3-411.3,589.2-409.1,590z"/>
				<path class="st8" d="M-248.3,587.5c-1.4-1-2.8-2.1-4.2-3.1c-7.3-0.8-14.6-0.5-22.2,1.5c1.6,0.2,3,0.4,3.7,0.5
					c8.5,0.8,16.9,2.1,25.4,2.9C-246.5,588.8-247.4,588.2-248.3,587.5z"/>
				<path class="st8" d="M-155.9,564.3c-1.4-1-2.8-2.1-4.2-3.1c-7.3-0.8-14.6-0.5-22.2,1.5c1.6,0.2,3,0.4,3.7,0.5
					c8.5,0.8,16.9,2.1,25.4,2.9C-154.1,565.6-155,565-155.9,564.3z"/>
				<path class="st8" d="M-309.2,594.4c-8.5,2-17,3.7-25.6,4.4c-0.1,2.4-0.8,5-2.2,7.7c6.5-0.1,13-0.8,19.5-2.5
					c3.9-1,7.7-1.9,11.6-2.8C-307.5,599.3-308.7,597-309.2,594.4z"/>
				<path class="st8" d="M-347.2,692.1c-8.5,2-17,3.7-25.6,4.4c-0.1,2.4-0.8,5-2.2,7.7c6.5-0.1,13-0.8,19.5-2.5
					c3.9-1,7.7-1.9,11.6-2.8C-345.6,696.9-346.8,694.6-347.2,692.1z"/>
				<path class="st8" d="M-201.4,628.2c-19.2-1.6-38-6-56.4-12.9c-2.3-0.8-4.9-0.6-7.4-0.9c-0.2,0.7-0.4,1.3-0.6,2
					c7.6,3.1,15.1,6.5,22.8,9.3c4.1,1.5,8.7,1.6,12.8,3.1c9.3,3.3,18.7,5.4,28,6.4C-202.6,632.9-202.3,630.4-201.4,628.2z"/>
				<path class="st8" d="M-63.5,706.7c-19.2-1.6-38-6-56.4-12.9c-2.3-0.8-4.9-0.6-7.4-0.9c-0.2,0.7-0.4,1.3-0.6,2
					c7.6,3.1,15.1,6.5,22.8,9.3c4.1,1.5,8.7,1.6,12.8,3.1c9.3,3.3,18.7,5.4,28,6.4C-64.7,711.4-64.4,709-63.5,706.7z"/>
				<path class="st8" d="M-133.4,633.1c-9.1-2-18.2-4-27.9-3.7c-4.6,0.2-9.1,0.4-13.6,0.9c-0.3,2.3-1.2,4.5-2.8,6.3
					c13.6-1.9,27.1-1,40.9,1.8c1.3,0.3,2.6,0.5,3.9,0.7C-133.5,637.1-133.7,635-133.4,633.1z"/>
				<path class="st8" d="M20.6,634.7c-9.1-2-18.2-4-27.9-3.7c-4.6,0.2-9.1,0.4-13.6,0.9c-0.3,2.3-1.2,4.5-2.8,6.3
					c13.6-1.9,27.1-1,40.9,1.8c1.3,0.3,2.6,0.5,3.9,0.7C20.5,638.7,20.3,636.6,20.6,634.7z"/>
				<path class="st8" d="M-145.6,587.6c0.8-0.4,1.5-0.8,2.2-1.2c-1.8-0.4-3.6-0.8-5.4-1.1c-5.2-0.8-10.4-1.6-15.4-2.3
					c1.7,4.1,5,5,8.8,5.7c2.2,0.4,4.4,1,6.7,1.7C-148,589.2-146.9,588.3-145.6,587.6z"/>
				<path class="st8" d="M-142.2,656.6c0.8-0.4,1.5-0.8,2.2-1.2c-1.8-0.4-3.6-0.8-5.4-1.1c-5.2-0.8-10.4-1.6-15.4-2.3
					c1.7,4.1,5,5,8.8,5.7c2.2,0.4,4.4,1,6.7,1.7C-144.5,658.2-143.5,657.2-142.2,656.6z"/>
				<path class="st8" d="M-226.2,548.7c-5.8,0-11.7,1.8-17.4,1.2c-1.3,1.7-2.7,3.4-4.2,5c0.7,0.1,1.3,0.2,2,0.2
					c12.7,0.8,25.5-0.3,38.2,0.3c0.2-2.3,0.8-4.4,1.9-6.4C-212.6,548.6-219.4,548.7-226.2,548.7z"/>
				<path class="st8" d="M-58.4,624.4c-7.7-1.4-15.2-3.6-22-8.8c-0.7-0.6-1.4-1-2.2-1.5c-1.5,0.1-3,0.2-4.4,0.5
					c-0.9,0.1-1.9,0.3-2.9,0.5c0.6,1.2,0.9,2.6,1,4c3.4,1.4,6.7,3.1,9.9,5.4c5.2,3.7,11.9,4.2,18,5.6c2.3,0.5,5.1,0.1,6.7-4.5
					C-56,625-57.2,624.6-58.4,624.4z"/>
				<path class="st8" d="M-355.8,628.3c-4.4,1.7-8.7,3.7-12.4,6.3c3.4,0.3,6.9-0.1,10.3-0.7c10.2-3,20.6-5.4,30.5-9.3
					c-1.2-3.2-4.4-3.1-7.4-2.2C-341.8,624.3-348.8,626.3-355.8,628.3z"/>
				<path class="st8" d="M-446.4,576.3c-4.4,1.7-8.7,3.7-12.4,6.3c3.4,0.3,6.9-0.1,10.3-0.7c10.2-3,20.6-5.4,30.5-9.3
					c-1.2-3.2-4.4-3.1-7.4-2.2C-432.4,572.3-439.4,574.3-446.4,576.3z"/>
				<path class="st8" d="M-392.5,641.3c-1.1,0.3-2.2,0.5-3.3,0.7c-15.2,2.1-30.8,2-46.2,2.8c13.9,4.9,28,4.8,42,3
					c3.2-0.4,6.6-0.7,9.9-1.3C-391.2,644.8-392,643.1-392.5,641.3z"/>
				<path class="st8" d="M-288.4,561.4c-9.3,4.8-18.6,5.6-28.9,4c-12.7-2-25.7-1.8-38.6-2.3c-2.6-0.1-5.2,0.9-8.2,1.5
					c6.7-4.7,11.3-5.1,22.6-6.2c13.3-1.2,26.2,1.3,39.3,2.3C-297.6,561.1-293,561.2-288.4,561.4z"/>
				<path class="st8" d="M-455.1,667.9c-13.5,4.6-25.3,5.4-37,6.6c-11.4,1.2-22.8,2-34.6,3.1c5.1-4.6,5.8-4.6,22.1-6.1
					c8.1-0.8,16-2.9,24.1-3.5C-472.8,667.4-465.3,661.9-455.1,667.9z"/>
				<polygon class="st12" points="516.2,621.9 516.2,431.2 473.8,512 493.7,512.2 467.1,580.3 482.1,580.5 470.8,621.4 				"/>
				<path class="st20" d="M-263.3,368.2l0.5-12.9c0-1.1-0.8-2-1.9-2.1c-1.1,0-2,0.8-2.1,1.9l-0.6,13.1H-263.3z"/>
				<path class="st20" d="M-295.6,356l0.5-12.9c0-1.1-0.8-2-1.9-2.1c-1.1,0-2,0.8-2.1,1.9l-0.6,13.1H-295.6z"/>
				<polygon class="st20" points="-268.2,390.4 -269.6,423 -265.7,423 -264.3,390.4 				"/>
				<polygon class="st20" points="-315.3,441.4 -312.3,488 -308.3,487.7 -311.3,441 				"/>
				<path class="st20" d="M-270.6,445.2l-3.1,73.3c0,1.1,0.8,2,1.9,2.1c1.1,0,2-0.8,2.1-1.9l3.1-73.5H-270.6z"/>
				<path class="st20" d="M-237,367.1l1.4-12.1c0.1-1.1-0.7-2.1-1.8-2.2c-1.1-0.1-2.1,0.7-2.2,1.8l-1.7,15
					C-240.1,368.4-238.6,367.6-237,367.1z"/>
				<path class="st20" d="M-325.1,391.4l-4.4-52.8c-0.9-0.6-1.7-1.2-2.6-1.7c-0.6-0.4-1.1-0.9-1.6-1.4l4.7,56.7L-325.1,391.4z"/>
				<path class="st20" d="M-251.8,462.7l-6.2,54.5c-0.1,1.1,0.7,2.1,1.8,2.2c1.1,0.1,2.1-0.7,2.2-1.8l6.2-54.9H-251.8z"/>
				<path class="st20" d="M-407.7,211.7c-17.5,30.2,7.9,47.7,26.2,57.2C-409.2,237.1-407.7,211.7-407.7,211.7z"/>
				<path class="st20" d="M-363.2,154.5c-26.2,3.2-42.1,13.5-38.1,34.2C-393.4,170.4-363.2,154.5-363.2,154.5z"/>
				<path class="st20" d="M-301.2,243.5c-15.1,21.4,16.7,42.1,28.6,36.5C-297.2,266.5-301.2,243.5-301.2,243.5z"/>
				<path class="st20" d="M-354.7,256.7c-15.1,21.4,16.7,42.1,28.6,36.5C-350.7,279.7-354.7,256.7-354.7,256.7z"/>
				<path class="st20" d="M-248,191c-15.1-25.4-43.7-13.5-51.6,3.2C-274.2,176.7-248,191-248,191z"/>
				<path class="st20" d="M-350.6,183c-27.4,11.1-19.9,41.2-4.6,51.5C-368.6,206.8-350.6,183-350.6,183z"/>
				<path class="st20" d="M-287.7,138.6c-26.2-13.5-52.4,6.4-48.5,27.8C-322.6,133.8-287.7,138.6-287.7,138.6z"/>
				<polygon class="st11" points="-40.8,312.7 -77.6,378.7 -58.9,378.5 -80,429.7 -70.5,429.6 -89,483.7 0.9,482.8 -8.9,447 
					4.2,446.8 -19.1,387.3 -1.7,387.1 				"/>
				<polygon class="st12" points="-41.7,483.2 -41.7,314.4 -77.6,378.7 -58.9,378.5 -80,429.7 -70.5,429.6 -89,483.7 				"/>
			</g>
		</g>
		<rect x="849.4" y="939.4" class="st9" width="15.1" height="15.1"/>
		<rect x="849.4" y="983.1" class="st9" width="15.1" height="15.1"/>
		<path class="st7" d="M251.7,195.5c-26.9,0-48.7,22.6-48.7,50.5s21.8,50.5,48.7,50.5V195.5z"/>
		<path class="st11" d="M934,657.7c0.5,16.4,6.2,27.1,8.9,24.4c2.9-3.2,4.4-26,4.4-26L934,657.7z"/>
		<g>
			<path class="st10" d="M946.2,721.3c-1-1.2-2.1-2.5-3.2-3.8c-0.5,0.3-1,0.7-1.5,1c-0.9,0.4-1.8,1-2.8,1.2
				c-2.8,0.6-5.4-1.1-6.4-4.3c-1.5-5.1-0.8-10,2-14.5c1.5-2.4,4-3.4,6.6-4.1c0.5-0.2,1.2,0.2,1.7,0.8c3.4,3.9,3.5,8.5,3.3,13.3
				c-0.1,1-0.3,2-0.7,2.9c-0.5,1.1-0.3,1.9,0.3,2.8c1,1.3,0.9,2.9,1,4.4C946.4,721.2,946.3,721.2,946.2,721.3z M940.5,699.9
				c-2.6,0.3-4.5,1.5-5.5,3.9c-0.3,0.7-0.3,1.6-0.6,2.3c-1.1,2.6-0.7,5.3-0.3,8c0.2,1.3,0.7,2.4,2.1,2.7c1.8,0.5,3.6,0.4,5.2-0.9
				c-0.7-1.2-1.5-2.5-0.4-4c0.9,0.7,1.8,1.3,2.6,1.9c1.5-2.3,0.9-4.7,0.7-7c-0.1-1.3-0.5-2.6-1.4-3.6
				C941.9,702.2,941.3,701.1,940.5,699.9z"/>
			<path class="st10" d="M985,696.3c0.9,3.9,0.7,7.7,1.4,11.7c3.8-3.3,6.8-7,10.4-10.1c0.3,3.3,0.1,3.7-4.5,8.2
				c1.1,5,3.8,9.9,2.3,15.5c-0.7-0.4-1.1-1.1-1.4-1.9c-1-3.2-2.1-6.4-3.1-9.5c-0.1-0.4-0.3-0.8-0.5-1.2c-0.2,0.1-0.3,0.1-0.5,0.2
				c-2.9,1.4-2.9,4.1-2.8,6.7c0.1,2,0,4.1-0.8,6.1c-1.1-0.4-1-1.2-1-1.9c-0.1-2.3-0.3-4.7-0.4-7c-0.2-4.6-0.4-9.2-0.6-13.8
				C983.5,698.1,983.4,697,985,696.3z"/>
			<path class="st10" d="M951.4,696.7c0.1,1.3,0.2,2.4,0.3,3.4c0.5,5,0.9,10,1.3,15c0.1,0.5,0.2,1,0.5,1.4c0.5,1,1.3,1.7,2.4,1.6
				c1.2-0.1,1.8-0.8,2.1-1.9c0.1-0.4,0.3-0.9,0.3-1.3c0.1-2.6,0.4-5.1,0.3-7.7c-0.1-2.6,0.3-5.2-0.6-7.8c-0.4-1.2,0.5-2.1,1.6-3.3
				c0.3,1.5,0.7,2.6,0.8,3.9c0.2,5.2,0.2,10.5-0.3,15.7c-0.1,1.6-0.3,3.2-1.5,4.4c-2.6,2.7-6.3,1.4-8.1-1.6
				c-1.1-1.8-0.6-3.1-0.7-5.1c0-2.8,0-5.7-0.1-8.6c0-2-0.2-4.1-0.2-6.1C949.6,697.6,949.7,697.6,951.4,696.7z"/>
			<path class="st10" d="M981.1,713.5c0.2,1.7,0.1,3.3-0.5,4.8c-1.1,2.8-5.5,4.2-8,1.3c-1.4-1.7-2.4-3.5-2.6-5.7
				c-0.2-2.5-0.3-5.1-0.2-7.7c0.1-2.8,1.5-5.2,3.4-7.1c1.3-1.4,3.3-2.1,5.4-2.1c1.2,0,2.2,0.7,2.6,1.8c0.4,1.2,0.3,2.6,0.5,4.4
				c-0.9-1-1.5-1.7-2.1-2.2c-1-0.9-1.8-1-3-0.3c-2.3,1.2-3.7,2.9-4.3,5.5c-0.6,2.6-0.6,5.2-0.2,7.8c0.4,2.9,2.6,4.7,5.1,4.4
				c1.7-0.2,2.3-0.7,2.7-2.4c0.2-0.8,0.4-1.7,0.6-2.5C980.7,713.4,980.9,713.4,981.1,713.5z"/>
			<path class="st10" d="M966.3,722c-2.3-1.4-1.8-3.5-1.9-5.3c0-5.6,0.1-11.2,0.3-16.9c0.1-1.3,0.1-2.7,1.4-3.9
				C967.2,704.8,967.3,713.3,966.3,722z"/>
		</g>
	</g>
</g>
</svg>
