<?xml version="1.0" encoding="utf-8"?>
<!-- Generator: Adobe Illustrator 23.0.4, SVG Export Plug-In . SVG Version: 6.00 Build 0)  -->
<svg version="1.1" id="Layer_1" xmlns="http://www.w3.org/2000/svg" xmlns:xlink="http://www.w3.org/1999/xlink" x="0px" y="0px"
	 viewBox="0 0 900 650" style="enable-background:new 0 0 900 650;" xml:space="preserve">
<style type="text/css">
	.st0{clip-path:url(#SVGID_2_);}
	.st1{fill:#551B31;}
	.st2{fill:#EF6598;}
	.st3{fill:#AC3F6A;}
	.st4{fill:#FABE9F;}
	.st5{fill:#DC8B6A;}
	.st6{fill:#FFFFFF;}
	.st7{fill:#E7E4E2;}
	.st8{fill:#49C1C3;}
	.st9{fill:#6D2040;}
</style>
<g>
	<defs>
		<rect id="SVGID_1_" x="-330.8" y="-549.1" width="1457.1" height="1938.9"/>
	</defs>
	<clipPath id="SVGID_2_">
		<use xlink:href="#SVGID_1_"  style="overflow:visible;"/>
	</clipPath>
	<g class="st0">
		<path class="st1" d="M1126.3,1433.1H-344.9c-14.8,0-26.9-12.1-26.9-26.9V-579.8c0-14.8,12.1-26.9,26.9-26.9h1471.2
			c14.8,0,26.9,12.1,26.9,26.9v1985.9C1153.3,1420.9,1141.2,1433.1,1126.3,1433.1z"/>
		<path class="st2" d="M1719.8,1493.1L584.9,1899.3c-10.1,3.6-21.1,0.7-28.9-7.8l-730.1-789.8c-18.9-20.4-8.7-57.6,16.8-61.1
			L902.8,894.2c44.3-6.1,89,5.5,127,32.9l696.9,502.1C1748.8,1445.1,1744.5,1484.3,1719.8,1493.1z"/>
		<path class="st1" d="M1365.8,643.2c-6.2,2.9-12.5,5.9-18.7,8.8c-2.5-1.4-1.4-3-0.3-4.3c0.9-1,2.1-1.9,3.3-2.5
			c3.9-1.7,7.8-3.3,11.7-4.7c1.1-0.4,2.4,0.2,3.7,0.3C1365.6,641.7,1365.7,642.4,1365.8,643.2z"/>
		<rect x="436.3" y="1155.6" class="st1" width="8" height="21.1"/>
		<rect x="652.4" y="1101.5" class="st1" width="8" height="21.1"/>
		<path class="st3" d="M938.2,890.2L-187,1046.1c-26.5,0-48.2-28-48.2-62.2V-253.3c0-34.2,21.7-62.2,48.2-62.2H938.2
			c26.5,0,48.2,28,48.2,62.2V828C986.4,862.2,964.7,890.2,938.2,890.2z"/>
		<path class="st3" d="M300.4,902.8h-418.4c-19,0-34.6-15.6-34.6-34.6V-424.2c0-19,15.6-34.6,34.6-34.6h418.4
			c19,0,34.6,15.6,34.6,34.6V868.2C335.1,887.2,319.5,902.8,300.4,902.8z"/>
		<path class="st4" d="M880.5,797.2l-986.2,116.3c-22.2,2.6-41.7-14.7-41.7-37v-1115c0-20.8,17-37.6,37.8-37.3l983.7,14.2
			c20.3,0.3,36.7,16.8,36.8,37.2l2.5,984.5C913.5,779,899.3,795,880.5,797.2z"/>
		<g>
			<polygon class="st5" points="-115.2,581.6 874.9,509.9 874.9,770.6 -116.8,883.9 			"/>
			<g>
				<polygon class="st3" points="678.8,524.5 -115.2,581.6 -116.8,883.9 868.2,771.4 680.4,676.6 				"/>
			</g>
			<g>
				<polygon class="st2" points="868.2,771.4 681.2,676.6 -116.2,758.4 -116.8,883.9 				"/>
			</g>
		</g>
		<g>
			<polygon class="st5" points="-115.2,201.4 874.9,181.7 874.9,425.2 -116.8,483.7 			"/>
			<g>
				<polygon class="st3" points="679.6,186.5 -115.2,201.4 -116.8,483.7 868.2,425.9 678.8,337.4 				"/>
			</g>
			<g>
				<polygon class="st2" points="878.2,425.8 678.8,326.6 -116.2,358.2 -116.8,483.7 				"/>
			</g>
		</g>
		<polygon class="st5" points="-115.2,-156.2 874.9,-147.2 874.9,73.2 -116.8,101.9 		"/>
		<g>
			<polygon class="st3" points="679.6,-148.8 -115.2,-156.2 -116.8,103.6 868.2,84.3 680.4,19.2 			"/>
		</g>
		<g>
			<polygon class="st2" points="875,73.2 679.3,18.4 -116.2,20.6 -116.8,105.2 			"/>
		</g>
		<g>
			<path class="st6" d="M86.4-167.9c22.5,0.2,39.8-8.5,51.8-25.9c7-10.2,8.4-21.1,1.2-32.1c-12.1-18.4-29.5-28.4-52.2-29.8
				c-4-0.3-8.6,0.2-12.1,2c-8.5,4.3-17.2,8.6-24.6,14.4c-15.3,12-19.8,32.9-11.8,48.6c3.8,7.5,9.9,12.6,17.5,16.2
				C65.9-170,76.1-167.5,86.4-167.9z"/>
			<path class="st6" d="M754.6-162.6c18.3,0.2,32.3-8.5,42.1-25.9c5.7-10.2,6.8-21.1,1-32.1c-9.8-18.4-24-28.4-42.5-29.8
				c-3.2-0.3-7,0.2-9.8,2c-6.9,4.3-14,8.6-20,14.4c-12.5,12-16.1,32.9-9.6,48.6c3.1,7.5,8.1,12.6,14.2,16.2
				C737.9-164.7,746.2-162.1,754.6-162.6z"/>
			<path class="st1" d="M66.7-183.6c-0.7-5.2,1.9-7.4,4.4-8.2c11.8-3.4,23.5-7.5,36.1-5.6c0.4,0.1,0.7,0.4,1.1,0.7
				c1.6,3.6,0.5,6.2-2.9,8.1c-0.7,0.4-1.5,0.7-2.3,0.8c-9.3,1.7-18.5,3.5-27.8,4.9C72.6-182.4,69.7-183.3,66.7-183.6z"/>
			<path class="st1" d="M99.1-217.6c-3.1-0.1-5.4-2.5-5.2-5.4c0.2-4.3,2.8-7,6.7-7.1c3.6-0.1,6.2,2.7,5.9,6.1
				C106.1-220,103.2-217.4,99.1-217.6z"/>
			<path class="st1" d="M72.9-225.1c0.2,3.2-2.1,6-4.9,5.9c-2.3,0-3.6-1.6-3.6-3.9c-0.1-2.9,1.4-4.7,4.1-4.9
				C70.7-228.1,72.4-227.3,72.9-225.1z"/>
		</g>
		<path class="st1" d="M82.9-169.3c-9.5,0.8-20.4-3.7-30.5-9.4c-17.9-10-22.8-30.3-11.4-45.7c10-13.5,23.4-22.8,42.5-26.2
			c20-3.5,40.8,2.7,50.5,20.9c6.4,12,6.1,24.5,0.5,36.7c-7.6,16.2-23.5,22.3-42.7,23.7C89.9-169.2,88.1-169.3,82.9-169.3z
			 M98.3-244.4c-4.1,0.4-8.2,1.1-12.4,1.1c-14.3,0.1-24.5,6.8-32.7,15.5c-8.5,9.1-10.8,19.8-5.8,30.9c5.1,11.3,14.4,18,29.2,18
			c1.4,0,2.8,0.1,4.1,0.3c16,2,30-1.3,42.1-10.8c3.6-2.8,6.3-5.6,7.4-9.5c4.2-14.8,0.2-28-12.1-39
			C113.1-242.5,106.4-245.4,98.3-244.4z"/>
		<g>
			<path class="st6" d="M392.8-239.4l-0.8,62.9c4.7,7.8,12.4,8.9,25.6,11.6c13.2,2.7,43.5,0,44.6-2.7s2.3-23.7,3.9-24.8
				c26.8-12.4,30.3-15.9,29.9-17.5c-7.4-15.5-15.9-20.6-15.9-20.6c-9.3,5-9.3,5-9.3,5c-2.3-22.5-5.8-24.1-10.5-25.6
				c-4.7-1.6-57.1,0.8-61.3,1.2S392.8-239.4,392.8-239.4z"/>
			<g>
				<path class="st1" d="M462.3-223.1c-0.2-5.5-0.3-8.9-0.5-12.3c-0.3-4.4-1.8-6.3-5.9-7c-3.4-0.5-6.8-0.8-10.2-0.9
					c-10.5-0.3-21-0.6-31.5-0.8c-0.9,0-1.9-0.1-2.8-0.1c-10.2-0.1-12,1.3-12.2,11.6c-0.3,15.1-0.1,30.3,0,45.4
					c0,2.1,0.7,4.3,1.3,6.3c0.9,2.8,2.8,4.8,5.8,5.4c2.1,0.4,4.2,1.1,6.4,1.3c15.2,1.2,30.2-0.5,44.2-2.3c4.6-3.4,1.3-9.4,6.2-11.8
					c2.5,2.5,1.5,5.2,1.1,7.9c-0.5,2.7-0.8,5.8-3.3,7.4c-2,1.3-4.4,2.7-6.6,2.9c-13.5,1-27.1,3.4-40.7,1.5c-3.1-0.4-6.2-0.7-9.1-1.6
					c-7-1.9-9.8-5.3-10.1-12.6c-0.4-11.7-0.5-23.5-0.6-35.2c0-4.6,0.1-9.3,0.3-13.9c0.2-2.8,0.4-5.6,1.2-8.2c1.6-5.2,5-8.5,10.7-8.5
					c6.8,0,13.6-0.1,20.4,0.1c8.7,0.1,17.3,0.4,26,0.7c2.5,0.1,4.9,0.5,7.4,0.9c3,0.5,5.2,2.5,5.9,5.3c1.4,5.1,1.8,10.3,0.3,15.5
					C465.8-225.5,464.6-224.9,462.3-223.1z"/>
				<path class="st1" d="M430.4-201.8c3.1-1.3,6.3-2.4,9.3-4c11.4-6.1,23-12.1,34.1-18.7c5.6-3.3,9.8-0.9,12.6,3.1
					c6.3,9.1,5.4,14-4.3,19.5c-4.6,2.6-9.5,4.5-14.3,6.4c-7.8,3-15.7,5.7-23.5,8.6c-3.2,1.2-6.2,2.8-9.2,4.4c-2.1,1.2-3.8,2.9-6.6,3
					c-7.6,0.3-10,0.1-15.8-2c2.3-4.4,4.4-8.8,6.8-13c0.7-1.2,2.2-2.1,3.6-2.7c2.8-1.3,5.9-1.9,7.6-4.9L430.4-201.8z M430.5-194.3
					c0.5,0.3,1.1,1,1.4,0.9c13.1-4.5,25-11.5,38.2-17.1c-1.2-2-2-3.4-2.8-4.8C449.3-206.9,434.4-198.4,430.5-194.3z M432.4-188.6
					c0.3,0.4,0.7,0.8,1,1.3c12.6-4.7,25.2-9.4,37.9-14.1c0.9-0.3,1.6-0.8,2.2-1.2c-0.7-3.3-2.3-4.2-4.9-3
					c-11.3,4.9-22.6,9.8-33.8,14.8C433.9-190.4,433.2-189.4,432.4-188.6z M485.6-209.4c-0.1-1.1,0.1-2.1-0.2-2.9
					c-0.7-1.7-1.6-3.4-2.6-4.9c-2.4-3.4-4.2-4.7-8.5-2c-0.7,0.4-1.2,1.2-2,1.9c1.6,3.5,3.2,6.8,4.8,10.1c0.4,0.7,1.3,1.1,2.2,1.8
					C481.5-206.7,483.5-208,485.6-209.4z M428.7-185.2c-1.4-3-2.5-5.4-3.8-8.3c-1.3,1.1-2.4,1.7-3,2.5c-0.5,0.6-0.7,1.8-0.4,2.5
					C422.5-185.5,424.3-183.8,428.7-185.2z"/>
				<path class="st1" d="M410.4-234c1.1-0.4,1.9-1,2.7-1c12.9,0.2,25.8,0.5,38.8,0.7c0.6,0,1.3,0.1,1.7,0.5c0.4,0.3,0.8,0.9,0.9,1.4
					c0,0.5-0.3,1.3-0.7,1.5c-1.1,0.5-2.2,1.1-3.4,1.1c-10.2,0-20.3,0-30.5-0.3c-2.7-0.1-5.4-0.9-8.1-1.6
					C411.3-231.8,411-233,410.4-234z"/>
				<path class="st1" d="M409.1-219.6c2-0.4,4.1-1.3,6.1-1.2c11.6,0.1,23.3-0.5,36,0.7c-1.4,1.8-2,3.1-3.1,3.7
					c-1,0.6-2.4,0.6-3.6,0.6c-10.8-0.3-21.6-0.6-32.3-0.9c-1.1,0-2.1-0.7-3.2-1.1C409.1-218.4,409.1-219,409.1-219.6z"/>
				<path class="st1" d="M430.8-202.1c-3.6-0.4-7.3-0.9-10.9-1.1c-3.3-0.3-6.7-0.3-11.7-0.5c2.1-1.7,2.9-2.9,3.7-3
					c6.1-0.9,12.2-0.9,17.8-0.6c2.6,2,0.8,3.7,0.7,5.4C430.4-201.8,430.8-202.1,430.8-202.1z"/>
			</g>
		</g>
		<polygon class="st5" points="489.7,17 589.4,79.6 588.6,-149.4 486.5,-150.2 		"/>
		<polygon class="st5" points="148.2,19.4 248.6,85 247.8,-152.4 144.1,-154 		"/>
		<polygon class="st5" points="-10.2,352.9 79.9,473.5 77.5,196.4 -10.2,200.2 		"/>
		<polygon class="st5" points="512.1,330.8 633.2,441.1 632.3,187.3 512.1,189.4 		"/>
		<g>
			<path class="st1" d="M754-169.1c-7.2,0.7-15.5-3.4-23.2-8.4c-13.6-9-17.3-27.2-8.7-41.1c7.6-12.1,17.8-20.5,32.3-23.5
				c15.2-3.1,31,2.4,38.4,18.8c4.9,10.8,4.6,22,0.3,33c-5.7,14.6-17.8,20-32.5,21.3C759.3-169,757.9-169.1,754-169.1z M765.7-236.7
				c-3.1,0.3-6.3,1-9.4,1c-10.9,0.1-18.6,6.1-24.8,13.9c-6.5,8.2-8.2,17.8-4.4,27.7c3.8,10.1,10.9,16.1,22.2,16.2
				c1,0,2.1,0.1,3.1,0.3c12.2,1.8,22.8-1.2,32-9.7c2.7-2.5,4.8-5,5.6-8.5c3.2-13.3,0.2-25.1-9.2-35
				C776.9-234.9,771.8-237.5,765.7-236.7z"/>
			<path class="st1" d="M756.7-201.5c-0.2-7.1-0.1-14.4,1.1-21.6c0.2-1.3,0.9-2.6,1.6-3.8c0.3-0.5,1.3-1,1.7-0.8
				c0.9,0.4,1.6,1.1,2.3,1.8c0.2,0.2,0.2,0.7,0.2,1c-0.7,7-1.2,13.9-2.2,20.9C761.1-202.3,760.3-199.6,756.7-201.5z"/>
			<path class="st1" d="M761.6-193.3c0.9,0.9,2.8,2,2.9,3.2c0.3,3.6-0.6,7-4.1,9c-2.3,1.4-5.3,1.3-6.8-0.3c-1.6-1.7-1.7-3.7-0.9-5.9
				C754.2-190.9,757.1-192.5,761.6-193.3z"/>
		</g>
		<polygon class="st4" points="-134.5,93.6 884.6,74.3 881.4,163.2 -134.5,163.2 		"/>
		<g>
			<path class="st6" d="M-23.5,161.1c2.7,13.4,5.4,28.9,17.7,29.5c12.3,0.5,12.3-16.1,12.9-24.1c1.6-9.1,1.6-9.1,1.6-9.1
				c17.7-9.6,17.1-28.4,5.4-39.1s-34.3-4.3-40.7,1.6c-6.4,5.9-20.4,13.4-14.5,28.4C-33.6,162.7-23.5,161.1-23.5,161.1z"/>
			<g>
				<path class="st1" d="M6.5,158c-1.3,4.9,1.7,9.4-1.8,13.7c-4.9,2.2-10.7,2-16.3,1.6c-5.4-0.4-7.8-3.2-8.5-8.3
					c-0.2-1.8-0.5-3.6-0.8-5.6c-2.4-0.6-4.6-1.2-6.7-1.8c-4.3-1.1-7.9-3.1-10.6-6.4c-4.2-5-5.1-10.6-2-16.5
					c6.7-12.9,18.1-19.5,32.7-21.8c4.3-0.7,8.5,0,12.7,1.3c7,2.1,11.7,6,13.3,13.2c1,4.8,1.4,9.5,1.4,14.3
					c-0.1,5.8-2.9,10.2-8.1,13.3C9.9,156,8.2,157,6.5,158z M2.2,155.3c2.3-1.3,4-2.3,5.7-3.2c6.2-3.3,8.4-8.5,8-14.8
					c-0.2-2.6-0.9-5.3-1.6-7.8c-2.1-7.5-7.5-11.9-15.9-12.3c-15.2-0.7-26.2,6.3-34.2,17.6c-3.6,5-2.2,10.2,2.6,14.4
					c2.8,2.5,6.3,3.8,10,4.1c5.8,0.5,7.1,2.6,6.9,7.2c0,1.1,0,2.1,0.2,3.2c0.4,2.6,2.2,4.5,5,4.8c4.5,0.4,9,0.7,13.3-1.3
					C2.2,163.2,2.2,159.5,2.2,155.3z"/>
				<path class="st1" d="M-17.7,186c1.3-0.9,1.8-1.6,2.5-1.8c7.3-1.2,14.5-2.5,21.8-3.5c2.4-0.3,2.6,1.3,2.1,3.7
					c-7.9,1-15.6,4.4-24.1,3C-16.1,187.3-16.8,186.6-17.7,186z"/>
				<path class="st1" d="M-7.9,180.2c-2.5-0.1-5.3-0.2-8.1-0.5c-0.4,0-1-0.7-1-1.1c0.1-0.7,0.5-1.8,0.9-1.9
					c6.6-1.4,13.4-2.3,20.2-1.5c0.5,0.1,1.3,1.1,1.3,1.6c0,0.6-0.7,1.7-1.2,1.8C0.2,179.3-3.7,179.7-7.9,180.2z"/>
				<path class="st6" d="M-35.9,118.7c-2.4-2.1-4.4-3.8-6.3-5.4c0.3-2,1.4-2.9,2.9-1.9c1.8,1.1,3.4,2.6,5,4.1c0.3,0.3,0.3,1,0.1,1.5
					C-34.3,117.4-34.9,117.7-35.9,118.7z"/>
				<path class="st6" d="M-14.2,109.7c-0.9-4.8-0.4-7.7,2.5-11.2C-11,102.7-11.2,105.6-14.2,109.7z"/>
				<path class="st6" d="M-25.5,111c-4.8-1.8-4.9-2.1-3.8-7.4C-26.3,105-26.3,107.6-25.5,111z"/>
				<path class="st6" d="M11.3,110.6c-0.6-3.6,1.7-5.1,4.6-6.6C15.6,108.1,15.6,108.1,11.3,110.6z"/>
				<path class="st6" d="M-2.1,106.9c-1-2.4,0.6-3.9,1.9-5.5c1.5-0.1,2.3,0.7,1.8,1.9C1,104.8,0.8,107-2.1,106.9z"/>
				<path class="st1" d="M-9.8,146.7c0.3,5.5,0.5,10.3,0.8,16.3c-4.3-3.3-3.4-6.9-4-10c-0.6-3.3-0.9-6.7-1.5-11c1-1.6,2.6-4,4.3-6.4
					c1.1-1.6,2.9-2.5,5-2.7c2.9-0.3,5.1,0.7,6.4,2.9c1.3,2.4,0.7,5.1-1.8,7c-1.3,1-2.9,1.6-4.4,2.3C-6.5,145.7-7.8,146-9.8,146.7z
					 M-6.4,141.6c0.7-0.2,1.5-0.4,2.3-0.8c1.4-0.8,1.9-2.4,1-3.3c-1.2-1.3-2.6-0.7-3.7,0.1c-0.6,0.5-1,1.2-1.3,2
					c-0.2,0.4-0.1,1.1,0.2,1.4C-7.7,141.3-7,141.3-6.4,141.6z"/>
			</g>
		</g>
		<g>
			<path class="st6" d="M463.7,132.5c6.2-11.3,15-22.5,27.6-26.5c12.6-4,35.4,1.6,40.7,4.6c8.6,4.8,12.9,11,12.3,15.3
				s-9.1,19-13.9,21.2c-4.8,2.1-14.7,8.6-30.8,8.8c-16.1,0.3-20.1-1.1-25.2-5.6C469.3,145.6,463.7,132.5,463.7,132.5z"/>
			<g>
				<g>
					<path class="st1" d="M486.3,151.3c0.7-0.2,1.6-0.2,2.9,0.4c0,0.1,0,0.3,0,0.4c2.1,0.5,4.2,0.9,6.3,1.1c0.2-0.2,0.4-0.5,0.5-0.7
						c2.2,0.4,3.7,0.6,4.7,1c3.5,0,6.9-0.4,10.2-1.2c0.3-0.2,0.7-0.4,1-0.4c0.1,0,0.3,0,0.4,0c0.5-0.1,1-0.3,1.4-0.4
						c6.6-2.3,12.4-6.5,18.2-10.1c0.3-0.2,0.7-0.4,1-0.7c1.3-1.7,2.5-3.2,3.2-5c3.2-8.2,4.4-11.1,0.6-16.4
						c-4.9-2.7-12.8-7.4-18.3-8.3c-8.4-1.3-11.9-1.4-20.4-1.6c-4.7-0.1-9.4,2.3-13.5,4.4c-2.5,1.3-5.3,2-7.7,3.5
						c-2.6,3.7-5.4,7.4-7.7,11.4c-2.9,5-2.6,8.2,1.3,12.4c1.9,2.1,4,3.9,6,5.7C479.5,148.7,482.8,150.2,486.3,151.3z M533.2,128.3
						c-0.1,2.2-1.2,4.7-2.6,6.5c-2.7,3.5-6.1,6.4-11.1,6.7c2.6-13.6,2.6-14.2-1-25.4C527.9,118.4,533.4,122.9,533.2,128.3z
						 M473.6,129.6c3-4.3,6.7-7.7,12.2-10.5c-2,7.7-3.8,14.4-5.6,21.1c-3.3,0-4.9-2.5-6.5-4.7C472.3,133.8,472.2,131.5,473.6,129.6z
						"/>
					<path class="st4" d="M491.2,121c-0.5,13.4,5.9,18.5,14.5,18.5s7.5-20.4,7.5-20.4c6.4,4,3.8,19.8,2.7,20.9
						c-6.2,3.8-15.5,7.8-22.5,2.9c-7-4.8-8.3,1.1-8-9.4c0.3-10.4,3.2-14.5,3.2-14.5L491.2,121z"/>
				</g>
				<path class="st6" d="M472.6,131c10.4-13.1,18.4-16.3,32.7-16.1c15.4,0.3,24.8,4,27.7,10.4c2.9,6.4,0.4,13-13.9,17.3
					c-14.3,4.3-32.5,3.5-39.9-0.4C471.8,138.4,472.6,131,472.6,131z"/>
				<circle class="st1" cx="500.9" cy="129.5" r="17"/>
				<path class="st1" d="M484,162.4L484,162.4c-1.3-0.4-2-1.9-1.6-3.2l3-8.9c0.4-1.3,1.9-2,3.2-1.6l0,0c1.3,0.4,2,1.9,1.6,3.2
					l-3,8.9C486.8,162.1,485.3,162.8,484,162.4z"/>
				<path class="st1" d="M519.9,115.2L519.9,115.2c-1.3-0.4-2-1.9-1.6-3.2l3-8.9c0.4-1.3,1.9-2,3.2-1.6l0,0c1.3,0.4,2,1.9,1.6,3.2
					l-3,8.9C522.6,114.9,521.2,115.7,519.9,115.2z"/>
				<path class="st1" d="M503,113.3L503,113.3c-1.3-0.4-2-1.9-1.6-3.2l3-8.9c0.4-1.3,1.9-2,3.2-1.6l0,0c1.3,0.4,2,1.9,1.6,3.2
					l-3,8.9C505.8,113.1,504.3,113.8,503,113.3z"/>
				<path class="st1" d="M500.5,164.6L500.5,164.6c-1.4,0.1-2.6-1-2.7-2.4l-0.4-9.4c-0.1-1.4,1-2.6,2.4-2.7l0,0
					c1.4-0.1,2.6,1,2.7,2.4l0.4,9.4C503,163.4,501.9,164.5,500.5,164.6z"/>
				<path class="st1" d="M491.2,114.5L491.2,114.5c-1.4,0.1-2.6-1-2.7-2.4l-0.4-9.4c-0.1-1.4,1-2.6,2.4-2.7l0,0
					c1.4-0.1,2.6,1,2.7,2.4l0.4,9.4C493.6,113.3,492.6,114.5,491.2,114.5z"/>
				<path class="st1" d="M519.9,161.8L519.9,161.8c-1.2,0.7-2.8,0.3-3.5-0.9l-4.7-8.1c-0.7-1.2-0.3-2.8,0.9-3.5v0
					c1.2-0.7,2.8-0.3,3.5,0.9l4.7,8.1C521.5,159.5,521.1,161.1,519.9,161.8z"/>
				<path class="st1" d="M479.2,119.7L479.2,119.7c-1.2,0.7-2.8,0.3-3.5-0.9l-4.7-8.1c-0.7-1.2-0.3-2.8,0.9-3.5l0,0
					c1.2-0.7,2.8-0.3,3.5,0.9l4.7,8.1C480.8,117.4,480.4,119,479.2,119.7z"/>
				<path class="st1" d="M533.6,154.3L533.6,154.3c-0.9,1.1-2.5,1.3-3.6,0.5l-7.4-5.7c-1.1-0.9-1.3-2.5-0.5-3.6l0,0
					c0.9-1.1,2.5-1.3,3.6-0.5l7.4,5.7C534.2,151.6,534.4,153.2,533.6,154.3z"/>
			</g>
		</g>
		<path class="st6" d="M734.4,133c-0.5,11.6-1.1,23.3-1.6,34.9c-0.1,1.4-0.1,2.9-0.3,4.3c-0.8,5.4-3.2,7.5-8.8,7.7
			c-1.2,0-2.4-0.1-3.6-0.2c-11.4-1.4-22.8-2-34.2-2.1c-3.9,0-7.7-1-11.5-1.9c-3.8-0.9-4.8-2.2-5-6.1c-0.2-3.1-0.2-6.3-0.2-9.4
			c0-14.8-1-29.6,1-44.3c0.5-3.9,0.2-8,0.4-11.9c0.3-5.6,2.3-7.5,8.3-8c2.1-0.2,4.2-0.1,6.3,0.1c10.9,1,21.6,0.5,32.3-1.4
			c3.9-0.7,7.6-0.9,11.4,1c2.3,1.2,4,2.5,4.4,5c0.6,3.9,1.4,7.9,1.5,11.9c0.2,6.8-0.1,13.7-0.2,20.5C734.5,133,734.4,133,734.4,133z
			"/>
		<path class="st6" d="M774.7,167.4c-0.3-3.3-1-6.4-0.7-9.5c1.5-17.3,0.4-34.6-1-51.8c-0.6-7.8,2.2-11.7,10.3-12.6
			c8.7-1,17.5-1.3,26.2-1.8c1.2-0.1,2.5,0.1,3.8,0.3c3.5,0.5,5.8,2.2,6.4,5.5c0.2,1.1,0.3,2.3,0.5,3.4c2.9,18.3,5.5,36.6,5.7,55.1
			c0,0.9,0.1,1.7,0.1,2.6c-0.1,6.9-1.9,9-9.1,9.4c-10.3,0.7-20.7,1.1-31,1.5C782.5,169.7,779,169.6,774.7,167.4z"/>
		<g>
			<path class="st1" d="M732.9,133.7c-0.5,10.8-1,21.6-1.5,32.3c-0.1,1.3,0,2.6-0.2,3.9c-0.8,5-3.1,6.9-8.4,7.1
				c-1.1,0-2.3-0.1-3.4-0.2c-10.9-1.3-21.8-1.9-32.7-2.1c-3.7,0-7.4-0.9-11-1.7c-3.6-0.8-4.6-2-4.8-5.7c-0.2-2.9-0.2-5.8-0.2-8.7
				c0-13.7-1-27.4,0.9-41.1c0.5-3.6,0.1-7.4,0.3-11.1c0.3-5.2,2.2-6.9,7.9-7.4c2-0.2,4-0.1,6,0.1c10.4,1,20.7,0.5,30.9-1.2
				c3.7-0.6,7.3-0.9,10.9,1c2.2,1.1,3.8,2.3,4.2,4.6c0.6,3.7,1.4,7.3,1.5,11c0.2,6.3-0.1,12.7-0.1,19
				C733,133.7,732.9,133.7,732.9,133.7z M726.5,102.8c-8.8,0.7-16.8,1.1-24.7,1.9c-8,0.8-15.9-1.9-24.2-0.7
				c-2.6,19.3-3.3,38.3-2.7,57.5c0.1,2,0.7,4,1.1,5.8c6,2.7,11.8,2.1,17.5,2.6c5.4,0.5,10.9,0.7,16.3,0.8c5.6,0.1,11.2,2.5,17.1,0.3
				c0.3-1.7,0.6-3.2,0.7-4.7c0.5-10,1-19.9,1.3-29.9c0.2-7.9,0-15.8,0-23.6C728.9,109.6,727.8,106.7,726.5,102.8z"/>
			<path class="st1" d="M776.8,164.2c-0.2-3-0.9-5.9-0.6-8.7c1.4-15.8,0.4-31.6-0.9-47.3c-0.6-7.1,2-10.7,9.4-11.5
				c7.9-0.9,16-1.2,24-1.7c1.1-0.1,2.3,0.1,3.4,0.3c3.2,0.4,5.3,2,5.8,5c0.2,1,0.3,2.1,0.5,3.1c2.6,16.7,5,33.4,5.2,50.3
				c0,0.8,0.1,1.6,0.1,2.4c-0.1,6.3-1.7,8.2-8.3,8.6c-9.4,0.6-18.9,1-28.3,1.4C783.9,166.2,780.8,166.2,776.8,164.2z M780.6,102.4
				c-0.3,3.5-1,6.6-0.7,9.7c1.3,14.4,1.8,28.9,0.8,43.3c-0.1,1.7,0.5,3.5,0.8,5.6c11.4,0.5,22.1-0.6,33-1.1c1.6-0.1,3.2-0.7,4.7-1.1
				c1.2-7,0-13.5-0.4-20c-0.5-6.6-0.9-13.2-2.2-19.6c-1.2-6.4-0.8-13.1-3.9-19.6C801.6,98.6,790.9,98.6,780.6,102.4z"/>
			<path class="st1" d="M743.4,132.1c0.2-2.1,0.2-3.3,0.4-4.6c0.4-2,1.9-3.3,4-3.5c5-0.3,10.1-0.4,15.2-0.5c1.3,0,2.6,1.7,2.2,2.9
				c-0.6,1.7-1.1,3.7-3.4,4.1C756,131.4,750.2,132.8,743.4,132.1z"/>
			<path class="st1" d="M751.9,143c-4.8-0.4-7.5-1.5-7-3.1c0.8-2.9,4-2.6,6.3-3c3.9-0.7,7.9-0.9,11.8-1.2c1.4-0.1,3.3,0,3.4,1.5
				c0.1,1.4-0.5,3.1-1.4,4.2c-0.7,0.9-2.5,1.2-3.8,1.4C758.2,143,755,142.9,751.9,143z"/>
			<path class="st1" d="M692.9,142.6c-3.1-0.3-6.3-0.4-9.4-0.8c-0.8-0.1-1.4-1.3-2.2-2.1c0.8-0.6,1.6-1.3,2.6-1.7
				c0.4-0.2,1.1-0.1,1.7-0.1c9.7,0.5,19.5,1.2,29.2,0.3c1.6-0.1,3.5-0.3,4.4,1.6c0.6,1.4-1.3,3-3.9,3.1c-7.4,0.1-14.9,0.2-22.3,0.2
				C692.9,142.9,692.9,142.7,692.9,142.6z"/>
			<path class="st1" d="M690.9,116.8c-0.5,0-1.1,0.1-1.6-0.2c-1.2-0.5-2.6-1-3.3-1.9c-0.8-0.9,1-2.1,3.5-2.2
				c8.2-0.3,16.4-0.5,24.6-0.7c1,0,2.2,0.5,3.1,0.9c0.4,0.2,0.6,0.9,0.6,1.3c0,0.5-0.3,1-0.7,1.3c-0.4,0.3-1,0.5-1.6,0.5
				C707.5,116.2,699.3,116.5,690.9,116.8z"/>
			<path class="st1" d="M687.1,127.6c0.1-1,0-1.7,0.3-2c0.5-0.5,1.3-1.1,2-1.3c9-1.5,18.2-1.7,27.3-1.5c0.7,0,2,1.3,2,1.9
				c0,0.7-1.1,1.9-1.9,2c-2.5,0.3-5.1,0-7.7,0.1c-5.1,0.3-10.3,0.7-15.4,0.9C691.6,127.9,689.4,127.7,687.1,127.6z"/>
			<path class="st1" d="M698.1,153.2c4.8-2.5,9.7-1.7,14.9-1.4c-0.4,1.2-0.5,2.3-0.9,2.5c-4,1.3-8.1,1.9-12.4,1
				C699.2,155.1,698.8,154.1,698.1,153.2z"/>
			<path class="st1" d="M813.8,134.3c-0.7,0.9-1.1,2-1.9,2.3c-1.2,0.5-2.7,0.7-4.1,0.8c-6.6,0.5-13.2,0.9-19.7,1.3
				c-1.1,0.1-2.2-0.2-4.2-0.3c1.2-1.3,1.8-2.3,2.6-2.6C792.6,133.7,807.6,132.8,813.8,134.3z"/>
			<path class="st1" d="M809.9,117.5c-1.1,1.1-1.8,2.2-2.6,2.3c-6,0.5-11.9,0.9-17.9,1.1c-0.5,0-1.5-0.9-1.6-1.4
				c-0.1-0.5,0.7-1.6,1.2-1.7C795.7,117.3,802.3,115.2,809.9,117.5z"/>
			<path class="st1" d="M808.3,106.1c0.5,3.1-1.3,3.6-3,3.7c-5.3,0.6-10.7,1-15.9,1.5c-1.2-0.8-1.8-1.9-0.5-2.5
				C795.1,106,801.8,106.4,808.3,106.1z"/>
			<path class="st1" d="M799.1,147.3c0.9-0.9,1.5-2,2.3-2.1c3.2-0.6,6.4-2.4,9.6,0c0.1,0.1,0.1,0.6,0,0.7c-2.2,3.1-5.8,2.4-9,2.4
				C801.2,148.2,800.4,147.7,799.1,147.3z"/>
		</g>
		<g>
			<path class="st6" d="M-5.5,554c0.9,6.1,3,11.5-1.5,17.1c-2.2-1.3-4.8-2.3-6.8-4.1c-10.5-9.4-22.8-12.4-36.3-11
				c-2.1,0.2-4.2,0.3-6.3,0.2c-6-0.1-9.9-3.3-11.9-9c-0.7-2-1.2-4.3-1.3-6.4c-0.6-13.7,2.1-26.9,6.2-39.8c0.7-2.1,3.1-3.9,5.1-5.2
				c6.7-4.4,14.5-5.2,22-6.8c4.8-1,9.8-0.9,14.6-2.1c9.4-2.3,18.9-1.1,28.3-2.1c2.6-0.3,4.9,0.6,6.7,2.5c1.9,2.1,4.1,4.3,5.2,6.8
				c5.5,13.1,7.5,26.5,2.7,40.5c-2.4,7.1-6.6,11.8-13.7,13.8C3.2,549.6-1.3,550.4-5.5,554z"/>
			<g>
				<path class="st1" d="M-6.6,552.1c0.8,5.5,2.8,10.4-1.4,15.3c-2.1-1.2-4.5-2.1-6.4-3.7c-9.9-8.5-21.3-11.1-34-9.9
					c-2,0.2-3.9,0.2-5.9,0.2c-5.6-0.1-9.3-3-11.1-8.1c-0.7-1.8-1.1-3.8-1.2-5.8c-0.5-12.3,2-24.1,5.8-35.7c0.6-1.9,2.9-3.5,4.8-4.7
					c6.3-3.9,13.6-4.6,20.6-6.1c4.5-0.9,9.2-0.8,13.6-1.9c8.8-2.1,17.7-1,26.5-1.9c2.4-0.2,4.6,0.5,6.3,2.3c1.8,1.9,3.8,3.8,4.9,6.1
					c5.2,11.8,7.1,23.8,2.6,36.3c-2.3,6.4-6.2,10.6-12.8,12.4C1.6,548.2-2.7,548.9-6.6,552.1z M-11.2,557.5
					c-0.2-2.5-0.3-4.1-0.5-5.6c-0.3-4.6-0.1-5.1,3.9-6.6c4.6-1.6,9.4-3,14.1-4.5c3.9-1.3,6.9-3.6,8.4-7.7c4.7-12.2,1.2-23.3-4.4-34
					c-1-2-3.1-3.6-5.6-3.5c-7.5,0.2-15,0.4-22.5,0.8c-2.9,0.2-5.8,1.3-8.7,1.4c-8.8,0.4-16.5,4-24.1,8c-5.8,3.1-8.7,7.7-9.7,13.9
					c-0.6,3.9-1.2,7.8-1.5,11.7c-0.2,2.9-0.3,5.9,0.1,8.8c0.8,5.3,3.1,7.6,8.5,7.9c4.2,0.3,8.5,0.1,12.8-0.3
					c7.9-0.8,14.9,1.4,21.6,5.4C-16.6,554.5-14.4,555.7-11.2,557.5z"/>
				<path class="st1" d="M-23.5,513.7c1.7-2.5,3-4.8,4.7-6.8c3.5-4,7.9-4.7,12.2-1.6c2.1,1.5,3.9,3.5,5.5,5.5
					c1.4,1.8,2.5,3.9,3.6,5.8c3.7,6.3,2.2,12.2-4.3,15.6c-2.6,1.3-5.5,1.9-8.6,2.9c-0.5,1.4-0.9,3-1.6,4.5c-2.3,4.6-3.4,5-9.3,4.2
					c-2.2-0.3-4.5,0.2-6.7,0.1c-2.3,0-4.6,0-6.8-0.3c-2.5-0.4-4.9-2.2-4.8-4.4c0.3-6.1-5.1-11.2-2.9-17.7c-1,1.2-1.9,2.4-2.9,3.6
					c-1.4-4-1.2-5.5,0.9-8.4c2.1-2.8,4.8-4.6,8.3-4.3C-32,512.7-28.2,513.2-23.5,513.7z M-10.1,527.9c7.4,1.2,7.7,1.1,10.4-4.8
					C-3.4,524.9-6.8,526.4-10.1,527.9z M-15.6,523.7c0-2.6,0-4.9,0-7.8c-1.3,0.8-2.5,1.1-2.8,1.8C-19.3,520.2-17.6,521.9-15.6,523.7
					z M-33.1,520.2c-4,3.7-4,3.7-3.8,6.9C-33.2,525.1-33.2,525.1-33.1,520.2z M-32.4,538.9c1.1,0.2,2.3,0.8,3.2,0.6
					c1-0.3,1.8-1.3,2.7-2.1c0.1-0.1,0-0.6-0.2-0.8c-1.5-1.6-4.8-1.1-5.6,0.8C-32.3,537.7-32.3,538.1-32.4,538.9z M-6.5,522.6
					c1.3-2,2.6-3.1,2.8-4.4c0.2-1.3-2.4-2.9-3.6-2.1c-0.8,0.5-1.4,2-1.3,3C-8.6,520-7.6,520.9-6.5,522.6z M-12.5,511.4
					c0.8-0.8,1.6-1.6,2.4-2.4c-0.5-0.3-1-0.8-1.5-0.9c-1.3-0.1-2.7,0.2-2.6,1.9C-14.2,510.4-13.4,510.8-12.5,511.4z"/>
			</g>
		</g>
		<g>
			<polygon class="st6" points="276.6,517.5 282.3,540.4 341.7,526.3 346.6,531.2 377.9,536.4 379.5,513.9 362.6,510.7 358.2,503.4 
				371.9,489 361.8,474.1 339.3,483.7 332.9,503.4 			"/>
			<polygon class="st6" points="376.7,484.9 369,497.7 373.1,512.7 388.4,516.3 395.6,509.1 394.4,491.8 			"/>
			<g>
				<path class="st1" d="M338.1,505c0.5-15.6,10.8-20.5,23.7-23.3c1.4,1.6,3,3,4.1,4.6c2.3,3.5,2.1,5.7-0.9,8.3
					c-3.1,2.8-6.5,5.3-9.9,8.1c1.4,3.8,2.5,7.1,3.9,10.9c5.4,0.5,10.9,1,16.9,1.6c0.4,2.5,1.1,4.6,0.8,6.5
					c-1.3,10.6-3.5,10.5-12.2,9.4c-5.2-0.7-10.4-1.1-15.8-1.7c-1.4-1.9-2.9-3.8-4.4-5.7c-8.1,0.4-15.1,4.1-22.6,6
					c-8.2,2-16.2,5-24.4,6.6c-14,2.9-16.7,0.2-16.2-14.5c0-0.3,0.2-0.7,0.6-1.7c1.5-0.5,3.3-1.3,5.3-1.8c13-3.2,26-6.3,39-9.5
					C330,507.8,333.9,506.3,338.1,505z M299,529.2c2.4-0.3,4.8-0.2,7.1-0.9c8.8-2.6,17.5-5.4,26.3-8c5-1.5,10-3.3,15.6-2.5
					c1.4,2.2,2.6,4.2,4.2,6.6c4.7,0.6,9.6,1.2,14.5,1.7c3.3,0.3,3.9-1,2.9-5.6c-4.9-1.7-10.6,0.8-15.8-3c-1.2-5.2-5-10.2-4.3-16.1
					c2.9-5.1,9.7-5.7,11.1-11.4c-0.6-0.5-1.1-1.3-1.6-1.3c-9.2,0.1-14.9,5.7-15.3,14.7c-0.3,6.1-0.2,6.3-6.1,8
					c-8.5,2.4-17.1,4.3-25.5,6.6c-4,1.1-7.9,2.7-11.8,4c-4.6-0.9-8.8,0.7-13.3,2.2c0,1.6-0.2,3,0.1,4.3c0.2,0.9,0.9,1.8,1.4,2.9
					C292.2,531.9,295.8,531.8,299,529.2z"/>
				<path class="st1" d="M369,497.7c3-3.4,5.7-6.6,8.8-10.1c1.5,0.2,3.1,0.5,4.8,0.8c8.3,1.8,11.1,4.8,12.2,13.2
					c0.6,4.8-2.8,7.7-5.6,10.7c-1.9,2.1-4.5,1.3-6.9,0.4c-2.6-0.9-5.3-1.7-8-2.5c-1.5-3-2.9-5.7-4.3-8.5
					C369.5,500.8,369.4,499.7,369,497.7z M384.3,506.9c0.5,0.1,1.1,0.3,1.6,0.4c0.9-1.7,2.6-3.5,2.5-5.2c-0.1-2.3-1.3-4.7-2.7-6.6
					c-1.5-2.1-5.5-1.9-7.6-0.2c-2.9,2.4-3.1,3.7-1.1,8c0.8-0.8,1.5-1.4,2.1-2.1c1.2-1.4,2.5-2.7,4.4-1.6c1.9,1,1.8,2.8,1.3,4.5
					C384.7,505,384.6,505.9,384.3,506.9z"/>
				<path class="st6" d="M399.4,494.8c5-5.5,5-5.5,13.4-2.8c-1.5,1-2.4,2.1-3.5,2.2C406.6,494.6,403.9,494.6,399.4,494.8z"/>
				<path class="st6" d="M388.5,483c-0.5-4.6,3.1-5.9,5.7-7.8c0.9-0.6,2.4-0.4,4.4-0.6C396.3,479.5,392,480.7,388.5,483z"/>
				<path class="st6" d="M379.1,471.1c1,4.4-0.8,7.1-5.1,8.9C372.9,475,375.8,472.9,379.1,471.1z"/>
				<path class="st6" d="M408.9,511.6c-1.8-0.7-3.6-1.2-5.3-2c-0.1-0.1,0.2-2.1,0.8-2.5c1.8-1.1,4.3-0.1,5,1.9
					C409.7,509.5,409.2,510.3,408.9,511.6z"/>
				<path class="st6" d="M402.9,525.1c-5.3,1.3-5.6,1-4.9-4.7c1.3,0.7,2.5,1.2,3.5,2.1C402.2,523.1,402.5,524.2,402.9,525.1z"/>
			</g>
		</g>
		<polyline class="st5" points="501,813.7 349.9,709.7 345.6,547.9 495.6,537.2 497.8,818 		"/>
		<g>
			<polygon class="st7" points="-136.6,-25.5 -129.9,36.2 -86.5,74.8 -3.7,68.9 -4.1,13.7 			"/>
			<g>
				<path class="st6" d="M-51.9-34.7c-28.7,6.6-57.1,2.5-84.8,9.3c7.2,11.1,33.1,36.1,55,53.4c23.4-2.7,47.7-5.4,71.9-8.3
					c1.6-0.2,3-1.4,4.8-2.2c-0.3-2,0-4.3-0.9-5.3C-20.8-3.2-35.9-18.5-51.9-34.7z"/>
				<path class="st2" d="M-32.9-8.1c-1.6,2.8-2.2,5.3-3.2,5.3C-54.3-1-72.7,0.5-91,1.9c-0.8,0.1-1.6-1.3-2.9-2.3
					c1.2-1.2,2.3-3.3,3.5-3.4C-71.7-4.9-53.2-11.4-32.9-8.1z"/>
				<path class="st1" d="M-29.6,7.6c-0.1,1.9,0,2.9-0.3,3c-12.2,7.2-26.5,3.1-39.4,6.9c-1.7,0.5-4-0.8-6.8-1.4
					C-65.3,8-48.7,5-29.6,7.6z"/>
				<path class="st1" d="M-63.9-20.1c-0.4,1.2-0.4,2.1-0.8,2.2c-2.1,1-4.3,2.7-6.3,2.5c-14.1-1.7-28.1,3.9-42.1,1.4
					c0.2-2,0.1-3.9,0.3-4c13.9-2.8,27.9-5.1,42.2-3.8C-68.3-21.6-66.1-20.7-63.9-20.1z"/>
			</g>
		</g>
		<path class="st6" d="M-15,34.7c-5,4.5-10.6,5.1-16,5.1c-9.8,0.1-19.5-0.2-29.3,1.4c-0.8,0.1-1.7-0.3-3.6-0.7
			c1.8-1.3,2.8-2.6,3.9-2.8c7.1-0.8,14.2-1.4,21.2-2c7.1-0.6,14.2-1.2,21.2-1.7C-16.6,33.9-15.8,34.4-15,34.7z"/>
		<path class="st6" d="M-18,47.4c-1.4,2.2-1.7,3.1-2.1,3.1C-33,52.1-46,53.7-58.9,55.2c-0.3,0-0.7-0.9-1.5-1.9
			c1.6-2.1,4-2.2,6.1-2.7C-42.7,47.8-30.9,47.1-18,47.4z"/>
		<path class="st6" d="M-120.2,7.8c2.6,1.3,5.3,2.5,7.7,4c2.6,1.6,5.1,3.5,7.4,5.6c2.1,2,6.1-0.4,7.2,4.7c-3.3,0.8-6.2,0.8-8.8-1
			c-4.3-2.9-8.5-6.1-12.7-9.4c-0.7-0.5-1-1.6-1.5-2.4C-120.7,8.9-120.5,8.4-120.2,7.8z"/>
		<path class="st6" d="M-105.3,47.7c-1.4-3.8-4.3-5.5-7.2-7.2c-2.9-1.6-5.7-3.3-8.5-4.8c0-3.6,2.1-3.7,3.6-2.9
			c4.5,2.5,8.9,5.1,13,8.5c2.2,1.8,5.3,3.3,5.9,7.9c-1.2,0.1-2.2,0.2-3.3,0.3c0,0,0.2,0.3,0.2,0.3c-1.3-0.8-2.6-1.6-4-2.4
			L-105.3,47.7z"/>
		<rect x="-139.3" y="-232.2" class="st4" width="24.6" height="335.1"/>
		<g>
			<g>
				<path class="st6" d="M350.5,24.6c0,12.2,0,24.4,0,36.6c0,4.9-2.6,7.9-6.9,9.6c-15.8,6-31.7,8.4-47.6,0.1
					c-10.8-5.7-21.6-11.3-32.7-16.3c-6.7-3-10.2-7.8-10.1-14.6c0.1-14.3,0.7-28.5,1.4-42.8c0.3-6.3,1.1-12.6,1.7-19
					c0.4-4.7,0.9-9.5,1.4-14.2c0.8-7.5,4.1-13,11.9-15c1.5-0.4,3-1.1,4.3-2.1c13-9.5,26.6-9.2,40.5-2.5c8.1,3.9,16.1,7.9,24,12.2
					c4.9,2.7,7.8,7.3,8.7,12.7c1.4,8.3,2.8,16.7,3.3,25.1C350.9,4.4,350.4,14.5,350.5,24.6C350.5,24.6,350.5,24.6,350.5,24.6z"/>
				<path class="st1" d="M350.5,24.6c0,12.2,0,24.4,0,36.6c0,4.9-2.6,7.9-6.9,9.6c-15.8,6-31.7,8.4-47.6,0.1
					c-10.8-5.7-21.6-11.3-32.7-16.3c-6.7-3-10.2-7.8-10.1-14.6c0.1-14.3,0.7-28.5,1.4-42.8c0.3-6.3,1.1-12.6,1.7-19
					c0.4-4.7,0.9-9.5,1.4-14.2c0.8-7.5,4.1-13,11.9-15c1.5-0.4,3-1.1,4.3-2.1c13-9.5,26.6-9.2,40.5-2.5c8.1,3.9,16.1,7.9,24,12.2
					c4.9,2.7,7.8,7.3,8.7,12.7c1.4,8.3,2.8,16.7,3.3,25.1C350.9,4.4,350.4,14.5,350.5,24.6C350.5,24.6,350.5,24.6,350.5,24.6z
					 M266.5-40.4c-0.5,1.6-1.6,3.6-1.7,5.6c-1.8,22.6-3.4,45.2-5,67.8c-0.4,5.9,2.4,10.2,7.5,12.9c11.3,5.7,22.6,11.4,34,16.9
					c2.1,1,4.7,0.9,8.2,1.4c-0.5-30.5,2.8-59.9-1.4-89.3c-7.7-3-13.5-7.9-21.4-8.2c-3.8-0.1-6.9-2.2-9-5.7
					C275-43.9,271-42.7,266.5-40.4z M280.9-50c0.9,1.6,1.2,2.9,1.9,3.3c8.8,4.6,17.9,8.9,26.6,13.8c8.6,4.9,16.6,3.8,25.2-0.6
					c-10.6-9.2-31-19.2-41-20C289-54,284.6-53.1,280.9-50z"/>
			</g>
			<path class="st2" d="M281.6-11C278.3,3,280.2,16.1,280,29c0,0.8,1.1,1.7,2.2,3.3c2.9-0.4,6.3-0.8,10.1-1.2
				c1.3-12.7,2.5-24.5,3.8-37C291.1-7.7,286.8-9.2,281.6-11z"/>
		</g>
		<rect x="245.4" y="-196.8" class="st4" width="32.9" height="335.1"/>
		<g>
			<path class="st6" d="M213.3,149.7c-0.2-13.2,4.5-25.1,12.8-35.7c15.5-19.8,48.8-19.5,63.3-5.4c7.5,7.3,14.1,14.6,15.6,25.1
				c1.7,12.2-1.9,22.4-9.7,32.5c-9,11.7-21.3,17.6-36.2,20c-18.8,3.1-38.5-7.6-44.1-23.7C213.6,158.5,213.8,154,213.3,149.7z"/>
			<g>
				<path class="st1" d="M215.4,149.3c-0.2-12.4,4.3-23.6,12.1-33.6c14.6-18.6,45.9-18.3,59.6-5.1c7.1,6.9,13.3,13.8,14.7,23.6
					c1.6,11.5-1.7,21.1-9.1,30.6c-8.5,11-20,16.5-34,18.8c-17.7,2.9-36.2-7.1-41.5-22.3C215.7,157.6,215.9,153.3,215.4,149.3z
					 M221.1,149.4c-0.9,5.1,0.6,10,3.8,14.4c7.5,10.2,18.1,15.3,32.1,14.1c8.6-0.8,16.4-3.7,23.1-8.4c8.9-6.3,15.8-14.3,16.9-24.6
					c1.6-15-7-26-19.8-34.7c-2.3-1.6-5.6-2.4-8.5-2.6c-5.3-0.3-10.8-0.5-16,0.4c-7.9,1.5-16.2,4.3-20.1,10.7
					C226.9,128.2,220.7,137.8,221.1,149.4z"/>
				<path class="st1" d="M261.7,147.2c-0.8,2-1.3,4-2.3,5.8c-0.4,0.7-1.9,1.4-2.8,1.3c-0.9-0.1-2.1-1-2.4-1.8
					c-1.1-3.6-1.5-7.2-0.7-11.2c4.2-1.3,8.2-2.3,11.9-3.8c3.4-1.3,4.8-4.3,3.8-7.6c-0.4-1.2-1.6-2.8-2.6-3
					c-3.7-0.5-7.5-0.8-11.3-0.6c-3.3,0.3-4.8,2.8-6.2,5.4c-1.6,3-4.5,3.7-7.4,2.5c-2.6-1-3.8-4.2-2.4-7c5-10.3,22.5-14,32.2-7.4
					c7.4,5,8.5,17.1-1.8,23.7C267.3,145.2,264.3,146.1,261.7,147.2z"/>
				<path class="st1" d="M267.4,165.2c-0.5,0.9-1.4,3.2-3,4.8c-1.9,1.9-4.8,1.9-7.4,0.8c-2.7-1.1-3.7-3.2-3.5-5.8
					c0.2-2.6,1.7-4.5,4.5-5.3c1.4-0.4,3-0.4,4.5-0.4C265.5,159.3,267.3,161.1,267.4,165.2z"/>
			</g>
		</g>
		<path class="st1" d="M443.1,34.4c-0.6-2.2-1.5-4-1.5-5.7c0.5-10.2,1.2-20.4,1.7-30.6c0.2-3,1.2-5.6,4.1-6.6
			c3.4-1.2,6.4,0.1,8.9,2.5c0.3,0.3,0.7,0.6,0.9,1.1c4.9,12,7,24.2,0.3,36.2C454.6,36.6,449.7,37,443.1,34.4z"/>
		<g>
			<g>
				<path class="st6" d="M480.2,40.7c0.3,5.9,0.4,9.9,0.6,13.9c-3.2,5.1-8.3,6.2-13.4,6.1c-11.8-0.2-23.3,1.5-34.8,3.6
					c-4.8,0.9-8.8,0-13.3-2.5c-7.7-4.3-16-7.5-24.1-11.1c-10.6-4.8-15.4-12.9-14.8-24.6c0.9-17.7,1.4-35.5,2.1-53.2
					c0.1-1.8,0.7-3.6,1.3-6c8.7-2.9,17.4-6,26.3-8.7c2-0.6,4.6,0,6.8,0.6c4.5,1,8.9,2.4,14.3,3.8c0.9-2.8,2.3-5.2,2.5-7.8
					c0.4-4.6,0.2-9.3,0.2-14c0-6.2,0.9-12,4.5-17c4.7-1.6,8.6,0.2,12.6,1.5c6.2,2,12.7,3.6,18.5,6.5c11.5,5.8,23.8,8.5,36.3,9.7
					c6.7,0.7,10.2,3.8,11.8,9.9c1.2,4.5,2.3,9.1,3.1,13.7c2.8,17,6,34,4.5,51.5c-0.1,0.9-0.2,2,0.1,2.8c4.5,12.2-4.5,17.8-11.7,24.3
					c-1.3,1.1-3.5,2.1-5.1,1.9c-6.5-1-13.7,2.1-19.6-3.5C487.5,40.7,484.5,41.2,480.2,40.7z"/>
				<path class="st1" d="M480.2,40.7c0.3,5.9,0.4,9.9,0.6,13.9c-3.2,5.1-8.3,6.2-13.4,6.1c-11.8-0.2-23.3,1.5-34.8,3.6
					c-4.8,0.9-8.8,0-13.3-2.5c-7.7-4.3-16-7.5-24.1-11.1c-10.6-4.8-15.4-12.9-14.8-24.6c0.9-17.7,1.4-35.5,2.1-53.2
					c0.1-1.8,0.7-3.6,1.3-6c8.7-2.9,17.4-6,26.3-8.7c2-0.6,4.6,0,6.8,0.6c4.5,1,8.9,2.4,14.3,3.8c0.9-2.8,2.3-5.2,2.5-7.8
					c0.4-4.6,0.2-9.3,0.2-14c0-6.2,0.9-12,4.5-17c4.7-1.6,8.6,0.2,12.6,1.5c6.2,2,12.7,3.6,18.5,6.5c11.5,5.8,23.8,8.5,36.3,9.7
					c6.7,0.7,10.2,3.8,11.8,9.9c1.2,4.5,2.3,9.1,3.1,13.7c2.8,17,6,34,4.5,51.5c-0.1,0.9-0.2,2,0.1,2.8c4.5,12.2-4.5,17.8-11.7,24.3
					c-1.3,1.1-3.5,2.1-5.1,1.9c-6.5-1-13.7,2.1-19.6-3.5C487.5,40.7,484.5,41.2,480.2,40.7z M426.1-13.7c-6.3-2-12.1-3.5-17.8-5.5
					c-5.9-2.1-11.7-4.6-18.3-7.2c-1.1,12-2.3,23-3.1,34.1c-0.4,6-0.3,12.1-0.1,18.1c0.4,8.6,4.3,15.1,12.6,18.4
					c6.4,2.6,12.8,5.2,19.3,7.8C422,42.3,426.4,3.1,426.1-13.7z M440.3-35.7c3.4,1.7,6.6,3.4,9.9,5c4.6,2.2,9.2,4.5,13.9,6.5
					c8.2,3.5,11.8,9.3,12.1,18.4c0.4,12.5,2.2,24.9,3.4,38.1c3.7,0.6,7.2,1.2,11.6,1.9c1.2-15.4-1.6-29.5-3.5-43.7
					c-1.9-14.7-3.4-29.4-5.1-44.3c-12.3-4.9-23.3-12.3-37.4-12.6C441.4-56.3,440.4-46.4,440.3-35.7z M405.7-33.7
					c4.6,7.5,9.9,9.4,16,10.4c7.2,1.2,7.2,1.3,15.7-2.1C428-29.7,419-36,405.7-33.7z"/>
			</g>
			<path class="st2" d="M398.2-11.1c6.6,2.1,12,3.9,18.1,5.8c-3.7,5.4-7.9,3.7-11.5,2.6C401.8-3.7,397.1-3.9,398.2-11.1z"/>
			<path class="st2" d="M410.8,8.2c-4.1,5.1-7,3.1-9.7,1.5c-0.9-0.6-1.8-2.4-1.6-3.4c0.1-0.8,2.2-1.9,3.1-1.7
				C405.1,5.4,407.5,6.7,410.8,8.2z"/>
			<polygon class="st2" points="394.4,-31.8 436.7,-13.6 466.2,-16.8 412.6,-40.4 			"/>
			<g>
				<path class="st6" d="M453.6,0.6c-6,8.8-4.9,18.3-5.5,29.2c3-1.6,5.5-2.1,6.3-3.6c1.2-2.3,1.9-5.3,1.7-7.9
					C455.6,12.3,454.4,6.5,453.6,0.6z"/>
				<path class="st6" d="M506.6-14.2c1.3,10.4,2.4,18.5,3.7,28.7c-2.9-2.1-4.8-2.7-5.3-3.9c-2.8-6.5-3.6-13.3-2.5-20.3
					C502.7-10.7,504.2-11.5,506.6-14.2z"/>
				<path class="st6" d="M503.6-26.6c-2-3-3.7-5.1-4.8-7.4c-0.5-1,0.3-2.5,0.6-3.8c1.2,0.2,3,0.1,3.5,0.8c1.3,1.8,2.4,4,3,6.2
					C506.1-29.9,504.8-28.7,503.6-26.6z"/>
			</g>
		</g>
		<g>
			<g>
				<g>
					<polygon class="st7" points="687.4,-25.2 690.5,28.2 730.8,70 817.4,61 822.3,17.5 					"/>
				</g>
				<polygon class="st6" points="687,-25.7 748.9,28.7 823.1,18.3 762.7,-34.7 				"/>
				<g>
					<path class="st1" d="M791.8-3.2c0.3,3.7-1.2,4.3-2.7,4.2c-4.8,0-9.6-0.8-14.3-0.4c-13.2,1.1-26.4,2.6-39.6,3.9
						c-1.1,0.1-2.2,0-4-0.1c1.1-1.6,1.6-2.9,2.2-3.2C744.9-2.9,782.7-5.8,791.8-3.2z"/>
					<path class="st1" d="M763.4-25.9c-0.4,3.9-2.5,4.5-4.6,4.6c-3.5,0.2-7,0.1-10.6,0.1c-13.4,0.2-26.7,0.5-40.1,0.7
						c-2.3,0-4.9,0.5-6.2-3.2c3.4-0.8,6.4-1.9,9.3-2C728.4-26.3,745.6-26.7,763.4-25.9z"/>
					<path class="st1" d="M714.4-9.6c0.7-2.8,2.6-3.1,4.3-3.1c8.1-0.2,16.2-0.7,24.3-0.4c9.9,0.4,19.7,0.2,29.5-1
						c2-0.2,4,0.3,7.8,0.5c-2.4,1.6-3.4,2.7-4.4,2.8c-5.9,0.7-11.9,1.6-17.8,1.7c-13.7,0.3-27.4,0.3-41.2,0.4
						C716.2-8.7,715.5-9.2,714.4-9.6z"/>
					<path class="st1" d="M786.9,12.6c-0.1,0.6,0,1.7-0.3,1.8c-4.2,2.2-15.8,2.5-26.5,0.8c1.2-1.1,2-2,3-2.7c0.5-0.4,1.3-0.4,2-0.5
						c6.7-0.2,13.4-0.3,20-0.4C785.7,11.7,786.3,12.3,786.9,12.6z"/>
				</g>
			</g>
			<path class="st6" d="M809.2,33.8l-65.9,9.6C790.3,47.1,809.2,33.8,809.2,33.8z"/>
			<path class="st6" d="M800.8,49.1c-45,1.6-53,5.6-49,5.6C793.9,56.3,800.8,49.1,800.8,49.1z"/>
			<path class="st6" d="M701.5,6.9c21.7,16.9,28.1,25.3,25.3,24.1C709.1,19,701.5,6.9,701.5,6.9z"/>
		</g>
		<polygon class="st1" points="660.5,19.8 711.6,68 646.9,87.3 604.3,26.2 		"/>
		<g>
			<path class="st6" d="M632.8,60.4c0.9-0.8,1.7-2,2.8-2.4c14.7-6.2,29.9-9.7,45.6-11.8c0.9-0.1,2,0.3,2.8,0.8
				c0.5,0.3,0.8,1.1,0.8,1.7c0,0.6-0.3,1.4-0.7,1.8c-0.4,0.5-1.2,0.8-1.8,0.8c-15.4,1.1-30.2,5.1-44.8,10.5
				c-1.2,0.4-2.5,0.3-3.8,0.4C633.4,61.6,633.1,61,632.8,60.4z"/>
			<path class="st6" d="M659.5,27.8c-9.3,1.9-18.4,5.3-28.1,5.3c-4.9,0-9.8,1.3-14.8,1.8c-0.4,0-1.2-1.4-1.4-2.2
				c-0.1-0.4,0.4-1.4,0.9-1.7c1.2-0.6,2.5-1,3.8-1.2c5.6-1,11.2-1.8,16.7-2.8c6.5-1.2,13.1-2.5,19.6-3.7
				C658.7,22.8,659.2,23.5,659.5,27.8z"/>
			<path class="st6" d="M674.7,38.2c-1.7,0.8-3.4,2-5.2,2.2c-12.9,1.8-25.9,3.5-38.8,5.1c-1,0.1-2,0.1-3-0.1c-0.5-0.1-1-0.9-1.1-1.4
				c-0.1-0.6,0.3-1.7,0.6-1.8c2.8-0.9,5.7-2,8.6-2.4c11.3-1.6,22.5-3,33.8-4.4c1.5-0.2,3.1,0.4,4.6,0.6
				C674.4,36.7,674.5,37.5,674.7,38.2z"/>
			<path class="st6" d="M659.3,65.2c5.8-4.2,12.7-5.2,19.5-6.9c1.7-0.4,3.7,0.1,7.1,0.3c-2.1,1.9-2.9,3.1-3.9,3.4
				c-6.7,2.1-13.5,4.1-20.2,6C660.1,68.4,659.3,67.3,659.3,65.2z"/>
		</g>
		<rect x="588.6" y="-196.8" class="st4" width="32.9" height="340"/>
		<g>
			<polygon class="st1" points="-125.9,331.5 -61.6,371.1 -65.9,465.4 -107.7,471.8 -124.8,451.5 			"/>
			<polygon class="st6" points="-117,338 -73.2,369.8 -112.2,373.8 -129.5,353.3 			"/>
			<polygon class="st2" points="-73.9,384 -74.5,395.2 -101.2,401.1 -103.4,387.7 			"/>
			<polygon class="st2" points="-72.8,416.7 -100.7,424.7 -100.2,417.2 -73.4,411.8 			"/>
			<polygon class="st2" points="-72.8,440.8 -73.4,458.5 -106.6,459 -106.1,445.6 			"/>
			<polygon class="st7" points="-117.9,343.3 -90.5,365.8 -116.8,351.3 			"/>
			<path class="st7" d="M-105.5,362.5l-17.7-9.1c0,0,10.7,11.3,12.9,12.9C-108.2,367.9-105.5,362.5-105.5,362.5z"/>
		</g>
		<rect x="-144.6" y="163.2" class="st4" width="32.9" height="335.1"/>
		<g>
			<path class="st6" d="M-5.9,459.7c-5.1-1.7-9.7-5.2-13.5-9.8c-8-9.7-16-19.4-23.9-29.2c-1.1-1.3-2.5-3.5-2.2-4.7
				c1.5-5.1-1.9-9.4-2.1-14.9c2.6-0.9,5-2.4,7.5-2.4c18.1,0.1,35.9-2.6,53.7-4.9c2.2-0.3,4.5-0.8,6.7-0.5c2.1,0.3,4.6,1,6,2.4
				c10.4,10,26.5,22.7,36.7,32.8c5.2,5.2-1,9.8,0.5,16.3c0.3,1.3-2.1,4.3-3.8,4.7c-5.6,1.6-11.4,2.5-17.2,3.4
				C27,455.1,11.5,457.2-5.9,459.7z"/>
			<path class="st1" d="M-12.8,421c14.2-0.9,25.2-9.1,38.6-5.6c-0.8,1.2-1.2,2.8-2,3c-8.1,2.1-16.3,4.2-24.5,5.9
				C-4,425-7.6,425.7-12.8,421z"/>
			<path class="st1" d="M-16.4,411c11.4-5.9,21.2-7.6,30.6-5c-7.4,3.7-24.7,8.1-29.7,7.2C-15.9,413.1-16.1,411.8-16.4,411z"/>
			<path class="st1" d="M4.6,429.3c8-4.2,15.6-4.5,23.3-4.1c-6.6,4.6-13.3,6.6-20.8,7C6.6,432.3,6,431.1,4.6,429.3z"/>
			<path class="st7" d="M-47.6,401l37.9,39L64,429.6c0,0,2,21.3,0,21.3c-2,0-73.7,10.9-73.7,10.9l-41.1-44.5L-47.6,401z"/>
			<path class="st6" d="M-0.6,452.8c15-1.5,28.5-4.6,42.2-5.6c4-0.3,7.9-1.3,11.9-2.2c1.2-0.3,2.2-1.3,3.2-1.9
				c0.5-4-0.7-6.8-4.9-6.2c-9.3,1.4-18.6,2.8-27.8,4.8c-7.4,1.6-14.7,4-21.9,6.3C1.2,448.3,0.8,450.1-0.6,452.8z"/>
			<path class="st6" d="M-13.3,447.3c3.7-6,3.9-6.4-0.2-9c-5.2-3.3-11-6-16-9.5c-4.8-3.4-8.9-7.4-13.6-11.5
				c-2.1,3.6,0.9,5.3,2.5,7.2C-33,433-19.8,444-13.3,447.3z"/>
		</g>
		<polygon class="st6" points="104.8,359.3 171.5,454.2 256.7,431.7 202,355.3 		"/>
		<polygon class="st6" points="222.9,359.3 265.5,440.5 347.5,427.6 299.3,348.9 		"/>
		<g>
			<path class="st1" d="M214.8,383.6c-0.9,2.2-1.1,4.1-1.7,4.3c-4,1.2-8.1,2.1-12.2,2.9c-11.7,2.2-23.5,4.2-35.1,6.5
				c-7.9,1.6-15.6,3.8-23.5,5.6c-1.5,0.4-3.5,0.9-4.2-1.4c0.4-0.6,0.6-1.5,1-1.7C159.7,393.3,188.3,387.1,214.8,383.6z"/>
			<path class="st1" d="M257.2,367.9c10.8-11.2,10.8-8.4,21.9-3.8c1.5-1.5,3.1-3.3,4.7-5c3.8-4,5.2-3.6,9,2.3
				c-1.7,2.8-3.7-0.4-6.1,0.4c-1.8,2.3-3.8,5-5.6,7.3c-3.9,0.9-5.8-1.7-8.2-2.9c-4.5-2.2-6.9-1.7-10.1,2.1c-1.3,1.6-2.4,3.4-4,5.7
				c-2.8-1.3-5.5-2.6-8.6-4.1c-0.2,0.9-0.4,1.7-0.7,2.4c-1.3,3.5-3.7,4.7-7.4,3.7c-1.6-4-0.4-7.2,2.8-9.3
				C248.9,364.1,253,364.7,257.2,367.9z"/>
			<path class="st1" d="M245.4,389.9c7.5-8.8,15.4-9.6,24.6-5.8c5.5-6.3,13.9-6.2,20.7-9.8c1.1-0.6,3-0.7,4.1-0.2
				c3.9,1.7,7.4,1.6,11-0.7c0.4-0.2,2,0.8,2.3,1.5c0.2,0.7-0.2,2.1-0.9,2.7c-2.8,2.3-6.1,3.7-9.7,2c-2.8-1.3-5.4-1.1-8.1,0.3
				c-5.2,2.8-11.5,3.1-16.1,7.5c-1.2,1.1-4.4,1.5-5.8,0.7c-6.1-3.6-11.4-1.8-17,1.1C249.4,389.8,247.9,389.6,245.4,389.9z"/>
			<path class="st1" d="M282.5,397.8c6.4-7.4,14-8.1,21.9-7.6c2.1,0.1,4.2,0.3,6.3,0.4c1.7,0.1,3.3,0,6,0c-0.9,1.8-1.3,3.4-2.1,3.7
				c-1.5,0.6-3.4,0.6-5.1,0.6c-3.5,0-7-0.1-10.5-0.1c-3.6,0-7,0.8-9.8,3.2c-3.7,3.2-7.8,4.6-12.6,2.4c-4-1.9-7.5,0.5-11.1,1.6
				c-3.5,1.1-6.5,4-10.8,4.1c1.9-4.7,3.5-5.6,11.8-9C271.9,394.9,276.8,395.2,282.5,397.8z"/>
			<path class="st1" d="M306.4,415.7c12.6-6.2,12.6-6.2,19.4-1.5c-0.2,1.8-1.6,2.1-3,2c-3.1-0.4-6.3-1.1-9,1.3
				c-4.7,4.2-9.5,3.6-14.5,0.5c-0.6-0.4-1.3-0.5-1.4-0.5c-5.8,0.9-11,1.5-16.1,2.6c-3.9,0.9-7.8,2.4-11.6,3.6
				c-1.5-1.5-0.5-2.7,0.4-3.7c2.9-2.9,6.5-3.9,10.5-4.4c3.1-0.4,6.4-0.5,9.3-1.7c5.1-2.1,9.5-1.7,13.9,1.3
				C304.9,415.6,305.7,415.6,306.4,415.7z"/>
			<path class="st1" d="M173.9,428.1c1.1-1.4,1.7-2.8,2.8-3.2c3.9-1.5,7.8-3.3,11.9-3.9c10.3-1.7,20.7-3.2,30.7-6.2
				c1-0.3,2.2-0.4,3.1-0.1c0.8,0.3,1.5,1.2,1.9,2.1c0.2,0.4-0.3,1.5-0.7,1.7c-1.5,0.7-3.2,1.4-4.8,1.7c-13.6,2.9-27.3,5.7-41,8.5
				C176.7,428.8,175.7,428.4,173.9,428.1z"/>
			<path class="st1" d="M179.6,379.1c-15.5,4.4-30,6.9-44.7,8.4c-1.3,0.1-2.7,0-4.1-0.3c-0.4-0.1-0.7-1-0.9-1.7
				c-0.1-0.2,0.1-0.7,0.4-0.8c0.9-0.5,1.8-1.2,2.8-1.4c13.5-2.6,26.9-5.1,40.4-7.6c1.3-0.2,2.8-0.3,4.1,0.1
				C178.2,376,178.5,377.3,179.6,379.1z"/>
			<path class="st1" d="M204.4,402c-1.7,1.7-2.4,3.1-3.5,3.4c-5.1,1.4-10.2,2.6-15.4,3.8c-9.3,2.1-18.5,4.2-27.8,6.2
				c-1.8,0.4-3.5,0.1-4.1-2.9c14.7-5.6,30.5-7.3,45.7-11.1C200.5,401.1,201.9,401.7,204.4,402z"/>
		</g>
		<rect x="78.2" y="160" class="st4" width="32.9" height="335.1"/>
		<g>
			<path class="st1" d="M567.6,347.9c-2.6,19.4-4.9,38.2-7.7,56.9c-0.8,5.5-2.9,10.9-4.8,16.1c-2.3,6.5-7,10.4-14,11.1
				c-10.8,1.1-21.6,2.6-32.5,3.1c-12.6,0.6-25.3,0.2-37.9,0.7c-10.6,0.4-18.7-3.3-25.5-11.4c-7-8.3-15.1-15.7-22.4-23.8
				c-5.5-6-10.5-12.3-15.7-18.5c-5.5-6.5-7.8-13.9-7.2-22.5c0.8-10.9,1.2-21.7,3.8-32.4c0.8-3.3,0.8-7,0.7-10.5
				c-0.1-6.6,0.1-7,6.9-7.1c6-0.1,11.9-0.3,17.9-0.4c13.4-0.2,26.6-2.6,39.7-4.8c14.4-2.5,27.7-0.6,40.5,7
				c14.2,8.4,28.9,16,41.8,26.5c1.6,1.3,3.4,2.6,4.9,4C560.9,346.4,560.9,346.4,567.6,347.9z M420.6,315.8c-0.2,0.7-0.4,1.3-0.6,2
				c3,2.3,6,4.7,9.1,7c11.7,8.4,24.2,15.6,34.7,25.6c2.2,2.1,4.7,2.9,7.7,2.6c6.7-0.5,13.3-0.8,20-1.3c16.5-1.1,32.9-2.2,49.4-3.4
				c2.9-0.2,6.2,0.5,9.8-1.6c-1.9-1.9-3.2-3.4-4.7-4.6c-12.6-10.3-27.1-17.5-41-25.6c-11.2-6.5-22.9-8.5-35.4-6.3
				c-0.3,0.1-0.7,0.1-1,0.2c-11.1,1.5-22.1,3.8-33.5,3.8C430.1,314.2,425.4,315.2,420.6,315.8z"/>
			<path class="st1" d="M518.6,337.3c1.7,0.5,2.1,0.5,2.3,0.7c0.5,0.4,1.3,1.1,1.2,1.5c-0.2,0.9-0.8,2.4-1.4,2.5
				c-6.6,0.7-13.2,1.3-19.9,1.8c-8.7,0.7-17.4,1.5-26.1,1.6c-2.6,0-6.3,2.6-8.1-1.7c1.7-3,4.7-2.3,7.4-2.6
				c11.1-1.2,22.2-2.5,33.4-3.6C511.5,337.1,515.7,337.3,518.6,337.3z"/>
			<path class="st1" d="M451.8,331c1-1.7,1.2-2.9,1.9-3.2c2.2-0.9,4.6-1.8,7-2c13.9-1.4,27.9-2.5,41.8-3.7c0.7-0.1,1.4,0.1,2,0.4
				c0.5,0.3,1.1,0.9,1.2,1.5c0.1,0.6-0.1,1.7-0.5,1.9c-1.5,0.7-3.1,1.6-4.7,1.7c-11.8,1-23.7,1.8-35.5,2.6
				C460.8,330.4,456.7,330.7,451.8,331z"/>
			<path class="st1" d="M491.8,316.6c-1.5,0.6-3,1.6-4.4,1.7c-13.9,0.2-27.7,2-41.6,2.3c-0.6,0-1.2-0.5-2.6-1c1.2-1,2-2.2,2.9-2.4
				c13.8-1.9,27.5-4.6,41.5-3.5c1.3,0.1,2.6,0.5,3.9,0.8C491.6,315.2,491.7,315.9,491.8,316.6z"/>
		</g>
		<g>
			<path class="st2" d="M501.4,384.7c-3.4-1.8-6.1-1.5-8.8-0.3c-2.7,1.3-4.5,3.4-5.4,6.2c-0.9,2.6-1.5,5.4-2,8.1
				c-0.4,2.3-0.3,4.7-0.4,6.7c-2.5,1.2-3.4-0.2-3.6-1.4c-1-6.4,0.1-12.5,3.1-18.4c2.5-4.9,6.7-7.3,11.8-7.3c4.5,0,8.9,0.4,13.4-0.9
				c2.8-0.8,6.2,0.6,9.3,0.9c1.7,0.1,4.4,0.7,5.1-0.1c4.6-5.6,8.2-2.7,12.4,0.4c2.2,1.6,5.2,1.9,7.7,3.1c2,1,3.2,2.7,1.9,5.5
				c-2.8-0.6-5.7-1.2-8.7-1.9c-0.9,3.1-1.3,5.9-2.5,8.4c-0.8,1.8-2.2,3.6-3.9,4.8c-1.3,0.9-3.6,1.4-4.8,0.8
				c-1.2-0.6-2.3-2.7-2.4-4.2c-0.1-3.1,0.5-6.2,0.8-9.7c-4.6-2.4-9.1-3.4-14.8-2.1c0.5,3.2,1.3,6.2,1.2,9.2
				c-0.1,4.1,0.3,8.8-4.4,10.9c-2.5,1.1-5-3.4-5.3-10C501.1,390.8,501.4,388,501.4,384.7z"/>
			<path class="st2" d="M530.1,389c-0.5,1.4-0.9,2.3-1.2,3.2c-0.1,0.2,0.3,0.6,0.5,0.9c0.5-0.7,1.2-1.4,1.6-2.2
				C531.2,390.5,530.6,389.9,530.1,389z"/>
		</g>
		<polygon class="st2" points="398.7,316.6 460.8,365.8 582.4,352.6 585.6,334.3 494,287.5 394.9,299.4 		"/>
		<polygon class="st5" points="292.8,341.6 414.2,452.6 414.2,190.6 294,192.6 		"/>
		<polygon class="st3" points="577.6,336.8 463.5,345.4 430.3,315.9 429.2,339.5 462.4,362.5 578.7,348.6 		"/>
		<rect x="411.3" y="165.6" class="st4" width="36.7" height="335.1"/>
		<g>
			<polygon class="st7" points="654.8,314.3 659,372.7 730.3,420.9 817.6,401.1 812.3,349.1 735.7,298.2 			"/>
			<polygon class="st6" points="654.8,314.3 726.6,370.6 812.3,349.1 735.1,296.1 			"/>
			<path class="st6" d="M664.6,360.6c1.6,0.4,3.2,0.7,4.6,1.4c9.9,4.7,20.1,8.7,29.2,15.1c6.2,4.4,13.2,7.4,19.8,11.2
				c1.7,1,3.5,2.1,2.2,5c-1.6-0.5-3.3-0.7-4.7-1.5c-9.3-5.2-18.6-10.4-27.6-16.3c-6.5-4.3-13.8-7.4-20.8-11.1
				c-1.2-0.6-2.3-1.5-3.4-2.2C664.2,361.6,664.4,361.1,664.6,360.6z"/>
			<path class="st1" d="M715.9,310.5c5.4-4.6,10.5-10.1,18.3-5.7c1.6-1.5,2.8-2.7,4.5-4.4c-0.4,5.5-0.5,5.5-3.7,8.7
				c-0.7-0.2-1.6-0.1-2.3-0.5c-4.3-2.8-8.3-1.9-11.2,1.7c-2.9,3.6-6,4.6-10.3,3.2c-1.5-0.5-3.3-0.4-4.6-0.6
				c-0.8,0.6-1.4,0.8-1.8,1.2c-3.7,5-8.2,7.2-14.6,5.2c-3-1-3.8-0.1-5.6,3.5c-0.4,0.7-0.7,1.4-1.4,2.7c-1.9-3.2-0.9-5.6,0.7-7.8
				c1.3-1.8,3.2-2.1,5.3-2c0.6,0,1.2,0,1.7,0.2c5,2,8.7,0.3,11.6-3.9c1.8-2.7,4.4-3.1,7.4-2.3C711.9,310,713.8,310.2,715.9,310.5z"
				/>
			<path class="st1" d="M746.8,313.8c-4.5,2.9-8.6,5.3-12.5,7.9c-2.8,1.8-5.8,2.1-8.9,1.1c-3.5-1.2-5.8,0.2-8.1,2.7
				c-6.2,7-6.8,6.9-12.4-0.3c-0.2-0.2-0.5-0.3-1-0.6c-3.3,1.4-5.1,4.8-7.8,7.2c-1.8-0.9-1.4-2.3-0.7-3.4c2.1-3.4,4.6-5.3,10.1-7.9
				c1.6,1.9,3.4,4,5.1,6c3-0.4,4-3,5.6-4.8c2.5-2.7,5.4-4.1,9-2.7c4,1.6,7,0.1,10.1-2.1c2.7-1.9,5.8-3.3,8.9-4.6
				C744.8,312,745.8,313.2,746.8,313.8z"/>
			<path class="st6" d="M751.4,393.4c0.9-1,1.5-2.4,2.5-2.9c5.5-2.8,10.9-5.8,16.7-7.9c9.5-3.4,19.2-6.2,28.8-9.2
				c0.6-0.2,1.5,0.4,2.2,0.6c-0.3,1-0.4,2.5-1,2.8c-4.7,1.9-9.3,3.9-14.2,5.1c-11,2.6-21.5,6.3-31.4,11.7c-0.7,0.4-1.5,0.4-2.3,0.6
				C752.4,394.2,752.1,393.9,751.4,393.4z"/>
			<path class="st1" d="M714.8,354.3c3.3-2.6,6.6-5.1,9.9-7.7c3.7-2.9,7.7-4.5,12.5-2.6c4.2,1.7,7.6,0.1,10.6-2.9
				c1.2-1.2,2.3-2.5,3.6-3.5c1.1-0.8,2.4-1.8,3.6-1.9c3.8-0.3,7.6-0.3,12.8-0.4c-1.7,1.6-2.4,2.9-3.1,2.8
				c-7.4-0.2-13.2,2.8-18.4,8.1c-2.4,2.5-6.3,2.4-9.6,1.1c-4.3-1.7-7.6-0.3-10.9,2.3c-2.6,2.1-5.4,4.1-8.1,5.9
				c-0.7,0.4-1.8,0.2-2.7,0.3C715,355.4,714.9,354.9,714.8,354.3z"/>
			<path class="st6" d="M755.5,407.4c2.1-4.1,5.5-5.4,8.9-6.4c9.9-3,19.8-6.1,29.8-9.1c2.3-0.7,4.6-1.9,7.8-0.3
				c-1.3,1.1-2.1,2.4-3.2,2.7c-10.7,3.2-21,7.9-32.2,9.9c-2.5,0.4-4.8,1.5-7.2,2.2C758.1,406.9,756.8,407.1,755.5,407.4z"/>
			<path class="st1" d="M722.1,336.6c-1.7,1.9-3.2,3.9-5.1,5.5c-1.2,1.1-2.8,1.9-4.3,2.4c-1,0.3-2.3,0.1-2.6-2
				c4.5-1.4,7.1-5.5,10.3-8.8c1.5-1.6,3.2-2.3,5.1-0.8c2.3,1.7,4.2,0.8,6-0.7c0.6-0.5,1.2-1.1,1.7-1.8c3-4.1,6.9-6.1,12.2-6
				c2.9,0.1,5.8-1.2,8.7-1.8c1.3,1.3,0.4,2.1-0.3,2.8c-2.4,2.1-5.3,3.1-8.5,2.8c-4.3-0.4-7.6,1.4-10.2,4.7c-0.7,0.9-1.5,1.7-2.3,2.5
				c-2.4,2.3-5,3.5-8.3,1.9C723.9,336.9,723.1,336.8,722.1,336.6z"/>
			<path class="st1" d="M731,360c3.1-1.7,5.7-4.2,9.2-5.3c5.5-1.7,10.6-5.2,17.4-3.2c-0.9,0.9-1.6,2.2-2.5,2.4
				c-3.8,0.7-7.7,0.8-11,3.7c-1.5,1.3-4.1,1-6.2,1.7c-2,0.7-4,1.6-6,2.4C731.6,361.1,731.3,360.5,731,360z"/>
		</g>
		<rect x="632.5" y="165.6" class="st4" width="32.9" height="335.1"/>
		<g>
			<g>
				<path class="st1" d="M733.8,230.7c4.2-3.2,8-4.9,12.2-5.3c11.5-1.1,22.9-2.2,34.4-3.2c7.4-0.7,13.7,1.9,19.2,6.9
					c6.4,5.8,13.2,11.2,19.9,16.5c2.2,1.7,3.6,3.5,4,6.2c0.4,2.9,0.9,5.7,0.9,8.6c0.2,26.2,0.2,52.4,0.3,78.7c0,1.9,0,3.8-0.1,5.8
					c-0.1,2.9-1.7,4.8-4.4,5.6c-2.4,0.8-4.9,1.6-7.4,1.8c-14,0.9-28,2.8-42.1,1.2c-5.9-0.7-11-2-15.4-6.5
					c-7.5-7.9-15.4-15.4-23.1-23.1c-2.5-2.5-4.7-5.2-6.9-7.7c1.9-14.6,4.2-28.8,5.6-43.1C732.3,259,732.9,244.9,733.8,230.7z
					 M812.2,249.1c-4.1-5-16.3-16.1-20.9-18.7c-1.8-1.1-4-1.6-6-2.4c-1.4,1.9-2.4,3.4-3.6,5c-10.3,0.2-20,6.9-31.1,3.3
					c0.6-1.3,0.8-2.6,1.4-2.8c2.1-0.6,4.3-0.9,6.5-1.2c4.9-0.8,10-0.7,15.7-4.4c-10.9,0.7-20.3,1.9-29.7,3.1c-1.1,0.2-2.2,1-3.5,1.6
					c4.1,12.2,14.9,15.2,24.6,19.5c0.3,0.1,0.6,0.1,0.9,0c7.6-2.1,15.2,0.2,22.8-0.3C796.9,251.4,804.5,250.9,812.2,249.1z"/>
				<path class="st1" d="M802.5,244.6c-4.2,4.4-8.6,2.3-12.4,3c-3.7,0.7-7.6,0.8-11.3,1.1c-1.3-1.6-1.1-3.1,0.7-3.9
					C785.1,242.5,795.1,242.4,802.5,244.6z"/>
				<path class="st1" d="M771,242.3c-0.7-0.7-1.5-1.2-1.5-1.5c0.2-0.8,0.6-2.1,1.2-2.2c2.7-0.8,5.5-1.8,8.3-1.9
					c3.4-0.2,7.2-3.4,10.3,0.8c-2.2,3.6-6,2.7-9.2,3.4C777.1,241.5,773.9,241.8,771,242.3z"/>
			</g>
			<g>
				<path class="st6" d="M793.9,289.6c-1.1-3.9-2.5-6.6-5.7-8.1c-3.6,1.6-3,7.1-7.4,8c-0.7-5.8,0-8.7,2.6-11.4
					c2.4-2.4,5.9-2.6,8.6-0.1c1.2,1.1,2,2.4,3,3.7c0.9,1.2,1.8,2.5,2.7,3.9c2.8-0.5,5.2-1.1,7.7-1.4c3.8-0.4,5.9,1.3,6.4,5.3
					c0.2,1.2,0,2.5-0.3,3.8c-0.3,1.4-1.2,2.2-2.7,1.9c-1.6-0.3-1.8-1.5-1.6-2.9c0.2-0.9,0.3-1.8,0.5-2.7c-5.2-0.9-8.1,0.1-9.4,3.7
					c-0.8,2.1-0.9,4.4-1.6,6.5c-0.6,1.8-1.4,3.6-2.6,5c-0.7,0.8-2.4,1.5-3.3,1.2c-0.9-0.3-2-1.9-1.9-2.8c0.1-2.5,0.6-5,1.4-7.4
					C791.1,293.7,792.6,291.9,793.9,289.6z"/>
				<path class="st6" d="M800,319.8c-0.9-0.1-1.9-0.1-2.8-0.3c-3.5-0.8-4.8-2.5-4.2-5.7c0.2-1.1,1.1-2.7,1.9-3
					c1.3-0.4,3.3-0.2,4.3,0.5C802.2,313.7,802.2,316.7,800,319.8z"/>
			</g>
		</g>
		<polygon class="st2" points="728.3,244.1 768,269.5 834.8,263.1 837.3,245 784.4,214.3 725,227.6 		"/>
		<polyline class="st3" points="729,228.7 772.8,253.8 828.3,246.4 826.8,260.4 769.8,266.7 730.7,240.9 		"/>
		<g>
			<path class="st6" d="M698.5,507.4c-0.8,5.1,2,9.4-0.8,13.6c-4.5-0.9-8.2-3.5-12-5.7c-4.3-2.5-8.5-3.3-13.4-1.9
				c-4.8,1.3-9.8,1.6-14.8,2c-1.9,0.2-3.9-0.2-5.7-0.8c-9.2-2.9-13.1-8.1-13.4-18.2c-0.4-11.6,1.5-22.9,4.8-34
				c4.8-3.2,10.2-4.5,15.6-5.6c15.8-3.1,31.8-4.7,47.9-4.4c0.8,0,1.7,0.1,2.5,0.2c3.2,0.2,5.2,2,5.6,5.2c0.6,4.8,1.2,9.7,1.3,14.6
				c0.1,6-0.1,12.1-0.3,18.1c-0.3,7-3.3,12-10.1,14.1C703.3,505.3,701,506.4,698.5,507.4z"/>
			<g>
				<path class="st1" d="M696.6,504.8c-0.7,4.5,1.9,8.4-0.7,12.2c-4.2-0.8-7.6-3.2-11.2-5.1c-4-2.3-7.9-2.9-12.5-1.7
					c-4.4,1.2-9.1,1.4-13.7,1.8c-1.7,0.1-3.6-0.2-5.3-0.7c-8.5-2.6-12.2-7.3-12.5-16.4c-0.4-10.4,1.4-20.5,4.4-30.5
					c4.5-2.9,9.5-4,14.5-4.9c14.7-2.8,29.6-4.2,44.6-3.8c0.8,0,1.5,0.1,2.3,0.2c3,0.2,4.8,1.8,5.2,4.7c0.6,4.3,1.1,8.7,1.2,13.1
					c0.2,5.4,0,10.8-0.3,16.2c-0.3,6.3-3.1,10.7-9.4,12.6C701.1,502.9,699,503.9,696.6,504.8z M707.7,459.8
					c-3.7,0.2-6.5,0.4-9.4,0.4c-11.8,0.1-23.6,1.1-35.3,2.9c-3.5,0.5-7,1.4-10.6,2.2c-2.4,0.5-4.2,2.1-5.1,4.3
					c-3.5,8.5-4.4,17.5-3,26.5c1,6.5,5.4,10.2,12.1,11c1.3,0.2,2.6,0.3,3.8,0.1c3.8-0.4,7.9-0.3,11.4-1.5c5.7-2,10.5-1.1,15.2,2.2
					c0.6,0.4,1.3,0.8,2,1.1c1.2,0.5,2.4,1.1,3.5-0.3c0-2.4,0-4.9-0.1-7.7c3.4-1.1,6.5-2.3,9.7-3.2c5.2-1.5,7.6-5,7.5-10.3
					c-0.2-7.5-0.3-14.9-0.6-22.4C709,463.5,708.3,461.8,707.7,459.8z"/>
				<path class="st1" d="M656.7,484.2c0.1-3.9,2.3-7,6.5-8.7c3.3-1.3,5.9,0,7,3.5c1.9,5.8-1,11-6.7,12.2
					C658.7,492.1,656.3,489.9,656.7,484.2z"/>
				<path class="st1" d="M681.5,474.9c0.5,0.3,1.3,0.5,1.9,1c2.8,2.4,3.5,6.5,1.8,9.8c-0.9,1.8-2.5,2.6-4.4,2.5
					c-3.4-0.2-6.3-2.8-6.3-5.6c-0.1-3.8,1.9-6.6,5.3-7.4C680.3,474.9,680.8,474.9,681.5,474.9z"/>
				<path class="st1" d="M690.9,480.8c0.1-1.2,0.2-2,0.3-2.7c0.6-3.3,2.9-5.4,5.6-5.3c2.1,0.1,4.1,2.3,4.8,5.3
					c0.6,2.7-0.4,5.1-1.9,7.2c-1,1.4-2.7,1.3-4.2,1.1c-1.9-0.2-3.4-1.1-4.1-3C691.1,482.4,691,481.3,690.9,480.8z"/>
			</g>
		</g>
		<polygon class="st6" points="294.7,746.6 338.6,814.8 416.3,784.6 369.2,718.3 		"/>
		<polygon class="st6" points="387.9,737.6 423.8,796.5 469.4,779.9 424.4,709.7 		"/>
		<path class="st1" d="M323.3,786.8c0.6-1.1,1-2.6,1.9-3.2c2.3-1.5,4.8-2.8,7.5-3.8c20.2-7.2,40.9-12.4,61.9-16.7
			c0.9-0.2,2.1,0,3,0.4c0.5,0.2,1,1,1.1,1.6c0.1,0.6-0.1,1.6-0.5,1.8c-1.5,0.8-3.1,1.5-4.8,1.9c-8.9,2-17.9,3.6-26.7,5.8
			C352.3,778.2,338.2,782.2,323.3,786.8z"/>
		<path class="st1" d="M365,745.3c-4.4,0.7-9.2,1.6-14,2.3c-8.7,1.3-17.3,3.1-25.5,6.3c-4.3,1.6-8.7,2.8-13.1,3.9
			c-1.5,0.4-3.2-0.1-6-0.2c1.3-2,1.7-3.7,2.6-4c17.7-5.5,35.3-11.9,54.1-13.2C365.9,740.3,366.6,742.2,365,745.3z"/>
		<path class="st1" d="M321.1,768.1c0.4-1,0.6-2,1-2.2c5.9-2.5,53.9-14,60.9-14.5c-0.3,1.4-0.4,2.6-0.9,3.7
			c-0.2,0.5-1.2,0.7-1.9,0.8c-16,4.1-32,8.2-48.1,12.2C328.5,768.9,324.8,769.9,321.1,768.1z"/>
		<path class="st1" d="M417,781.1c0.5-2.6,0.4-4,1-4.4c2.3-1.6,4.6-3.4,7.2-4.3c8.6-2.8,17.4-5.3,26.1-7.8c0.9-0.3,2.1-0.1,3.1,0.2
			c0.5,0.1,1.4,0.9,1.3,1.3c-0.1,0.9-0.7,1.8-1.2,2.6c-0.1,0.2-0.6,0.3-1,0.3C441.4,771.4,429.7,774.7,417,781.1z"/>
		<path class="st1" d="M351.7,794.7c3.4-2.3,4.5-3.5,5.7-3.8c8.4-2.2,16.8-4.4,25.3-6.3c1.9-0.4,4.3-0.2,4.9,3.1
			c-2.3,0.6-4.6,1.1-6.9,1.8c-7.7,2.1-15.4,4.2-23.2,6.2C356.5,795.9,355.2,795.3,351.7,794.7z"/>
		<polygon class="st6" points="352,646 345.6,721.5 286.7,712.4 276,650.3 		"/>
		<path class="st1" d="M651.6,679.3c0,8.4,0.4,16.9-0.1,25.2c-0.5,8-5,13.5-12.8,16.2c-9.3,3.2-18.7,6.2-27.9,9.7
			c-5.6,2.1-11.3,4.3-16.2,7.6c-7,4.6-13.3,3.6-19.6-0.5c-6.2-4-12.1-8.4-18.2-12.6c-8.1-5.5-16.3-10.9-24.4-16.6
			c-7.6-5.3-12.1-12.5-13.6-21.7c-1.4-8.3-3.1-16.6-4.8-24.8c-0.8-3.8-1.8-7.5-2.9-11.2c-1.9-6.5-1.4-8,4.3-10.8
			c2.2-1.1,4.4-2.3,6.7-3.2c10.6-3.8,20.5-9.3,30.4-14.6c9.2-5,19.3-6.4,29.4-7.8c3.6-0.5,7.6,0.9,11.3,2c4,1.2,7.9,2.9,11.7,4.8
			c11.6,5.8,23.1,12,34.8,17.7c8.3,4,11.8,10.6,11.8,19.5c0,7,0,14.1,0,21.1C651.5,679.3,651.6,679.3,651.6,679.3z M518.2,646.3
			c7.7,3.5,15.3,7,22.9,10.6c6,2.8,12,5.8,18.1,8.6c5.4,2.5,11,4.6,16.4,7.2c3.7,1.8,7.2,2.3,11.2,0.9c5.3-1.8,10.6-4,16.1-4.9
			c13.7-2.3,26.3-7.6,39.1-12.6c1.5-0.6,2.7-1.8,3.9-2.5c-1.2-5-4.8-6.7-8.2-8.5c-11.2-5.9-22.4-11.8-33.7-17.5
			c-3.8-1.9-7.7-3.5-11.7-4.7c-3.7-1.1-7.7-2.4-11.3-1.9c-9.7,1.3-19.4,2.9-28.4,7.6c-8.7,4.5-17.8,8.3-26.7,12.5
			C523.1,642.2,519.6,642.6,518.2,646.3z"/>
		<g>
			<path class="st1" d="M343.9,681.8c-0.1,0.7-0.1,1.1-0.2,1.4c-0.1,0.3-0.3,0.6-0.6,0.8c-0.6,0.4-1.2,0.9-1.8,1
				c-15.3,2.3-30.6,4.7-45.9,6.9c-0.9,0.1-2-0.3-4-0.7c1.5-1.4,2.2-2.6,3.2-2.9c4-1.2,8.1-2.5,12.2-3.2c9.7-1.6,19.5-2.9,29.3-4.3
				C338.8,680.4,341.5,680,343.9,681.8z"/>
			<path class="st1" d="M297.9,673.5c-0.6-0.3-1.5-0.7-2.4-1.2c-0.2-0.1-0.5-0.6-0.4-0.8c0.2-0.6,0.4-1.4,0.8-1.8
				c0.5-0.4,1.2-0.7,1.9-0.7c13.7-0.9,27.4-1.8,41.1-2.7c1-0.1,2.1,0.3,3,0.7c0.5,0.2,1,1,1.1,1.6c0.1,0.6-0.2,1.5-0.7,1.8
				c-0.8,0.6-1.9,1-2.9,1.1c-13,0.7-26,1.4-39,2.1C299.8,673.7,299.1,673.6,297.9,673.5z"/>
			<path class="st1" d="M282.2,659.1c3-1.4,4.1-2.2,5.3-2.4c11.8-1.7,23.5-0.2,35,0c1.2,3-0.2,3.8-2,4.2c-2.1,0.4-4.2,0.6-6.2,0.6
				c-9.1,0-18.1-0.2-27.2-0.4C286.1,661.1,285.2,660.3,282.2,659.1z"/>
			<path class="st1" d="M304.2,705.7c7.5-6.1,15.4-5.7,22.6-7.3c5.3-1.2,7.3-0.5,10.4,1.1c-0.4,2.3-2.5,2.3-4,2.4
				C324,702.4,315.2,706.1,304.2,705.7z"/>
		</g>
		<path class="st1" d="M408,752.4c0.8-4.8,3.8-4.8,5.9-5.4c6.6-1.9,13-5.1,20.1-4.7c0.5,0,0.9,0.9,1.3,1.5c0.3,2-1.5,2-2.7,2.3
			C424.6,747.7,417,751.6,408,752.4z"/>
		<path class="st1" d="M436.5,756.8c-6.8,4.2-13.8,4.9-19.6,7.7c-1.7-1.4-2.7-3-1.1-3.8c5.8-2.9,11.9-5.5,18.6-5.6
			C434.6,755.2,434.9,755.6,436.5,756.8z"/>
		<g>
			<path class="st3" d="M124,685.9c5.5-6,12.3-10.2,19.7-13.5c11-4.9,22-10,33-15c8.1-3.7,16.5-4.2,25.1-2.6
				c20.9,3.9,41,10.5,61,17.4c10.5,3.6,20,9.5,29.1,15.9c11,7.6,17.8,17.5,17.5,31.5c-0.1,2.5,0.4,5,0.4,7.5
				c0.4,15.6,0.4,15.6-12.8,25.8c0.3,5.9,0.8,12.3,1.1,18.8c0.7,16.5-1.3,19.2-16.7,23.7c-7.3,2.1-14.6,3.8-21.8,6.2
				c-8.6,2.9-17.3,5.6-25.4,9.6c-7.1,3.5-13.2,3.4-20-0.4c-6.6-3.6-13.7-6.5-20.7-9.3c-11.8-4.7-22.3-11.7-32.7-18.7
				c-6.5-4.4-11.1-9.8-12.2-18.2c-1.3-10-3.6-19.8-5.6-30.1c-0.3-0.4-0.7-1.5-1.5-1.9c-11.5-5.6-14.4-16.1-15.7-27.5
				C125.2,699.4,124.7,693.4,124,685.9z"/>
			<g>
				<path class="st1" d="M124,685.9c5.5-6,12.3-10.2,19.7-13.5c11-4.9,22-10,33-15c8.1-3.7,16.5-4.2,25.1-2.6
					c20.9,3.9,41,10.5,61,17.4c10.5,3.6,20,9.5,29.1,15.9c11,7.6,17.8,17.5,17.5,31.5c-0.1,2.5,0.4,5,0.4,7.5
					c0.4,15.6,0.4,15.6-12.8,25.8c0.3,5.9,0.8,12.3,1.1,18.8c0.7,16.5-1.3,19.2-16.7,23.7c-7.3,2.1-14.6,3.8-21.8,6.2
					c-8.6,2.9-17.3,5.6-25.4,9.6c-7.1,3.5-13.2,3.4-20-0.4c-6.6-3.6-13.7-6.5-20.7-9.3c-11.8-4.7-22.3-11.7-32.7-18.7
					c-6.5-4.4-11.1-9.8-12.2-18.2c-1.3-10-3.6-19.8-5.6-30.1c-0.3-0.4-0.7-1.5-1.5-1.9c-11.5-5.6-14.4-16.1-15.7-27.5
					C125.2,699.4,124.7,693.4,124,685.9z M138.3,684.7c7.5,2.8,13.2,4.7,18.7,7.1c20.9,8.7,41.7,17.4,62.4,26.4
					c8.2,3.6,16.1,5,24.8,2.4c14.9-4.5,30-8.4,45-12.7c2.1-0.6,3.9-2.3,6.6-3.9c-2.3-2.7-3.6-5.1-5.6-6.3
					c-8.1-5-16.1-10.4-24.7-14.3c-19.7-9-40.7-14.4-61.8-19.1c-5.3-1.2-11.1-2-16.4-1.3c-5.9,0.7-11.8,2.7-17.2,5.2
					C159.8,672.9,148.5,675.9,138.3,684.7z M133.1,693.2c-1.2,16.1,2.1,27.8,16.5,33.8c2.3,1,4.4,2.4,6.6,3.6
					c17.8,9.4,35.5,19,54.6,25.8c4.6,1.7,9,3.7,14.2,5.8c1-12.3,1.6-23.3-4.6-34.9c-25.1-10.5-51-21.4-77-32.2
					C140.7,694.1,137.6,694.1,133.1,693.2z M290.8,782.4c1.7-6.8,0.9-13.8-0.3-20.7c-0.7-4.2-4.6-6.7-8.9-5.9
					c-4.4,0.8-8.7,2.3-13.2,3c-13.8,2.1-25.7,11.2-40.2,11.4c-1.6,0-4.4,3.2-4.6,5c-1,9.9-1.1,19.8,1.3,29.8
					c6.9,0.4,11.2-3.5,16.3-5.3c5.7-2,11.3-4.1,17.1-5.8c5.3-1.6,10.7-2.8,16-4.3C280.1,788,286.3,787.4,290.8,782.4z M212.2,766.3
					c-9.2-3.7-19.1-7.4-28.7-11.7c-10-4.4-18.9-11-30.9-14.3c0.1,16.5,2.6,30,17.6,39.5c13.3,8.3,27.3,14.9,41.9,20.4
					c1.1,0.4,2.6-0.3,4.7-0.6C215.5,788.4,219.1,777.2,212.2,766.3z M234.3,758.8c2.9,0,4.5,0.3,5.9,0c16-4.2,32-8.5,48-12.9
					c3.4-0.9,6.6-2.4,9.9-3.7c3.1-1.2,5-3.5,5.3-6.7c0.7-7.5,0.7-14.9-3.5-22.4c-23,6.1-45.6,11.8-68.3,19.1
					c0.3,6.2,0.5,11.7,0.9,17.1C232.7,752.2,233.5,755.1,234.3,758.8z"/>
				<path class="st6" d="M263.7,773.3c-6.2,0.6-11.4,6.3-18.4,3.9C252.5,769.6,255.7,768.7,263.7,773.3z"/>
				<path class="st6" d="M258.5,740.8c1.8-9,6.9-11.3,20.8-10.2C273.2,736.5,265.2,735.9,258.5,740.8z"/>
			</g>
			<path class="st2" d="M138.3,684.7c7.5,2.8,13.2,4.7,18.7,7.1c20.9,8.7,41.7,17.4,62.4,26.4c8.2,3.6,16.1,5,24.8,2.4
				c14.9-4.5,30-8.4,45-12.7c2.1-0.6,3.9-2.3,6.6-3.9c-2.3-2.7-3.6-5.1-5.6-6.3c-8.1-5-16.1-10.4-24.7-14.3
				c-19.7-9-40.7-14.4-61.8-19.1c-5.3-1.2-11.1-2-16.4-1.3c-5.9,0.7-11.8,2.7-17.2,5.2C159.8,672.9,148.5,675.9,138.3,684.7z"/>
		</g>
		<polygon class="st2" points="499.4,650.3 587.2,694.7 658,664.2 657.4,628.3 567.4,602.6 499.9,628.8 		"/>
		<polygon class="st5" points="140.9,854.4 34.8,739.7 34.8,570.4 142,562.9 		"/>
		<rect x="142.5" y="544.2" class="st4" width="32.9" height="335.1"/>
		<g>
			<polygon class="st7" points="-128.2,736.2 -125.9,831.9 -23,861.9 104.8,814.2 96.5,740.2 			"/>
			<g>
				<path class="st6" d="M-128.2,736.2c2.9,2.6,4.5,4.8,6.7,5.9c6.1,3.2,12.1,6.6,18.6,8.7c17,5.4,31.1,15.3,44.4,26.7
					c4.8,4.1,9.7,8.2,15.1,11.4c9.3,5.5,19.3,7.7,30.3,4.8c14.9-3.9,29.4-8.6,43-15.7c19.2-10,38.1-20.5,57.1-30.9
					c3.1-1.7,5.8-4.2,9.4-6.9c-5.9-8.2-14.2-11.8-21.8-16.3c-6.3-3.8-12.8-7.3-19.1-11.2c-11.2-6.9-22.1-14.4-33.6-20.9
					c-23.1-13.2-27.2-13.3-51.9-2.9c-14.6,6.2-29,12.7-43.4,19.1c-13,5.8-26,11.5-38.9,17.6C-117.3,728.2-122.7,730.4-128.2,736.2z"
					/>
				<path class="st1" d="M-7.1,694.7c1.1,7.4-1.2,13.5-5.4,18.9c-2.5,3.2-6.2,3.9-10,3.2c-4.6-0.8-9.2-2.2-13.9-3
					c-4.2-0.8-7.3,1.5-7.9,5.6c-0.4,3.1-0.1,6.4-0.8,9.4c-0.5,2.4-2.1,4.5-3,6.2c-5.8,1.3-8.6-2.6-12.2-4.5
					c-4.3-2.3-8.1-1.3-11.7,1.5c-3.7,2.8-5.2,6.4-4.4,11c0.9,5.2,2.6,8.5,10,18.3c-3-0.9-5.6-0.8-6.5-2c-2.7-3.8-5.4-7.8-7.1-12.1
					c-4.3-10.7-2-17,7.6-22.5c3.9-2.2,7.8-3.1,12-1.1c2.4,1.1,4.6,2.4,8.1,4.3c0.7-4.2,1.1-7.5,1.8-10.8c1.7-7.6,5.9-10.9,13.4-10
					c4.1,0.5,8.2,2,12.3,2.7c2,0.4,4.1,0.1,5.8,0.1C-12.2,706.8-15.1,697.2-7.1,694.7z"/>
				<path class="st1" d="M-39.9,760.8c-6-4.9-4.5-9.2-2-13.5c5.2-8.8,12.9-10.1,21.9-5.9c3.4-3.6,6.1-6.8,9.2-9.6
					c6.4-5.7,13.4-11,22.5-9.1c5.4,1.1,8.2-3.2,12.5-4.4c0.6,9.2-0.6,11.7-6.5,10.8c-12.6-1.8-21.4,3.1-28.2,13.2
					c-2.9,4.3-6.6,6.1-12.1,5.3C-35.1,746-35.2,746.2-39.9,760.8z"/>
				<path class="st1" d="M14.5,762.4c0.4-9.4,4.4-16.1,9.1-22.2c3.4-4.4,8.1-6.5,13.7-6.8c2.2-0.1,3,0.6,6.5,5.8
					c-1.5,0.5-3,1.4-4.2,1.2c-6.2-1.5-10.1,1.8-13.2,6.3c-2.3,3.5-4,7.4-6.4,10.8C18.7,759.5,16.4,760.8,14.5,762.4z"/>
			</g>
			<path class="st6" d="M-105,790.1c48.2,15.3,72.3,28.9,72.3,28.9C-76.1,816.6-105,790.1-105,790.1z"/>
			<path class="st6" d="M10.7,810.2c55.5-26.5,79.6-29.7,76.4-26.5C38.1,813.4,10.7,810.2,10.7,810.2z"/>
		</g>
		<rect x="-138.1" y="556.2" class="st4" width="26.4" height="335.1"/>
		<polygon class="st3" points="651.7,631.4 585,660.7 519.5,637 522.3,661.5 584.6,688 655.3,661.5 		"/>
		<polygon class="st4" points="530.7,827.9 497.8,827.9 490.5,488.7 530.7,492.7 		"/>
		<path class="st6" d="M624.2,696c0.7,6.4,1,13.1-7.9,16.3c-0.8-1.5-2.1-2.9-2.1-4.3c0-3.8,0.5-7.6,0.9-11.8c-0.3-0.1-1.1-0.4-2-0.6
			c-2.4-0.5-3.6-2.4-2.3-3.9c0.7-0.8,1.8-1.9,2.4-1.8c5.5,1.8,10.9-0.4,16.3-0.4c2,0,2.8,1.5,3.3,5.3
			C630,695.9,626.7,691.8,624.2,696z M618.7,704.9c0.7-0.5,1.5-0.8,1.5-1.1c0-0.9-0.3-1.8-0.4-2.6c-0.4,0.3-1.1,0.5-1.2,0.8
			C618.5,702.8,618.7,703.7,618.7,704.9z"/>
		<g>
			<path class="st6" d="M570.9,645.7c-8.4-10.9-16.3-21.2-24.3-31.4c-2.7-3.5-4.2-7.3-4.3-11.7c-0.4-12.7-1-25.3-1.3-37.9
				c-0.1-3.6,2.2-6.3,6.4-7.3c6.1-1.5,12.3-3.1,18.6-3.9c15.7-2,31.5-3.5,47.2-5.4c6.8-0.8,12.4,1.1,17.6,5.3
				c5.2,4.2,10.5,8.2,15.9,12.2c6.8,5.1,10.1,11.5,8.6,20.1c-1.1,6.2-1.4,12.6-2.6,18.8c-1.4,6.7-1.5,13.2-0.6,19.9
				c0.5,3.8,0.4,7.8-0.4,11.4c-0.9,4.1-4,6.2-8.5,6.6c-14.4,1.1-28.7,2.5-43.1,3.4C590.5,646.5,581,647.2,570.9,645.7z"/>
			<g>
				<path class="st1" d="M570.9,645.7c-8.4-10.9-16.3-21.2-24.3-31.4c-2.7-3.5-4.2-7.3-4.3-11.7c-0.4-12.7-1-25.3-1.3-37.9
					c-0.1-3.6,2.2-6.3,6.4-7.3c6.1-1.5,12.3-3.1,18.6-3.9c15.7-2,31.5-3.5,47.2-5.4c6.8-0.8,12.4,1.1,17.6,5.3
					c5.2,4.2,10.5,8.2,15.9,12.2c6.8,5.1,10.1,11.5,8.6,20.1c-1.1,6.2-1.4,12.6-2.6,18.8c-1.4,6.7-1.5,13.2-0.6,19.9
					c0.5,3.8,0.4,7.8-0.4,11.4c-0.9,4.1-4,6.2-8.5,6.6c-14.4,1.1-28.7,2.5-43.1,3.4C590.5,646.5,581,647.2,570.9,645.7z
					 M647.1,635.6c-2.9-5.9-2.5-10.7-1.9-15.5c0.6-4.5,1.4-9.1,1.8-13.6c0.2-1.9-0.5-3.9-0.7-5.8c-23.7,0.4-47-1.1-69.8,7.7
					c0.8,10.8-1.4,21.6,1.4,32.6C601,641,623.2,636.6,647.1,635.6z M552.2,562c8.5,7.8,15.7,14.3,22.4,20.4
					c24-2.4,47.6-4.7,72.2-7.1c-1.5-1.7-2.5-3.1-3.7-4.1c-5-3.9-10.2-7.5-15-11.6c-5.2-4.4-10.7-6.1-17.5-5.3
					c-14.6,1.8-29.4,3.1-44,4.8C562.1,559.6,557.7,560.9,552.2,562z M572,635.5c0-9.4,0.2-17.1-0.2-24.8c-0.1-2.2-1.3-4.9-2.8-6.5
					c-5.5-5.9-11.3-11.5-17.1-17.1c-1.1-1-1.9-3.1-4.5-1.8c-0.7,5.8,0,11.7,0.7,17.6c0.2,2,1.1,4.1,2.3,5.8
					C556.3,617.7,562.5,626.7,572,635.5z"/>
				<path class="st2" d="M611.4,629c-2.2-2.9-4.3-5.6-6.7-8.7c-1.7,1.4-3,2.5-4.3,3.6c-1,0.8-1.9,1.7-3.3,2.9
					c0-6.1,1.6-8.9,5.7-10.4c4.8-1.9,6.7,2.6,10,5.3c5.3-7,12.9-5.4,20.1-5.2c1.4,0,3.5,1.6,3.8,2.9c0.5,1.6-0.5,3.7-0.8,5.2
					c-3.7,0.7-3.5-2.6-5.2-3.5c-1.3-0.6-3.3,0.1-3.2,1.4c0.1,1.7,0.8,3.4,0.8,5.1c0.1,3.9-2.9,5.9-6.3,4c-1.7-1-3-2.7-4.7-4.3
					C615.4,627.9,613.5,628.4,611.4,629z"/>
			</g>
		</g>
		<g>
			<path class="st6" d="M705.9,799.7c-6-4.3-10.4-9.7-14.9-15.2c-8.4-10.4-16.9-20.7-25.6-30.8c-2.7-3.1-6.2-5.6-9.5-8.2
				c-4.2-3.3-4.2-6.8,0.3-10.1c8-6,17-9.8,26.3-13.3c4.6-1.7,9.4-3.1,14-4.6c8.1-2.7,15.6-6.2,22.6-11.2c7.5-5.4,16.3-8.1,25.3-11.3
				c12.6,10.2,25.1,20.3,37.7,30.5c3.3,2.7,6.7,5.2,9.8,8c2.1,1.8,4.3,3.8,5.6,6.2c5.3,9.2,4.2,12.3-5,17.5
				c-11.3,6.4-23.1,11.7-35.6,15.7c-16.9,5.3-32.7,13-46.4,24.5C709.3,798.2,707.6,798.8,705.9,799.7z"/>
			<path class="st1" d="M739.5,716.2c4.6-0.7,7.4,1.6,10,3.8c6.7,5.6,13.2,11.5,21.3,15.3c2,0.9,3.2,3.4,5,5.5
				c-1.5,0.8-2.7,1.8-3.1,1.5c-5.5-3.1-11-6.2-16.1-9.8c-5.4-3.8-10.4-8.2-15.5-12.6C740.2,719.2,740.1,717.6,739.5,716.2z"/>
			<path class="st1" d="M723.4,727.3c1.3,0.2,2.7,0.2,3.8,0.8c3.6,2,21.3,18,25.2,22.9c-1.6,0.2-3.2,1-3.9,0.5
				c-9.1-6.4-17.6-13.5-25.3-21.7C722.9,729.5,723.3,728.5,723.4,727.3z"/>
			<path class="st1" d="M702.6,741.2c1.2,0.3,2.5,0.4,3.5,1c7.8,4.8,11.8,12.6,16.1,20.2c-1.8,2.4-3.5,1.4-4.4,0.1
				c-2.5-3.4-4.5-7.2-7.1-10.4c-2.6-3.2-5.8-6-8.8-8.9C702,742.5,702.3,741.9,702.6,741.2z"/>
		</g>
		<g>
			<g>
				<path class="st6" d="M448.8,1168.7c9.5,1.8,15.5,6.2,18.8,13.7c9.1,21-7.5,47.9-30.4,49.5c-13,0.9-21.3-5.2-24.3-17.9
					c-4.1-17.3,9.5-39.9,26.9-44.2C443.1,1169,446.6,1169,448.8,1168.7z M450.5,1205.3c0.8-7.4,0.3-12.5-3.6-16.8
					c-2.3-2.5-7.3-3.2-9.7-1.3c-3.4,2.8-6.3,13.2-4.9,17.3c2,5.5,6.7,10.5,9.4,8.9C445.6,1211.2,448.4,1207.4,450.5,1205.3z"/>
				<path class="st6" d="M629.7,1142.5c3.6-17.6,17.8-28.9,33.3-29.8c6.5-0.4,11.3,2,15,7.2c11.8,16.2,6.9,36.9-11.2,46
					c-5.7,2.9-11.8,5.3-17.9,7c-10.4,2.9-18.7-3.1-19.5-14.1C628.9,1152.4,629.6,1146,629.7,1142.5z M656.8,1155.3
					c5-9.7,4.9-14.1-1-19.4c-1.2-1.1-4.6-1.1-6.2-0.2c-4,2.3-5,7.5-2.3,10.6C649.8,1149.1,652.9,1151.6,656.8,1155.3z"/>
			</g>
			<g>
				<polygon class="st1" points="173.4,1087.1 184.4,930.1 306.5,902 320.6,790.7 426.2,757.4 436.9,661.1 564.9,639 746.6,721.1 
					742.2,1084.9 327.1,1188.1 				"/>
				<path class="st2" d="M470.6,870.6c18.6-2.4,37.3-4.6,55.9-7.2c14.9-2.1,29.8-4.5,44.7-6.8c3.7-0.6,7.4-1.3,10.9-2.5
					c4.5-1.5,6.1-8.4,2.4-11.2c-5.4-4-11.2-7.5-17.2-10.4c-14.3-6.8-28.8-13.2-43.2-19.7c-13.8-6.2-27.4-12.5-41.4-18.2
					c-20.1-8.3-40.5-16-60.9-24.1c-9.5,3.3-19.3,7-29.4,10c-10.1,3-20.5,4.9-30.7,7.8c-9.6,2.8-21.2,0.5-29.1,10.1
					c24,11,48,20,69.9,32.6C425.3,844.1,451.1,852,470.6,870.6z"/>
				<path class="st2" d="M363.9,1028c19.5-3.3,37.9-6.2,56.2-9.6c14.2-2.7,28.3-5.7,42.2-9.4c6.8-1.8,8.1-12.5,2.1-16.4
					c-4.9-3.2-10.4-5.8-15.9-7.6c-22.9-7.3-43.7-18.6-63.7-31.7c-8.5-5.6-16.8-11.6-25.3-17.2c-35.5-23.7-38.1-24.3-80.6-18.1
					c-14.3,2.1-28.6,3.9-42.8,6.3c-7.5,1.3-14.9,3.3-22.1,5.7c-3.3,1.1-6,3.9-11.4,7.7c29.6,15.6,56.9,29.3,83.5,44.2
					C312.7,996.8,338.6,1012.9,363.9,1028z"/>
				<polygon class="st2" points="442.4,667.7 618.1,756.6 738.9,725.9 561,646.8 				"/>
			</g>
		</g>
		<path class="st1" d="M560.7,660.8l3,29.6l-16.9,20.1l33.5-5.1l3.8-41.9C576.2,662.5,568.4,661.4,560.7,660.8z"/>
		<path class="st4" d="M591.5,580.1l-32.1-22.5l1.3,103.2c7.7,0.6,15.6,1.7,23.3,2.7L591.5,580.1z"/>
		<path class="st4" d="M697.1,605.3l-32.1-22.5l1.3,105.2c7.5,1.6,15.4,1.7,23.2,2.6L697.1,605.3z"/>
		<path class="st4" d="M477.3,277.8c43,36.2,131.4-10.4,131.4-10.4l-4.8,35.4c-62.7,16.1-118.5-5.2-118.5-5.2L477.3,277.8z"/>
		<path class="st1" d="M666.3,688l5.1,33l-21.7,17.7l36.2-8l3.6-40.1C681.7,689.7,673.7,689.6,666.3,688z"/>
		<path class="st1" d="M158.2,1042l-20.5-195.3c-0.4-4,1.2-7.9,4.4-10.8l377-340c3.1-2.8,7.1-4.3,11.3-4.3c1.8,0,3.6,0.3,5.3,0.8
			c6,1.8,10,6.1,10.6,11.6l15.7,128.1c5.1-2.1,10.7,7,15.3,3.3l-15.5-132.7c-1.2-10.7-9.3-19.5-21-22.9c-11.7-3.5-24.3-0.9-32.8,6.9
			l-377,340c-6.3,5.7-9.4,13.4-8.6,21.3l20.5,195.3c0.1,1,0.3,1.9,0.5,2.8c5.1-0.7,10.2-1.6,15.2-2.5
			C158.4,1043.1,158.3,1042.6,158.2,1042z"/>
		<path class="st1" d="M372.1,777.5c0.1,0.7,0.3,1.5,0.5,2.2c5.1-0.5,10.2-1.2,15.2-1.9c-0.1-0.4-0.2-0.8-0.3-1.2l-19.9-146.1
			c-5.2,0.2-10.3,0.5-15.4,0.8L372.1,777.5z"/>
		<path class="st1" d="M245.7,918.3c0.1,0.9,0.3,1.7,0.5,2.6c5.1-0.6,10.2-1.4,15.2-2.3c-0.1-0.5-0.2-0.9-0.3-1.4l-19.9-172
			c-5.2,0.2-10.3,0.5-15.4,1L245.7,918.3z"/>
		<path class="st8" d="M592.6,280.6l-59.7,277.3c-5.5,34.6,15.9,67.2,46.5,70.9l82.4,10c34.6,4.2,63.2-30.3,57.8-69.6l-39.2-283.6
			c-4-29.1-25.9-50.7-51.6-51l9.4,12.9C612.4,247,597.2,251.5,592.6,280.6z"/>
		<g>
			<path class="st1" d="M622.3,254.4c-40.7,11.4-64-21.7-64-21.7c-64-12.5-33.6-64-24.4-74.3c10.3-12.5,10.3-23.3,10.3-23.3
				l28.2-8.1L651,243.5L622.3,254.4z"/>
			<path class="st4" d="M615.6,272.5c8.1-15.2-8.7-42.3-8.7-42.3c-33.1,1.1-40-16.6-44.9-36.1c-8.1-32-2.2-42.8-2.2-53.1
				c0.5-41.2,14.1-60.2,28.2-55.3c45.5,24.4,71.6,151.3,69.9,152.3C655.3,257.5,615.6,272.5,615.6,272.5z"/>
			<path class="st1" d="M596.8,69.5c46.1-15.7,84-16.3,94.3,19.5c11.4,37.4,11.4,57.5,27.1,66.7c15.7,9.2,28.2,27.1,8.7,45.5
				s23.3,28.7,23.3,28.7c-48.3,45-97.6,27.7-106.3,16.8c-20.1-22.2-41.7-99.8-37.4-122.5c4.3-22.8-21.1-45.5-31.4-35.2
				c-10.3,10.3-15.7,49.9-15.7,49.9c-19,10.8-19,10.8-19,10.8s6-44.5,8.7-51C560.4,78.2,596.8,69.5,596.8,69.5z"/>
		</g>
		<path class="st8" d="M561.3,421.2l-35.4,207.6c121.4,19.3,201.9,28.9,203.3,19.3c-20.8-151.9-20.8-151.9-20.8-151.9L561.3,421.2z"
			/>
		<path class="st2" d="M590.7,200.8c-6.6-3.8-10.8-8.7-15.7-4.9c-4.9,3.8-5.9,11.1-1,11.5c4.9,0.3,11.5-1.4,13.2-3.1
			C589,202.5,590.7,200.8,590.7,200.8z"/>
		<path class="st8" d="M559.1,169c-0.6,0-1.3-0.1-1.9-0.2c-6.2-1.1-13.3-7.9-11.6-34.2l0.1-1.9l28.3,0.6l0.6,0.5
			c0.6,0.5,6.2,5.6,2.8,20.5C575.3,160.7,567.2,169,559.1,169z M549.9,136.8c-1.2,23.8,5.2,27.6,8.1,28.1
			c5.4,0.9,13.1-5.8,15.2-11.6c2.3-9.9,0-14.5-1.1-16L549.9,136.8z"/>
		<path class="st8" d="M590.5,170.1c-0.8,0-1.7-0.1-2.5-0.2c-6.6-1.3-14-8.3-11.8-34.2l0.2-2l31.2,0.3l0.6,0.5
			c0.7,0.5,6.9,5.7,2.9,20.7l-0.1,0.2C608.5,161.9,599.2,170.1,590.5,170.1z M580.7,138c-1.1,16.4,1.9,26.5,8.3,27.7
			c6.5,1.3,15.4-6.2,17.6-11.6c2.6-9.9,0.2-14.4-0.9-15.8L580.7,138z"/>
		<circle class="st1" cx="564.9" cy="154" r="4.4"/>
		<circle class="st1" cx="587.4" cy="154" r="4.4"/>
		<path class="st5" d="M573.3,165.6c-5.6,11.3-6.8,18.9-1.2,19.3s6.4-3.2,6.4-3.2c-8,4.4-6.8-2.4-6.4-6.4S573.3,165.6,573.3,165.6z"
			/>
		<polygon class="st1" points="456,240.4 466.7,336.3 436.2,321.3 428.1,261.3 		"/>
		<polygon class="st6" points="452.8,247.9 461.1,241.2 457.1,270.4 438.3,277.9 432.4,262.4 		"/>
		<polygon class="st1" points="440.4,349.1 500.9,343.7 486.5,256.5 428.1,261.3 		"/>
		<path class="st4" d="M495.4,347.8c-13.1-22-16.6-20.9-16.3-17.4c0.3,3.5,6.7,13.1,6.7,13.1c-13.4-11-18.2-15-16.1-8.6
			c2.1,6.4,13.1,13.4,13.1,13.4c-16.6-5.6-22.2-4.3-14.5,1.1c7.8,5.4,25.5,7,25.5,7L495.4,347.8z"/>
		<path class="st6" d="M676.2,269.7c-27.1,1.1-54.2,1.7-81.3,0.8c-0.9,3-1.7,6.3-2.3,10.1l-2.1,9.8c30,1.9,61.2,8.8,90.9,2.6l-1-7.5
			C679.6,279.9,678.2,274.7,676.2,269.7z"/>
		<path class="st6" d="M685.5,322.4c-33.9-1.2-68,2.2-101.5-1.8l-3,14.1c35.9,2,71.9,6.4,107.8,11.5L685.5,322.4z"/>
		<path class="st6" d="M700.8,433.6c-30.7-2.2-61.3-3.6-92.6-4.9c-15.1,0-31.8-1.6-47.4-4.9l-3.6,20.9l-0.1,0.4
			c49.1,4.5,98.1,9.7,147.2,13.9L700.8,433.6z"/>
		<path class="st6" d="M548.7,484.4l-5.4,24.8c55.4,6.1,112.1,2.1,167.7-1.8l-1.8-12.9C655.8,494,602.2,491.8,548.7,484.4z"/>
		<path class="st6" d="M672.1,616.1c-49.5-12.4-95.1-7.4-142.3-10.3l-1.9,11.3c66.1,12,133.3,19.7,199.9,20.8
			c-0.7-5.5-1.5-10.7-2.2-15.8C707.6,621.5,689.7,619.8,672.1,616.1z"/>
		<path class="st6" d="M720.1,581.8c0.2-4.2,0-8.4-0.6-12.7l-0.6-4.5c-62.1-3.2-124-2.6-184.3-14.7l-1.7,7.9
			c-1.1,6.7-1.1,13.4-0.3,19.7c62.5,11.7,126,11.8,189.1,15.9C721.2,589.4,720.6,585.5,720.1,581.8z"/>
		<path class="st6" d="M696,398.6l-0.7-5.1c-40.8-6.4-81.9-11.7-123.6-15.8l-3.3,15.1C611.5,388.2,653.1,394.2,696,398.6z"/>
		<path class="st4" d="M647.8,330.4c-41.2,49.4-116.8,48.3-162.7,21.5c0,0,0.8,5.4,4.9-6.5c0,0,109.6,36.6,175.1-70
			c0,0,13.8-4.6,8.9,24.6C670.3,312.7,647.8,330.4,647.8,330.4z"/>
		<path class="st1" d="M182.7,1011.9"/>
		<polygon class="st1" points="185.1,1030.4 110.4,1053.7 105.6,1099.8 240.6,1211.2 447.9,1158.2 315.3,1165.4 302.5,1068.2 		"/>
		<polygon class="st2" points="118.4,1056.1 246.2,1159 321,1138.9 178.7,1041.7 		"/>
		<polygon class="st3" points="357.6,1038.7 339.2,1173.9 732.3,1081.3 741.1,741.3 620.3,774.6 602.7,867.2 476.5,886.5 
			476.5,1015.7 		"/>
		<polygon class="st3" points="425.4,1155 247.8,1204 247,1168.6 367.6,1130.9 		"/>
		<path class="st9" d="M638.4,119c16.1,76.4,20.1,82,20.1,74.7S638.4,119,638.4,119z"/>
		<path class="st9" d="M656.9,111.8c16.1,85.2,25.7,98,25.7,98C677.8,177.7,656.9,111.8,656.9,111.8z"/>
		<path class="st9" d="M677,102.2c16.9,64.3,30.5,83.6,30.5,83.6C692.3,126.3,677,102.2,677,102.2z"/>
		<path class="st9" d="M611.9,82.9C628,99.7,631.2,103,631.2,103C621.5,82.9,611.9,82.9,611.9,82.9z"/>
		<path class="st9" d="M633.6,75.6c17.7,16.9,20.1,18.5,20.1,18.5C648.1,76.4,633.6,75.6,633.6,75.6z"/>
		<polygon class="st6" points="-73.4,-423.5 -72,-315.8 266.8,-312.6 269.5,-420.2 		"/>
		<path class="st2" d="M180-377.5c-68.2-1.2-136.4-2.3-204.6-3.5c-2.1,0-5-1.1-10.3-2.3c5.5-1,9.6-2.6,15.4-2.6
			c62.1,0.6,124.3,1.4,186.7,2.4C179.1-383.3,181.6-382,180-377.5z"/>
		<path class="st2" d="M216.2-341.3c-68.2-1.2-136.4-2.3-204.6-3.5c-2.1,0-5-1.1-10.3-2.3c5.5-1,9.6-2.6,15.4-2.6
			c62.1,0.6,124.3,1.4,186.7,2.4C215.2-347.2,217.8-345.8,216.2-341.3z"/>
		<polygon class="st1" points="8.3,-36.9 9.9,30.6 61.4,74 164.2,71.6 163.4,-8.8 		"/>
		<polygon class="st2" points="2.7,-35.3 58.2,19.4 169.1,8.1 170.7,-25.1 108,-74.3 5.1,-66.6 		"/>
		<polygon class="st3" points="6.7,-63.4 69.4,-12 169.1,-22.4 165.8,5.7 59,16.6 4.7,-36.5 		"/>
		<polygon class="st6" points="93.5,22.2 93.9,36.2 133.7,35 131.3,19.4 		"/>
	</g>
</g>
</svg>
