<?xml version="1.0" encoding="utf-8"?>
<!-- Generator: Adobe Illustrator 22.0.1, SVG Export Plug-In . SVG Version: 6.00 Build 0)  -->
<svg version="1.1" id="Layer_1" xmlns="http://www.w3.org/2000/svg" xmlns:xlink="http://www.w3.org/1999/xlink" x="0px" y="0px"
	 viewBox="0 0 80.8 40.4" style="enable-background:new 0 0 80.8 40.4;" xml:space="preserve">
<style type="text/css">
	.st0{fill:#FFFFFF;}
</style>
<g>
	<path class="st0" d="M80.8,18.2c0,0-8.4-1.7-12.6,1c-1.3,0.8-2.5,2-3.5,3.4c0.3,0.5,0.5,0.9,0.6,1.3c-0.1-0.4-0.3-0.8-0.6-1.3
		c-0.2-0.4-0.5-0.7-0.8-1.1c-0.1-2.2-0.3-4.6-2.2-6.5c-0.6-0.5-1.1-0.8-1.7-1.2c-0.1-0.2-0.1-0.4-0.1-0.4c-0.2-1-0.3-2-0.4-2.5
		c0.7,0,2.9,0,7-0.2c0.5,0,1.9,0.1,3.3-0.4c1.3-0.7,0.2-1.6-0.5-0.7c-0.5,0.7-2.6,0.4-3.6,0.4c-1,0-4.1,0.1-5.6,0
		c-1.5-0.1-1.3,0.1-1.2,0.8l0,0c0.1,0.9,0.2,1.7,0.3,2.4c-0.3-0.2-0.7-0.4-1.1-0.6c-0.8-0.6-2-1-3.2-1.3c-0.3-0.8-0.6-1.5-0.7-1.9
		c0.9-0.1,3-0.4,6.6-1.1c0.5-0.1,1.8-0.1,3.2-0.8c1.2-0.9-0.1-1.6-0.6-0.6c-0.4,0.7-2.3,0.8-3.3,1c-1,0.2-4.3,0.6-5.7,0.7
		c-0.9,0.1-1.2,0.2-1.2,0.5l-0.1,0c0,0,0,0.1,0.1,0.1c0,0.1,0.1,0.3,0.2,0.4c0.3,0.5,0.5,1.1,0.8,1.6c-1.9-0.4-3.7-0.3-4.6,0.4
		c-0.1,0.1-0.2,0.2-0.3,0.2c0,0-0.1,0.1-0.1,0.1c-0.1,0.1-0.1,0.3-0.1,0.4c0,0.5-0.5,1.2-0.8,1.1c-3.5-9.4-4.5-11.4-4.9-11.6
		c0,0,0,0-0.1,0c0,0-0.1,0-0.1,0.1c0,0,0,0,0,0.1c-0.5,0.4-1.4,2.4-2.9,6.4c-0.8-0.1-1.6,0-2.4,0.1c-1.7-5.9-2.2-8-2.6-8.4
		c0,0,0-0.1-0.1-0.1c0,0,0,0,0,0c-0.5-0.2-1.8,1.2-3.5,6.2C26.8,1,19.8,2.1,17.2,3.2C14,4.4,12.5,5.5,13,6.7c0.8,1.6,1.5,2.9,2.3,4
		c-2.3,3.1-5.9,7.8-6.5,8.6c-0.7,0.8-1.4,1.8-1.4,2.5c-1.2,1.5-2.9,3.5-3.6,3.9c-2,1.2-4.1,1-3.7,2c0.6,1.2,3,0.6,8-5.1
		c0.8-0.4,2.6-1.4,3-2.7c0.5-1,3.5-4.9,5.7-7.7c2.1,1.5,5.2,2,11.3,2c1.8,1.6,2.6,2.3,3.4,2.6c0.1,0.1,0.2,0.1,0.4,0.1
		c0.4,0.1,0.7,0.1,1.2,0c0.2,0.2,0.4,0.3,0.6,0.5c-0.8,0.5-1.3,0.9-1.5,1.4c-5.6-3.6-6.9-3.6-7.3-3.1c0,0-3.1,9.1-2.1,11.6
		c0.1,0.2,0.1,0.3,0.2,0.5c-0.5,4.2-0.5,4.6-1.6,5.9c-1.2,1.5-3,4.5-1.3,4c1.8-0.5,2.8-3.3,3-5.5c0.1-0.9,0.4-2.2,0.7-3.6
		c0.8-0.1,1.7-2.7,2.6-10.9c1.7,1.4,4.2,3,6.1,2.6c0,0,0.1,0,0.1,0c0.8,0.5,1.9-0.1,2.1-0.7c0.1-0.3,0.9-0.1,1.9,0.2
		c-1,0.6-1.9,1.2-1.8,1.6l0,0c1.5,3.8,3.1,5.7,4.5,6.5c-2.3,2.3-3.5,4.2-3.2,4.8c1.3,5.8,3.4,7.7,4.5,7.8c1.2,0.1,0.8-0.9-0.5-1.7
		c-1-0.7-2.5-4.9-3-6.2c1.3-0.8,3.2-3,4.2-4.2c0.4-0.1,0.7-0.5,0.7-0.8c0-1.1-4-4.4-5.7-5.8c0.6,0,1.3-0.1,2-0.3
		c0.9,0.3,1.9,0.2,2.6-0.1c1.8,0.3,3-0.2,3.9-0.6c1.2,3,3.6,6,8.1,6.7c2.6,0.4,5.6,0,7.9-0.5c0.3-0.1,0.6-0.1,1-0.2
		c0.2,0,0.3-0.1,0.5-0.1l0,0c0,0,0,0,0,0c0,0,0,0,0,0c-0.8,1.6-1.4,3.1-1.7,3.9c-0.1,0.2-0.1,0.3-0.2,0.5c0,0.1,0,0.1,0,0.1
		c0,0,0,0,0,0c-0.2,0.8-0.3,1.6-0.1,2.3c0.4,1.5,1.2,2.3,2.9,2.5l0.7-1.7c-2-1-3-1.9-2.3-4c3.3-1.6,10.4,0.2,13.4-1
		C81.1,26.7,80.8,18.2,80.8,18.2z M19,9.5c0.4-0.6,0.9-1.6,1.2-2.5c1.7,1.6,3.1,2.9,4.4,4C22.3,10.6,20.5,10.1,19,9.5z M28.1,11.3
		c-4-4.1-6.9-6.1-7.9-6.6c-0.1-0.1-0.2-0.1-0.3-0.2c0,0-0.1,0-0.1,0c-0.1,0-0.1,0.1-0.2,0.1c-0.1,0-0.1,0.1-0.2,0.1c0,0,0,0,0,0
		C19,5,18.3,5.9,17.4,7.9c-0.1,0.1-0.2,0.3-0.4,0.5c-0.3-0.2-0.7-0.4-1-0.6c-2.6-1.9-2-2.1-2-2.1c2.1-1.5,7.8-3.2,11.8-2.1
		c3.9,1.1,6.5,4.7,6.9,6C32.9,10.6,31.1,11.4,28.1,11.3z M34.2,9.9C34.1,9.9,34.1,9.9,34.2,9.9C34.1,9.9,34.1,9.9,34.2,9.9
		c-0.1,0-0.1,0-0.1,0.1c0,0,0,0,0,0C34,9.9,34.1,9.9,34.2,9.9c-0.4-0.8-0.9-1.5-1.3-2.2c0.6-1.5,1.3-3.4,1.9-4.9
		c0.9,3,1.5,4.9,1.9,6C35.8,9.1,35,9.4,34.2,9.9z M45.8,15.5L45.8,15.5C43,15.8,35.1,12,34.7,11.1c-0.4-0.9,2-1.9,5-1.9
		c0.6,0,4.8,0.2,7.3,4.7C46.5,14.4,46.2,15,45.8,15.5z M42.2,8.8c0.4-1.1,0.8-2.6,1.1-4.1c2.2,4.8,3.3,7.2,3.7,8.3
		C46,11,44.3,9.5,42.2,8.8z M65.4,24.2c0,0.3,0,0.5-0.2,0.7c-0.1,0.2-0.2,0.3-0.4,0.5c0.2-0.2,0.3-0.3,0.4-0.5
		C65.4,24.7,65.4,24.4,65.4,24.2z M64.6,22.8L64.6,22.8L64.6,22.8L64.6,22.8C64.7,22.8,64.6,22.8,64.6,22.8
		C64.6,22.8,64.6,22.8,64.6,22.8z M55.3,22c-0.1,0.5-0.8,0.8-1.6,0.9c-1.1-0.4-2.4-1.1-3.8-2.2c0-0.1,0-0.1,0-0.2
		c0.2-0.8,1.6-1.1,3.1-0.7C54.5,20.3,55.5,21.2,55.3,22z M55.8,23.8c0,0,2.4-1,2.3-3.5c-0.1-2.5-4.4-3.6-7.6-4.2
		c-3.2-0.5-2.7-1.4-1.8-2c0.9-0.6,1.3-0.7,1.3-1.4c-0.1-0.6,1.4-1.2,2.9-1.3c0.4,0,1,0.1,1.8,0.4c3.3,6.3,5.2,8.3,5.1,7
		c-0.2-1.5-3.8-6-4-6.2c-0.1-0.2-0.2-0.4-0.3-0.6c1.3,0.5,2.7,1.1,4,1.9c0.7,4.1,1.7,4.9,1.6,4c-0.1-1-0.3-2.3-0.6-3.2
		c1.1,0.9,1.9,1.9,2,2.9c0,0,0.2,0.8,0,2.3c-0.2,1.5,0.8,1.7,2,3.3C65.5,24.8,61.5,25.5,55.8,23.8z M64.9,25.4c-0.4,0.4-1,0.7-1.9,1
		C63.8,26.1,64.5,25.8,64.9,25.4z M72.8,27.5c-4.4-0.1-8.4,0-8.4,0s5.8-8.2,14.5-7.8C78.8,23.5,77,27.6,72.8,27.5z"/>
	<path class="st0" d="M64.6,22.8C64.6,22.8,64.6,22.8,64.6,22.8C64.6,22.8,64.6,22.8,64.6,22.8C64.6,22.8,64.7,22.8,64.6,22.8
		L64.6,22.8z"/>
</g>
</svg>
